<?xml version="1.0" encoding="UTF-8" standalone="no"?>
<!DOCTYPE svg PUBLIC "-//W3C//DTD SVG 1.1//EN"
 "http://www.w3.org/Graphics/SVG/1.1/DTD/svg11.dtd">
<!-- Generated by graphviz version 2.40.1 (20161225.0304)
 -->
<!-- Title: hw3_print_ip/PrintIp/Bits.h Pages: 1 -->
<svg width="220pt" height="207pt"
 viewBox="0.00 0.00 219.50 207.00" xmlns="http://www.w3.org/2000/svg" xmlns:xlink="http://www.w3.org/1999/xlink">
<g id="graph0" class="graph" transform="scale(1 1) rotate(0) translate(4 203)">
<title>hw3_print_ip/PrintIp/Bits.h</title>
<polygon fill="#ffffff" stroke="transparent" points="-4,4 -4,-203 215.5,-203 215.5,4 -4,4"/>
<!-- Node1 -->
<g id="node1" class="node">
<title>Node1</title>
<g id="a_node1"><a xlink:title=" ">
<polygon fill="#bfbfbf" stroke="#000000" points="20,-168.5 20,-198.5 133,-198.5 133,-168.5 20,-168.5"/>
<text text-anchor="start" x="28" y="-186.5" font-family="Helvetica,sans-Serif" font-size="10.00" fill="#000000">hw3_print_ip/PrintIp</text>
<text text-anchor="middle" x="76.5" y="-175.5" font-family="Helvetica,sans-Serif" font-size="10.00" fill="#000000">/Bits.h</text>
</a>
</g>
</g>
<!-- Node2 -->
<g id="node2" class="node">
<title>Node2</title>
<g id="a_node2"><a xlink:href="_print_bits_8h.html" target="_top" xlink:title=" ">
<polygon fill="#ffffff" stroke="#000000" points="23.5,-112.5 23.5,-131.5 67.5,-131.5 67.5,-112.5 23.5,-112.5"/>
<text text-anchor="middle" x="45.5" y="-119.5" font-family="Helvetica,sans-Serif" font-size="10.00" fill="#000000">Bits.h</text>
</a>
</g>
</g>
<!-- Node1&#45;&gt;Node2 -->
<g id="edge1" class="edge">
<title>Node1&#45;&gt;Node2</title>
<path fill="none" stroke="#191970" d="M64.2424,-159.1825C59.4292,-149.6337 54.1793,-139.2186 50.4635,-131.8469"/>
<polygon fill="#191970" stroke="#191970" points="61.2105,-160.9435 68.8371,-168.2977 67.4613,-157.7926 61.2105,-160.9435"/>
</g>
<!-- Node3 -->
<g id="node3" class="node">
<title>Node3</title>
<g id="a_node3"><a xlink:href="_print_ip_8h.html" target="_top" xlink:title=" ">
<polygon fill="#ffffff" stroke="#000000" points="85.5,-112.5 85.5,-131.5 129.5,-131.5 129.5,-112.5 85.5,-112.5"/>
<text text-anchor="middle" x="107.5" y="-119.5" font-family="Helvetica,sans-Serif" font-size="10.00" fill="#000000">Bits.h</text>
</a>
</g>
</g>
<!-- Node1&#45;&gt;Node3 -->
<g id="edge2" class="edge">
<title>Node1&#45;&gt;Node3</title>
<path fill="none" stroke="#191970" d="M88.7576,-159.1825C93.5708,-149.6337 98.8207,-139.2186 102.5365,-131.8469"/>
<polygon fill="#191970" stroke="#191970" points="85.5387,-157.7926 84.1629,-168.2977 91.7895,-160.9435 85.5387,-157.7926"/>
</g>
<!-- Node4 -->
<g id="node4" class="node">
<title>Node4</title>
<g id="a_node4"><a xlink:href="example_8cpp.html" target="_top" xlink:title=" ">
<polygon fill="#ffffff" stroke="#000000" points="0,-56.5 0,-75.5 101,-75.5 101,-56.5 0,-56.5"/>
<text text-anchor="middle" x="50.5" y="-63.5" font-family="Helvetica,sans-Serif" font-size="10.00" fill="#000000">../PrintIp/PrintIp.h</text>
</a>
</g>
</g>
<!-- Node3&#45;&gt;Node4 -->
<g id="edge3" class="edge">
<title>Node3&#45;&gt;Node4</title>
<path fill="none" stroke="#191970" d="M90.2729,-105.0751C80.4659,-95.4402 68.536,-83.7196 60.3149,-75.6427"/>
<polygon fill="#191970" stroke="#191970" points="87.9851,-107.734 97.5714,-112.2455 92.8909,-102.7406 87.9851,-107.734"/>
</g>
<!-- Node5 -->
<g id="node5" class="node">
<title>Node5</title>
<g id="a_node5"><a xlink:href="_print_ip_tests_8h.html" target="_top" xlink:title=" ">
<polygon fill="#ffffff" stroke="#000000" points="119.5,-56.5 119.5,-75.5 211.5,-75.5 211.5,-56.5 119.5,-56.5"/>
<text text-anchor="middle" x="165.5" y="-63.5" font-family="Helvetica,sans-Serif" font-size="10.00" fill="#000000">PrintIp/PrintIp.h</text>
</a>
</g>
</g>
<!-- Node3&#45;&gt;Node5 -->
<g id="edge4" class="edge">
<title>Node3&#45;&gt;Node5</title>
<path fill="none" stroke="#191970" d="M125.0293,-105.0751C135.0083,-95.4402 147.1476,-83.7196 155.5129,-75.6427"/>
<polygon fill="#191970" stroke="#191970" points="122.3658,-102.7817 117.6028,-112.2455 127.228,-107.8175 122.3658,-102.7817"/>
</g>
<!-- Node6 -->
<g id="node6" class="node">
<title>Node6</title>
<g id="a_node6"><a xlink:href="_print_ip_tests_8cpp.html" target="_top" xlink:title=" ">
<polygon fill="#ffffff" stroke="#000000" points="124.5,-.5 124.5,-19.5 206.5,-19.5 206.5,-.5 124.5,-.5"/>
<text text-anchor="middle" x="165.5" y="-7.5" font-family="Helvetica,sans-Serif" font-size="10.00" fill="#000000">PrintIpTests.h</text>
</a>
</g>
</g>
<!-- Node5&#45;&gt;Node6 -->
<g id="edge5" class="edge">
<title>Node5&#45;&gt;Node6</title>
<path fill="none" stroke="#191970" d="M165.5,-46.1575C165.5,-37.155 165.5,-26.9199 165.5,-19.6427"/>
<polygon fill="#191970" stroke="#191970" points="162.0001,-46.2455 165.5,-56.2455 169.0001,-46.2456 162.0001,-46.2455"/>
</g>
</g>
</svg>
