<?xml version="1.0" encoding="UTF-8" standalone="no"?>
<!DOCTYPE svg PUBLIC "-//W3C//DTD SVG 1.1//EN"
 "http://www.w3.org/Graphics/SVG/1.1/DTD/svg11.dtd">
<!-- Generated by graphviz version 2.40.1 (20161225.0304)
 -->
<!-- Title: hw1_ip_filter/src/IpFilter/GenericIp.h Pages: 1 -->
<svg width="409pt" height="431pt"
 viewBox="0.00 0.00 408.50 431.00" xmlns="http://www.w3.org/2000/svg" xmlns:xlink="http://www.w3.org/1999/xlink">
<g id="graph0" class="graph" transform="scale(1 1) rotate(0) translate(4 427)">
<title>hw1_ip_filter/src/IpFilter/GenericIp.h</title>
<polygon fill="#ffffff" stroke="transparent" points="-4,4 -4,-427 404.5,-427 404.5,4 -4,4"/>
<!-- Node1 -->
<g id="node1" class="node">
<title>Node1</title>
<g id="a_node1"><a xlink:title=" ">
<polygon fill="#bfbfbf" stroke="#000000" points="268.5,-392.5 268.5,-422.5 400.5,-422.5 400.5,-392.5 268.5,-392.5"/>
<text text-anchor="start" x="276.5" y="-410.5" font-family="Helvetica,sans-Serif" font-size="10.00" fill="#000000">hw1_ip_filter/src/IpFilter</text>
<text text-anchor="middle" x="334.5" y="-399.5" font-family="Helvetica,sans-Serif" font-size="10.00" fill="#000000">/GenericIp.h</text>
</a>
</g>
</g>
<!-- Node2 -->
<g id="node2" class="node">
<title>Node2</title>
<g id="a_node2"><a xlink:href="_ip_functions_8h.html" target="_top" xlink:title=" ">
<polygon fill="#ffffff" stroke="#000000" points="279.5,-224.5 279.5,-243.5 351.5,-243.5 351.5,-224.5 279.5,-224.5"/>
<text text-anchor="middle" x="315.5" y="-231.5" font-family="Helvetica,sans-Serif" font-size="10.00" fill="#000000">GenericIp.h</text>
</a>
</g>
</g>
<!-- Node1&#45;&gt;Node2 -->
<g id="edge1" class="edge">
<title>Node1&#45;&gt;Node2</title>
<path fill="none" stroke="#191970" d="M331.7503,-382.3909C327.4817,-343.4121 319.4518,-270.0866 316.5664,-243.738"/>
<polygon fill="#191970" stroke="#191970" points="328.2792,-382.847 332.8471,-392.4065 335.2376,-382.0849 328.2792,-382.847"/>
</g>
<!-- Node8 -->
<g id="node8" class="node">
<title>Node8</title>
<g id="a_node8"><a xlink:href="_ip_v4_8h.html" target="_top" xlink:title=" ">
<polygon fill="#ffffff" stroke="#000000" points="215.5,-336.5 215.5,-355.5 287.5,-355.5 287.5,-336.5 215.5,-336.5"/>
<text text-anchor="middle" x="251.5" y="-343.5" font-family="Helvetica,sans-Serif" font-size="10.00" fill="#000000">GenericIp.h</text>
</a>
</g>
</g>
<!-- Node1&#45;&gt;Node8 -->
<g id="edge9" class="edge">
<title>Node1&#45;&gt;Node8</title>
<path fill="none" stroke="#191970" d="M305.6645,-386.1339C291.7673,-375.8366 275.7745,-363.9865 264.7894,-355.8469"/>
<polygon fill="#191970" stroke="#191970" points="303.8647,-389.1564 313.9831,-392.2977 308.0321,-383.5321 303.8647,-389.1564"/>
</g>
<!-- Node3 -->
<g id="node3" class="node">
<title>Node3</title>
<g id="a_node3"><a xlink:href="_ip_storage_8h.html" target="_top" xlink:title=" ">
<polygon fill="#ffffff" stroke="#000000" points="211.5,-168.5 211.5,-187.5 291.5,-187.5 291.5,-168.5 211.5,-168.5"/>
<text text-anchor="middle" x="251.5" y="-175.5" font-family="Helvetica,sans-Serif" font-size="10.00" fill="#000000">IpFunctions.h</text>
</a>
</g>
</g>
<!-- Node2&#45;&gt;Node3 -->
<g id="edge2" class="edge">
<title>Node2&#45;&gt;Node3</title>
<path fill="none" stroke="#191970" d="M296.8086,-217.645C285.6781,-207.9058 271.9337,-195.8795 262.5202,-187.6427"/>
<polygon fill="#191970" stroke="#191970" points="294.5215,-220.2945 304.3521,-224.2455 299.131,-215.0264 294.5215,-220.2945"/>
</g>
<!-- Node4 -->
<g id="node4" class="node">
<title>Node4</title>
<g id="a_node4"><a xlink:href="_ip_storage_printer_8h.html" target="_top" xlink:title=" ">
<polygon fill="#ffffff" stroke="#000000" points="211.5,-112.5 211.5,-131.5 283.5,-131.5 283.5,-112.5 211.5,-112.5"/>
<text text-anchor="middle" x="247.5" y="-119.5" font-family="Helvetica,sans-Serif" font-size="10.00" fill="#000000">IpStorage.h</text>
</a>
</g>
</g>
<!-- Node3&#45;&gt;Node4 -->
<g id="edge3" class="edge">
<title>Node3&#45;&gt;Node4</title>
<path fill="none" stroke="#191970" d="M250.0827,-158.1575C249.4396,-149.155 248.7086,-138.9199 248.1888,-131.6427"/>
<polygon fill="#191970" stroke="#191970" points="246.5996,-158.5204 250.8033,-168.2455 253.5818,-158.0216 246.5996,-158.5204"/>
</g>
<!-- Node5 -->
<g id="node5" class="node">
<title>Node5</title>
<g id="a_node5"><a xlink:href="hw1__ip__filter_2src_2_ip_filter_example_2main_8cpp.html" target="_top" xlink:title=" ">
<polygon fill="#ffffff" stroke="#000000" points="83.5,-56.5 83.5,-75.5 223.5,-75.5 223.5,-56.5 83.5,-56.5"/>
<text text-anchor="middle" x="153.5" y="-63.5" font-family="Helvetica,sans-Serif" font-size="10.00" fill="#000000">IpFilter/IpStoragePrinter.h</text>
</a>
</g>
</g>
<!-- Node3&#45;&gt;Node5 -->
<g id="edge7" class="edge">
<title>Node3&#45;&gt;Node5</title>
<path fill="none" stroke="#191970" d="M232.3822,-161.5087C222.9948,-153.0554 211.7453,-142.3767 202.5,-132 185.7915,-113.2467 168.897,-89.0839 159.9697,-75.8135"/>
<polygon fill="#191970" stroke="#191970" points="230.2475,-164.2934 240.0551,-168.3011 234.8873,-159.052 230.2475,-164.2934"/>
</g>
<!-- Node6 -->
<g id="node6" class="node">
<title>Node6</title>
<g id="a_node6"><a xlink:href="_ip_storage_tests_8h.html" target="_top" xlink:title=" ">
<polygon fill="#ffffff" stroke="#000000" points="241.5,-56.5 241.5,-75.5 381.5,-75.5 381.5,-56.5 241.5,-56.5"/>
<text text-anchor="middle" x="311.5" y="-63.5" font-family="Helvetica,sans-Serif" font-size="10.00" fill="#000000">IpFilter/IpStoragePrinter.h</text>
</a>
</g>
</g>
<!-- Node3&#45;&gt;Node6 -->
<g id="edge8" class="edge">
<title>Node3&#45;&gt;Node6</title>
<path fill="none" stroke="#191970" d="M269.9121,-161.0981C277.834,-152.9682 286.6088,-142.6783 292.5,-132 302.6373,-113.6252 307.8163,-89.3204 310.0632,-75.9244"/>
<polygon fill="#191970" stroke="#191970" points="267.1085,-158.9448 262.4128,-168.4423 272.0063,-163.946 267.1085,-158.9448"/>
</g>
<!-- Node4&#45;&gt;Node5 -->
<g id="edge4" class="edge">
<title>Node4&#45;&gt;Node5</title>
<path fill="none" stroke="#191970" d="M222.3995,-107.0465C205.674,-97.0824 184.1832,-84.2794 169.6859,-75.6427"/>
<polygon fill="#191970" stroke="#191970" points="220.7441,-110.1343 231.1264,-112.2455 224.3268,-104.1206 220.7441,-110.1343"/>
</g>
<!-- Node4&#45;&gt;Node6 -->
<g id="edge5" class="edge">
<title>Node4&#45;&gt;Node6</title>
<path fill="none" stroke="#191970" d="M266.1914,-105.645C277.3219,-95.9058 291.0663,-83.8795 300.4798,-75.6427"/>
<polygon fill="#191970" stroke="#191970" points="263.869,-103.0264 258.6479,-112.2455 268.4785,-108.2945 263.869,-103.0264"/>
</g>
<!-- Node7 -->
<g id="node7" class="node">
<title>Node7</title>
<g id="a_node7"><a xlink:href="_ip_filter_tests_8cpp.html" target="_top" xlink:title=" ">
<polygon fill="#ffffff" stroke="#000000" points="126,-.5 126,-19.5 223,-19.5 223,-.5 126,-.5"/>
<text text-anchor="middle" x="174.5" y="-7.5" font-family="Helvetica,sans-Serif" font-size="10.00" fill="#000000">IpStorageTests.h</text>
</a>
</g>
</g>
<!-- Node6&#45;&gt;Node7 -->
<g id="edge6" class="edge">
<title>Node6&#45;&gt;Node7</title>
<path fill="none" stroke="#191970" d="M278.5194,-52.5189C253.5689,-42.3201 219.9266,-28.5685 197.7438,-19.5011"/>
<polygon fill="#191970" stroke="#191970" points="277.368,-55.8293 287.9489,-56.3733 280.0166,-49.3497 277.368,-55.8293"/>
</g>
<!-- Node8&#45;&gt;Node5 -->
<g id="edge14" class="edge">
<title>Node8&#45;&gt;Node5</title>
<path fill="none" stroke="#191970" d="M210.4988,-332.8764C169.1848,-316.7806 111.5,-285.1487 111.5,-234 111.5,-234 111.5,-234 111.5,-178 111.5,-137.9203 135.3717,-94.6153 147.1211,-75.7285"/>
<polygon fill="#191970" stroke="#191970" points="209.4886,-336.2351 220.0813,-336.45 211.9346,-329.6763 209.4886,-336.2351"/>
</g>
<!-- Node8&#45;&gt;Node6 -->
<g id="edge15" class="edge">
<title>Node8&#45;&gt;Node6</title>
<path fill="none" stroke="#191970" d="M287.5651,-332.5006C325.421,-315.7138 379.5,-283.1344 379.5,-234 379.5,-234 379.5,-234 379.5,-178 379.5,-134.5519 341.6474,-93.5911 322.4254,-75.5917"/>
<polygon fill="#191970" stroke="#191970" points="286.1644,-329.2928 278.333,-336.4286 288.905,-335.7341 286.1644,-329.2928"/>
</g>
<!-- Node9 -->
<g id="node9" class="node">
<title>Node9</title>
<g id="a_node9"><a xlink:href="_restrictions_8h.html" target="_top" xlink:title=" ">
<polygon fill="#ffffff" stroke="#000000" points="228,-280.5 228,-299.5 275,-299.5 275,-280.5 228,-280.5"/>
<text text-anchor="middle" x="251.5" y="-287.5" font-family="Helvetica,sans-Serif" font-size="10.00" fill="#000000">IpV4.h</text>
</a>
</g>
</g>
<!-- Node8&#45;&gt;Node9 -->
<g id="edge10" class="edge">
<title>Node8&#45;&gt;Node9</title>
<path fill="none" stroke="#191970" d="M251.5,-326.1575C251.5,-317.155 251.5,-306.9199 251.5,-299.6427"/>
<polygon fill="#191970" stroke="#191970" points="248.0001,-326.2455 251.5,-336.2455 255.0001,-326.2456 248.0001,-326.2455"/>
</g>
<!-- Node11 -->
<g id="node11" class="node">
<title>Node11</title>
<g id="a_node11"><a xlink:href="_ip_v4_tests_8h.html" target="_top" xlink:title=" ">
<polygon fill="#ffffff" stroke="#000000" points="0,-168.5 0,-187.5 83,-187.5 83,-168.5 0,-168.5"/>
<text text-anchor="middle" x="41.5" y="-175.5" font-family="Helvetica,sans-Serif" font-size="10.00" fill="#000000">IpFilter/IpV4.h</text>
</a>
</g>
</g>
<!-- Node8&#45;&gt;Node11 -->
<g id="edge16" class="edge">
<title>Node8&#45;&gt;Node11</title>
<path fill="none" stroke="#191970" d="M205.4288,-336.6378C166.2124,-327.8917 113.7276,-314.1002 97.5,-300 61.7881,-268.9698 47.5003,-210.438 43.1149,-187.5322"/>
<polygon fill="#191970" stroke="#191970" points="204.8189,-340.087 215.3357,-338.804 206.3142,-333.2486 204.8189,-340.087"/>
</g>
<!-- Node9&#45;&gt;Node2 -->
<g id="edge11" class="edge">
<title>Node9&#45;&gt;Node2</title>
<path fill="none" stroke="#191970" d="M270.1914,-273.645C281.3219,-263.9058 295.0663,-251.8795 304.4798,-243.6427"/>
<polygon fill="#191970" stroke="#191970" points="267.869,-271.0264 262.6479,-280.2455 272.4785,-276.2945 267.869,-271.0264"/>
</g>
<!-- Node9&#45;&gt;Node3 -->
<g id="edge12" class="edge">
<title>Node9&#45;&gt;Node3</title>
<path fill="none" stroke="#191970" d="M251.5,-270.2702C251.5,-245.9985 251.5,-205.7725 251.5,-187.5249"/>
<polygon fill="#191970" stroke="#191970" points="248.0001,-270.4509 251.5,-280.4509 255.0001,-270.451 248.0001,-270.4509"/>
</g>
<!-- Node10 -->
<g id="node10" class="node">
<title>Node10</title>
<g id="a_node10"><a xlink:href="_restrictions_8cpp.html" target="_top" xlink:title=" ">
<polygon fill="#ffffff" stroke="#000000" points="140,-224.5 140,-243.5 223,-243.5 223,-224.5 140,-224.5"/>
<text text-anchor="middle" x="181.5" y="-231.5" font-family="Helvetica,sans-Serif" font-size="10.00" fill="#000000">Restrictions.h</text>
</a>
</g>
</g>
<!-- Node9&#45;&gt;Node10 -->
<g id="edge13" class="edge">
<title>Node9&#45;&gt;Node10</title>
<path fill="none" stroke="#191970" d="M231.41,-273.928C219.1747,-264.1397 203.9493,-251.9595 193.5533,-243.6427"/>
<polygon fill="#191970" stroke="#191970" points="229.3118,-276.7316 239.3069,-280.2455 233.6847,-271.2655 229.3118,-276.7316"/>
</g>
<!-- Node11&#45;&gt;Node7 -->
<g id="edge17" class="edge">
<title>Node11&#45;&gt;Node7</title>
<path fill="none" stroke="#191970" d="M41.872,-157.9345C43.3834,-131.6129 49.6944,-85.3361 74.5,-56 89.8002,-37.9054 113.7402,-26.5475 134.3605,-19.6454"/>
<polygon fill="#191970" stroke="#191970" points="38.3645,-158.0605 41.4719,-168.1893 45.3592,-158.3334 38.3645,-158.0605"/>
</g>
</g>
</svg>
