<?xml version="1.0" encoding="UTF-8" standalone="no"?>
<!DOCTYPE svg PUBLIC "-//W3C//DTD SVG 1.1//EN"
 "http://www.w3.org/Graphics/SVG/1.1/DTD/svg11.dtd">
<!-- Generated by graphviz version 2.40.1 (20161225.0304)
 -->
<!-- Title: hw1_ip_filter/src/IpFilter/IpStoragePrinter.h Pages: 1 -->
<svg width="644pt" height="330pt"
 viewBox="0.00 0.00 643.50 330.00" xmlns="http://www.w3.org/2000/svg" xmlns:xlink="http://www.w3.org/1999/xlink">
<g id="graph0" class="graph" transform="scale(1 1) rotate(0) translate(4 326)">
<title>hw1_ip_filter/src/IpFilter/IpStoragePrinter.h</title>
<polygon fill="#ffffff" stroke="transparent" points="-4,4 -4,-326 639.5,-326 639.5,4 -4,4"/>
<!-- Node1 -->
<g id="node1" class="node">
<title>Node1</title>
<g id="a_node1"><a xlink:title=" ">
<polygon fill="#bfbfbf" stroke="#000000" points="482,-291.5 482,-321.5 614,-321.5 614,-291.5 482,-291.5"/>
<text text-anchor="start" x="490" y="-309.5" font-family="Helvetica,sans-Serif" font-size="10.00" fill="#000000">hw1_ip_filter/src/IpFilter</text>
<text text-anchor="middle" x="548" y="-298.5" font-family="Helvetica,sans-Serif" font-size="10.00" fill="#000000">/IpStoragePrinter.h</text>
</a>
</g>
</g>
<!-- Node2 -->
<g id="node2" class="node">
<title>Node2</title>
<g id="a_node2"><a xlink:href="_ip_storage_8h.html" target="_top" xlink:title=" ">
<polygon fill="#ffffff" stroke="#000000" points="356,-235.5 356,-254.5 428,-254.5 428,-235.5 356,-235.5"/>
<text text-anchor="middle" x="392" y="-242.5" font-family="Helvetica,sans-Serif" font-size="10.00" fill="#000000">IpStorage.h</text>
</a>
</g>
</g>
<!-- Node1&#45;&gt;Node2 -->
<g id="edge1" class="edge">
<title>Node1&#45;&gt;Node2</title>
<path fill="none" stroke="#191970" d="M509.8381,-291.4554C484.0374,-281.284 450.2874,-267.9787 425.5222,-258.2155"/>
<polygon fill="#191970" stroke="#191970" points="426.7613,-254.9419 416.1745,-254.5303 424.194,-261.4541 426.7613,-254.9419"/>
</g>
<!-- Node15 -->
<g id="node15" class="node">
<title>Node15</title>
<g id="a_node15"><a xlink:title=" ">
<polygon fill="#ffffff" stroke="#bfbfbf" points="519.5,-179.5 519.5,-198.5 576.5,-198.5 576.5,-179.5 519.5,-179.5"/>
<text text-anchor="middle" x="548" y="-186.5" font-family="Helvetica,sans-Serif" font-size="10.00" fill="#000000">ostream</text>
</a>
</g>
</g>
<!-- Node1&#45;&gt;Node15 -->
<g id="edge21" class="edge">
<title>Node1&#45;&gt;Node15</title>
<path fill="none" stroke="#191970" d="M548,-291.1389C548,-269.9692 548,-231.8174 548,-208.6112"/>
<polygon fill="#191970" stroke="#191970" points="551.5001,-208.5594 548,-198.5595 544.5001,-208.5595 551.5001,-208.5594"/>
</g>
<!-- Node17 -->
<g id="node17" class="node">
<title>Node17</title>
<g id="a_node17"><a xlink:title=" ">
<polygon fill="#ffffff" stroke="#bfbfbf" points="594.5,-179.5 594.5,-198.5 635.5,-198.5 635.5,-179.5 594.5,-179.5"/>
<text text-anchor="middle" x="615" y="-186.5" font-family="Helvetica,sans-Serif" font-size="10.00" fill="#000000">tuple</text>
</a>
</g>
</g>
<!-- Node1&#45;&gt;Node17 -->
<g id="edge22" class="edge">
<title>Node1&#45;&gt;Node17</title>
<path fill="none" stroke="#191970" d="M556.7591,-291.1389C569.0498,-269.5843 591.3792,-230.4245 604.5307,-207.3604"/>
<polygon fill="#191970" stroke="#191970" points="607.636,-208.9802 609.5491,-198.5595 601.5551,-205.5128 607.636,-208.9802"/>
</g>
<!-- Node3 -->
<g id="node3" class="node">
<title>Node3</title>
<g id="a_node3"><a xlink:href="_ip_v4_8h.html" target="_top" xlink:title=" ">
<polygon fill="#ffffff" stroke="#000000" points="211.5,-179.5 211.5,-198.5 258.5,-198.5 258.5,-179.5 211.5,-179.5"/>
<text text-anchor="middle" x="235" y="-186.5" font-family="Helvetica,sans-Serif" font-size="10.00" fill="#000000">IpV4.h</text>
</a>
</g>
</g>
<!-- Node2&#45;&gt;Node3 -->
<g id="edge2" class="edge">
<title>Node2&#45;&gt;Node3</title>
<path fill="none" stroke="#191970" d="M365.0107,-235.3733C338.1889,-225.8062 297.0026,-211.1156 268.1941,-200.8399"/>
<polygon fill="#191970" stroke="#191970" points="269.1588,-197.4681 258.5642,-197.4051 266.8071,-204.0613 269.1588,-197.4681"/>
</g>
<!-- Node5 -->
<g id="node5" class="node">
<title>Node5</title>
<g id="a_node5"><a xlink:href="_type_traits_8h.html" target="_top" xlink:title=" ">
<polygon fill="#ffffff" stroke="#000000" points="0,-56.5 0,-75.5 126,-75.5 126,-56.5 0,-56.5"/>
<text text-anchor="middle" x="63" y="-63.5" font-family="Helvetica,sans-Serif" font-size="10.00" fill="#000000">TypeTraits/TypeTraits.h</text>
</a>
</g>
</g>
<!-- Node2&#45;&gt;Node5 -->
<g id="edge15" class="edge">
<title>Node2&#45;&gt;Node5</title>
<path fill="none" stroke="#191970" d="M355.6689,-241.8803C315.86,-237.2116 251.1324,-225.8691 202,-199 147.5594,-169.228 98.9301,-112.6228 76.3488,-83.8101"/>
<polygon fill="#191970" stroke="#191970" points="79.0725,-81.6105 70.1994,-75.8209 73.5254,-85.8802 79.0725,-81.6105"/>
</g>
<!-- Node11 -->
<g id="node11" class="node">
<title>Node11</title>
<g id="a_node11"><a xlink:href="_operation_result_8h.html" target="_top" xlink:title=" ">
<polygon fill="#ffffff" stroke="#000000" points="302,-112.5 302,-142.5 448,-142.5 448,-112.5 302,-112.5"/>
<text text-anchor="start" x="310" y="-130.5" font-family="Helvetica,sans-Serif" font-size="10.00" fill="#000000">OperationResult/Operation</text>
<text text-anchor="middle" x="375" y="-119.5" font-family="Helvetica,sans-Serif" font-size="10.00" fill="#000000">Result.h</text>
</a>
</g>
</g>
<!-- Node2&#45;&gt;Node11 -->
<g id="edge10" class="edge">
<title>Node2&#45;&gt;Node11</title>
<path fill="none" stroke="#191970" d="M356.0343,-235.454C337.6374,-228.5484 316.8785,-217.1556 306,-199 294.3108,-179.4913 312.9605,-161.1135 333.801,-147.8757"/>
<polygon fill="#191970" stroke="#191970" points="335.6709,-150.8358 342.4663,-142.7073 332.085,-144.824 335.6709,-150.8358"/>
</g>
<!-- Node14 -->
<g id="node14" class="node">
<title>Node14</title>
<g id="a_node14"><a xlink:title=" ">
<polygon fill="#ffffff" stroke="#bfbfbf" points="315,-179.5 315,-198.5 347,-198.5 347,-179.5 315,-179.5"/>
<text text-anchor="middle" x="331" y="-186.5" font-family="Helvetica,sans-Serif" font-size="10.00" fill="#000000">set</text>
</a>
</g>
</g>
<!-- Node2&#45;&gt;Node14 -->
<g id="edge16" class="edge">
<title>Node2&#45;&gt;Node14</title>
<path fill="none" stroke="#191970" d="M381.3746,-235.2455C372.4527,-227.0549 359.512,-215.1749 348.9808,-205.5069"/>
<polygon fill="#191970" stroke="#191970" points="351.2371,-202.8271 341.5036,-198.6427 346.5032,-207.9837 351.2371,-202.8271"/>
</g>
<!-- Node2&#45;&gt;Node15 -->
<g id="edge17" class="edge">
<title>Node2&#45;&gt;Node15</title>
<path fill="none" stroke="#191970" d="M418.8174,-235.3733C444.5332,-226.1419 483.538,-212.1402 511.9599,-201.9375"/>
<polygon fill="#191970" stroke="#191970" points="513.3032,-205.174 521.5326,-198.5011 510.9381,-198.5857 513.3032,-205.174"/>
</g>
<!-- Node16 -->
<g id="node16" class="node">
<title>Node16</title>
<g id="a_node16"><a xlink:title=" ">
<polygon fill="#ffffff" stroke="#bfbfbf" points="365.5,-179.5 365.5,-198.5 418.5,-198.5 418.5,-179.5 365.5,-179.5"/>
<text text-anchor="middle" x="392" y="-186.5" font-family="Helvetica,sans-Serif" font-size="10.00" fill="#000000">iterator</text>
</a>
</g>
</g>
<!-- Node2&#45;&gt;Node16 -->
<g id="edge18" class="edge">
<title>Node2&#45;&gt;Node16</title>
<path fill="none" stroke="#191970" d="M392,-235.2455C392,-227.9382 392,-217.6944 392,-208.7046"/>
<polygon fill="#191970" stroke="#191970" points="395.5001,-208.6426 392,-198.6427 388.5001,-208.6427 395.5001,-208.6426"/>
</g>
<!-- Node2&#45;&gt;Node17 -->
<g id="edge19" class="edge">
<title>Node2&#45;&gt;Node17</title>
<path fill="none" stroke="#191970" d="M428.0339,-237.5771C465.1319,-229.6889 524.7714,-216.3258 584.5113,-199.2431"/>
<polygon fill="#191970" stroke="#191970" points="585.8531,-202.4984 594.4855,-196.3558 583.9066,-195.7745 585.8531,-202.4984"/>
</g>
<!-- Node18 -->
<g id="node18" class="node">
<title>Node18</title>
<g id="a_node18"><a xlink:title=" ">
<polygon fill="#ffffff" stroke="#bfbfbf" points="437,-179.5 437,-198.5 501,-198.5 501,-179.5 437,-179.5"/>
<text text-anchor="middle" x="469" y="-186.5" font-family="Helvetica,sans-Serif" font-size="10.00" fill="#000000">algorithm</text>
</a>
</g>
</g>
<!-- Node2&#45;&gt;Node18 -->
<g id="edge20" class="edge">
<title>Node2&#45;&gt;Node18</title>
<path fill="none" stroke="#191970" d="M405.4124,-235.2455C417.0057,-226.814 433.9748,-214.4729 447.4678,-204.6598"/>
<polygon fill="#191970" stroke="#191970" points="449.7126,-207.355 455.7413,-198.6427 445.5953,-201.6938 449.7126,-207.355"/>
</g>
<!-- Node4 -->
<g id="node4" class="node">
<title>Node4</title>
<g id="a_node4"><a xlink:href="_generic_ip_8h.html" target="_top" xlink:title=" ">
<polygon fill="#ffffff" stroke="#000000" points="199,-118 199,-137 271,-137 271,-118 199,-118"/>
<text text-anchor="middle" x="235" y="-125" font-family="Helvetica,sans-Serif" font-size="10.00" fill="#000000">GenericIp.h</text>
</a>
</g>
</g>
<!-- Node3&#45;&gt;Node4 -->
<g id="edge3" class="edge">
<title>Node3&#45;&gt;Node4</title>
<path fill="none" stroke="#191970" d="M235,-179.3906C235,-170.8657 235,-158.1392 235,-147.4235"/>
<polygon fill="#191970" stroke="#191970" points="238.5001,-147.2448 235,-137.2449 231.5001,-147.2449 238.5001,-147.2448"/>
</g>
<!-- Node4&#45;&gt;Node5 -->
<g id="edge4" class="edge">
<title>Node4&#45;&gt;Node5</title>
<path fill="none" stroke="#191970" d="M208.125,-117.8906C178.8414,-107.42 131.831,-90.6111 99.2863,-78.9745"/>
<polygon fill="#191970" stroke="#191970" points="100.2809,-75.6131 89.6863,-75.5419 97.9241,-82.2045 100.2809,-75.6131"/>
</g>
<!-- Node7 -->
<g id="node7" class="node">
<title>Node7</title>
<g id="a_node7"><a xlink:title=" ">
<polygon fill="#ffffff" stroke="#bfbfbf" points="214,-56.5 214,-75.5 256,-75.5 256,-56.5 214,-56.5"/>
<text text-anchor="middle" x="235" y="-63.5" font-family="Helvetica,sans-Serif" font-size="10.00" fill="#000000">array</text>
</a>
</g>
</g>
<!-- Node4&#45;&gt;Node7 -->
<g id="edge6" class="edge">
<title>Node4&#45;&gt;Node7</title>
<path fill="none" stroke="#191970" d="M235,-117.8906C235,-109.3657 235,-96.6392 235,-85.9235"/>
<polygon fill="#191970" stroke="#191970" points="238.5001,-85.7448 235,-75.7449 231.5001,-85.7449 238.5001,-85.7448"/>
</g>
<!-- Node8 -->
<g id="node8" class="node">
<title>Node8</title>
<g id="a_node8"><a xlink:title=" ">
<polygon fill="#ffffff" stroke="#bfbfbf" points="274,-56.5 274,-75.5 334,-75.5 334,-56.5 274,-56.5"/>
<text text-anchor="middle" x="304" y="-63.5" font-family="Helvetica,sans-Serif" font-size="10.00" fill="#000000">iostream</text>
</a>
</g>
</g>
<!-- Node4&#45;&gt;Node8 -->
<g id="edge7" class="edge">
<title>Node4&#45;&gt;Node8</title>
<path fill="none" stroke="#191970" d="M245.7813,-117.8906C256.3526,-108.4683 272.6825,-93.9134 285.3603,-82.6137"/>
<polygon fill="#191970" stroke="#191970" points="287.9304,-85.0114 293.0667,-75.7449 283.2728,-79.7858 287.9304,-85.0114"/>
</g>
<!-- Node9 -->
<g id="node9" class="node">
<title>Node9</title>
<g id="a_node9"><a xlink:title=" ">
<polygon fill="#ffffff" stroke="#bfbfbf" points="352.5,-56.5 352.5,-75.5 397.5,-75.5 397.5,-56.5 352.5,-56.5"/>
<text text-anchor="middle" x="375" y="-63.5" font-family="Helvetica,sans-Serif" font-size="10.00" fill="#000000">utility</text>
</a>
</g>
</g>
<!-- Node4&#45;&gt;Node9 -->
<g id="edge8" class="edge">
<title>Node4&#45;&gt;Node9</title>
<path fill="none" stroke="#191970" d="M256.875,-117.8906C280.2996,-107.6005 317.6596,-91.1888 344.0841,-79.5809"/>
<polygon fill="#191970" stroke="#191970" points="345.5307,-82.7683 353.2786,-75.5419 342.7154,-76.3594 345.5307,-82.7683"/>
</g>
<!-- Node10 -->
<g id="node10" class="node">
<title>Node10</title>
<g id="a_node10"><a xlink:title=" ">
<polygon fill="#ffffff" stroke="#bfbfbf" points="144,-56.5 144,-75.5 196,-75.5 196,-56.5 144,-56.5"/>
<text text-anchor="middle" x="170" y="-63.5" font-family="Helvetica,sans-Serif" font-size="10.00" fill="#000000">cassert</text>
</a>
</g>
</g>
<!-- Node4&#45;&gt;Node10 -->
<g id="edge9" class="edge">
<title>Node4&#45;&gt;Node10</title>
<path fill="none" stroke="#191970" d="M224.8438,-117.8906C214.9801,-108.5581 199.7945,-94.1902 187.9013,-82.9374"/>
<polygon fill="#191970" stroke="#191970" points="189.9689,-80.0753 180.2994,-75.7449 185.1579,-85.1601 189.9689,-80.0753"/>
</g>
<!-- Node6 -->
<g id="node6" class="node">
<title>Node6</title>
<g id="a_node6"><a xlink:title=" ">
<polygon fill="#ffffff" stroke="#bfbfbf" points="28.5,-.5 28.5,-19.5 97.5,-19.5 97.5,-.5 28.5,-.5"/>
<text text-anchor="middle" x="63" y="-7.5" font-family="Helvetica,sans-Serif" font-size="10.00" fill="#000000">type_traits</text>
</a>
</g>
</g>
<!-- Node5&#45;&gt;Node6 -->
<g id="edge5" class="edge">
<title>Node5&#45;&gt;Node6</title>
<path fill="none" stroke="#191970" d="M63,-56.2455C63,-48.9382 63,-38.6944 63,-29.7046"/>
<polygon fill="#191970" stroke="#191970" points="66.5001,-29.6426 63,-19.6427 59.5001,-29.6427 66.5001,-29.6426"/>
</g>
<!-- Node11&#45;&gt;Node8 -->
<g id="edge12" class="edge">
<title>Node11&#45;&gt;Node8</title>
<path fill="none" stroke="#191970" d="M357.4494,-112.2977C346.9779,-103.2274 333.6789,-91.7077 322.9662,-82.4285"/>
<polygon fill="#191970" stroke="#191970" points="325.2182,-79.7487 315.368,-75.8469 320.6351,-85.0398 325.2182,-79.7487"/>
</g>
<!-- Node11&#45;&gt;Node9 -->
<g id="edge14" class="edge">
<title>Node11&#45;&gt;Node9</title>
<path fill="none" stroke="#191970" d="M375,-112.2977C375,-104.3834 375,-94.6043 375,-86.0759"/>
<polygon fill="#191970" stroke="#191970" points="378.5001,-85.8469 375,-75.8469 371.5001,-85.847 378.5001,-85.8469"/>
</g>
<!-- Node12 -->
<g id="node12" class="node">
<title>Node12</title>
<g id="a_node12"><a xlink:title=" ">
<polygon fill="#ffffff" stroke="#bfbfbf" points="416,-56.5 416,-75.5 460,-75.5 460,-56.5 416,-56.5"/>
<text text-anchor="middle" x="438" y="-63.5" font-family="Helvetica,sans-Serif" font-size="10.00" fill="#000000">string</text>
</a>
</g>
</g>
<!-- Node11&#45;&gt;Node12 -->
<g id="edge11" class="edge">
<title>Node11&#45;&gt;Node12</title>
<path fill="none" stroke="#191970" d="M390.573,-112.2977C399.6825,-103.4052 411.2034,-92.1586 420.6091,-82.9769"/>
<polygon fill="#191970" stroke="#191970" points="423.202,-85.3368 427.9129,-75.8469 418.3122,-80.3278 423.202,-85.3368"/>
</g>
<!-- Node13 -->
<g id="node13" class="node">
<title>Node13</title>
<g id="a_node13"><a xlink:title=" ">
<polygon fill="#ffffff" stroke="#bfbfbf" points="478,-56.5 478,-75.5 534,-75.5 534,-56.5 478,-56.5"/>
<text text-anchor="middle" x="506" y="-63.5" font-family="Helvetica,sans-Serif" font-size="10.00" fill="#000000">sstream</text>
</a>
</g>
</g>
<!-- Node11&#45;&gt;Node13 -->
<g id="edge13" class="edge">
<title>Node11&#45;&gt;Node13</title>
<path fill="none" stroke="#191970" d="M407.0462,-112.4554C428.2328,-102.509 455.8028,-89.5659 476.4588,-79.8686"/>
<polygon fill="#191970" stroke="#191970" points="478.1349,-82.9483 485.6996,-75.5303 475.1601,-76.6118 478.1349,-82.9483"/>
</g>
</g>
</svg>
