<?xml version="1.0" encoding="UTF-8" standalone="no"?>
<!DOCTYPE svg PUBLIC "-//W3C//DTD SVG 1.1//EN"
 "http://www.w3.org/Graphics/SVG/1.1/DTD/svg11.dtd">
<!-- Generated by graphviz version 2.40.1 (20161225.0304)
 -->
<!-- Title: hw2_ip_filter/src/IpFilter/IpStoragePrinter.cpp Pages: 1 -->
<!--zoomable 274 -->
<svg id="main" version="1.1" xmlns="http://www.w3.org/2000/svg" xmlns:xlink="http://www.w3.org/1999/xlink" xml:space="preserve" onload="init(evt)">
<style type="text/css"><![CDATA[
.edge:hover path { stroke: red; }
.edge:hover polygon { stroke: red; fill: red; }
]]></style>
<script type="text/javascript"><![CDATA[
var edges = document.getElementsByTagName('g');
if (edges && edges.length) {
  for (var i=0;i<edges.length;i++) {
    if (edges[i].id.substr(0,4)=='edge') {
      edges[i].setAttribute('class','edge');
    }
  }
}
]]></script>
        <defs>
                <circle id="rim" cx="0" cy="0" r="7"/>
                <circle id="rim2" cx="0" cy="0" r="3.5"/>
                <g id="zoomPlus">
                        <use xlink:href="#rim" fill="#404040">
                                <set attributeName="fill" to="#808080" begin="zoomplus.mouseover" end="zoomplus.mouseout"/>
                        </use>
                        <path d="M-4,0h8M0,-4v8" fill="none" stroke="white" stroke-width="1.5" pointer-events="none"/>
                </g>
                <g id="zoomMin">
                        <use xlink:href="#rim" fill="#404040">
                                <set attributeName="fill" to="#808080" begin="zoomminus.mouseover" end="zoomminus.mouseout"/>
                        </use>
                        <path d="M-4,0h8" fill="none" stroke="white" stroke-width="1.5" pointer-events="none"/>
                </g>
                <g id="dirArrow">
                        <path fill="none" stroke="white" stroke-width="1.5" d="M0,-3.0v7 M-2.5,-0.5L0,-3.0L2.5,-0.5"/>
                </g>
               <g id="resetDef">
                       <use xlink:href="#rim2" fill="#404040">
                               <set attributeName="fill" to="#808080" begin="reset.mouseover" end="reset.mouseout"/>
                       </use>
               </g>
        </defs>

<script type="text/javascript">
var viewWidth = 680;
var viewHeight = 274;
var sectionId = 'dynsection-0';
</script>
<script xlink:href="svgpan.js"/>
<svg id="graph" class="graph">
<g id="viewport">
<title>hw2_ip_filter/src/IpFilter/IpStoragePrinter.cpp</title>
<polygon fill="#ffffff" stroke="transparent" points="-4,4 -4,-270 676.1569,-270 676.1569,4 -4,4"/>
<!-- Node0 -->
<g id="node1" class="node">
<title>Node0</title>
<polygon fill="#bfbfbf" stroke="#000000" points="221.6569,-235.5 221.6569,-265.5 353.6569,-265.5 353.6569,-235.5 221.6569,-235.5"/>
<text text-anchor="start" x="229.6569" y="-253.5" font-family="Helvetica,sans-Serif" font-size="10.00" fill="#000000">hw2_ip_filter/src/IpFilter</text>
<text text-anchor="middle" x="287.6569" y="-242.5" font-family="Helvetica,sans-Serif" font-size="10.00" fill="#000000">/IpStoragePrinter.cpp</text>
</g>
<!-- Node1 -->
<g id="node2" class="node">
<title>Node1</title>
<g id="a_node2"><a xlink:href="_ip_storage_printer_8h.html" target="_top" xlink:title="IpStoragePrinter.h">
<polygon fill="#ffffff" stroke="#000000" points="235.6569,-179.5 235.6569,-198.5 339.6569,-198.5 339.6569,-179.5 235.6569,-179.5"/>
<text text-anchor="middle" x="287.6569" y="-186.5" font-family="Helvetica,sans-Serif" font-size="10.00" fill="#000000">IpStoragePrinter.h</text>
</a>
</g>
</g>
<!-- Node0&#45;&gt;Node1 -->
<g id="edge1" class="edge">
<title>Node0&#45;&gt;Node1</title>
<path fill="none" stroke="#191970" d="M287.6569,-235.2977C287.6569,-227.3834 287.6569,-217.6043 287.6569,-209.0759"/>
<polygon fill="#191970" stroke="#191970" points="291.157,-208.8469 287.6569,-198.8469 284.157,-208.847 291.157,-208.8469"/>
</g>
<!-- Node2 -->
<g id="node3" class="node">
<title>Node2</title>
<g id="a_node3"><a xlink:href="_ip_storage_8h.html" target="_top" xlink:title="IpStorage.h">
<polygon fill="#ffffff" stroke="#000000" points="251.6569,-123.5 251.6569,-142.5 323.6569,-142.5 323.6569,-123.5 251.6569,-123.5"/>
<text text-anchor="middle" x="287.6569" y="-130.5" font-family="Helvetica,sans-Serif" font-size="10.00" fill="#000000">IpStorage.h</text>
</a>
</g>
</g>
<!-- Node1&#45;&gt;Node2 -->
<g id="edge2" class="edge">
<title>Node1&#45;&gt;Node2</title>
<path fill="none" stroke="#191970" d="M287.6569,-179.2455C287.6569,-171.9382 287.6569,-161.6944 287.6569,-152.7046"/>
<polygon fill="#191970" stroke="#191970" points="291.157,-152.6426 287.6569,-142.6427 284.157,-152.6427 291.157,-152.6426"/>
</g>
<!-- Node7 -->
<g id="node8" class="node">
<title>Node7</title>
<polygon fill="#ffffff" stroke="#bfbfbf" points="54.1569,-.5 54.1569,-19.5 111.1569,-19.5 111.1569,-.5 54.1569,-.5"/>
<text text-anchor="middle" x="82.6569" y="-7.5" font-family="Helvetica,sans-Serif" font-size="10.00" fill="#000000">ostream</text>
</g>
<!-- Node1&#45;&gt;Node7 -->
<g id="edge20" class="edge">
<title>Node1&#45;&gt;Node7</title>
<path fill="none" stroke="#191970" d="M243.3347,-179.4488C171.2003,-162.9057 33.6176,-126.847 5.6569,-87 -2.257,-75.7218 -1.1429,-67.9829 5.6569,-56 14.1851,-40.9712 29.7879,-30.3282 44.7297,-23.0927"/>
<polygon fill="#191970" stroke="#191970" points="46.1667,-26.2841 53.8784,-19.0191 43.3194,-19.8894 46.1667,-26.2841"/>
</g>
<!-- Node16 -->
<g id="node17" class="node">
<title>Node16</title>
<polygon fill="#ffffff" stroke="#bfbfbf" points="631.1569,-62 631.1569,-81 672.1569,-81 672.1569,-62 631.1569,-62"/>
<text text-anchor="middle" x="651.6569" y="-69" font-family="Helvetica,sans-Serif" font-size="10.00" fill="#000000">tuple</text>
</g>
<!-- Node1&#45;&gt;Node16 -->
<g id="edge21" class="edge">
<title>Node1&#45;&gt;Node16</title>
<path fill="none" stroke="#191970" d="M327.0204,-179.4457C390.3002,-163.5422 518.0525,-129.1811 621.6569,-87 622.848,-86.515 624.0553,-85.9994 625.2672,-85.4618"/>
<polygon fill="#191970" stroke="#191970" points="626.951,-88.5362 634.4574,-81.0592 623.9267,-82.2232 626.951,-88.5362"/>
</g>
<!-- Node3 -->
<g id="node4" class="node">
<title>Node3</title>
<g id="a_node4"><a xlink:href="_ip_v4_8h.html" target="_top" xlink:title="IpV4.h">
<polygon fill="#ffffff" stroke="#000000" points="207.1569,-62 207.1569,-81 254.1569,-81 254.1569,-62 207.1569,-62"/>
<text text-anchor="middle" x="230.6569" y="-69" font-family="Helvetica,sans-Serif" font-size="10.00" fill="#000000">IpV4.h</text>
</a>
</g>
</g>
<!-- Node2&#45;&gt;Node3 -->
<g id="edge3" class="edge">
<title>Node2&#45;&gt;Node3</title>
<path fill="none" stroke="#191970" d="M278.7506,-123.3906C270.1841,-114.1478 257.04,-99.966 246.6566,-88.7628"/>
<polygon fill="#191970" stroke="#191970" points="249.0534,-86.2 239.6887,-81.2449 243.9194,-90.9584 249.0534,-86.2"/>
</g>
<!-- Node2&#45;&gt;Node7 -->
<g id="edge16" class="edge">
<title>Node2&#45;&gt;Node7</title>
<path fill="none" stroke="#191970" d="M265.8527,-123.443C247.1695,-114.8866 219.8438,-101.4854 197.6569,-87 179.4063,-75.0846 177.5044,-68.5112 159.6569,-56 143.3955,-44.6006 124.2267,-33.143 109.0828,-24.5141"/>
<polygon fill="#191970" stroke="#191970" points="110.6667,-21.3892 100.2358,-19.5328 107.2323,-27.4889 110.6667,-21.3892"/>
</g>
<!-- Node8 -->
<g id="node9" class="node">
<title>Node8</title>
<g id="a_node9"><a xlink:href="_operation_result_8h.html" target="_top" xlink:title="OperationResult/Operation\lResult.h">
<polygon fill="#ffffff" stroke="#000000" points="272.6569,-56.5 272.6569,-86.5 418.6569,-86.5 418.6569,-56.5 272.6569,-56.5"/>
<text text-anchor="start" x="280.6569" y="-74.5" font-family="Helvetica,sans-Serif" font-size="10.00" fill="#000000">OperationResult/Operation</text>
<text text-anchor="middle" x="345.6569" y="-63.5" font-family="Helvetica,sans-Serif" font-size="10.00" fill="#000000">Result.h</text>
</a>
</g>
</g>
<!-- Node2&#45;&gt;Node8 -->
<g id="edge8" class="edge">
<title>Node2&#45;&gt;Node8</title>
<path fill="none" stroke="#191970" d="M296.7194,-123.3906C304.1329,-115.5298 314.9156,-104.0964 324.4739,-93.9612"/>
<polygon fill="#191970" stroke="#191970" points="327.1537,-96.221 331.4685,-86.5446 322.0612,-91.4183 327.1537,-96.221"/>
</g>
<!-- Node12 -->
<g id="node13" class="node">
<title>Node12</title>
<g id="a_node13"><a xlink:href="_type_traits_8h.html" target="_top" xlink:title="TypeTraits/TypeTraits.h">
<polygon fill="#ffffff" stroke="#000000" points="486.6569,-62 486.6569,-81 612.6569,-81 612.6569,-62 486.6569,-62"/>
<text text-anchor="middle" x="549.6569" y="-69" font-family="Helvetica,sans-Serif" font-size="10.00" fill="#000000">TypeTraits/TypeTraits.h</text>
</a>
</g>
</g>
<!-- Node2&#45;&gt;Node12 -->
<g id="edge13" class="edge">
<title>Node2&#45;&gt;Node12</title>
<path fill="none" stroke="#191970" d="M323.8118,-124.5133C369.3469,-113.8247 447.8344,-95.4011 499.2439,-83.3336"/>
<polygon fill="#191970" stroke="#191970" points="500.2114,-86.7017 509.147,-81.009 498.6117,-79.8869 500.2114,-86.7017"/>
</g>
<!-- Node14 -->
<g id="node15" class="node">
<title>Node14</title>
<polygon fill="#ffffff" stroke="#bfbfbf" points="436.6569,-62 436.6569,-81 468.6569,-81 468.6569,-62 436.6569,-62"/>
<text text-anchor="middle" x="452.6569" y="-69" font-family="Helvetica,sans-Serif" font-size="10.00" fill="#000000">set</text>
</g>
<!-- Node2&#45;&gt;Node14 -->
<g id="edge15" class="edge">
<title>Node2&#45;&gt;Node14</title>
<path fill="none" stroke="#191970" d="M323.9414,-123.6437C352.7479,-115.612 393.6864,-102.8364 427.6569,-87 428.3338,-86.6844 429.015,-86.3543 429.6977,-86.0124"/>
<polygon fill="#191970" stroke="#191970" points="431.4244,-89.057 438.4415,-81.119 428.0058,-82.9485 431.4244,-89.057"/>
</g>
<!-- Node15 -->
<g id="node16" class="node">
<title>Node15</title>
<polygon fill="#ffffff" stroke="#bfbfbf" points="15.1569,-62 15.1569,-81 68.1569,-81 68.1569,-62 15.1569,-62"/>
<text text-anchor="middle" x="41.6569" y="-69" font-family="Helvetica,sans-Serif" font-size="10.00" fill="#000000">iterator</text>
</g>
<!-- Node2&#45;&gt;Node15 -->
<g id="edge17" class="edge">
<title>Node2&#45;&gt;Node15</title>
<path fill="none" stroke="#191970" d="M251.4339,-127.2343C209.1348,-120.0063 137.3492,-106.1938 77.6569,-87 75.5515,-86.323 73.4005,-85.5681 71.2494,-84.766"/>
<polygon fill="#191970" stroke="#191970" points="72.5431,-81.5139 61.9588,-81.0421 69.9387,-88.0114 72.5431,-81.5139"/>
</g>
<!-- Node2&#45;&gt;Node16 -->
<g id="edge18" class="edge">
<title>Node2&#45;&gt;Node16</title>
<path fill="none" stroke="#191970" d="M323.8791,-132.0135C386.1476,-129.4434 516.8945,-120.198 621.6569,-87 623.1239,-86.5351 624.6055,-86.0026 626.0832,-85.4212"/>
<polygon fill="#191970" stroke="#191970" points="627.9473,-88.4174 635.5845,-81.0741 625.0349,-82.052 627.9473,-88.4174"/>
</g>
<!-- Node17 -->
<g id="node18" class="node">
<title>Node17</title>
<polygon fill="#ffffff" stroke="#bfbfbf" points="86.6569,-62 86.6569,-81 150.6569,-81 150.6569,-62 86.6569,-62"/>
<text text-anchor="middle" x="118.6569" y="-69" font-family="Helvetica,sans-Serif" font-size="10.00" fill="#000000">algorithm</text>
</g>
<!-- Node2&#45;&gt;Node17 -->
<g id="edge19" class="edge">
<title>Node2&#45;&gt;Node17</title>
<path fill="none" stroke="#191970" d="M261.2506,-123.3906C232.4778,-112.92 186.2873,-96.1111 154.3103,-84.4745"/>
<polygon fill="#191970" stroke="#191970" points="155.4718,-81.1726 144.8777,-81.0419 153.0779,-87.7506 155.4718,-81.1726"/>
</g>
<!-- Node4 -->
<g id="node5" class="node">
<title>Node4</title>
<polygon fill="#ffffff" stroke="#bfbfbf" points="129.1569,-.5 129.1569,-19.5 182.1569,-19.5 182.1569,-.5 129.1569,-.5"/>
<text text-anchor="middle" x="155.6569" y="-7.5" font-family="Helvetica,sans-Serif" font-size="10.00" fill="#000000">cstddef</text>
</g>
<!-- Node3&#45;&gt;Node4 -->
<g id="edge4" class="edge">
<title>Node3&#45;&gt;Node4</title>
<path fill="none" stroke="#191970" d="M218.9381,-61.8906C207.3381,-52.3786 189.359,-37.6357 175.5248,-26.2917"/>
<polygon fill="#191970" stroke="#191970" points="177.4929,-23.3792 167.5409,-19.7449 173.0543,-28.7921 177.4929,-23.3792"/>
</g>
<!-- Node5 -->
<g id="node6" class="node">
<title>Node5</title>
<polygon fill="#ffffff" stroke="#bfbfbf" points="200.6569,-.5 200.6569,-19.5 242.6569,-19.5 242.6569,-.5 200.6569,-.5"/>
<text text-anchor="middle" x="221.6569" y="-7.5" font-family="Helvetica,sans-Serif" font-size="10.00" fill="#000000">array</text>
</g>
<!-- Node3&#45;&gt;Node5 -->
<g id="edge5" class="edge">
<title>Node3&#45;&gt;Node5</title>
<path fill="none" stroke="#191970" d="M229.2506,-61.8906C228.0031,-53.3657 226.1407,-40.6392 224.5725,-29.9235"/>
<polygon fill="#191970" stroke="#191970" points="227.9942,-29.1326 223.083,-19.7449 221.0679,-30.1463 227.9942,-29.1326"/>
</g>
<!-- Node6 -->
<g id="node7" class="node">
<title>Node6</title>
<polygon fill="#ffffff" stroke="#bfbfbf" points="260.6569,-.5 260.6569,-19.5 304.6569,-19.5 304.6569,-.5 260.6569,-.5"/>
<text text-anchor="middle" x="282.6569" y="-7.5" font-family="Helvetica,sans-Serif" font-size="10.00" fill="#000000">string</text>
</g>
<!-- Node3&#45;&gt;Node6 -->
<g id="edge6" class="edge">
<title>Node3&#45;&gt;Node6</title>
<path fill="none" stroke="#191970" d="M238.7819,-61.8906C246.5211,-52.7376 258.3556,-38.7409 267.7841,-27.59"/>
<polygon fill="#191970" stroke="#191970" points="270.6334,-29.6409 274.4173,-19.7449 265.288,-25.1213 270.6334,-29.6409"/>
</g>
<!-- Node3&#45;&gt;Node7 -->
<g id="edge7" class="edge">
<title>Node3&#45;&gt;Node7</title>
<path fill="none" stroke="#191970" d="M207.5319,-61.8906C182.6602,-51.5554 142.9271,-35.0447 114.9725,-23.4284"/>
<polygon fill="#191970" stroke="#191970" points="116.197,-20.1472 105.6195,-19.5419 113.5109,-26.6113 116.197,-20.1472"/>
</g>
<!-- Node8&#45;&gt;Node6 -->
<g id="edge9" class="edge">
<title>Node8&#45;&gt;Node6</title>
<path fill="none" stroke="#191970" d="M330.0839,-56.2977C320.9744,-47.4052 309.4535,-36.1586 300.0478,-26.9769"/>
<polygon fill="#191970" stroke="#191970" points="302.3447,-24.3278 292.744,-19.8469 297.4549,-29.3368 302.3447,-24.3278"/>
</g>
<!-- Node9 -->
<g id="node10" class="node">
<title>Node9</title>
<polygon fill="#ffffff" stroke="#bfbfbf" points="386.6569,-.5 386.6569,-19.5 446.6569,-19.5 446.6569,-.5 386.6569,-.5"/>
<text text-anchor="middle" x="416.6569" y="-7.5" font-family="Helvetica,sans-Serif" font-size="10.00" fill="#000000">iostream</text>
</g>
<!-- Node8&#45;&gt;Node9 -->
<g id="edge10" class="edge">
<title>Node8&#45;&gt;Node9</title>
<path fill="none" stroke="#191970" d="M363.2075,-56.2977C373.679,-47.2274 386.978,-35.7077 397.6907,-26.4285"/>
<polygon fill="#191970" stroke="#191970" points="400.0218,-29.0398 405.2889,-19.8469 395.4387,-23.7487 400.0218,-29.0398"/>
</g>
<!-- Node10 -->
<g id="node11" class="node">
<title>Node10</title>
<polygon fill="#ffffff" stroke="#bfbfbf" points="464.6569,-.5 464.6569,-19.5 520.6569,-19.5 520.6569,-.5 464.6569,-.5"/>
<text text-anchor="middle" x="492.6569" y="-7.5" font-family="Helvetica,sans-Serif" font-size="10.00" fill="#000000">sstream</text>
</g>
<!-- Node8&#45;&gt;Node10 -->
<g id="edge11" class="edge">
<title>Node8&#45;&gt;Node10</title>
<path fill="none" stroke="#191970" d="M381.6171,-56.4554C405.7142,-46.374 437.1699,-33.2139 460.4472,-23.4755"/>
<polygon fill="#191970" stroke="#191970" points="462.0028,-26.6187 469.8771,-19.5303 459.3011,-20.1611 462.0028,-26.6187"/>
</g>
<!-- Node11 -->
<g id="node12" class="node">
<title>Node11</title>
<polygon fill="#ffffff" stroke="#bfbfbf" points="323.1569,-.5 323.1569,-19.5 368.1569,-19.5 368.1569,-.5 323.1569,-.5"/>
<text text-anchor="middle" x="345.6569" y="-7.5" font-family="Helvetica,sans-Serif" font-size="10.00" fill="#000000">utility</text>
</g>
<!-- Node8&#45;&gt;Node11 -->
<g id="edge12" class="edge">
<title>Node8&#45;&gt;Node11</title>
<path fill="none" stroke="#191970" d="M345.6569,-56.2977C345.6569,-48.3834 345.6569,-38.6043 345.6569,-30.0759"/>
<polygon fill="#191970" stroke="#191970" points="349.157,-29.8469 345.6569,-19.8469 342.157,-29.847 349.157,-29.8469"/>
</g>
<!-- Node13 -->
<g id="node14" class="node">
<title>Node13</title>
<polygon fill="#ffffff" stroke="#bfbfbf" points="539.1569,-.5 539.1569,-19.5 608.1569,-19.5 608.1569,-.5 539.1569,-.5"/>
<text text-anchor="middle" x="573.6569" y="-7.5" font-family="Helvetica,sans-Serif" font-size="10.00" fill="#000000">type_traits</text>
</g>
<!-- Node12&#45;&gt;Node13 -->
<g id="edge14" class="edge">
<title>Node12&#45;&gt;Node13</title>
<path fill="none" stroke="#191970" d="M553.4069,-61.8906C556.8037,-53.1862 561.91,-40.1015 566.1449,-29.2494"/>
<polygon fill="#191970" stroke="#191970" points="569.4791,-30.3331 569.854,-19.7449 562.958,-27.7882 569.4791,-30.3331"/>
</g>
</g>
</svg>
        <g id="navigator" transform="translate(0 0)" fill="#404254">
                <rect fill="#f2f5e9" fill-opacity="0.5" stroke="#606060" stroke-width=".5" x="0" y="0" width="60" height="60"/>
                <use id="zoomplus" xlink:href="#zoomPlus" x="17" y="9" onmousedown="handleZoom(evt,'in')"/>
                <use id="zoomminus" xlink:href="#zoomMin" x="42" y="9" onmousedown="handleZoom(evt,'out')"/>
                <use id="reset" xlink:href="#resetDef" x="30" y="36" onmousedown="handleReset()"/>
                <g id="arrowUp" xlink:href="#dirArrow" transform="translate(30 24)" onmousedown="handlePan(0,-1)">
                  <use xlink:href="#rim" fill="#404040">
                        <set attributeName="fill" to="#808080" begin="arrowUp.mouseover" end="arrowUp.mouseout"/>
                  </use>
                  <path fill="none" stroke="white" stroke-width="1.5" d="M0,-3.0v7 M-2.5,-0.5L0,-3.0L2.5,-0.5"/>
                </g>
                <g id="arrowRight" xlink:href="#dirArrow" transform="rotate(90) translate(36 -43)" onmousedown="handlePan(1,0)">
                  <use xlink:href="#rim" fill="#404040">
                        <set attributeName="fill" to="#808080" begin="arrowRight.mouseover" end="arrowRight.mouseout"/>
                  </use>
                  <path fill="none" stroke="white" stroke-width="1.5" d="M0,-3.0v7 M-2.5,-0.5L0,-3.0L2.5,-0.5"/>
                </g>
                <g id="arrowDown" xlink:href="#dirArrow" transform="rotate(180) translate(-30 -48)" onmousedown="handlePan(0,1)">
                  <use xlink:href="#rim" fill="#404040">
                        <set attributeName="fill" to="#808080" begin="arrowDown.mouseover" end="arrowDown.mouseout"/>
                  </use>
                  <path fill="none" stroke="white" stroke-width="1.5" d="M0,-3.0v7 M-2.5,-0.5L0,-3.0L2.5,-0.5"/>
                </g>
                <g id="arrowLeft" xlink:href="#dirArrow" transform="rotate(270) translate(-36 17)" onmousedown="handlePan(-1,0)">
                  <use xlink:href="#rim" fill="#404040">
                        <set attributeName="fill" to="#808080" begin="arrowLeft.mouseover" end="arrowLeft.mouseout"/>
                  </use>
                  <path fill="none" stroke="white" stroke-width="1.5" d="M0,-3.0v7 M-2.5,-0.5L0,-3.0L2.5,-0.5"/>
                </g>
        </g>
        <svg viewBox="0 0 15 15" width="100%" height="30px" preserveAspectRatio="xMaxYMin meet">
         <g id="arrow_out" transform="scale(0.3 0.3)">
          <a xlink:href="_ip_storage_printer_8cpp__incl_org.svg" target="_base">
           <rect id="button" ry="5" rx="5" y="6" x="6" height="38" width="38"
                fill="#f2f5e9" fill-opacity="0.5" stroke="#606060" stroke-width="1.0"/>
           <path id="arrow"
             d="M 11.500037,31.436501 C 11.940474,20.09759 22.043105,11.32322 32.158766,21.979434 L 37.068811,17.246167 C 37.068811,17.246167 37.088388,32 37.088388,32 L 22.160133,31.978069 C 22.160133,31.978069 26.997745,27.140456 26.997745,27.140456 C 18.528582,18.264221 13.291696,25.230495 11.500037,31.436501 z"
             style="fill:#404040;"/>
          </a>
         </g>
        </svg>
</svg>
