<?xml version="1.0" encoding="UTF-8" standalone="no"?>
<!DOCTYPE svg PUBLIC "-//W3C//DTD SVG 1.1//EN"
 "http://www.w3.org/Graphics/SVG/1.1/DTD/svg11.dtd">
<!-- Generated by graphviz version 2.40.1 (20161225.0304)
 -->
<!-- Title: hw1_ip_filter/src/IpFilter/IpFunctions.h Pages: 1 -->
<svg width="306pt" height="263pt"
 viewBox="0.00 0.00 306.00 263.00" xmlns="http://www.w3.org/2000/svg" xmlns:xlink="http://www.w3.org/1999/xlink">
<g id="graph0" class="graph" transform="scale(1 1) rotate(0) translate(4 259)">
<title>hw1_ip_filter/src/IpFilter/IpFunctions.h</title>
<polygon fill="#ffffff" stroke="transparent" points="-4,4 -4,-259 302,-259 302,4 -4,4"/>
<!-- Node1 -->
<g id="node1" class="node">
<title>Node1</title>
<g id="a_node1"><a xlink:title=" ">
<polygon fill="#bfbfbf" stroke="#000000" points="79,-224.5 79,-254.5 211,-254.5 211,-224.5 79,-224.5"/>
<text text-anchor="start" x="87" y="-242.5" font-family="Helvetica,sans-Serif" font-size="10.00" fill="#000000">hw1_ip_filter/src/IpFilter</text>
<text text-anchor="middle" x="145" y="-231.5" font-family="Helvetica,sans-Serif" font-size="10.00" fill="#000000">/IpFunctions.h</text>
</a>
</g>
</g>
<!-- Node2 -->
<g id="node2" class="node">
<title>Node2</title>
<g id="a_node2"><a xlink:href="_ip_storage_8h.html" target="_top" xlink:title=" ">
<polygon fill="#ffffff" stroke="#000000" points="105,-168.5 105,-187.5 185,-187.5 185,-168.5 105,-168.5"/>
<text text-anchor="middle" x="145" y="-175.5" font-family="Helvetica,sans-Serif" font-size="10.00" fill="#000000">IpFunctions.h</text>
</a>
</g>
</g>
<!-- Node1&#45;&gt;Node2 -->
<g id="edge1" class="edge">
<title>Node1&#45;&gt;Node2</title>
<path fill="none" stroke="#191970" d="M145,-214.2849C145,-204.9858 145,-194.9883 145,-187.8469"/>
<polygon fill="#191970" stroke="#191970" points="141.5001,-214.2977 145,-224.2977 148.5001,-214.2978 141.5001,-214.2977"/>
</g>
<!-- Node3 -->
<g id="node3" class="node">
<title>Node3</title>
<g id="a_node3"><a xlink:href="_ip_storage_printer_8h.html" target="_top" xlink:title=" ">
<polygon fill="#ffffff" stroke="#000000" points="109,-112.5 109,-131.5 181,-131.5 181,-112.5 109,-112.5"/>
<text text-anchor="middle" x="145" y="-119.5" font-family="Helvetica,sans-Serif" font-size="10.00" fill="#000000">IpStorage.h</text>
</a>
</g>
</g>
<!-- Node2&#45;&gt;Node3 -->
<g id="edge2" class="edge">
<title>Node2&#45;&gt;Node3</title>
<path fill="none" stroke="#191970" d="M145,-158.1575C145,-149.155 145,-138.9199 145,-131.6427"/>
<polygon fill="#191970" stroke="#191970" points="141.5001,-158.2455 145,-168.2455 148.5001,-158.2456 141.5001,-158.2455"/>
</g>
<!-- Node4 -->
<g id="node4" class="node">
<title>Node4</title>
<g id="a_node4"><a xlink:href="hw1__ip__filter_2src_2_ip_filter_example_2main_8cpp.html" target="_top" xlink:title=" ">
<polygon fill="#ffffff" stroke="#000000" points="0,-56.5 0,-75.5 140,-75.5 140,-56.5 0,-56.5"/>
<text text-anchor="middle" x="70" y="-63.5" font-family="Helvetica,sans-Serif" font-size="10.00" fill="#000000">IpFilter/IpStoragePrinter.h</text>
</a>
</g>
</g>
<!-- Node2&#45;&gt;Node4 -->
<g id="edge6" class="edge">
<title>Node2&#45;&gt;Node4</title>
<path fill="none" stroke="#191970" d="M125.9996,-161.448C117.3133,-153.2069 107.3467,-142.7267 100,-132 87.4824,-113.7234 77.9968,-89.3818 73.2907,-75.9532"/>
<polygon fill="#191970" stroke="#191970" points="123.7689,-164.1512 133.505,-168.3297 128.4996,-158.9918 123.7689,-164.1512"/>
</g>
<!-- Node5 -->
<g id="node5" class="node">
<title>Node5</title>
<g id="a_node5"><a xlink:href="_ip_storage_tests_8h.html" target="_top" xlink:title=" ">
<polygon fill="#ffffff" stroke="#000000" points="158,-56.5 158,-75.5 298,-75.5 298,-56.5 158,-56.5"/>
<text text-anchor="middle" x="228" y="-63.5" font-family="Helvetica,sans-Serif" font-size="10.00" fill="#000000">IpFilter/IpStoragePrinter.h</text>
</a>
</g>
</g>
<!-- Node2&#45;&gt;Node5 -->
<g id="edge7" class="edge">
<title>Node2&#45;&gt;Node5</title>
<path fill="none" stroke="#191970" d="M163.2115,-161.4502C171.8719,-153.0848 182.0449,-142.4991 190,-132 204.0534,-113.4524 216.7443,-89.2124 223.3037,-75.8737"/>
<polygon fill="#191970" stroke="#191970" points="160.6685,-159.0374 155.7904,-168.4424 165.4689,-164.1322 160.6685,-159.0374"/>
</g>
<!-- Node3&#45;&gt;Node4 -->
<g id="edge3" class="edge">
<title>Node3&#45;&gt;Node4</title>
<path fill="none" stroke="#191970" d="M123.8523,-106.2097C110.6799,-96.3743 94.16,-84.0394 82.9143,-75.6427"/>
<polygon fill="#191970" stroke="#191970" points="121.8291,-109.0671 131.936,-112.2455 126.0172,-103.4581 121.8291,-109.0671"/>
</g>
<!-- Node3&#45;&gt;Node5 -->
<g id="edge4" class="edge">
<title>Node3&#45;&gt;Node5</title>
<path fill="none" stroke="#191970" d="M167.988,-106.49C182.6322,-96.6096 201.1444,-84.1194 213.7082,-75.6427"/>
<polygon fill="#191970" stroke="#191970" points="165.7896,-103.7511 159.4575,-112.2455 169.7047,-109.5539 165.7896,-103.7511"/>
</g>
<!-- Node6 -->
<g id="node6" class="node">
<title>Node6</title>
<g id="a_node6"><a xlink:href="_ip_filter_tests_8cpp.html" target="_top" xlink:title=" ">
<polygon fill="#ffffff" stroke="#000000" points="179.5,-.5 179.5,-19.5 276.5,-19.5 276.5,-.5 179.5,-.5"/>
<text text-anchor="middle" x="228" y="-7.5" font-family="Helvetica,sans-Serif" font-size="10.00" fill="#000000">IpStorageTests.h</text>
</a>
</g>
</g>
<!-- Node5&#45;&gt;Node6 -->
<g id="edge5" class="edge">
<title>Node5&#45;&gt;Node6</title>
<path fill="none" stroke="#191970" d="M228,-46.1575C228,-37.155 228,-26.9199 228,-19.6427"/>
<polygon fill="#191970" stroke="#191970" points="224.5001,-46.2455 228,-56.2455 231.5001,-46.2456 224.5001,-46.2455"/>
</g>
</g>
</svg>
