<?xml version="1.0" encoding="UTF-8" standalone="no"?>
<!DOCTYPE svg PUBLIC "-//W3C//DTD SVG 1.1//EN"
 "http://www.w3.org/Graphics/SVG/1.1/DTD/svg11.dtd">
<!-- Generated by graphviz version 2.40.1 (20161225.0304)
 -->
<!-- Title: hw2_ip_filter/src/IpFilter/IpStoragePrinter.h Pages: 1 -->
<svg width="480pt" height="173pt"
 viewBox="0.00 0.00 479.50 173.00" xmlns="http://www.w3.org/2000/svg" xmlns:xlink="http://www.w3.org/1999/xlink">
<g id="graph0" class="graph" transform="scale(1 1) rotate(0) translate(4 169)">
<title>hw2_ip_filter/src/IpFilter/IpStoragePrinter.h</title>
<polygon fill="#ffffff" stroke="transparent" points="-4,4 -4,-169 475.5,-169 475.5,4 -4,4"/>
<!-- Node17 -->
<g id="node1" class="node">
<title>Node17</title>
<polygon fill="#bfbfbf" stroke="#000000" points="155,-134.5 155,-164.5 287,-164.5 287,-134.5 155,-134.5"/>
<text text-anchor="start" x="163" y="-152.5" font-family="Helvetica,sans-Serif" font-size="10.00" fill="#000000">hw2_ip_filter/src/IpFilter</text>
<text text-anchor="middle" x="221" y="-141.5" font-family="Helvetica,sans-Serif" font-size="10.00" fill="#000000">/IpStoragePrinter.h</text>
</g>
<!-- Node18 -->
<g id="node2" class="node">
<title>Node18</title>
<g id="a_node2"><a xlink:href="_ip_storage_printer_8cpp.html" target="_top" xlink:title="hw2_ip_filter/src/IpFilter\l/IpStoragePrinter.cpp">
<polygon fill="#ffffff" stroke="#000000" points="0,-67.5 0,-97.5 132,-97.5 132,-67.5 0,-67.5"/>
<text text-anchor="start" x="8" y="-85.5" font-family="Helvetica,sans-Serif" font-size="10.00" fill="#000000">hw2_ip_filter/src/IpFilter</text>
<text text-anchor="middle" x="66" y="-74.5" font-family="Helvetica,sans-Serif" font-size="10.00" fill="#000000">/IpStoragePrinter.cpp</text>
</a>
</g>
</g>
<!-- Node17&#45;&gt;Node18 -->
<g id="edge1" class="edge">
<title>Node17&#45;&gt;Node18</title>
<path fill="none" stroke="#191970" d="M176.9328,-130.4516C152.8444,-120.0392 123.425,-107.3224 100.9367,-97.6017"/>
<polygon fill="#191970" stroke="#191970" points="175.6471,-133.7088 186.215,-134.4639 178.4246,-127.2834 175.6471,-133.7088"/>
</g>
<!-- Node19 -->
<g id="node3" class="node">
<title>Node19</title>
<g id="a_node3"><a xlink:href="hw2__ip__filter_2src_2_required_outputs_module_2main_8cpp.html" target="_top" xlink:title="hw2_ip_filter/src/Required\lOutputsModule/main.cpp">
<polygon fill="#ffffff" stroke="#000000" points="150,-67.5 150,-97.5 292,-97.5 292,-67.5 150,-67.5"/>
<text text-anchor="start" x="158" y="-85.5" font-family="Helvetica,sans-Serif" font-size="10.00" fill="#000000">hw2_ip_filter/src/Required</text>
<text text-anchor="middle" x="221" y="-74.5" font-family="Helvetica,sans-Serif" font-size="10.00" fill="#000000">OutputsModule/main.cpp</text>
</a>
</g>
</g>
<!-- Node17&#45;&gt;Node19 -->
<g id="edge2" class="edge">
<title>Node17&#45;&gt;Node19</title>
<path fill="none" stroke="#191970" d="M221,-124.0249C221,-115.128 221,-105.4287 221,-97.6432"/>
<polygon fill="#191970" stroke="#191970" points="217.5001,-124.2966 221,-134.2967 224.5001,-124.2967 217.5001,-124.2966"/>
</g>
<!-- Node20 -->
<g id="node4" class="node">
<title>Node20</title>
<g id="a_node4"><a xlink:href="_ip_storage_tests_8h.html" target="_top" xlink:title="hw2_ip_filter/tests\l/IpFilterTests/IpStorageTests.h">
<polygon fill="#ffffff" stroke="#000000" points="310.5,-67.5 310.5,-97.5 471.5,-97.5 471.5,-67.5 310.5,-67.5"/>
<text text-anchor="start" x="318.5" y="-85.5" font-family="Helvetica,sans-Serif" font-size="10.00" fill="#000000">hw2_ip_filter/tests</text>
<text text-anchor="middle" x="391" y="-74.5" font-family="Helvetica,sans-Serif" font-size="10.00" fill="#000000">/IpFilterTests/IpStorageTests.h</text>
</a>
</g>
</g>
<!-- Node17&#45;&gt;Node20 -->
<g id="edge3" class="edge">
<title>Node17&#45;&gt;Node20</title>
<path fill="none" stroke="#191970" d="M268.6318,-130.7275C295.1796,-120.2645 327.7995,-107.4084 352.6823,-97.6017"/>
<polygon fill="#191970" stroke="#191970" points="267.1715,-127.5409 259.1513,-134.4639 269.7382,-134.0534 267.1715,-127.5409"/>
</g>
<!-- Node21 -->
<g id="node5" class="node">
<title>Node21</title>
<g id="a_node5"><a xlink:href="_ip_filter_tests_8cpp.html" target="_top" xlink:title="hw2_ip_filter/tests\l/IpFilterTests/IpFilterTests.cpp">
<polygon fill="#ffffff" stroke="#000000" points="312,-.5 312,-30.5 470,-30.5 470,-.5 312,-.5"/>
<text text-anchor="start" x="320" y="-18.5" font-family="Helvetica,sans-Serif" font-size="10.00" fill="#000000">hw2_ip_filter/tests</text>
<text text-anchor="middle" x="391" y="-7.5" font-family="Helvetica,sans-Serif" font-size="10.00" fill="#000000">/IpFilterTests/IpFilterTests.cpp</text>
</a>
</g>
</g>
<!-- Node20&#45;&gt;Node21 -->
<g id="edge4" class="edge">
<title>Node20&#45;&gt;Node21</title>
<path fill="none" stroke="#191970" d="M391,-57.0249C391,-48.128 391,-38.4287 391,-30.6432"/>
<polygon fill="#191970" stroke="#191970" points="387.5001,-57.2966 391,-67.2967 394.5001,-57.2967 387.5001,-57.2966"/>
</g>
</g>
</svg>
