<?xml version="1.0" encoding="UTF-8" standalone="no"?>
<!DOCTYPE svg PUBLIC "-//W3C//DTD SVG 1.1//EN"
 "http://www.w3.org/Graphics/SVG/1.1/DTD/svg11.dtd">
<!-- Generated by graphviz version 2.40.1 (20161225.0304)
 -->
<!-- Title: hw1_ip_filter/src/IpFilter/IpV4.h Pages: 1 -->
<svg width="491pt" height="263pt"
 viewBox="0.00 0.00 490.50 263.00" xmlns="http://www.w3.org/2000/svg" xmlns:xlink="http://www.w3.org/1999/xlink">
<g id="graph0" class="graph" transform="scale(1 1) rotate(0) translate(4 259)">
<title>hw1_ip_filter/src/IpFilter/IpV4.h</title>
<polygon fill="#ffffff" stroke="transparent" points="-4,4 -4,-259 486.5,-259 486.5,4 -4,4"/>
<!-- Node1 -->
<g id="node1" class="node">
<title>Node1</title>
<g id="a_node1"><a xlink:title=" ">
<polygon fill="#bfbfbf" stroke="#000000" points="251,-224.5 251,-254.5 383,-254.5 383,-224.5 251,-224.5"/>
<text text-anchor="start" x="259" y="-242.5" font-family="Helvetica,sans-Serif" font-size="10.00" fill="#000000">hw1_ip_filter/src/IpFilter</text>
<text text-anchor="middle" x="317" y="-231.5" font-family="Helvetica,sans-Serif" font-size="10.00" fill="#000000">/IpV4.h</text>
</a>
</g>
</g>
<!-- Node2 -->
<g id="node2" class="node">
<title>Node2</title>
<g id="a_node2"><a xlink:href="_ip_storage_8h.html" target="_top" xlink:title=" ">
<polygon fill="#ffffff" stroke="#000000" points="242.5,-168.5 242.5,-187.5 289.5,-187.5 289.5,-168.5 242.5,-168.5"/>
<text text-anchor="middle" x="266" y="-175.5" font-family="Helvetica,sans-Serif" font-size="10.00" fill="#000000">IpV4.h</text>
</a>
</g>
</g>
<!-- Node1&#45;&gt;Node2 -->
<g id="edge1" class="edge">
<title>Node1&#45;&gt;Node2</title>
<path fill="none" stroke="#191970" d="M297.8201,-216.3713C289.6399,-206.5069 280.5336,-195.5258 274.1657,-187.8469"/>
<polygon fill="#191970" stroke="#191970" points="295.3157,-218.8343 304.3933,-224.2977 300.704,-214.366 295.3157,-218.8343"/>
</g>
<!-- Node6 -->
<g id="node6" class="node">
<title>Node6</title>
<g id="a_node6"><a xlink:href="hw1__ip__filter_2src_2_required_outputs_module_2main_8cpp.html" target="_top" xlink:title=" ">
<polygon fill="#ffffff" stroke="#000000" points="0,-56.5 0,-75.5 140,-75.5 140,-56.5 0,-56.5"/>
<text text-anchor="middle" x="70" y="-63.5" font-family="Helvetica,sans-Serif" font-size="10.00" fill="#000000">IpFilter/IpStoragePrinter.h</text>
</a>
</g>
</g>
<!-- Node1&#45;&gt;Node6 -->
<g id="edge10" class="edge">
<title>Node1&#45;&gt;Node6</title>
<path fill="none" stroke="#191970" d="M258.4482,-220.9214C212.2014,-203.8386 148.4351,-174.6473 105,-132 88.3418,-115.6439 77.8057,-89.6592 73.0181,-75.6723"/>
<polygon fill="#191970" stroke="#191970" points="257.4429,-224.2796 268.0372,-224.3834 259.82,-217.6955 257.4429,-224.2796"/>
</g>
<!-- Node7 -->
<g id="node7" class="node">
<title>Node7</title>
<g id="a_node7"><a xlink:href="_ip_storage_tests_8h.html" target="_top" xlink:title=" ">
<polygon fill="#ffffff" stroke="#000000" points="280,-56.5 280,-75.5 420,-75.5 420,-56.5 280,-56.5"/>
<text text-anchor="middle" x="350" y="-63.5" font-family="Helvetica,sans-Serif" font-size="10.00" fill="#000000">IpFilter/IpStoragePrinter.h</text>
</a>
</g>
</g>
<!-- Node1&#45;&gt;Node7 -->
<g id="edge11" class="edge">
<title>Node1&#45;&gt;Node7</title>
<path fill="none" stroke="#191970" d="M321.7758,-214.3909C329.1896,-175.4121 343.1363,-102.0866 348.1478,-75.738"/>
<polygon fill="#191970" stroke="#191970" points="318.301,-213.9286 319.8708,-224.4065 325.1778,-215.2367 318.301,-213.9286"/>
</g>
<!-- Node9 -->
<g id="node9" class="node">
<title>Node9</title>
<g id="a_node9"><a xlink:href="_ip_v4_tests_8h.html" target="_top" xlink:title=" ">
<polygon fill="#ffffff" stroke="#000000" points="399.5,-168.5 399.5,-187.5 482.5,-187.5 482.5,-168.5 399.5,-168.5"/>
<text text-anchor="middle" x="441" y="-175.5" font-family="Helvetica,sans-Serif" font-size="10.00" fill="#000000">IpFilter/IpV4.h</text>
</a>
</g>
</g>
<!-- Node1&#45;&gt;Node9 -->
<g id="edge12" class="edge">
<title>Node1&#45;&gt;Node9</title>
<path fill="none" stroke="#191970" d="M356.3871,-219.9653C378.2199,-209.1369 404.3878,-196.1585 421.7844,-187.5303"/>
<polygon fill="#191970" stroke="#191970" points="354.7374,-216.8766 347.3338,-224.4554 357.8476,-223.1477 354.7374,-216.8766"/>
</g>
<!-- Node3 -->
<g id="node3" class="node">
<title>Node3</title>
<g id="a_node3"><a xlink:href="_ip_storage_8cpp.html" target="_top" xlink:title=" ">
<polygon fill="#ffffff" stroke="#000000" points="230,-112.5 230,-131.5 302,-131.5 302,-112.5 230,-112.5"/>
<text text-anchor="middle" x="266" y="-119.5" font-family="Helvetica,sans-Serif" font-size="10.00" fill="#000000">IpStorage.h</text>
</a>
</g>
</g>
<!-- Node2&#45;&gt;Node3 -->
<g id="edge2" class="edge">
<title>Node2&#45;&gt;Node3</title>
<path fill="none" stroke="#191970" d="M266,-158.1575C266,-149.155 266,-138.9199 266,-131.6427"/>
<polygon fill="#191970" stroke="#191970" points="262.5001,-158.2455 266,-168.2455 269.5001,-158.2456 262.5001,-158.2455"/>
</g>
<!-- Node4 -->
<g id="node4" class="node">
<title>Node4</title>
<g id="a_node4"><a xlink:href="_ip_storage_printer_8h.html" target="_top" xlink:title=" ">
<polygon fill="#ffffff" stroke="#000000" points="140,-112.5 140,-131.5 212,-131.5 212,-112.5 140,-112.5"/>
<text text-anchor="middle" x="176" y="-119.5" font-family="Helvetica,sans-Serif" font-size="10.00" fill="#000000">IpStorage.h</text>
</a>
</g>
</g>
<!-- Node2&#45;&gt;Node4 -->
<g id="edge3" class="edge">
<title>Node2&#45;&gt;Node4</title>
<path fill="none" stroke="#191970" d="M241.5216,-162.769C225.5734,-152.8456 205.249,-140.1994 191.4972,-131.6427"/>
<polygon fill="#191970" stroke="#191970" points="239.9835,-165.9342 250.3232,-168.2455 243.6817,-159.9908 239.9835,-165.9342"/>
</g>
<!-- Node2&#45;&gt;Node6 -->
<g id="edge8" class="edge">
<title>Node2&#45;&gt;Node6</title>
<path fill="none" stroke="#191970" d="M232.5474,-171.4732C203.9032,-164.7906 162.4286,-152.4375 131,-132 107.4553,-116.6893 86.8629,-90.2799 76.7112,-75.9487"/>
<polygon fill="#191970" stroke="#191970" points="231.9561,-174.9272 242.4776,-173.6832 233.4767,-168.0944 231.9561,-174.9272"/>
</g>
<!-- Node2&#45;&gt;Node7 -->
<g id="edge9" class="edge">
<title>Node2&#45;&gt;Node7</title>
<path fill="none" stroke="#191970" d="M284.1598,-161.4108C292.8081,-153.0361 302.9857,-142.4539 311,-132 325.2517,-113.4099 338.3409,-89.1859 345.1299,-75.8613"/>
<polygon fill="#191970" stroke="#191970" points="281.6147,-159.0005 276.7535,-168.4143 286.4242,-164.0867 281.6147,-159.0005"/>
</g>
<!-- Node5 -->
<g id="node5" class="node">
<title>Node5</title>
<g id="a_node5"><a xlink:href="_ip_storage_printer_8cpp.html" target="_top" xlink:title=" ">
<polygon fill="#ffffff" stroke="#000000" points="158,-56.5 158,-75.5 262,-75.5 262,-56.5 158,-56.5"/>
<text text-anchor="middle" x="210" y="-63.5" font-family="Helvetica,sans-Serif" font-size="10.00" fill="#000000">IpStoragePrinter.h</text>
</a>
</g>
</g>
<!-- Node4&#45;&gt;Node5 -->
<g id="edge4" class="edge">
<title>Node4&#45;&gt;Node5</title>
<path fill="none" stroke="#191970" d="M187.1535,-103.6296C192.8247,-94.2887 199.4845,-83.3197 204.1455,-75.6427"/>
<polygon fill="#191970" stroke="#191970" points="184.1204,-101.8812 181.9223,-112.2455 190.1039,-105.5141 184.1204,-101.8812"/>
</g>
<!-- Node4&#45;&gt;Node6 -->
<g id="edge5" class="edge">
<title>Node4&#45;&gt;Node6</title>
<path fill="none" stroke="#191970" d="M148.4778,-107.46C129.5092,-97.4388 104.8273,-84.3993 88.2522,-75.6427"/>
<polygon fill="#191970" stroke="#191970" points="147.0593,-110.669 157.5362,-112.2455 150.3292,-104.4796 147.0593,-110.669"/>
</g>
<!-- Node4&#45;&gt;Node7 -->
<g id="edge6" class="edge">
<title>Node4&#45;&gt;Node7</title>
<path fill="none" stroke="#191970" d="M215.801,-109.1905C247.679,-98.9309 291.6816,-84.7691 320.4787,-75.5011"/>
<polygon fill="#191970" stroke="#191970" points="214.3585,-105.9779 205.9117,-112.3733 216.5031,-112.6413 214.3585,-105.9779"/>
</g>
<!-- Node8 -->
<g id="node8" class="node">
<title>Node8</title>
<g id="a_node8"><a xlink:href="_ip_filter_tests_8cpp.html" target="_top" xlink:title=" ">
<polygon fill="#ffffff" stroke="#000000" points="350.5,-.5 350.5,-19.5 447.5,-19.5 447.5,-.5 350.5,-.5"/>
<text text-anchor="middle" x="399" y="-7.5" font-family="Helvetica,sans-Serif" font-size="10.00" fill="#000000">IpStorageTests.h</text>
</a>
</g>
</g>
<!-- Node7&#45;&gt;Node8 -->
<g id="edge7" class="edge">
<title>Node7&#45;&gt;Node8</title>
<path fill="none" stroke="#191970" d="M365.3122,-48.5004C373.6447,-38.9775 383.6353,-27.5596 390.5627,-19.6427"/>
<polygon fill="#191970" stroke="#191970" points="362.4862,-46.415 358.5351,-56.2455 367.7543,-51.0245 362.4862,-46.415"/>
</g>
<!-- Node9&#45;&gt;Node8 -->
<g id="edge13" class="edge">
<title>Node9&#45;&gt;Node8</title>
<path fill="none" stroke="#191970" d="M441.8941,-158.2801C442.3794,-133.6327 441.1232,-90.4939 429,-56 424.1947,-42.3276 414.5195,-28.6744 407.4515,-19.8376"/>
<polygon fill="#191970" stroke="#191970" points="438.3891,-158.3849 441.5688,-168.4913 445.3856,-158.6078 438.3891,-158.3849"/>
</g>
</g>
</svg>
