<?xml version="1.0" encoding="UTF-8" standalone="no"?>
<!DOCTYPE svg PUBLIC "-//W3C//DTD SVG 1.1//EN"
 "http://www.w3.org/Graphics/SVG/1.1/DTD/svg11.dtd">
<!-- Generated by graphviz version 2.40.1 (20161225.0304)
 -->
<!-- Title: hw2_ip_filter/src/IpFilter/IpStorage.h Pages: 1 -->
<svg width="508pt" height="240pt"
 viewBox="0.00 0.00 507.50 240.00" xmlns="http://www.w3.org/2000/svg" xmlns:xlink="http://www.w3.org/1999/xlink">
<g id="graph0" class="graph" transform="scale(1 1) rotate(0) translate(4 236)">
<title>hw2_ip_filter/src/IpFilter/IpStorage.h</title>
<polygon fill="#ffffff" stroke="transparent" points="-4,4 -4,-236 503.5,-236 503.5,4 -4,4"/>
<!-- Node16 -->
<g id="node1" class="node">
<title>Node16</title>
<polygon fill="#bfbfbf" stroke="#000000" points="141,-201.5 141,-231.5 273,-231.5 273,-201.5 141,-201.5"/>
<text text-anchor="start" x="149" y="-219.5" font-family="Helvetica,sans-Serif" font-size="10.00" fill="#000000">hw2_ip_filter/src/IpFilter</text>
<text text-anchor="middle" x="207" y="-208.5" font-family="Helvetica,sans-Serif" font-size="10.00" fill="#000000">/IpStorage.h</text>
</g>
<!-- Node17 -->
<g id="node2" class="node">
<title>Node17</title>
<g id="a_node2"><a xlink:href="_ip_storage_8cpp.html" target="_top" xlink:title="hw2_ip_filter/src/IpFilter\l/IpStorage.cpp">
<polygon fill="#ffffff" stroke="#000000" points="0,-134.5 0,-164.5 132,-164.5 132,-134.5 0,-134.5"/>
<text text-anchor="start" x="8" y="-152.5" font-family="Helvetica,sans-Serif" font-size="10.00" fill="#000000">hw2_ip_filter/src/IpFilter</text>
<text text-anchor="middle" x="66" y="-141.5" font-family="Helvetica,sans-Serif" font-size="10.00" fill="#000000">/IpStorage.cpp</text>
</a>
</g>
</g>
<!-- Node16&#45;&gt;Node17 -->
<g id="edge1" class="edge">
<title>Node16&#45;&gt;Node17</title>
<path fill="none" stroke="#191970" d="M166.0717,-197.0518C144.4059,-186.7567 118.1892,-174.2991 98.0254,-164.7177"/>
<polygon fill="#191970" stroke="#191970" points="164.8225,-200.3332 175.3568,-201.4639 167.8269,-194.0107 164.8225,-200.3332"/>
</g>
<!-- Node18 -->
<g id="node3" class="node">
<title>Node18</title>
<g id="a_node3"><a xlink:href="_ip_storage_printer_8h.html" target="_top" xlink:title="hw2_ip_filter/src/IpFilter\l/IpStoragePrinter.h">
<polygon fill="#ffffff" stroke="#000000" points="188,-134.5 188,-164.5 320,-164.5 320,-134.5 188,-134.5"/>
<text text-anchor="start" x="196" y="-152.5" font-family="Helvetica,sans-Serif" font-size="10.00" fill="#000000">hw2_ip_filter/src/IpFilter</text>
<text text-anchor="middle" x="254" y="-141.5" font-family="Helvetica,sans-Serif" font-size="10.00" fill="#000000">/IpStoragePrinter.h</text>
</a>
</g>
</g>
<!-- Node16&#45;&gt;Node18 -->
<g id="edge2" class="edge">
<title>Node16&#45;&gt;Node18</title>
<path fill="none" stroke="#191970" d="M223.4412,-193.0626C230.057,-183.6315 237.4955,-173.0276 243.3772,-164.6432"/>
<polygon fill="#191970" stroke="#191970" points="220.5426,-191.1001 217.665,-201.2967 226.2732,-195.1201 220.5426,-191.1001"/>
</g>
<!-- Node20 -->
<g id="node5" class="node">
<title>Node20</title>
<g id="a_node5"><a xlink:href="hw2__ip__filter_2src_2_required_outputs_module_2main_8cpp.html" target="_top" xlink:title="hw2_ip_filter/src/Required\lOutputsModule/main.cpp">
<polygon fill="#ffffff" stroke="#000000" points="28,-67.5 28,-97.5 170,-97.5 170,-67.5 28,-67.5"/>
<text text-anchor="start" x="36" y="-85.5" font-family="Helvetica,sans-Serif" font-size="10.00" fill="#000000">hw2_ip_filter/src/Required</text>
<text text-anchor="middle" x="99" y="-74.5" font-family="Helvetica,sans-Serif" font-size="10.00" fill="#000000">OutputsModule/main.cpp</text>
</a>
</g>
</g>
<!-- Node16&#45;&gt;Node20 -->
<g id="edge7" class="edge">
<title>Node16&#45;&gt;Node20</title>
<path fill="none" stroke="#191970" d="M188.4688,-193.2165C175.2723,-176.6652 157.0961,-153.9274 141,-134 131.1406,-121.7938 119.9033,-108.022 111.5347,-97.793"/>
<polygon fill="#191970" stroke="#191970" points="185.9092,-195.6207 194.8783,-201.2602 191.3837,-191.2583 185.9092,-195.6207"/>
</g>
<!-- Node21 -->
<g id="node6" class="node">
<title>Node21</title>
<g id="a_node6"><a xlink:href="_ip_storage_tests_8h.html" target="_top" xlink:title="hw2_ip_filter/tests\l/IpFilterTests/IpStorageTests.h">
<polygon fill="#ffffff" stroke="#000000" points="338.5,-67.5 338.5,-97.5 499.5,-97.5 499.5,-67.5 338.5,-67.5"/>
<text text-anchor="start" x="346.5" y="-85.5" font-family="Helvetica,sans-Serif" font-size="10.00" fill="#000000">hw2_ip_filter/tests</text>
<text text-anchor="middle" x="419" y="-74.5" font-family="Helvetica,sans-Serif" font-size="10.00" fill="#000000">/IpFilterTests/IpStorageTests.h</text>
</a>
</g>
</g>
<!-- Node16&#45;&gt;Node21 -->
<g id="edge8" class="edge">
<title>Node16&#45;&gt;Node21</title>
<path fill="none" stroke="#191970" d="M262.2822,-197.8017C283.9246,-189.3144 308.4393,-178.1989 329,-165 359.3235,-145.534 389.0617,-115.5405 405.6199,-97.5854"/>
<polygon fill="#191970" stroke="#191970" points="260.9752,-194.5543 252.8849,-201.3952 263.4754,-201.0926 260.9752,-194.5543"/>
</g>
<!-- Node19 -->
<g id="node4" class="node">
<title>Node19</title>
<g id="a_node4"><a xlink:href="_ip_storage_printer_8cpp.html" target="_top" xlink:title="hw2_ip_filter/src/IpFilter\l/IpStoragePrinter.cpp">
<polygon fill="#ffffff" stroke="#000000" points="188,-67.5 188,-97.5 320,-97.5 320,-67.5 188,-67.5"/>
<text text-anchor="start" x="196" y="-85.5" font-family="Helvetica,sans-Serif" font-size="10.00" fill="#000000">hw2_ip_filter/src/IpFilter</text>
<text text-anchor="middle" x="254" y="-74.5" font-family="Helvetica,sans-Serif" font-size="10.00" fill="#000000">/IpStoragePrinter.cpp</text>
</a>
</g>
</g>
<!-- Node18&#45;&gt;Node19 -->
<g id="edge3" class="edge">
<title>Node18&#45;&gt;Node19</title>
<path fill="none" stroke="#191970" d="M254,-124.0249C254,-115.128 254,-105.4287 254,-97.6432"/>
<polygon fill="#191970" stroke="#191970" points="250.5001,-124.2966 254,-134.2967 257.5001,-124.2967 250.5001,-124.2966"/>
</g>
<!-- Node18&#45;&gt;Node20 -->
<g id="edge4" class="edge">
<title>Node18&#45;&gt;Node20</title>
<path fill="none" stroke="#191970" d="M209.9328,-130.4516C185.8444,-120.0392 156.425,-107.3224 133.9367,-97.6017"/>
<polygon fill="#191970" stroke="#191970" points="208.6471,-133.7088 219.215,-134.4639 211.4246,-127.2834 208.6471,-133.7088"/>
</g>
<!-- Node18&#45;&gt;Node21 -->
<g id="edge5" class="edge">
<title>Node18&#45;&gt;Node21</title>
<path fill="none" stroke="#191970" d="M300.5702,-130.5897C326.2755,-120.1518 357.7642,-107.3654 381.8093,-97.6017"/>
<polygon fill="#191970" stroke="#191970" points="298.9777,-127.4587 291.0292,-134.4639 301.6113,-133.9444 298.9777,-127.4587"/>
</g>
<!-- Node22 -->
<g id="node7" class="node">
<title>Node22</title>
<g id="a_node7"><a xlink:href="_ip_filter_tests_8cpp.html" target="_top" xlink:title="hw2_ip_filter/tests\l/IpFilterTests/IpFilterTests.cpp">
<polygon fill="#ffffff" stroke="#000000" points="340,-.5 340,-30.5 498,-30.5 498,-.5 340,-.5"/>
<text text-anchor="start" x="348" y="-18.5" font-family="Helvetica,sans-Serif" font-size="10.00" fill="#000000">hw2_ip_filter/tests</text>
<text text-anchor="middle" x="419" y="-7.5" font-family="Helvetica,sans-Serif" font-size="10.00" fill="#000000">/IpFilterTests/IpFilterTests.cpp</text>
</a>
</g>
</g>
<!-- Node21&#45;&gt;Node22 -->
<g id="edge6" class="edge">
<title>Node21&#45;&gt;Node22</title>
<path fill="none" stroke="#191970" d="M419,-57.0249C419,-48.128 419,-38.4287 419,-30.6432"/>
<polygon fill="#191970" stroke="#191970" points="415.5001,-57.2966 419,-67.2967 422.5001,-57.2967 415.5001,-57.2966"/>
</g>
</g>
</svg>
