<?xml version="1.0" encoding="UTF-8" standalone="no"?>
<!DOCTYPE svg PUBLIC "-//W3C//DTD SVG 1.1//EN"
 "http://www.w3.org/Graphics/SVG/1.1/DTD/svg11.dtd">
<!-- Generated by graphviz version 2.40.1 (20161225.0304)
 -->
<!-- Title: hw2_ip_filter/src/IpFilter/IpV4.h Pages: 1 -->
<svg width="259pt" height="95pt"
 viewBox="0.00 0.00 259.00 95.00" xmlns="http://www.w3.org/2000/svg" xmlns:xlink="http://www.w3.org/1999/xlink">
<g id="graph0" class="graph" transform="scale(1 1) rotate(0) translate(4 91)">
<title>hw2_ip_filter/src/IpFilter/IpV4.h</title>
<polygon fill="#ffffff" stroke="transparent" points="-4,4 -4,-91 255,-91 255,4 -4,4"/>
<!-- Node0 -->
<g id="node1" class="node">
<title>Node0</title>
<polygon fill="#bfbfbf" stroke="#000000" points="56.5,-56.5 56.5,-86.5 188.5,-86.5 188.5,-56.5 56.5,-56.5"/>
<text text-anchor="start" x="64.5" y="-74.5" font-family="Helvetica,sans-Serif" font-size="10.00" fill="#000000">hw2_ip_filter/src/IpFilter</text>
<text text-anchor="middle" x="122.5" y="-63.5" font-family="Helvetica,sans-Serif" font-size="10.00" fill="#000000">/IpV4.h</text>
</g>
<!-- Node1 -->
<g id="node2" class="node">
<title>Node1</title>
<polygon fill="#ffffff" stroke="#bfbfbf" points="0,-.5 0,-19.5 53,-19.5 53,-.5 0,-.5"/>
<text text-anchor="middle" x="26.5" y="-7.5" font-family="Helvetica,sans-Serif" font-size="10.00" fill="#000000">cstddef</text>
</g>
<!-- Node0&#45;&gt;Node1 -->
<g id="edge1" class="edge">
<title>Node0&#45;&gt;Node1</title>
<path fill="none" stroke="#191970" d="M98.7697,-56.2977C83.9638,-46.8127 64.9772,-34.6495 50.1807,-25.1705"/>
<polygon fill="#191970" stroke="#191970" points="51.8925,-22.1105 41.5841,-19.6633 48.1165,-28.0047 51.8925,-22.1105"/>
</g>
<!-- Node2 -->
<g id="node3" class="node">
<title>Node2</title>
<polygon fill="#ffffff" stroke="#bfbfbf" points="71.5,-.5 71.5,-19.5 113.5,-19.5 113.5,-.5 71.5,-.5"/>
<text text-anchor="middle" x="92.5" y="-7.5" font-family="Helvetica,sans-Serif" font-size="10.00" fill="#000000">array</text>
</g>
<!-- Node0&#45;&gt;Node2 -->
<g id="edge2" class="edge">
<title>Node0&#45;&gt;Node2</title>
<path fill="none" stroke="#191970" d="M115.0843,-56.2977C111.0501,-48.0277 106.0227,-37.7215 101.736,-28.9339"/>
<polygon fill="#191970" stroke="#191970" points="104.8334,-27.3001 97.3034,-19.8469 98.542,-30.3691 104.8334,-27.3001"/>
</g>
<!-- Node3 -->
<g id="node4" class="node">
<title>Node3</title>
<polygon fill="#ffffff" stroke="#bfbfbf" points="131.5,-.5 131.5,-19.5 175.5,-19.5 175.5,-.5 131.5,-.5"/>
<text text-anchor="middle" x="153.5" y="-7.5" font-family="Helvetica,sans-Serif" font-size="10.00" fill="#000000">string</text>
</g>
<!-- Node0&#45;&gt;Node3 -->
<g id="edge3" class="edge">
<title>Node0&#45;&gt;Node3</title>
<path fill="none" stroke="#191970" d="M130.1629,-56.2977C134.3316,-48.0277 139.5265,-37.7215 143.9561,-28.9339"/>
<polygon fill="#191970" stroke="#191970" points="147.1607,-30.3521 148.5365,-19.8469 140.9099,-27.2012 147.1607,-30.3521"/>
</g>
<!-- Node4 -->
<g id="node5" class="node">
<title>Node4</title>
<polygon fill="#ffffff" stroke="#bfbfbf" points="194,-.5 194,-19.5 251,-19.5 251,-.5 194,-.5"/>
<text text-anchor="middle" x="222.5" y="-7.5" font-family="Helvetica,sans-Serif" font-size="10.00" fill="#000000">ostream</text>
</g>
<!-- Node0&#45;&gt;Node4 -->
<g id="edge4" class="edge">
<title>Node0&#45;&gt;Node4</title>
<path fill="none" stroke="#191970" d="M146.9628,-56.4554C162.6235,-46.8241 182.8532,-34.3828 198.4356,-24.7996"/>
<polygon fill="#191970" stroke="#191970" points="200.319,-27.7503 207.0035,-19.5303 196.652,-21.7876 200.319,-27.7503"/>
</g>
</g>
</svg>
