<?xml version="1.0" encoding="UTF-8" standalone="no"?>
<!DOCTYPE svg PUBLIC "-//W3C//DTD SVG 1.1//EN"
 "http://www.w3.org/Graphics/SVG/1.1/DTD/svg11.dtd">
<!-- Generated by graphviz version 2.40.1 (20161225.0304)
 -->
<!-- Title: hw1_ip_filter/src/IpFilter/IpStorage.h Pages: 1 -->
<svg width="643pt" height="274pt"
 viewBox="0.00 0.00 643.00 274.00" xmlns="http://www.w3.org/2000/svg" xmlns:xlink="http://www.w3.org/1999/xlink">
<g id="graph0" class="graph" transform="scale(1 1) rotate(0) translate(4 270)">
<title>hw1_ip_filter/src/IpFilter/IpStorage.h</title>
<polygon fill="#ffffff" stroke="transparent" points="-4,4 -4,-270 639,-270 639,4 -4,4"/>
<!-- Node1 -->
<g id="node1" class="node">
<title>Node1</title>
<g id="a_node1"><a xlink:title=" ">
<polygon fill="#bfbfbf" stroke="#000000" points="296,-235.5 296,-265.5 428,-265.5 428,-235.5 296,-235.5"/>
<text text-anchor="start" x="304" y="-253.5" font-family="Helvetica,sans-Serif" font-size="10.00" fill="#000000">hw1_ip_filter/src/IpFilter</text>
<text text-anchor="middle" x="362" y="-242.5" font-family="Helvetica,sans-Serif" font-size="10.00" fill="#000000">/IpStorage.h</text>
</a>
</g>
</g>
<!-- Node2 -->
<g id="node2" class="node">
<title>Node2</title>
<g id="a_node2"><a xlink:href="_ip_v4_8h.html" target="_top" xlink:title=" ">
<polygon fill="#ffffff" stroke="#000000" points="211.5,-179.5 211.5,-198.5 258.5,-198.5 258.5,-179.5 211.5,-179.5"/>
<text text-anchor="middle" x="235" y="-186.5" font-family="Helvetica,sans-Serif" font-size="10.00" fill="#000000">IpV4.h</text>
</a>
</g>
</g>
<!-- Node1&#45;&gt;Node2 -->
<g id="edge1" class="edge">
<title>Node1&#45;&gt;Node2</title>
<path fill="none" stroke="#191970" d="M330.9323,-235.4554C310.4855,-225.554 283.9063,-212.683 263.9115,-203.0004"/>
<polygon fill="#191970" stroke="#191970" points="265.2062,-199.7387 254.6805,-198.5303 262.1553,-206.0388 265.2062,-199.7387"/>
</g>
<!-- Node4 -->
<g id="node4" class="node">
<title>Node4</title>
<g id="a_node4"><a xlink:href="_type_traits_8h.html" target="_top" xlink:title=" ">
<polygon fill="#ffffff" stroke="#000000" points="0,-56.5 0,-75.5 126,-75.5 126,-56.5 0,-56.5"/>
<text text-anchor="middle" x="63" y="-63.5" font-family="Helvetica,sans-Serif" font-size="10.00" fill="#000000">TypeTraits/TypeTraits.h</text>
</a>
</g>
</g>
<!-- Node1&#45;&gt;Node4 -->
<g id="edge14" class="edge">
<title>Node1&#45;&gt;Node4</title>
<path fill="none" stroke="#191970" d="M295.6985,-236.3673C265.738,-228.2095 230.7033,-216.1032 202,-199 148.6959,-167.238 99.5536,-111.5311 76.6053,-83.3609"/>
<polygon fill="#191970" stroke="#191970" points="79.3355,-81.1709 70.3487,-75.5595 73.8747,-85.5504 79.3355,-81.1709"/>
</g>
<!-- Node10 -->
<g id="node10" class="node">
<title>Node10</title>
<g id="a_node10"><a xlink:href="_operation_result_8h.html" target="_top" xlink:title=" ">
<polygon fill="#ffffff" stroke="#000000" points="295,-112.5 295,-142.5 441,-142.5 441,-112.5 295,-112.5"/>
<text text-anchor="start" x="303" y="-130.5" font-family="Helvetica,sans-Serif" font-size="10.00" fill="#000000">OperationResult/Operation</text>
<text text-anchor="middle" x="368" y="-119.5" font-family="Helvetica,sans-Serif" font-size="10.00" fill="#000000">Result.h</text>
</a>
</g>
</g>
<!-- Node1&#45;&gt;Node10 -->
<g id="edge9" class="edge">
<title>Node1&#45;&gt;Node10</title>
<path fill="none" stroke="#191970" d="M336.7411,-235.4287C317.4687,-221.8342 295.8173,-200.6956 306,-179 311.6763,-166.9059 321.7425,-156.6694 332.1346,-148.5873"/>
<polygon fill="#191970" stroke="#191970" points="334.404,-151.2657 340.4611,-142.5731 330.3052,-145.5911 334.404,-151.2657"/>
</g>
<!-- Node13 -->
<g id="node13" class="node">
<title>Node13</title>
<g id="a_node13"><a xlink:title=" ">
<polygon fill="#ffffff" stroke="#bfbfbf" points="315,-179.5 315,-198.5 347,-198.5 347,-179.5 315,-179.5"/>
<text text-anchor="middle" x="331" y="-186.5" font-family="Helvetica,sans-Serif" font-size="10.00" fill="#000000">set</text>
</a>
</g>
</g>
<!-- Node1&#45;&gt;Node13 -->
<g id="edge15" class="edge">
<title>Node1&#45;&gt;Node13</title>
<path fill="none" stroke="#191970" d="M354.3371,-235.2977C350.1684,-227.0277 344.9735,-216.7215 340.5439,-207.9339"/>
<polygon fill="#191970" stroke="#191970" points="343.5901,-206.2012 335.9635,-198.8469 337.3393,-209.3521 343.5901,-206.2012"/>
</g>
<!-- Node14 -->
<g id="node14" class="node">
<title>Node14</title>
<g id="a_node14"><a xlink:title=" ">
<polygon fill="#ffffff" stroke="#bfbfbf" points="365.5,-179.5 365.5,-198.5 422.5,-198.5 422.5,-179.5 365.5,-179.5"/>
<text text-anchor="middle" x="394" y="-186.5" font-family="Helvetica,sans-Serif" font-size="10.00" fill="#000000">ostream</text>
</a>
</g>
</g>
<!-- Node1&#45;&gt;Node14 -->
<g id="edge16" class="edge">
<title>Node1&#45;&gt;Node14</title>
<path fill="none" stroke="#191970" d="M369.9101,-235.2977C374.2132,-227.0277 379.5758,-216.7215 384.1482,-207.9339"/>
<polygon fill="#191970" stroke="#191970" points="387.3654,-209.3335 388.8764,-198.8469 381.1557,-206.1024 387.3654,-209.3335"/>
</g>
<!-- Node15 -->
<g id="node15" class="node">
<title>Node15</title>
<g id="a_node15"><a xlink:title=" ">
<polygon fill="#ffffff" stroke="#bfbfbf" points="440.5,-179.5 440.5,-198.5 493.5,-198.5 493.5,-179.5 440.5,-179.5"/>
<text text-anchor="middle" x="467" y="-186.5" font-family="Helvetica,sans-Serif" font-size="10.00" fill="#000000">iterator</text>
</a>
</g>
</g>
<!-- Node1&#45;&gt;Node15 -->
<g id="edge17" class="edge">
<title>Node1&#45;&gt;Node15</title>
<path fill="none" stroke="#191970" d="M387.6859,-235.4554C404.1297,-225.8241 425.3708,-213.3828 441.7323,-203.7996"/>
<polygon fill="#191970" stroke="#191970" points="443.8688,-206.6045 450.7287,-198.5303 440.331,-200.5643 443.8688,-206.6045"/>
</g>
<!-- Node16 -->
<g id="node16" class="node">
<title>Node16</title>
<g id="a_node16"><a xlink:title=" ">
<polygon fill="#ffffff" stroke="#bfbfbf" points="511.5,-179.5 511.5,-198.5 552.5,-198.5 552.5,-179.5 511.5,-179.5"/>
<text text-anchor="middle" x="532" y="-186.5" font-family="Helvetica,sans-Serif" font-size="10.00" fill="#000000">tuple</text>
</a>
</g>
</g>
<!-- Node1&#45;&gt;Node16 -->
<g id="edge18" class="edge">
<title>Node1&#45;&gt;Node16</title>
<path fill="none" stroke="#191970" d="M403.5867,-235.4554C434.0527,-224.4339 474.6901,-209.7327 502.0203,-199.8456"/>
<polygon fill="#191970" stroke="#191970" points="503.2309,-203.1297 511.4438,-196.4365 500.8495,-196.5472 503.2309,-203.1297"/>
</g>
<!-- Node17 -->
<g id="node17" class="node">
<title>Node17</title>
<g id="a_node17"><a xlink:title=" ">
<polygon fill="#ffffff" stroke="#bfbfbf" points="571,-179.5 571,-198.5 635,-198.5 635,-179.5 571,-179.5"/>
<text text-anchor="middle" x="603" y="-186.5" font-family="Helvetica,sans-Serif" font-size="10.00" fill="#000000">algorithm</text>
</a>
</g>
</g>
<!-- Node1&#45;&gt;Node17 -->
<g id="edge19" class="edge">
<title>Node1&#45;&gt;Node17</title>
<path fill="none" stroke="#191970" d="M420.9552,-235.4554C464.3201,-224.3893 522.2212,-209.6137 560.9687,-199.7258"/>
<polygon fill="#191970" stroke="#191970" points="562.0494,-203.0623 570.8735,-197.1983 560.3185,-196.2796 562.0494,-203.0623"/>
</g>
<!-- Node3 -->
<g id="node3" class="node">
<title>Node3</title>
<g id="a_node3"><a xlink:href="_generic_ip_8h.html" target="_top" xlink:title=" ">
<polygon fill="#ffffff" stroke="#000000" points="199,-118 199,-137 271,-137 271,-118 199,-118"/>
<text text-anchor="middle" x="235" y="-125" font-family="Helvetica,sans-Serif" font-size="10.00" fill="#000000">GenericIp.h</text>
</a>
</g>
</g>
<!-- Node2&#45;&gt;Node3 -->
<g id="edge2" class="edge">
<title>Node2&#45;&gt;Node3</title>
<path fill="none" stroke="#191970" d="M235,-179.3906C235,-170.8657 235,-158.1392 235,-147.4235"/>
<polygon fill="#191970" stroke="#191970" points="238.5001,-147.2448 235,-137.2449 231.5001,-147.2449 238.5001,-147.2448"/>
</g>
<!-- Node3&#45;&gt;Node4 -->
<g id="edge3" class="edge">
<title>Node3&#45;&gt;Node4</title>
<path fill="none" stroke="#191970" d="M208.125,-117.8906C178.8414,-107.42 131.831,-90.6111 99.2863,-78.9745"/>
<polygon fill="#191970" stroke="#191970" points="100.2809,-75.6131 89.6863,-75.5419 97.9241,-82.2045 100.2809,-75.6131"/>
</g>
<!-- Node6 -->
<g id="node6" class="node">
<title>Node6</title>
<g id="a_node6"><a xlink:title=" ">
<polygon fill="#ffffff" stroke="#bfbfbf" points="214,-56.5 214,-75.5 256,-75.5 256,-56.5 214,-56.5"/>
<text text-anchor="middle" x="235" y="-63.5" font-family="Helvetica,sans-Serif" font-size="10.00" fill="#000000">array</text>
</a>
</g>
</g>
<!-- Node3&#45;&gt;Node6 -->
<g id="edge5" class="edge">
<title>Node3&#45;&gt;Node6</title>
<path fill="none" stroke="#191970" d="M235,-117.8906C235,-109.3657 235,-96.6392 235,-85.9235"/>
<polygon fill="#191970" stroke="#191970" points="238.5001,-85.7448 235,-75.7449 231.5001,-85.7449 238.5001,-85.7448"/>
</g>
<!-- Node7 -->
<g id="node7" class="node">
<title>Node7</title>
<g id="a_node7"><a xlink:title=" ">
<polygon fill="#ffffff" stroke="#bfbfbf" points="338,-56.5 338,-75.5 398,-75.5 398,-56.5 338,-56.5"/>
<text text-anchor="middle" x="368" y="-63.5" font-family="Helvetica,sans-Serif" font-size="10.00" fill="#000000">iostream</text>
</a>
</g>
</g>
<!-- Node3&#45;&gt;Node7 -->
<g id="edge6" class="edge">
<title>Node3&#45;&gt;Node7</title>
<path fill="none" stroke="#191970" d="M255.7813,-117.8906C277.8394,-107.6908 312.905,-91.4763 337.9669,-79.8875"/>
<polygon fill="#191970" stroke="#191970" points="339.7571,-82.9158 347.3647,-75.5419 336.8191,-76.5622 339.7571,-82.9158"/>
</g>
<!-- Node8 -->
<g id="node8" class="node">
<title>Node8</title>
<g id="a_node8"><a xlink:title=" ">
<polygon fill="#ffffff" stroke="#bfbfbf" points="274.5,-56.5 274.5,-75.5 319.5,-75.5 319.5,-56.5 274.5,-56.5"/>
<text text-anchor="middle" x="297" y="-63.5" font-family="Helvetica,sans-Serif" font-size="10.00" fill="#000000">utility</text>
</a>
</g>
</g>
<!-- Node3&#45;&gt;Node8 -->
<g id="edge7" class="edge">
<title>Node3&#45;&gt;Node8</title>
<path fill="none" stroke="#191970" d="M244.6875,-117.8906C254.0959,-108.5581 268.5807,-94.1902 279.9249,-82.9374"/>
<polygon fill="#191970" stroke="#191970" points="282.5411,-85.2722 287.1759,-75.7449 277.6114,-80.3024 282.5411,-85.2722"/>
</g>
<!-- Node9 -->
<g id="node9" class="node">
<title>Node9</title>
<g id="a_node9"><a xlink:title=" ">
<polygon fill="#ffffff" stroke="#bfbfbf" points="144,-56.5 144,-75.5 196,-75.5 196,-56.5 144,-56.5"/>
<text text-anchor="middle" x="170" y="-63.5" font-family="Helvetica,sans-Serif" font-size="10.00" fill="#000000">cassert</text>
</a>
</g>
</g>
<!-- Node3&#45;&gt;Node9 -->
<g id="edge8" class="edge">
<title>Node3&#45;&gt;Node9</title>
<path fill="none" stroke="#191970" d="M224.8438,-117.8906C214.9801,-108.5581 199.7945,-94.1902 187.9013,-82.9374"/>
<polygon fill="#191970" stroke="#191970" points="189.9689,-80.0753 180.2994,-75.7449 185.1579,-85.1601 189.9689,-80.0753"/>
</g>
<!-- Node5 -->
<g id="node5" class="node">
<title>Node5</title>
<g id="a_node5"><a xlink:title=" ">
<polygon fill="#ffffff" stroke="#bfbfbf" points="28.5,-.5 28.5,-19.5 97.5,-19.5 97.5,-.5 28.5,-.5"/>
<text text-anchor="middle" x="63" y="-7.5" font-family="Helvetica,sans-Serif" font-size="10.00" fill="#000000">type_traits</text>
</a>
</g>
</g>
<!-- Node4&#45;&gt;Node5 -->
<g id="edge4" class="edge">
<title>Node4&#45;&gt;Node5</title>
<path fill="none" stroke="#191970" d="M63,-56.2455C63,-48.9382 63,-38.6944 63,-29.7046"/>
<polygon fill="#191970" stroke="#191970" points="66.5001,-29.6426 63,-19.6427 59.5001,-29.6427 66.5001,-29.6426"/>
</g>
<!-- Node10&#45;&gt;Node7 -->
<g id="edge11" class="edge">
<title>Node10&#45;&gt;Node7</title>
<path fill="none" stroke="#191970" d="M368,-112.2977C368,-104.3834 368,-94.6043 368,-86.0759"/>
<polygon fill="#191970" stroke="#191970" points="371.5001,-85.8469 368,-75.8469 364.5001,-85.847 371.5001,-85.8469"/>
</g>
<!-- Node10&#45;&gt;Node8 -->
<g id="edge13" class="edge">
<title>Node10&#45;&gt;Node8</title>
<path fill="none" stroke="#191970" d="M350.4494,-112.2977C339.9779,-103.2274 326.6789,-91.7077 315.9662,-82.4285"/>
<polygon fill="#191970" stroke="#191970" points="318.2182,-79.7487 308.368,-75.8469 313.6351,-85.0398 318.2182,-79.7487"/>
</g>
<!-- Node11 -->
<g id="node11" class="node">
<title>Node11</title>
<g id="a_node11"><a xlink:title=" ">
<polygon fill="#ffffff" stroke="#bfbfbf" points="490,-56.5 490,-75.5 534,-75.5 534,-56.5 490,-56.5"/>
<text text-anchor="middle" x="512" y="-63.5" font-family="Helvetica,sans-Serif" font-size="10.00" fill="#000000">string</text>
</a>
</g>
</g>
<!-- Node10&#45;&gt;Node11 -->
<g id="edge10" class="edge">
<title>Node10&#45;&gt;Node11</title>
<path fill="none" stroke="#191970" d="M403.2264,-112.4554C426.8316,-102.374 457.6454,-89.2139 480.4476,-79.4755"/>
<polygon fill="#191970" stroke="#191970" points="481.8634,-82.6767 489.6851,-75.5303 479.114,-76.2393 481.8634,-82.6767"/>
</g>
<!-- Node12 -->
<g id="node12" class="node">
<title>Node12</title>
<g id="a_node12"><a xlink:title=" ">
<polygon fill="#ffffff" stroke="#bfbfbf" points="416,-56.5 416,-75.5 472,-75.5 472,-56.5 416,-56.5"/>
<text text-anchor="middle" x="444" y="-63.5" font-family="Helvetica,sans-Serif" font-size="10.00" fill="#000000">sstream</text>
</a>
</g>
</g>
<!-- Node10&#45;&gt;Node12 -->
<g id="edge12" class="edge">
<title>Node10&#45;&gt;Node12</title>
<path fill="none" stroke="#191970" d="M386.7865,-112.2977C398.1053,-103.1384 412.5105,-91.4816 424.0346,-82.1562"/>
<polygon fill="#191970" stroke="#191970" points="426.2595,-84.8583 431.8314,-75.8469 421.8561,-79.4167 426.2595,-84.8583"/>
</g>
</g>
</svg>
