<?xml version="1.0" encoding="UTF-8" standalone="no"?>
<!DOCTYPE svg PUBLIC "-//W3C//DTD SVG 1.1//EN"
 "http://www.w3.org/Graphics/SVG/1.1/DTD/svg11.dtd">
<!-- Generated by graphviz version 2.40.1 (20161225.0304)
 -->
<!-- Title: hw2_ip_filter/src/IpFilter/IpStorage.cpp Pages: 1 -->
<svg width="859pt" height="218pt"
 viewBox="0.00 0.00 859.00 218.00" xmlns="http://www.w3.org/2000/svg" xmlns:xlink="http://www.w3.org/1999/xlink">
<g id="graph0" class="graph" transform="scale(1 1) rotate(0) translate(4 214)">
<title>hw2_ip_filter/src/IpFilter/IpStorage.cpp</title>
<polygon fill="#ffffff" stroke="transparent" points="-4,4 -4,-214 855,-214 855,4 -4,4"/>
<!-- Node0 -->
<g id="node1" class="node">
<title>Node0</title>
<polygon fill="#bfbfbf" stroke="#000000" points="333,-179.5 333,-209.5 465,-209.5 465,-179.5 333,-179.5"/>
<text text-anchor="start" x="341" y="-197.5" font-family="Helvetica,sans-Serif" font-size="10.00" fill="#000000">hw2_ip_filter/src/IpFilter</text>
<text text-anchor="middle" x="399" y="-186.5" font-family="Helvetica,sans-Serif" font-size="10.00" fill="#000000">/IpStorage.cpp</text>
</g>
<!-- Node1 -->
<g id="node2" class="node">
<title>Node1</title>
<g id="a_node2"><a xlink:href="_ip_storage_8h.html" target="_top" xlink:title="IpStorage.h">
<polygon fill="#ffffff" stroke="#000000" points="461,-123.5 461,-142.5 533,-142.5 533,-123.5 461,-123.5"/>
<text text-anchor="middle" x="497" y="-130.5" font-family="Helvetica,sans-Serif" font-size="10.00" fill="#000000">IpStorage.h</text>
</a>
</g>
</g>
<!-- Node0&#45;&gt;Node1 -->
<g id="edge1" class="edge">
<title>Node0&#45;&gt;Node1</title>
<path fill="none" stroke="#191970" d="M422.9735,-179.4554C438.1776,-169.9141 457.7759,-157.6151 472.9875,-148.0691"/>
<polygon fill="#191970" stroke="#191970" points="475.2037,-150.8105 481.8135,-142.5303 471.4828,-144.8813 475.2037,-150.8105"/>
</g>
<!-- Node9 -->
<g id="node10" class="node">
<title>Node9</title>
<polygon fill="#ffffff" stroke="#bfbfbf" points="0,-.5 0,-19.5 56,-19.5 56,-.5 0,-.5"/>
<text text-anchor="middle" x="28" y="-7.5" font-family="Helvetica,sans-Serif" font-size="10.00" fill="#000000">sstream</text>
</g>
<!-- Node0&#45;&gt;Node9 -->
<g id="edge25" class="edge">
<title>Node0&#45;&gt;Node9</title>
<path fill="none" stroke="#191970" d="M332.7769,-186.0003C265.4621,-176.6066 166.3428,-160.4768 132,-143 83.4166,-118.2762 50.535,-59.2826 36.1818,-28.8594"/>
<polygon fill="#191970" stroke="#191970" points="39.3548,-27.3817 32.0286,-19.7281 32.9829,-30.2798 39.3548,-27.3817"/>
</g>
<!-- Node10 -->
<g id="node11" class="node">
<title>Node10</title>
<polygon fill="#ffffff" stroke="#bfbfbf" points="81.5,-.5 81.5,-19.5 126.5,-19.5 126.5,-.5 81.5,-.5"/>
<text text-anchor="middle" x="104" y="-7.5" font-family="Helvetica,sans-Serif" font-size="10.00" fill="#000000">utility</text>
</g>
<!-- Node0&#45;&gt;Node10 -->
<g id="edge22" class="edge">
<title>Node0&#45;&gt;Node10</title>
<path fill="none" stroke="#191970" d="M332.7986,-181.6357C248.5356,-163.7457 110.3396,-128.7959 81,-87 68.5553,-69.2719 79.6635,-44.7273 90.3344,-28.1538"/>
<polygon fill="#191970" stroke="#191970" points="93.2598,-30.077 96.0653,-19.8603 87.5009,-26.0975 93.2598,-30.077"/>
</g>
<!-- Node16 -->
<g id="node17" class="node">
<title>Node16</title>
<polygon fill="#ffffff" stroke="#bfbfbf" points="787,-62 787,-81 851,-81 851,-62 787,-62"/>
<text text-anchor="middle" x="819" y="-69" font-family="Helvetica,sans-Serif" font-size="10.00" fill="#000000">algorithm</text>
</g>
<!-- Node0&#45;&gt;Node16 -->
<g id="edge24" class="edge">
<title>Node0&#45;&gt;Node16</title>
<path fill="none" stroke="#191970" d="M446.0114,-179.4068C474.2239,-169.8976 510.6094,-156.8333 542,-143 559.4646,-135.3036 561.958,-129.2235 580,-123 664.5536,-93.8335 691.8132,-110.913 778,-87 780.7498,-86.2371 783.5737,-85.365 786.3911,-84.4323"/>
<polygon fill="#191970" stroke="#191970" points="787.5653,-87.7295 795.8273,-81.0971 785.2325,-81.1296 787.5653,-87.7295"/>
</g>
<!-- Node17 -->
<g id="node18" class="node">
<title>Node17</title>
<g id="a_node18"><a xlink:href="_string_functions_8h.html" target="_top" xlink:title="StringAddOns/StringFunctions.h">
<polygon fill="#ffffff" stroke="#000000" points="245.5,-123.5 245.5,-142.5 414.5,-142.5 414.5,-123.5 245.5,-123.5"/>
<text text-anchor="middle" x="330" y="-130.5" font-family="Helvetica,sans-Serif" font-size="10.00" fill="#000000">StringAddOns/StringFunctions.h</text>
</a>
</g>
</g>
<!-- Node0&#45;&gt;Node17 -->
<g id="edge19" class="edge">
<title>Node0&#45;&gt;Node17</title>
<path fill="none" stroke="#191970" d="M381.9438,-179.2977C371.8671,-170.3163 359.096,-158.9334 348.7389,-149.702"/>
<polygon fill="#191970" stroke="#191970" points="350.8417,-146.8879 341.0478,-142.8469 346.1841,-152.1135 350.8417,-146.8879"/>
</g>
<!-- Node19 -->
<g id="node20" class="node">
<title>Node19</title>
<polygon fill="#ffffff" stroke="#bfbfbf" points="589.5,-123.5 589.5,-142.5 654.5,-142.5 654.5,-123.5 589.5,-123.5"/>
<text text-anchor="middle" x="622" y="-130.5" font-family="Helvetica,sans-Serif" font-size="10.00" fill="#000000">stdexcept</text>
</g>
<!-- Node0&#45;&gt;Node19 -->
<g id="edge23" class="edge">
<title>Node0&#45;&gt;Node19</title>
<path fill="none" stroke="#191970" d="M453.5519,-179.4554C492.4464,-168.7289 543.9785,-154.5171 579.7577,-144.6498"/>
<polygon fill="#191970" stroke="#191970" points="580.6983,-148.0211 589.4079,-141.9884 578.8372,-141.273 580.6983,-148.0211"/>
</g>
<!-- Node2 -->
<g id="node3" class="node">
<title>Node2</title>
<g id="a_node3"><a xlink:href="_ip_v4_8h.html" target="_top" xlink:title="IpV4.h">
<polygon fill="#ffffff" stroke="#000000" points="358.5,-62 358.5,-81 405.5,-81 405.5,-62 358.5,-62"/>
<text text-anchor="middle" x="382" y="-69" font-family="Helvetica,sans-Serif" font-size="10.00" fill="#000000">IpV4.h</text>
</a>
</g>
</g>
<!-- Node1&#45;&gt;Node2 -->
<g id="edge2" class="edge">
<title>Node1&#45;&gt;Node2</title>
<path fill="none" stroke="#191970" d="M479.0313,-123.3906C460.2116,-113.3262 430.4415,-97.4057 408.8359,-85.8514"/>
<polygon fill="#191970" stroke="#191970" points="410.3114,-82.6714 399.8426,-81.0419 407.0102,-88.8442 410.3114,-82.6714"/>
</g>
<!-- Node6 -->
<g id="node7" class="node">
<title>Node6</title>
<polygon fill="#ffffff" stroke="#bfbfbf" points="421.5,-.5 421.5,-19.5 478.5,-19.5 478.5,-.5 421.5,-.5"/>
<text text-anchor="middle" x="450" y="-7.5" font-family="Helvetica,sans-Serif" font-size="10.00" fill="#000000">ostream</text>
</g>
<!-- Node1&#45;&gt;Node6 -->
<g id="edge15" class="edge">
<title>Node1&#45;&gt;Node6</title>
<path fill="none" stroke="#191970" d="M483.5236,-123.3868C473.0936,-115.0797 459.3853,-102.058 453,-87 445.309,-68.8628 445.4735,-46.1135 447.0009,-30.0593"/>
<polygon fill="#191970" stroke="#191970" points="450.5261,-30.0643 448.2612,-19.7144 443.5775,-29.2177 450.5261,-30.0643"/>
</g>
<!-- Node7 -->
<g id="node8" class="node">
<title>Node7</title>
<g id="a_node8"><a xlink:href="_operation_result_8h.html" target="_top" xlink:title="OperationResult/Operation\lResult.h">
<polygon fill="#ffffff" stroke="#000000" points="156,-56.5 156,-86.5 302,-86.5 302,-56.5 156,-56.5"/>
<text text-anchor="start" x="164" y="-74.5" font-family="Helvetica,sans-Serif" font-size="10.00" fill="#000000">OperationResult/Operation</text>
<text text-anchor="middle" x="229" y="-63.5" font-family="Helvetica,sans-Serif" font-size="10.00" fill="#000000">Result.h</text>
</a>
</g>
</g>
<!-- Node1&#45;&gt;Node7 -->
<g id="edge7" class="edge">
<title>Node1&#45;&gt;Node7</title>
<path fill="none" stroke="#191970" d="M460.8563,-124.7058C421.0073,-115.5614 355.7718,-100.5913 304.6326,-88.856"/>
<polygon fill="#191970" stroke="#191970" points="305.1339,-85.3801 294.6044,-86.5547 303.5682,-92.2028 305.1339,-85.3801"/>
</g>
<!-- Node11 -->
<g id="node12" class="node">
<title>Node11</title>
<g id="a_node12"><a xlink:href="_type_traits_8h.html" target="_top" xlink:title="TypeTraits/TypeTraits.h">
<polygon fill="#ffffff" stroke="#000000" points="462,-62 462,-81 588,-81 588,-62 462,-62"/>
<text text-anchor="middle" x="525" y="-69" font-family="Helvetica,sans-Serif" font-size="10.00" fill="#000000">TypeTraits/TypeTraits.h</text>
</a>
</g>
</g>
<!-- Node1&#45;&gt;Node11 -->
<g id="edge12" class="edge">
<title>Node1&#45;&gt;Node11</title>
<path fill="none" stroke="#191970" d="M501.375,-123.3906C505.3788,-114.5965 511.4183,-101.3312 516.3885,-90.4145"/>
<polygon fill="#191970" stroke="#191970" points="519.6051,-91.7963 520.5633,-81.2449 513.2343,-88.8957 519.6051,-91.7963"/>
</g>
<!-- Node13 -->
<g id="node14" class="node">
<title>Node13</title>
<polygon fill="#ffffff" stroke="#bfbfbf" points="606,-62 606,-81 638,-81 638,-62 606,-62"/>
<text text-anchor="middle" x="622" y="-69" font-family="Helvetica,sans-Serif" font-size="10.00" fill="#000000">set</text>
</g>
<!-- Node1&#45;&gt;Node13 -->
<g id="edge14" class="edge">
<title>Node1&#45;&gt;Node13</title>
<path fill="none" stroke="#191970" d="M520.0299,-123.3735C540.5557,-114.5672 571.2446,-100.8393 597,-87 597.4161,-86.7764 597.8348,-86.5487 598.2553,-86.3176"/>
<polygon fill="#191970" stroke="#191970" points="600.2346,-89.2149 607.1067,-81.1511 596.7059,-83.1694 600.2346,-89.2149"/>
</g>
<!-- Node14 -->
<g id="node15" class="node">
<title>Node14</title>
<polygon fill="#ffffff" stroke="#bfbfbf" points="656.5,-62 656.5,-81 709.5,-81 709.5,-62 656.5,-62"/>
<text text-anchor="middle" x="683" y="-69" font-family="Helvetica,sans-Serif" font-size="10.00" fill="#000000">iterator</text>
</g>
<!-- Node1&#45;&gt;Node14 -->
<g id="edge16" class="edge">
<title>Node1&#45;&gt;Node14</title>
<path fill="none" stroke="#191970" d="M531.9116,-123.4618C562.5427,-114.817 608.1367,-101.2772 647,-87 648.8204,-86.3312 650.6816,-85.6193 652.5521,-84.882"/>
<polygon fill="#191970" stroke="#191970" points="653.9151,-88.106 661.8344,-81.0679 651.2546,-81.6313 653.9151,-88.106"/>
</g>
<!-- Node15 -->
<g id="node16" class="node">
<title>Node15</title>
<polygon fill="#ffffff" stroke="#bfbfbf" points="727.5,-62 727.5,-81 768.5,-81 768.5,-62 727.5,-62"/>
<text text-anchor="middle" x="748" y="-69" font-family="Helvetica,sans-Serif" font-size="10.00" fill="#000000">tuple</text>
</g>
<!-- Node1&#45;&gt;Node15 -->
<g id="edge17" class="edge">
<title>Node1&#45;&gt;Node15</title>
<path fill="none" stroke="#191970" d="M533.1762,-125.7365C593.5893,-113.569 709.2976,-90.0887 718,-87 719.4157,-86.4975 720.8486,-85.9403 722.281,-85.3444"/>
<polygon fill="#191970" stroke="#191970" points="723.9616,-88.4225 731.5408,-81.0194 720.9992,-82.0802 723.9616,-88.4225"/>
</g>
<!-- Node1&#45;&gt;Node16 -->
<g id="edge18" class="edge">
<title>Node1&#45;&gt;Node16</title>
<path fill="none" stroke="#191970" d="M533.0152,-125.6056C537.7139,-124.6971 542.4678,-123.806 547,-123 649.3008,-104.807 677.5337,-113.5134 778,-87 780.8282,-86.2536 783.7314,-85.382 786.6233,-84.4395"/>
<polygon fill="#191970" stroke="#191970" points="788.0143,-87.6605 796.2868,-81.0412 785.692,-81.0569 788.0143,-87.6605"/>
</g>
<!-- Node3 -->
<g id="node4" class="node">
<title>Node3</title>
<polygon fill="#ffffff" stroke="#bfbfbf" points="289.5,-.5 289.5,-19.5 342.5,-19.5 342.5,-.5 289.5,-.5"/>
<text text-anchor="middle" x="316" y="-7.5" font-family="Helvetica,sans-Serif" font-size="10.00" fill="#000000">cstddef</text>
</g>
<!-- Node2&#45;&gt;Node3 -->
<g id="edge3" class="edge">
<title>Node2&#45;&gt;Node3</title>
<path fill="none" stroke="#191970" d="M371.6875,-61.8906C361.5758,-52.4683 345.9558,-37.9134 333.8293,-26.6137"/>
<polygon fill="#191970" stroke="#191970" points="336.1601,-24.0015 326.4579,-19.7449 331.388,-29.1228 336.1601,-24.0015"/>
</g>
<!-- Node4 -->
<g id="node5" class="node">
<title>Node4</title>
<polygon fill="#ffffff" stroke="#bfbfbf" points="361,-.5 361,-19.5 403,-19.5 403,-.5 361,-.5"/>
<text text-anchor="middle" x="382" y="-7.5" font-family="Helvetica,sans-Serif" font-size="10.00" fill="#000000">array</text>
</g>
<!-- Node2&#45;&gt;Node4 -->
<g id="edge4" class="edge">
<title>Node2&#45;&gt;Node4</title>
<path fill="none" stroke="#191970" d="M382,-61.8906C382,-53.3657 382,-40.6392 382,-29.9235"/>
<polygon fill="#191970" stroke="#191970" points="385.5001,-29.7448 382,-19.7449 378.5001,-29.7449 385.5001,-29.7448"/>
</g>
<!-- Node5 -->
<g id="node6" class="node">
<title>Node5</title>
<polygon fill="#ffffff" stroke="#bfbfbf" points="227,-.5 227,-19.5 271,-19.5 271,-.5 227,-.5"/>
<text text-anchor="middle" x="249" y="-7.5" font-family="Helvetica,sans-Serif" font-size="10.00" fill="#000000">string</text>
</g>
<!-- Node2&#45;&gt;Node5 -->
<g id="edge5" class="edge">
<title>Node2&#45;&gt;Node5</title>
<path fill="none" stroke="#191970" d="M361.2188,-61.8906C339.1606,-51.6908 304.095,-35.4763 279.0331,-23.8875"/>
<polygon fill="#191970" stroke="#191970" points="280.1809,-20.5622 269.6353,-19.5419 277.2429,-26.9158 280.1809,-20.5622"/>
</g>
<!-- Node2&#45;&gt;Node6 -->
<g id="edge6" class="edge">
<title>Node2&#45;&gt;Node6</title>
<path fill="none" stroke="#191970" d="M392.625,-61.8906C403.0431,-52.4683 419.1364,-37.9134 431.6304,-26.6137"/>
<polygon fill="#191970" stroke="#191970" points="434.1562,-29.0484 439.2252,-19.7449 429.4608,-23.8568 434.1562,-29.0484"/>
</g>
<!-- Node7&#45;&gt;Node5 -->
<g id="edge8" class="edge">
<title>Node7&#45;&gt;Node5</title>
<path fill="none" stroke="#191970" d="M233.9438,-56.2977C236.5754,-48.2055 239.841,-38.1639 242.6576,-29.5029"/>
<polygon fill="#191970" stroke="#191970" points="246.0335,-30.4391 245.7977,-19.8469 239.3766,-28.2743 246.0335,-30.4391"/>
</g>
<!-- Node8 -->
<g id="node9" class="node">
<title>Node8</title>
<polygon fill="#ffffff" stroke="#bfbfbf" points="149,-.5 149,-19.5 209,-19.5 209,-.5 149,-.5"/>
<text text-anchor="middle" x="179" y="-7.5" font-family="Helvetica,sans-Serif" font-size="10.00" fill="#000000">iostream</text>
</g>
<!-- Node7&#45;&gt;Node8 -->
<g id="edge9" class="edge">
<title>Node7&#45;&gt;Node8</title>
<path fill="none" stroke="#191970" d="M216.6404,-56.2977C209.6276,-47.672 200.814,-36.8312 193.4786,-27.8087"/>
<polygon fill="#191970" stroke="#191970" points="196.0297,-25.3982 187.0056,-19.8469 190.5982,-29.8141 196.0297,-25.3982"/>
</g>
<!-- Node7&#45;&gt;Node9 -->
<g id="edge10" class="edge">
<title>Node7&#45;&gt;Node9</title>
<path fill="none" stroke="#191970" d="M179.8299,-56.4554C144.8025,-45.7381 98.4037,-31.5414 66.1577,-21.6751"/>
<polygon fill="#191970" stroke="#191970" points="66.8043,-18.2128 56.2178,-18.6338 64.7562,-24.9065 66.8043,-18.2128"/>
</g>
<!-- Node7&#45;&gt;Node10 -->
<g id="edge11" class="edge">
<title>Node7&#45;&gt;Node10</title>
<path fill="none" stroke="#191970" d="M198.4216,-56.4554C178.2968,-46.554 152.1361,-33.683 132.4562,-24.0004"/>
<polygon fill="#191970" stroke="#191970" points="133.8885,-20.8045 123.3706,-19.5303 130.7982,-27.0855 133.8885,-20.8045"/>
</g>
<!-- Node12 -->
<g id="node13" class="node">
<title>Node12</title>
<polygon fill="#ffffff" stroke="#bfbfbf" points="496.5,-.5 496.5,-19.5 565.5,-19.5 565.5,-.5 496.5,-.5"/>
<text text-anchor="middle" x="531" y="-7.5" font-family="Helvetica,sans-Serif" font-size="10.00" fill="#000000">type_traits</text>
</g>
<!-- Node11&#45;&gt;Node12 -->
<g id="edge13" class="edge">
<title>Node11&#45;&gt;Node12</title>
<path fill="none" stroke="#191970" d="M525.9375,-61.8906C526.7692,-53.3657 528.0108,-40.6392 529.0562,-29.9235"/>
<polygon fill="#191970" stroke="#191970" points="532.5617,-30.0375 530.0493,-19.7449 525.5947,-29.3577 532.5617,-30.0375"/>
</g>
<!-- Node17&#45;&gt;Node5 -->
<g id="edge21" class="edge">
<title>Node17&#45;&gt;Node5</title>
<path fill="none" stroke="#191970" d="M329.6675,-123.1587C328.7109,-107.6422 325.0364,-77.0913 311,-56 302.5382,-43.2852 289.3249,-32.7754 277.2668,-25.0269"/>
<polygon fill="#191970" stroke="#191970" points="278.7376,-21.8263 268.3689,-19.6491 275.1168,-27.8171 278.7376,-21.8263"/>
</g>
<!-- Node18 -->
<g id="node19" class="node">
<title>Node18</title>
<polygon fill="#ffffff" stroke="#bfbfbf" points="90.5,-62 90.5,-81 137.5,-81 137.5,-62 90.5,-62"/>
<text text-anchor="middle" x="114" y="-69" font-family="Helvetica,sans-Serif" font-size="10.00" fill="#000000">vector</text>
</g>
<!-- Node17&#45;&gt;Node18 -->
<g id="edge20" class="edge">
<title>Node17&#45;&gt;Node18</title>
<path fill="none" stroke="#191970" d="M281.4676,-123.4749C244.1425,-115.5117 191.5846,-102.9062 147,-87 145.4015,-86.4297 143.7759,-85.8089 142.1463,-85.1543"/>
<polygon fill="#191970" stroke="#191970" points="143.4986,-81.9258 132.9319,-81.1539 140.7109,-88.3468 143.4986,-81.9258"/>
</g>
</g>
</svg>
