<?xml version="1.0" encoding="UTF-8" standalone="no"?>
<!DOCTYPE svg PUBLIC "-//W3C//DTD SVG 1.1//EN"
 "http://www.w3.org/Graphics/SVG/1.1/DTD/svg11.dtd">
<!-- Generated by graphviz version 2.40.1 (20161225.0304)
 -->
<!-- Title: hw2_ip_filter/src/IpFilter/IpStoragePrinter.h Pages: 1 -->
<svg width="680pt" height="218pt"
 viewBox="0.00 0.00 680.11 218.00" xmlns="http://www.w3.org/2000/svg" xmlns:xlink="http://www.w3.org/1999/xlink">
<g id="graph0" class="graph" transform="scale(1 1) rotate(0) translate(4 214)">
<title>hw2_ip_filter/src/IpFilter/IpStoragePrinter.h</title>
<polygon fill="#ffffff" stroke="transparent" points="-4,4 -4,-214 676.1084,-214 676.1084,4 -4,4"/>
<!-- Node0 -->
<g id="node1" class="node">
<title>Node0</title>
<polygon fill="#bfbfbf" stroke="#000000" points="221.6084,-179.5 221.6084,-209.5 353.6084,-209.5 353.6084,-179.5 221.6084,-179.5"/>
<text text-anchor="start" x="229.6084" y="-197.5" font-family="Helvetica,sans-Serif" font-size="10.00" fill="#000000">hw2_ip_filter/src/IpFilter</text>
<text text-anchor="middle" x="287.6084" y="-186.5" font-family="Helvetica,sans-Serif" font-size="10.00" fill="#000000">/IpStoragePrinter.h</text>
</g>
<!-- Node1 -->
<g id="node2" class="node">
<title>Node1</title>
<g id="a_node2"><a xlink:href="_ip_storage_8h.html" target="_top" xlink:title="IpStorage.h">
<polygon fill="#ffffff" stroke="#000000" points="251.6084,-123.5 251.6084,-142.5 323.6084,-142.5 323.6084,-123.5 251.6084,-123.5"/>
<text text-anchor="middle" x="287.6084" y="-130.5" font-family="Helvetica,sans-Serif" font-size="10.00" fill="#000000">IpStorage.h</text>
</a>
</g>
</g>
<!-- Node0&#45;&gt;Node1 -->
<g id="edge1" class="edge">
<title>Node0&#45;&gt;Node1</title>
<path fill="none" stroke="#191970" d="M287.6084,-179.2977C287.6084,-171.3834 287.6084,-161.6043 287.6084,-153.0759"/>
<polygon fill="#191970" stroke="#191970" points="291.1085,-152.8469 287.6084,-142.8469 284.1085,-152.847 291.1085,-152.8469"/>
</g>
<!-- Node6 -->
<g id="node7" class="node">
<title>Node6</title>
<polygon fill="#ffffff" stroke="#bfbfbf" points="54.1084,-.5 54.1084,-19.5 111.1084,-19.5 111.1084,-.5 54.1084,-.5"/>
<text text-anchor="middle" x="82.6084" y="-7.5" font-family="Helvetica,sans-Serif" font-size="10.00" fill="#000000">ostream</text>
</g>
<!-- Node0&#45;&gt;Node6 -->
<g id="edge19" class="edge">
<title>Node0&#45;&gt;Node6</title>
<path fill="none" stroke="#191970" d="M225.0323,-179.443C150.0296,-159.9815 31.2107,-124.1592 5.6084,-87 -2.2086,-75.6544 -1.1913,-67.9829 5.6084,-56 14.1366,-40.9712 29.7394,-30.3282 44.6812,-23.0927"/>
<polygon fill="#191970" stroke="#191970" points="46.1183,-26.2841 53.83,-19.0191 43.2709,-19.8894 46.1183,-26.2841"/>
</g>
<!-- Node15 -->
<g id="node16" class="node">
<title>Node15</title>
<polygon fill="#ffffff" stroke="#bfbfbf" points="631.1084,-62 631.1084,-81 672.1084,-81 672.1084,-62 631.1084,-62"/>
<text text-anchor="middle" x="651.6084" y="-69" font-family="Helvetica,sans-Serif" font-size="10.00" fill="#000000">tuple</text>
</g>
<!-- Node0&#45;&gt;Node15 -->
<g id="edge20" class="edge">
<title>Node0&#45;&gt;Node15</title>
<path fill="none" stroke="#191970" d="M343.8817,-179.4722C411.1015,-160.8205 526.4138,-126.5916 621.6084,-87 622.7959,-86.5061 624.0001,-85.9831 625.2096,-85.4395"/>
<polygon fill="#191970" stroke="#191970" points="626.9024,-88.5089 634.39,-81.0132 623.8623,-82.2035 626.9024,-88.5089"/>
</g>
<!-- Node2 -->
<g id="node3" class="node">
<title>Node2</title>
<g id="a_node3"><a xlink:href="_ip_v4_8h.html" target="_top" xlink:title="IpV4.h">
<polygon fill="#ffffff" stroke="#000000" points="207.1084,-62 207.1084,-81 254.1084,-81 254.1084,-62 207.1084,-62"/>
<text text-anchor="middle" x="230.6084" y="-69" font-family="Helvetica,sans-Serif" font-size="10.00" fill="#000000">IpV4.h</text>
</a>
</g>
</g>
<!-- Node1&#45;&gt;Node2 -->
<g id="edge2" class="edge">
<title>Node1&#45;&gt;Node2</title>
<path fill="none" stroke="#191970" d="M278.7022,-123.3906C270.1357,-114.1478 256.9916,-99.966 246.6081,-88.7628"/>
<polygon fill="#191970" stroke="#191970" points="249.0049,-86.2 239.6402,-81.2449 243.8709,-90.9584 249.0049,-86.2"/>
</g>
<!-- Node1&#45;&gt;Node6 -->
<g id="edge15" class="edge">
<title>Node1&#45;&gt;Node6</title>
<path fill="none" stroke="#191970" d="M265.8042,-123.443C247.121,-114.8866 219.7954,-101.4854 197.6084,-87 179.3578,-75.0846 177.4559,-68.5112 159.6084,-56 143.347,-44.6006 124.1782,-33.143 109.0344,-24.5141"/>
<polygon fill="#191970" stroke="#191970" points="110.6182,-21.3892 100.1873,-19.5328 107.1838,-27.4889 110.6182,-21.3892"/>
</g>
<!-- Node7 -->
<g id="node8" class="node">
<title>Node7</title>
<g id="a_node8"><a xlink:href="_operation_result_8h.html" target="_top" xlink:title="OperationResult/Operation\lResult.h">
<polygon fill="#ffffff" stroke="#000000" points="272.6084,-56.5 272.6084,-86.5 418.6084,-86.5 418.6084,-56.5 272.6084,-56.5"/>
<text text-anchor="start" x="280.6084" y="-74.5" font-family="Helvetica,sans-Serif" font-size="10.00" fill="#000000">OperationResult/Operation</text>
<text text-anchor="middle" x="345.6084" y="-63.5" font-family="Helvetica,sans-Serif" font-size="10.00" fill="#000000">Result.h</text>
</a>
</g>
</g>
<!-- Node1&#45;&gt;Node7 -->
<g id="edge7" class="edge">
<title>Node1&#45;&gt;Node7</title>
<path fill="none" stroke="#191970" d="M296.6709,-123.3906C304.0844,-115.5298 314.8671,-104.0964 324.4255,-93.9612"/>
<polygon fill="#191970" stroke="#191970" points="327.1053,-96.221 331.42,-86.5446 322.0127,-91.4183 327.1053,-96.221"/>
</g>
<!-- Node11 -->
<g id="node12" class="node">
<title>Node11</title>
<g id="a_node12"><a xlink:href="_type_traits_8h.html" target="_top" xlink:title="TypeTraits/TypeTraits.h">
<polygon fill="#ffffff" stroke="#000000" points="486.6084,-62 486.6084,-81 612.6084,-81 612.6084,-62 486.6084,-62"/>
<text text-anchor="middle" x="549.6084" y="-69" font-family="Helvetica,sans-Serif" font-size="10.00" fill="#000000">TypeTraits/TypeTraits.h</text>
</a>
</g>
</g>
<!-- Node1&#45;&gt;Node11 -->
<g id="edge12" class="edge">
<title>Node1&#45;&gt;Node11</title>
<path fill="none" stroke="#191970" d="M323.7633,-124.5133C369.2984,-113.8247 447.786,-95.4011 499.1954,-83.3336"/>
<polygon fill="#191970" stroke="#191970" points="500.1629,-86.7017 509.0985,-81.009 498.5632,-79.8869 500.1629,-86.7017"/>
</g>
<!-- Node13 -->
<g id="node14" class="node">
<title>Node13</title>
<polygon fill="#ffffff" stroke="#bfbfbf" points="436.6084,-62 436.6084,-81 468.6084,-81 468.6084,-62 436.6084,-62"/>
<text text-anchor="middle" x="452.6084" y="-69" font-family="Helvetica,sans-Serif" font-size="10.00" fill="#000000">set</text>
</g>
<!-- Node1&#45;&gt;Node13 -->
<g id="edge14" class="edge">
<title>Node1&#45;&gt;Node13</title>
<path fill="none" stroke="#191970" d="M323.8929,-123.6437C352.6994,-115.612 393.6379,-102.8364 427.6084,-87 428.2854,-86.6844 428.9665,-86.3543 429.6493,-86.0124"/>
<polygon fill="#191970" stroke="#191970" points="431.3759,-89.057 438.393,-81.119 427.9573,-82.9485 431.3759,-89.057"/>
</g>
<!-- Node14 -->
<g id="node15" class="node">
<title>Node14</title>
<polygon fill="#ffffff" stroke="#bfbfbf" points="15.1084,-62 15.1084,-81 68.1084,-81 68.1084,-62 15.1084,-62"/>
<text text-anchor="middle" x="41.6084" y="-69" font-family="Helvetica,sans-Serif" font-size="10.00" fill="#000000">iterator</text>
</g>
<!-- Node1&#45;&gt;Node14 -->
<g id="edge16" class="edge">
<title>Node1&#45;&gt;Node14</title>
<path fill="none" stroke="#191970" d="M251.3855,-127.2343C209.0863,-120.0063 137.3007,-106.1938 77.6084,-87 75.5031,-86.323 73.3521,-85.5681 71.2009,-84.766"/>
<polygon fill="#191970" stroke="#191970" points="72.4946,-81.5139 61.9103,-81.0421 69.8903,-88.0114 72.4946,-81.5139"/>
</g>
<!-- Node1&#45;&gt;Node15 -->
<g id="edge17" class="edge">
<title>Node1&#45;&gt;Node15</title>
<path fill="none" stroke="#191970" d="M323.8306,-132.0135C386.0991,-129.4434 516.8461,-120.198 621.6084,-87 623.0754,-86.5351 624.557,-86.0026 626.0347,-85.4212"/>
<polygon fill="#191970" stroke="#191970" points="627.8988,-88.4174 635.536,-81.0741 624.9864,-82.052 627.8988,-88.4174"/>
</g>
<!-- Node16 -->
<g id="node17" class="node">
<title>Node16</title>
<polygon fill="#ffffff" stroke="#bfbfbf" points="86.6084,-62 86.6084,-81 150.6084,-81 150.6084,-62 86.6084,-62"/>
<text text-anchor="middle" x="118.6084" y="-69" font-family="Helvetica,sans-Serif" font-size="10.00" fill="#000000">algorithm</text>
</g>
<!-- Node1&#45;&gt;Node16 -->
<g id="edge18" class="edge">
<title>Node1&#45;&gt;Node16</title>
<path fill="none" stroke="#191970" d="M261.2022,-123.3906C232.4293,-112.92 186.2388,-96.1111 154.2618,-84.4745"/>
<polygon fill="#191970" stroke="#191970" points="155.4233,-81.1726 144.8293,-81.0419 153.0295,-87.7506 155.4233,-81.1726"/>
</g>
<!-- Node3 -->
<g id="node4" class="node">
<title>Node3</title>
<polygon fill="#ffffff" stroke="#bfbfbf" points="129.1084,-.5 129.1084,-19.5 182.1084,-19.5 182.1084,-.5 129.1084,-.5"/>
<text text-anchor="middle" x="155.6084" y="-7.5" font-family="Helvetica,sans-Serif" font-size="10.00" fill="#000000">cstddef</text>
</g>
<!-- Node2&#45;&gt;Node3 -->
<g id="edge3" class="edge">
<title>Node2&#45;&gt;Node3</title>
<path fill="none" stroke="#191970" d="M218.8897,-61.8906C207.2897,-52.3786 189.3105,-37.6357 175.4764,-26.2917"/>
<polygon fill="#191970" stroke="#191970" points="177.4444,-23.3792 167.4924,-19.7449 173.0058,-28.7921 177.4444,-23.3792"/>
</g>
<!-- Node4 -->
<g id="node5" class="node">
<title>Node4</title>
<polygon fill="#ffffff" stroke="#bfbfbf" points="200.6084,-.5 200.6084,-19.5 242.6084,-19.5 242.6084,-.5 200.6084,-.5"/>
<text text-anchor="middle" x="221.6084" y="-7.5" font-family="Helvetica,sans-Serif" font-size="10.00" fill="#000000">array</text>
</g>
<!-- Node2&#45;&gt;Node4 -->
<g id="edge4" class="edge">
<title>Node2&#45;&gt;Node4</title>
<path fill="none" stroke="#191970" d="M229.2022,-61.8906C227.9546,-53.3657 226.0922,-40.6392 224.5241,-29.9235"/>
<polygon fill="#191970" stroke="#191970" points="227.9457,-29.1326 223.0345,-19.7449 221.0195,-30.1463 227.9457,-29.1326"/>
</g>
<!-- Node5 -->
<g id="node6" class="node">
<title>Node5</title>
<polygon fill="#ffffff" stroke="#bfbfbf" points="260.6084,-.5 260.6084,-19.5 304.6084,-19.5 304.6084,-.5 260.6084,-.5"/>
<text text-anchor="middle" x="282.6084" y="-7.5" font-family="Helvetica,sans-Serif" font-size="10.00" fill="#000000">string</text>
</g>
<!-- Node2&#45;&gt;Node5 -->
<g id="edge5" class="edge">
<title>Node2&#45;&gt;Node5</title>
<path fill="none" stroke="#191970" d="M238.7334,-61.8906C246.4726,-52.7376 258.3072,-38.7409 267.7356,-27.59"/>
<polygon fill="#191970" stroke="#191970" points="270.5849,-29.6409 274.3689,-19.7449 265.2395,-25.1213 270.5849,-29.6409"/>
</g>
<!-- Node2&#45;&gt;Node6 -->
<g id="edge6" class="edge">
<title>Node2&#45;&gt;Node6</title>
<path fill="none" stroke="#191970" d="M207.4834,-61.8906C182.6117,-51.5554 142.8787,-35.0447 114.924,-23.4284"/>
<polygon fill="#191970" stroke="#191970" points="116.1486,-20.1472 105.571,-19.5419 113.4624,-26.6113 116.1486,-20.1472"/>
</g>
<!-- Node7&#45;&gt;Node5 -->
<g id="edge8" class="edge">
<title>Node7&#45;&gt;Node5</title>
<path fill="none" stroke="#191970" d="M330.0354,-56.2977C320.926,-47.4052 309.405,-36.1586 299.9994,-26.9769"/>
<polygon fill="#191970" stroke="#191970" points="302.2962,-24.3278 292.6955,-19.8469 297.4064,-29.3368 302.2962,-24.3278"/>
</g>
<!-- Node8 -->
<g id="node9" class="node">
<title>Node8</title>
<polygon fill="#ffffff" stroke="#bfbfbf" points="386.6084,-.5 386.6084,-19.5 446.6084,-19.5 446.6084,-.5 386.6084,-.5"/>
<text text-anchor="middle" x="416.6084" y="-7.5" font-family="Helvetica,sans-Serif" font-size="10.00" fill="#000000">iostream</text>
</g>
<!-- Node7&#45;&gt;Node8 -->
<g id="edge9" class="edge">
<title>Node7&#45;&gt;Node8</title>
<path fill="none" stroke="#191970" d="M363.159,-56.2977C373.6305,-47.2274 386.9296,-35.7077 397.6422,-26.4285"/>
<polygon fill="#191970" stroke="#191970" points="399.9733,-29.0398 405.2404,-19.8469 395.3902,-23.7487 399.9733,-29.0398"/>
</g>
<!-- Node9 -->
<g id="node10" class="node">
<title>Node9</title>
<polygon fill="#ffffff" stroke="#bfbfbf" points="464.6084,-.5 464.6084,-19.5 520.6084,-19.5 520.6084,-.5 464.6084,-.5"/>
<text text-anchor="middle" x="492.6084" y="-7.5" font-family="Helvetica,sans-Serif" font-size="10.00" fill="#000000">sstream</text>
</g>
<!-- Node7&#45;&gt;Node9 -->
<g id="edge10" class="edge">
<title>Node7&#45;&gt;Node9</title>
<path fill="none" stroke="#191970" d="M381.5687,-56.4554C405.6657,-46.374 437.1215,-33.2139 460.3987,-23.4755"/>
<polygon fill="#191970" stroke="#191970" points="461.9543,-26.6187 469.8286,-19.5303 459.2526,-20.1611 461.9543,-26.6187"/>
</g>
<!-- Node10 -->
<g id="node11" class="node">
<title>Node10</title>
<polygon fill="#ffffff" stroke="#bfbfbf" points="323.1084,-.5 323.1084,-19.5 368.1084,-19.5 368.1084,-.5 323.1084,-.5"/>
<text text-anchor="middle" x="345.6084" y="-7.5" font-family="Helvetica,sans-Serif" font-size="10.00" fill="#000000">utility</text>
</g>
<!-- Node7&#45;&gt;Node10 -->
<g id="edge11" class="edge">
<title>Node7&#45;&gt;Node10</title>
<path fill="none" stroke="#191970" d="M345.6084,-56.2977C345.6084,-48.3834 345.6084,-38.6043 345.6084,-30.0759"/>
<polygon fill="#191970" stroke="#191970" points="349.1085,-29.8469 345.6084,-19.8469 342.1085,-29.847 349.1085,-29.8469"/>
</g>
<!-- Node12 -->
<g id="node13" class="node">
<title>Node12</title>
<polygon fill="#ffffff" stroke="#bfbfbf" points="539.1084,-.5 539.1084,-19.5 608.1084,-19.5 608.1084,-.5 539.1084,-.5"/>
<text text-anchor="middle" x="573.6084" y="-7.5" font-family="Helvetica,sans-Serif" font-size="10.00" fill="#000000">type_traits</text>
</g>
<!-- Node11&#45;&gt;Node12 -->
<g id="edge13" class="edge">
<title>Node11&#45;&gt;Node12</title>
<path fill="none" stroke="#191970" d="M553.3584,-61.8906C556.7553,-53.1862 561.8615,-40.1015 566.0965,-29.2494"/>
<polygon fill="#191970" stroke="#191970" points="569.4306,-30.3331 569.8056,-19.7449 562.9095,-27.7882 569.4306,-30.3331"/>
</g>
</g>
</svg>
