<?xml version="1.0" encoding="UTF-8" standalone="no"?>
<!DOCTYPE svg PUBLIC "-//W3C//DTD SVG 1.1//EN"
 "http://www.w3.org/Graphics/SVG/1.1/DTD/svg11.dtd">
<!-- Generated by graphviz version 2.40.1 (20161225.0304)
 -->
<!-- Title: hw1_ip_filter/src/IpFilter/IpStorage.h Pages: 1 -->
<!--zoomable 386 -->
<svg id="main" version="1.1" xmlns="http://www.w3.org/2000/svg" xmlns:xlink="http://www.w3.org/1999/xlink" xml:space="preserve" onload="init(evt)">
<style type="text/css"><![CDATA[
.edge:hover path { stroke: red; }
.edge:hover polygon { stroke: red; fill: red; }
]]></style>
<script type="text/javascript"><![CDATA[
var edges = document.getElementsByTagName('g');
if (edges && edges.length) {
  for (var i=0;i<edges.length;i++) {
    if (edges[i].id.substr(0,4)=='edge') {
      edges[i].setAttribute('class','edge');
    }
  }
}
]]></script>
        <defs>
                <circle id="rim" cx="0" cy="0" r="7"/>
                <circle id="rim2" cx="0" cy="0" r="3.5"/>
                <g id="zoomPlus">
                        <use xlink:href="#rim" fill="#404040">
                                <set attributeName="fill" to="#808080" begin="zoomplus.mouseover" end="zoomplus.mouseout"/>
                        </use>
                        <path d="M-4,0h8M0,-4v8" fill="none" stroke="white" stroke-width="1.5" pointer-events="none"/>
                </g>
                <g id="zoomMin">
                        <use xlink:href="#rim" fill="#404040">
                                <set attributeName="fill" to="#808080" begin="zoomminus.mouseover" end="zoomminus.mouseout"/>
                        </use>
                        <path d="M-4,0h8" fill="none" stroke="white" stroke-width="1.5" pointer-events="none"/>
                </g>
                <g id="dirArrow">
                        <path fill="none" stroke="white" stroke-width="1.5" d="M0,-3.0v7 M-2.5,-0.5L0,-3.0L2.5,-0.5"/>
                </g>
               <g id="resetDef">
                       <use xlink:href="#rim2" fill="#404040">
                               <set attributeName="fill" to="#808080" begin="reset.mouseover" end="reset.mouseout"/>
                       </use>
               </g>
        </defs>

<script type="text/javascript">
var viewWidth = 588;
var viewHeight = 386;
var sectionId = 'dynsection-0';
</script>
<script xlink:href="svgpan.js"/>
<svg id="graph" class="graph">
<g id="viewport">
<title>hw1_ip_filter/src/IpFilter/IpStorage.h</title>
<polygon fill="#ffffff" stroke="transparent" points="-4,4 -4,-382 584,-382 584,4 -4,4"/>
<!-- Node1 -->
<g id="node1" class="node">
<title>Node1</title>
<g id="a_node1"><a xlink:title=" ">
<polygon fill="#bfbfbf" stroke="#000000" points="243,-347.5 243,-377.5 375,-377.5 375,-347.5 243,-347.5"/>
<text text-anchor="start" x="251" y="-365.5" font-family="Helvetica,sans-Serif" font-size="10.00" fill="#000000">hw1_ip_filter/src/IpFilter</text>
<text text-anchor="middle" x="309" y="-354.5" font-family="Helvetica,sans-Serif" font-size="10.00" fill="#000000">/IpStorage.h</text>
</a>
</g>
</g>
<!-- Node2 -->
<g id="node2" class="node">
<title>Node2</title>
<g id="a_node2"><a xlink:href="_ip_functions_8h.html" target="_top" xlink:title=" ">
<polygon fill="#ffffff" stroke="#000000" points="179,-291.5 179,-310.5 259,-310.5 259,-291.5 179,-291.5"/>
<text text-anchor="middle" x="219" y="-298.5" font-family="Helvetica,sans-Serif" font-size="10.00" fill="#000000">IpFunctions.h</text>
</a>
</g>
</g>
<!-- Node1&#45;&gt;Node2 -->
<g id="edge1" class="edge">
<title>Node1&#45;&gt;Node2</title>
<path fill="none" stroke="#191970" d="M286.7528,-347.2977C273.0033,-337.9022 255.4079,-325.8787 241.5943,-316.4395"/>
<polygon fill="#191970" stroke="#191970" points="243.3725,-313.4155 233.1414,-310.6633 239.4232,-319.195 243.3725,-313.4155"/>
</g>
<!-- Node3 -->
<g id="node3" class="node">
<title>Node3</title>
<g id="a_node3"><a xlink:href="_restrictions_8h.html" target="_top" xlink:title=" ">
<polygon fill="#ffffff" stroke="#000000" points="107.5,-230 107.5,-249 190.5,-249 190.5,-230 107.5,-230"/>
<text text-anchor="middle" x="149" y="-237" font-family="Helvetica,sans-Serif" font-size="10.00" fill="#000000">Restrictions.h</text>
</a>
</g>
</g>
<!-- Node1&#45;&gt;Node3 -->
<g id="edge21" class="edge">
<title>Node1&#45;&gt;Node3</title>
<path fill="none" stroke="#191970" d="M242.7132,-351.2429C216.9206,-343.776 189.0499,-331.4149 170,-311 156.9313,-296.9948 151.9549,-275.2724 150.0818,-259.4445"/>
<polygon fill="#191970" stroke="#191970" points="153.5409,-258.8182 149.195,-249.1557 146.5667,-259.4194 153.5409,-258.8182"/>
</g>
<!-- Node7 -->
<g id="node7" class="node">
<title>Node7</title>
<g id="a_node7"><a xlink:href="_type_traits_8h.html" target="_top" xlink:title=" ">
<polygon fill="#ffffff" stroke="#000000" points="0,-56.5 0,-75.5 126,-75.5 126,-56.5 0,-56.5"/>
<text text-anchor="middle" x="63" y="-63.5" font-family="Helvetica,sans-Serif" font-size="10.00" fill="#000000">TypeTraits/TypeTraits.h</text>
</a>
</g>
</g>
<!-- Node1&#45;&gt;Node7 -->
<g id="edge23" class="edge">
<title>Node1&#45;&gt;Node7</title>
<path fill="none" stroke="#191970" d="M242.7407,-348.4975C156.5884,-328.3454 17,-288.1825 17,-239.5 17,-239.5 17,-239.5 17,-178 17,-142.66 36.8391,-105.4332 50.4597,-84.0395"/>
<polygon fill="#191970" stroke="#191970" points="53.4179,-85.9114 56.0136,-75.6394 47.5788,-82.0507 53.4179,-85.9114"/>
</g>
<!-- Node16 -->
<g id="node16" class="node">
<title>Node16</title>
<g id="a_node16"><a xlink:href="_operation_result_8h.html" target="_top" xlink:title=" ">
<polygon fill="#ffffff" stroke="#000000" points="434,-224.5 434,-254.5 580,-254.5 580,-224.5 434,-224.5"/>
<text text-anchor="start" x="442" y="-242.5" font-family="Helvetica,sans-Serif" font-size="10.00" fill="#000000">OperationResult/Operation</text>
<text text-anchor="middle" x="507" y="-231.5" font-family="Helvetica,sans-Serif" font-size="10.00" fill="#000000">Result.h</text>
</a>
</g>
</g>
<!-- Node1&#45;&gt;Node16 -->
<g id="edge22" class="edge">
<title>Node1&#45;&gt;Node16</title>
<path fill="none" stroke="#191970" d="M303.1841,-347.3818C298.1951,-331.6108 293.5838,-306.9985 306,-291 313.6641,-281.1247 372.1082,-266.818 424.0129,-255.7886"/>
<polygon fill="#191970" stroke="#191970" points="424.8858,-259.1817 433.9517,-253.699 423.4455,-252.3314 424.8858,-259.1817"/>
</g>
<!-- Node18 -->
<g id="node18" class="node">
<title>Node18</title>
<g id="a_node18"><a xlink:title=" ">
<polygon fill="#ffffff" stroke="#bfbfbf" points="315,-291.5 315,-310.5 347,-310.5 347,-291.5 315,-291.5"/>
<text text-anchor="middle" x="331" y="-298.5" font-family="Helvetica,sans-Serif" font-size="10.00" fill="#000000">set</text>
</a>
</g>
</g>
<!-- Node1&#45;&gt;Node18 -->
<g id="edge24" class="edge">
<title>Node1&#45;&gt;Node18</title>
<path fill="none" stroke="#191970" d="M314.4382,-347.2977C317.333,-339.2055 320.9251,-329.1639 324.0234,-320.5029"/>
<polygon fill="#191970" stroke="#191970" points="327.4047,-321.4415 327.4775,-310.8469 320.8138,-319.0837 327.4047,-321.4415"/>
</g>
<!-- Node19 -->
<g id="node19" class="node">
<title>Node19</title>
<g id="a_node19"><a xlink:title=" ">
<polygon fill="#ffffff" stroke="#bfbfbf" points="365.5,-291.5 365.5,-310.5 418.5,-310.5 418.5,-291.5 365.5,-291.5"/>
<text text-anchor="middle" x="392" y="-298.5" font-family="Helvetica,sans-Serif" font-size="10.00" fill="#000000">iterator</text>
</a>
</g>
</g>
<!-- Node1&#45;&gt;Node19 -->
<g id="edge25" class="edge">
<title>Node1&#45;&gt;Node19</title>
<path fill="none" stroke="#191970" d="M329.5169,-347.2977C341.9982,-338.0495 357.9159,-326.2551 370.5614,-316.8853"/>
<polygon fill="#191970" stroke="#191970" points="372.7596,-319.6126 378.7106,-310.8469 368.5922,-313.9882 372.7596,-319.6126"/>
</g>
<!-- Node20 -->
<g id="node20" class="node">
<title>Node20</title>
<g id="a_node20"><a xlink:title=" ">
<polygon fill="#ffffff" stroke="#bfbfbf" points="436.5,-291.5 436.5,-310.5 477.5,-310.5 477.5,-291.5 436.5,-291.5"/>
<text text-anchor="middle" x="457" y="-298.5" font-family="Helvetica,sans-Serif" font-size="10.00" fill="#000000">tuple</text>
</a>
</g>
</g>
<!-- Node1&#45;&gt;Node20 -->
<g id="edge26" class="edge">
<title>Node1&#45;&gt;Node20</title>
<path fill="none" stroke="#191970" d="M345.2049,-347.4554C370.2146,-337.0628 403.0976,-323.3986 426.7171,-313.5838"/>
<polygon fill="#191970" stroke="#191970" points="428.3313,-316.7032 436.2227,-309.6338 425.6452,-310.2391 428.3313,-316.7032"/>
</g>
<!-- Node21 -->
<g id="node21" class="node">
<title>Node21</title>
<g id="a_node21"><a xlink:title=" ">
<polygon fill="#ffffff" stroke="#bfbfbf" points="496,-291.5 496,-310.5 560,-310.5 560,-291.5 496,-291.5"/>
<text text-anchor="middle" x="528" y="-298.5" font-family="Helvetica,sans-Serif" font-size="10.00" fill="#000000">algorithm</text>
</a>
</g>
</g>
<!-- Node1&#45;&gt;Node21 -->
<g id="edge27" class="edge">
<title>Node1&#45;&gt;Node21</title>
<path fill="none" stroke="#191970" d="M362.5734,-347.4554C400.607,-336.7747 450.9456,-322.6386 486.064,-312.7765"/>
<polygon fill="#191970" stroke="#191970" points="487.3112,-316.0618 495.9925,-309.9884 485.4186,-309.3225 487.3112,-316.0618"/>
</g>
<!-- Node2&#45;&gt;Node3 -->
<g id="edge2" class="edge">
<title>Node2&#45;&gt;Node3</title>
<path fill="none" stroke="#191970" d="M208.0625,-291.3906C197.338,-281.9683 180.7713,-267.4134 167.9099,-256.1137"/>
<polygon fill="#191970" stroke="#191970" points="169.9143,-253.2158 160.0917,-249.2449 165.2941,-258.4745 169.9143,-253.2158"/>
</g>
<!-- Node6 -->
<g id="node6" class="node">
<title>Node6</title>
<g id="a_node6"><a xlink:href="_generic_ip_8h.html" target="_top" xlink:title=" ">
<polygon fill="#ffffff" stroke="#000000" points="183,-112.5 183,-131.5 255,-131.5 255,-112.5 183,-112.5"/>
<text text-anchor="middle" x="219" y="-119.5" font-family="Helvetica,sans-Serif" font-size="10.00" fill="#000000">GenericIp.h</text>
</a>
</g>
</g>
<!-- Node2&#45;&gt;Node6 -->
<g id="edge12" class="edge">
<title>Node2&#45;&gt;Node6</title>
<path fill="none" stroke="#191970" d="M219,-291.3762C219,-263.2097 219,-180.5126 219,-142.0713"/>
<polygon fill="#191970" stroke="#191970" points="222.5001,-141.6714 219,-131.6714 215.5001,-141.6714 222.5001,-141.6714"/>
</g>
<!-- Node13 -->
<g id="node13" class="node">
<title>Node13</title>
<g id="a_node13"><a xlink:href="_string_functions_8h.html" target="_top" xlink:title=" ">
<polygon fill="#ffffff" stroke="#000000" points="246.5,-230 246.5,-249 415.5,-249 415.5,-230 246.5,-230"/>
<text text-anchor="middle" x="331" y="-237" font-family="Helvetica,sans-Serif" font-size="10.00" fill="#000000">StringAddOns/StringFunctions.h</text>
</a>
</g>
</g>
<!-- Node2&#45;&gt;Node13 -->
<g id="edge13" class="edge">
<title>Node2&#45;&gt;Node13</title>
<path fill="none" stroke="#191970" d="M236.5,-291.3906C254.7465,-281.3713 283.5624,-265.5483 304.5806,-254.0071"/>
<polygon fill="#191970" stroke="#191970" points="306.542,-256.923 313.6229,-249.0419 303.1728,-250.7872 306.542,-256.923"/>
</g>
<!-- Node2&#45;&gt;Node16 -->
<g id="edge16" class="edge">
<title>Node2&#45;&gt;Node16</title>
<path fill="none" stroke="#191970" d="M259.0452,-292.4487C302.1869,-283.2361 371.9842,-268.3315 426.5513,-256.6792"/>
<polygon fill="#191970" stroke="#191970" points="427.5045,-260.0546 436.553,-254.5434 426.0426,-253.2089 427.5045,-260.0546"/>
</g>
<!-- Node4 -->
<g id="node4" class="node">
<title>Node4</title>
<g id="a_node4"><a xlink:href="_boundaries_8h.html" target="_top" xlink:title=" ">
<polygon fill="#ffffff" stroke="#000000" points="111,-168.5 111,-187.5 191,-187.5 191,-168.5 111,-168.5"/>
<text text-anchor="middle" x="151" y="-175.5" font-family="Helvetica,sans-Serif" font-size="10.00" fill="#000000">Boundaries.h</text>
</a>
</g>
</g>
<!-- Node3&#45;&gt;Node4 -->
<g id="edge3" class="edge">
<title>Node3&#45;&gt;Node4</title>
<path fill="none" stroke="#191970" d="M149.3125,-229.8906C149.5897,-221.3657 150.0036,-208.6392 150.3521,-197.9235"/>
<polygon fill="#191970" stroke="#191970" points="153.8561,-197.8534 150.6831,-187.7449 146.8598,-197.6258 153.8561,-197.8534"/>
</g>
<!-- Node5 -->
<g id="node5" class="node">
<title>Node5</title>
<g id="a_node5"><a xlink:href="_ip_v4_8h.html" target="_top" xlink:title=" ">
<polygon fill="#ffffff" stroke="#000000" points="45.5,-168.5 45.5,-187.5 92.5,-187.5 92.5,-168.5 45.5,-168.5"/>
<text text-anchor="middle" x="69" y="-175.5" font-family="Helvetica,sans-Serif" font-size="10.00" fill="#000000">IpV4.h</text>
</a>
</g>
</g>
<!-- Node3&#45;&gt;Node5 -->
<g id="edge4" class="edge">
<title>Node3&#45;&gt;Node5</title>
<path fill="none" stroke="#191970" d="M136.5,-229.8906C123.9364,-220.2324 104.3577,-205.1812 89.5151,-193.771"/>
<polygon fill="#191970" stroke="#191970" points="91.4735,-190.8618 81.4122,-187.5419 87.2072,-196.4115 91.4735,-190.8618"/>
</g>
<!-- Node5&#45;&gt;Node6 -->
<g id="edge5" class="edge">
<title>Node5&#45;&gt;Node6</title>
<path fill="none" stroke="#191970" d="M92.7679,-169.1266C117.3016,-159.9674 155.8453,-145.5777 183.8916,-135.1071"/>
<polygon fill="#191970" stroke="#191970" points="185.1897,-138.3585 193.334,-131.582 182.7414,-131.8006 185.1897,-138.3585"/>
</g>
<!-- Node6&#45;&gt;Node7 -->
<g id="edge6" class="edge">
<title>Node6&#45;&gt;Node7</title>
<path fill="none" stroke="#191970" d="M192.1826,-112.3733C166.4668,-103.1419 127.462,-89.1402 99.0401,-78.9375"/>
<polygon fill="#191970" stroke="#191970" points="100.0619,-75.5857 89.4674,-75.5011 97.6968,-82.174 100.0619,-75.5857"/>
</g>
<!-- Node9 -->
<g id="node9" class="node">
<title>Node9</title>
<g id="a_node9"><a xlink:title=" ">
<polygon fill="#ffffff" stroke="#bfbfbf" points="229,-56.5 229,-75.5 271,-75.5 271,-56.5 229,-56.5"/>
<text text-anchor="middle" x="250" y="-63.5" font-family="Helvetica,sans-Serif" font-size="10.00" fill="#000000">array</text>
</a>
</g>
</g>
<!-- Node6&#45;&gt;Node9 -->
<g id="edge8" class="edge">
<title>Node6&#45;&gt;Node9</title>
<path fill="none" stroke="#191970" d="M224.3998,-112.2455C228.6227,-104.617 234.6173,-93.7881 239.7441,-84.5267"/>
<polygon fill="#191970" stroke="#191970" points="242.881,-86.0867 244.6621,-75.6427 236.7568,-82.6965 242.881,-86.0867"/>
</g>
<!-- Node10 -->
<g id="node10" class="node">
<title>Node10</title>
<g id="a_node10"><a xlink:title=" ">
<polygon fill="#ffffff" stroke="#bfbfbf" points="297,-56.5 297,-75.5 357,-75.5 357,-56.5 297,-56.5"/>
<text text-anchor="middle" x="327" y="-63.5" font-family="Helvetica,sans-Serif" font-size="10.00" fill="#000000">iostream</text>
</a>
</g>
</g>
<!-- Node6&#45;&gt;Node10 -->
<g id="edge9" class="edge">
<title>Node6&#45;&gt;Node10</title>
<path fill="none" stroke="#191970" d="M237.8122,-112.2455C254.8473,-103.4125 280.1575,-90.2887 299.4681,-80.2758"/>
<polygon fill="#191970" stroke="#191970" points="301.137,-83.353 308.4034,-75.6427 297.9147,-77.1388 301.137,-83.353"/>
</g>
<!-- Node11 -->
<g id="node11" class="node">
<title>Node11</title>
<g id="a_node11"><a xlink:title=" ">
<polygon fill="#ffffff" stroke="#bfbfbf" points="437.5,-56.5 437.5,-75.5 482.5,-75.5 482.5,-56.5 437.5,-56.5"/>
<text text-anchor="middle" x="460" y="-63.5" font-family="Helvetica,sans-Serif" font-size="10.00" fill="#000000">utility</text>
</a>
</g>
</g>
<!-- Node6&#45;&gt;Node11 -->
<g id="edge10" class="edge">
<title>Node6&#45;&gt;Node11</title>
<path fill="none" stroke="#191970" d="M255.0801,-113.6162C301.8595,-102.7463 382.7502,-83.9501 427.6352,-73.5204"/>
<polygon fill="#191970" stroke="#191970" points="428.4873,-76.9158 437.4356,-71.2432 426.9029,-70.0974 428.4873,-76.9158"/>
</g>
<!-- Node12 -->
<g id="node12" class="node">
<title>Node12</title>
<g id="a_node12"><a xlink:title=" ">
<polygon fill="#ffffff" stroke="#bfbfbf" points="159,-56.5 159,-75.5 211,-75.5 211,-56.5 159,-56.5"/>
<text text-anchor="middle" x="185" y="-63.5" font-family="Helvetica,sans-Serif" font-size="10.00" fill="#000000">cassert</text>
</a>
</g>
</g>
<!-- Node6&#45;&gt;Node12 -->
<g id="edge11" class="edge">
<title>Node6&#45;&gt;Node12</title>
<path fill="none" stroke="#191970" d="M213.0777,-112.2455C208.3973,-104.5367 201.7327,-93.5598 196.0711,-84.2348"/>
<polygon fill="#191970" stroke="#191970" points="199.0361,-82.3741 190.8545,-75.6427 193.0525,-86.007 199.0361,-82.3741"/>
</g>
<!-- Node8 -->
<g id="node8" class="node">
<title>Node8</title>
<g id="a_node8"><a xlink:title=" ">
<polygon fill="#ffffff" stroke="#bfbfbf" points="28.5,-.5 28.5,-19.5 97.5,-19.5 97.5,-.5 28.5,-.5"/>
<text text-anchor="middle" x="63" y="-7.5" font-family="Helvetica,sans-Serif" font-size="10.00" fill="#000000">type_traits</text>
</a>
</g>
</g>
<!-- Node7&#45;&gt;Node8 -->
<g id="edge7" class="edge">
<title>Node7&#45;&gt;Node8</title>
<path fill="none" stroke="#191970" d="M63,-56.2455C63,-48.9382 63,-38.6944 63,-29.7046"/>
<polygon fill="#191970" stroke="#191970" points="66.5001,-29.6426 63,-19.6427 59.5001,-29.6427 66.5001,-29.6426"/>
</g>
<!-- Node14 -->
<g id="node14" class="node">
<title>Node14</title>
<g id="a_node14"><a xlink:title=" ">
<polygon fill="#ffffff" stroke="#bfbfbf" points="299.5,-168.5 299.5,-187.5 346.5,-187.5 346.5,-168.5 299.5,-168.5"/>
<text text-anchor="middle" x="323" y="-175.5" font-family="Helvetica,sans-Serif" font-size="10.00" fill="#000000">vector</text>
</a>
</g>
</g>
<!-- Node13&#45;&gt;Node14 -->
<g id="edge14" class="edge">
<title>Node13&#45;&gt;Node14</title>
<path fill="none" stroke="#191970" d="M329.75,-229.8906C328.6411,-221.3657 326.9856,-208.6392 325.5917,-197.9235"/>
<polygon fill="#191970" stroke="#191970" points="329.0284,-197.2098 324.2676,-187.7449 322.0869,-198.1128 329.0284,-197.2098"/>
</g>
<!-- Node15 -->
<g id="node15" class="node">
<title>Node15</title>
<g id="a_node15"><a xlink:title=" ">
<polygon fill="#ffffff" stroke="#bfbfbf" points="365,-168.5 365,-187.5 409,-187.5 409,-168.5 365,-168.5"/>
<text text-anchor="middle" x="387" y="-175.5" font-family="Helvetica,sans-Serif" font-size="10.00" fill="#000000">string</text>
</a>
</g>
</g>
<!-- Node13&#45;&gt;Node15 -->
<g id="edge15" class="edge">
<title>Node13&#45;&gt;Node15</title>
<path fill="none" stroke="#191970" d="M339.75,-229.8906C348.1662,-220.6478 361.0797,-206.466 371.281,-195.2628"/>
<polygon fill="#191970" stroke="#191970" points="373.9818,-197.4953 378.1266,-187.7449 368.806,-192.7824 373.9818,-197.4953"/>
</g>
<!-- Node16&#45;&gt;Node10 -->
<g id="edge18" class="edge">
<title>Node16&#45;&gt;Node10</title>
<path fill="none" stroke="#191970" d="M491.3411,-224.4065C457.9251,-192.1972 379.8191,-116.9117 344.6803,-83.0418"/>
<polygon fill="#191970" stroke="#191970" points="346.7317,-80.1579 337.1028,-75.738 341.8738,-85.1979 346.7317,-80.1579"/>
</g>
<!-- Node16&#45;&gt;Node11 -->
<g id="edge20" class="edge">
<title>Node16&#45;&gt;Node11</title>
<path fill="none" stroke="#191970" d="M502.9113,-224.4065C494.4069,-193.0126 474.8168,-120.6961 465.3346,-85.6925"/>
<polygon fill="#191970" stroke="#191970" points="468.631,-84.475 462.638,-75.738 461.8745,-86.3053 468.631,-84.475"/>
</g>
<!-- Node16&#45;&gt;Node15 -->
<g id="edge17" class="edge">
<title>Node16&#45;&gt;Node15</title>
<path fill="none" stroke="#191970" d="M477.6447,-224.4554C458.4127,-214.599 433.4388,-201.7999 414.5759,-192.1327"/>
<polygon fill="#191970" stroke="#191970" points="416.0914,-188.9765 405.5957,-187.5303 412.8987,-195.206 416.0914,-188.9765"/>
</g>
<!-- Node17 -->
<g id="node17" class="node">
<title>Node17</title>
<g id="a_node17"><a xlink:title=" ">
<polygon fill="#ffffff" stroke="#bfbfbf" points="503,-168.5 503,-187.5 559,-187.5 559,-168.5 503,-168.5"/>
<text text-anchor="middle" x="531" y="-175.5" font-family="Helvetica,sans-Serif" font-size="10.00" fill="#000000">sstream</text>
</a>
</g>
</g>
<!-- Node16&#45;&gt;Node17 -->
<g id="edge19" class="edge">
<title>Node16&#45;&gt;Node17</title>
<path fill="none" stroke="#191970" d="M512.9326,-224.2977C516.1252,-216.1166 520.0954,-205.943 523.5004,-197.2179"/>
<polygon fill="#191970" stroke="#191970" points="526.7823,-198.4351 527.1573,-187.8469 520.2613,-195.8903 526.7823,-198.4351"/>
</g>
</g>
</svg>
        <g id="navigator" transform="translate(0 0)" fill="#404254">
                <rect fill="#f2f5e9" fill-opacity="0.5" stroke="#606060" stroke-width=".5" x="0" y="0" width="60" height="60"/>
                <use id="zoomplus" xlink:href="#zoomPlus" x="17" y="9" onmousedown="handleZoom(evt,'in')"/>
                <use id="zoomminus" xlink:href="#zoomMin" x="42" y="9" onmousedown="handleZoom(evt,'out')"/>
                <use id="reset" xlink:href="#resetDef" x="30" y="36" onmousedown="handleReset()"/>
                <g id="arrowUp" xlink:href="#dirArrow" transform="translate(30 24)" onmousedown="handlePan(0,-1)">
                  <use xlink:href="#rim" fill="#404040">
                        <set attributeName="fill" to="#808080" begin="arrowUp.mouseover" end="arrowUp.mouseout"/>
                  </use>
                  <path fill="none" stroke="white" stroke-width="1.5" d="M0,-3.0v7 M-2.5,-0.5L0,-3.0L2.5,-0.5"/>
                </g>
                <g id="arrowRight" xlink:href="#dirArrow" transform="rotate(90) translate(36 -43)" onmousedown="handlePan(1,0)">
                  <use xlink:href="#rim" fill="#404040">
                        <set attributeName="fill" to="#808080" begin="arrowRight.mouseover" end="arrowRight.mouseout"/>
                  </use>
                  <path fill="none" stroke="white" stroke-width="1.5" d="M0,-3.0v7 M-2.5,-0.5L0,-3.0L2.5,-0.5"/>
                </g>
                <g id="arrowDown" xlink:href="#dirArrow" transform="rotate(180) translate(-30 -48)" onmousedown="handlePan(0,1)">
                  <use xlink:href="#rim" fill="#404040">
                        <set attributeName="fill" to="#808080" begin="arrowDown.mouseover" end="arrowDown.mouseout"/>
                  </use>
                  <path fill="none" stroke="white" stroke-width="1.5" d="M0,-3.0v7 M-2.5,-0.5L0,-3.0L2.5,-0.5"/>
                </g>
                <g id="arrowLeft" xlink:href="#dirArrow" transform="rotate(270) translate(-36 17)" onmousedown="handlePan(-1,0)">
                  <use xlink:href="#rim" fill="#404040">
                        <set attributeName="fill" to="#808080" begin="arrowLeft.mouseover" end="arrowLeft.mouseout"/>
                  </use>
                  <path fill="none" stroke="white" stroke-width="1.5" d="M0,-3.0v7 M-2.5,-0.5L0,-3.0L2.5,-0.5"/>
                </g>
        </g>
        <svg viewBox="0 0 15 15" width="100%" height="30px" preserveAspectRatio="xMaxYMin meet">
         <g id="arrow_out" transform="scale(0.3 0.3)">
          <a xlink:href="_ip_storage_8h__incl_org.svg" target="_base">
           <rect id="button" ry="5" rx="5" y="6" x="6" height="38" width="38"
                fill="#f2f5e9" fill-opacity="0.5" stroke="#606060" stroke-width="1.0"/>
           <path id="arrow"
             d="M 11.500037,31.436501 C 11.940474,20.09759 22.043105,11.32322 32.158766,21.979434 L 37.068811,17.246167 C 37.068811,17.246167 37.088388,32 37.088388,32 L 22.160133,31.978069 C 22.160133,31.978069 26.997745,27.140456 26.997745,27.140456 C 18.528582,18.264221 13.291696,25.230495 11.500037,31.436501 z"
             style="fill:#404040;"/>
          </a>
         </g>
        </svg>
</svg>
