<?xml version="1.0" encoding="UTF-8" standalone="no"?>
<!DOCTYPE svg PUBLIC "-//W3C//DTD SVG 1.1//EN"
 "http://www.w3.org/Graphics/SVG/1.1/DTD/svg11.dtd">
<!-- Generated by graphviz version 2.40.1 (20161225.0304)
 -->
<!-- Title: hw2_ip_filter/src/IpFilter/IpV4.h Pages: 1 -->
<svg width="672pt" height="307pt"
 viewBox="0.00 0.00 672.00 307.00" xmlns="http://www.w3.org/2000/svg" xmlns:xlink="http://www.w3.org/1999/xlink">
<g id="graph0" class="graph" transform="scale(1 1) rotate(0) translate(4 303)">
<title>hw2_ip_filter/src/IpFilter/IpV4.h</title>
<polygon fill="#ffffff" stroke="transparent" points="-4,4 -4,-303 668,-303 668,4 -4,4"/>
<!-- Node5 -->
<g id="node1" class="node">
<title>Node5</title>
<polygon fill="#bfbfbf" stroke="#000000" points="400,-268.5 400,-298.5 532,-298.5 532,-268.5 400,-268.5"/>
<text text-anchor="start" x="408" y="-286.5" font-family="Helvetica,sans-Serif" font-size="10.00" fill="#000000">hw2_ip_filter/src/IpFilter</text>
<text text-anchor="middle" x="466" y="-275.5" font-family="Helvetica,sans-Serif" font-size="10.00" fill="#000000">/IpV4.h</text>
</g>
<!-- Node6 -->
<g id="node2" class="node">
<title>Node6</title>
<g id="a_node2"><a xlink:href="_ip_storage_8h.html" target="_top" xlink:title="hw2_ip_filter/src/IpFilter\l/IpStorage.h">
<polygon fill="#ffffff" stroke="#000000" points="268,-201.5 268,-231.5 400,-231.5 400,-201.5 268,-201.5"/>
<text text-anchor="start" x="276" y="-219.5" font-family="Helvetica,sans-Serif" font-size="10.00" fill="#000000">hw2_ip_filter/src/IpFilter</text>
<text text-anchor="middle" x="334" y="-208.5" font-family="Helvetica,sans-Serif" font-size="10.00" fill="#000000">/IpStorage.h</text>
</a>
</g>
</g>
<!-- Node5&#45;&gt;Node6 -->
<g id="edge1" class="edge">
<title>Node5&#45;&gt;Node6</title>
<path fill="none" stroke="#191970" d="M427.411,-263.9132C407.1813,-253.645 382.7733,-241.2561 363.9812,-231.7177"/>
<polygon fill="#191970" stroke="#191970" points="425.8754,-267.0587 436.3766,-268.4639 429.0437,-260.8168 425.8754,-267.0587"/>
</g>
<!-- Node10 -->
<g id="node6" class="node">
<title>Node10</title>
<g id="a_node6"><a xlink:href="hw2__ip__filter_2src_2_required_outputs_module_2main_8cpp.html" target="_top" xlink:title="hw2_ip_filter/src/Required\lOutputsModule/main.cpp">
<polygon fill="#ffffff" stroke="#000000" points="0,-67.5 0,-97.5 142,-97.5 142,-67.5 0,-67.5"/>
<text text-anchor="start" x="8" y="-85.5" font-family="Helvetica,sans-Serif" font-size="10.00" fill="#000000">hw2_ip_filter/src/Required</text>
<text text-anchor="middle" x="71" y="-74.5" font-family="Helvetica,sans-Serif" font-size="10.00" fill="#000000">OutputsModule/main.cpp</text>
</a>
</g>
</g>
<!-- Node5&#45;&gt;Node10 -->
<g id="edge11" class="edge">
<title>Node5&#45;&gt;Node10</title>
<path fill="none" stroke="#191970" d="M389.558,-270.2386C289.2656,-251.1737 121.4596,-212.9754 83,-165 67.6099,-145.8021 67.368,-115.7206 68.9424,-97.6762"/>
<polygon fill="#191970" stroke="#191970" points="389.1698,-273.7268 399.6443,-272.1347 390.4631,-266.8473 389.1698,-273.7268"/>
</g>
<!-- Node11 -->
<g id="node7" class="node">
<title>Node11</title>
<g id="a_node7"><a xlink:href="_ip_storage_tests_8h.html" target="_top" xlink:title="hw2_ip_filter/tests\l/IpFilterTests/IpStorageTests.h">
<polygon fill="#ffffff" stroke="#000000" points="353.5,-67.5 353.5,-97.5 514.5,-97.5 514.5,-67.5 353.5,-67.5"/>
<text text-anchor="start" x="361.5" y="-85.5" font-family="Helvetica,sans-Serif" font-size="10.00" fill="#000000">hw2_ip_filter/tests</text>
<text text-anchor="middle" x="434" y="-74.5" font-family="Helvetica,sans-Serif" font-size="10.00" fill="#000000">/IpFilterTests/IpStorageTests.h</text>
</a>
</g>
</g>
<!-- Node5&#45;&gt;Node11 -->
<g id="edge12" class="edge">
<title>Node5&#45;&gt;Node11</title>
<path fill="none" stroke="#191970" d="M461.9957,-258.348C455.2547,-216.0061 441.843,-131.7637 436.3895,-97.5088"/>
<polygon fill="#191970" stroke="#191970" points="458.566,-259.067 463.5948,-268.3923 465.4789,-257.9664 458.566,-259.067"/>
</g>
<!-- Node13 -->
<g id="node9" class="node">
<title>Node13</title>
<g id="a_node9"><a xlink:href="_ip_v4_8cpp.html" target="_top" xlink:title="hw2_ip_filter/src/IpFilter\l/IpV4.cpp">
<polygon fill="#ffffff" stroke="#000000" points="532,-201.5 532,-231.5 664,-231.5 664,-201.5 532,-201.5"/>
<text text-anchor="start" x="540" y="-219.5" font-family="Helvetica,sans-Serif" font-size="10.00" fill="#000000">hw2_ip_filter/src/IpFilter</text>
<text text-anchor="middle" x="598" y="-208.5" font-family="Helvetica,sans-Serif" font-size="10.00" fill="#000000">/IpV4.cpp</text>
</a>
</g>
</g>
<!-- Node5&#45;&gt;Node13 -->
<g id="edge10" class="edge">
<title>Node5&#45;&gt;Node13</title>
<path fill="none" stroke="#191970" d="M504.589,-263.9132C524.8187,-253.645 549.2267,-241.2561 568.0188,-231.7177"/>
<polygon fill="#191970" stroke="#191970" points="502.9563,-260.8168 495.6234,-268.4639 506.1246,-267.0587 502.9563,-260.8168"/>
</g>
<!-- Node14 -->
<g id="node10" class="node">
<title>Node14</title>
<g id="a_node10"><a xlink:href="_ip_v4_tests_8h.html" target="_top" xlink:title="hw2_ip_filter/tests\l/IpFilterTests/IpV4Tests.h">
<polygon fill="#ffffff" stroke="#000000" points="494,-134.5 494,-164.5 630,-164.5 630,-134.5 494,-134.5"/>
<text text-anchor="start" x="502" y="-152.5" font-family="Helvetica,sans-Serif" font-size="10.00" fill="#000000">hw2_ip_filter/tests</text>
<text text-anchor="middle" x="562" y="-141.5" font-family="Helvetica,sans-Serif" font-size="10.00" fill="#000000">/IpFilterTests/IpV4Tests.h</text>
</a>
</g>
</g>
<!-- Node5&#45;&gt;Node14 -->
<g id="edge13" class="edge">
<title>Node5&#45;&gt;Node14</title>
<path fill="none" stroke="#191970" d="M481.8929,-259.9175C493.1801,-243.3134 508.7923,-220.6355 523,-201 531.9414,-188.6427 542.3894,-174.8803 550.2197,-164.6934"/>
<polygon fill="#191970" stroke="#191970" points="478.8169,-258.2177 476.1036,-268.4593 484.6114,-262.1451 478.8169,-258.2177"/>
</g>
<!-- Node7 -->
<g id="node3" class="node">
<title>Node7</title>
<g id="a_node3"><a xlink:href="_ip_storage_8cpp.html" target="_top" xlink:title="hw2_ip_filter/src/IpFilter\l/IpStorage.cpp">
<polygon fill="#ffffff" stroke="#000000" points="268,-134.5 268,-164.5 400,-164.5 400,-134.5 268,-134.5"/>
<text text-anchor="start" x="276" y="-152.5" font-family="Helvetica,sans-Serif" font-size="10.00" fill="#000000">hw2_ip_filter/src/IpFilter</text>
<text text-anchor="middle" x="334" y="-141.5" font-family="Helvetica,sans-Serif" font-size="10.00" fill="#000000">/IpStorage.cpp</text>
</a>
</g>
</g>
<!-- Node6&#45;&gt;Node7 -->
<g id="edge2" class="edge">
<title>Node6&#45;&gt;Node7</title>
<path fill="none" stroke="#191970" d="M334,-191.0249C334,-182.128 334,-172.4287 334,-164.6432"/>
<polygon fill="#191970" stroke="#191970" points="330.5001,-191.2966 334,-201.2967 337.5001,-191.2967 330.5001,-191.2966"/>
</g>
<!-- Node8 -->
<g id="node4" class="node">
<title>Node8</title>
<g id="a_node4"><a xlink:href="_ip_storage_printer_8h.html" target="_top" xlink:title="hw2_ip_filter/src/IpFilter\l/IpStoragePrinter.h">
<polygon fill="#ffffff" stroke="#000000" points="118,-134.5 118,-164.5 250,-164.5 250,-134.5 118,-134.5"/>
<text text-anchor="start" x="126" y="-152.5" font-family="Helvetica,sans-Serif" font-size="10.00" fill="#000000">hw2_ip_filter/src/IpFilter</text>
<text text-anchor="middle" x="184" y="-141.5" font-family="Helvetica,sans-Serif" font-size="10.00" fill="#000000">/IpStoragePrinter.h</text>
</a>
</g>
</g>
<!-- Node6&#45;&gt;Node8 -->
<g id="edge3" class="edge">
<title>Node6&#45;&gt;Node8</title>
<path fill="none" stroke="#191970" d="M291.0445,-197.3132C267.7911,-186.9267 239.4763,-174.2794 217.8097,-164.6017"/>
<polygon fill="#191970" stroke="#191970" points="289.7791,-200.5812 300.3371,-201.4639 292.6339,-194.1898 289.7791,-200.5812"/>
</g>
<!-- Node6&#45;&gt;Node10 -->
<g id="edge8" class="edge">
<title>Node6&#45;&gt;Node10</title>
<path fill="none" stroke="#191970" d="M257.9055,-206.4002C201.9091,-197.6417 131.7423,-183.4694 109,-165 87.9454,-147.9012 78.0291,-116.5371 73.7884,-97.7954"/>
<polygon fill="#191970" stroke="#191970" points="257.4107,-209.8651 267.8252,-207.919 258.4702,-202.9458 257.4107,-209.8651"/>
</g>
<!-- Node6&#45;&gt;Node11 -->
<g id="edge9" class="edge">
<title>Node6&#45;&gt;Node11</title>
<path fill="none" stroke="#191970" d="M374.1921,-196.0137C386.8606,-187.8605 399.9065,-177.4287 409,-165 423.9349,-144.5875 430.0462,-115.1719 432.4751,-97.5359"/>
<polygon fill="#191970" stroke="#191970" points="372.252,-193.0972 365.535,-201.2906 375.8954,-199.0743 372.252,-193.0972"/>
</g>
<!-- Node9 -->
<g id="node5" class="node">
<title>Node9</title>
<g id="a_node5"><a xlink:href="_ip_storage_printer_8cpp.html" target="_top" xlink:title="hw2_ip_filter/src/IpFilter\l/IpStoragePrinter.cpp">
<polygon fill="#ffffff" stroke="#000000" points="160,-67.5 160,-97.5 292,-97.5 292,-67.5 160,-67.5"/>
<text text-anchor="start" x="168" y="-85.5" font-family="Helvetica,sans-Serif" font-size="10.00" fill="#000000">hw2_ip_filter/src/IpFilter</text>
<text text-anchor="middle" x="226" y="-74.5" font-family="Helvetica,sans-Serif" font-size="10.00" fill="#000000">/IpStoragePrinter.cpp</text>
</a>
</g>
</g>
<!-- Node8&#45;&gt;Node9 -->
<g id="edge4" class="edge">
<title>Node8&#45;&gt;Node9</title>
<path fill="none" stroke="#191970" d="M198.8733,-125.7735C204.7396,-116.4154 211.305,-105.9421 216.5073,-97.6432"/>
<polygon fill="#191970" stroke="#191970" points="195.8763,-123.9648 193.5305,-134.2967 201.8074,-127.6828 195.8763,-123.9648"/>
</g>
<!-- Node8&#45;&gt;Node10 -->
<g id="edge5" class="edge">
<title>Node8&#45;&gt;Node10</title>
<path fill="none" stroke="#191970" d="M150.026,-129.3561C132.8962,-119.1995 112.463,-107.0843 96.6657,-97.7177"/>
<polygon fill="#191970" stroke="#191970" points="148.2538,-132.3743 158.6406,-134.4639 151.824,-126.3531 148.2538,-132.3743"/>
</g>
<!-- Node8&#45;&gt;Node11 -->
<g id="edge6" class="edge">
<title>Node8&#45;&gt;Node11</title>
<path fill="none" stroke="#191970" d="M249.9711,-131.8198C289.7074,-121.1704 339.7741,-107.7525 377.6504,-97.6017"/>
<polygon fill="#191970" stroke="#191970" points="248.858,-128.4945 240.1049,-134.4639 250.6701,-135.2559 248.858,-128.4945"/>
</g>
<!-- Node12 -->
<g id="node8" class="node">
<title>Node12</title>
<g id="a_node8"><a xlink:href="_ip_filter_tests_8cpp.html" target="_top" xlink:title="hw2_ip_filter/tests\l/IpFilterTests/IpFilterTests.cpp">
<polygon fill="#ffffff" stroke="#000000" points="409,-.5 409,-30.5 567,-30.5 567,-.5 409,-.5"/>
<text text-anchor="start" x="417" y="-18.5" font-family="Helvetica,sans-Serif" font-size="10.00" fill="#000000">hw2_ip_filter/tests</text>
<text text-anchor="middle" x="488" y="-7.5" font-family="Helvetica,sans-Serif" font-size="10.00" fill="#000000">/IpFilterTests/IpFilterTests.cpp</text>
</a>
</g>
</g>
<!-- Node11&#45;&gt;Node12 -->
<g id="edge7" class="edge">
<title>Node11&#45;&gt;Node12</title>
<path fill="none" stroke="#191970" d="M452.6575,-59.3509C460.3164,-49.8482 468.9685,-39.1132 475.7951,-30.6432"/>
<polygon fill="#191970" stroke="#191970" points="449.8036,-57.3143 446.2534,-67.2967 455.2538,-61.707 449.8036,-57.3143"/>
</g>
<!-- Node14&#45;&gt;Node12 -->
<g id="edge14" class="edge">
<title>Node14&#45;&gt;Node12</title>
<path fill="none" stroke="#191970" d="M552.0422,-124.9119C544.9469,-108.2015 534.7874,-85.8032 524,-67 516.7258,-54.3205 507.2033,-40.8046 499.7791,-30.8018"/>
<polygon fill="#191970" stroke="#191970" points="548.9614,-126.6175 556.0424,-134.4985 555.4215,-123.9219 548.9614,-126.6175"/>
</g>
</g>
</svg>
