<?xml version="1.0" encoding="UTF-8" standalone="no"?>
<!DOCTYPE svg PUBLIC "-//W3C//DTD SVG 1.1//EN"
 "http://www.w3.org/Graphics/SVG/1.1/DTD/svg11.dtd">
<!-- Generated by graphviz version 2.40.1 (20161225.0304)
 -->
<!-- Title: hw1_ip_filter/src/IpFilter/IpV4.h Pages: 1 -->
<svg width="498pt" height="263pt"
 viewBox="0.00 0.00 497.50 263.00" xmlns="http://www.w3.org/2000/svg" xmlns:xlink="http://www.w3.org/1999/xlink">
<g id="graph0" class="graph" transform="scale(1 1) rotate(0) translate(4 259)">
<title>hw1_ip_filter/src/IpFilter/IpV4.h</title>
<polygon fill="#ffffff" stroke="transparent" points="-4,4 -4,-259 493.5,-259 493.5,4 -4,4"/>
<!-- Node1 -->
<g id="node1" class="node">
<title>Node1</title>
<g id="a_node1"><a xlink:title=" ">
<polygon fill="#bfbfbf" stroke="#000000" points="310,-224.5 310,-254.5 442,-254.5 442,-224.5 310,-224.5"/>
<text text-anchor="start" x="318" y="-242.5" font-family="Helvetica,sans-Serif" font-size="10.00" fill="#000000">hw1_ip_filter/src/IpFilter</text>
<text text-anchor="middle" x="376" y="-231.5" font-family="Helvetica,sans-Serif" font-size="10.00" fill="#000000">/IpV4.h</text>
</a>
</g>
</g>
<!-- Node2 -->
<g id="node2" class="node">
<title>Node2</title>
<g id="a_node2"><a xlink:href="_ip_storage_8h.html" target="_top" xlink:title=" ">
<polygon fill="#ffffff" stroke="#000000" points="250.5,-168.5 250.5,-187.5 297.5,-187.5 297.5,-168.5 250.5,-168.5"/>
<text text-anchor="middle" x="274" y="-175.5" font-family="Helvetica,sans-Serif" font-size="10.00" fill="#000000">IpV4.h</text>
</a>
</g>
</g>
<!-- Node1&#45;&gt;Node2 -->
<g id="edge1" class="edge">
<title>Node1&#45;&gt;Node2</title>
<path fill="none" stroke="#191970" d="M342.1503,-219.0906C324.4937,-208.4447 303.7332,-195.9274 289.8064,-187.5303"/>
<polygon fill="#191970" stroke="#191970" points="340.677,-222.2892 351.048,-224.4554 344.2914,-216.2946 340.677,-222.2892"/>
</g>
<!-- Node6 -->
<g id="node6" class="node">
<title>Node6</title>
<g id="a_node6"><a xlink:href="hw1__ip__filter_2src_2_required_outputs_module_2main_8cpp.html" target="_top" xlink:title=" ">
<polygon fill="#ffffff" stroke="#000000" points="0,-56.5 0,-75.5 140,-75.5 140,-56.5 0,-56.5"/>
<text text-anchor="middle" x="70" y="-63.5" font-family="Helvetica,sans-Serif" font-size="10.00" fill="#000000">IpFilter/IpStoragePrinter.h</text>
</a>
</g>
</g>
<!-- Node1&#45;&gt;Node6 -->
<g id="edge11" class="edge">
<title>Node1&#45;&gt;Node6</title>
<path fill="none" stroke="#191970" d="M299.9811,-223.0156C242.5468,-207.4317 164.5533,-179.2308 110,-132 91.7668,-116.2142 79.3987,-89.9978 73.662,-75.8231"/>
<polygon fill="#191970" stroke="#191970" points="299.1716,-226.4218 309.7341,-225.5948 300.9613,-219.6544 299.1716,-226.4218"/>
</g>
<!-- Node7 -->
<g id="node7" class="node">
<title>Node7</title>
<g id="a_node7"><a xlink:href="_ip_storage_tests_8h.html" target="_top" xlink:title=" ">
<polygon fill="#ffffff" stroke="#000000" points="280,-56.5 280,-75.5 420,-75.5 420,-56.5 280,-56.5"/>
<text text-anchor="middle" x="350" y="-63.5" font-family="Helvetica,sans-Serif" font-size="10.00" fill="#000000">IpFilter/IpStoragePrinter.h</text>
</a>
</g>
</g>
<!-- Node1&#45;&gt;Node7 -->
<g id="edge12" class="edge">
<title>Node1&#45;&gt;Node7</title>
<path fill="none" stroke="#191970" d="M372.2373,-214.3909C366.396,-175.4121 355.4078,-102.0866 351.4593,-75.738"/>
<polygon fill="#191970" stroke="#191970" points="368.7947,-215.0357 373.7382,-224.4065 375.7174,-213.9982 368.7947,-215.0357"/>
</g>
<!-- Node9 -->
<g id="node9" class="node">
<title>Node9</title>
<g id="a_node9"><a xlink:href="_ip_v4_8cpp.html" target="_top" xlink:title=" ">
<polygon fill="#ffffff" stroke="#000000" points="442.5,-168.5 442.5,-187.5 489.5,-187.5 489.5,-168.5 442.5,-168.5"/>
<text text-anchor="middle" x="466" y="-175.5" font-family="Helvetica,sans-Serif" font-size="10.00" fill="#000000">IpV4.h</text>
</a>
</g>
</g>
<!-- Node1&#45;&gt;Node9 -->
<g id="edge10" class="edge">
<title>Node1&#45;&gt;Node9</title>
<path fill="none" stroke="#191970" d="M406.8974,-218.3868C422.1655,-207.9535 439.8432,-195.8738 451.8586,-187.6633"/>
<polygon fill="#191970" stroke="#191970" points="404.529,-215.766 398.2472,-224.2977 408.4783,-221.5456 404.529,-215.766"/>
</g>
<!-- Node10 -->
<g id="node10" class="node">
<title>Node10</title>
<g id="a_node10"><a xlink:href="_ip_v4_tests_8h.html" target="_top" xlink:title=" ">
<polygon fill="#ffffff" stroke="#000000" points="405.5,-112.5 405.5,-131.5 488.5,-131.5 488.5,-112.5 405.5,-112.5"/>
<text text-anchor="middle" x="447" y="-119.5" font-family="Helvetica,sans-Serif" font-size="10.00" fill="#000000">IpFilter/IpV4.h</text>
</a>
</g>
</g>
<!-- Node1&#45;&gt;Node10 -->
<g id="edge13" class="edge">
<title>Node1&#45;&gt;Node10</title>
<path fill="none" stroke="#191970" d="M390.6251,-215.2965C406.2653,-189.4131 430.2896,-149.6545 441.2236,-131.5595"/>
<polygon fill="#191970" stroke="#191970" points="387.4582,-213.77 385.282,-224.1389 393.4494,-217.3902 387.4582,-213.77"/>
</g>
<!-- Node3 -->
<g id="node3" class="node">
<title>Node3</title>
<g id="a_node3"><a xlink:href="_ip_storage_8cpp.html" target="_top" xlink:title=" ">
<polygon fill="#ffffff" stroke="#000000" points="238,-112.5 238,-131.5 310,-131.5 310,-112.5 238,-112.5"/>
<text text-anchor="middle" x="274" y="-119.5" font-family="Helvetica,sans-Serif" font-size="10.00" fill="#000000">IpStorage.h</text>
</a>
</g>
</g>
<!-- Node2&#45;&gt;Node3 -->
<g id="edge2" class="edge">
<title>Node2&#45;&gt;Node3</title>
<path fill="none" stroke="#191970" d="M274,-158.1575C274,-149.155 274,-138.9199 274,-131.6427"/>
<polygon fill="#191970" stroke="#191970" points="270.5001,-158.2455 274,-168.2455 277.5001,-158.2456 270.5001,-158.2455"/>
</g>
<!-- Node4 -->
<g id="node4" class="node">
<title>Node4</title>
<g id="a_node4"><a xlink:href="_ip_storage_printer_8h.html" target="_top" xlink:title=" ">
<polygon fill="#ffffff" stroke="#000000" points="148,-112.5 148,-131.5 220,-131.5 220,-112.5 148,-112.5"/>
<text text-anchor="middle" x="184" y="-119.5" font-family="Helvetica,sans-Serif" font-size="10.00" fill="#000000">IpStorage.h</text>
</a>
</g>
</g>
<!-- Node2&#45;&gt;Node4 -->
<g id="edge3" class="edge">
<title>Node2&#45;&gt;Node4</title>
<path fill="none" stroke="#191970" d="M249.5216,-162.769C233.5734,-152.8456 213.249,-140.1994 199.4972,-131.6427"/>
<polygon fill="#191970" stroke="#191970" points="247.9835,-165.9342 258.3232,-168.2455 251.6817,-159.9908 247.9835,-165.9342"/>
</g>
<!-- Node2&#45;&gt;Node6 -->
<g id="edge8" class="edge">
<title>Node2&#45;&gt;Node6</title>
<path fill="none" stroke="#191970" d="M240.3515,-170.86C211.9188,-163.8446 170.8543,-151.346 139,-132 113.4966,-116.511 89.7448,-90.174 77.8899,-75.9016"/>
<polygon fill="#191970" stroke="#191970" points="239.677,-174.297 250.2148,-173.1991 241.2923,-167.4859 239.677,-174.297"/>
</g>
<!-- Node2&#45;&gt;Node7 -->
<g id="edge9" class="edge">
<title>Node2&#45;&gt;Node7</title>
<path fill="none" stroke="#191970" d="M292.9408,-161.4069C301.6138,-153.1566 311.5865,-142.6806 319,-132 331.7045,-113.6966 341.5927,-89.3651 346.5321,-75.9453"/>
<polygon fill="#191970" stroke="#191970" points="290.4393,-158.9524 285.4518,-168.2999 295.1799,-164.1029 290.4393,-158.9524"/>
</g>
<!-- Node5 -->
<g id="node5" class="node">
<title>Node5</title>
<g id="a_node5"><a xlink:href="_ip_storage_printer_8cpp.html" target="_top" xlink:title=" ">
<polygon fill="#ffffff" stroke="#000000" points="158,-56.5 158,-75.5 262,-75.5 262,-56.5 158,-56.5"/>
<text text-anchor="middle" x="210" y="-63.5" font-family="Helvetica,sans-Serif" font-size="10.00" fill="#000000">IpStoragePrinter.h</text>
</a>
</g>
</g>
<!-- Node4&#45;&gt;Node5 -->
<g id="edge4" class="edge">
<title>Node4&#45;&gt;Node5</title>
<path fill="none" stroke="#191970" d="M192.8011,-103.0437C197.0775,-93.8331 202.033,-83.1598 205.523,-75.6427"/>
<polygon fill="#191970" stroke="#191970" points="189.5655,-101.7015 188.5289,-112.2455 195.9146,-104.6494 189.5655,-101.7015"/>
</g>
<!-- Node4&#45;&gt;Node6 -->
<g id="edge5" class="edge">
<title>Node4&#45;&gt;Node6</title>
<path fill="none" stroke="#191970" d="M155.1679,-107.8368C134.5605,-97.7139 107.3918,-84.3679 89.3416,-75.5011"/>
<polygon fill="#191970" stroke="#191970" points="153.884,-111.1056 164.4027,-112.3733 156.9703,-104.8227 153.884,-111.1056"/>
</g>
<!-- Node4&#45;&gt;Node7 -->
<g id="edge6" class="edge">
<title>Node4&#45;&gt;Node7</title>
<path fill="none" stroke="#191970" d="M222.3667,-109.057C252.7466,-98.8084 294.4819,-84.729 321.836,-75.5011"/>
<polygon fill="#191970" stroke="#191970" points="220.893,-105.8603 212.5364,-112.3733 223.1306,-112.4931 220.893,-105.8603"/>
</g>
<!-- Node8 -->
<g id="node8" class="node">
<title>Node8</title>
<g id="a_node8"><a xlink:href="_ip_filter_tests_8cpp.html" target="_top" xlink:title=" ">
<polygon fill="#ffffff" stroke="#000000" points="350.5,-.5 350.5,-19.5 447.5,-19.5 447.5,-.5 350.5,-.5"/>
<text text-anchor="middle" x="399" y="-7.5" font-family="Helvetica,sans-Serif" font-size="10.00" fill="#000000">IpStorageTests.h</text>
</a>
</g>
</g>
<!-- Node7&#45;&gt;Node8 -->
<g id="edge7" class="edge">
<title>Node7&#45;&gt;Node8</title>
<path fill="none" stroke="#191970" d="M365.3122,-48.5004C373.6447,-38.9775 383.6353,-27.5596 390.5627,-19.6427"/>
<polygon fill="#191970" stroke="#191970" points="362.4862,-46.415 358.5351,-56.2455 367.7543,-51.0245 362.4862,-46.415"/>
</g>
<!-- Node10&#45;&gt;Node8 -->
<g id="edge14" class="edge">
<title>Node10&#45;&gt;Node8</title>
<path fill="none" stroke="#191970" d="M443.3004,-102.2432C440.3862,-88.8319 435.6899,-70.8975 429,-56 422.985,-42.6056 413.3505,-28.68 406.6279,-19.7094"/>
<polygon fill="#191970" stroke="#191970" points="439.9177,-103.1732 445.3339,-112.2789 446.7782,-101.783 439.9177,-103.1732"/>
</g>
</g>
</svg>
