<?xml version="1.0" encoding="UTF-8" standalone="no"?>
<!DOCTYPE svg PUBLIC "-//W3C//DTD SVG 1.1//EN"
 "http://www.w3.org/Graphics/SVG/1.1/DTD/svg11.dtd">
<!-- Generated by graphviz version 2.40.1 (20161225.0304)
 -->
<!-- Title: hw1_ip_filter/src/IpFilter/IpStorage.h Pages: 1 -->
<svg width="428pt" height="207pt"
 viewBox="0.00 0.00 428.00 207.00" xmlns="http://www.w3.org/2000/svg" xmlns:xlink="http://www.w3.org/1999/xlink">
<g id="graph0" class="graph" transform="scale(1 1) rotate(0) translate(4 203)">
<title>hw1_ip_filter/src/IpFilter/IpStorage.h</title>
<polygon fill="#ffffff" stroke="transparent" points="-4,4 -4,-203 424,-203 424,4 -4,4"/>
<!-- Node1 -->
<g id="node1" class="node">
<title>Node1</title>
<g id="a_node1"><a xlink:title=" ">
<polygon fill="#bfbfbf" stroke="#000000" points="112,-168.5 112,-198.5 244,-198.5 244,-168.5 112,-168.5"/>
<text text-anchor="start" x="120" y="-186.5" font-family="Helvetica,sans-Serif" font-size="10.00" fill="#000000">hw1_ip_filter/src/IpFilter</text>
<text text-anchor="middle" x="178" y="-175.5" font-family="Helvetica,sans-Serif" font-size="10.00" fill="#000000">/IpStorage.h</text>
</a>
</g>
</g>
<!-- Node2 -->
<g id="node2" class="node">
<title>Node2</title>
<g id="a_node2"><a xlink:href="_ip_storage_8cpp.html" target="_top" xlink:title=" ">
<polygon fill="#ffffff" stroke="#000000" points="46,-112.5 46,-131.5 118,-131.5 118,-112.5 46,-112.5"/>
<text text-anchor="middle" x="82" y="-119.5" font-family="Helvetica,sans-Serif" font-size="10.00" fill="#000000">IpStorage.h</text>
</a>
</g>
</g>
<!-- Node1&#45;&gt;Node2 -->
<g id="edge1" class="edge">
<title>Node1&#45;&gt;Node2</title>
<path fill="none" stroke="#191970" d="M145.4987,-162.6789C129.1097,-152.1797 110.0203,-139.9505 97.0841,-131.6633"/>
<polygon fill="#191970" stroke="#191970" points="143.9613,-165.8506 154.2697,-168.2977 147.7373,-159.9563 143.9613,-165.8506"/>
</g>
<!-- Node3 -->
<g id="node3" class="node">
<title>Node3</title>
<g id="a_node3"><a xlink:href="_ip_storage_printer_8h.html" target="_top" xlink:title=" ">
<polygon fill="#ffffff" stroke="#000000" points="174,-112.5 174,-131.5 246,-131.5 246,-112.5 174,-112.5"/>
<text text-anchor="middle" x="210" y="-119.5" font-family="Helvetica,sans-Serif" font-size="10.00" fill="#000000">IpStorage.h</text>
</a>
</g>
</g>
<!-- Node1&#45;&gt;Node3 -->
<g id="edge2" class="edge">
<title>Node1&#45;&gt;Node3</title>
<path fill="none" stroke="#191970" d="M190.653,-159.1825C195.6215,-149.6337 201.0407,-139.2186 204.8764,-131.8469"/>
<polygon fill="#191970" stroke="#191970" points="187.4211,-157.8112 185.9101,-168.2977 193.6308,-161.0423 187.4211,-157.8112"/>
</g>
<!-- Node5 -->
<g id="node5" class="node">
<title>Node5</title>
<g id="a_node5"><a xlink:href="hw1__ip__filter_2src_2_required_outputs_module_2main_8cpp.html" target="_top" xlink:title=" ">
<polygon fill="#ffffff" stroke="#000000" points="0,-56.5 0,-75.5 140,-75.5 140,-56.5 0,-56.5"/>
<text text-anchor="middle" x="70" y="-63.5" font-family="Helvetica,sans-Serif" font-size="10.00" fill="#000000">IpFilter/IpStoragePrinter.h</text>
</a>
</g>
</g>
<!-- Node1&#45;&gt;Node5 -->
<g id="edge7" class="edge">
<title>Node1&#45;&gt;Node5</title>
<path fill="none" stroke="#191970" d="M163.5176,-159.9004C154.0301,-145.3406 140.8549,-126.7036 127,-112 113.7445,-97.9325 96.1351,-84.3533 84.0153,-75.642"/>
<polygon fill="#191970" stroke="#191970" points="160.5911,-161.8209 168.9214,-168.3675 166.4918,-158.055 160.5911,-161.8209"/>
</g>
<!-- Node6 -->
<g id="node6" class="node">
<title>Node6</title>
<g id="a_node6"><a xlink:href="_ip_storage_tests_8h.html" target="_top" xlink:title=" ">
<polygon fill="#ffffff" stroke="#000000" points="280,-56.5 280,-75.5 420,-75.5 420,-56.5 280,-56.5"/>
<text text-anchor="middle" x="350" y="-63.5" font-family="Helvetica,sans-Serif" font-size="10.00" fill="#000000">IpFilter/IpStoragePrinter.h</text>
</a>
</g>
</g>
<!-- Node1&#45;&gt;Node6 -->
<g id="edge8" class="edge">
<title>Node1&#45;&gt;Node6</title>
<path fill="none" stroke="#191970" d="M209.3203,-162.7333C223.3329,-153.3957 240.0339,-142.2025 255,-132 284.039,-112.2039 317.7698,-88.631 336.2079,-75.6955"/>
<polygon fill="#191970" stroke="#191970" points="207.3684,-159.828 200.9824,-168.282 211.2466,-165.6556 207.3684,-159.828"/>
</g>
<!-- Node4 -->
<g id="node4" class="node">
<title>Node4</title>
<g id="a_node4"><a xlink:href="_ip_storage_printer_8cpp.html" target="_top" xlink:title=" ">
<polygon fill="#ffffff" stroke="#000000" points="158,-56.5 158,-75.5 262,-75.5 262,-56.5 158,-56.5"/>
<text text-anchor="middle" x="210" y="-63.5" font-family="Helvetica,sans-Serif" font-size="10.00" fill="#000000">IpStoragePrinter.h</text>
</a>
</g>
</g>
<!-- Node3&#45;&gt;Node4 -->
<g id="edge3" class="edge">
<title>Node3&#45;&gt;Node4</title>
<path fill="none" stroke="#191970" d="M210,-102.1575C210,-93.155 210,-82.9199 210,-75.6427"/>
<polygon fill="#191970" stroke="#191970" points="206.5001,-102.2455 210,-112.2455 213.5001,-102.2456 206.5001,-102.2455"/>
</g>
<!-- Node3&#45;&gt;Node5 -->
<g id="edge4" class="edge">
<title>Node3&#45;&gt;Node5</title>
<path fill="none" stroke="#191970" d="M176.6351,-108.6541C151.1048,-98.4419 116.5216,-84.6086 93.7528,-75.5011"/>
<polygon fill="#191970" stroke="#191970" points="175.3485,-111.909 185.9331,-112.3733 177.9483,-105.4096 175.3485,-111.909"/>
</g>
<!-- Node3&#45;&gt;Node6 -->
<g id="edge5" class="edge">
<title>Node3&#45;&gt;Node6</title>
<path fill="none" stroke="#191970" d="M243.3649,-108.6541C268.8952,-98.4419 303.4784,-84.6086 326.2472,-75.5011"/>
<polygon fill="#191970" stroke="#191970" points="242.0517,-105.4096 234.0669,-112.3733 244.6515,-111.909 242.0517,-105.4096"/>
</g>
<!-- Node7 -->
<g id="node7" class="node">
<title>Node7</title>
<g id="a_node7"><a xlink:href="_ip_filter_tests_8cpp.html" target="_top" xlink:title=" ">
<polygon fill="#ffffff" stroke="#000000" points="301.5,-.5 301.5,-19.5 398.5,-19.5 398.5,-.5 301.5,-.5"/>
<text text-anchor="middle" x="350" y="-7.5" font-family="Helvetica,sans-Serif" font-size="10.00" fill="#000000">IpStorageTests.h</text>
</a>
</g>
</g>
<!-- Node6&#45;&gt;Node7 -->
<g id="edge6" class="edge">
<title>Node6&#45;&gt;Node7</title>
<path fill="none" stroke="#191970" d="M350,-46.1575C350,-37.155 350,-26.9199 350,-19.6427"/>
<polygon fill="#191970" stroke="#191970" points="346.5001,-46.2455 350,-56.2455 353.5001,-46.2456 346.5001,-46.2455"/>
</g>
</g>
</svg>
