<?xml version="1.0" encoding="UTF-8" standalone="no"?>
<!DOCTYPE svg PUBLIC "-//W3C//DTD SVG 1.1//EN"
 "http://www.w3.org/Graphics/SVG/1.1/DTD/svg11.dtd">
<!-- Generated by graphviz version 2.40.1 (20161225.0304)
 -->
<!-- Title: hw1_ip_filter/src/IpFilter/IpV4.h Pages: 1 -->
<svg width="399pt" height="375pt"
 viewBox="0.00 0.00 398.50 375.00" xmlns="http://www.w3.org/2000/svg" xmlns:xlink="http://www.w3.org/1999/xlink">
<g id="graph0" class="graph" transform="scale(1 1) rotate(0) translate(4 371)">
<title>hw1_ip_filter/src/IpFilter/IpV4.h</title>
<polygon fill="#ffffff" stroke="transparent" points="-4,4 -4,-371 394.5,-371 394.5,4 -4,4"/>
<!-- Node1 -->
<g id="node1" class="node">
<title>Node1</title>
<g id="a_node1"><a xlink:title=" ">
<polygon fill="#bfbfbf" stroke="#000000" points="186,-336.5 186,-366.5 318,-366.5 318,-336.5 186,-336.5"/>
<text text-anchor="start" x="194" y="-354.5" font-family="Helvetica,sans-Serif" font-size="10.00" fill="#000000">hw1_ip_filter/src/IpFilter</text>
<text text-anchor="middle" x="252" y="-343.5" font-family="Helvetica,sans-Serif" font-size="10.00" fill="#000000">/IpV4.h</text>
</a>
</g>
</g>
<!-- Node2 -->
<g id="node2" class="node">
<title>Node2</title>
<g id="a_node2"><a xlink:href="_restrictions_8h.html" target="_top" xlink:title=" ">
<polygon fill="#ffffff" stroke="#000000" points="174.5,-280.5 174.5,-299.5 221.5,-299.5 221.5,-280.5 174.5,-280.5"/>
<text text-anchor="middle" x="198" y="-287.5" font-family="Helvetica,sans-Serif" font-size="10.00" fill="#000000">IpV4.h</text>
</a>
</g>
</g>
<!-- Node1&#45;&gt;Node2 -->
<g id="edge1" class="edge">
<title>Node1&#45;&gt;Node2</title>
<path fill="none" stroke="#191970" d="M231.9515,-328.6669C223.2236,-318.7269 213.4559,-307.6026 206.6461,-299.8469"/>
<polygon fill="#191970" stroke="#191970" points="229.4236,-331.0926 238.6517,-336.2977 234.6837,-326.474 229.4236,-331.0926"/>
</g>
<!-- Node6 -->
<g id="node6" class="node">
<title>Node6</title>
<g id="a_node6"><a xlink:href="hw1__ip__filter_2src_2_ip_filter_example_2main_8cpp.html" target="_top" xlink:title=" ">
<polygon fill="#ffffff" stroke="#000000" points="23,-56.5 23,-75.5 163,-75.5 163,-56.5 23,-56.5"/>
<text text-anchor="middle" x="93" y="-63.5" font-family="Helvetica,sans-Serif" font-size="10.00" fill="#000000">IpFilter/IpStoragePrinter.h</text>
</a>
</g>
</g>
<!-- Node1&#45;&gt;Node6 -->
<g id="edge12" class="edge">
<title>Node1&#45;&gt;Node6</title>
<path fill="none" stroke="#191970" d="M182.7662,-333.6601C108.1655,-312.3536 0,-274.4809 0,-234 0,-234 0,-234 0,-178 0,-130.7376 49.6234,-92.7612 76.3735,-75.7229"/>
<polygon fill="#191970" stroke="#191970" points="182.0243,-337.0872 192.5986,-336.4285 183.9215,-330.3492 182.0243,-337.0872"/>
</g>
<!-- Node7 -->
<g id="node7" class="node">
<title>Node7</title>
<g id="a_node7"><a xlink:href="_ip_storage_tests_8h.html" target="_top" xlink:title=" ">
<polygon fill="#ffffff" stroke="#000000" points="181,-56.5 181,-75.5 321,-75.5 321,-56.5 181,-56.5"/>
<text text-anchor="middle" x="251" y="-63.5" font-family="Helvetica,sans-Serif" font-size="10.00" fill="#000000">IpFilter/IpStoragePrinter.h</text>
</a>
</g>
</g>
<!-- Node1&#45;&gt;Node7 -->
<g id="edge13" class="edge">
<title>Node1&#45;&gt;Node7</title>
<path fill="none" stroke="#191970" d="M261.1521,-326.6333C268.9834,-303.1071 279,-266.6367 279,-234 279,-234 279,-234 279,-178 279,-139.1168 262.9202,-94.8466 255.1315,-75.6839"/>
<polygon fill="#191970" stroke="#191970" points="257.8138,-325.5782 257.8586,-336.1729 264.4305,-327.8627 257.8138,-325.5782"/>
</g>
<!-- Node10 -->
<g id="node10" class="node">
<title>Node10</title>
<g id="a_node10"><a xlink:href="_ip_v4_tests_8h.html" target="_top" xlink:title=" ">
<polygon fill="#ffffff" stroke="#000000" points="307.5,-168.5 307.5,-187.5 390.5,-187.5 390.5,-168.5 307.5,-168.5"/>
<text text-anchor="middle" x="349" y="-175.5" font-family="Helvetica,sans-Serif" font-size="10.00" fill="#000000">IpFilter/IpV4.h</text>
</a>
</g>
</g>
<!-- Node1&#45;&gt;Node10 -->
<g id="edge14" class="edge">
<title>Node1&#45;&gt;Node10</title>
<path fill="none" stroke="#191970" d="M272.1258,-328.6765C279.2133,-320.0318 286.9208,-309.8855 293,-300 317.2942,-260.4947 337.6573,-208.6877 345.5208,-187.5759"/>
<polygon fill="#191970" stroke="#191970" points="269.3493,-326.5401 265.594,-336.4471 274.7077,-331.0443 269.3493,-326.5401"/>
</g>
<!-- Node3 -->
<g id="node3" class="node">
<title>Node3</title>
<g id="a_node3"><a xlink:href="_ip_functions_8h.html" target="_top" xlink:title=" ">
<polygon fill="#ffffff" stroke="#000000" points="28.5,-224.5 28.5,-243.5 111.5,-243.5 111.5,-224.5 28.5,-224.5"/>
<text text-anchor="middle" x="70" y="-231.5" font-family="Helvetica,sans-Serif" font-size="10.00" fill="#000000">Restrictions.h</text>
</a>
</g>
</g>
<!-- Node2&#45;&gt;Node3 -->
<g id="edge2" class="edge">
<title>Node2&#45;&gt;Node3</title>
<path fill="none" stroke="#191970" d="M166.5652,-276.2473C143.3191,-266.0771 112.2589,-252.4883 91.7169,-243.5011"/>
<polygon fill="#191970" stroke="#191970" points="165.4315,-279.5716 175.996,-280.3733 168.2373,-273.1585 165.4315,-279.5716"/>
</g>
<!-- Node4 -->
<g id="node4" class="node">
<title>Node4</title>
<g id="a_node4"><a xlink:href="_ip_storage_8h.html" target="_top" xlink:title=" ">
<polygon fill="#ffffff" stroke="#000000" points="130,-168.5 130,-187.5 210,-187.5 210,-168.5 130,-168.5"/>
<text text-anchor="middle" x="170" y="-175.5" font-family="Helvetica,sans-Serif" font-size="10.00" fill="#000000">IpFunctions.h</text>
</a>
</g>
</g>
<!-- Node2&#45;&gt;Node4 -->
<g id="edge10" class="edge">
<title>Node2&#45;&gt;Node4</title>
<path fill="none" stroke="#191970" d="M211.6091,-272.0416C220.0479,-258.5905 228.0508,-239.8547 221,-224 214.023,-208.3113 198.7584,-195.7177 186.7373,-187.7012"/>
<polygon fill="#191970" stroke="#191970" points="208.641,-270.1813 205.8768,-280.4092 214.4159,-274.1375 208.641,-270.1813"/>
</g>
<!-- Node9 -->
<g id="node9" class="node">
<title>Node9</title>
<g id="a_node9"><a xlink:href="_restrictions_8cpp.html" target="_top" xlink:title=" ">
<polygon fill="#ffffff" stroke="#000000" points="129.5,-224.5 129.5,-243.5 212.5,-243.5 212.5,-224.5 129.5,-224.5"/>
<text text-anchor="middle" x="171" y="-231.5" font-family="Helvetica,sans-Serif" font-size="10.00" fill="#000000">Restrictions.h</text>
</a>
</g>
</g>
<!-- Node2&#45;&gt;Node9 -->
<g id="edge11" class="edge">
<title>Node2&#45;&gt;Node9</title>
<path fill="none" stroke="#191970" d="M188.8604,-271.0437C184.4195,-261.8331 179.2735,-251.1598 175.6491,-243.6427"/>
<polygon fill="#191970" stroke="#191970" points="185.8012,-272.7579 193.297,-280.2455 192.1066,-269.7178 185.8012,-272.7579"/>
</g>
<!-- Node3&#45;&gt;Node4 -->
<g id="edge3" class="edge">
<title>Node3&#45;&gt;Node4</title>
<path fill="none" stroke="#191970" d="M96.2098,-219.3225C114.0717,-209.3198 137.2155,-196.3593 152.7809,-187.6427"/>
<polygon fill="#191970" stroke="#191970" points="94.4336,-216.3057 87.4187,-224.2455 97.8539,-222.4132 94.4336,-216.3057"/>
</g>
<!-- Node5 -->
<g id="node5" class="node">
<title>Node5</title>
<g id="a_node5"><a xlink:href="_ip_storage_printer_8h.html" target="_top" xlink:title=" ">
<polygon fill="#ffffff" stroke="#000000" points="134,-112.5 134,-131.5 206,-131.5 206,-112.5 134,-112.5"/>
<text text-anchor="middle" x="170" y="-119.5" font-family="Helvetica,sans-Serif" font-size="10.00" fill="#000000">IpStorage.h</text>
</a>
</g>
</g>
<!-- Node4&#45;&gt;Node5 -->
<g id="edge4" class="edge">
<title>Node4&#45;&gt;Node5</title>
<path fill="none" stroke="#191970" d="M170,-158.1575C170,-149.155 170,-138.9199 170,-131.6427"/>
<polygon fill="#191970" stroke="#191970" points="166.5001,-158.2455 170,-168.2455 173.5001,-158.2456 166.5001,-158.2455"/>
</g>
<!-- Node4&#45;&gt;Node6 -->
<g id="edge8" class="edge">
<title>Node4&#45;&gt;Node6</title>
<path fill="none" stroke="#191970" d="M151.1179,-161.3659C142.4579,-153.1065 132.4793,-142.6347 125,-132 112.1071,-113.6677 101.8169,-89.347 96.6447,-75.9368"/>
<polygon fill="#191970" stroke="#191970" points="148.8706,-164.0548 158.5907,-168.2702 153.6209,-158.9133 148.8706,-164.0548"/>
</g>
<!-- Node4&#45;&gt;Node7 -->
<g id="edge9" class="edge">
<title>Node4&#45;&gt;Node7</title>
<path fill="none" stroke="#191970" d="M188.3177,-161.5297C197.0031,-153.183 207.1665,-142.5901 215,-132 228.6609,-113.5318 240.5537,-89.2621 246.6526,-75.897"/>
<polygon fill="#191970" stroke="#191970" points="185.7787,-159.112 180.866,-168.499 190.5603,-164.2245 185.7787,-159.112"/>
</g>
<!-- Node5&#45;&gt;Node6 -->
<g id="edge5" class="edge">
<title>Node5&#45;&gt;Node6</title>
<path fill="none" stroke="#191970" d="M148.2884,-106.2097C134.7647,-96.3743 117.8042,-84.0394 106.2587,-75.6427"/>
<polygon fill="#191970" stroke="#191970" points="146.4416,-109.1944 156.5876,-112.2455 150.5589,-103.5332 146.4416,-109.1944"/>
</g>
<!-- Node5&#45;&gt;Node7 -->
<g id="edge6" class="edge">
<title>Node5&#45;&gt;Node7</title>
<path fill="none" stroke="#191970" d="M192.434,-106.49C206.7254,-96.6096 224.7916,-84.1194 237.0526,-75.6427"/>
<polygon fill="#191970" stroke="#191970" points="190.3443,-103.6797 184.1091,-112.2455 194.3251,-109.4376 190.3443,-103.6797"/>
</g>
<!-- Node8 -->
<g id="node8" class="node">
<title>Node8</title>
<g id="a_node8"><a xlink:href="_ip_filter_tests_8cpp.html" target="_top" xlink:title=" ">
<polygon fill="#ffffff" stroke="#000000" points="251.5,-.5 251.5,-19.5 348.5,-19.5 348.5,-.5 251.5,-.5"/>
<text text-anchor="middle" x="300" y="-7.5" font-family="Helvetica,sans-Serif" font-size="10.00" fill="#000000">IpStorageTests.h</text>
</a>
</g>
</g>
<!-- Node7&#45;&gt;Node8 -->
<g id="edge7" class="edge">
<title>Node7&#45;&gt;Node8</title>
<path fill="none" stroke="#191970" d="M266.3122,-48.5004C274.6447,-38.9775 284.6353,-27.5596 291.5627,-19.6427"/>
<polygon fill="#191970" stroke="#191970" points="263.4862,-46.415 259.5351,-56.2455 268.7543,-51.0245 263.4862,-46.415"/>
</g>
<!-- Node10&#45;&gt;Node8 -->
<g id="edge15" class="edge">
<title>Node10&#45;&gt;Node8</title>
<path fill="none" stroke="#191970" d="M348.4652,-158.2443C347.2309,-133.5601 343.186,-90.3836 330,-56 324.7425,-42.2906 314.9541,-28.4289 307.9886,-19.5594"/>
<polygon fill="#191970" stroke="#191970" points="344.977,-158.6168 348.8653,-168.4723 351.9717,-158.3431 344.977,-158.6168"/>
</g>
</g>
</svg>
