<?xml version="1.0" encoding="UTF-8" standalone="no"?>
<!DOCTYPE svg PUBLIC "-//W3C//DTD SVG 1.1//EN"
 "http://www.w3.org/Graphics/SVG/1.1/DTD/svg11.dtd">
<!-- Generated by graphviz version 2.40.1 (20161225.0304)
 -->
<!-- Title: hw1_ip_filter/src/IpFilter/IpStoragePrinter.h Pages: 1 -->
<svg width="729pt" height="442pt"
 viewBox="0.00 0.00 728.50 442.00" xmlns="http://www.w3.org/2000/svg" xmlns:xlink="http://www.w3.org/1999/xlink">
<g id="graph0" class="graph" transform="scale(1 1) rotate(0) translate(4 438)">
<title>hw1_ip_filter/src/IpFilter/IpStoragePrinter.h</title>
<polygon fill="#ffffff" stroke="transparent" points="-4,4 -4,-438 724.5,-438 724.5,4 -4,4"/>
<!-- Node1 -->
<g id="node1" class="node">
<title>Node1</title>
<g id="a_node1"><a xlink:title=" ">
<polygon fill="#bfbfbf" stroke="#000000" points="550,-403.5 550,-433.5 682,-433.5 682,-403.5 550,-403.5"/>
<text text-anchor="start" x="558" y="-421.5" font-family="Helvetica,sans-Serif" font-size="10.00" fill="#000000">hw1_ip_filter/src/IpFilter</text>
<text text-anchor="middle" x="616" y="-410.5" font-family="Helvetica,sans-Serif" font-size="10.00" fill="#000000">/IpStoragePrinter.h</text>
</a>
</g>
</g>
<!-- Node2 -->
<g id="node2" class="node">
<title>Node2</title>
<g id="a_node2"><a xlink:href="_ip_storage_8h.html" target="_top" xlink:title=" ">
<polygon fill="#ffffff" stroke="#000000" points="474,-347.5 474,-366.5 546,-366.5 546,-347.5 474,-347.5"/>
<text text-anchor="middle" x="510" y="-354.5" font-family="Helvetica,sans-Serif" font-size="10.00" fill="#000000">IpStorage.h</text>
</a>
</g>
</g>
<!-- Node1&#45;&gt;Node2 -->
<g id="edge1" class="edge">
<title>Node1&#45;&gt;Node2</title>
<path fill="none" stroke="#191970" d="M590.0695,-403.4554C573.4691,-393.8241 552.0256,-381.3828 535.5083,-371.7996"/>
<polygon fill="#191970" stroke="#191970" points="536.8323,-368.5214 526.4262,-366.5303 533.3194,-374.5761 536.8323,-368.5214"/>
</g>
<!-- Node21 -->
<g id="node21" class="node">
<title>Node21</title>
<g id="a_node21"><a xlink:title=" ">
<polygon fill="#ffffff" stroke="#bfbfbf" points="576.5,-291.5 576.5,-310.5 617.5,-310.5 617.5,-291.5 576.5,-291.5"/>
<text text-anchor="middle" x="597" y="-298.5" font-family="Helvetica,sans-Serif" font-size="10.00" fill="#000000">tuple</text>
</a>
</g>
</g>
<!-- Node1&#45;&gt;Node21 -->
<g id="edge30" class="edge">
<title>Node1&#45;&gt;Node21</title>
<path fill="none" stroke="#191970" d="M613.5161,-403.1389C610.0929,-381.9692 603.9237,-343.8174 600.1712,-320.6112"/>
<polygon fill="#191970" stroke="#191970" points="603.5973,-319.8725 598.5458,-310.5595 596.687,-320.99 603.5973,-319.8725"/>
</g>
<!-- Node22 -->
<g id="node22" class="node">
<title>Node22</title>
<g id="a_node22"><a xlink:title=" ">
<polygon fill="#ffffff" stroke="#bfbfbf" points="636,-291.5 636,-310.5 700,-310.5 700,-291.5 636,-291.5"/>
<text text-anchor="middle" x="668" y="-298.5" font-family="Helvetica,sans-Serif" font-size="10.00" fill="#000000">algorithm</text>
</a>
</g>
</g>
<!-- Node1&#45;&gt;Node22 -->
<g id="edge31" class="edge">
<title>Node1&#45;&gt;Node22</title>
<path fill="none" stroke="#191970" d="M622.7981,-403.1389C632.252,-381.7768 649.3586,-343.1224 659.5995,-319.982"/>
<polygon fill="#191970" stroke="#191970" points="662.923,-321.1205 663.7694,-310.5595 656.5218,-318.2876 662.923,-321.1205"/>
</g>
<!-- Node23 -->
<g id="node23" class="node">
<title>Node23</title>
<g id="a_node23"><a xlink:title=" ">
<polygon fill="#ffffff" stroke="#bfbfbf" points="663.5,-347.5 663.5,-366.5 720.5,-366.5 720.5,-347.5 663.5,-347.5"/>
<text text-anchor="middle" x="692" y="-354.5" font-family="Helvetica,sans-Serif" font-size="10.00" fill="#000000">ostream</text>
</a>
</g>
</g>
<!-- Node1&#45;&gt;Node23 -->
<g id="edge29" class="edge">
<title>Node1&#45;&gt;Node23</title>
<path fill="none" stroke="#191970" d="M634.7865,-403.2977C646.1053,-394.1384 660.5105,-382.4816 672.0346,-373.1562"/>
<polygon fill="#191970" stroke="#191970" points="674.2595,-375.8583 679.8314,-366.8469 669.8561,-370.4167 674.2595,-375.8583"/>
</g>
<!-- Node3 -->
<g id="node3" class="node">
<title>Node3</title>
<g id="a_node3"><a xlink:href="_ip_functions_8h.html" target="_top" xlink:title=" ">
<polygon fill="#ffffff" stroke="#000000" points="280,-291.5 280,-310.5 360,-310.5 360,-291.5 280,-291.5"/>
<text text-anchor="middle" x="320" y="-298.5" font-family="Helvetica,sans-Serif" font-size="10.00" fill="#000000">IpFunctions.h</text>
</a>
</g>
</g>
<!-- Node2&#45;&gt;Node3 -->
<g id="edge2" class="edge">
<title>Node2&#45;&gt;Node3</title>
<path fill="none" stroke="#191970" d="M477.3378,-347.3733C445.4702,-337.9807 396.8469,-323.6496 362.093,-313.4064"/>
<polygon fill="#191970" stroke="#191970" points="362.8175,-309.9711 352.236,-310.5011 360.8385,-316.6855 362.8175,-309.9711"/>
</g>
<!-- Node4 -->
<g id="node4" class="node">
<title>Node4</title>
<g id="a_node4"><a xlink:href="_restrictions_8h.html" target="_top" xlink:title=" ">
<polygon fill="#ffffff" stroke="#000000" points="420.5,-230 420.5,-249 503.5,-249 503.5,-230 420.5,-230"/>
<text text-anchor="middle" x="462" y="-237" font-family="Helvetica,sans-Serif" font-size="10.00" fill="#000000">Restrictions.h</text>
</a>
</g>
</g>
<!-- Node2&#45;&gt;Node4 -->
<g id="edge22" class="edge">
<title>Node2&#45;&gt;Node4</title>
<path fill="none" stroke="#191970" d="M507.7433,-347.3879C504.5346,-334.3457 498.1304,-310.4406 490,-291 485.2292,-279.5924 478.6798,-267.4125 473.1147,-257.763"/>
<polygon fill="#191970" stroke="#191970" points="476.0827,-255.9057 467.9801,-249.0793 470.0572,-259.4686 476.0827,-255.9057"/>
</g>
<!-- Node8 -->
<g id="node8" class="node">
<title>Node8</title>
<g id="a_node8"><a xlink:href="_type_traits_8h.html" target="_top" xlink:title=" ">
<polygon fill="#ffffff" stroke="#000000" points="454,-56.5 454,-75.5 580,-75.5 580,-56.5 454,-56.5"/>
<text text-anchor="middle" x="517" y="-63.5" font-family="Helvetica,sans-Serif" font-size="10.00" fill="#000000">TypeTraits/TypeTraits.h</text>
</a>
</g>
</g>
<!-- Node2&#45;&gt;Node8 -->
<g id="edge24" class="edge">
<title>Node2&#45;&gt;Node8</title>
<path fill="none" stroke="#191970" d="M515.4445,-347.2863C525.9518,-327.599 548,-281.3072 548,-239.5 548,-239.5 548,-239.5 548,-178 548,-144.3636 534.8523,-107.0368 525.6816,-85.0922"/>
<polygon fill="#191970" stroke="#191970" points="528.7693,-83.4156 521.5742,-75.6387 522.3491,-86.2051 528.7693,-83.4156"/>
</g>
<!-- Node17 -->
<g id="node17" class="node">
<title>Node17</title>
<g id="a_node17"><a xlink:href="_operation_result_8h.html" target="_top" xlink:title=" ">
<polygon fill="#ffffff" stroke="#000000" points="0,-224.5 0,-254.5 146,-254.5 146,-224.5 0,-224.5"/>
<text text-anchor="start" x="8" y="-242.5" font-family="Helvetica,sans-Serif" font-size="10.00" fill="#000000">OperationResult/Operation</text>
<text text-anchor="middle" x="73" y="-231.5" font-family="Helvetica,sans-Serif" font-size="10.00" fill="#000000">Result.h</text>
</a>
</g>
</g>
<!-- Node2&#45;&gt;Node17 -->
<g id="edge23" class="edge">
<title>Node2&#45;&gt;Node17</title>
<path fill="none" stroke="#191970" d="M473.9653,-351.8647C426.8271,-344.7388 341.8918,-330.4933 271,-311 217.772,-296.3637 158.4263,-274.1078 118.7122,-258.3191"/>
<polygon fill="#191970" stroke="#191970" points="119.888,-255.0198 109.3034,-254.5535 117.2869,-261.5187 119.888,-255.0198"/>
</g>
<!-- Node19 -->
<g id="node19" class="node">
<title>Node19</title>
<g id="a_node19"><a xlink:title=" ">
<polygon fill="#ffffff" stroke="#bfbfbf" points="378,-291.5 378,-310.5 410,-310.5 410,-291.5 378,-291.5"/>
<text text-anchor="middle" x="394" y="-298.5" font-family="Helvetica,sans-Serif" font-size="10.00" fill="#000000">set</text>
</a>
</g>
</g>
<!-- Node2&#45;&gt;Node19 -->
<g id="edge25" class="edge">
<title>Node2&#45;&gt;Node19</title>
<path fill="none" stroke="#191970" d="M490.0589,-347.3733C470.5102,-337.936 440.6342,-323.5131 419.3965,-313.2604"/>
<polygon fill="#191970" stroke="#191970" points="420.8417,-310.0716 410.3146,-308.876 417.7984,-316.3755 420.8417,-310.0716"/>
</g>
<!-- Node20 -->
<g id="node20" class="node">
<title>Node20</title>
<g id="a_node20"><a xlink:title=" ">
<polygon fill="#ffffff" stroke="#bfbfbf" points="428.5,-291.5 428.5,-310.5 481.5,-310.5 481.5,-291.5 428.5,-291.5"/>
<text text-anchor="middle" x="455" y="-298.5" font-family="Helvetica,sans-Serif" font-size="10.00" fill="#000000">iterator</text>
</a>
</g>
</g>
<!-- Node2&#45;&gt;Node20 -->
<g id="edge26" class="edge">
<title>Node2&#45;&gt;Node20</title>
<path fill="none" stroke="#191970" d="M500.4197,-347.2455C492.4542,-339.1352 480.9359,-327.4075 471.4921,-317.7919"/>
<polygon fill="#191970" stroke="#191970" points="473.9747,-315.3247 464.4705,-310.6427 468.9805,-320.2297 473.9747,-315.3247"/>
</g>
<!-- Node2&#45;&gt;Node21 -->
<g id="edge27" class="edge">
<title>Node2&#45;&gt;Node21</title>
<path fill="none" stroke="#191970" d="M525.1542,-347.2455C538.5027,-338.6534 558.1586,-326.0014 573.5383,-316.1018"/>
<polygon fill="#191970" stroke="#191970" points="575.5051,-318.9982 582.0194,-310.6427 571.7164,-313.1121 575.5051,-318.9982"/>
</g>
<!-- Node2&#45;&gt;Node22 -->
<g id="edge28" class="edge">
<title>Node2&#45;&gt;Node22</title>
<path fill="none" stroke="#191970" d="M537.1612,-347.3733C563.2067,-338.1419 602.7116,-324.1402 631.4979,-313.9375"/>
<polygon fill="#191970" stroke="#191970" points="632.937,-317.1408 641.1933,-310.5011 630.5985,-310.5429 632.937,-317.1408"/>
</g>
<!-- Node3&#45;&gt;Node4 -->
<g id="edge3" class="edge">
<title>Node3&#45;&gt;Node4</title>
<path fill="none" stroke="#191970" d="M342.1875,-291.3906C365.9467,-281.1005 403.8405,-264.6888 430.6425,-253.0809"/>
<polygon fill="#191970" stroke="#191970" points="432.183,-256.2279 439.9683,-249.0419 429.4009,-249.8045 432.183,-256.2279"/>
</g>
<!-- Node7 -->
<g id="node7" class="node">
<title>Node7</title>
<g id="a_node7"><a xlink:href="_generic_ip_8h.html" target="_top" xlink:title=" ">
<polygon fill="#ffffff" stroke="#000000" points="310,-112.5 310,-131.5 382,-131.5 382,-112.5 310,-112.5"/>
<text text-anchor="middle" x="346" y="-119.5" font-family="Helvetica,sans-Serif" font-size="10.00" fill="#000000">GenericIp.h</text>
</a>
</g>
</g>
<!-- Node3&#45;&gt;Node7 -->
<g id="edge13" class="edge">
<title>Node3&#45;&gt;Node7</title>
<path fill="none" stroke="#191970" d="M326.1633,-291.221C331.4766,-282.2035 338.7848,-268.2482 342,-255 351.5391,-215.694 349.9009,-167.9394 347.9125,-141.6796"/>
<polygon fill="#191970" stroke="#191970" points="351.3839,-141.195 347.0418,-131.5308 344.4095,-141.7934 351.3839,-141.195"/>
</g>
<!-- Node14 -->
<g id="node14" class="node">
<title>Node14</title>
<g id="a_node14"><a xlink:href="_string_functions_8h.html" target="_top" xlink:title=" ">
<polygon fill="#ffffff" stroke="#000000" points="164.5,-230 164.5,-249 333.5,-249 333.5,-230 164.5,-230"/>
<text text-anchor="middle" x="249" y="-237" font-family="Helvetica,sans-Serif" font-size="10.00" fill="#000000">StringAddOns/StringFunctions.h</text>
</a>
</g>
</g>
<!-- Node3&#45;&gt;Node14 -->
<g id="edge14" class="edge">
<title>Node3&#45;&gt;Node14</title>
<path fill="none" stroke="#191970" d="M308.9063,-291.3906C298.0285,-281.9683 281.2252,-267.4134 268.18,-256.1137"/>
<polygon fill="#191970" stroke="#191970" points="270.1004,-253.1466 260.2502,-249.2449 265.5173,-258.4377 270.1004,-253.1466"/>
</g>
<!-- Node3&#45;&gt;Node17 -->
<g id="edge17" class="edge">
<title>Node3&#45;&gt;Node17</title>
<path fill="none" stroke="#191970" d="M281.6773,-291.4581C244.8923,-282.2991 188.4506,-268.2458 143.5378,-257.0631"/>
<polygon fill="#191970" stroke="#191970" points="144.1083,-253.5983 133.5589,-254.5784 142.4169,-260.3909 144.1083,-253.5983"/>
</g>
<!-- Node5 -->
<g id="node5" class="node">
<title>Node5</title>
<g id="a_node5"><a xlink:href="_boundaries_8h.html" target="_top" xlink:title=" ">
<polygon fill="#ffffff" stroke="#000000" points="440,-168.5 440,-187.5 520,-187.5 520,-168.5 440,-168.5"/>
<text text-anchor="middle" x="480" y="-175.5" font-family="Helvetica,sans-Serif" font-size="10.00" fill="#000000">Boundaries.h</text>
</a>
</g>
</g>
<!-- Node4&#45;&gt;Node5 -->
<g id="edge4" class="edge">
<title>Node4&#45;&gt;Node5</title>
<path fill="none" stroke="#191970" d="M464.8125,-229.8906C467.3339,-221.276 471.111,-208.3708 474.2676,-197.5858"/>
<polygon fill="#191970" stroke="#191970" points="477.6979,-198.3254 477.1478,-187.7449 470.9797,-196.3591 477.6979,-198.3254"/>
</g>
<!-- Node6 -->
<g id="node6" class="node">
<title>Node6</title>
<g id="a_node6"><a xlink:href="_ip_v4_8h.html" target="_top" xlink:title=" ">
<polygon fill="#ffffff" stroke="#000000" points="374.5,-168.5 374.5,-187.5 421.5,-187.5 421.5,-168.5 374.5,-168.5"/>
<text text-anchor="middle" x="398" y="-175.5" font-family="Helvetica,sans-Serif" font-size="10.00" fill="#000000">IpV4.h</text>
</a>
</g>
</g>
<!-- Node4&#45;&gt;Node6 -->
<g id="edge5" class="edge">
<title>Node4&#45;&gt;Node6</title>
<path fill="none" stroke="#191970" d="M452,-229.8906C442.2881,-220.5581 427.3361,-206.1902 415.6259,-194.9374"/>
<polygon fill="#191970" stroke="#191970" points="417.7766,-192.15 408.141,-187.7449 412.9264,-197.1974 417.7766,-192.15"/>
</g>
<!-- Node6&#45;&gt;Node7 -->
<g id="edge6" class="edge">
<title>Node6&#45;&gt;Node7</title>
<path fill="none" stroke="#191970" d="M388.9423,-168.2455C381.4858,-160.2155 370.7366,-148.6394 361.8583,-139.0781"/>
<polygon fill="#191970" stroke="#191970" points="364.3232,-136.589 354.9539,-131.6427 359.1937,-141.3522 364.3232,-136.589"/>
</g>
<!-- Node7&#45;&gt;Node8 -->
<g id="edge7" class="edge">
<title>Node7&#45;&gt;Node8</title>
<path fill="none" stroke="#191970" d="M375.3959,-112.3733C403.8307,-103.0613 447.0877,-88.8953 478.3081,-78.671"/>
<polygon fill="#191970" stroke="#191970" points="479.5736,-81.9396 487.9876,-75.5011 477.395,-75.2872 479.5736,-81.9396"/>
</g>
<!-- Node10 -->
<g id="node10" class="node">
<title>Node10</title>
<g id="a_node10"><a xlink:title=" ">
<polygon fill="#ffffff" stroke="#bfbfbf" points="292,-56.5 292,-75.5 334,-75.5 334,-56.5 292,-56.5"/>
<text text-anchor="middle" x="313" y="-63.5" font-family="Helvetica,sans-Serif" font-size="10.00" fill="#000000">array</text>
</a>
</g>
</g>
<!-- Node7&#45;&gt;Node10 -->
<g id="edge9" class="edge">
<title>Node7&#45;&gt;Node10</title>
<path fill="none" stroke="#191970" d="M340.2518,-112.2455C335.7565,-104.617 329.3752,-93.7881 323.9175,-84.5267"/>
<polygon fill="#191970" stroke="#191970" points="326.7747,-82.4811 318.6823,-75.6427 320.7439,-86.035 326.7747,-82.4811"/>
</g>
<!-- Node11 -->
<g id="node11" class="node">
<title>Node11</title>
<g id="a_node11"><a xlink:title=" ">
<polygon fill="#ffffff" stroke="#bfbfbf" points="136,-56.5 136,-75.5 196,-75.5 196,-56.5 136,-56.5"/>
<text text-anchor="middle" x="166" y="-63.5" font-family="Helvetica,sans-Serif" font-size="10.00" fill="#000000">iostream</text>
</a>
</g>
</g>
<!-- Node7&#45;&gt;Node11 -->
<g id="edge10" class="edge">
<title>Node7&#45;&gt;Node11</title>
<path fill="none" stroke="#191970" d="M315.0569,-112.3733C284.905,-102.9927 238.9197,-88.6861 206.0035,-78.4455"/>
<polygon fill="#191970" stroke="#191970" points="206.8281,-75.0366 196.2397,-75.4079 204.7485,-81.7206 206.8281,-75.0366"/>
</g>
<!-- Node12 -->
<g id="node12" class="node">
<title>Node12</title>
<g id="a_node12"><a xlink:title=" ">
<polygon fill="#ffffff" stroke="#bfbfbf" points="52.5,-56.5 52.5,-75.5 97.5,-75.5 97.5,-56.5 52.5,-56.5"/>
<text text-anchor="middle" x="75" y="-63.5" font-family="Helvetica,sans-Serif" font-size="10.00" fill="#000000">utility</text>
</a>
</g>
</g>
<!-- Node7&#45;&gt;Node12 -->
<g id="edge11" class="edge">
<title>Node7&#45;&gt;Node12</title>
<path fill="none" stroke="#191970" d="M309.7329,-114.5057C256.5695,-103.5199 158.2915,-83.2115 107.4126,-72.6978"/>
<polygon fill="#191970" stroke="#191970" points="108.1034,-69.2667 97.602,-70.6705 106.6868,-76.1219 108.1034,-69.2667"/>
</g>
<!-- Node13 -->
<g id="node13" class="node">
<title>Node13</title>
<g id="a_node13"><a xlink:title=" ">
<polygon fill="#ffffff" stroke="#bfbfbf" points="352,-56.5 352,-75.5 404,-75.5 404,-56.5 352,-56.5"/>
<text text-anchor="middle" x="378" y="-63.5" font-family="Helvetica,sans-Serif" font-size="10.00" fill="#000000">cassert</text>
</a>
</g>
</g>
<!-- Node7&#45;&gt;Node13 -->
<g id="edge12" class="edge">
<title>Node7&#45;&gt;Node13</title>
<path fill="none" stroke="#191970" d="M351.574,-112.2455C355.9331,-104.617 362.1211,-93.7881 367.4133,-84.5267"/>
<polygon fill="#191970" stroke="#191970" points="370.5673,-86.0616 372.4899,-75.6427 364.4896,-82.5886 370.5673,-86.0616"/>
</g>
<!-- Node9 -->
<g id="node9" class="node">
<title>Node9</title>
<g id="a_node9"><a xlink:title=" ">
<polygon fill="#ffffff" stroke="#bfbfbf" points="482.5,-.5 482.5,-19.5 551.5,-19.5 551.5,-.5 482.5,-.5"/>
<text text-anchor="middle" x="517" y="-7.5" font-family="Helvetica,sans-Serif" font-size="10.00" fill="#000000">type_traits</text>
</a>
</g>
</g>
<!-- Node8&#45;&gt;Node9 -->
<g id="edge8" class="edge">
<title>Node8&#45;&gt;Node9</title>
<path fill="none" stroke="#191970" d="M517,-56.2455C517,-48.9382 517,-38.6944 517,-29.7046"/>
<polygon fill="#191970" stroke="#191970" points="520.5001,-29.6426 517,-19.6427 513.5001,-29.6427 520.5001,-29.6426"/>
</g>
<!-- Node15 -->
<g id="node15" class="node">
<title>Node15</title>
<g id="a_node15"><a xlink:title=" ">
<polygon fill="#ffffff" stroke="#bfbfbf" points="240.5,-168.5 240.5,-187.5 287.5,-187.5 287.5,-168.5 240.5,-168.5"/>
<text text-anchor="middle" x="264" y="-175.5" font-family="Helvetica,sans-Serif" font-size="10.00" fill="#000000">vector</text>
</a>
</g>
</g>
<!-- Node14&#45;&gt;Node15 -->
<g id="edge15" class="edge">
<title>Node14&#45;&gt;Node15</title>
<path fill="none" stroke="#191970" d="M251.3438,-229.8906C253.4449,-221.276 256.5925,-208.3708 259.223,-197.5858"/>
<polygon fill="#191970" stroke="#191970" points="262.6539,-198.2894 261.6232,-187.7449 255.8532,-196.6307 262.6539,-198.2894"/>
</g>
<!-- Node16 -->
<g id="node16" class="node">
<title>Node16</title>
<g id="a_node16"><a xlink:title=" ">
<polygon fill="#ffffff" stroke="#bfbfbf" points="178,-168.5 178,-187.5 222,-187.5 222,-168.5 178,-168.5"/>
<text text-anchor="middle" x="200" y="-175.5" font-family="Helvetica,sans-Serif" font-size="10.00" fill="#000000">string</text>
</a>
</g>
</g>
<!-- Node14&#45;&gt;Node16 -->
<g id="edge16" class="edge">
<title>Node14&#45;&gt;Node16</title>
<path fill="none" stroke="#191970" d="M241.3438,-229.8906C234.0511,-220.7376 222.8993,-206.7409 214.0148,-195.59"/>
<polygon fill="#191970" stroke="#191970" points="216.733,-193.3849 207.7642,-187.7449 211.2583,-197.747 216.733,-193.3849"/>
</g>
<!-- Node17&#45;&gt;Node11 -->
<g id="edge19" class="edge">
<title>Node17&#45;&gt;Node11</title>
<path fill="none" stroke="#191970" d="M95.3973,-224.4719C107.5407,-215.2588 121.8862,-202.4711 131,-188 151.3661,-155.662 160.2013,-111.1442 163.7818,-85.7929"/>
<polygon fill="#191970" stroke="#191970" points="167.2877,-85.9685 165.0797,-75.6063 160.3438,-85.0837 167.2877,-85.9685"/>
</g>
<!-- Node17&#45;&gt;Node12 -->
<g id="edge21" class="edge">
<title>Node17&#45;&gt;Node12</title>
<path fill="none" stroke="#191970" d="M67.0084,-224.4593C63.3067,-214.3368 58.9105,-200.5889 57,-188 51.512,-151.8383 61.3645,-109.6102 68.5271,-85.516"/>
<polygon fill="#191970" stroke="#191970" points="71.9185,-86.3976 71.564,-75.8087 65.2378,-84.3075 71.9185,-86.3976"/>
</g>
<!-- Node17&#45;&gt;Node16 -->
<g id="edge18" class="edge">
<title>Node17&#45;&gt;Node16</title>
<path fill="none" stroke="#191970" d="M104.0677,-224.4554C124.5145,-214.554 151.0937,-201.683 171.0885,-192.0004"/>
<polygon fill="#191970" stroke="#191970" points="172.8447,-195.0388 180.3195,-187.5303 169.7938,-188.7387 172.8447,-195.0388"/>
</g>
<!-- Node18 -->
<g id="node18" class="node">
<title>Node18</title>
<g id="a_node18"><a xlink:title=" ">
<polygon fill="#ffffff" stroke="#bfbfbf" points="66,-168.5 66,-187.5 122,-187.5 122,-168.5 66,-168.5"/>
<text text-anchor="middle" x="94" y="-175.5" font-family="Helvetica,sans-Serif" font-size="10.00" fill="#000000">sstream</text>
</a>
</g>
</g>
<!-- Node17&#45;&gt;Node18 -->
<g id="edge20" class="edge">
<title>Node17&#45;&gt;Node18</title>
<path fill="none" stroke="#191970" d="M78.191,-224.2977C80.9542,-216.2055 84.3831,-206.1639 87.3405,-197.5029"/>
<polygon fill="#191970" stroke="#191970" points="90.7184,-198.4415 90.6376,-187.8469 84.0939,-196.1794 90.7184,-198.4415"/>
</g>
</g>
</svg>
