<?xml version="1.0" encoding="UTF-8" standalone="no"?>
<!DOCTYPE svg PUBLIC "-//W3C//DTD SVG 1.1//EN"
 "http://www.w3.org/Graphics/SVG/1.1/DTD/svg11.dtd">
<!-- Generated by graphviz version 2.40.1 (20161225.0304)
 -->
<!-- Title: hw1_ip_filter/src/IpFilter/IpStorage.cpp Pages: 1 -->
<!--zoomable 330 -->
<svg id="main" version="1.1" xmlns="http://www.w3.org/2000/svg" xmlns:xlink="http://www.w3.org/1999/xlink" xml:space="preserve" onload="init(evt)">
<style type="text/css"><![CDATA[
.edge:hover path { stroke: red; }
.edge:hover polygon { stroke: red; fill: red; }
]]></style>
<script type="text/javascript"><![CDATA[
var edges = document.getElementsByTagName('g');
if (edges && edges.length) {
  for (var i=0;i<edges.length;i++) {
    if (edges[i].id.substr(0,4)=='edge') {
      edges[i].setAttribute('class','edge');
    }
  }
}
]]></script>
        <defs>
                <circle id="rim" cx="0" cy="0" r="7"/>
                <circle id="rim2" cx="0" cy="0" r="3.5"/>
                <g id="zoomPlus">
                        <use xlink:href="#rim" fill="#404040">
                                <set attributeName="fill" to="#808080" begin="zoomplus.mouseover" end="zoomplus.mouseout"/>
                        </use>
                        <path d="M-4,0h8M0,-4v8" fill="none" stroke="white" stroke-width="1.5" pointer-events="none"/>
                </g>
                <g id="zoomMin">
                        <use xlink:href="#rim" fill="#404040">
                                <set attributeName="fill" to="#808080" begin="zoomminus.mouseover" end="zoomminus.mouseout"/>
                        </use>
                        <path d="M-4,0h8" fill="none" stroke="white" stroke-width="1.5" pointer-events="none"/>
                </g>
                <g id="dirArrow">
                        <path fill="none" stroke="white" stroke-width="1.5" d="M0,-3.0v7 M-2.5,-0.5L0,-3.0L2.5,-0.5"/>
                </g>
               <g id="resetDef">
                       <use xlink:href="#rim2" fill="#404040">
                               <set attributeName="fill" to="#808080" begin="reset.mouseover" end="reset.mouseout"/>
                       </use>
               </g>
        </defs>

<script type="text/javascript">
var viewWidth = 935;
var viewHeight = 330;
var sectionId = 'dynsection-0';
</script>
<script xlink:href="svgpan.js"/>
<svg id="graph" class="graph">
<g id="viewport">
<title>hw1_ip_filter/src/IpFilter/IpStorage.cpp</title>
<polygon fill="#ffffff" stroke="transparent" points="-4,4 -4,-326 930.5,-326 930.5,4 -4,4"/>
<!-- Node1 -->
<g id="node1" class="node">
<title>Node1</title>
<g id="a_node1"><a xlink:title=" ">
<polygon fill="#bfbfbf" stroke="#000000" points="599,-291.5 599,-321.5 731,-321.5 731,-291.5 599,-291.5"/>
<text text-anchor="start" x="607" y="-309.5" font-family="Helvetica,sans-Serif" font-size="10.00" fill="#000000">hw1_ip_filter/src/IpFilter</text>
<text text-anchor="middle" x="665" y="-298.5" font-family="Helvetica,sans-Serif" font-size="10.00" fill="#000000">/IpStorage.cpp</text>
</a>
</g>
</g>
<!-- Node2 -->
<g id="node2" class="node">
<title>Node2</title>
<g id="a_node2"><a xlink:href="_ip_storage_8h.html" target="_top" xlink:title=" ">
<polygon fill="#ffffff" stroke="#000000" points="219,-235.5 219,-254.5 291,-254.5 291,-235.5 219,-235.5"/>
<text text-anchor="middle" x="255" y="-242.5" font-family="Helvetica,sans-Serif" font-size="10.00" fill="#000000">IpStorage.h</text>
</a>
</g>
</g>
<!-- Node1&#45;&gt;Node2 -->
<g id="edge1" class="edge">
<title>Node1&#45;&gt;Node2</title>
<path fill="none" stroke="#191970" d="M598.6707,-296.5506C515.181,-284.0272 373.9222,-262.8383 301.2445,-251.9367"/>
<polygon fill="#191970" stroke="#191970" points="301.4428,-248.4273 291.0342,-250.4051 300.4043,-255.3499 301.4428,-248.4273"/>
</g>
<!-- Node9 -->
<g id="node9" class="node">
<title>Node9</title>
<g id="a_node9"><a xlink:title=" ">
<polygon fill="#ffffff" stroke="#bfbfbf" points="409.5,-56.5 409.5,-75.5 454.5,-75.5 454.5,-56.5 409.5,-56.5"/>
<text text-anchor="middle" x="432" y="-63.5" font-family="Helvetica,sans-Serif" font-size="10.00" fill="#000000">utility</text>
</a>
</g>
</g>
<!-- Node1&#45;&gt;Node9 -->
<g id="edge24" class="edge">
<title>Node1&#45;&gt;Node9</title>
<path fill="none" stroke="#191970" d="M731.2707,-300.2413C778.2229,-292.3741 830.3589,-274.6835 815,-235 781.5985,-148.6988 734.0405,-143.4245 647,-112 584.4448,-89.4155 507.4477,-76.265 464.644,-70.1685"/>
<polygon fill="#191970" stroke="#191970" points="464.9133,-66.6725 454.528,-68.7691 463.954,-73.6065 464.9133,-66.6725"/>
</g>
<!-- Node13 -->
<g id="node13" class="node">
<title>Node13</title>
<g id="a_node13"><a xlink:title=" ">
<polygon fill="#ffffff" stroke="#bfbfbf" points="496,-112.5 496,-131.5 552,-131.5 552,-112.5 496,-112.5"/>
<text text-anchor="middle" x="524" y="-119.5" font-family="Helvetica,sans-Serif" font-size="10.00" fill="#000000">sstream</text>
</a>
</g>
</g>
<!-- Node1&#45;&gt;Node13 -->
<g id="edge27" class="edge">
<title>Node1&#45;&gt;Node13</title>
<path fill="none" stroke="#191970" d="M652.5101,-291.4386C644.7267,-281.5317 634.9133,-268.0323 628,-255 608.6932,-218.6045 621.8213,-200.1036 596,-168 585.2471,-154.6309 569.5131,-143.9523 555.4941,-136.262"/>
<polygon fill="#191970" stroke="#191970" points="557.0864,-133.1452 546.5988,-131.6417 553.8598,-139.3572 557.0864,-133.1452"/>
</g>
<!-- Node18 -->
<g id="node18" class="node">
<title>Node18</title>
<g id="a_node18"><a xlink:title=" ">
<polygon fill="#ffffff" stroke="#bfbfbf" points="523,-174 523,-193 587,-193 587,-174 523,-174"/>
<text text-anchor="middle" x="555" y="-181" font-family="Helvetica,sans-Serif" font-size="10.00" fill="#000000">algorithm</text>
</a>
</g>
</g>
<!-- Node1&#45;&gt;Node18 -->
<g id="edge26" class="edge">
<title>Node1&#45;&gt;Node18</title>
<path fill="none" stroke="#191970" d="M639.2503,-291.3901C625.0084,-282.1507 607.6817,-269.3639 595,-255 581.0792,-239.2327 569.8941,-217.8239 562.9292,-202.5521"/>
<polygon fill="#191970" stroke="#191970" points="566.0119,-200.8658 558.7998,-193.1046 559.5978,-203.6693 566.0119,-200.8658"/>
</g>
<!-- Node19 -->
<g id="node19" class="node">
<title>Node19</title>
<g id="a_node19"><a xlink:href="_string_functions_8h.html" target="_top" xlink:title=" ">
<polygon fill="#ffffff" stroke="#000000" points="636.5,-235.5 636.5,-254.5 805.5,-254.5 805.5,-235.5 636.5,-235.5"/>
<text text-anchor="middle" x="721" y="-242.5" font-family="Helvetica,sans-Serif" font-size="10.00" fill="#000000">StringAddOns/StringFunctions.h</text>
</a>
</g>
</g>
<!-- Node1&#45;&gt;Node19 -->
<g id="edge21" class="edge">
<title>Node1&#45;&gt;Node19</title>
<path fill="none" stroke="#191970" d="M678.8427,-291.2977C686.859,-282.4941 696.9762,-271.3833 705.29,-262.2529"/>
<polygon fill="#191970" stroke="#191970" points="707.8888,-264.5974 712.0337,-254.8469 702.7131,-259.8845 707.8888,-264.5974"/>
</g>
<!-- Node21 -->
<g id="node21" class="node">
<title>Node21</title>
<g id="a_node21"><a xlink:title=" ">
<polygon fill="#ffffff" stroke="#bfbfbf" points="861.5,-235.5 861.5,-254.5 926.5,-254.5 926.5,-235.5 861.5,-235.5"/>
<text text-anchor="middle" x="894" y="-242.5" font-family="Helvetica,sans-Serif" font-size="10.00" fill="#000000">stdexcept</text>
</a>
</g>
</g>
<!-- Node1&#45;&gt;Node21 -->
<g id="edge25" class="edge">
<title>Node1&#45;&gt;Node21</title>
<path fill="none" stroke="#191970" d="M721.0197,-291.4554C761.2027,-280.6639 814.5211,-266.3448 851.2873,-256.4709"/>
<polygon fill="#191970" stroke="#191970" points="852.4437,-259.7844 861.1937,-253.8104 850.6281,-253.024 852.4437,-259.7844"/>
</g>
<!-- Node3 -->
<g id="node3" class="node">
<title>Node3</title>
<g id="a_node3"><a xlink:href="_ip_v4_8h.html" target="_top" xlink:title=" ">
<polygon fill="#ffffff" stroke="#000000" points="163.5,-174 163.5,-193 210.5,-193 210.5,-174 163.5,-174"/>
<text text-anchor="middle" x="187" y="-181" font-family="Helvetica,sans-Serif" font-size="10.00" fill="#000000">IpV4.h</text>
</a>
</g>
</g>
<!-- Node2&#45;&gt;Node3 -->
<g id="edge2" class="edge">
<title>Node2&#45;&gt;Node3</title>
<path fill="none" stroke="#191970" d="M244.375,-235.3906C233.9569,-225.9683 217.8636,-211.4134 205.3696,-200.1137"/>
<polygon fill="#191970" stroke="#191970" points="207.5392,-197.3568 197.7748,-193.2449 202.8438,-202.5484 207.5392,-197.3568"/>
</g>
<!-- Node5 -->
<g id="node5" class="node">
<title>Node5</title>
<g id="a_node5"><a xlink:href="_type_traits_8h.html" target="_top" xlink:title=" ">
<polygon fill="#ffffff" stroke="#000000" points="7,-56.5 7,-75.5 133,-75.5 133,-56.5 7,-56.5"/>
<text text-anchor="middle" x="70" y="-63.5" font-family="Helvetica,sans-Serif" font-size="10.00" fill="#000000">TypeTraits/TypeTraits.h</text>
</a>
</g>
</g>
<!-- Node2&#45;&gt;Node5 -->
<g id="edge15" class="edge">
<title>Node2&#45;&gt;Node5</title>
<path fill="none" stroke="#191970" d="M218.9773,-240.5483C172.828,-234.0458 96.6695,-220.3497 79,-199 52.426,-166.8911 58.787,-114.1372 64.8956,-85.6761"/>
<polygon fill="#191970" stroke="#191970" points="68.352,-86.2674 67.2372,-75.7313 61.5383,-84.6629 68.352,-86.2674"/>
</g>
<!-- Node11 -->
<g id="node11" class="node">
<title>Node11</title>
<g id="a_node11"><a xlink:href="_operation_result_8h.html" target="_top" xlink:title=" ">
<polygon fill="#ffffff" stroke="#000000" points="359,-168.5 359,-198.5 505,-198.5 505,-168.5 359,-168.5"/>
<text text-anchor="start" x="367" y="-186.5" font-family="Helvetica,sans-Serif" font-size="10.00" fill="#000000">OperationResult/Operation</text>
<text text-anchor="middle" x="432" y="-175.5" font-family="Helvetica,sans-Serif" font-size="10.00" fill="#000000">Result.h</text>
</a>
</g>
</g>
<!-- Node2&#45;&gt;Node11 -->
<g id="edge10" class="edge">
<title>Node2&#45;&gt;Node11</title>
<path fill="none" stroke="#191970" d="M282.6563,-235.3906C308.3855,-226.4508 347.4127,-212.8905 379.1189,-201.8739"/>
<polygon fill="#191970" stroke="#191970" points="380.4036,-205.1329 388.7009,-198.5446 378.1061,-198.5206 380.4036,-205.1329"/>
</g>
<!-- Node14 -->
<g id="node14" class="node">
<title>Node14</title>
<g id="a_node14"><a xlink:title=" ">
<polygon fill="#ffffff" stroke="#bfbfbf" points="0,-174 0,-193 32,-193 32,-174 0,-174"/>
<text text-anchor="middle" x="16" y="-181" font-family="Helvetica,sans-Serif" font-size="10.00" fill="#000000">set</text>
</a>
</g>
</g>
<!-- Node2&#45;&gt;Node14 -->
<g id="edge16" class="edge">
<title>Node2&#45;&gt;Node14</title>
<path fill="none" stroke="#191970" d="M218.6992,-239.9502C176.3664,-233.3945 104.702,-220.2131 46,-199 44.5527,-198.477 43.0868,-197.8983 41.6213,-197.2808"/>
<polygon fill="#191970" stroke="#191970" points="42.6958,-193.918 32.1578,-192.8222 39.7124,-200.2505 42.6958,-193.918"/>
</g>
<!-- Node15 -->
<g id="node15" class="node">
<title>Node15</title>
<g id="a_node15"><a xlink:title=" ">
<polygon fill="#ffffff" stroke="#bfbfbf" points="88.5,-174 88.5,-193 145.5,-193 145.5,-174 88.5,-174"/>
<text text-anchor="middle" x="117" y="-181" font-family="Helvetica,sans-Serif" font-size="10.00" fill="#000000">ostream</text>
</a>
</g>
</g>
<!-- Node2&#45;&gt;Node15 -->
<g id="edge17" class="edge">
<title>Node2&#45;&gt;Node15</title>
<path fill="none" stroke="#191970" d="M233.4375,-235.3906C210.4488,-225.1457 173.844,-208.8326 147.8176,-197.2339"/>
<polygon fill="#191970" stroke="#191970" points="148.9698,-193.9156 138.4111,-193.0419 146.1204,-200.3095 148.9698,-193.9156"/>
</g>
<!-- Node16 -->
<g id="node16" class="node">
<title>Node16</title>
<g id="a_node16"><a xlink:title=" ">
<polygon fill="#ffffff" stroke="#bfbfbf" points="228.5,-174 228.5,-193 281.5,-193 281.5,-174 228.5,-174"/>
<text text-anchor="middle" x="255" y="-181" font-family="Helvetica,sans-Serif" font-size="10.00" fill="#000000">iterator</text>
</a>
</g>
</g>
<!-- Node2&#45;&gt;Node16 -->
<g id="edge18" class="edge">
<title>Node2&#45;&gt;Node16</title>
<path fill="none" stroke="#191970" d="M255,-235.3906C255,-226.8657 255,-214.1392 255,-203.4235"/>
<polygon fill="#191970" stroke="#191970" points="258.5001,-203.2448 255,-193.2449 251.5001,-203.2449 258.5001,-203.2448"/>
</g>
<!-- Node17 -->
<g id="node17" class="node">
<title>Node17</title>
<g id="a_node17"><a xlink:title=" ">
<polygon fill="#ffffff" stroke="#bfbfbf" points="299.5,-174 299.5,-193 340.5,-193 340.5,-174 299.5,-174"/>
<text text-anchor="middle" x="320" y="-181" font-family="Helvetica,sans-Serif" font-size="10.00" fill="#000000">tuple</text>
</a>
</g>
</g>
<!-- Node2&#45;&gt;Node17 -->
<g id="edge19" class="edge">
<title>Node2&#45;&gt;Node17</title>
<path fill="none" stroke="#191970" d="M265.1563,-235.3906C275.0199,-226.0581 290.2055,-211.6902 302.0987,-200.4374"/>
<polygon fill="#191970" stroke="#191970" points="304.8421,-202.6601 309.7006,-193.2449 300.0311,-197.5753 304.8421,-202.6601"/>
</g>
<!-- Node2&#45;&gt;Node18 -->
<g id="edge20" class="edge">
<title>Node2&#45;&gt;Node18</title>
<path fill="none" stroke="#191970" d="M291.0781,-240.7452C341.5551,-234.3079 435.8444,-220.513 514,-199 516.7513,-198.2427 519.5764,-197.3746 522.3945,-196.4445"/>
<polygon fill="#191970" stroke="#191970" points="523.5667,-199.7425 531.832,-193.1141 521.2372,-193.1414 523.5667,-199.7425"/>
</g>
<!-- Node4 -->
<g id="node4" class="node">
<title>Node4</title>
<g id="a_node4"><a xlink:href="_generic_ip_8h.html" target="_top" xlink:title=" ">
<polygon fill="#ffffff" stroke="#000000" points="161,-112.5 161,-131.5 233,-131.5 233,-112.5 161,-112.5"/>
<text text-anchor="middle" x="197" y="-119.5" font-family="Helvetica,sans-Serif" font-size="10.00" fill="#000000">GenericIp.h</text>
</a>
</g>
</g>
<!-- Node3&#45;&gt;Node4 -->
<g id="edge3" class="edge">
<title>Node3&#45;&gt;Node4</title>
<path fill="none" stroke="#191970" d="M188.5625,-173.8906C189.9487,-165.3657 192.018,-152.6392 193.7604,-141.9235"/>
<polygon fill="#191970" stroke="#191970" points="197.2651,-142.177 195.4155,-131.7449 190.3558,-141.0535 197.2651,-142.177"/>
</g>
<!-- Node4&#45;&gt;Node5 -->
<g id="edge4" class="edge">
<title>Node4&#45;&gt;Node5</title>
<path fill="none" stroke="#191970" d="M175.1679,-112.3733C154.6897,-103.3435 123.8601,-89.7494 100.8681,-79.6111"/>
<polygon fill="#191970" stroke="#191970" points="102.1093,-76.3333 91.5472,-75.5011 99.285,-82.7383 102.1093,-76.3333"/>
</g>
<!-- Node7 -->
<g id="node7" class="node">
<title>Node7</title>
<g id="a_node7"><a xlink:title=" ">
<polygon fill="#ffffff" stroke="#bfbfbf" points="231,-56.5 231,-75.5 273,-75.5 273,-56.5 231,-56.5"/>
<text text-anchor="middle" x="252" y="-63.5" font-family="Helvetica,sans-Serif" font-size="10.00" fill="#000000">array</text>
</a>
</g>
</g>
<!-- Node4&#45;&gt;Node7 -->
<g id="edge6" class="edge">
<title>Node4&#45;&gt;Node7</title>
<path fill="none" stroke="#191970" d="M206.5803,-112.2455C214.5458,-104.1352 226.0641,-92.4075 235.5079,-82.7919"/>
<polygon fill="#191970" stroke="#191970" points="238.0195,-85.2297 242.5295,-75.6427 233.0253,-80.3247 238.0195,-85.2297"/>
</g>
<!-- Node8 -->
<g id="node8" class="node">
<title>Node8</title>
<g id="a_node8"><a xlink:title=" ">
<polygon fill="#ffffff" stroke="#bfbfbf" points="311,-56.5 311,-75.5 371,-75.5 371,-56.5 311,-56.5"/>
<text text-anchor="middle" x="341" y="-63.5" font-family="Helvetica,sans-Serif" font-size="10.00" fill="#000000">iostream</text>
</a>
</g>
</g>
<!-- Node4&#45;&gt;Node8 -->
<g id="edge7" class="edge">
<title>Node4&#45;&gt;Node8</title>
<path fill="none" stroke="#191970" d="M221.7545,-112.3733C245.2849,-103.2226 280.8687,-89.3844 307.0426,-79.2057"/>
<polygon fill="#191970" stroke="#191970" points="308.5171,-82.3877 316.5685,-75.5011 305.9799,-75.8636 308.5171,-82.3877"/>
</g>
<!-- Node4&#45;&gt;Node9 -->
<g id="edge8" class="edge">
<title>Node4&#45;&gt;Node9</title>
<path fill="none" stroke="#191970" d="M233.2037,-113.3727C278.6164,-102.551 355.8069,-84.1566 399.4383,-73.7594"/>
<polygon fill="#191970" stroke="#191970" points="400.3349,-77.1438 409.2512,-71.421 398.7122,-70.3345 400.3349,-77.1438"/>
</g>
<!-- Node10 -->
<g id="node10" class="node">
<title>Node10</title>
<g id="a_node10"><a xlink:title=" ">
<polygon fill="#ffffff" stroke="#bfbfbf" points="161,-56.5 161,-75.5 213,-75.5 213,-56.5 161,-56.5"/>
<text text-anchor="middle" x="187" y="-63.5" font-family="Helvetica,sans-Serif" font-size="10.00" fill="#000000">cassert</text>
</a>
</g>
</g>
<!-- Node4&#45;&gt;Node10 -->
<g id="edge9" class="edge">
<title>Node4&#45;&gt;Node10</title>
<path fill="none" stroke="#191970" d="M195.2581,-112.2455C193.9533,-104.9382 192.124,-94.6944 190.5187,-85.7046"/>
<polygon fill="#191970" stroke="#191970" points="193.9254,-84.8717 188.7219,-75.6427 187.0344,-86.1022 193.9254,-84.8717"/>
</g>
<!-- Node6 -->
<g id="node6" class="node">
<title>Node6</title>
<g id="a_node6"><a xlink:title=" ">
<polygon fill="#ffffff" stroke="#bfbfbf" points="35.5,-.5 35.5,-19.5 104.5,-19.5 104.5,-.5 35.5,-.5"/>
<text text-anchor="middle" x="70" y="-7.5" font-family="Helvetica,sans-Serif" font-size="10.00" fill="#000000">type_traits</text>
</a>
</g>
</g>
<!-- Node5&#45;&gt;Node6 -->
<g id="edge5" class="edge">
<title>Node5&#45;&gt;Node6</title>
<path fill="none" stroke="#191970" d="M70,-56.2455C70,-48.9382 70,-38.6944 70,-29.7046"/>
<polygon fill="#191970" stroke="#191970" points="73.5001,-29.6426 70,-19.6427 66.5001,-29.6427 73.5001,-29.6426"/>
</g>
<!-- Node11&#45;&gt;Node8 -->
<g id="edge12" class="edge">
<title>Node11&#45;&gt;Node8</title>
<path fill="none" stroke="#191970" d="M420.1033,-168.1389C403.261,-146.3919 372.5393,-106.7238 354.7441,-83.7465"/>
<polygon fill="#191970" stroke="#191970" points="357.2938,-81.3226 348.4035,-75.5595 351.7595,-85.6088 357.2938,-81.3226"/>
</g>
<!-- Node11&#45;&gt;Node9 -->
<g id="edge14" class="edge">
<title>Node11&#45;&gt;Node9</title>
<path fill="none" stroke="#191970" d="M432,-168.1389C432,-146.9692 432,-108.8174 432,-85.6112"/>
<polygon fill="#191970" stroke="#191970" points="435.5001,-85.5594 432,-75.5595 428.5001,-85.5595 435.5001,-85.5594"/>
</g>
<!-- Node12 -->
<g id="node12" class="node">
<title>Node12</title>
<g id="a_node12"><a xlink:title=" ">
<polygon fill="#ffffff" stroke="#bfbfbf" points="594,-112.5 594,-131.5 638,-131.5 638,-112.5 594,-112.5"/>
<text text-anchor="middle" x="616" y="-119.5" font-family="Helvetica,sans-Serif" font-size="10.00" fill="#000000">string</text>
</a>
</g>
</g>
<!-- Node11&#45;&gt;Node12 -->
<g id="edge11" class="edge">
<title>Node11&#45;&gt;Node12</title>
<path fill="none" stroke="#191970" d="M477.0115,-168.4554C510.1311,-157.3855 554.3565,-142.6037 583.9398,-132.7158"/>
<polygon fill="#191970" stroke="#191970" points="585.3762,-135.9261 593.7509,-129.4365 583.1571,-129.2871 585.3762,-135.9261"/>
</g>
<!-- Node11&#45;&gt;Node13 -->
<g id="edge13" class="edge">
<title>Node11&#45;&gt;Node13</title>
<path fill="none" stroke="#191970" d="M454.7416,-168.2977C468.7967,-158.9022 486.783,-146.8787 500.9036,-137.4395"/>
<polygon fill="#191970" stroke="#191970" points="503.1759,-140.1305 509.5444,-131.6633 499.2857,-134.311 503.1759,-140.1305"/>
</g>
<!-- Node19&#45;&gt;Node12 -->
<g id="edge23" class="edge">
<title>Node19&#45;&gt;Node12</title>
<path fill="none" stroke="#191970" d="M712.7608,-235.3484C695.0495,-214.6008 653.1442,-165.5117 630.7359,-139.262"/>
<polygon fill="#191970" stroke="#191970" points="633.3555,-136.94 624.2009,-131.6068 628.0316,-141.4849 633.3555,-136.94"/>
</g>
<!-- Node20 -->
<g id="node20" class="node">
<title>Node20</title>
<g id="a_node20"><a xlink:title=" ">
<polygon fill="#ffffff" stroke="#bfbfbf" points="697.5,-174 697.5,-193 744.5,-193 744.5,-174 697.5,-174"/>
<text text-anchor="middle" x="721" y="-181" font-family="Helvetica,sans-Serif" font-size="10.00" fill="#000000">vector</text>
</a>
</g>
</g>
<!-- Node19&#45;&gt;Node20 -->
<g id="edge22" class="edge">
<title>Node19&#45;&gt;Node20</title>
<path fill="none" stroke="#191970" d="M721,-235.3906C721,-226.8657 721,-214.1392 721,-203.4235"/>
<polygon fill="#191970" stroke="#191970" points="724.5001,-203.2448 721,-193.2449 717.5001,-203.2449 724.5001,-203.2448"/>
</g>
</g>
</svg>
        <g id="navigator" transform="translate(0 0)" fill="#404254">
                <rect fill="#f2f5e9" fill-opacity="0.5" stroke="#606060" stroke-width=".5" x="0" y="0" width="60" height="60"/>
                <use id="zoomplus" xlink:href="#zoomPlus" x="17" y="9" onmousedown="handleZoom(evt,'in')"/>
                <use id="zoomminus" xlink:href="#zoomMin" x="42" y="9" onmousedown="handleZoom(evt,'out')"/>
                <use id="reset" xlink:href="#resetDef" x="30" y="36" onmousedown="handleReset()"/>
                <g id="arrowUp" xlink:href="#dirArrow" transform="translate(30 24)" onmousedown="handlePan(0,-1)">
                  <use xlink:href="#rim" fill="#404040">
                        <set attributeName="fill" to="#808080" begin="arrowUp.mouseover" end="arrowUp.mouseout"/>
                  </use>
                  <path fill="none" stroke="white" stroke-width="1.5" d="M0,-3.0v7 M-2.5,-0.5L0,-3.0L2.5,-0.5"/>
                </g>
                <g id="arrowRight" xlink:href="#dirArrow" transform="rotate(90) translate(36 -43)" onmousedown="handlePan(1,0)">
                  <use xlink:href="#rim" fill="#404040">
                        <set attributeName="fill" to="#808080" begin="arrowRight.mouseover" end="arrowRight.mouseout"/>
                  </use>
                  <path fill="none" stroke="white" stroke-width="1.5" d="M0,-3.0v7 M-2.5,-0.5L0,-3.0L2.5,-0.5"/>
                </g>
                <g id="arrowDown" xlink:href="#dirArrow" transform="rotate(180) translate(-30 -48)" onmousedown="handlePan(0,1)">
                  <use xlink:href="#rim" fill="#404040">
                        <set attributeName="fill" to="#808080" begin="arrowDown.mouseover" end="arrowDown.mouseout"/>
                  </use>
                  <path fill="none" stroke="white" stroke-width="1.5" d="M0,-3.0v7 M-2.5,-0.5L0,-3.0L2.5,-0.5"/>
                </g>
                <g id="arrowLeft" xlink:href="#dirArrow" transform="rotate(270) translate(-36 17)" onmousedown="handlePan(-1,0)">
                  <use xlink:href="#rim" fill="#404040">
                        <set attributeName="fill" to="#808080" begin="arrowLeft.mouseover" end="arrowLeft.mouseout"/>
                  </use>
                  <path fill="none" stroke="white" stroke-width="1.5" d="M0,-3.0v7 M-2.5,-0.5L0,-3.0L2.5,-0.5"/>
                </g>
        </g>
        <svg viewBox="0 0 15 15" width="100%" height="30px" preserveAspectRatio="xMaxYMin meet">
         <g id="arrow_out" transform="scale(0.3 0.3)">
          <a xlink:href="_ip_storage_8cpp__incl_org.svg" target="_base">
           <rect id="button" ry="5" rx="5" y="6" x="6" height="38" width="38"
                fill="#f2f5e9" fill-opacity="0.5" stroke="#606060" stroke-width="1.0"/>
           <path id="arrow"
             d="M 11.500037,31.436501 C 11.940474,20.09759 22.043105,11.32322 32.158766,21.979434 L 37.068811,17.246167 C 37.068811,17.246167 37.088388,32 37.088388,32 L 22.160133,31.978069 C 22.160133,31.978069 26.997745,27.140456 26.997745,27.140456 C 18.528582,18.264221 13.291696,25.230495 11.500037,31.436501 z"
             style="fill:#404040;"/>
          </a>
         </g>
        </svg>
</svg>
