<?xml version="1.0" encoding="UTF-8" standalone="no"?>
<!DOCTYPE svg PUBLIC "-//W3C//DTD SVG 1.1//EN"
 "http://www.w3.org/Graphics/SVG/1.1/DTD/svg11.dtd">
<!-- Generated by graphviz version 2.40.1 (20161225.0304)
 -->
<!-- Title: hw2_ip_filter/src/IpFilter/IpStoragePrinter.h Pages: 1 -->
<svg width="428pt" height="151pt"
 viewBox="0.00 0.00 428.00 151.00" xmlns="http://www.w3.org/2000/svg" xmlns:xlink="http://www.w3.org/1999/xlink">
<g id="graph0" class="graph" transform="scale(1 1) rotate(0) translate(4 147)">
<title>hw2_ip_filter/src/IpFilter/IpStoragePrinter.h</title>
<polygon fill="#ffffff" stroke="transparent" points="-4,4 -4,-147 424,-147 424,4 -4,4"/>
<!-- Node1 -->
<g id="node1" class="node">
<title>Node1</title>
<g id="a_node1"><a xlink:title=" ">
<polygon fill="#bfbfbf" stroke="#000000" points="126,-112.5 126,-142.5 258,-142.5 258,-112.5 126,-112.5"/>
<text text-anchor="start" x="134" y="-130.5" font-family="Helvetica,sans-Serif" font-size="10.00" fill="#000000">hw2_ip_filter/src/IpFilter</text>
<text text-anchor="middle" x="192" y="-119.5" font-family="Helvetica,sans-Serif" font-size="10.00" fill="#000000">/IpStoragePrinter.h</text>
</a>
</g>
</g>
<!-- Node2 -->
<g id="node2" class="node">
<title>Node2</title>
<g id="a_node2"><a xlink:href="_ip_storage_printer_8cpp.html" target="_top" xlink:title=" ">
<polygon fill="#ffffff" stroke="#000000" points="0,-56.5 0,-75.5 104,-75.5 104,-56.5 0,-56.5"/>
<text text-anchor="middle" x="52" y="-63.5" font-family="Helvetica,sans-Serif" font-size="10.00" fill="#000000">IpStoragePrinter.h</text>
</a>
</g>
</g>
<!-- Node1&#45;&gt;Node2 -->
<g id="edge1" class="edge">
<title>Node1&#45;&gt;Node2</title>
<path fill="none" stroke="#191970" d="M148.5184,-108.3992C123.6739,-97.4853 93.5994,-84.274 73.695,-75.5303"/>
<polygon fill="#191970" stroke="#191970" points="147.1889,-111.6379 157.7521,-112.4554 150.0043,-105.229 147.1889,-111.6379"/>
</g>
<!-- Node3 -->
<g id="node3" class="node">
<title>Node3</title>
<g id="a_node3"><a xlink:href="hw2__ip__filter_2src_2_required_outputs_module_2main_8cpp.html" target="_top" xlink:title=" ">
<polygon fill="#ffffff" stroke="#000000" points="122,-56.5 122,-75.5 262,-75.5 262,-56.5 122,-56.5"/>
<text text-anchor="middle" x="192" y="-63.5" font-family="Helvetica,sans-Serif" font-size="10.00" fill="#000000">IpFilter/IpStoragePrinter.h</text>
</a>
</g>
</g>
<!-- Node1&#45;&gt;Node3 -->
<g id="edge2" class="edge">
<title>Node1&#45;&gt;Node3</title>
<path fill="none" stroke="#191970" d="M192,-102.2849C192,-92.9858 192,-82.9883 192,-75.8469"/>
<polygon fill="#191970" stroke="#191970" points="188.5001,-102.2977 192,-112.2977 195.5001,-102.2978 188.5001,-102.2977"/>
</g>
<!-- Node4 -->
<g id="node4" class="node">
<title>Node4</title>
<g id="a_node4"><a xlink:href="_ip_storage_tests_8h.html" target="_top" xlink:title=" ">
<polygon fill="#ffffff" stroke="#000000" points="280,-56.5 280,-75.5 420,-75.5 420,-56.5 280,-56.5"/>
<text text-anchor="middle" x="350" y="-63.5" font-family="Helvetica,sans-Serif" font-size="10.00" fill="#000000">IpFilter/IpStoragePrinter.h</text>
</a>
</g>
</g>
<!-- Node1&#45;&gt;Node4 -->
<g id="edge3" class="edge">
<title>Node1&#45;&gt;Node4</title>
<path fill="none" stroke="#191970" d="M240.3323,-108.6871C268.5119,-97.7185 302.8541,-84.3511 325.5156,-75.5303"/>
<polygon fill="#191970" stroke="#191970" points="238.7005,-105.5664 230.6511,-112.4554 241.2397,-112.0897 238.7005,-105.5664"/>
</g>
<!-- Node5 -->
<g id="node5" class="node">
<title>Node5</title>
<g id="a_node5"><a xlink:href="_ip_filter_tests_8cpp.html" target="_top" xlink:title=" ">
<polygon fill="#ffffff" stroke="#000000" points="301.5,-.5 301.5,-19.5 398.5,-19.5 398.5,-.5 301.5,-.5"/>
<text text-anchor="middle" x="350" y="-7.5" font-family="Helvetica,sans-Serif" font-size="10.00" fill="#000000">IpStorageTests.h</text>
</a>
</g>
</g>
<!-- Node4&#45;&gt;Node5 -->
<g id="edge4" class="edge">
<title>Node4&#45;&gt;Node5</title>
<path fill="none" stroke="#191970" d="M350,-46.1575C350,-37.155 350,-26.9199 350,-19.6427"/>
<polygon fill="#191970" stroke="#191970" points="346.5001,-46.2455 350,-56.2455 353.5001,-46.2456 346.5001,-46.2455"/>
</g>
</g>
</svg>
