<?xml version="1.0" encoding="UTF-8" standalone="no"?>
<!DOCTYPE svg PUBLIC "-//W3C//DTD SVG 1.1//EN"
 "http://www.w3.org/Graphics/SVG/1.1/DTD/svg11.dtd">
<!-- Generated by graphviz version 2.40.1 (20161225.0304)
 -->
<!-- Title: hw2_ip_filter/src/IpFilter/IpV4.cpp Pages: 1 -->
<svg width="288pt" height="151pt"
 viewBox="0.00 0.00 287.50 151.00" xmlns="http://www.w3.org/2000/svg" xmlns:xlink="http://www.w3.org/1999/xlink">
<g id="graph0" class="graph" transform="scale(1 1) rotate(0) translate(4 147)">
<title>hw2_ip_filter/src/IpFilter/IpV4.cpp</title>
<polygon fill="#ffffff" stroke="transparent" points="-4,4 -4,-147 283.5,-147 283.5,4 -4,4"/>
<!-- Node0 -->
<g id="node1" class="node">
<title>Node0</title>
<polygon fill="#bfbfbf" stroke="#000000" points="120.5,-112.5 120.5,-142.5 252.5,-142.5 252.5,-112.5 120.5,-112.5"/>
<text text-anchor="start" x="128.5" y="-130.5" font-family="Helvetica,sans-Serif" font-size="10.00" fill="#000000">hw2_ip_filter/src/IpFilter</text>
<text text-anchor="middle" x="186.5" y="-119.5" font-family="Helvetica,sans-Serif" font-size="10.00" fill="#000000">/IpV4.cpp</text>
</g>
<!-- Node1 -->
<g id="node2" class="node">
<title>Node1</title>
<g id="a_node2"><a xlink:href="_ip_v4_8h.html" target="_top" xlink:title="IpV4.h">
<polygon fill="#ffffff" stroke="#000000" points="99,-56.5 99,-75.5 146,-75.5 146,-56.5 99,-56.5"/>
<text text-anchor="middle" x="122.5" y="-63.5" font-family="Helvetica,sans-Serif" font-size="10.00" fill="#000000">IpV4.h</text>
</a>
</g>
</g>
<!-- Node0&#45;&gt;Node1 -->
<g id="edge1" class="edge">
<title>Node0&#45;&gt;Node1</title>
<path fill="none" stroke="#191970" d="M170.6798,-112.2977C161.4258,-103.4052 149.7219,-92.1586 140.167,-82.9769"/>
<polygon fill="#191970" stroke="#191970" points="142.3828,-80.2521 132.7472,-75.8469 137.5326,-85.2995 142.3828,-80.2521"/>
</g>
<!-- Node6 -->
<g id="node7" class="node">
<title>Node6</title>
<polygon fill="#ffffff" stroke="#bfbfbf" points="164,-56.5 164,-75.5 209,-75.5 209,-56.5 164,-56.5"/>
<text text-anchor="middle" x="186.5" y="-63.5" font-family="Helvetica,sans-Serif" font-size="10.00" fill="#000000">utility</text>
</g>
<!-- Node0&#45;&gt;Node6 -->
<g id="edge6" class="edge">
<title>Node0&#45;&gt;Node6</title>
<path fill="none" stroke="#191970" d="M186.5,-112.2977C186.5,-104.3834 186.5,-94.6043 186.5,-86.0759"/>
<polygon fill="#191970" stroke="#191970" points="190.0001,-85.8469 186.5,-75.8469 183.0001,-85.847 190.0001,-85.8469"/>
</g>
<!-- Node7 -->
<g id="node8" class="node">
<title>Node7</title>
<polygon fill="#ffffff" stroke="#bfbfbf" points="227.5,-56.5 227.5,-75.5 279.5,-75.5 279.5,-56.5 227.5,-56.5"/>
<text text-anchor="middle" x="253.5" y="-63.5" font-family="Helvetica,sans-Serif" font-size="10.00" fill="#000000">cassert</text>
</g>
<!-- Node0&#45;&gt;Node7 -->
<g id="edge7" class="edge">
<title>Node0&#45;&gt;Node7</title>
<path fill="none" stroke="#191970" d="M203.0618,-112.2977C212.8465,-103.3163 225.2474,-91.9334 235.3043,-82.702"/>
<polygon fill="#191970" stroke="#191970" points="237.7722,-85.1876 242.7725,-75.8469 233.0387,-80.0307 237.7722,-85.1876"/>
</g>
<!-- Node2 -->
<g id="node3" class="node">
<title>Node2</title>
<polygon fill="#ffffff" stroke="#bfbfbf" points="0,-.5 0,-19.5 53,-19.5 53,-.5 0,-.5"/>
<text text-anchor="middle" x="26.5" y="-7.5" font-family="Helvetica,sans-Serif" font-size="10.00" fill="#000000">cstddef</text>
</g>
<!-- Node1&#45;&gt;Node2 -->
<g id="edge2" class="edge">
<title>Node1&#45;&gt;Node2</title>
<path fill="none" stroke="#191970" d="M105.7781,-56.2455C90.9111,-47.5731 68.9534,-34.7645 51.9142,-24.825"/>
<polygon fill="#191970" stroke="#191970" points="53.4317,-21.6582 43.0303,-19.6427 49.9045,-27.7047 53.4317,-21.6582"/>
</g>
<!-- Node3 -->
<g id="node4" class="node">
<title>Node3</title>
<polygon fill="#ffffff" stroke="#bfbfbf" points="71.5,-.5 71.5,-19.5 113.5,-19.5 113.5,-.5 71.5,-.5"/>
<text text-anchor="middle" x="92.5" y="-7.5" font-family="Helvetica,sans-Serif" font-size="10.00" fill="#000000">array</text>
</g>
<!-- Node1&#45;&gt;Node3 -->
<g id="edge3" class="edge">
<title>Node1&#45;&gt;Node3</title>
<path fill="none" stroke="#191970" d="M117.2744,-56.2455C113.1877,-48.617 107.3865,-37.7881 102.425,-28.5267"/>
<polygon fill="#191970" stroke="#191970" points="105.4732,-26.8047 97.6657,-19.6427 99.3028,-30.1103 105.4732,-26.8047"/>
</g>
<!-- Node4 -->
<g id="node5" class="node">
<title>Node4</title>
<polygon fill="#ffffff" stroke="#bfbfbf" points="131.5,-.5 131.5,-19.5 175.5,-19.5 175.5,-.5 131.5,-.5"/>
<text text-anchor="middle" x="153.5" y="-7.5" font-family="Helvetica,sans-Serif" font-size="10.00" fill="#000000">string</text>
</g>
<!-- Node1&#45;&gt;Node4 -->
<g id="edge4" class="edge">
<title>Node1&#45;&gt;Node4</title>
<path fill="none" stroke="#191970" d="M127.8998,-56.2455C132.1227,-48.617 138.1173,-37.7881 143.2441,-28.5267"/>
<polygon fill="#191970" stroke="#191970" points="146.381,-30.0867 148.1621,-19.6427 140.2568,-26.6965 146.381,-30.0867"/>
</g>
<!-- Node5 -->
<g id="node6" class="node">
<title>Node5</title>
<polygon fill="#ffffff" stroke="#bfbfbf" points="194,-.5 194,-19.5 251,-19.5 251,-.5 194,-.5"/>
<text text-anchor="middle" x="222.5" y="-7.5" font-family="Helvetica,sans-Serif" font-size="10.00" fill="#000000">ostream</text>
</g>
<!-- Node1&#45;&gt;Node5 -->
<g id="edge5" class="edge">
<title>Node1&#45;&gt;Node5</title>
<path fill="none" stroke="#191970" d="M139.9187,-56.2455C155.5485,-47.4928 178.7019,-34.527 196.5185,-24.5496"/>
<polygon fill="#191970" stroke="#191970" points="198.266,-27.5825 205.2809,-19.6427 194.8457,-21.475 198.266,-27.5825"/>
</g>
</g>
</svg>
