<?xml version="1.0" encoding="UTF-8" standalone="no"?>
<!DOCTYPE svg PUBLIC "-//W3C//DTD SVG 1.1//EN"
 "http://www.w3.org/Graphics/SVG/1.1/DTD/svg11.dtd">
<!-- Generated by graphviz version 2.40.1 (20161225.0304)
 -->
<!-- Title: hw2_allocator/ReserveAllocator/List.h Pages: 1 -->
<svg width="200pt" height="95pt"
 viewBox="0.00 0.00 200.00 95.00" xmlns="http://www.w3.org/2000/svg" xmlns:xlink="http://www.w3.org/1999/xlink">
<g id="graph0" class="graph" transform="scale(1 1) rotate(0) translate(4 91)">
<title>hw2_allocator/ReserveAllocator/List.h</title>
<polygon fill="#ffffff" stroke="transparent" points="-4,4 -4,-91 196,-91 196,4 -4,4"/>
<!-- Node1 -->
<g id="node1" class="node">
<title>Node1</title>
<g id="a_node1"><a xlink:title=" ">
<polygon fill="#bfbfbf" stroke="#000000" points="0,-56.5 0,-86.5 170,-86.5 170,-56.5 0,-56.5"/>
<text text-anchor="start" x="8" y="-74.5" font-family="Helvetica,sans-Serif" font-size="10.00" fill="#000000">hw2_allocator/ReserveAllocator</text>
<text text-anchor="middle" x="85" y="-63.5" font-family="Helvetica,sans-Serif" font-size="10.00" fill="#000000">/List.h</text>
</a>
</g>
</g>
<!-- Node2 -->
<g id="node2" class="node">
<title>Node2</title>
<g id="a_node2"><a xlink:title=" ">
<polygon fill="#ffffff" stroke="#bfbfbf" points="6,-.5 6,-19.5 38,-19.5 38,-.5 6,-.5"/>
<text text-anchor="middle" x="22" y="-7.5" font-family="Helvetica,sans-Serif" font-size="10.00" fill="#000000">list</text>
</a>
</g>
</g>
<!-- Node1&#45;&gt;Node2 -->
<g id="edge1" class="edge">
<title>Node1&#45;&gt;Node2</title>
<path fill="none" stroke="#191970" d="M69.427,-56.2977C60.3175,-47.4052 48.7966,-36.1586 39.3909,-26.9769"/>
<polygon fill="#191970" stroke="#191970" points="41.6878,-24.3278 32.0871,-19.8469 36.798,-29.3368 41.6878,-24.3278"/>
</g>
<!-- Node3 -->
<g id="node3" class="node">
<title>Node3</title>
<g id="a_node3"><a xlink:title=" ">
<polygon fill="#ffffff" stroke="#bfbfbf" points="56,-.5 56,-19.5 114,-19.5 114,-.5 56,-.5"/>
<text text-anchor="middle" x="85" y="-7.5" font-family="Helvetica,sans-Serif" font-size="10.00" fill="#000000">memory</text>
</a>
</g>
</g>
<!-- Node1&#45;&gt;Node3 -->
<g id="edge2" class="edge">
<title>Node1&#45;&gt;Node3</title>
<path fill="none" stroke="#191970" d="M85,-56.2977C85,-48.3834 85,-38.6043 85,-30.0759"/>
<polygon fill="#191970" stroke="#191970" points="88.5001,-29.8469 85,-19.8469 81.5001,-29.847 88.5001,-29.8469"/>
</g>
<!-- Node4 -->
<g id="node4" class="node">
<title>Node4</title>
<g id="a_node4"><a xlink:title=" ">
<polygon fill="#ffffff" stroke="#bfbfbf" points="132,-.5 132,-19.5 192,-19.5 192,-.5 132,-.5"/>
<text text-anchor="middle" x="162" y="-7.5" font-family="Helvetica,sans-Serif" font-size="10.00" fill="#000000">iostream</text>
</a>
</g>
</g>
<!-- Node1&#45;&gt;Node4 -->
<g id="edge3" class="edge">
<title>Node1&#45;&gt;Node4</title>
<path fill="none" stroke="#191970" d="M104.0337,-56.2977C115.5015,-47.1384 130.0962,-35.4816 141.7719,-26.1562"/>
<polygon fill="#191970" stroke="#191970" points="144.0419,-28.8225 149.6713,-19.8469 139.6734,-23.3529 144.0419,-28.8225"/>
</g>
</g>
</svg>
