<?xml version="1.0" encoding="UTF-8" standalone="no"?>
<!DOCTYPE svg PUBLIC "-//W3C//DTD SVG 1.1//EN"
 "http://www.w3.org/Graphics/SVG/1.1/DTD/svg11.dtd">
<!-- Generated by graphviz version 2.40.1 (20161225.0304)
 -->
<!-- Title: libs/OperationResult/OperationResult.h Pages: 1 -->
<svg width="268pt" height="95pt"
 viewBox="0.00 0.00 267.50 95.00" xmlns="http://www.w3.org/2000/svg" xmlns:xlink="http://www.w3.org/1999/xlink">
<g id="graph0" class="graph" transform="scale(1 1) rotate(0) translate(4 91)">
<title>libs/OperationResult/OperationResult.h</title>
<polygon fill="#ffffff" stroke="transparent" points="-4,4 -4,-91 263.5,-91 263.5,4 -4,4"/>
<!-- Node0 -->
<g id="node1" class="node">
<title>Node0</title>
<polygon fill="#bfbfbf" stroke="#000000" points="72.5,-56.5 72.5,-86.5 187.5,-86.5 187.5,-56.5 72.5,-56.5"/>
<text text-anchor="start" x="80.5" y="-74.5" font-family="Helvetica,sans-Serif" font-size="10.00" fill="#000000">libs/OperationResult</text>
<text text-anchor="middle" x="130" y="-63.5" font-family="Helvetica,sans-Serif" font-size="10.00" fill="#000000">/OperationResult.h</text>
</g>
<!-- Node1 -->
<g id="node2" class="node">
<title>Node1</title>
<polygon fill="#ffffff" stroke="#bfbfbf" points="0,-.5 0,-19.5 44,-19.5 44,-.5 0,-.5"/>
<text text-anchor="middle" x="22" y="-7.5" font-family="Helvetica,sans-Serif" font-size="10.00" fill="#000000">string</text>
</g>
<!-- Node0&#45;&gt;Node1 -->
<g id="edge1" class="edge">
<title>Node0&#45;&gt;Node1</title>
<path fill="none" stroke="#191970" d="M103.5802,-56.4554C86.5086,-46.734 64.4098,-34.15 47.5191,-24.5317"/>
<polygon fill="#191970" stroke="#191970" points="49.158,-21.4373 38.7362,-19.5303 45.6941,-27.5202 49.158,-21.4373"/>
</g>
<!-- Node2 -->
<g id="node3" class="node">
<title>Node2</title>
<polygon fill="#ffffff" stroke="#bfbfbf" points="62,-.5 62,-19.5 122,-19.5 122,-.5 62,-.5"/>
<text text-anchor="middle" x="92" y="-7.5" font-family="Helvetica,sans-Serif" font-size="10.00" fill="#000000">iostream</text>
</g>
<!-- Node0&#45;&gt;Node2 -->
<g id="edge2" class="edge">
<title>Node0&#45;&gt;Node2</title>
<path fill="none" stroke="#191970" d="M120.6067,-56.2977C115.3869,-47.8498 108.8543,-37.2773 103.35,-28.369"/>
<polygon fill="#191970" stroke="#191970" points="106.3182,-26.5143 98.0843,-19.8469 100.3632,-30.1938 106.3182,-26.5143"/>
</g>
<!-- Node3 -->
<g id="node4" class="node">
<title>Node3</title>
<polygon fill="#ffffff" stroke="#bfbfbf" points="140,-.5 140,-19.5 196,-19.5 196,-.5 140,-.5"/>
<text text-anchor="middle" x="168" y="-7.5" font-family="Helvetica,sans-Serif" font-size="10.00" fill="#000000">sstream</text>
</g>
<!-- Node0&#45;&gt;Node3 -->
<g id="edge3" class="edge">
<title>Node0&#45;&gt;Node3</title>
<path fill="none" stroke="#191970" d="M139.3933,-56.2977C144.6131,-47.8498 151.1457,-37.2773 156.65,-28.369"/>
<polygon fill="#191970" stroke="#191970" points="159.6368,-30.1938 161.9157,-19.8469 153.6818,-26.5143 159.6368,-30.1938"/>
</g>
<!-- Node4 -->
<g id="node5" class="node">
<title>Node4</title>
<polygon fill="#ffffff" stroke="#bfbfbf" points="214.5,-.5 214.5,-19.5 259.5,-19.5 259.5,-.5 214.5,-.5"/>
<text text-anchor="middle" x="237" y="-7.5" font-family="Helvetica,sans-Serif" font-size="10.00" fill="#000000">utility</text>
</g>
<!-- Node0&#45;&gt;Node4 -->
<g id="edge4" class="edge">
<title>Node0&#45;&gt;Node4</title>
<path fill="none" stroke="#191970" d="M156.1751,-56.4554C173.0887,-46.734 194.9829,-34.15 211.7172,-24.5317"/>
<polygon fill="#191970" stroke="#191970" points="213.493,-27.548 220.4188,-19.5303 210.0047,-21.4791 213.493,-27.548"/>
</g>
</g>
</svg>
