<?xml version="1.0" encoding="UTF-8" standalone="no"?>
<!DOCTYPE svg PUBLIC "-//W3C//DTD SVG 1.1//EN"
 "http://www.w3.org/Graphics/SVG/1.1/DTD/svg11.dtd">
<!-- Generated by graphviz version 2.40.1 (20161225.0304)
 -->
<!-- Title: libs/OperationResult/OperationResult.cpp Pages: 1 -->
<svg width="268pt" height="151pt"
 viewBox="0.00 0.00 267.50 151.00" xmlns="http://www.w3.org/2000/svg" xmlns:xlink="http://www.w3.org/1999/xlink">
<g id="graph0" class="graph" transform="scale(1 1) rotate(0) translate(4 147)">
<title>libs/OperationResult/OperationResult.cpp</title>
<polygon fill="#ffffff" stroke="transparent" points="-4,4 -4,-147 263.5,-147 263.5,4 -4,4"/>
<!-- Node1 -->
<g id="node1" class="node">
<title>Node1</title>
<g id="a_node1"><a xlink:title=" ">
<polygon fill="#bfbfbf" stroke="#000000" points="71,-112.5 71,-142.5 189,-142.5 189,-112.5 71,-112.5"/>
<text text-anchor="start" x="79" y="-130.5" font-family="Helvetica,sans-Serif" font-size="10.00" fill="#000000">libs/OperationResult</text>
<text text-anchor="middle" x="130" y="-119.5" font-family="Helvetica,sans-Serif" font-size="10.00" fill="#000000">/OperationResult.cpp</text>
</a>
</g>
</g>
<!-- Node2 -->
<g id="node2" class="node">
<title>Node2</title>
<g id="a_node2"><a xlink:href="_operation_result_8h.html" target="_top" xlink:title=" ">
<polygon fill="#ffffff" stroke="#000000" points="78,-56.5 78,-75.5 182,-75.5 182,-56.5 78,-56.5"/>
<text text-anchor="middle" x="130" y="-63.5" font-family="Helvetica,sans-Serif" font-size="10.00" fill="#000000">OperationResult.h</text>
</a>
</g>
</g>
<!-- Node1&#45;&gt;Node2 -->
<g id="edge1" class="edge">
<title>Node1&#45;&gt;Node2</title>
<path fill="none" stroke="#191970" d="M130,-112.2977C130,-104.3834 130,-94.6043 130,-86.0759"/>
<polygon fill="#191970" stroke="#191970" points="133.5001,-85.8469 130,-75.8469 126.5001,-85.847 133.5001,-85.8469"/>
</g>
<!-- Node3 -->
<g id="node3" class="node">
<title>Node3</title>
<g id="a_node3"><a xlink:title=" ">
<polygon fill="#ffffff" stroke="#bfbfbf" points="0,-.5 0,-19.5 44,-19.5 44,-.5 0,-.5"/>
<text text-anchor="middle" x="22" y="-7.5" font-family="Helvetica,sans-Serif" font-size="10.00" fill="#000000">string</text>
</a>
</g>
</g>
<!-- Node2&#45;&gt;Node3 -->
<g id="edge2" class="edge">
<title>Node2&#45;&gt;Node3</title>
<path fill="none" stroke="#191970" d="M111.1878,-56.2455C94.1527,-47.4125 68.8425,-34.2887 49.5319,-24.2758"/>
<polygon fill="#191970" stroke="#191970" points="51.0853,-21.1388 40.5966,-19.6427 47.863,-27.353 51.0853,-21.1388"/>
</g>
<!-- Node4 -->
<g id="node4" class="node">
<title>Node4</title>
<g id="a_node4"><a xlink:title=" ">
<polygon fill="#ffffff" stroke="#bfbfbf" points="62,-.5 62,-19.5 122,-19.5 122,-.5 62,-.5"/>
<text text-anchor="middle" x="92" y="-7.5" font-family="Helvetica,sans-Serif" font-size="10.00" fill="#000000">iostream</text>
</a>
</g>
</g>
<!-- Node2&#45;&gt;Node4 -->
<g id="edge3" class="edge">
<title>Node2&#45;&gt;Node4</title>
<path fill="none" stroke="#191970" d="M123.3809,-56.2455C118.0954,-48.4564 110.5459,-37.3308 104.1762,-27.9439"/>
<polygon fill="#191970" stroke="#191970" points="107.0545,-25.9522 98.5432,-19.6427 101.2621,-29.8827 107.0545,-25.9522"/>
</g>
<!-- Node5 -->
<g id="node5" class="node">
<title>Node5</title>
<g id="a_node5"><a xlink:title=" ">
<polygon fill="#ffffff" stroke="#bfbfbf" points="140,-.5 140,-19.5 196,-19.5 196,-.5 140,-.5"/>
<text text-anchor="middle" x="168" y="-7.5" font-family="Helvetica,sans-Serif" font-size="10.00" fill="#000000">sstream</text>
</a>
</g>
</g>
<!-- Node2&#45;&gt;Node5 -->
<g id="edge4" class="edge">
<title>Node2&#45;&gt;Node5</title>
<path fill="none" stroke="#191970" d="M136.6191,-56.2455C141.9046,-48.4564 149.4541,-37.3308 155.8238,-27.9439"/>
<polygon fill="#191970" stroke="#191970" points="158.7379,-29.8827 161.4568,-19.6427 152.9455,-25.9522 158.7379,-29.8827"/>
</g>
<!-- Node6 -->
<g id="node6" class="node">
<title>Node6</title>
<g id="a_node6"><a xlink:title=" ">
<polygon fill="#ffffff" stroke="#bfbfbf" points="214.5,-.5 214.5,-19.5 259.5,-19.5 259.5,-.5 214.5,-.5"/>
<text text-anchor="middle" x="237" y="-7.5" font-family="Helvetica,sans-Serif" font-size="10.00" fill="#000000">utility</text>
</a>
</g>
</g>
<!-- Node2&#45;&gt;Node6 -->
<g id="edge5" class="edge">
<title>Node2&#45;&gt;Node6</title>
<path fill="none" stroke="#191970" d="M148.638,-56.2455C165.4386,-47.4527 190.3634,-34.4079 209.4618,-24.4125"/>
<polygon fill="#191970" stroke="#191970" points="211.3386,-27.3807 218.5756,-19.6427 208.0927,-21.1787 211.3386,-27.3807"/>
</g>
</g>
</svg>
