<?xml version="1.0" encoding="UTF-8" standalone="no"?>
<!DOCTYPE svg PUBLIC "-//W3C//DTD SVG 1.1//EN"
 "http://www.w3.org/Graphics/SVG/1.1/DTD/svg11.dtd">
<!-- Generated by graphviz version 2.40.1 (20161225.0304)
 -->
<!-- Title: hw4_print_ip/src/PrintIp/PrintIp.h Pages: 1 -->
<svg width="456pt" height="173pt"
 viewBox="0.00 0.00 456.00 173.00" xmlns="http://www.w3.org/2000/svg" xmlns:xlink="http://www.w3.org/1999/xlink">
<g id="graph0" class="graph" transform="scale(1 1) rotate(0) translate(4 169)">
<title>hw4_print_ip/src/PrintIp/PrintIp.h</title>
<polygon fill="#ffffff" stroke="transparent" points="-4,4 -4,-169 452,-169 452,4 -4,4"/>
<!-- Node10 -->
<g id="node1" class="node">
<title>Node10</title>
<polygon fill="#bfbfbf" stroke="#000000" points="149,-134.5 149,-164.5 280,-164.5 280,-134.5 149,-134.5"/>
<text text-anchor="start" x="157" y="-152.5" font-family="Helvetica,sans-Serif" font-size="10.00" fill="#000000">hw4_print_ip/src/PrintIp</text>
<text text-anchor="middle" x="214.5" y="-141.5" font-family="Helvetica,sans-Serif" font-size="10.00" fill="#000000">/PrintIp.h</text>
</g>
<!-- Node11 -->
<g id="node2" class="node">
<title>Node11</title>
<g id="a_node2"><a xlink:href="_print_ip_8cpp.html" target="_top" xlink:title="hw4_print_ip/src/PrintIp\l/PrintIp.cpp">
<polygon fill="#ffffff" stroke="#000000" points="0,-67.5 0,-97.5 131,-97.5 131,-67.5 0,-67.5"/>
<text text-anchor="start" x="8" y="-85.5" font-family="Helvetica,sans-Serif" font-size="10.00" fill="#000000">hw4_print_ip/src/PrintIp</text>
<text text-anchor="middle" x="65.5" y="-74.5" font-family="Helvetica,sans-Serif" font-size="10.00" fill="#000000">/PrintIp.cpp</text>
</a>
</g>
</g>
<!-- Node10&#45;&gt;Node11 -->
<g id="edge1" class="edge">
<title>Node10&#45;&gt;Node11</title>
<path fill="none" stroke="#191970" d="M171.8309,-130.3132C148.7325,-119.9267 120.6064,-107.2794 99.0844,-97.6017"/>
<polygon fill="#191970" stroke="#191970" points="170.5057,-133.5549 181.0615,-134.4639 173.3765,-127.1706 170.5057,-133.5549"/>
</g>
<!-- Node12 -->
<g id="node3" class="node">
<title>Node12</title>
<g id="a_node3"><a xlink:href="example_8cpp.html" target="_top" xlink:title="hw4_print_ip/src/PrintIp\lExample/example.cpp">
<polygon fill="#ffffff" stroke="#000000" points="149,-67.5 149,-97.5 280,-97.5 280,-67.5 149,-67.5"/>
<text text-anchor="start" x="157" y="-85.5" font-family="Helvetica,sans-Serif" font-size="10.00" fill="#000000">hw4_print_ip/src/PrintIp</text>
<text text-anchor="middle" x="214.5" y="-74.5" font-family="Helvetica,sans-Serif" font-size="10.00" fill="#000000">Example/example.cpp</text>
</a>
</g>
</g>
<!-- Node10&#45;&gt;Node12 -->
<g id="edge2" class="edge">
<title>Node10&#45;&gt;Node12</title>
<path fill="none" stroke="#191970" d="M214.5,-124.0249C214.5,-115.128 214.5,-105.4287 214.5,-97.6432"/>
<polygon fill="#191970" stroke="#191970" points="211.0001,-124.2966 214.5,-134.2967 218.0001,-124.2967 211.0001,-124.2966"/>
</g>
<!-- Node13 -->
<g id="node4" class="node">
<title>Node13</title>
<g id="a_node4"><a xlink:href="_print_ip_tests_8h.html" target="_top" xlink:title="hw4_print_ip/tests\l/PrintIpTests/PrintIpTests.h">
<polygon fill="#ffffff" stroke="#000000" points="298.5,-67.5 298.5,-97.5 442.5,-97.5 442.5,-67.5 298.5,-67.5"/>
<text text-anchor="start" x="306.5" y="-85.5" font-family="Helvetica,sans-Serif" font-size="10.00" fill="#000000">hw4_print_ip/tests</text>
<text text-anchor="middle" x="370.5" y="-74.5" font-family="Helvetica,sans-Serif" font-size="10.00" fill="#000000">/PrintIpTests/PrintIpTests.h</text>
</a>
</g>
</g>
<!-- Node10&#45;&gt;Node13 -->
<g id="edge3" class="edge">
<title>Node10&#45;&gt;Node13</title>
<path fill="none" stroke="#191970" d="M258.8516,-130.4516C283.0953,-120.0392 312.7045,-107.3224 335.3379,-97.6017"/>
<polygon fill="#191970" stroke="#191970" points="257.3166,-127.3016 249.5094,-134.4639 260.0791,-133.7335 257.3166,-127.3016"/>
</g>
<!-- Node14 -->
<g id="node5" class="node">
<title>Node14</title>
<g id="a_node5"><a xlink:href="_print_ip_tests_8cpp.html" target="_top" xlink:title="hw4_print_ip/tests\l/PrintIpTests/PrintIpTests.cpp">
<polygon fill="#ffffff" stroke="#000000" points="293,-.5 293,-30.5 448,-30.5 448,-.5 293,-.5"/>
<text text-anchor="start" x="301" y="-18.5" font-family="Helvetica,sans-Serif" font-size="10.00" fill="#000000">hw4_print_ip/tests</text>
<text text-anchor="middle" x="370.5" y="-7.5" font-family="Helvetica,sans-Serif" font-size="10.00" fill="#000000">/PrintIpTests/PrintIpTests.cpp</text>
</a>
</g>
</g>
<!-- Node13&#45;&gt;Node14 -->
<g id="edge4" class="edge">
<title>Node13&#45;&gt;Node14</title>
<path fill="none" stroke="#191970" d="M370.5,-57.0249C370.5,-48.128 370.5,-38.4287 370.5,-30.6432"/>
<polygon fill="#191970" stroke="#191970" points="367.0001,-57.2966 370.5,-67.2967 374.0001,-57.2967 367.0001,-57.2966"/>
</g>
</g>
</svg>
