<?xml version="1.0" encoding="UTF-8" standalone="no"?>
<!DOCTYPE svg PUBLIC "-//W3C//DTD SVG 1.1//EN"
 "http://www.w3.org/Graphics/SVG/1.1/DTD/svg11.dtd">
<!-- Generated by graphviz version 2.40.1 (20161225.0304)
 -->
<!-- Title: hw3_print_ip/PrintIp/PrintIp.h Pages: 1 -->
<svg width="220pt" height="151pt"
 viewBox="0.00 0.00 219.50 151.00" xmlns="http://www.w3.org/2000/svg" xmlns:xlink="http://www.w3.org/1999/xlink">
<g id="graph0" class="graph" transform="scale(1 1) rotate(0) translate(4 147)">
<title>hw3_print_ip/PrintIp/PrintIp.h</title>
<polygon fill="#ffffff" stroke="transparent" points="-4,4 -4,-147 215.5,-147 215.5,4 -4,4"/>
<!-- Node1 -->
<g id="node1" class="node">
<title>Node1</title>
<g id="a_node1"><a xlink:title=" ">
<polygon fill="#bfbfbf" stroke="#000000" points="51,-112.5 51,-142.5 164,-142.5 164,-112.5 51,-112.5"/>
<text text-anchor="start" x="59" y="-130.5" font-family="Helvetica,sans-Serif" font-size="10.00" fill="#000000">hw3_print_ip/PrintIp</text>
<text text-anchor="middle" x="107.5" y="-119.5" font-family="Helvetica,sans-Serif" font-size="10.00" fill="#000000">/PrintIp.h</text>
</a>
</g>
</g>
<!-- Node2 -->
<g id="node2" class="node">
<title>Node2</title>
<g id="a_node2"><a xlink:href="example_8cpp.html" target="_top" xlink:title=" ">
<polygon fill="#ffffff" stroke="#000000" points="0,-56.5 0,-75.5 101,-75.5 101,-56.5 0,-56.5"/>
<text text-anchor="middle" x="50.5" y="-63.5" font-family="Helvetica,sans-Serif" font-size="10.00" fill="#000000">../PrintIp/PrintIp.h</text>
</a>
</g>
</g>
<!-- Node1&#45;&gt;Node2 -->
<g id="edge1" class="edge">
<title>Node1&#45;&gt;Node2</title>
<path fill="none" stroke="#191970" d="M86.611,-104.9618C77.3294,-94.9475 66.8857,-83.6794 59.6264,-75.8469"/>
<polygon fill="#191970" stroke="#191970" points="84.0454,-107.3426 93.4101,-112.2977 89.1794,-102.5842 84.0454,-107.3426"/>
</g>
<!-- Node3 -->
<g id="node3" class="node">
<title>Node3</title>
<g id="a_node3"><a xlink:href="_print_ip_tests_8h.html" target="_top" xlink:title=" ">
<polygon fill="#ffffff" stroke="#000000" points="119.5,-56.5 119.5,-75.5 211.5,-75.5 211.5,-56.5 119.5,-56.5"/>
<text text-anchor="middle" x="165.5" y="-63.5" font-family="Helvetica,sans-Serif" font-size="10.00" fill="#000000">PrintIp/PrintIp.h</text>
</a>
</g>
</g>
<!-- Node1&#45;&gt;Node3 -->
<g id="edge2" class="edge">
<title>Node1&#45;&gt;Node3</title>
<path fill="none" stroke="#191970" d="M128.7555,-104.9618C138.1999,-94.9475 148.8268,-83.6794 156.2135,-75.8469"/>
<polygon fill="#191970" stroke="#191970" points="126.1519,-102.6213 121.8371,-112.2977 131.2444,-107.424 126.1519,-102.6213"/>
</g>
<!-- Node4 -->
<g id="node4" class="node">
<title>Node4</title>
<g id="a_node4"><a xlink:href="_print_ip_tests_8cpp.html" target="_top" xlink:title=" ">
<polygon fill="#ffffff" stroke="#000000" points="124.5,-.5 124.5,-19.5 206.5,-19.5 206.5,-.5 124.5,-.5"/>
<text text-anchor="middle" x="165.5" y="-7.5" font-family="Helvetica,sans-Serif" font-size="10.00" fill="#000000">PrintIpTests.h</text>
</a>
</g>
</g>
<!-- Node3&#45;&gt;Node4 -->
<g id="edge3" class="edge">
<title>Node3&#45;&gt;Node4</title>
<path fill="none" stroke="#191970" d="M165.5,-46.1575C165.5,-37.155 165.5,-26.9199 165.5,-19.6427"/>
<polygon fill="#191970" stroke="#191970" points="162.0001,-46.2455 165.5,-56.2455 169.0001,-46.2456 162.0001,-46.2455"/>
</g>
</g>
</svg>
