<?xml version="1.0" encoding="UTF-8" standalone="no"?>
<!DOCTYPE svg PUBLIC "-//W3C//DTD SVG 1.1//EN"
 "http://www.w3.org/Graphics/SVG/1.1/DTD/svg11.dtd">
<!-- Generated by graphviz version 2.40.1 (20161225.0304)
 -->
<!-- Title: hw3_print_ip/PrintIp/PrintIp.h Pages: 1 -->
<svg width="566pt" height="151pt"
 viewBox="0.00 0.00 565.50 151.00" xmlns="http://www.w3.org/2000/svg" xmlns:xlink="http://www.w3.org/1999/xlink">
<g id="graph0" class="graph" transform="scale(1 1) rotate(0) translate(4 147)">
<title>hw3_print_ip/PrintIp/PrintIp.h</title>
<polygon fill="#ffffff" stroke="transparent" points="-4,4 -4,-147 561.5,-147 561.5,4 -4,4"/>
<!-- Node1 -->
<g id="node1" class="node">
<title>Node1</title>
<g id="a_node1"><a xlink:title=" ">
<polygon fill="#bfbfbf" stroke="#000000" points="247,-112.5 247,-142.5 360,-142.5 360,-112.5 247,-112.5"/>
<text text-anchor="start" x="255" y="-130.5" font-family="Helvetica,sans-Serif" font-size="10.00" fill="#000000">hw3_print_ip/PrintIp</text>
<text text-anchor="middle" x="303.5" y="-119.5" font-family="Helvetica,sans-Serif" font-size="10.00" fill="#000000">/PrintIp.h</text>
</a>
</g>
</g>
<!-- Node2 -->
<g id="node2" class="node">
<title>Node2</title>
<g id="a_node2"><a xlink:href="_bits_8h.html" target="_top" xlink:title=" ">
<polygon fill="#ffffff" stroke="#000000" points="4.5,-56.5 4.5,-75.5 48.5,-75.5 48.5,-56.5 4.5,-56.5"/>
<text text-anchor="middle" x="26.5" y="-63.5" font-family="Helvetica,sans-Serif" font-size="10.00" fill="#000000">Bits.h</text>
</a>
</g>
</g>
<!-- Node1&#45;&gt;Node2 -->
<g id="edge1" class="edge">
<title>Node1&#45;&gt;Node2</title>
<path fill="none" stroke="#191970" d="M246.9233,-117.4163C199.0557,-108.4865 128.506,-94.3928 58.6218,-76.1026"/>
<polygon fill="#191970" stroke="#191970" points="59.3304,-72.6696 48.7676,-73.494 57.539,-79.4366 59.3304,-72.6696"/>
</g>
<!-- Node4 -->
<g id="node4" class="node">
<title>Node4</title>
<g id="a_node4"><a xlink:href="_type_traits_8h.html" target="_top" xlink:title=" ">
<polygon fill="#ffffff" stroke="#000000" points="66.5,-56.5 66.5,-75.5 192.5,-75.5 192.5,-56.5 66.5,-56.5"/>
<text text-anchor="middle" x="129.5" y="-63.5" font-family="Helvetica,sans-Serif" font-size="10.00" fill="#000000">TypeTraits/TypeTraits.h</text>
</a>
</g>
</g>
<!-- Node1&#45;&gt;Node4 -->
<g id="edge3" class="edge">
<title>Node1&#45;&gt;Node4</title>
<path fill="none" stroke="#191970" d="M260.9348,-112.4554C231.9025,-102.194 193.8459,-88.7429 166.1591,-78.9571"/>
<polygon fill="#191970" stroke="#191970" points="167.0586,-75.5629 156.4638,-75.5303 164.7259,-82.1628 167.0586,-75.5629"/>
</g>
<!-- Node5 -->
<g id="node5" class="node">
<title>Node5</title>
<g id="a_node5"><a xlink:title=" ">
<polygon fill="#ffffff" stroke="#bfbfbf" points="140,-.5 140,-19.5 209,-19.5 209,-.5 140,-.5"/>
<text text-anchor="middle" x="174.5" y="-7.5" font-family="Helvetica,sans-Serif" font-size="10.00" fill="#000000">type_traits</text>
</a>
</g>
</g>
<!-- Node1&#45;&gt;Node5 -->
<g id="edge8" class="edge">
<title>Node1&#45;&gt;Node5</title>
<path fill="none" stroke="#191970" d="M284.0604,-112.4348C271.3896,-102.416 254.6433,-88.7939 240.5,-76 222.8196,-60.0064 203.6623,-40.5971 190.5653,-26.9806"/>
<polygon fill="#191970" stroke="#191970" points="193.0501,-24.5148 183.6112,-19.7024 187.9889,-29.3506 193.0501,-24.5148"/>
</g>
<!-- Node6 -->
<g id="node6" class="node">
<title>Node6</title>
<g id="a_node6"><a xlink:title=" ">
<polygon fill="#ffffff" stroke="#bfbfbf" points="249,-56.5 249,-75.5 296,-75.5 296,-56.5 249,-56.5"/>
<text text-anchor="middle" x="272.5" y="-63.5" font-family="Helvetica,sans-Serif" font-size="10.00" fill="#000000">vector</text>
</a>
</g>
</g>
<!-- Node1&#45;&gt;Node6 -->
<g id="edge5" class="edge">
<title>Node1&#45;&gt;Node6</title>
<path fill="none" stroke="#191970" d="M295.8371,-112.2977C291.6684,-104.0277 286.4735,-93.7215 282.0439,-84.9339"/>
<polygon fill="#191970" stroke="#191970" points="285.0901,-83.2012 277.4635,-75.8469 278.8393,-86.3521 285.0901,-83.2012"/>
</g>
<!-- Node7 -->
<g id="node7" class="node">
<title>Node7</title>
<g id="a_node7"><a xlink:title=" ">
<polygon fill="#ffffff" stroke="#bfbfbf" points="314,-56.5 314,-75.5 355,-75.5 355,-56.5 314,-56.5"/>
<text text-anchor="middle" x="334.5" y="-63.5" font-family="Helvetica,sans-Serif" font-size="10.00" fill="#000000">tuple</text>
</a>
</g>
</g>
<!-- Node1&#45;&gt;Node7 -->
<g id="edge6" class="edge">
<title>Node1&#45;&gt;Node7</title>
<path fill="none" stroke="#191970" d="M311.1629,-112.2977C315.3316,-104.0277 320.5265,-93.7215 324.9561,-84.9339"/>
<polygon fill="#191970" stroke="#191970" points="328.1607,-86.3521 329.5365,-75.8469 321.9099,-83.2012 328.1607,-86.3521"/>
</g>
<!-- Node8 -->
<g id="node8" class="node">
<title>Node8</title>
<g id="a_node8"><a xlink:title=" ">
<polygon fill="#ffffff" stroke="#bfbfbf" points="373.5,-56.5 373.5,-75.5 417.5,-75.5 417.5,-56.5 373.5,-56.5"/>
<text text-anchor="middle" x="395.5" y="-63.5" font-family="Helvetica,sans-Serif" font-size="10.00" fill="#000000">string</text>
</a>
</g>
</g>
<!-- Node1&#45;&gt;Node8 -->
<g id="edge7" class="edge">
<title>Node1&#45;&gt;Node8</title>
<path fill="none" stroke="#191970" d="M326.2416,-112.2977C340.2967,-102.9022 358.283,-90.8787 372.4036,-81.4395"/>
<polygon fill="#191970" stroke="#191970" points="374.6759,-84.1305 381.0444,-75.6633 370.7857,-78.311 374.6759,-84.1305"/>
</g>
<!-- Node9 -->
<g id="node9" class="node">
<title>Node9</title>
<g id="a_node9"><a xlink:title=" ">
<polygon fill="#ffffff" stroke="#bfbfbf" points="435.5,-56.5 435.5,-75.5 479.5,-75.5 479.5,-56.5 435.5,-56.5"/>
<text text-anchor="middle" x="457.5" y="-63.5" font-family="Helvetica,sans-Serif" font-size="10.00" fill="#000000">limits</text>
</a>
</g>
</g>
<!-- Node1&#45;&gt;Node9 -->
<g id="edge9" class="edge">
<title>Node1&#45;&gt;Node9</title>
<path fill="none" stroke="#191970" d="M341.1726,-112.4554C367.1559,-102.079 401.3062,-88.441 425.8751,-78.6294"/>
<polygon fill="#191970" stroke="#191970" points="427.4493,-81.7696 435.4381,-74.8104 424.8532,-75.2688 427.4493,-81.7696"/>
</g>
<!-- Node10 -->
<g id="node10" class="node">
<title>Node10</title>
<g id="a_node10"><a xlink:title=" ">
<polygon fill="#ffffff" stroke="#bfbfbf" points="497.5,-56.5 497.5,-75.5 557.5,-75.5 557.5,-56.5 497.5,-56.5"/>
<text text-anchor="middle" x="527.5" y="-63.5" font-family="Helvetica,sans-Serif" font-size="10.00" fill="#000000">iostream</text>
</a>
</g>
</g>
<!-- Node1&#45;&gt;Node10 -->
<g id="edge10" class="edge">
<title>Node1&#45;&gt;Node10</title>
<path fill="none" stroke="#191970" d="M358.2966,-112.4554C398.3126,-101.4689 451.6458,-86.826 487.6537,-76.9399"/>
<polygon fill="#191970" stroke="#191970" points="488.6084,-80.3074 497.3249,-74.2847 486.7551,-73.5572 488.6084,-80.3074"/>
</g>
<!-- Node3 -->
<g id="node3" class="node">
<title>Node3</title>
<g id="a_node3"><a xlink:title=" ">
<polygon fill="#ffffff" stroke="#bfbfbf" points="0,-.5 0,-19.5 53,-19.5 53,-.5 0,-.5"/>
<text text-anchor="middle" x="26.5" y="-7.5" font-family="Helvetica,sans-Serif" font-size="10.00" fill="#000000">stdint.h</text>
</a>
</g>
</g>
<!-- Node2&#45;&gt;Node3 -->
<g id="edge2" class="edge">
<title>Node2&#45;&gt;Node3</title>
<path fill="none" stroke="#191970" d="M26.5,-56.2455C26.5,-48.9382 26.5,-38.6944 26.5,-29.7046"/>
<polygon fill="#191970" stroke="#191970" points="30.0001,-29.6426 26.5,-19.6427 23.0001,-29.6427 30.0001,-29.6426"/>
</g>
<!-- Node4&#45;&gt;Node5 -->
<g id="edge4" class="edge">
<title>Node4&#45;&gt;Node5</title>
<path fill="none" stroke="#191970" d="M137.3384,-56.2455C143.662,-48.3761 152.7224,-37.101 160.3136,-27.6542"/>
<polygon fill="#191970" stroke="#191970" points="163.2158,-29.6302 166.7514,-19.6427 157.7592,-25.2454 163.2158,-29.6302"/>
</g>
</g>
</svg>
