<?xml version="1.0" encoding="UTF-8" standalone="no"?>
<!DOCTYPE svg PUBLIC "-//W3C//DTD SVG 1.1//EN"
 "http://www.w3.org/Graphics/SVG/1.1/DTD/svg11.dtd">
<!-- Generated by graphviz version 2.40.1 (20161225.0304)
 -->
<!-- Title: hw3_print_ip/PrintIp/PrintBits.h Pages: 1 -->
<svg width="135pt" height="151pt"
 viewBox="0.00 0.00 134.50 151.00" xmlns="http://www.w3.org/2000/svg" xmlns:xlink="http://www.w3.org/1999/xlink">
<g id="graph0" class="graph" transform="scale(1 1) rotate(0) translate(4 147)">
<title>hw3_print_ip/PrintIp/PrintBits.h</title>
<polygon fill="#ffffff" stroke="transparent" points="-4,4 -4,-147 130.5,-147 130.5,4 -4,4"/>
<!-- Node1 -->
<g id="node1" class="node">
<title>Node1</title>
<g id="a_node1"><a xlink:title=" ">
<polygon fill="#bfbfbf" stroke="#000000" points="5,-112.5 5,-142.5 118,-142.5 118,-112.5 5,-112.5"/>
<text text-anchor="start" x="13" y="-130.5" font-family="Helvetica,sans-Serif" font-size="10.00" fill="#000000">hw3_print_ip/PrintIp</text>
<text text-anchor="middle" x="61.5" y="-119.5" font-family="Helvetica,sans-Serif" font-size="10.00" fill="#000000">/PrintBits.h</text>
</a>
</g>
</g>
<!-- Node2 -->
<g id="node2" class="node">
<title>Node2</title>
<g id="a_node2"><a xlink:href="_bits_8h.html" target="_top" xlink:title=" ">
<polygon fill="#ffffff" stroke="#000000" points="4.5,-56.5 4.5,-75.5 48.5,-75.5 48.5,-56.5 4.5,-56.5"/>
<text text-anchor="middle" x="26.5" y="-63.5" font-family="Helvetica,sans-Serif" font-size="10.00" fill="#000000">Bits.h</text>
</a>
</g>
</g>
<!-- Node1&#45;&gt;Node2 -->
<g id="edge1" class="edge">
<title>Node1&#45;&gt;Node2</title>
<path fill="none" stroke="#191970" d="M52.8483,-112.2977C48.0912,-103.9388 42.1502,-93.4997 37.1143,-84.6509"/>
<polygon fill="#191970" stroke="#191970" points="40.0921,-82.8069 32.1039,-75.8469 34.0083,-86.2692 40.0921,-82.8069"/>
</g>
<!-- Node4 -->
<g id="node4" class="node">
<title>Node4</title>
<g id="a_node4"><a xlink:title=" ">
<polygon fill="#ffffff" stroke="#bfbfbf" points="66.5,-56.5 66.5,-75.5 126.5,-75.5 126.5,-56.5 66.5,-56.5"/>
<text text-anchor="middle" x="96.5" y="-63.5" font-family="Helvetica,sans-Serif" font-size="10.00" fill="#000000">iostream</text>
</a>
</g>
</g>
<!-- Node1&#45;&gt;Node4 -->
<g id="edge3" class="edge">
<title>Node1&#45;&gt;Node4</title>
<path fill="none" stroke="#191970" d="M70.1517,-112.2977C74.9088,-103.9388 80.8498,-93.4997 85.8857,-84.6509"/>
<polygon fill="#191970" stroke="#191970" points="88.9917,-86.2692 90.8961,-75.8469 82.9079,-82.8069 88.9917,-86.2692"/>
</g>
<!-- Node3 -->
<g id="node3" class="node">
<title>Node3</title>
<g id="a_node3"><a xlink:title=" ">
<polygon fill="#ffffff" stroke="#bfbfbf" points="0,-.5 0,-19.5 53,-19.5 53,-.5 0,-.5"/>
<text text-anchor="middle" x="26.5" y="-7.5" font-family="Helvetica,sans-Serif" font-size="10.00" fill="#000000">stdint.h</text>
</a>
</g>
</g>
<!-- Node2&#45;&gt;Node3 -->
<g id="edge2" class="edge">
<title>Node2&#45;&gt;Node3</title>
<path fill="none" stroke="#191970" d="M26.5,-56.2455C26.5,-48.9382 26.5,-38.6944 26.5,-29.7046"/>
<polygon fill="#191970" stroke="#191970" points="30.0001,-29.6426 26.5,-19.6427 23.0001,-29.6427 30.0001,-29.6426"/>
</g>
</g>
</svg>
