<?xml version="1.0" encoding="UTF-8" standalone="no"?>
<!DOCTYPE svg PUBLIC "-//W3C//DTD SVG 1.1//EN"
 "http://www.w3.org/Graphics/SVG/1.1/DTD/svg11.dtd">
<!-- Generated by graphviz version 2.40.1 (20161225.0304)
 -->
<!-- Title: hw3_print_ip/PrintIp/PrintIp.h Pages: 1 -->
<svg width="286pt" height="151pt"
 viewBox="0.00 0.00 285.50 151.00" xmlns="http://www.w3.org/2000/svg" xmlns:xlink="http://www.w3.org/1999/xlink">
<g id="graph0" class="graph" transform="scale(1 1) rotate(0) translate(4 147)">
<title>hw3_print_ip/PrintIp/PrintIp.h</title>
<polygon fill="#ffffff" stroke="transparent" points="-4,4 -4,-147 281.5,-147 281.5,4 -4,4"/>
<!-- Node1 -->
<g id="node1" class="node">
<title>Node1</title>
<g id="a_node1"><a xlink:title=" ">
<polygon fill="#bfbfbf" stroke="#000000" points="65,-112.5 65,-142.5 178,-142.5 178,-112.5 65,-112.5"/>
<text text-anchor="start" x="73" y="-130.5" font-family="Helvetica,sans-Serif" font-size="10.00" fill="#000000">hw3_print_ip/PrintIp</text>
<text text-anchor="middle" x="121.5" y="-119.5" font-family="Helvetica,sans-Serif" font-size="10.00" fill="#000000">/PrintIp.h</text>
</a>
</g>
</g>
<!-- Node2 -->
<g id="node2" class="node">
<title>Node2</title>
<g id="a_node2"><a xlink:href="_print_ip_8cpp.html" target="_top" xlink:title=" ">
<polygon fill="#ffffff" stroke="#000000" points="0,-56.5 0,-75.5 57,-75.5 57,-56.5 0,-56.5"/>
<text text-anchor="middle" x="28.5" y="-63.5" font-family="Helvetica,sans-Serif" font-size="10.00" fill="#000000">PrintIp.h</text>
</a>
</g>
</g>
<!-- Node1&#45;&gt;Node2 -->
<g id="edge1" class="edge">
<title>Node1&#45;&gt;Node2</title>
<path fill="none" stroke="#191970" d="M90.0144,-106.6789C74.1376,-96.1797 55.6447,-83.9505 43.1128,-75.6633"/>
<polygon fill="#191970" stroke="#191970" points="88.2395,-109.7012 98.5112,-112.2977 92.1007,-103.8624 88.2395,-109.7012"/>
</g>
<!-- Node3 -->
<g id="node3" class="node">
<title>Node3</title>
<g id="a_node3"><a xlink:href="example_8cpp.html" target="_top" xlink:title=" ">
<polygon fill="#ffffff" stroke="#000000" points="75.5,-56.5 75.5,-75.5 167.5,-75.5 167.5,-56.5 75.5,-56.5"/>
<text text-anchor="middle" x="121.5" y="-63.5" font-family="Helvetica,sans-Serif" font-size="10.00" fill="#000000">PrintIp/PrintIp.h</text>
</a>
</g>
</g>
<!-- Node1&#45;&gt;Node3 -->
<g id="edge2" class="edge">
<title>Node1&#45;&gt;Node3</title>
<path fill="none" stroke="#191970" d="M121.5,-102.2849C121.5,-92.9858 121.5,-82.9883 121.5,-75.8469"/>
<polygon fill="#191970" stroke="#191970" points="118.0001,-102.2977 121.5,-112.2977 125.0001,-102.2978 118.0001,-102.2977"/>
</g>
<!-- Node4 -->
<g id="node4" class="node">
<title>Node4</title>
<g id="a_node4"><a xlink:href="_print_ip_tests_8h.html" target="_top" xlink:title=" ">
<polygon fill="#ffffff" stroke="#000000" points="185.5,-56.5 185.5,-75.5 277.5,-75.5 277.5,-56.5 185.5,-56.5"/>
<text text-anchor="middle" x="231.5" y="-63.5" font-family="Helvetica,sans-Serif" font-size="10.00" fill="#000000">PrintIp/PrintIp.h</text>
</a>
</g>
</g>
<!-- Node1&#45;&gt;Node4 -->
<g id="edge3" class="edge">
<title>Node1&#45;&gt;Node4</title>
<path fill="none" stroke="#191970" d="M157.2204,-107.5291C176.4284,-96.79 199.2281,-84.0429 214.4539,-75.5303"/>
<polygon fill="#191970" stroke="#191970" points="155.4295,-104.5204 148.409,-112.4554 158.8455,-110.6303 155.4295,-104.5204"/>
</g>
<!-- Node5 -->
<g id="node5" class="node">
<title>Node5</title>
<g id="a_node5"><a xlink:href="_print_ip_tests_8cpp.html" target="_top" xlink:title=" ">
<polygon fill="#ffffff" stroke="#000000" points="190.5,-.5 190.5,-19.5 272.5,-19.5 272.5,-.5 190.5,-.5"/>
<text text-anchor="middle" x="231.5" y="-7.5" font-family="Helvetica,sans-Serif" font-size="10.00" fill="#000000">PrintIpTests.h</text>
</a>
</g>
</g>
<!-- Node4&#45;&gt;Node5 -->
<g id="edge4" class="edge">
<title>Node4&#45;&gt;Node5</title>
<path fill="none" stroke="#191970" d="M231.5,-46.1575C231.5,-37.155 231.5,-26.9199 231.5,-19.6427"/>
<polygon fill="#191970" stroke="#191970" points="228.0001,-46.2455 231.5,-56.2455 235.0001,-46.2456 228.0001,-46.2455"/>
</g>
</g>
</svg>
