<?xml version="1.0" encoding="UTF-8" standalone="no"?>
<!DOCTYPE svg PUBLIC "-//W3C//DTD SVG 1.1//EN"
 "http://www.w3.org/Graphics/SVG/1.1/DTD/svg11.dtd">
<!-- Generated by graphviz version 2.40.1 (20161225.0304)
 -->
<!-- Title: hw4_print_ip/src/PrintIp/PrintIp.cpp Pages: 1 -->
<svg width="566pt" height="207pt"
 viewBox="0.00 0.00 565.50 207.00" xmlns="http://www.w3.org/2000/svg" xmlns:xlink="http://www.w3.org/1999/xlink">
<g id="graph0" class="graph" transform="scale(1 1) rotate(0) translate(4 203)">
<title>hw4_print_ip/src/PrintIp/PrintIp.cpp</title>
<polygon fill="#ffffff" stroke="transparent" points="-4,4 -4,-203 561.5,-203 561.5,4 -4,4"/>
<!-- Node0 -->
<g id="node1" class="node">
<title>Node0</title>
<polygon fill="#bfbfbf" stroke="#000000" points="297,-168.5 297,-198.5 428,-198.5 428,-168.5 297,-168.5"/>
<text text-anchor="start" x="305" y="-186.5" font-family="Helvetica,sans-Serif" font-size="10.00" fill="#000000">hw4_print_ip/src/PrintIp</text>
<text text-anchor="middle" x="362.5" y="-175.5" font-family="Helvetica,sans-Serif" font-size="10.00" fill="#000000">/PrintIp.cpp</text>
</g>
<!-- Node1 -->
<g id="node2" class="node">
<title>Node1</title>
<g id="a_node2"><a xlink:href="_print_ip_8h.html" target="_top" xlink:title="PrintIp.h">
<polygon fill="#ffffff" stroke="#000000" points="306,-112.5 306,-131.5 363,-131.5 363,-112.5 306,-112.5"/>
<text text-anchor="middle" x="334.5" y="-119.5" font-family="Helvetica,sans-Serif" font-size="10.00" fill="#000000">PrintIp.h</text>
</a>
</g>
</g>
<!-- Node0&#45;&gt;Node1 -->
<g id="edge1" class="edge">
<title>Node0&#45;&gt;Node1</title>
<path fill="none" stroke="#191970" d="M355.5786,-168.2977C351.8539,-160.1166 347.222,-149.943 343.2496,-141.2179"/>
<polygon fill="#191970" stroke="#191970" points="346.3122,-139.4978 338.9832,-131.8469 339.9414,-142.3983 346.3122,-139.4978"/>
</g>
<!-- Node10 -->
<g id="node11" class="node">
<title>Node10</title>
<polygon fill="#ffffff" stroke="#bfbfbf" points="497.5,-56.5 497.5,-75.5 557.5,-75.5 557.5,-56.5 497.5,-56.5"/>
<text text-anchor="middle" x="527.5" y="-63.5" font-family="Helvetica,sans-Serif" font-size="10.00" fill="#000000">iostream</text>
</g>
<!-- Node0&#45;&gt;Node10 -->
<g id="edge12" class="edge">
<title>Node0&#45;&gt;Node10</title>
<path fill="none" stroke="#191970" d="M383.7331,-168.3795C415.2384,-145.9439 474.0528,-104.0609 505.8162,-81.4415"/>
<polygon fill="#191970" stroke="#191970" points="507.8973,-84.2563 514.0127,-75.6046 503.8367,-78.5544 507.8973,-84.2563"/>
</g>
<!-- Node2 -->
<g id="node3" class="node">
<title>Node2</title>
<g id="a_node3"><a xlink:href="_bits_8h.html" target="_top" xlink:title="Bits.h">
<polygon fill="#ffffff" stroke="#000000" points="4.5,-56.5 4.5,-75.5 48.5,-75.5 48.5,-56.5 4.5,-56.5"/>
<text text-anchor="middle" x="26.5" y="-63.5" font-family="Helvetica,sans-Serif" font-size="10.00" fill="#000000">Bits.h</text>
</a>
</g>
</g>
<!-- Node1&#45;&gt;Node2 -->
<g id="edge2" class="edge">
<title>Node1&#45;&gt;Node2</title>
<path fill="none" stroke="#191970" d="M305.9086,-118.6659C257.0245,-112.6631 154.1607,-98.7162 58.5604,-75.981"/>
<polygon fill="#191970" stroke="#191970" points="59.2812,-72.5545 48.7388,-73.6075 57.6368,-79.3587 59.2812,-72.5545"/>
</g>
<!-- Node4 -->
<g id="node5" class="node">
<title>Node4</title>
<g id="a_node5"><a xlink:href="_type_traits_8h.html" target="_top" xlink:title="TypeTraits/TypeTraits.h">
<polygon fill="#ffffff" stroke="#000000" points="66.5,-56.5 66.5,-75.5 192.5,-75.5 192.5,-56.5 66.5,-56.5"/>
<text text-anchor="middle" x="129.5" y="-63.5" font-family="Helvetica,sans-Serif" font-size="10.00" fill="#000000">TypeTraits/TypeTraits.h</text>
</a>
</g>
</g>
<!-- Node1&#45;&gt;Node4 -->
<g id="edge4" class="edge">
<title>Node1&#45;&gt;Node4</title>
<path fill="none" stroke="#191970" d="M305.9956,-114.2134C271.9181,-104.9044 214.4754,-89.2128 174.4109,-78.2683"/>
<polygon fill="#191970" stroke="#191970" points="175.1931,-74.8538 164.6242,-75.5949 173.3484,-81.6064 175.1931,-74.8538"/>
</g>
<!-- Node5 -->
<g id="node6" class="node">
<title>Node5</title>
<polygon fill="#ffffff" stroke="#bfbfbf" points="140,-.5 140,-19.5 209,-19.5 209,-.5 140,-.5"/>
<text text-anchor="middle" x="174.5" y="-7.5" font-family="Helvetica,sans-Serif" font-size="10.00" fill="#000000">type_traits</text>
</g>
<!-- Node1&#45;&gt;Node5 -->
<g id="edge9" class="edge">
<title>Node1&#45;&gt;Node5</title>
<path fill="none" stroke="#191970" d="M308.9972,-112.4539C289.0854,-104.358 261.2438,-91.5883 239.5,-76 219.8331,-61.9006 200.8297,-41.5745 188.5042,-27.2122"/>
<polygon fill="#191970" stroke="#191970" points="191.1733,-24.9481 182.0643,-19.5373 185.8109,-29.4476 191.1733,-24.9481"/>
</g>
<!-- Node6 -->
<g id="node7" class="node">
<title>Node6</title>
<polygon fill="#ffffff" stroke="#bfbfbf" points="249,-56.5 249,-75.5 296,-75.5 296,-56.5 249,-56.5"/>
<text text-anchor="middle" x="272.5" y="-63.5" font-family="Helvetica,sans-Serif" font-size="10.00" fill="#000000">vector</text>
</g>
<!-- Node1&#45;&gt;Node6 -->
<g id="edge6" class="edge">
<title>Node1&#45;&gt;Node6</title>
<path fill="none" stroke="#191970" d="M323.7004,-112.2455C314.6322,-104.0549 301.4794,-92.1749 290.7755,-82.5069"/>
<polygon fill="#191970" stroke="#191970" points="292.9429,-79.7482 283.1758,-75.6427 288.2509,-84.9429 292.9429,-79.7482"/>
</g>
<!-- Node7 -->
<g id="node8" class="node">
<title>Node7</title>
<polygon fill="#ffffff" stroke="#bfbfbf" points="314,-56.5 314,-75.5 355,-75.5 355,-56.5 314,-56.5"/>
<text text-anchor="middle" x="334.5" y="-63.5" font-family="Helvetica,sans-Serif" font-size="10.00" fill="#000000">tuple</text>
</g>
<!-- Node1&#45;&gt;Node7 -->
<g id="edge7" class="edge">
<title>Node1&#45;&gt;Node7</title>
<path fill="none" stroke="#191970" d="M334.5,-112.2455C334.5,-104.9382 334.5,-94.6944 334.5,-85.7046"/>
<polygon fill="#191970" stroke="#191970" points="338.0001,-85.6426 334.5,-75.6427 331.0001,-85.6427 338.0001,-85.6426"/>
</g>
<!-- Node8 -->
<g id="node9" class="node">
<title>Node8</title>
<polygon fill="#ffffff" stroke="#bfbfbf" points="373.5,-56.5 373.5,-75.5 417.5,-75.5 417.5,-56.5 373.5,-56.5"/>
<text text-anchor="middle" x="395.5" y="-63.5" font-family="Helvetica,sans-Serif" font-size="10.00" fill="#000000">string</text>
</g>
<!-- Node1&#45;&gt;Node8 -->
<g id="edge8" class="edge">
<title>Node1&#45;&gt;Node8</title>
<path fill="none" stroke="#191970" d="M345.1254,-112.2455C354.0473,-104.0549 366.988,-92.1749 377.5192,-82.5069"/>
<polygon fill="#191970" stroke="#191970" points="379.9968,-84.9837 384.9964,-75.6427 375.2629,-79.8271 379.9968,-84.9837"/>
</g>
<!-- Node9 -->
<g id="node10" class="node">
<title>Node9</title>
<polygon fill="#ffffff" stroke="#bfbfbf" points="435.5,-56.5 435.5,-75.5 479.5,-75.5 479.5,-56.5 435.5,-56.5"/>
<text text-anchor="middle" x="457.5" y="-63.5" font-family="Helvetica,sans-Serif" font-size="10.00" fill="#000000">limits</text>
</g>
<!-- Node1&#45;&gt;Node9 -->
<g id="edge10" class="edge">
<title>Node1&#45;&gt;Node9</title>
<path fill="none" stroke="#191970" d="M355.6445,-112.3733C375.3892,-103.3838 405.0698,-89.8706 427.3055,-79.7471"/>
<polygon fill="#191970" stroke="#191970" points="428.9806,-82.8302 436.6315,-75.5011 426.08,-76.4594 428.9806,-82.8302"/>
</g>
<!-- Node1&#45;&gt;Node10 -->
<g id="edge11" class="edge">
<title>Node1&#45;&gt;Node10</title>
<path fill="none" stroke="#191970" d="M363.3941,-113.6162C396.3633,-104.05 450.4904,-88.3448 487.5007,-77.606"/>
<polygon fill="#191970" stroke="#191970" points="488.8253,-80.8661 497.4538,-74.7181 486.8746,-74.1434 488.8253,-80.8661"/>
</g>
<!-- Node3 -->
<g id="node4" class="node">
<title>Node3</title>
<polygon fill="#ffffff" stroke="#bfbfbf" points="0,-.5 0,-19.5 53,-19.5 53,-.5 0,-.5"/>
<text text-anchor="middle" x="26.5" y="-7.5" font-family="Helvetica,sans-Serif" font-size="10.00" fill="#000000">stdint.h</text>
</g>
<!-- Node2&#45;&gt;Node3 -->
<g id="edge3" class="edge">
<title>Node2&#45;&gt;Node3</title>
<path fill="none" stroke="#191970" d="M26.5,-56.2455C26.5,-48.9382 26.5,-38.6944 26.5,-29.7046"/>
<polygon fill="#191970" stroke="#191970" points="30.0001,-29.6426 26.5,-19.6427 23.0001,-29.6427 30.0001,-29.6426"/>
</g>
<!-- Node4&#45;&gt;Node5 -->
<g id="edge5" class="edge">
<title>Node4&#45;&gt;Node5</title>
<path fill="none" stroke="#191970" d="M137.3384,-56.2455C143.662,-48.3761 152.7224,-37.101 160.3136,-27.6542"/>
<polygon fill="#191970" stroke="#191970" points="163.2158,-29.6302 166.7514,-19.6427 157.7592,-25.2454 163.2158,-29.6302"/>
</g>
</g>
</svg>
