<?xml version="1.0" encoding="UTF-8" standalone="no"?>
<!DOCTYPE svg PUBLIC "-//W3C//DTD SVG 1.1//EN"
 "http://www.w3.org/Graphics/SVG/1.1/DTD/svg11.dtd">
<!-- Generated by graphviz version 2.40.1 (20161225.0304)
 -->
<!-- Title: hw2_allocator/ReserveAllocator/ReserveAllocator.h Pages: 1 -->
<svg width="467pt" height="162pt"
 viewBox="0.00 0.00 467.00 162.00" xmlns="http://www.w3.org/2000/svg" xmlns:xlink="http://www.w3.org/1999/xlink">
<g id="graph0" class="graph" transform="scale(1 1) rotate(0) translate(4 158)">
<title>hw2_allocator/ReserveAllocator/ReserveAllocator.h</title>
<polygon fill="#ffffff" stroke="transparent" points="-4,4 -4,-158 463,-158 463,4 -4,4"/>
<!-- Node1 -->
<g id="node1" class="node">
<title>Node1</title>
<g id="a_node1"><a xlink:title=" ">
<polygon fill="#bfbfbf" stroke="#000000" points="144.5,-123.5 144.5,-153.5 314.5,-153.5 314.5,-123.5 144.5,-123.5"/>
<text text-anchor="start" x="152.5" y="-141.5" font-family="Helvetica,sans-Serif" font-size="10.00" fill="#000000">hw2_allocator/ReserveAllocator</text>
<text text-anchor="middle" x="229.5" y="-130.5" font-family="Helvetica,sans-Serif" font-size="10.00" fill="#000000">/ReserveAllocator.h</text>
</a>
</g>
</g>
<!-- Node2 -->
<g id="node2" class="node">
<title>Node2</title>
<g id="a_node2"><a xlink:href="hw2__allocator_2_reserve_allocator_example_2main_8cpp.html" target="_top" xlink:title=" ">
<polygon fill="#ffffff" stroke="#000000" points="0,-56.5 0,-86.5 141,-86.5 141,-56.5 0,-56.5"/>
<text text-anchor="start" x="8" y="-74.5" font-family="Helvetica,sans-Serif" font-size="10.00" fill="#000000">ReserveAllocator/Reserve</text>
<text text-anchor="middle" x="70.5" y="-63.5" font-family="Helvetica,sans-Serif" font-size="10.00" fill="#000000">Allocator.h</text>
</a>
</g>
</g>
<!-- Node1&#45;&gt;Node2 -->
<g id="edge1" class="edge">
<title>Node1&#45;&gt;Node2</title>
<path fill="none" stroke="#191970" d="M184.2955,-119.4516C159.5855,-109.0392 129.4069,-96.3224 106.3383,-86.6017"/>
<polygon fill="#191970" stroke="#191970" points="183.2429,-122.806 193.8173,-123.4639 185.9612,-116.3553 183.2429,-122.806"/>
</g>
<!-- Node3 -->
<g id="node3" class="node">
<title>Node3</title>
<g id="a_node3"><a xlink:href="_list_tests_8h.html" target="_top" xlink:title=" ">
<polygon fill="#ffffff" stroke="#000000" points="159,-56.5 159,-86.5 300,-86.5 300,-56.5 159,-56.5"/>
<text text-anchor="start" x="167" y="-74.5" font-family="Helvetica,sans-Serif" font-size="10.00" fill="#000000">ReserveAllocator/Reserve</text>
<text text-anchor="middle" x="229.5" y="-63.5" font-family="Helvetica,sans-Serif" font-size="10.00" fill="#000000">Allocator.h</text>
</a>
</g>
</g>
<!-- Node1&#45;&gt;Node3 -->
<g id="edge2" class="edge">
<title>Node1&#45;&gt;Node3</title>
<path fill="none" stroke="#191970" d="M229.5,-113.0249C229.5,-104.128 229.5,-94.4287 229.5,-86.6432"/>
<polygon fill="#191970" stroke="#191970" points="226.0001,-113.2966 229.5,-123.2967 233.0001,-113.2967 226.0001,-113.2966"/>
</g>
<!-- Node5 -->
<g id="node5" class="node">
<title>Node5</title>
<g id="a_node5"><a xlink:href="_reserve_allocator_tests_8h.html" target="_top" xlink:title=" ">
<polygon fill="#ffffff" stroke="#000000" points="318,-56.5 318,-86.5 459,-86.5 459,-56.5 318,-56.5"/>
<text text-anchor="start" x="326" y="-74.5" font-family="Helvetica,sans-Serif" font-size="10.00" fill="#000000">ReserveAllocator/Reserve</text>
<text text-anchor="middle" x="388.5" y="-63.5" font-family="Helvetica,sans-Serif" font-size="10.00" fill="#000000">Allocator.h</text>
</a>
</g>
</g>
<!-- Node1&#45;&gt;Node5 -->
<g id="edge4" class="edge">
<title>Node1&#45;&gt;Node5</title>
<path fill="none" stroke="#191970" d="M274.7045,-119.4516C299.4145,-109.0392 329.5931,-96.3224 352.6617,-86.6017"/>
<polygon fill="#191970" stroke="#191970" points="273.0388,-116.3553 265.1827,-123.4639 275.7571,-122.806 273.0388,-116.3553"/>
</g>
<!-- Node4 -->
<g id="node4" class="node">
<title>Node4</title>
<g id="a_node4"><a xlink:href="_reserve_allocator_tests_8cpp.html" target="_top" xlink:title=" ">
<polygon fill="#ffffff" stroke="#000000" points="274.5,-.5 274.5,-19.5 342.5,-19.5 342.5,-.5 274.5,-.5"/>
<text text-anchor="middle" x="308.5" y="-7.5" font-family="Helvetica,sans-Serif" font-size="10.00" fill="#000000">ListTests.h</text>
</a>
</g>
</g>
<!-- Node3&#45;&gt;Node4 -->
<g id="edge3" class="edge">
<title>Node3&#45;&gt;Node4</title>
<path fill="none" stroke="#191970" d="M256.9459,-50.1339C270.1733,-39.8366 285.3954,-27.9865 295.8511,-19.8469"/>
<polygon fill="#191970" stroke="#191970" points="254.7689,-47.393 249.0281,-56.2977 259.069,-52.9166 254.7689,-47.393"/>
</g>
<!-- Node5&#45;&gt;Node4 -->
<g id="edge5" class="edge">
<title>Node5&#45;&gt;Node4</title>
<path fill="none" stroke="#191970" d="M360.7067,-50.1339C347.3118,-39.8366 331.8971,-27.9865 321.309,-19.8469"/>
<polygon fill="#191970" stroke="#191970" points="358.6634,-52.9778 368.7247,-56.2977 362.9298,-47.4282 358.6634,-52.9778"/>
</g>
</g>
</svg>
