<?xml version="1.0" encoding="UTF-8" standalone="no"?>
<!DOCTYPE svg PUBLIC "-//W3C//DTD SVG 1.1//EN"
 "http://www.w3.org/Graphics/SVG/1.1/DTD/svg11.dtd">
<!-- Generated by graphviz version 2.40.1 (20161225.0304)
 -->
<!-- Title: hw1_ip_filter/src/IpFilter/Restrictions.h Pages: 1 -->
<svg width="406pt" height="263pt"
 viewBox="0.00 0.00 406.00 263.00" xmlns="http://www.w3.org/2000/svg" xmlns:xlink="http://www.w3.org/1999/xlink">
<g id="graph0" class="graph" transform="scale(1 1) rotate(0) translate(4 259)">
<title>hw1_ip_filter/src/IpFilter/Restrictions.h</title>
<polygon fill="#ffffff" stroke="transparent" points="-4,4 -4,-259 402,-259 402,4 -4,4"/>
<!-- Node1 -->
<g id="node1" class="node">
<title>Node1</title>
<g id="a_node1"><a xlink:title=" ">
<polygon fill="#bfbfbf" stroke="#000000" points="127,-224.5 127,-254.5 259,-254.5 259,-224.5 127,-224.5"/>
<text text-anchor="start" x="135" y="-242.5" font-family="Helvetica,sans-Serif" font-size="10.00" fill="#000000">hw1_ip_filter/src/IpFilter</text>
<text text-anchor="middle" x="193" y="-231.5" font-family="Helvetica,sans-Serif" font-size="10.00" fill="#000000">/Restrictions.h</text>
</a>
</g>
</g>
<!-- Node2 -->
<g id="node2" class="node">
<title>Node2</title>
<g id="a_node2"><a xlink:href="_boundaries_8h.html" target="_top" xlink:title=" ">
<polygon fill="#ffffff" stroke="#000000" points="112,-168.5 112,-187.5 192,-187.5 192,-168.5 112,-168.5"/>
<text text-anchor="middle" x="152" y="-175.5" font-family="Helvetica,sans-Serif" font-size="10.00" fill="#000000">Boundaries.h</text>
</a>
</g>
</g>
<!-- Node1&#45;&gt;Node2 -->
<g id="edge1" class="edge">
<title>Node1&#45;&gt;Node2</title>
<path fill="none" stroke="#191970" d="M182.8652,-224.2977C177.2332,-215.8498 170.1849,-205.2773 164.246,-196.369"/>
<polygon fill="#191970" stroke="#191970" points="167.0238,-194.226 158.5646,-187.8469 161.1995,-198.1089 167.0238,-194.226"/>
</g>
<!-- Node3 -->
<g id="node3" class="node">
<title>Node3</title>
<g id="a_node3"><a xlink:href="_ip_v4_8h.html" target="_top" xlink:title=" ">
<polygon fill="#ffffff" stroke="#000000" points="210.5,-168.5 210.5,-187.5 257.5,-187.5 257.5,-168.5 210.5,-168.5"/>
<text text-anchor="middle" x="234" y="-175.5" font-family="Helvetica,sans-Serif" font-size="10.00" fill="#000000">IpV4.h</text>
</a>
</g>
</g>
<!-- Node1&#45;&gt;Node3 -->
<g id="edge2" class="edge">
<title>Node1&#45;&gt;Node3</title>
<path fill="none" stroke="#191970" d="M203.1348,-224.2977C208.7668,-215.8498 215.8151,-205.2773 221.754,-196.369"/>
<polygon fill="#191970" stroke="#191970" points="224.8005,-198.1089 227.4354,-187.8469 218.9762,-194.226 224.8005,-198.1089"/>
</g>
<!-- Node4 -->
<g id="node4" class="node">
<title>Node4</title>
<g id="a_node4"><a xlink:href="_generic_ip_8h.html" target="_top" xlink:title=" ">
<polygon fill="#ffffff" stroke="#000000" points="198,-112.5 198,-131.5 270,-131.5 270,-112.5 198,-112.5"/>
<text text-anchor="middle" x="234" y="-119.5" font-family="Helvetica,sans-Serif" font-size="10.00" fill="#000000">GenericIp.h</text>
</a>
</g>
</g>
<!-- Node3&#45;&gt;Node4 -->
<g id="edge3" class="edge">
<title>Node3&#45;&gt;Node4</title>
<path fill="none" stroke="#191970" d="M234,-168.2455C234,-160.9382 234,-150.6944 234,-141.7046"/>
<polygon fill="#191970" stroke="#191970" points="237.5001,-141.6426 234,-131.6427 230.5001,-141.6427 237.5001,-141.6426"/>
</g>
<!-- Node5 -->
<g id="node5" class="node">
<title>Node5</title>
<g id="a_node5"><a xlink:href="_type_traits_8h.html" target="_top" xlink:title=" ">
<polygon fill="#ffffff" stroke="#000000" points="0,-56.5 0,-75.5 126,-75.5 126,-56.5 0,-56.5"/>
<text text-anchor="middle" x="63" y="-63.5" font-family="Helvetica,sans-Serif" font-size="10.00" fill="#000000">TypeTraits/TypeTraits.h</text>
</a>
</g>
</g>
<!-- Node4&#45;&gt;Node5 -->
<g id="edge4" class="edge">
<title>Node4&#45;&gt;Node5</title>
<path fill="none" stroke="#191970" d="M204.6041,-112.3733C176.1693,-103.0613 132.9123,-88.8953 101.6919,-78.671"/>
<polygon fill="#191970" stroke="#191970" points="102.605,-75.2872 92.0124,-75.5011 100.4264,-81.9396 102.605,-75.2872"/>
</g>
<!-- Node7 -->
<g id="node7" class="node">
<title>Node7</title>
<g id="a_node7"><a xlink:title=" ">
<polygon fill="#ffffff" stroke="#bfbfbf" points="144,-56.5 144,-75.5 186,-75.5 186,-56.5 144,-56.5"/>
<text text-anchor="middle" x="165" y="-63.5" font-family="Helvetica,sans-Serif" font-size="10.00" fill="#000000">array</text>
</a>
</g>
</g>
<!-- Node4&#45;&gt;Node7 -->
<g id="edge6" class="edge">
<title>Node4&#45;&gt;Node7</title>
<path fill="none" stroke="#191970" d="M221.9811,-112.2455C211.7902,-103.9746 196.9638,-91.9416 184.9893,-82.2232"/>
<polygon fill="#191970" stroke="#191970" points="186.8514,-79.2268 176.8812,-75.6427 182.4402,-84.662 186.8514,-79.2268"/>
</g>
<!-- Node8 -->
<g id="node8" class="node">
<title>Node8</title>
<g id="a_node8"><a xlink:title=" ">
<polygon fill="#ffffff" stroke="#bfbfbf" points="204,-56.5 204,-75.5 264,-75.5 264,-56.5 204,-56.5"/>
<text text-anchor="middle" x="234" y="-63.5" font-family="Helvetica,sans-Serif" font-size="10.00" fill="#000000">iostream</text>
</a>
</g>
</g>
<!-- Node4&#45;&gt;Node8 -->
<g id="edge7" class="edge">
<title>Node4&#45;&gt;Node8</title>
<path fill="none" stroke="#191970" d="M234,-112.2455C234,-104.9382 234,-94.6944 234,-85.7046"/>
<polygon fill="#191970" stroke="#191970" points="237.5001,-85.6426 234,-75.6427 230.5001,-85.6427 237.5001,-85.6426"/>
</g>
<!-- Node9 -->
<g id="node9" class="node">
<title>Node9</title>
<g id="a_node9"><a xlink:title=" ">
<polygon fill="#ffffff" stroke="#bfbfbf" points="282.5,-56.5 282.5,-75.5 327.5,-75.5 327.5,-56.5 282.5,-56.5"/>
<text text-anchor="middle" x="305" y="-63.5" font-family="Helvetica,sans-Serif" font-size="10.00" fill="#000000">utility</text>
</a>
</g>
</g>
<!-- Node4&#45;&gt;Node9 -->
<g id="edge8" class="edge">
<title>Node4&#45;&gt;Node9</title>
<path fill="none" stroke="#191970" d="M246.3673,-112.2455C256.9554,-103.8943 272.4064,-91.7076 284.7893,-81.9408"/>
<polygon fill="#191970" stroke="#191970" points="287.0903,-84.5837 292.7745,-75.6427 282.7553,-79.0875 287.0903,-84.5837"/>
</g>
<!-- Node10 -->
<g id="node10" class="node">
<title>Node10</title>
<g id="a_node10"><a xlink:title=" ">
<polygon fill="#ffffff" stroke="#bfbfbf" points="346,-56.5 346,-75.5 398,-75.5 398,-56.5 346,-56.5"/>
<text text-anchor="middle" x="372" y="-63.5" font-family="Helvetica,sans-Serif" font-size="10.00" fill="#000000">cassert</text>
</a>
</g>
</g>
<!-- Node4&#45;&gt;Node10 -->
<g id="edge9" class="edge">
<title>Node4&#45;&gt;Node10</title>
<path fill="none" stroke="#191970" d="M257.723,-112.3733C280.1737,-103.2629 314.0739,-89.5062 339.1255,-79.3404"/>
<polygon fill="#191970" stroke="#191970" points="340.6365,-82.5045 348.5865,-75.5011 338.0043,-76.0182 340.6365,-82.5045"/>
</g>
<!-- Node6 -->
<g id="node6" class="node">
<title>Node6</title>
<g id="a_node6"><a xlink:title=" ">
<polygon fill="#ffffff" stroke="#bfbfbf" points="28.5,-.5 28.5,-19.5 97.5,-19.5 97.5,-.5 28.5,-.5"/>
<text text-anchor="middle" x="63" y="-7.5" font-family="Helvetica,sans-Serif" font-size="10.00" fill="#000000">type_traits</text>
</a>
</g>
</g>
<!-- Node5&#45;&gt;Node6 -->
<g id="edge5" class="edge">
<title>Node5&#45;&gt;Node6</title>
<path fill="none" stroke="#191970" d="M63,-56.2455C63,-48.9382 63,-38.6944 63,-29.7046"/>
<polygon fill="#191970" stroke="#191970" points="66.5001,-29.6426 63,-19.6427 59.5001,-29.6427 66.5001,-29.6426"/>
</g>
</g>
</svg>
