<?xml version="1.0" encoding="UTF-8" standalone="no"?>
<!DOCTYPE svg PUBLIC "-//W3C//DTD SVG 1.1//EN"
 "http://www.w3.org/Graphics/SVG/1.1/DTD/svg11.dtd">
<!-- Generated by graphviz version 2.40.1 (20161225.0304)
 -->
<!-- Title: hw1_ip_filter/src/IpFilter/Restrictions.h Pages: 1 -->
<svg width="311pt" height="319pt"
 viewBox="0.00 0.00 310.50 319.00" xmlns="http://www.w3.org/2000/svg" xmlns:xlink="http://www.w3.org/1999/xlink">
<g id="graph0" class="graph" transform="scale(1 1) rotate(0) translate(4 315)">
<title>hw1_ip_filter/src/IpFilter/Restrictions.h</title>
<polygon fill="#ffffff" stroke="transparent" points="-4,4 -4,-315 306.5,-315 306.5,4 -4,4"/>
<!-- Node1 -->
<g id="node1" class="node">
<title>Node1</title>
<g id="a_node1"><a xlink:title=" ">
<polygon fill="#bfbfbf" stroke="#000000" points="125,-280.5 125,-310.5 257,-310.5 257,-280.5 125,-280.5"/>
<text text-anchor="start" x="133" y="-298.5" font-family="Helvetica,sans-Serif" font-size="10.00" fill="#000000">hw1_ip_filter/src/IpFilter</text>
<text text-anchor="middle" x="191" y="-287.5" font-family="Helvetica,sans-Serif" font-size="10.00" fill="#000000">/Restrictions.h</text>
</a>
</g>
</g>
<!-- Node2 -->
<g id="node2" class="node">
<title>Node2</title>
<g id="a_node2"><a xlink:href="_ip_functions_8h.html" target="_top" xlink:title=" ">
<polygon fill="#ffffff" stroke="#000000" points="79.5,-224.5 79.5,-243.5 162.5,-243.5 162.5,-224.5 79.5,-224.5"/>
<text text-anchor="middle" x="121" y="-231.5" font-family="Helvetica,sans-Serif" font-size="10.00" fill="#000000">Restrictions.h</text>
</a>
</g>
</g>
<!-- Node1&#45;&gt;Node2 -->
<g id="edge1" class="edge">
<title>Node1&#45;&gt;Node2</title>
<path fill="none" stroke="#191970" d="M166.0156,-273.5494C154.4529,-263.3907 141.2976,-251.8329 132.2079,-243.8469"/>
<polygon fill="#191970" stroke="#191970" points="163.8741,-276.3269 173.6966,-280.2977 168.4942,-271.0681 163.8741,-276.3269"/>
</g>
<!-- Node3 -->
<g id="node3" class="node">
<title>Node3</title>
<g id="a_node3"><a xlink:href="_ip_storage_8h.html" target="_top" xlink:title=" ">
<polygon fill="#ffffff" stroke="#000000" points="116,-168.5 116,-187.5 196,-187.5 196,-168.5 116,-168.5"/>
<text text-anchor="middle" x="156" y="-175.5" font-family="Helvetica,sans-Serif" font-size="10.00" fill="#000000">IpFunctions.h</text>
</a>
</g>
</g>
<!-- Node1&#45;&gt;Node3 -->
<g id="edge9" class="edge">
<title>Node1&#45;&gt;Node3</title>
<path fill="none" stroke="#191970" d="M184.326,-270.6437C180.5551,-256.8597 175.6728,-239.4343 171,-224 167.2029,-211.4582 162.4635,-197.1202 159.3402,-187.8323"/>
<polygon fill="#191970" stroke="#191970" points="180.9721,-271.6486 186.9712,-280.3813 187.7273,-269.8135 180.9721,-271.6486"/>
</g>
<!-- Node8 -->
<g id="node8" class="node">
<title>Node8</title>
<g id="a_node8"><a xlink:href="_restrictions_8cpp.html" target="_top" xlink:title=" ">
<polygon fill="#ffffff" stroke="#000000" points="219.5,-224.5 219.5,-243.5 302.5,-243.5 302.5,-224.5 219.5,-224.5"/>
<text text-anchor="middle" x="261" y="-231.5" font-family="Helvetica,sans-Serif" font-size="10.00" fill="#000000">Restrictions.h</text>
</a>
</g>
</g>
<!-- Node1&#45;&gt;Node8 -->
<g id="edge10" class="edge">
<title>Node1&#45;&gt;Node8</title>
<path fill="none" stroke="#191970" d="M215.9844,-273.5494C227.5471,-263.3907 240.7024,-251.8329 249.7921,-243.8469"/>
<polygon fill="#191970" stroke="#191970" points="213.5058,-271.0681 208.3034,-280.2977 218.1259,-276.3269 213.5058,-271.0681"/>
</g>
<!-- Node2&#45;&gt;Node3 -->
<g id="edge2" class="edge">
<title>Node2&#45;&gt;Node3</title>
<path fill="none" stroke="#191970" d="M132.4815,-215.6296C138.3196,-206.2887 145.1752,-195.3197 149.9733,-187.6427"/>
<polygon fill="#191970" stroke="#191970" points="129.4286,-213.9105 127.0965,-224.2455 135.3646,-217.6206 129.4286,-213.9105"/>
</g>
<!-- Node4 -->
<g id="node4" class="node">
<title>Node4</title>
<g id="a_node4"><a xlink:href="_ip_storage_printer_8h.html" target="_top" xlink:title=" ">
<polygon fill="#ffffff" stroke="#000000" points="120,-112.5 120,-131.5 192,-131.5 192,-112.5 120,-112.5"/>
<text text-anchor="middle" x="156" y="-119.5" font-family="Helvetica,sans-Serif" font-size="10.00" fill="#000000">IpStorage.h</text>
</a>
</g>
</g>
<!-- Node3&#45;&gt;Node4 -->
<g id="edge3" class="edge">
<title>Node3&#45;&gt;Node4</title>
<path fill="none" stroke="#191970" d="M156,-158.1575C156,-149.155 156,-138.9199 156,-131.6427"/>
<polygon fill="#191970" stroke="#191970" points="152.5001,-158.2455 156,-168.2455 159.5001,-158.2456 152.5001,-158.2455"/>
</g>
<!-- Node5 -->
<g id="node5" class="node">
<title>Node5</title>
<g id="a_node5"><a xlink:href="hw1__ip__filter_2src_2_ip_filter_example_2main_8cpp.html" target="_top" xlink:title=" ">
<polygon fill="#ffffff" stroke="#000000" points="0,-56.5 0,-75.5 140,-75.5 140,-56.5 0,-56.5"/>
<text text-anchor="middle" x="70" y="-63.5" font-family="Helvetica,sans-Serif" font-size="10.00" fill="#000000">IpFilter/IpStoragePrinter.h</text>
</a>
</g>
</g>
<!-- Node3&#45;&gt;Node5 -->
<g id="edge7" class="edge">
<title>Node3&#45;&gt;Node5</title>
<path fill="none" stroke="#191970" d="M137.9408,-161.3327C129.3164,-152.9396 119.1296,-142.3645 111,-132 96.3477,-113.3198 82.4634,-89.1296 75.2166,-75.8349"/>
<polygon fill="#191970" stroke="#191970" points="135.663,-163.9967 145.3182,-168.3587 140.4905,-158.9276 135.663,-163.9967"/>
</g>
<!-- Node6 -->
<g id="node6" class="node">
<title>Node6</title>
<g id="a_node6"><a xlink:href="_ip_storage_tests_8h.html" target="_top" xlink:title=" ">
<polygon fill="#ffffff" stroke="#000000" points="158,-56.5 158,-75.5 298,-75.5 298,-56.5 158,-56.5"/>
<text text-anchor="middle" x="228" y="-63.5" font-family="Helvetica,sans-Serif" font-size="10.00" fill="#000000">IpFilter/IpStoragePrinter.h</text>
</a>
</g>
</g>
<!-- Node3&#45;&gt;Node6 -->
<g id="edge8" class="edge">
<title>Node3&#45;&gt;Node6</title>
<path fill="none" stroke="#191970" d="M175.185,-161.5718C183.9123,-153.3582 193.8601,-142.8654 201,-132 213.1017,-113.5838 221.4279,-88.8693 225.3782,-75.5186"/>
<polygon fill="#191970" stroke="#191970" points="172.6885,-159.1108 167.6288,-168.4195 177.3891,-164.2978 172.6885,-159.1108"/>
</g>
<!-- Node4&#45;&gt;Node5 -->
<g id="edge4" class="edge">
<title>Node4&#45;&gt;Node5</title>
<path fill="none" stroke="#191970" d="M132.6095,-106.769C117.3701,-96.8456 97.9491,-84.1994 84.8084,-75.6427"/>
<polygon fill="#191970" stroke="#191970" points="130.7301,-109.7218 141.0199,-112.2455 134.5498,-103.8558 130.7301,-109.7218"/>
</g>
<!-- Node4&#45;&gt;Node6 -->
<g id="edge5" class="edge">
<title>Node4&#45;&gt;Node6</title>
<path fill="none" stroke="#191970" d="M176.664,-105.928C189.2489,-96.1397 204.9092,-83.9595 215.6023,-75.6427"/>
<polygon fill="#191970" stroke="#191970" points="174.2862,-103.3434 168.5414,-112.2455 178.5838,-108.8688 174.2862,-103.3434"/>
</g>
<!-- Node7 -->
<g id="node7" class="node">
<title>Node7</title>
<g id="a_node7"><a xlink:href="_ip_filter_tests_8cpp.html" target="_top" xlink:title=" ">
<polygon fill="#ffffff" stroke="#000000" points="179.5,-.5 179.5,-19.5 276.5,-19.5 276.5,-.5 179.5,-.5"/>
<text text-anchor="middle" x="228" y="-7.5" font-family="Helvetica,sans-Serif" font-size="10.00" fill="#000000">IpStorageTests.h</text>
</a>
</g>
</g>
<!-- Node6&#45;&gt;Node7 -->
<g id="edge6" class="edge">
<title>Node6&#45;&gt;Node7</title>
<path fill="none" stroke="#191970" d="M228,-46.1575C228,-37.155 228,-26.9199 228,-19.6427"/>
<polygon fill="#191970" stroke="#191970" points="224.5001,-46.2455 228,-56.2455 231.5001,-46.2456 224.5001,-46.2455"/>
</g>
</g>
</svg>
