<?xml version="1.0" encoding="UTF-8" standalone="no"?>
<!DOCTYPE svg PUBLIC "-//W3C//DTD SVG 1.1//EN"
 "http://www.w3.org/Graphics/SVG/1.1/DTD/svg11.dtd">
<!-- Generated by graphviz version 2.40.1 (20161225.0304)
 -->
<!-- Title: hw2_allocator/ReserveAllocator/ReserveAllocator.h Pages: 1 -->
<svg width="205pt" height="95pt"
 viewBox="0.00 0.00 204.50 95.00" xmlns="http://www.w3.org/2000/svg" xmlns:xlink="http://www.w3.org/1999/xlink">
<g id="graph0" class="graph" transform="scale(1 1) rotate(0) translate(4 91)">
<title>hw2_allocator/ReserveAllocator/ReserveAllocator.h</title>
<polygon fill="#ffffff" stroke="transparent" points="-4,4 -4,-91 200.5,-91 200.5,4 -4,4"/>
<!-- Node1 -->
<g id="node1" class="node">
<title>Node1</title>
<g id="a_node1"><a xlink:title=" ">
<polygon fill="#bfbfbf" stroke="#000000" points="9.5,-56.5 9.5,-86.5 179.5,-86.5 179.5,-56.5 9.5,-56.5"/>
<text text-anchor="start" x="17.5" y="-74.5" font-family="Helvetica,sans-Serif" font-size="10.00" fill="#000000">hw2_allocator/ReserveAllocator</text>
<text text-anchor="middle" x="94.5" y="-63.5" font-family="Helvetica,sans-Serif" font-size="10.00" fill="#000000">/ReserveAllocator.h</text>
</a>
</g>
</g>
<!-- Node2 -->
<g id="node2" class="node">
<title>Node2</title>
<g id="a_node2"><a xlink:title=" ">
<polygon fill="#ffffff" stroke="#bfbfbf" points="0,-.5 0,-19.5 53,-19.5 53,-.5 0,-.5"/>
<text text-anchor="middle" x="26.5" y="-7.5" font-family="Helvetica,sans-Serif" font-size="10.00" fill="#000000">cstddef</text>
</a>
</g>
</g>
<!-- Node1&#45;&gt;Node2 -->
<g id="edge1" class="edge">
<title>Node1&#45;&gt;Node2</title>
<path fill="none" stroke="#191970" d="M77.691,-56.2977C67.7603,-47.3163 55.1743,-35.9334 44.9673,-26.702"/>
<polygon fill="#191970" stroke="#191970" points="47.152,-23.9588 37.3877,-19.8469 42.4566,-29.1505 47.152,-23.9588"/>
</g>
<!-- Node3 -->
<g id="node3" class="node">
<title>Node3</title>
<g id="a_node3"><a xlink:title=" ">
<polygon fill="#ffffff" stroke="#bfbfbf" points="71,-.5 71,-19.5 118,-19.5 118,-.5 71,-.5"/>
<text text-anchor="middle" x="94.5" y="-7.5" font-family="Helvetica,sans-Serif" font-size="10.00" fill="#000000">vector</text>
</a>
</g>
</g>
<!-- Node1&#45;&gt;Node3 -->
<g id="edge2" class="edge">
<title>Node1&#45;&gt;Node3</title>
<path fill="none" stroke="#191970" d="M94.5,-56.2977C94.5,-48.3834 94.5,-38.6043 94.5,-30.0759"/>
<polygon fill="#191970" stroke="#191970" points="98.0001,-29.8469 94.5,-19.8469 91.0001,-29.847 98.0001,-29.8469"/>
</g>
<!-- Node4 -->
<g id="node4" class="node">
<title>Node4</title>
<g id="a_node4"><a xlink:title=" ">
<polygon fill="#ffffff" stroke="#bfbfbf" points="136.5,-.5 136.5,-19.5 196.5,-19.5 196.5,-.5 136.5,-.5"/>
<text text-anchor="middle" x="166.5" y="-7.5" font-family="Helvetica,sans-Serif" font-size="10.00" fill="#000000">iostream</text>
</a>
</g>
</g>
<!-- Node1&#45;&gt;Node4 -->
<g id="edge3" class="edge">
<title>Node1&#45;&gt;Node4</title>
<path fill="none" stroke="#191970" d="M112.2978,-56.2977C122.9167,-47.2274 136.4031,-35.7077 147.2667,-26.4285"/>
<polygon fill="#191970" stroke="#191970" points="149.6413,-29.0031 154.9719,-19.8469 145.0949,-23.6805 149.6413,-29.0031"/>
</g>
</g>
</svg>
