<?xml version="1.0" encoding="UTF-8" standalone="no"?>
<!DOCTYPE svg PUBLIC "-//W3C//DTD SVG 1.1//EN"
 "http://www.w3.org/Graphics/SVG/1.1/DTD/svg11.dtd">
<!-- Generated by graphviz version 2.40.1 (20161225.0304)
 -->
<!-- Title: libs/StringAddOns/StringFunctions.cpp Pages: 1 -->
<svg width="142pt" height="151pt"
 viewBox="0.00 0.00 142.00 151.00" xmlns="http://www.w3.org/2000/svg" xmlns:xlink="http://www.w3.org/1999/xlink">
<g id="graph0" class="graph" transform="scale(1 1) rotate(0) translate(4 147)">
<title>libs/StringAddOns/StringFunctions.cpp</title>
<polygon fill="#ffffff" stroke="transparent" points="-4,4 -4,-147 138,-147 138,4 -4,4"/>
<!-- Node1 -->
<g id="node1" class="node">
<title>Node1</title>
<g id="a_node1"><a xlink:title=" ">
<polygon fill="#bfbfbf" stroke="#000000" points="0,-112.5 0,-142.5 134,-142.5 134,-112.5 0,-112.5"/>
<text text-anchor="start" x="8" y="-130.5" font-family="Helvetica,sans-Serif" font-size="10.00" fill="#000000">libs/StringAddOns/String</text>
<text text-anchor="middle" x="67" y="-119.5" font-family="Helvetica,sans-Serif" font-size="10.00" fill="#000000">Functions.cpp</text>
</a>
</g>
</g>
<!-- Node2 -->
<g id="node2" class="node">
<title>Node2</title>
<g id="a_node2"><a xlink:href="_string_functions_8h.html" target="_top" xlink:title=" ">
<polygon fill="#ffffff" stroke="#000000" points="17,-56.5 17,-75.5 117,-75.5 117,-56.5 17,-56.5"/>
<text text-anchor="middle" x="67" y="-63.5" font-family="Helvetica,sans-Serif" font-size="10.00" fill="#000000">StringFunctions.h</text>
</a>
</g>
</g>
<!-- Node1&#45;&gt;Node2 -->
<g id="edge1" class="edge">
<title>Node1&#45;&gt;Node2</title>
<path fill="none" stroke="#191970" d="M67,-112.2977C67,-104.3834 67,-94.6043 67,-86.0759"/>
<polygon fill="#191970" stroke="#191970" points="70.5001,-85.8469 67,-75.8469 63.5001,-85.847 70.5001,-85.8469"/>
</g>
<!-- Node3 -->
<g id="node3" class="node">
<title>Node3</title>
<g id="a_node3"><a xlink:title=" ">
<polygon fill="#ffffff" stroke="#bfbfbf" points="11.5,-.5 11.5,-19.5 58.5,-19.5 58.5,-.5 11.5,-.5"/>
<text text-anchor="middle" x="35" y="-7.5" font-family="Helvetica,sans-Serif" font-size="10.00" fill="#000000">vector</text>
</a>
</g>
</g>
<!-- Node2&#45;&gt;Node3 -->
<g id="edge2" class="edge">
<title>Node2&#45;&gt;Node3</title>
<path fill="none" stroke="#191970" d="M61.426,-56.2455C57.0669,-48.617 50.8789,-37.7881 45.5867,-28.5267"/>
<polygon fill="#191970" stroke="#191970" points="48.5104,-26.5886 40.5101,-19.6427 42.4327,-30.0616 48.5104,-26.5886"/>
</g>
<!-- Node4 -->
<g id="node4" class="node">
<title>Node4</title>
<g id="a_node4"><a xlink:title=" ">
<polygon fill="#ffffff" stroke="#bfbfbf" points="77,-.5 77,-19.5 121,-19.5 121,-.5 77,-.5"/>
<text text-anchor="middle" x="99" y="-7.5" font-family="Helvetica,sans-Serif" font-size="10.00" fill="#000000">string</text>
</a>
</g>
</g>
<!-- Node2&#45;&gt;Node4 -->
<g id="edge3" class="edge">
<title>Node2&#45;&gt;Node4</title>
<path fill="none" stroke="#191970" d="M72.574,-56.2455C76.9331,-48.617 83.1211,-37.7881 88.4133,-28.5267"/>
<polygon fill="#191970" stroke="#191970" points="91.5673,-30.0616 93.4899,-19.6427 85.4896,-26.5886 91.5673,-30.0616"/>
</g>
</g>
</svg>
