<?xml version="1.0" encoding="UTF-8" standalone="no"?>
<!DOCTYPE svg PUBLIC "-//W3C//DTD SVG 1.1//EN"
 "http://www.w3.org/Graphics/SVG/1.1/DTD/svg11.dtd">
<!-- Generated by graphviz version 2.40.1 (20161225.0304)
 -->
<!-- Title: libs/StringAddOns/StringFunctions.h Pages: 1 -->
<svg width="670pt" height="151pt"
 viewBox="0.00 0.00 669.50 151.00" xmlns="http://www.w3.org/2000/svg" xmlns:xlink="http://www.w3.org/1999/xlink">
<g id="graph0" class="graph" transform="scale(1 1) rotate(0) translate(4 147)">
<title>libs/StringAddOns/StringFunctions.h</title>
<polygon fill="#ffffff" stroke="transparent" points="-4,4 -4,-147 665.5,-147 665.5,4 -4,4"/>
<!-- Node1 -->
<g id="node1" class="node">
<title>Node1</title>
<g id="a_node1"><a xlink:title=" ">
<polygon fill="#bfbfbf" stroke="#000000" points="297.5,-112.5 297.5,-142.5 431.5,-142.5 431.5,-112.5 297.5,-112.5"/>
<text text-anchor="start" x="305.5" y="-130.5" font-family="Helvetica,sans-Serif" font-size="10.00" fill="#000000">libs/StringAddOns/String</text>
<text text-anchor="middle" x="364.5" y="-119.5" font-family="Helvetica,sans-Serif" font-size="10.00" fill="#000000">Functions.h</text>
</a>
</g>
</g>
<!-- Node2 -->
<g id="node2" class="node">
<title>Node2</title>
<g id="a_node2"><a xlink:href="_ip_storage_8cpp.html" target="_top" xlink:title=" ">
<polygon fill="#ffffff" stroke="#000000" points="0,-56.5 0,-75.5 169,-75.5 169,-56.5 0,-56.5"/>
<text text-anchor="middle" x="84.5" y="-63.5" font-family="Helvetica,sans-Serif" font-size="10.00" fill="#000000">StringAddOns/StringFunctions.h</text>
</a>
</g>
</g>
<!-- Node1&#45;&gt;Node2 -->
<g id="edge1" class="edge">
<title>Node1&#45;&gt;Node2</title>
<path fill="none" stroke="#191970" d="M287.362,-110.5572C236.0017,-99.2763 170.396,-84.8664 127.9224,-75.5374"/>
<polygon fill="#191970" stroke="#191970" points="286.915,-114.0424 297.433,-112.7692 288.4167,-107.2053 286.915,-114.0424"/>
</g>
<!-- Node3 -->
<g id="node3" class="node">
<title>Node3</title>
<g id="a_node3"><a xlink:href="hw2__ip__filter_2src_2_required_outputs_module_2main_8cpp.html" target="_top" xlink:title=" ">
<polygon fill="#ffffff" stroke="#000000" points="187,-56.5 187,-75.5 356,-75.5 356,-56.5 187,-56.5"/>
<text text-anchor="middle" x="271.5" y="-63.5" font-family="Helvetica,sans-Serif" font-size="10.00" fill="#000000">StringAddOns/StringFunctions.h</text>
</a>
</g>
</g>
<!-- Node1&#45;&gt;Node3 -->
<g id="edge2" class="edge">
<title>Node1&#45;&gt;Node3</title>
<path fill="none" stroke="#191970" d="M333.0144,-106.6789C317.1376,-96.1797 298.6447,-83.9505 286.1128,-75.6633"/>
<polygon fill="#191970" stroke="#191970" points="331.2395,-109.7012 341.5112,-112.2977 335.1007,-103.8624 331.2395,-109.7012"/>
</g>
<!-- Node4 -->
<g id="node4" class="node">
<title>Node4</title>
<g id="a_node4"><a xlink:href="_ip_storage_tests_8h.html" target="_top" xlink:title=" ">
<polygon fill="#ffffff" stroke="#000000" points="374,-56.5 374,-75.5 543,-75.5 543,-56.5 374,-56.5"/>
<text text-anchor="middle" x="458.5" y="-63.5" font-family="Helvetica,sans-Serif" font-size="10.00" fill="#000000">StringAddOns/StringFunctions.h</text>
</a>
</g>
</g>
<!-- Node1&#45;&gt;Node4 -->
<g id="edge3" class="edge">
<title>Node1&#45;&gt;Node4</title>
<path fill="none" stroke="#191970" d="M396.3242,-106.6789C412.3717,-96.1797 431.0634,-83.9505 443.7301,-75.6633"/>
<polygon fill="#191970" stroke="#191970" points="394.1879,-103.894 387.736,-112.2977 398.0203,-109.7517 394.1879,-103.894"/>
</g>
<!-- Node6 -->
<g id="node6" class="node">
<title>Node6</title>
<g id="a_node6"><a xlink:href="_string_functions_8cpp.html" target="_top" xlink:title=" ">
<polygon fill="#ffffff" stroke="#000000" points="561.5,-56.5 561.5,-75.5 661.5,-75.5 661.5,-56.5 561.5,-56.5"/>
<text text-anchor="middle" x="611.5" y="-63.5" font-family="Helvetica,sans-Serif" font-size="10.00" fill="#000000">StringFunctions.h</text>
</a>
</g>
</g>
<!-- Node1&#45;&gt;Node6 -->
<g id="edge5" class="edge">
<title>Node1&#45;&gt;Node6</title>
<path fill="none" stroke="#191970" d="M434.9099,-109.9688C479.8623,-98.7762 536.405,-84.6977 573.2238,-75.5303"/>
<polygon fill="#191970" stroke="#191970" points="433.7811,-106.6429 424.923,-112.4554 435.4724,-113.4355 433.7811,-106.6429"/>
</g>
<!-- Node5 -->
<g id="node5" class="node">
<title>Node5</title>
<g id="a_node5"><a xlink:href="_ip_filter_tests_8cpp.html" target="_top" xlink:title=" ">
<polygon fill="#ffffff" stroke="#000000" points="410,-.5 410,-19.5 507,-19.5 507,-.5 410,-.5"/>
<text text-anchor="middle" x="458.5" y="-7.5" font-family="Helvetica,sans-Serif" font-size="10.00" fill="#000000">IpStorageTests.h</text>
</a>
</g>
</g>
<!-- Node4&#45;&gt;Node5 -->
<g id="edge4" class="edge">
<title>Node4&#45;&gt;Node5</title>
<path fill="none" stroke="#191970" d="M458.5,-46.1575C458.5,-37.155 458.5,-26.9199 458.5,-19.6427"/>
<polygon fill="#191970" stroke="#191970" points="455.0001,-46.2455 458.5,-56.2455 462.0001,-46.2456 455.0001,-46.2455"/>
</g>
</g>
</svg>
