<?xml version="1.0" encoding="UTF-8" standalone="no"?>
<!DOCTYPE svg PUBLIC "-//W3C//DTD SVG 1.1//EN"
 "http://www.w3.org/Graphics/SVG/1.1/DTD/svg11.dtd">
<!-- Generated by graphviz version 2.40.1 (20161225.0304)
 -->
<!-- Title: libs/StringAddOns/StringFunctions.h Pages: 1 -->
<svg width="392pt" height="319pt"
 viewBox="0.00 0.00 392.00 319.00" xmlns="http://www.w3.org/2000/svg" xmlns:xlink="http://www.w3.org/1999/xlink">
<g id="graph0" class="graph" transform="scale(1 1) rotate(0) translate(4 315)">
<title>libs/StringAddOns/StringFunctions.h</title>
<polygon fill="#ffffff" stroke="transparent" points="-4,4 -4,-315 388,-315 388,4 -4,4"/>
<!-- Node1 -->
<g id="node1" class="node">
<title>Node1</title>
<g id="a_node1"><a xlink:title=" ">
<polygon fill="#bfbfbf" stroke="#000000" points="133,-280.5 133,-310.5 267,-310.5 267,-280.5 133,-280.5"/>
<text text-anchor="start" x="141" y="-298.5" font-family="Helvetica,sans-Serif" font-size="10.00" fill="#000000">libs/StringAddOns/String</text>
<text text-anchor="middle" x="200" y="-287.5" font-family="Helvetica,sans-Serif" font-size="10.00" fill="#000000">Functions.h</text>
</a>
</g>
</g>
<!-- Node2 -->
<g id="node2" class="node">
<title>Node2</title>
<g id="a_node2"><a xlink:href="_ip_functions_8h.html" target="_top" xlink:title=" ">
<polygon fill="#ffffff" stroke="#000000" points="59.5,-224.5 59.5,-243.5 228.5,-243.5 228.5,-224.5 59.5,-224.5"/>
<text text-anchor="middle" x="144" y="-231.5" font-family="Helvetica,sans-Serif" font-size="10.00" fill="#000000">StringAddOns/StringFunctions.h</text>
</a>
</g>
</g>
<!-- Node1&#45;&gt;Node2 -->
<g id="edge1" class="edge">
<title>Node1&#45;&gt;Node2</title>
<path fill="none" stroke="#191970" d="M179.2089,-272.6669C170.1578,-262.7269 160.0284,-251.6026 152.9663,-243.8469"/>
<polygon fill="#191970" stroke="#191970" points="176.8367,-275.2602 186.1573,-280.2977 182.0125,-270.5473 176.8367,-275.2602"/>
</g>
<!-- Node5 -->
<g id="node5" class="node">
<title>Node5</title>
<g id="a_node5"><a xlink:href="hw1__ip__filter_2src_2_ip_filter_example_2main_8cpp.html" target="_top" xlink:title=" ">
<polygon fill="#ffffff" stroke="#000000" points="0,-56.5 0,-75.5 140,-75.5 140,-56.5 0,-56.5"/>
<text text-anchor="middle" x="70" y="-63.5" font-family="Helvetica,sans-Serif" font-size="10.00" fill="#000000">IpFilter/IpStoragePrinter.h</text>
</a>
</g>
</g>
<!-- Node1&#45;&gt;Node5 -->
<g id="edge9" class="edge">
<title>Node1&#45;&gt;Node5</title>
<path fill="none" stroke="#191970" d="M122.8096,-277.8006C90.9477,-268.7895 59.2794,-256.997 50,-244 11.8733,-190.5986 50.1828,-104.3042 64.8291,-75.6163"/>
<polygon fill="#191970" stroke="#191970" points="122.1099,-281.2379 132.6795,-280.5061 123.9606,-274.4869 122.1099,-281.2379"/>
</g>
<!-- Node6 -->
<g id="node6" class="node">
<title>Node6</title>
<g id="a_node6"><a xlink:href="_ip_storage_tests_8h.html" target="_top" xlink:title=" ">
<polygon fill="#ffffff" stroke="#000000" points="158,-56.5 158,-75.5 298,-75.5 298,-56.5 158,-56.5"/>
<text text-anchor="middle" x="228" y="-63.5" font-family="Helvetica,sans-Serif" font-size="10.00" fill="#000000">IpFilter/IpStoragePrinter.h</text>
</a>
</g>
</g>
<!-- Node1&#45;&gt;Node6 -->
<g id="edge10" class="edge">
<title>Node1&#45;&gt;Node6</title>
<path fill="none" stroke="#191970" d="M221.2038,-272.4707C227.5593,-264.1224 233.7102,-254.2175 237,-244 256.8203,-182.4429 238.2791,-102.7566 230.8029,-75.5717"/>
<polygon fill="#191970" stroke="#191970" points="218.4691,-270.2862 214.8786,-280.2541 223.9015,-274.7009 218.4691,-270.2862"/>
</g>
<!-- Node8 -->
<g id="node8" class="node">
<title>Node8</title>
<g id="a_node8"><a xlink:href="_string_functions_8cpp.html" target="_top" xlink:title=" ">
<polygon fill="#ffffff" stroke="#000000" points="284,-224.5 284,-243.5 384,-243.5 384,-224.5 284,-224.5"/>
<text text-anchor="middle" x="334" y="-231.5" font-family="Helvetica,sans-Serif" font-size="10.00" fill="#000000">StringFunctions.h</text>
</a>
</g>
</g>
<!-- Node1&#45;&gt;Node8 -->
<g id="edge11" class="edge">
<title>Node1&#45;&gt;Node8</title>
<path fill="none" stroke="#191970" d="M241.9326,-276.2548C265.6513,-265.369 294.2673,-252.2355 313.2348,-243.5303"/>
<polygon fill="#191970" stroke="#191970" points="240.4087,-273.1032 232.7801,-280.4554 243.3285,-279.4651 240.4087,-273.1032"/>
</g>
<!-- Node3 -->
<g id="node3" class="node">
<title>Node3</title>
<g id="a_node3"><a xlink:href="_ip_storage_8h.html" target="_top" xlink:title=" ">
<polygon fill="#ffffff" stroke="#000000" points="104,-168.5 104,-187.5 184,-187.5 184,-168.5 104,-168.5"/>
<text text-anchor="middle" x="144" y="-175.5" font-family="Helvetica,sans-Serif" font-size="10.00" fill="#000000">IpFunctions.h</text>
</a>
</g>
</g>
<!-- Node2&#45;&gt;Node3 -->
<g id="edge2" class="edge">
<title>Node2&#45;&gt;Node3</title>
<path fill="none" stroke="#191970" d="M144,-214.1575C144,-205.155 144,-194.9199 144,-187.6427"/>
<polygon fill="#191970" stroke="#191970" points="140.5001,-214.2455 144,-224.2455 147.5001,-214.2456 140.5001,-214.2455"/>
</g>
<!-- Node4 -->
<g id="node4" class="node">
<title>Node4</title>
<g id="a_node4"><a xlink:href="_ip_storage_printer_8h.html" target="_top" xlink:title=" ">
<polygon fill="#ffffff" stroke="#000000" points="108,-112.5 108,-131.5 180,-131.5 180,-112.5 108,-112.5"/>
<text text-anchor="middle" x="144" y="-119.5" font-family="Helvetica,sans-Serif" font-size="10.00" fill="#000000">IpStorage.h</text>
</a>
</g>
</g>
<!-- Node3&#45;&gt;Node4 -->
<g id="edge3" class="edge">
<title>Node3&#45;&gt;Node4</title>
<path fill="none" stroke="#191970" d="M144,-158.1575C144,-149.155 144,-138.9199 144,-131.6427"/>
<polygon fill="#191970" stroke="#191970" points="140.5001,-158.2455 144,-168.2455 147.5001,-158.2456 140.5001,-158.2455"/>
</g>
<!-- Node3&#45;&gt;Node5 -->
<g id="edge7" class="edge">
<title>Node3&#45;&gt;Node5</title>
<path fill="none" stroke="#191970" d="M124.939,-161.4892C116.2392,-153.2573 106.2788,-142.7729 99,-132 86.5277,-113.5407 77.3794,-88.843 72.9625,-75.5066"/>
<polygon fill="#191970" stroke="#191970" points="122.717,-164.1999 132.4611,-168.3596 127.4378,-159.0313 122.717,-164.1999"/>
</g>
<!-- Node3&#45;&gt;Node6 -->
<g id="edge8" class="edge">
<title>Node3&#45;&gt;Node6</title>
<path fill="none" stroke="#191970" d="M162.1598,-161.4108C170.8081,-153.0361 180.9857,-142.4539 189,-132 203.2517,-113.4099 216.3409,-89.1859 223.1299,-75.8613"/>
<polygon fill="#191970" stroke="#191970" points="159.6147,-159.0005 154.7535,-168.4143 164.4242,-164.0867 159.6147,-159.0005"/>
</g>
<!-- Node4&#45;&gt;Node5 -->
<g id="edge4" class="edge">
<title>Node4&#45;&gt;Node5</title>
<path fill="none" stroke="#191970" d="M123.1343,-106.2097C110.1375,-96.3743 93.8378,-84.0394 82.7421,-75.6427"/>
<polygon fill="#191970" stroke="#191970" points="121.024,-109.002 131.1102,-112.2455 125.2482,-103.4201 121.024,-109.002"/>
</g>
<!-- Node4&#45;&gt;Node6 -->
<g id="edge5" class="edge">
<title>Node4&#45;&gt;Node6</title>
<path fill="none" stroke="#191970" d="M167.2649,-106.49C182.0856,-96.6096 200.8209,-84.1194 213.536,-75.6427"/>
<polygon fill="#191970" stroke="#191970" points="165.0107,-103.7863 158.6317,-112.2455 168.8937,-109.6107 165.0107,-103.7863"/>
</g>
<!-- Node7 -->
<g id="node7" class="node">
<title>Node7</title>
<g id="a_node7"><a xlink:href="_ip_filter_tests_8cpp.html" target="_top" xlink:title=" ">
<polygon fill="#ffffff" stroke="#000000" points="179.5,-.5 179.5,-19.5 276.5,-19.5 276.5,-.5 179.5,-.5"/>
<text text-anchor="middle" x="228" y="-7.5" font-family="Helvetica,sans-Serif" font-size="10.00" fill="#000000">IpStorageTests.h</text>
</a>
</g>
</g>
<!-- Node6&#45;&gt;Node7 -->
<g id="edge6" class="edge">
<title>Node6&#45;&gt;Node7</title>
<path fill="none" stroke="#191970" d="M228,-46.1575C228,-37.155 228,-26.9199 228,-19.6427"/>
<polygon fill="#191970" stroke="#191970" points="224.5001,-46.2455 228,-56.2455 231.5001,-46.2456 224.5001,-46.2455"/>
</g>
</g>
</svg>
