<?xml version="1.0" encoding="UTF-8" standalone="no"?>
<!DOCTYPE svg PUBLIC "-//W3C//DTD SVG 1.1//EN"
 "http://www.w3.org/Graphics/SVG/1.1/DTD/svg11.dtd">
<!-- Generated by graphviz version 2.40.1 (20161225.0304)
 -->
<!-- Title: libs/StringAddOns/StringFunctions.h Pages: 1 -->
<svg width="632pt" height="173pt"
 viewBox="0.00 0.00 632.00 173.00" xmlns="http://www.w3.org/2000/svg" xmlns:xlink="http://www.w3.org/1999/xlink">
<g id="graph0" class="graph" transform="scale(1 1) rotate(0) translate(4 169)">
<title>libs/StringAddOns/StringFunctions.h</title>
<polygon fill="#ffffff" stroke="transparent" points="-4,4 -4,-169 628,-169 628,4 -4,4"/>
<!-- Node3 -->
<g id="node1" class="node">
<title>Node3</title>
<polygon fill="#bfbfbf" stroke="#000000" points="239,-134.5 239,-164.5 373,-164.5 373,-134.5 239,-134.5"/>
<text text-anchor="start" x="247" y="-152.5" font-family="Helvetica,sans-Serif" font-size="10.00" fill="#000000">libs/StringAddOns/String</text>
<text text-anchor="middle" x="306" y="-141.5" font-family="Helvetica,sans-Serif" font-size="10.00" fill="#000000">Functions.h</text>
</g>
<!-- Node4 -->
<g id="node2" class="node">
<title>Node4</title>
<g id="a_node2"><a xlink:href="_ip_storage_8cpp.html" target="_top" xlink:title="hw2_ip_filter/src/IpFilter\l/IpStorage.cpp">
<polygon fill="#ffffff" stroke="#000000" points="0,-67.5 0,-97.5 132,-97.5 132,-67.5 0,-67.5"/>
<text text-anchor="start" x="8" y="-85.5" font-family="Helvetica,sans-Serif" font-size="10.00" fill="#000000">hw2_ip_filter/src/IpFilter</text>
<text text-anchor="middle" x="66" y="-74.5" font-family="Helvetica,sans-Serif" font-size="10.00" fill="#000000">/IpStorage.cpp</text>
</a>
</g>
</g>
<!-- Node3&#45;&gt;Node4 -->
<g id="edge1" class="edge">
<title>Node3&#45;&gt;Node4</title>
<path fill="none" stroke="#191970" d="M242.1823,-131.6842C204.1138,-121.0568 156.3028,-107.7095 120.0956,-97.6017"/>
<polygon fill="#191970" stroke="#191970" points="241.5665,-135.1461 252.1393,-134.4639 243.4487,-128.4039 241.5665,-135.1461"/>
</g>
<!-- Node5 -->
<g id="node3" class="node">
<title>Node5</title>
<g id="a_node3"><a xlink:href="hw2__ip__filter_2src_2_required_outputs_module_2main_8cpp.html" target="_top" xlink:title="hw2_ip_filter/src/Required\lOutputsModule/main.cpp">
<polygon fill="#ffffff" stroke="#000000" points="150,-67.5 150,-97.5 292,-97.5 292,-67.5 150,-67.5"/>
<text text-anchor="start" x="158" y="-85.5" font-family="Helvetica,sans-Serif" font-size="10.00" fill="#000000">hw2_ip_filter/src/Required</text>
<text text-anchor="middle" x="221" y="-74.5" font-family="Helvetica,sans-Serif" font-size="10.00" fill="#000000">OutputsModule/main.cpp</text>
</a>
</g>
</g>
<!-- Node3&#45;&gt;Node5 -->
<g id="edge2" class="edge">
<title>Node3&#45;&gt;Node5</title>
<path fill="none" stroke="#191970" d="M278.8055,-128.0643C266.2374,-118.1577 251.6083,-106.6265 240.2115,-97.6432"/>
<polygon fill="#191970" stroke="#191970" points="276.6919,-130.8549 286.7122,-134.2967 281.0253,-125.3574 276.6919,-130.8549"/>
</g>
<!-- Node6 -->
<g id="node4" class="node">
<title>Node6</title>
<g id="a_node4"><a xlink:href="_ip_storage_tests_8h.html" target="_top" xlink:title="hw2_ip_filter/tests\l/IpFilterTests/IpStorageTests.h">
<polygon fill="#ffffff" stroke="#000000" points="310.5,-67.5 310.5,-97.5 471.5,-97.5 471.5,-67.5 310.5,-67.5"/>
<text text-anchor="start" x="318.5" y="-85.5" font-family="Helvetica,sans-Serif" font-size="10.00" fill="#000000">hw2_ip_filter/tests</text>
<text text-anchor="middle" x="391" y="-74.5" font-family="Helvetica,sans-Serif" font-size="10.00" fill="#000000">/IpFilterTests/IpStorageTests.h</text>
</a>
</g>
</g>
<!-- Node3&#45;&gt;Node6 -->
<g id="edge3" class="edge">
<title>Node3&#45;&gt;Node6</title>
<path fill="none" stroke="#191970" d="M333.1945,-128.0643C345.7626,-118.1577 360.3917,-106.6265 371.7885,-97.6432"/>
<polygon fill="#191970" stroke="#191970" points="330.9747,-125.3574 325.2878,-134.2967 335.3081,-130.8549 330.9747,-125.3574"/>
</g>
<!-- Node8 -->
<g id="node6" class="node">
<title>Node8</title>
<g id="a_node6"><a xlink:href="_string_functions_8cpp.html" target="_top" xlink:title="libs/StringAddOns/String\lFunctions.cpp">
<polygon fill="#ffffff" stroke="#000000" points="490,-67.5 490,-97.5 624,-97.5 624,-67.5 490,-67.5"/>
<text text-anchor="start" x="498" y="-85.5" font-family="Helvetica,sans-Serif" font-size="10.00" fill="#000000">libs/StringAddOns/String</text>
<text text-anchor="middle" x="557" y="-74.5" font-family="Helvetica,sans-Serif" font-size="10.00" fill="#000000">Functions.cpp</text>
</a>
</g>
</g>
<!-- Node3&#45;&gt;Node8 -->
<g id="edge5" class="edge">
<title>Node3&#45;&gt;Node8</title>
<path fill="none" stroke="#191970" d="M372.2349,-131.8198C412.1302,-121.1704 462.3972,-107.7525 500.425,-97.6017"/>
<polygon fill="#191970" stroke="#191970" points="371.0883,-128.5032 362.3293,-134.4639 372.8937,-135.2664 371.0883,-128.5032"/>
</g>
<!-- Node7 -->
<g id="node5" class="node">
<title>Node7</title>
<g id="a_node5"><a xlink:href="_ip_filter_tests_8cpp.html" target="_top" xlink:title="hw2_ip_filter/tests\l/IpFilterTests/IpFilterTests.cpp">
<polygon fill="#ffffff" stroke="#000000" points="312,-.5 312,-30.5 470,-30.5 470,-.5 312,-.5"/>
<text text-anchor="start" x="320" y="-18.5" font-family="Helvetica,sans-Serif" font-size="10.00" fill="#000000">hw2_ip_filter/tests</text>
<text text-anchor="middle" x="391" y="-7.5" font-family="Helvetica,sans-Serif" font-size="10.00" fill="#000000">/IpFilterTests/IpFilterTests.cpp</text>
</a>
</g>
</g>
<!-- Node6&#45;&gt;Node7 -->
<g id="edge4" class="edge">
<title>Node6&#45;&gt;Node7</title>
<path fill="none" stroke="#191970" d="M391,-57.0249C391,-48.128 391,-38.4287 391,-30.6432"/>
<polygon fill="#191970" stroke="#191970" points="387.5001,-57.2966 391,-67.2967 394.5001,-57.2967 387.5001,-57.2966"/>
</g>
</g>
</svg>
