<?xml version="1.0" encoding="UTF-8" standalone="no"?>
<!DOCTYPE svg PUBLIC "-//W3C//DTD SVG 1.1//EN"
 "http://www.w3.org/Graphics/SVG/1.1/DTD/svg11.dtd">
<!-- Generated by graphviz version 2.40.1 (20161225.0304)
 -->
<!-- Title: libs/TypeTraits/TypeTraits.h Pages: 1 -->
<!--zoomable 364 -->
<svg id="main" version="1.1" xmlns="http://www.w3.org/2000/svg" xmlns:xlink="http://www.w3.org/1999/xlink" xml:space="preserve" onload="init(evt)">
<style type="text/css"><![CDATA[
.edge:hover path { stroke: red; }
.edge:hover polygon { stroke: red; fill: red; }
]]></style>
<script type="text/javascript"><![CDATA[
var edges = document.getElementsByTagName('g');
if (edges && edges.length) {
  for (var i=0;i<edges.length;i++) {
    if (edges[i].id.substr(0,4)=='edge') {
      edges[i].setAttribute('class','edge');
    }
  }
}
]]></script>
        <defs>
                <circle id="rim" cx="0" cy="0" r="7"/>
                <circle id="rim2" cx="0" cy="0" r="3.5"/>
                <g id="zoomPlus">
                        <use xlink:href="#rim" fill="#404040">
                                <set attributeName="fill" to="#808080" begin="zoomplus.mouseover" end="zoomplus.mouseout"/>
                        </use>
                        <path d="M-4,0h8M0,-4v8" fill="none" stroke="white" stroke-width="1.5" pointer-events="none"/>
                </g>
                <g id="zoomMin">
                        <use xlink:href="#rim" fill="#404040">
                                <set attributeName="fill" to="#808080" begin="zoomminus.mouseover" end="zoomminus.mouseout"/>
                        </use>
                        <path d="M-4,0h8" fill="none" stroke="white" stroke-width="1.5" pointer-events="none"/>
                </g>
                <g id="dirArrow">
                        <path fill="none" stroke="white" stroke-width="1.5" d="M0,-3.0v7 M-2.5,-0.5L0,-3.0L2.5,-0.5"/>
                </g>
               <g id="resetDef">
                       <use xlink:href="#rim2" fill="#404040">
                               <set attributeName="fill" to="#808080" begin="reset.mouseover" end="reset.mouseout"/>
                       </use>
               </g>
        </defs>

<script type="text/javascript">
var viewWidth = 672;
var viewHeight = 364;
var sectionId = 'dynsection-1';
</script>
<script xlink:href="svgpan.js"/>
<svg id="graph" class="graph">
<g id="viewport">
<title>libs/TypeTraits/TypeTraits.h</title>
<polygon fill="#ffffff" stroke="transparent" points="-4,4 -4,-360 668,-360 668,4 -4,4"/>
<!-- Node1 -->
<g id="node1" class="node">
<title>Node1</title>
<g id="a_node1"><a xlink:title=" ">
<polygon fill="#bfbfbf" stroke="#000000" points="273,-336.5 273,-355.5 419,-355.5 419,-336.5 273,-336.5"/>
<text text-anchor="middle" x="346" y="-343.5" font-family="Helvetica,sans-Serif" font-size="10.00" fill="#000000">libs/TypeTraits/TypeTraits.h</text>
</a>
</g>
</g>
<!-- Node2 -->
<g id="node2" class="node">
<title>Node2</title>
<g id="a_node2"><a xlink:href="_generic_ip_8h.html" target="_top" xlink:title=" ">
<polygon fill="#ffffff" stroke="#000000" points="283,-280.5 283,-299.5 409,-299.5 409,-280.5 283,-280.5"/>
<text text-anchor="middle" x="346" y="-287.5" font-family="Helvetica,sans-Serif" font-size="10.00" fill="#000000">TypeTraits/TypeTraits.h</text>
</a>
</g>
</g>
<!-- Node1&#45;&gt;Node2 -->
<g id="edge1" class="edge">
<title>Node1&#45;&gt;Node2</title>
<path fill="none" stroke="#191970" d="M346,-326.1575C346,-317.155 346,-306.9199 346,-299.6427"/>
<polygon fill="#191970" stroke="#191970" points="342.5001,-326.2455 346,-336.2455 349.5001,-326.2456 342.5001,-326.2455"/>
</g>
<!-- Node4 -->
<g id="node4" class="node">
<title>Node4</title>
<g id="a_node4"><a xlink:href="_ip_storage_8h.html" target="_top" xlink:title=" ">
<polygon fill="#ffffff" stroke="#000000" points="231.5,-168.5 231.5,-187.5 278.5,-187.5 278.5,-168.5 231.5,-168.5"/>
<text text-anchor="middle" x="255" y="-175.5" font-family="Helvetica,sans-Serif" font-size="10.00" fill="#000000">IpV4.h</text>
</a>
</g>
</g>
<!-- Node1&#45;&gt;Node4 -->
<g id="edge16" class="edge">
<title>Node1&#45;&gt;Node4</title>
<path fill="none" stroke="#191970" d="M311.6498,-331.7769C297.8156,-324.3251 283.0263,-313.8257 274,-300 250.5632,-264.1015 252.1497,-209.8315 253.9653,-187.8062"/>
<polygon fill="#191970" stroke="#191970" points="310.483,-335.1068 320.9921,-336.4524 313.6159,-328.847 310.483,-335.1068"/>
</g>
<!-- Node12 -->
<g id="node12" class="node">
<title>Node12</title>
<g id="a_node12"><a xlink:href="_print_ip_8h.html" target="_top" xlink:title=" ">
<polygon fill="#ffffff" stroke="#000000" points="429,-280.5 429,-299.5 555,-299.5 555,-280.5 429,-280.5"/>
<text text-anchor="middle" x="492" y="-287.5" font-family="Helvetica,sans-Serif" font-size="10.00" fill="#000000">TypeTraits/TypeTraits.h</text>
</a>
</g>
</g>
<!-- Node1&#45;&gt;Node12 -->
<g id="edge17" class="edge">
<title>Node1&#45;&gt;Node12</title>
<path fill="none" stroke="#191970" d="M380.4435,-332.7888C407.1013,-322.5639 443.38,-308.6488 467.2292,-299.5011"/>
<polygon fill="#191970" stroke="#191970" points="379.1816,-329.5241 371.0983,-336.3733 381.6885,-336.0598 379.1816,-329.5241"/>
</g>
<!-- Node3 -->
<g id="node3" class="node">
<title>Node3</title>
<g id="a_node3"><a xlink:href="_ip_v4_8h.html" target="_top" xlink:title=" ">
<polygon fill="#ffffff" stroke="#000000" points="296,-224.5 296,-243.5 368,-243.5 368,-224.5 296,-224.5"/>
<text text-anchor="middle" x="332" y="-231.5" font-family="Helvetica,sans-Serif" font-size="10.00" fill="#000000">GenericIp.h</text>
</a>
</g>
</g>
<!-- Node2&#45;&gt;Node3 -->
<g id="edge2" class="edge">
<title>Node2&#45;&gt;Node3</title>
<path fill="none" stroke="#191970" d="M341.1135,-270.4538C338.8451,-261.3803 336.25,-250.9998 334.4107,-243.6427"/>
<polygon fill="#191970" stroke="#191970" points="337.7405,-271.393 343.5614,-280.2455 344.5315,-269.6952 337.7405,-271.393"/>
</g>
<!-- Node3&#45;&gt;Node4 -->
<g id="edge3" class="edge">
<title>Node3&#45;&gt;Node4</title>
<path fill="none" stroke="#191970" d="M310.2884,-218.2097C296.7647,-208.3743 279.8042,-196.0394 268.2587,-187.6427"/>
<polygon fill="#191970" stroke="#191970" points="308.4416,-221.1944 318.5876,-224.2455 312.5589,-215.5332 308.4416,-221.1944"/>
</g>
<!-- Node8 -->
<g id="node8" class="node">
<title>Node8</title>
<g id="a_node8"><a xlink:href="hw1__ip__filter_2src_2_required_outputs_module_2main_8cpp.html" target="_top" xlink:title=" ">
<polygon fill="#ffffff" stroke="#000000" points="280,-56.5 280,-75.5 420,-75.5 420,-56.5 280,-56.5"/>
<text text-anchor="middle" x="350" y="-63.5" font-family="Helvetica,sans-Serif" font-size="10.00" fill="#000000">IpFilter/IpStoragePrinter.h</text>
</a>
</g>
</g>
<!-- Node3&#45;&gt;Node8 -->
<g id="edge12" class="edge">
<title>Node3&#45;&gt;Node8</title>
<path fill="none" stroke="#191970" d="M334.115,-214.2601C337.9821,-178.1669 346.0608,-102.7656 348.947,-75.8279"/>
<polygon fill="#191970" stroke="#191970" points="330.6047,-214.1702 333.0193,-224.4862 337.5648,-214.916 330.6047,-214.1702"/>
</g>
<!-- Node9 -->
<g id="node9" class="node">
<title>Node9</title>
<g id="a_node9"><a xlink:href="_ip_storage_tests_8h.html" target="_top" xlink:title=" ">
<polygon fill="#ffffff" stroke="#000000" points="0,-56.5 0,-75.5 140,-75.5 140,-56.5 0,-56.5"/>
<text text-anchor="middle" x="70" y="-63.5" font-family="Helvetica,sans-Serif" font-size="10.00" fill="#000000">IpFilter/IpStoragePrinter.h</text>
</a>
</g>
</g>
<!-- Node3&#45;&gt;Node9 -->
<g id="edge13" class="edge">
<title>Node3&#45;&gt;Node9</title>
<path fill="none" stroke="#191970" d="M285.5903,-225.0178C233.2648,-212.6312 148.7563,-185.4862 97,-132 81.5038,-115.9859 74.4508,-89.8622 71.6288,-75.7627"/>
<polygon fill="#191970" stroke="#191970" points="285.0792,-228.491 295.607,-227.3018 286.6354,-221.6662 285.0792,-228.491"/>
</g>
<!-- Node11 -->
<g id="node11" class="node">
<title>Node11</title>
<g id="a_node11"><a xlink:href="_ip_v4_tests_8h.html" target="_top" xlink:title=" ">
<polygon fill="#ffffff" stroke="#000000" points="395.5,-112.5 395.5,-131.5 478.5,-131.5 478.5,-112.5 395.5,-112.5"/>
<text text-anchor="middle" x="437" y="-119.5" font-family="Helvetica,sans-Serif" font-size="10.00" fill="#000000">IpFilter/IpV4.h</text>
</a>
</g>
</g>
<!-- Node3&#45;&gt;Node11 -->
<g id="edge14" class="edge">
<title>Node3&#45;&gt;Node11</title>
<path fill="none" stroke="#191970" d="M347.7935,-217.1536C370.1457,-193.3113 410.2666,-150.5156 428.0704,-131.5249"/>
<polygon fill="#191970" stroke="#191970" points="345.2383,-214.7617 340.9522,-224.4509 350.3451,-219.5493 345.2383,-214.7617"/>
</g>
<!-- Node5 -->
<g id="node5" class="node">
<title>Node5</title>
<g id="a_node5"><a xlink:href="_ip_storage_8cpp.html" target="_top" xlink:title=" ">
<polygon fill="#ffffff" stroke="#000000" points="129,-112.5 129,-131.5 201,-131.5 201,-112.5 129,-112.5"/>
<text text-anchor="middle" x="165" y="-119.5" font-family="Helvetica,sans-Serif" font-size="10.00" fill="#000000">IpStorage.h</text>
</a>
</g>
</g>
<!-- Node4&#45;&gt;Node5 -->
<g id="edge4" class="edge">
<title>Node4&#45;&gt;Node5</title>
<path fill="none" stroke="#191970" d="M230.5216,-162.769C214.5734,-152.8456 194.249,-140.1994 180.4972,-131.6427"/>
<polygon fill="#191970" stroke="#191970" points="228.9835,-165.9342 239.3232,-168.2455 232.6817,-159.9908 228.9835,-165.9342"/>
</g>
<!-- Node6 -->
<g id="node6" class="node">
<title>Node6</title>
<g id="a_node6"><a xlink:href="_ip_storage_printer_8h.html" target="_top" xlink:title=" ">
<polygon fill="#ffffff" stroke="#000000" points="219,-112.5 219,-131.5 291,-131.5 291,-112.5 219,-112.5"/>
<text text-anchor="middle" x="255" y="-119.5" font-family="Helvetica,sans-Serif" font-size="10.00" fill="#000000">IpStorage.h</text>
</a>
</g>
</g>
<!-- Node4&#45;&gt;Node6 -->
<g id="edge5" class="edge">
<title>Node4&#45;&gt;Node6</title>
<path fill="none" stroke="#191970" d="M255,-158.1575C255,-149.155 255,-138.9199 255,-131.6427"/>
<polygon fill="#191970" stroke="#191970" points="251.5001,-158.2455 255,-168.2455 258.5001,-158.2456 251.5001,-158.2455"/>
</g>
<!-- Node4&#45;&gt;Node8 -->
<g id="edge10" class="edge">
<title>Node4&#45;&gt;Node8</title>
<path fill="none" stroke="#191970" d="M272.3172,-161.3242C280.9104,-152.7963 291.2884,-142.1073 300,-132 316.5179,-112.8358 333.9565,-88.8271 343.2425,-75.6931"/>
<polygon fill="#191970" stroke="#191970" points="269.7185,-158.9704 265.0263,-168.4696 274.6181,-163.9698 269.7185,-158.9704"/>
</g>
<!-- Node4&#45;&gt;Node9 -->
<g id="edge11" class="edge">
<title>Node4&#45;&gt;Node9</title>
<path fill="none" stroke="#191970" d="M221.284,-172.2843C192.3021,-166.0959 150.4823,-154.0126 120,-132 98.7896,-116.683 82.4661,-89.7864 74.8014,-75.5166"/>
<polygon fill="#191970" stroke="#191970" points="220.8423,-175.7654 231.336,-174.305 222.2219,-168.9027 220.8423,-175.7654"/>
</g>
<!-- Node7 -->
<g id="node7" class="node">
<title>Node7</title>
<g id="a_node7"><a xlink:href="_ip_storage_printer_8cpp.html" target="_top" xlink:title=" ">
<polygon fill="#ffffff" stroke="#000000" points="158,-56.5 158,-75.5 262,-75.5 262,-56.5 158,-56.5"/>
<text text-anchor="middle" x="210" y="-63.5" font-family="Helvetica,sans-Serif" font-size="10.00" fill="#000000">IpStoragePrinter.h</text>
</a>
</g>
</g>
<!-- Node6&#45;&gt;Node7 -->
<g id="edge6" class="edge">
<title>Node6&#45;&gt;Node7</title>
<path fill="none" stroke="#191970" d="M240.7054,-104.2112C233.1004,-94.7472 224.0462,-83.4797 217.7486,-75.6427"/>
<polygon fill="#191970" stroke="#191970" points="238.1694,-106.6428 247.1616,-112.2455 243.6259,-102.2581 238.1694,-106.6428"/>
</g>
<!-- Node6&#45;&gt;Node8 -->
<g id="edge7" class="edge">
<title>Node6&#45;&gt;Node8</title>
<path fill="none" stroke="#191970" d="M280.3676,-107.0465C297.271,-97.0824 318.9904,-84.2794 333.6419,-75.6427"/>
<polygon fill="#191970" stroke="#191970" points="278.3851,-104.1522 271.5477,-112.2455 281.9398,-110.1825 278.3851,-104.1522"/>
</g>
<!-- Node6&#45;&gt;Node9 -->
<g id="edge8" class="edge">
<title>Node6&#45;&gt;Node9</title>
<path fill="none" stroke="#191970" d="M213.5603,-109.4561C179.6009,-99.1765 132.2703,-84.8494 101.3876,-75.5011"/>
<polygon fill="#191970" stroke="#191970" points="212.6122,-112.8259 223.1974,-112.3733 214.6403,-106.1261 212.6122,-112.8259"/>
</g>
<!-- Node10 -->
<g id="node10" class="node">
<title>Node10</title>
<g id="a_node10"><a xlink:href="_ip_filter_tests_8cpp.html" target="_top" xlink:title=" ">
<polygon fill="#ffffff" stroke="#000000" points="210.5,-.5 210.5,-19.5 307.5,-19.5 307.5,-.5 210.5,-.5"/>
<text text-anchor="middle" x="259" y="-7.5" font-family="Helvetica,sans-Serif" font-size="10.00" fill="#000000">IpStorageTests.h</text>
</a>
</g>
</g>
<!-- Node9&#45;&gt;Node10 -->
<g id="edge9" class="edge">
<title>Node9&#45;&gt;Node10</title>
<path fill="none" stroke="#191970" d="M112.3357,-53.4561C147.0294,-43.1765 195.3834,-28.8494 226.9337,-19.5011"/>
<polygon fill="#191970" stroke="#191970" points="111.0839,-50.1765 102.4903,-56.3733 113.0726,-56.8881 111.0839,-50.1765"/>
</g>
<!-- Node11&#45;&gt;Node10 -->
<g id="edge15" class="edge">
<title>Node11&#45;&gt;Node10</title>
<path fill="none" stroke="#191970" d="M440.0053,-102.2007C441.0411,-87.727 439.8365,-68.5166 429,-56 413.1898,-37.7387 352.1389,-24.4963 307.7136,-17.0338"/>
<polygon fill="#191970" stroke="#191970" points="436.525,-101.8307 438.899,-112.1561 443.4822,-102.6039 436.525,-101.8307"/>
</g>
<!-- Node13 -->
<g id="node13" class="node">
<title>Node13</title>
<g id="a_node13"><a xlink:href="_print_ip_8cpp.html" target="_top" xlink:title=" ">
<polygon fill="#ffffff" stroke="#000000" points="386.5,-224.5 386.5,-243.5 443.5,-243.5 443.5,-224.5 386.5,-224.5"/>
<text text-anchor="middle" x="415" y="-231.5" font-family="Helvetica,sans-Serif" font-size="10.00" fill="#000000">PrintIp.h</text>
</a>
</g>
</g>
<!-- Node12&#45;&gt;Node13 -->
<g id="edge18" class="edge">
<title>Node12&#45;&gt;Node13</title>
<path fill="none" stroke="#191970" d="M470.2884,-274.2097C456.7647,-264.3743 439.8042,-252.0394 428.2587,-243.6427"/>
<polygon fill="#191970" stroke="#191970" points="468.4416,-277.1944 478.5876,-280.2455 472.5589,-271.5332 468.4416,-277.1944"/>
</g>
<!-- Node14 -->
<g id="node14" class="node">
<title>Node14</title>
<g id="a_node14"><a xlink:href="example_8cpp.html" target="_top" xlink:title=" ">
<polygon fill="#ffffff" stroke="#000000" points="462,-224.5 462,-243.5 554,-243.5 554,-224.5 462,-224.5"/>
<text text-anchor="middle" x="508" y="-231.5" font-family="Helvetica,sans-Serif" font-size="10.00" fill="#000000">PrintIp/PrintIp.h</text>
</a>
</g>
</g>
<!-- Node12&#45;&gt;Node14 -->
<g id="edge19" class="edge">
<title>Node12&#45;&gt;Node14</title>
<path fill="none" stroke="#191970" d="M497.5846,-270.4538C500.177,-261.3803 503.1429,-250.9998 505.245,-243.6427"/>
<polygon fill="#191970" stroke="#191970" points="494.1689,-269.6688 494.787,-280.2455 500.8996,-271.5919 494.1689,-269.6688"/>
</g>
<!-- Node15 -->
<g id="node15" class="node">
<title>Node15</title>
<g id="a_node15"><a xlink:href="_print_ip_tests_8h.html" target="_top" xlink:title=" ">
<polygon fill="#ffffff" stroke="#000000" points="572,-224.5 572,-243.5 664,-243.5 664,-224.5 572,-224.5"/>
<text text-anchor="middle" x="618" y="-231.5" font-family="Helvetica,sans-Serif" font-size="10.00" fill="#000000">PrintIp/PrintIp.h</text>
</a>
</g>
</g>
<!-- Node12&#45;&gt;Node15 -->
<g id="edge20" class="edge">
<title>Node12&#45;&gt;Node15</title>
<path fill="none" stroke="#191970" d="M522.9436,-276.2473C545.8265,-266.0771 576.4014,-252.4883 596.6225,-243.5011"/>
<polygon fill="#191970" stroke="#191970" points="521.3768,-273.1135 513.6602,-280.3733 524.2198,-279.5102 521.3768,-273.1135"/>
</g>
<!-- Node16 -->
<g id="node16" class="node">
<title>Node16</title>
<g id="a_node16"><a xlink:href="_print_ip_tests_8cpp.html" target="_top" xlink:title=" ">
<polygon fill="#ffffff" stroke="#000000" points="577,-168.5 577,-187.5 659,-187.5 659,-168.5 577,-168.5"/>
<text text-anchor="middle" x="618" y="-175.5" font-family="Helvetica,sans-Serif" font-size="10.00" fill="#000000">PrintIpTests.h</text>
</a>
</g>
</g>
<!-- Node15&#45;&gt;Node16 -->
<g id="edge21" class="edge">
<title>Node15&#45;&gt;Node16</title>
<path fill="none" stroke="#191970" d="M618,-214.1575C618,-205.155 618,-194.9199 618,-187.6427"/>
<polygon fill="#191970" stroke="#191970" points="614.5001,-214.2455 618,-224.2455 621.5001,-214.2456 614.5001,-214.2455"/>
</g>
</g>
</svg>
        <g id="navigator" transform="translate(0 0)" fill="#404254">
                <rect fill="#f2f5e9" fill-opacity="0.5" stroke="#606060" stroke-width=".5" x="0" y="0" width="60" height="60"/>
                <use id="zoomplus" xlink:href="#zoomPlus" x="17" y="9" onmousedown="handleZoom(evt,'in')"/>
                <use id="zoomminus" xlink:href="#zoomMin" x="42" y="9" onmousedown="handleZoom(evt,'out')"/>
                <use id="reset" xlink:href="#resetDef" x="30" y="36" onmousedown="handleReset()"/>
                <g id="arrowUp" xlink:href="#dirArrow" transform="translate(30 24)" onmousedown="handlePan(0,-1)">
                  <use xlink:href="#rim" fill="#404040">
                        <set attributeName="fill" to="#808080" begin="arrowUp.mouseover" end="arrowUp.mouseout"/>
                  </use>
                  <path fill="none" stroke="white" stroke-width="1.5" d="M0,-3.0v7 M-2.5,-0.5L0,-3.0L2.5,-0.5"/>
                </g>
                <g id="arrowRight" xlink:href="#dirArrow" transform="rotate(90) translate(36 -43)" onmousedown="handlePan(1,0)">
                  <use xlink:href="#rim" fill="#404040">
                        <set attributeName="fill" to="#808080" begin="arrowRight.mouseover" end="arrowRight.mouseout"/>
                  </use>
                  <path fill="none" stroke="white" stroke-width="1.5" d="M0,-3.0v7 M-2.5,-0.5L0,-3.0L2.5,-0.5"/>
                </g>
                <g id="arrowDown" xlink:href="#dirArrow" transform="rotate(180) translate(-30 -48)" onmousedown="handlePan(0,1)">
                  <use xlink:href="#rim" fill="#404040">
                        <set attributeName="fill" to="#808080" begin="arrowDown.mouseover" end="arrowDown.mouseout"/>
                  </use>
                  <path fill="none" stroke="white" stroke-width="1.5" d="M0,-3.0v7 M-2.5,-0.5L0,-3.0L2.5,-0.5"/>
                </g>
                <g id="arrowLeft" xlink:href="#dirArrow" transform="rotate(270) translate(-36 17)" onmousedown="handlePan(-1,0)">
                  <use xlink:href="#rim" fill="#404040">
                        <set attributeName="fill" to="#808080" begin="arrowLeft.mouseover" end="arrowLeft.mouseout"/>
                  </use>
                  <path fill="none" stroke="white" stroke-width="1.5" d="M0,-3.0v7 M-2.5,-0.5L0,-3.0L2.5,-0.5"/>
                </g>
        </g>
        <svg viewBox="0 0 15 15" width="100%" height="30px" preserveAspectRatio="xMaxYMin meet">
         <g id="arrow_out" transform="scale(0.3 0.3)">
          <a xlink:href="_type_traits_8h__dep__incl_org.svg" target="_base">
           <rect id="button" ry="5" rx="5" y="6" x="6" height="38" width="38"
                fill="#f2f5e9" fill-opacity="0.5" stroke="#606060" stroke-width="1.0"/>
           <path id="arrow"
             d="M 11.500037,31.436501 C 11.940474,20.09759 22.043105,11.32322 32.158766,21.979434 L 37.068811,17.246167 C 37.068811,17.246167 37.088388,32 37.088388,32 L 22.160133,31.978069 C 22.160133,31.978069 26.997745,27.140456 26.997745,27.140456 C 18.528582,18.264221 13.291696,25.230495 11.500037,31.436501 z"
             style="fill:#404040;"/>
          </a>
         </g>
        </svg>
</svg>
