<?xml version="1.0" encoding="UTF-8" standalone="no"?>
<!DOCTYPE svg PUBLIC "-//W3C//DTD SVG 1.1//EN"
 "http://www.w3.org/Graphics/SVG/1.1/DTD/svg11.dtd">
<!-- Generated by graphviz version 2.40.1 (20161225.0304)
 -->
<!-- Title: libs/TypeTraits/TypeTraits.h Pages: 1 -->
<!--zoomable 476 -->
<svg id="main" version="1.1" xmlns="http://www.w3.org/2000/svg" xmlns:xlink="http://www.w3.org/1999/xlink" xml:space="preserve" onload="init(evt)">
<style type="text/css"><![CDATA[
.edge:hover path { stroke: red; }
.edge:hover polygon { stroke: red; fill: red; }
]]></style>
<script type="text/javascript"><![CDATA[
var edges = document.getElementsByTagName('g');
if (edges && edges.length) {
  for (var i=0;i<edges.length;i++) {
    if (edges[i].id.substr(0,4)=='edge') {
      edges[i].setAttribute('class','edge');
    }
  }
}
]]></script>
        <defs>
                <circle id="rim" cx="0" cy="0" r="7"/>
                <circle id="rim2" cx="0" cy="0" r="3.5"/>
                <g id="zoomPlus">
                        <use xlink:href="#rim" fill="#404040">
                                <set attributeName="fill" to="#808080" begin="zoomplus.mouseover" end="zoomplus.mouseout"/>
                        </use>
                        <path d="M-4,0h8M0,-4v8" fill="none" stroke="white" stroke-width="1.5" pointer-events="none"/>
                </g>
                <g id="zoomMin">
                        <use xlink:href="#rim" fill="#404040">
                                <set attributeName="fill" to="#808080" begin="zoomminus.mouseover" end="zoomminus.mouseout"/>
                        </use>
                        <path d="M-4,0h8" fill="none" stroke="white" stroke-width="1.5" pointer-events="none"/>
                </g>
                <g id="dirArrow">
                        <path fill="none" stroke="white" stroke-width="1.5" d="M0,-3.0v7 M-2.5,-0.5L0,-3.0L2.5,-0.5"/>
                </g>
               <g id="resetDef">
                       <use xlink:href="#rim2" fill="#404040">
                               <set attributeName="fill" to="#808080" begin="reset.mouseover" end="reset.mouseout"/>
                       </use>
               </g>
        </defs>

<script type="text/javascript">
var viewWidth = 462;
var viewHeight = 476;
var sectionId = 'dynsection-1';
</script>
<script xlink:href="svgpan.js"/>
<svg id="graph" class="graph">
<g id="viewport">
<title>libs/TypeTraits/TypeTraits.h</title>
<polygon fill="#ffffff" stroke="transparent" points="-4,4 -4,-472 458,-472 458,4 -4,4"/>
<!-- Node1 -->
<g id="node1" class="node">
<title>Node1</title>
<g id="a_node1"><a xlink:title=" ">
<polygon fill="#bfbfbf" stroke="#000000" points="49,-448.5 49,-467.5 195,-467.5 195,-448.5 49,-448.5"/>
<text text-anchor="middle" x="122" y="-455.5" font-family="Helvetica,sans-Serif" font-size="10.00" fill="#000000">libs/TypeTraits/TypeTraits.h</text>
</a>
</g>
</g>
<!-- Node2 -->
<g id="node2" class="node">
<title>Node2</title>
<g id="a_node2"><a xlink:href="_generic_ip_8h.html" target="_top" xlink:title=" ">
<polygon fill="#ffffff" stroke="#000000" points="59,-392.5 59,-411.5 185,-411.5 185,-392.5 59,-392.5"/>
<text text-anchor="middle" x="122" y="-399.5" font-family="Helvetica,sans-Serif" font-size="10.00" fill="#000000">TypeTraits/TypeTraits.h</text>
</a>
</g>
</g>
<!-- Node1&#45;&gt;Node2 -->
<g id="edge1" class="edge">
<title>Node1&#45;&gt;Node2</title>
<path fill="none" stroke="#191970" d="M122,-438.1575C122,-429.155 122,-418.9199 122,-411.6427"/>
<polygon fill="#191970" stroke="#191970" points="118.5001,-438.2455 122,-448.2455 125.5001,-438.2456 118.5001,-438.2455"/>
</g>
<!-- Node4 -->
<g id="node4" class="node">
<title>Node4</title>
<g id="a_node4"><a xlink:href="_ip_storage_8h.html" target="_top" xlink:title=" ">
<polygon fill="#ffffff" stroke="#000000" points="98,-168.5 98,-187.5 178,-187.5 178,-168.5 98,-168.5"/>
<text text-anchor="middle" x="138" y="-175.5" font-family="Helvetica,sans-Serif" font-size="10.00" fill="#000000">IpFunctions.h</text>
</a>
</g>
</g>
<!-- Node1&#45;&gt;Node4 -->
<g id="edge19" class="edge">
<title>Node1&#45;&gt;Node4</title>
<path fill="none" stroke="#191970" d="M88.0618,-444.234C51.9611,-427.0762 0,-394.0368 0,-346 0,-346 0,-346 0,-290 0,-235.0765 66.7174,-202.3835 107.3733,-187.56"/>
<polygon fill="#191970" stroke="#191970" points="86.7607,-447.4874 97.3115,-448.4526 89.6655,-441.1185 86.7607,-447.4874"/>
</g>
<!-- Node13 -->
<g id="node13" class="node">
<title>Node13</title>
<g id="a_node13"><a xlink:href="_print_ip_8h.html" target="_top" xlink:title=" ">
<polygon fill="#ffffff" stroke="#000000" points="215,-392.5 215,-411.5 341,-411.5 341,-392.5 215,-392.5"/>
<text text-anchor="middle" x="278" y="-399.5" font-family="Helvetica,sans-Serif" font-size="10.00" fill="#000000">TypeTraits/TypeTraits.h</text>
</a>
</g>
</g>
<!-- Node1&#45;&gt;Node13 -->
<g id="edge20" class="edge">
<title>Node1&#45;&gt;Node13</title>
<path fill="none" stroke="#191970" d="M158.4284,-444.9231C186.9461,-434.686 225.9381,-420.6889 251.5326,-411.5011"/>
<polygon fill="#191970" stroke="#191970" points="157.0468,-441.7004 148.8174,-448.3733 159.4119,-448.2887 157.0468,-441.7004"/>
</g>
<!-- Node3 -->
<g id="node3" class="node">
<title>Node3</title>
<g id="a_node3"><a xlink:href="_ip_functions_8h.html" target="_top" xlink:title=" ">
<polygon fill="#ffffff" stroke="#000000" points="66,-224.5 66,-243.5 138,-243.5 138,-224.5 66,-224.5"/>
<text text-anchor="middle" x="102" y="-231.5" font-family="Helvetica,sans-Serif" font-size="10.00" fill="#000000">GenericIp.h</text>
</a>
</g>
</g>
<!-- Node2&#45;&gt;Node3 -->
<g id="edge2" class="edge">
<title>Node2&#45;&gt;Node3</title>
<path fill="none" stroke="#191970" d="M119.65,-382.2601C115.3532,-346.1669 106.3769,-270.7656 103.17,-243.8279"/>
<polygon fill="#191970" stroke="#191970" points="116.2097,-382.9701 120.8674,-392.4862 123.1607,-382.1426 116.2097,-382.9701"/>
</g>
<!-- Node9 -->
<g id="node9" class="node">
<title>Node9</title>
<g id="a_node9"><a xlink:href="_ip_v4_8h.html" target="_top" xlink:title=" ">
<polygon fill="#ffffff" stroke="#000000" points="130,-336.5 130,-355.5 202,-355.5 202,-336.5 130,-336.5"/>
<text text-anchor="middle" x="166" y="-343.5" font-family="Helvetica,sans-Serif" font-size="10.00" fill="#000000">GenericIp.h</text>
</a>
</g>
</g>
<!-- Node2&#45;&gt;Node9 -->
<g id="edge10" class="edge">
<title>Node2&#45;&gt;Node9</title>
<path fill="none" stroke="#191970" d="M135.9769,-384.2112C143.4129,-374.7472 152.266,-363.4797 158.4236,-355.6427"/>
<polygon fill="#191970" stroke="#191970" points="133.0903,-382.22 129.6642,-392.2455 138.5946,-386.5447 133.0903,-382.22"/>
</g>
<!-- Node3&#45;&gt;Node4 -->
<g id="edge3" class="edge">
<title>Node3&#45;&gt;Node4</title>
<path fill="none" stroke="#191970" d="M113.8096,-215.6296C119.8144,-206.2887 126.8659,-195.3197 131.8011,-187.6427"/>
<polygon fill="#191970" stroke="#191970" points="110.7342,-213.9411 108.2707,-224.2455 116.6225,-217.7264 110.7342,-213.9411"/>
</g>
<!-- Node5 -->
<g id="node5" class="node">
<title>Node5</title>
<g id="a_node5"><a xlink:href="_ip_storage_printer_8h.html" target="_top" xlink:title=" ">
<polygon fill="#ffffff" stroke="#000000" points="138,-112.5 138,-131.5 210,-131.5 210,-112.5 138,-112.5"/>
<text text-anchor="middle" x="174" y="-119.5" font-family="Helvetica,sans-Serif" font-size="10.00" fill="#000000">IpStorage.h</text>
</a>
</g>
</g>
<!-- Node4&#45;&gt;Node5 -->
<g id="edge4" class="edge">
<title>Node4&#45;&gt;Node5</title>
<path fill="none" stroke="#191970" d="M149.8096,-159.6296C155.8144,-150.2887 162.8659,-139.3197 167.8011,-131.6427"/>
<polygon fill="#191970" stroke="#191970" points="146.7342,-157.9411 144.2707,-168.2455 152.6225,-161.7264 146.7342,-157.9411"/>
</g>
<!-- Node6 -->
<g id="node6" class="node">
<title>Node6</title>
<g id="a_node6"><a xlink:href="hw1__ip__filter_2src_2_ip_filter_example_2main_8cpp.html" target="_top" xlink:title=" ">
<polygon fill="#ffffff" stroke="#000000" points="198,-56.5 198,-75.5 338,-75.5 338,-56.5 198,-56.5"/>
<text text-anchor="middle" x="268" y="-63.5" font-family="Helvetica,sans-Serif" font-size="10.00" fill="#000000">IpFilter/IpStoragePrinter.h</text>
</a>
</g>
</g>
<!-- Node4&#45;&gt;Node6 -->
<g id="edge8" class="edge">
<title>Node4&#45;&gt;Node6</title>
<path fill="none" stroke="#191970" d="M169.6291,-163.9141C185.4766,-155.935 204.3559,-144.9563 219,-132 238.0251,-115.1677 254.2829,-89.8345 262.4239,-75.9597"/>
<polygon fill="#191970" stroke="#191970" points="167.6842,-160.9677 160.2186,-168.4854 170.7428,-167.2642 167.6842,-160.9677"/>
</g>
<!-- Node7 -->
<g id="node7" class="node">
<title>Node7</title>
<g id="a_node7"><a xlink:href="_ip_storage_tests_8h.html" target="_top" xlink:title=" ">
<polygon fill="#ffffff" stroke="#000000" points="40,-56.5 40,-75.5 180,-75.5 180,-56.5 40,-56.5"/>
<text text-anchor="middle" x="110" y="-63.5" font-family="Helvetica,sans-Serif" font-size="10.00" fill="#000000">IpFilter/IpStoragePrinter.h</text>
</a>
</g>
</g>
<!-- Node4&#45;&gt;Node7 -->
<g id="edge9" class="edge">
<title>Node4&#45;&gt;Node7</title>
<path fill="none" stroke="#191970" d="M133.1497,-158.5987C127.0907,-134.363 116.9638,-93.8551 112.3812,-75.5249"/>
<polygon fill="#191970" stroke="#191970" points="129.7918,-159.5984 135.6127,-168.4509 136.5828,-157.9006 129.7918,-159.5984"/>
</g>
<!-- Node5&#45;&gt;Node6 -->
<g id="edge5" class="edge">
<title>Node5&#45;&gt;Node6</title>
<path fill="none" stroke="#191970" d="M199.1005,-107.0465C215.826,-97.0824 237.3168,-84.2794 251.8141,-75.6427"/>
<polygon fill="#191970" stroke="#191970" points="197.1732,-104.1206 190.3736,-112.2455 200.7559,-110.1343 197.1732,-104.1206"/>
</g>
<!-- Node5&#45;&gt;Node7 -->
<g id="edge6" class="edge">
<title>Node5&#45;&gt;Node7</title>
<path fill="none" stroke="#191970" d="M155.3086,-105.645C144.1781,-95.9058 130.4337,-83.8795 121.0202,-75.6427"/>
<polygon fill="#191970" stroke="#191970" points="153.0215,-108.2945 162.8521,-112.2455 157.631,-103.0264 153.0215,-108.2945"/>
</g>
<!-- Node8 -->
<g id="node8" class="node">
<title>Node8</title>
<g id="a_node8"><a xlink:href="_ip_filter_tests_8cpp.html" target="_top" xlink:title=" ">
<polygon fill="#ffffff" stroke="#000000" points="189.5,-.5 189.5,-19.5 286.5,-19.5 286.5,-.5 189.5,-.5"/>
<text text-anchor="middle" x="238" y="-7.5" font-family="Helvetica,sans-Serif" font-size="10.00" fill="#000000">IpStorageTests.h</text>
</a>
</g>
</g>
<!-- Node7&#45;&gt;Node8 -->
<g id="edge7" class="edge">
<title>Node7&#45;&gt;Node8</title>
<path fill="none" stroke="#191970" d="M141.4348,-52.2473C164.6809,-42.0771 195.7411,-28.4883 216.2831,-19.5011"/>
<polygon fill="#191970" stroke="#191970" points="139.7627,-49.1585 132.004,-56.3733 142.5685,-55.5716 139.7627,-49.1585"/>
</g>
<!-- Node9&#45;&gt;Node6 -->
<g id="edge15" class="edge">
<title>Node9&#45;&gt;Node6</title>
<path fill="none" stroke="#191970" d="M207.0012,-332.8764C248.3152,-316.7806 306,-285.1487 306,-234 306,-234 306,-234 306,-178 306,-138.1657 284.1774,-94.3859 273.607,-75.5166"/>
<polygon fill="#191970" stroke="#191970" points="205.5654,-329.6763 197.4187,-336.45 208.0114,-336.2351 205.5654,-329.6763"/>
</g>
<!-- Node9&#45;&gt;Node7 -->
<g id="edge16" class="edge">
<title>Node9&#45;&gt;Node7</title>
<path fill="none" stroke="#191970" d="M140.2932,-330.9617C113.7443,-313.7739 73.8833,-282.9218 57,-244 30.1826,-182.1768 82.4785,-102.6589 102.5848,-75.5448"/>
<polygon fill="#191970" stroke="#191970" points="138.7372,-334.1171 149.0693,-336.4622 142.4548,-328.1858 138.7372,-334.1171"/>
</g>
<!-- Node10 -->
<g id="node10" class="node">
<title>Node10</title>
<g id="a_node10"><a xlink:href="_restrictions_8h.html" target="_top" xlink:title=" ">
<polygon fill="#ffffff" stroke="#000000" points="142.5,-280.5 142.5,-299.5 189.5,-299.5 189.5,-280.5 142.5,-280.5"/>
<text text-anchor="middle" x="166" y="-287.5" font-family="Helvetica,sans-Serif" font-size="10.00" fill="#000000">IpV4.h</text>
</a>
</g>
</g>
<!-- Node9&#45;&gt;Node10 -->
<g id="edge11" class="edge">
<title>Node9&#45;&gt;Node10</title>
<path fill="none" stroke="#191970" d="M166,-326.1575C166,-317.155 166,-306.9199 166,-299.6427"/>
<polygon fill="#191970" stroke="#191970" points="162.5001,-326.2455 166,-336.2455 169.5001,-326.2456 162.5001,-326.2455"/>
</g>
<!-- Node12 -->
<g id="node12" class="node">
<title>Node12</title>
<g id="a_node12"><a xlink:href="_ip_v4_tests_8h.html" target="_top" xlink:title=" ">
<polygon fill="#ffffff" stroke="#000000" points="334.5,-168.5 334.5,-187.5 417.5,-187.5 417.5,-168.5 334.5,-168.5"/>
<text text-anchor="middle" x="376" y="-175.5" font-family="Helvetica,sans-Serif" font-size="10.00" fill="#000000">IpFilter/IpV4.h</text>
</a>
</g>
</g>
<!-- Node9&#45;&gt;Node12 -->
<g id="edge17" class="edge">
<title>Node9&#45;&gt;Node12</title>
<path fill="none" stroke="#191970" d="M212.0712,-336.6378C251.2876,-327.8917 303.7724,-314.1002 320,-300 355.7119,-268.9698 369.9997,-210.438 374.3851,-187.5322"/>
<polygon fill="#191970" stroke="#191970" points="211.1858,-333.2486 202.1643,-338.804 212.6811,-340.087 211.1858,-333.2486"/>
</g>
<!-- Node10&#45;&gt;Node3 -->
<g id="edge12" class="edge">
<title>Node10&#45;&gt;Node3</title>
<path fill="none" stroke="#191970" d="M147.3086,-273.645C136.1781,-263.9058 122.4337,-251.8795 113.0202,-243.6427"/>
<polygon fill="#191970" stroke="#191970" points="145.0215,-276.2945 154.8521,-280.2455 149.631,-271.0264 145.0215,-276.2945"/>
</g>
<!-- Node10&#45;&gt;Node4 -->
<g id="edge13" class="edge">
<title>Node10&#45;&gt;Node4</title>
<path fill="none" stroke="#191970" d="M161.1497,-270.5987C155.0907,-246.363 144.9638,-205.8551 140.3812,-187.5249"/>
<polygon fill="#191970" stroke="#191970" points="157.7918,-271.5984 163.6127,-280.4509 164.5828,-269.9006 157.7918,-271.5984"/>
</g>
<!-- Node11 -->
<g id="node11" class="node">
<title>Node11</title>
<g id="a_node11"><a xlink:href="_restrictions_8cpp.html" target="_top" xlink:title=" ">
<polygon fill="#ffffff" stroke="#000000" points="194.5,-224.5 194.5,-243.5 277.5,-243.5 277.5,-224.5 194.5,-224.5"/>
<text text-anchor="middle" x="236" y="-231.5" font-family="Helvetica,sans-Serif" font-size="10.00" fill="#000000">Restrictions.h</text>
</a>
</g>
</g>
<!-- Node10&#45;&gt;Node11 -->
<g id="edge14" class="edge">
<title>Node10&#45;&gt;Node11</title>
<path fill="none" stroke="#191970" d="M186.09,-273.928C198.3253,-264.1397 213.5507,-251.9595 223.9467,-243.6427"/>
<polygon fill="#191970" stroke="#191970" points="183.8153,-271.2655 178.1931,-280.2455 188.1882,-276.7316 183.8153,-271.2655"/>
</g>
<!-- Node12&#45;&gt;Node8 -->
<g id="edge18" class="edge">
<title>Node12&#45;&gt;Node8</title>
<path fill="none" stroke="#191970" d="M376.5261,-158.2548C376.1768,-131.9223 371.7493,-85.2399 347,-56 331.3415,-37.5003 306.9596,-26.2817 285.2232,-19.5625"/>
<polygon fill="#191970" stroke="#191970" points="373.0249,-158.4652 376.4658,-168.4857 380.0248,-158.5065 373.0249,-158.4652"/>
</g>
<!-- Node14 -->
<g id="node14" class="node">
<title>Node14</title>
<g id="a_node14"><a xlink:href="example_8cpp.html" target="_top" xlink:title=" ">
<polygon fill="#ffffff" stroke="#000000" points="227.5,-336.5 227.5,-355.5 328.5,-355.5 328.5,-336.5 227.5,-336.5"/>
<text text-anchor="middle" x="278" y="-343.5" font-family="Helvetica,sans-Serif" font-size="10.00" fill="#000000">../PrintIp/PrintIp.h</text>
</a>
</g>
</g>
<!-- Node13&#45;&gt;Node14 -->
<g id="edge21" class="edge">
<title>Node13&#45;&gt;Node14</title>
<path fill="none" stroke="#191970" d="M278,-382.1575C278,-373.155 278,-362.9199 278,-355.6427"/>
<polygon fill="#191970" stroke="#191970" points="274.5001,-382.2455 278,-392.2455 281.5001,-382.2456 274.5001,-382.2455"/>
</g>
<!-- Node15 -->
<g id="node15" class="node">
<title>Node15</title>
<g id="a_node15"><a xlink:href="_print_ip_tests_8h.html" target="_top" xlink:title=" ">
<polygon fill="#ffffff" stroke="#000000" points="360,-336.5 360,-355.5 452,-355.5 452,-336.5 360,-336.5"/>
<text text-anchor="middle" x="406" y="-343.5" font-family="Helvetica,sans-Serif" font-size="10.00" fill="#000000">PrintIp/PrintIp.h</text>
</a>
</g>
</g>
<!-- Node13&#45;&gt;Node15 -->
<g id="edge22" class="edge">
<title>Node13&#45;&gt;Node15</title>
<path fill="none" stroke="#191970" d="M309.4348,-388.2473C332.6809,-378.0771 363.7411,-364.4883 384.2831,-355.5011"/>
<polygon fill="#191970" stroke="#191970" points="307.7627,-385.1585 300.004,-392.3733 310.5685,-391.5716 307.7627,-385.1585"/>
</g>
<!-- Node16 -->
<g id="node16" class="node">
<title>Node16</title>
<g id="a_node16"><a xlink:href="_print_ip_tests_8cpp.html" target="_top" xlink:title=" ">
<polygon fill="#ffffff" stroke="#000000" points="372,-280.5 372,-299.5 454,-299.5 454,-280.5 372,-280.5"/>
<text text-anchor="middle" x="413" y="-287.5" font-family="Helvetica,sans-Serif" font-size="10.00" fill="#000000">PrintIpTests.h</text>
</a>
</g>
</g>
<!-- Node15&#45;&gt;Node16 -->
<g id="edge23" class="edge">
<title>Node15&#45;&gt;Node16</title>
<path fill="none" stroke="#191970" d="M408.4803,-326.1575C409.6056,-317.155 410.885,-306.9199 411.7947,-299.6427"/>
<polygon fill="#191970" stroke="#191970" points="404.9868,-325.8886 407.2193,-336.2455 411.9327,-326.7569 404.9868,-325.8886"/>
</g>
</g>
</svg>
        <g id="navigator" transform="translate(0 0)" fill="#404254">
                <rect fill="#f2f5e9" fill-opacity="0.5" stroke="#606060" stroke-width=".5" x="0" y="0" width="60" height="60"/>
                <use id="zoomplus" xlink:href="#zoomPlus" x="17" y="9" onmousedown="handleZoom(evt,'in')"/>
                <use id="zoomminus" xlink:href="#zoomMin" x="42" y="9" onmousedown="handleZoom(evt,'out')"/>
                <use id="reset" xlink:href="#resetDef" x="30" y="36" onmousedown="handleReset()"/>
                <g id="arrowUp" xlink:href="#dirArrow" transform="translate(30 24)" onmousedown="handlePan(0,-1)">
                  <use xlink:href="#rim" fill="#404040">
                        <set attributeName="fill" to="#808080" begin="arrowUp.mouseover" end="arrowUp.mouseout"/>
                  </use>
                  <path fill="none" stroke="white" stroke-width="1.5" d="M0,-3.0v7 M-2.5,-0.5L0,-3.0L2.5,-0.5"/>
                </g>
                <g id="arrowRight" xlink:href="#dirArrow" transform="rotate(90) translate(36 -43)" onmousedown="handlePan(1,0)">
                  <use xlink:href="#rim" fill="#404040">
                        <set attributeName="fill" to="#808080" begin="arrowRight.mouseover" end="arrowRight.mouseout"/>
                  </use>
                  <path fill="none" stroke="white" stroke-width="1.5" d="M0,-3.0v7 M-2.5,-0.5L0,-3.0L2.5,-0.5"/>
                </g>
                <g id="arrowDown" xlink:href="#dirArrow" transform="rotate(180) translate(-30 -48)" onmousedown="handlePan(0,1)">
                  <use xlink:href="#rim" fill="#404040">
                        <set attributeName="fill" to="#808080" begin="arrowDown.mouseover" end="arrowDown.mouseout"/>
                  </use>
                  <path fill="none" stroke="white" stroke-width="1.5" d="M0,-3.0v7 M-2.5,-0.5L0,-3.0L2.5,-0.5"/>
                </g>
                <g id="arrowLeft" xlink:href="#dirArrow" transform="rotate(270) translate(-36 17)" onmousedown="handlePan(-1,0)">
                  <use xlink:href="#rim" fill="#404040">
                        <set attributeName="fill" to="#808080" begin="arrowLeft.mouseover" end="arrowLeft.mouseout"/>
                  </use>
                  <path fill="none" stroke="white" stroke-width="1.5" d="M0,-3.0v7 M-2.5,-0.5L0,-3.0L2.5,-0.5"/>
                </g>
        </g>
        <svg viewBox="0 0 15 15" width="100%" height="30px" preserveAspectRatio="xMaxYMin meet">
         <g id="arrow_out" transform="scale(0.3 0.3)">
          <a xlink:href="_type_traits_8h__dep__incl_org.svg" target="_base">
           <rect id="button" ry="5" rx="5" y="6" x="6" height="38" width="38"
                fill="#f2f5e9" fill-opacity="0.5" stroke="#606060" stroke-width="1.0"/>
           <path id="arrow"
             d="M 11.500037,31.436501 C 11.940474,20.09759 22.043105,11.32322 32.158766,21.979434 L 37.068811,17.246167 C 37.068811,17.246167 37.088388,32 37.088388,32 L 22.160133,31.978069 C 22.160133,31.978069 26.997745,27.140456 26.997745,27.140456 C 18.528582,18.264221 13.291696,25.230495 11.500037,31.436501 z"
             style="fill:#404040;"/>
          </a>
         </g>
        </svg>
</svg>
