<?xml version="1.0" encoding="UTF-8" standalone="no"?>
<!DOCTYPE svg PUBLIC "-//W3C//DTD SVG 1.1//EN"
 "http://www.w3.org/Graphics/SVG/1.1/DTD/svg11.dtd">
<!-- Generated by graphviz version 2.40.1 (20161225.0304)
 -->
<!-- Title: libs/TypeTraits/TypeTraits.h Pages: 1 -->
<svg width="485pt" height="476pt"
 viewBox="0.00 0.00 485.00 476.00" xmlns="http://www.w3.org/2000/svg" xmlns:xlink="http://www.w3.org/1999/xlink">
<g id="graph0" class="graph" transform="scale(1 1) rotate(0) translate(4 472)">
<title>libs/TypeTraits/TypeTraits.h</title>
<polygon fill="#ffffff" stroke="transparent" points="-4,4 -4,-472 481,-472 481,4 -4,4"/>
<!-- Node1 -->
<g id="node1" class="node">
<title>Node1</title>
<g id="a_node1"><a xlink:title=" ">
<polygon fill="#bfbfbf" stroke="#000000" points="40,-448.5 40,-467.5 186,-467.5 186,-448.5 40,-448.5"/>
<text text-anchor="middle" x="113" y="-455.5" font-family="Helvetica,sans-Serif" font-size="10.00" fill="#000000">libs/TypeTraits/TypeTraits.h</text>
</a>
</g>
</g>
<!-- Node2 -->
<g id="node2" class="node">
<title>Node2</title>
<g id="a_node2"><a xlink:href="_generic_ip_8h.html" target="_top" xlink:title=" ">
<polygon fill="#ffffff" stroke="#000000" points="50,-392.5 50,-411.5 176,-411.5 176,-392.5 50,-392.5"/>
<text text-anchor="middle" x="113" y="-399.5" font-family="Helvetica,sans-Serif" font-size="10.00" fill="#000000">TypeTraits/TypeTraits.h</text>
</a>
</g>
</g>
<!-- Node1&#45;&gt;Node2 -->
<g id="edge1" class="edge">
<title>Node1&#45;&gt;Node2</title>
<path fill="none" stroke="#191970" d="M113,-438.1575C113,-429.155 113,-418.9199 113,-411.6427"/>
<polygon fill="#191970" stroke="#191970" points="109.5001,-438.2455 113,-448.2455 116.5001,-438.2456 109.5001,-438.2455"/>
</g>
<!-- Node4 -->
<g id="node4" class="node">
<title>Node4</title>
<g id="a_node4"><a xlink:href="_ip_storage_8h.html" target="_top" xlink:title=" ">
<polygon fill="#ffffff" stroke="#000000" points="88,-168.5 88,-187.5 168,-187.5 168,-168.5 88,-168.5"/>
<text text-anchor="middle" x="128" y="-175.5" font-family="Helvetica,sans-Serif" font-size="10.00" fill="#000000">IpFunctions.h</text>
</a>
</g>
</g>
<!-- Node1&#45;&gt;Node4 -->
<g id="edge19" class="edge">
<title>Node1&#45;&gt;Node4</title>
<path fill="none" stroke="#191970" d="M82.2342,-443.9047C48.7737,-426.2126 0,-392.4561 0,-346 0,-346 0,-346 0,-290 0,-236.7016 63.6333,-202.8832 101.167,-187.5714"/>
<polygon fill="#191970" stroke="#191970" points="80.7117,-447.057 91.2125,-448.466 83.8823,-440.8162 80.7117,-447.057"/>
</g>
<!-- Node13 -->
<g id="node13" class="node">
<title>Node13</title>
<g id="a_node13"><a xlink:href="_print_ip_8h.html" target="_top" xlink:title=" ">
<polygon fill="#ffffff" stroke="#000000" points="197,-392.5 197,-411.5 323,-411.5 323,-392.5 197,-392.5"/>
<text text-anchor="middle" x="260" y="-399.5" font-family="Helvetica,sans-Serif" font-size="10.00" fill="#000000">TypeTraits/TypeTraits.h</text>
</a>
</g>
</g>
<!-- Node1&#45;&gt;Node13 -->
<g id="edge20" class="edge">
<title>Node1&#45;&gt;Node13</title>
<path fill="none" stroke="#191970" d="M147.6794,-444.7888C174.5198,-434.5639 211.047,-420.6488 235.0596,-411.5011"/>
<polygon fill="#191970" stroke="#191970" points="146.3691,-441.5425 138.2702,-448.3733 148.8611,-448.0839 146.3691,-441.5425"/>
</g>
<!-- Node3 -->
<g id="node3" class="node">
<title>Node3</title>
<g id="a_node3"><a xlink:href="_ip_functions_8h.html" target="_top" xlink:title=" ">
<polygon fill="#ffffff" stroke="#000000" points="66,-224.5 66,-243.5 138,-243.5 138,-224.5 66,-224.5"/>
<text text-anchor="middle" x="102" y="-231.5" font-family="Helvetica,sans-Serif" font-size="10.00" fill="#000000">GenericIp.h</text>
</a>
</g>
</g>
<!-- Node2&#45;&gt;Node3 -->
<g id="edge2" class="edge">
<title>Node2&#45;&gt;Node3</title>
<path fill="none" stroke="#191970" d="M106.255,-382.6605C103.7581,-374.5353 101.2357,-364.9165 100,-356 94.2421,-314.454 98.5874,-264.1934 100.8519,-243.5516"/>
<polygon fill="#191970" stroke="#191970" points="102.9726,-383.8836 109.4124,-392.2967 109.6247,-381.704 102.9726,-383.8836"/>
</g>
<!-- Node9 -->
<g id="node9" class="node">
<title>Node9</title>
<g id="a_node9"><a xlink:href="_ip_v4_8h.html" target="_top" xlink:title=" ">
<polygon fill="#ffffff" stroke="#000000" points="109,-336.5 109,-355.5 181,-355.5 181,-336.5 109,-336.5"/>
<text text-anchor="middle" x="145" y="-343.5" font-family="Helvetica,sans-Serif" font-size="10.00" fill="#000000">GenericIp.h</text>
</a>
</g>
</g>
<!-- Node2&#45;&gt;Node9 -->
<g id="edge10" class="edge">
<title>Node2&#45;&gt;Node9</title>
<path fill="none" stroke="#191970" d="M123.6645,-383.3372C128.9654,-374.0605 135.1487,-363.2398 139.4899,-355.6427"/>
<polygon fill="#191970" stroke="#191970" points="120.4966,-381.8266 118.574,-392.2455 126.5743,-385.2996 120.4966,-381.8266"/>
</g>
<!-- Node3&#45;&gt;Node4 -->
<g id="edge3" class="edge">
<title>Node3&#45;&gt;Node4</title>
<path fill="none" stroke="#191970" d="M110.8011,-215.0437C115.0775,-205.8331 120.033,-195.1598 123.523,-187.6427"/>
<polygon fill="#191970" stroke="#191970" points="107.5655,-213.7015 106.5289,-224.2455 113.9146,-216.6494 107.5655,-213.7015"/>
</g>
<!-- Node5 -->
<g id="node5" class="node">
<title>Node5</title>
<g id="a_node5"><a xlink:href="_ip_storage_printer_8h.html" target="_top" xlink:title=" ">
<polygon fill="#ffffff" stroke="#000000" points="133,-112.5 133,-131.5 205,-131.5 205,-112.5 133,-112.5"/>
<text text-anchor="middle" x="169" y="-119.5" font-family="Helvetica,sans-Serif" font-size="10.00" fill="#000000">IpStorage.h</text>
</a>
</g>
</g>
<!-- Node4&#45;&gt;Node5 -->
<g id="edge4" class="edge">
<title>Node4&#45;&gt;Node5</title>
<path fill="none" stroke="#191970" d="M141.2364,-159.9209C148.1211,-150.5176 156.2609,-139.3997 161.9402,-131.6427"/>
<polygon fill="#191970" stroke="#191970" points="138.2251,-158.1093 135.1417,-168.2455 143.8731,-162.2445 138.2251,-158.1093"/>
</g>
<!-- Node6 -->
<g id="node6" class="node">
<title>Node6</title>
<g id="a_node6"><a xlink:href="hw1__ip__filter_2src_2_ip_filter_example_2main_8cpp.html" target="_top" xlink:title=" ">
<polygon fill="#ffffff" stroke="#000000" points="193,-56.5 193,-75.5 333,-75.5 333,-56.5 193,-56.5"/>
<text text-anchor="middle" x="263" y="-63.5" font-family="Helvetica,sans-Serif" font-size="10.00" fill="#000000">IpFilter/IpStoragePrinter.h</text>
</a>
</g>
</g>
<!-- Node4&#45;&gt;Node6 -->
<g id="edge8" class="edge">
<title>Node4&#45;&gt;Node6</title>
<path fill="none" stroke="#191970" d="M161.8413,-164.1557C178.6308,-156.2751 198.5651,-145.3114 214,-132 233.4528,-115.2235 249.7749,-89.4095 257.7518,-75.5611"/>
<polygon fill="#191970" stroke="#191970" points="160.0476,-161.1255 152.377,-168.4339 162.931,-167.5041 160.0476,-161.1255"/>
</g>
<!-- Node7 -->
<g id="node7" class="node">
<title>Node7</title>
<g id="a_node7"><a xlink:href="_ip_storage_tests_8h.html" target="_top" xlink:title=" ">
<polygon fill="#ffffff" stroke="#000000" points="35,-56.5 35,-75.5 175,-75.5 175,-56.5 35,-56.5"/>
<text text-anchor="middle" x="105" y="-63.5" font-family="Helvetica,sans-Serif" font-size="10.00" fill="#000000">IpFilter/IpStoragePrinter.h</text>
</a>
</g>
</g>
<!-- Node4&#45;&gt;Node7 -->
<g id="edge9" class="edge">
<title>Node4&#45;&gt;Node7</title>
<path fill="none" stroke="#191970" d="M124.0158,-158.5987C119.0388,-134.363 110.7202,-93.8551 106.956,-75.5249"/>
<polygon fill="#191970" stroke="#191970" points="120.5989,-159.3594 126.039,-168.4509 127.4558,-157.9513 120.5989,-159.3594"/>
</g>
<!-- Node5&#45;&gt;Node6 -->
<g id="edge5" class="edge">
<title>Node5&#45;&gt;Node6</title>
<path fill="none" stroke="#191970" d="M194.1005,-107.0465C210.826,-97.0824 232.3168,-84.2794 246.8141,-75.6427"/>
<polygon fill="#191970" stroke="#191970" points="192.1732,-104.1206 185.3736,-112.2455 195.7559,-110.1343 192.1732,-104.1206"/>
</g>
<!-- Node5&#45;&gt;Node7 -->
<g id="edge6" class="edge">
<title>Node5&#45;&gt;Node7</title>
<path fill="none" stroke="#191970" d="M150.3086,-105.645C139.1781,-95.9058 125.4337,-83.8795 116.0202,-75.6427"/>
<polygon fill="#191970" stroke="#191970" points="148.0215,-108.2945 157.8521,-112.2455 152.631,-103.0264 148.0215,-108.2945"/>
</g>
<!-- Node8 -->
<g id="node8" class="node">
<title>Node8</title>
<g id="a_node8"><a xlink:href="_ip_filter_tests_8cpp.html" target="_top" xlink:title=" ">
<polygon fill="#ffffff" stroke="#000000" points="184.5,-.5 184.5,-19.5 281.5,-19.5 281.5,-.5 184.5,-.5"/>
<text text-anchor="middle" x="233" y="-7.5" font-family="Helvetica,sans-Serif" font-size="10.00" fill="#000000">IpStorageTests.h</text>
</a>
</g>
</g>
<!-- Node7&#45;&gt;Node8 -->
<g id="edge7" class="edge">
<title>Node7&#45;&gt;Node8</title>
<path fill="none" stroke="#191970" d="M136.4348,-52.2473C159.6809,-42.0771 190.7411,-28.4883 211.2831,-19.5011"/>
<polygon fill="#191970" stroke="#191970" points="134.7627,-49.1585 127.004,-56.3733 137.5685,-55.5716 134.7627,-49.1585"/>
</g>
<!-- Node9&#45;&gt;Node6 -->
<g id="edge15" class="edge">
<title>Node9&#45;&gt;Node6</title>
<path fill="none" stroke="#191970" d="M190.9526,-335.0882C238.5381,-320.73 306,-290.4244 306,-234 306,-234 306,-234 306,-178 306,-137.8014 281.5599,-94.5568 269.5308,-75.7069"/>
<polygon fill="#191970" stroke="#191970" points="189.774,-331.7852 181.1315,-337.9136 191.7094,-338.5123 189.774,-331.7852"/>
</g>
<!-- Node9&#45;&gt;Node7 -->
<g id="edge16" class="edge">
<title>Node9&#45;&gt;Node7</title>
<path fill="none" stroke="#191970" d="M124.3315,-329.9455C102.8018,-311.7802 70.382,-279.9968 57,-244 33.8019,-181.5987 79.9882,-103.0917 98.1236,-75.8454"/>
<polygon fill="#191970" stroke="#191970" points="122.3051,-332.8099 132.2595,-336.4377 126.7401,-327.3941 122.3051,-332.8099"/>
</g>
<!-- Node10 -->
<g id="node10" class="node">
<title>Node10</title>
<g id="a_node10"><a xlink:href="_restrictions_8h.html" target="_top" xlink:title=" ">
<polygon fill="#ffffff" stroke="#000000" points="139.5,-280.5 139.5,-299.5 186.5,-299.5 186.5,-280.5 139.5,-280.5"/>
<text text-anchor="middle" x="163" y="-287.5" font-family="Helvetica,sans-Serif" font-size="10.00" fill="#000000">IpV4.h</text>
</a>
</g>
</g>
<!-- Node9&#45;&gt;Node10 -->
<g id="edge11" class="edge">
<title>Node9&#45;&gt;Node10</title>
<path fill="none" stroke="#191970" d="M151.2827,-326.4538C154.1992,-317.3803 157.5358,-306.9998 159.9006,-299.6427"/>
<polygon fill="#191970" stroke="#191970" points="147.8634,-325.6542 148.1354,-336.2455 154.5276,-327.7963 147.8634,-325.6542"/>
</g>
<!-- Node12 -->
<g id="node12" class="node">
<title>Node12</title>
<g id="a_node12"><a xlink:href="_ip_v4_tests_8h.html" target="_top" xlink:title=" ">
<polygon fill="#ffffff" stroke="#000000" points="334.5,-168.5 334.5,-187.5 417.5,-187.5 417.5,-168.5 334.5,-168.5"/>
<text text-anchor="middle" x="376" y="-175.5" font-family="Helvetica,sans-Serif" font-size="10.00" fill="#000000">IpFilter/IpV4.h</text>
</a>
</g>
</g>
<!-- Node9&#45;&gt;Node12 -->
<g id="edge17" class="edge">
<title>Node9&#45;&gt;Node12</title>
<path fill="none" stroke="#191970" d="M191.0911,-334.9195C241.2222,-322.7128 314.9512,-304.2418 320,-300 356.2224,-269.5672 370.2111,-210.6854 374.4507,-187.6091"/>
<polygon fill="#191970" stroke="#191970" points="189.9879,-331.5856 181.0962,-337.3465 191.6397,-338.3879 189.9879,-331.5856"/>
</g>
<!-- Node10&#45;&gt;Node3 -->
<g id="edge12" class="edge">
<title>Node10&#45;&gt;Node3</title>
<path fill="none" stroke="#191970" d="M144.8751,-273.3607C134.322,-263.6727 121.3888,-251.7995 112.5036,-243.6427"/>
<polygon fill="#191970" stroke="#191970" points="142.6411,-276.0611 152.3746,-280.2455 147.375,-270.9045 142.6411,-276.0611"/>
</g>
<!-- Node10&#45;&gt;Node4 -->
<g id="edge13" class="edge">
<title>Node10&#45;&gt;Node4</title>
<path fill="none" stroke="#191970" d="M159.1152,-270.5759C156.2623,-257.3111 152.019,-239.4151 147,-224 142.8269,-211.183 136.6843,-196.9052 132.5222,-187.7064"/>
<polygon fill="#191970" stroke="#191970" points="155.7104,-271.394 161.1712,-280.473 162.564,-269.9702 155.7104,-271.394"/>
</g>
<!-- Node11 -->
<g id="node11" class="node">
<title>Node11</title>
<g id="a_node11"><a xlink:href="_restrictions_8cpp.html" target="_top" xlink:title=" ">
<polygon fill="#ffffff" stroke="#000000" points="194.5,-224.5 194.5,-243.5 277.5,-243.5 277.5,-224.5 194.5,-224.5"/>
<text text-anchor="middle" x="236" y="-231.5" font-family="Helvetica,sans-Serif" font-size="10.00" fill="#000000">Restrictions.h</text>
</a>
</g>
</g>
<!-- Node10&#45;&gt;Node11 -->
<g id="edge14" class="edge">
<title>Node10&#45;&gt;Node11</title>
<path fill="none" stroke="#191970" d="M183.951,-273.928C196.7107,-264.1397 212.5885,-251.9595 223.4301,-243.6427"/>
<polygon fill="#191970" stroke="#191970" points="181.5196,-271.3819 175.7156,-280.2455 185.7803,-276.9359 181.5196,-271.3819"/>
</g>
<!-- Node12&#45;&gt;Node8 -->
<g id="edge18" class="edge">
<title>Node12&#45;&gt;Node8</title>
<path fill="none" stroke="#191970" d="M375.6028,-158.1979C374.0451,-131.8009 367.5586,-85.0457 342,-56 325.7855,-37.5732 300.9577,-26.3262 279.0911,-19.5711"/>
<polygon fill="#191970" stroke="#191970" points="372.1162,-158.6051 376.0163,-168.4559 379.1106,-158.323 372.1162,-158.6051"/>
</g>
<!-- Node14 -->
<g id="node14" class="node">
<title>Node14</title>
<g id="a_node14"><a xlink:href="_print_ip_8cpp.html" target="_top" xlink:title=" ">
<polygon fill="#ffffff" stroke="#000000" points="199.5,-336.5 199.5,-355.5 256.5,-355.5 256.5,-336.5 199.5,-336.5"/>
<text text-anchor="middle" x="228" y="-343.5" font-family="Helvetica,sans-Serif" font-size="10.00" fill="#000000">PrintIp.h</text>
</a>
</g>
</g>
<!-- Node13&#45;&gt;Node14 -->
<g id="edge21" class="edge">
<title>Node13&#45;&gt;Node14</title>
<path fill="none" stroke="#191970" d="M249.3355,-383.3372C244.0346,-374.0605 237.8513,-363.2398 233.5101,-355.6427"/>
<polygon fill="#191970" stroke="#191970" points="246.4257,-385.2996 254.426,-392.2455 252.5034,-381.8266 246.4257,-385.2996"/>
</g>
<!-- Node15 -->
<g id="node15" class="node">
<title>Node15</title>
<g id="a_node15"><a xlink:href="example_8cpp.html" target="_top" xlink:title=" ">
<polygon fill="#ffffff" stroke="#000000" points="275,-336.5 275,-355.5 367,-355.5 367,-336.5 275,-336.5"/>
<text text-anchor="middle" x="321" y="-343.5" font-family="Helvetica,sans-Serif" font-size="10.00" fill="#000000">PrintIp/PrintIp.h</text>
</a>
</g>
</g>
<!-- Node13&#45;&gt;Node15 -->
<g id="edge22" class="edge">
<title>Node13&#45;&gt;Node15</title>
<path fill="none" stroke="#191970" d="M278.1249,-385.3607C288.678,-375.6727 301.6112,-363.7995 310.4964,-355.6427"/>
<polygon fill="#191970" stroke="#191970" points="275.625,-382.9045 270.6254,-392.2455 280.3589,-388.0611 275.625,-382.9045"/>
</g>
<!-- Node16 -->
<g id="node16" class="node">
<title>Node16</title>
<g id="a_node16"><a xlink:href="_print_ip_tests_8h.html" target="_top" xlink:title=" ">
<polygon fill="#ffffff" stroke="#000000" points="385,-336.5 385,-355.5 477,-355.5 477,-336.5 385,-336.5"/>
<text text-anchor="middle" x="431" y="-343.5" font-family="Helvetica,sans-Serif" font-size="10.00" fill="#000000">PrintIp/PrintIp.h</text>
</a>
</g>
</g>
<!-- Node13&#45;&gt;Node16 -->
<g id="edge23" class="edge">
<title>Node13&#45;&gt;Node16</title>
<path fill="none" stroke="#191970" d="M299.1148,-389.1905C330.4432,-378.9309 373.6871,-364.7691 401.9876,-355.5011"/>
<polygon fill="#191970" stroke="#191970" points="297.81,-385.9348 289.3959,-392.3733 299.9886,-392.5872 297.81,-385.9348"/>
</g>
<!-- Node17 -->
<g id="node17" class="node">
<title>Node17</title>
<g id="a_node17"><a xlink:href="_print_ip_tests_8cpp.html" target="_top" xlink:title=" ">
<polygon fill="#ffffff" stroke="#000000" points="390,-280.5 390,-299.5 472,-299.5 472,-280.5 390,-280.5"/>
<text text-anchor="middle" x="431" y="-287.5" font-family="Helvetica,sans-Serif" font-size="10.00" fill="#000000">PrintIpTests.h</text>
</a>
</g>
</g>
<!-- Node16&#45;&gt;Node17 -->
<g id="edge24" class="edge">
<title>Node16&#45;&gt;Node17</title>
<path fill="none" stroke="#191970" d="M431,-326.1575C431,-317.155 431,-306.9199 431,-299.6427"/>
<polygon fill="#191970" stroke="#191970" points="427.5001,-326.2455 431,-336.2455 434.5001,-326.2456 427.5001,-326.2455"/>
</g>
</g>
</svg>
