<?xml version="1.0" encoding="UTF-8" standalone="no"?>
<!DOCTYPE svg PUBLIC "-//W3C//DTD SVG 1.1//EN"
 "http://www.w3.org/Graphics/SVG/1.1/DTD/svg11.dtd">
<!-- Generated by graphviz version 2.40.1 (20161225.0304)
 -->
<!-- Title: libs/TypeTraits/TypeTraits.h Pages: 1 -->
<svg width="607pt" height="252pt"
 viewBox="0.00 0.00 606.50 252.00" xmlns="http://www.w3.org/2000/svg" xmlns:xlink="http://www.w3.org/1999/xlink">
<g id="graph0" class="graph" transform="scale(1 1) rotate(0) translate(4 248)">
<title>libs/TypeTraits/TypeTraits.h</title>
<polygon fill="#ffffff" stroke="transparent" points="-4,4 -4,-248 602.5,-248 602.5,4 -4,4"/>
<!-- Node1 -->
<g id="node1" class="node">
<title>Node1</title>
<g id="a_node1"><a xlink:title=" ">
<polygon fill="#bfbfbf" stroke="#000000" points="223,-224.5 223,-243.5 369,-243.5 369,-224.5 223,-224.5"/>
<text text-anchor="middle" x="296" y="-231.5" font-family="Helvetica,sans-Serif" font-size="10.00" fill="#000000">libs/TypeTraits/TypeTraits.h</text>
</a>
</g>
</g>
<!-- Node2 -->
<g id="node2" class="node">
<title>Node2</title>
<g id="a_node2"><a xlink:href="_ip_storage_8h.html" target="_top" xlink:title=" ">
<polygon fill="#ffffff" stroke="#000000" points="161,-168.5 161,-187.5 287,-187.5 287,-168.5 161,-168.5"/>
<text text-anchor="middle" x="224" y="-175.5" font-family="Helvetica,sans-Serif" font-size="10.00" fill="#000000">TypeTraits/TypeTraits.h</text>
</a>
</g>
</g>
<!-- Node1&#45;&gt;Node2 -->
<g id="edge1" class="edge">
<title>Node1&#45;&gt;Node2</title>
<path fill="none" stroke="#191970" d="M275.336,-217.928C262.7511,-208.1397 247.0908,-195.9595 236.3977,-187.6427"/>
<polygon fill="#191970" stroke="#191970" points="273.4162,-220.8688 283.4586,-224.2455 277.7138,-215.3434 273.4162,-220.8688"/>
</g>
<!-- Node9 -->
<g id="node9" class="node">
<title>Node9</title>
<g id="a_node9"><a xlink:href="_print_ip_8h.html" target="_top" xlink:title=" ">
<polygon fill="#ffffff" stroke="#000000" points="305,-168.5 305,-187.5 431,-187.5 431,-168.5 305,-168.5"/>
<text text-anchor="middle" x="368" y="-175.5" font-family="Helvetica,sans-Serif" font-size="10.00" fill="#000000">TypeTraits/TypeTraits.h</text>
</a>
</g>
</g>
<!-- Node1&#45;&gt;Node9 -->
<g id="edge10" class="edge">
<title>Node1&#45;&gt;Node9</title>
<path fill="none" stroke="#191970" d="M316.664,-217.928C329.2489,-208.1397 344.9092,-195.9595 355.6023,-187.6427"/>
<polygon fill="#191970" stroke="#191970" points="314.2862,-215.3434 308.5414,-224.2455 318.5838,-220.8688 314.2862,-215.3434"/>
</g>
<!-- Node3 -->
<g id="node3" class="node">
<title>Node3</title>
<g id="a_node3"><a xlink:href="_ip_storage_8cpp.html" target="_top" xlink:title=" ">
<polygon fill="#ffffff" stroke="#000000" points="98,-112.5 98,-131.5 170,-131.5 170,-112.5 98,-112.5"/>
<text text-anchor="middle" x="134" y="-119.5" font-family="Helvetica,sans-Serif" font-size="10.00" fill="#000000">IpStorage.h</text>
</a>
</g>
</g>
<!-- Node2&#45;&gt;Node3 -->
<g id="edge2" class="edge">
<title>Node2&#45;&gt;Node3</title>
<path fill="none" stroke="#191970" d="M199.5216,-162.769C183.5734,-152.8456 163.249,-140.1994 149.4972,-131.6427"/>
<polygon fill="#191970" stroke="#191970" points="197.9835,-165.9342 208.3232,-168.2455 201.6817,-159.9908 197.9835,-165.9342"/>
</g>
<!-- Node4 -->
<g id="node4" class="node">
<title>Node4</title>
<g id="a_node4"><a xlink:href="_ip_storage_printer_8h.html" target="_top" xlink:title=" ">
<polygon fill="#ffffff" stroke="#000000" points="188,-112.5 188,-131.5 260,-131.5 260,-112.5 188,-112.5"/>
<text text-anchor="middle" x="224" y="-119.5" font-family="Helvetica,sans-Serif" font-size="10.00" fill="#000000">IpStorage.h</text>
</a>
</g>
</g>
<!-- Node2&#45;&gt;Node4 -->
<g id="edge3" class="edge">
<title>Node2&#45;&gt;Node4</title>
<path fill="none" stroke="#191970" d="M224,-158.1575C224,-149.155 224,-138.9199 224,-131.6427"/>
<polygon fill="#191970" stroke="#191970" points="220.5001,-158.2455 224,-168.2455 227.5001,-158.2456 220.5001,-158.2455"/>
</g>
<!-- Node6 -->
<g id="node6" class="node">
<title>Node6</title>
<g id="a_node6"><a xlink:href="hw2__ip__filter_2src_2_required_outputs_module_2main_8cpp.html" target="_top" xlink:title=" ">
<polygon fill="#ffffff" stroke="#000000" points="280,-56.5 280,-75.5 420,-75.5 420,-56.5 280,-56.5"/>
<text text-anchor="middle" x="350" y="-63.5" font-family="Helvetica,sans-Serif" font-size="10.00" fill="#000000">IpFilter/IpStoragePrinter.h</text>
</a>
</g>
</g>
<!-- Node2&#45;&gt;Node6 -->
<g id="edge8" class="edge">
<title>Node2&#45;&gt;Node6</title>
<path fill="none" stroke="#191970" d="M242.2573,-161.7713C268.9355,-138.0573 317.7342,-94.6807 339.2845,-75.5249"/>
<polygon fill="#191970" stroke="#191970" points="239.8915,-159.1913 234.7427,-168.4509 244.5421,-164.4232 239.8915,-159.1913"/>
</g>
<!-- Node7 -->
<g id="node7" class="node">
<title>Node7</title>
<g id="a_node7"><a xlink:href="_ip_storage_tests_8h.html" target="_top" xlink:title=" ">
<polygon fill="#ffffff" stroke="#000000" points="0,-56.5 0,-75.5 140,-75.5 140,-56.5 0,-56.5"/>
<text text-anchor="middle" x="70" y="-63.5" font-family="Helvetica,sans-Serif" font-size="10.00" fill="#000000">IpFilter/IpStoragePrinter.h</text>
</a>
</g>
</g>
<!-- Node2&#45;&gt;Node7 -->
<g id="edge9" class="edge">
<title>Node2&#45;&gt;Node7</title>
<path fill="none" stroke="#191970" d="M150.8064,-166.6818C128.3968,-159.9378 105.3684,-149.1753 89,-132 74.193,-116.463 70.815,-90.1455 70.1144,-75.8889"/>
<polygon fill="#191970" stroke="#191970" points="150.1194,-170.1233 160.6909,-169.4196 151.988,-163.3772 150.1194,-170.1233"/>
</g>
<!-- Node5 -->
<g id="node5" class="node">
<title>Node5</title>
<g id="a_node5"><a xlink:href="_ip_storage_printer_8cpp.html" target="_top" xlink:title=" ">
<polygon fill="#ffffff" stroke="#000000" points="158,-56.5 158,-75.5 262,-75.5 262,-56.5 158,-56.5"/>
<text text-anchor="middle" x="210" y="-63.5" font-family="Helvetica,sans-Serif" font-size="10.00" fill="#000000">IpStoragePrinter.h</text>
</a>
</g>
</g>
<!-- Node4&#45;&gt;Node5 -->
<g id="edge4" class="edge">
<title>Node4&#45;&gt;Node5</title>
<path fill="none" stroke="#191970" d="M219.1135,-102.4538C216.8451,-93.3803 214.25,-82.9998 212.4107,-75.6427"/>
<polygon fill="#191970" stroke="#191970" points="215.7405,-103.393 221.5614,-112.2455 222.5315,-101.6952 215.7405,-103.393"/>
</g>
<!-- Node4&#45;&gt;Node6 -->
<g id="edge5" class="edge">
<title>Node4&#45;&gt;Node6</title>
<path fill="none" stroke="#191970" d="M254.9436,-108.2473C277.8265,-98.0771 308.4014,-84.4883 328.6225,-75.5011"/>
<polygon fill="#191970" stroke="#191970" points="253.3768,-105.1135 245.6602,-112.3733 256.2198,-111.5102 253.3768,-105.1135"/>
</g>
<!-- Node4&#45;&gt;Node7 -->
<g id="edge6" class="edge">
<title>Node4&#45;&gt;Node7</title>
<path fill="none" stroke="#191970" d="M188.0386,-108.9231C159.8866,-98.686 121.3945,-84.6889 96.1281,-75.5011"/>
<polygon fill="#191970" stroke="#191970" points="186.9324,-112.245 197.5265,-112.3733 189.3246,-105.6665 186.9324,-112.245"/>
</g>
<!-- Node8 -->
<g id="node8" class="node">
<title>Node8</title>
<g id="a_node8"><a xlink:href="_ip_filter_tests_8cpp.html" target="_top" xlink:title=" ">
<polygon fill="#ffffff" stroke="#000000" points="21.5,-.5 21.5,-19.5 118.5,-19.5 118.5,-.5 21.5,-.5"/>
<text text-anchor="middle" x="70" y="-7.5" font-family="Helvetica,sans-Serif" font-size="10.00" fill="#000000">IpStorageTests.h</text>
</a>
</g>
</g>
<!-- Node7&#45;&gt;Node8 -->
<g id="edge7" class="edge">
<title>Node7&#45;&gt;Node8</title>
<path fill="none" stroke="#191970" d="M70,-46.1575C70,-37.155 70,-26.9199 70,-19.6427"/>
<polygon fill="#191970" stroke="#191970" points="66.5001,-46.2455 70,-56.2455 73.5001,-46.2456 66.5001,-46.2455"/>
</g>
<!-- Node10 -->
<g id="node10" class="node">
<title>Node10</title>
<g id="a_node10"><a xlink:href="_print_ip_8cpp.html" target="_top" xlink:title=" ">
<polygon fill="#ffffff" stroke="#000000" points="541.5,-112.5 541.5,-131.5 598.5,-131.5 598.5,-112.5 541.5,-112.5"/>
<text text-anchor="middle" x="570" y="-119.5" font-family="Helvetica,sans-Serif" font-size="10.00" fill="#000000">PrintIp.h</text>
</a>
</g>
</g>
<!-- Node9&#45;&gt;Node10 -->
<g id="edge11" class="edge">
<title>Node9&#45;&gt;Node10</title>
<path fill="none" stroke="#191970" d="M412.56,-165.6467C451.7749,-154.7753 507.7088,-139.2688 541.2754,-129.9633"/>
<polygon fill="#191970" stroke="#191970" points="411.4265,-162.3289 402.725,-168.3733 413.2966,-169.0745 411.4265,-162.3289"/>
</g>
<!-- Node11 -->
<g id="node11" class="node">
<title>Node11</title>
<g id="a_node11"><a xlink:href="example_8cpp.html" target="_top" xlink:title=" ">
<polygon fill="#ffffff" stroke="#000000" points="321,-112.5 321,-131.5 413,-131.5 413,-112.5 321,-112.5"/>
<text text-anchor="middle" x="367" y="-119.5" font-family="Helvetica,sans-Serif" font-size="10.00" fill="#000000">PrintIp/PrintIp.h</text>
</a>
</g>
</g>
<!-- Node9&#45;&gt;Node11 -->
<g id="edge12" class="edge">
<title>Node9&#45;&gt;Node11</title>
<path fill="none" stroke="#191970" d="M367.6457,-158.1575C367.4849,-149.155 367.3021,-138.9199 367.1722,-131.6427"/>
<polygon fill="#191970" stroke="#191970" points="364.1477,-158.3097 367.8258,-168.2455 371.1466,-158.1846 364.1477,-158.3097"/>
</g>
<!-- Node12 -->
<g id="node12" class="node">
<title>Node12</title>
<g id="a_node12"><a xlink:href="_print_ip_tests_8h.html" target="_top" xlink:title=" ">
<polygon fill="#ffffff" stroke="#000000" points="431,-112.5 431,-131.5 523,-131.5 523,-112.5 431,-112.5"/>
<text text-anchor="middle" x="477" y="-119.5" font-family="Helvetica,sans-Serif" font-size="10.00" fill="#000000">PrintIp/PrintIp.h</text>
</a>
</g>
</g>
<!-- Node9&#45;&gt;Node12 -->
<g id="edge13" class="edge">
<title>Node9&#45;&gt;Node12</title>
<path fill="none" stroke="#191970" d="M396.0342,-163.5971C415.5746,-153.558 441.1092,-140.4393 458.2312,-131.6427"/>
<polygon fill="#191970" stroke="#191970" points="394.2817,-160.5625 386.9864,-168.2455 397.4806,-166.7889 394.2817,-160.5625"/>
</g>
<!-- Node13 -->
<g id="node13" class="node">
<title>Node13</title>
<g id="a_node13"><a xlink:href="_print_ip_tests_8cpp.html" target="_top" xlink:title=" ">
<polygon fill="#ffffff" stroke="#000000" points="438,-56.5 438,-75.5 520,-75.5 520,-56.5 438,-56.5"/>
<text text-anchor="middle" x="479" y="-63.5" font-family="Helvetica,sans-Serif" font-size="10.00" fill="#000000">PrintIpTests.h</text>
</a>
</g>
</g>
<!-- Node12&#45;&gt;Node13 -->
<g id="edge14" class="edge">
<title>Node12&#45;&gt;Node13</title>
<path fill="none" stroke="#191970" d="M477.7087,-102.1575C478.0302,-93.155 478.3957,-82.9199 478.6556,-75.6427"/>
<polygon fill="#191970" stroke="#191970" points="474.2076,-102.127 477.3484,-112.2455 481.2032,-102.3769 474.2076,-102.127"/>
</g>
</g>
</svg>
