<?xml version="1.0" encoding="UTF-8" standalone="no"?>
<!DOCTYPE svg PUBLIC "-//W3C//DTD SVG 1.1//EN"
 "http://www.w3.org/Graphics/SVG/1.1/DTD/svg11.dtd">
<!-- Generated by graphviz version 2.40.1 (20161225.0304)
 -->
<!-- Title: libs/TypeTraits/TypeTraits.h Pages: 1 -->
<svg width="889pt" height="296pt"
 viewBox="0.00 0.00 889.00 296.00" xmlns="http://www.w3.org/2000/svg" xmlns:xlink="http://www.w3.org/1999/xlink">
<g id="graph0" class="graph" transform="scale(1 1) rotate(0) translate(4 292)">
<title>libs/TypeTraits/TypeTraits.h</title>
<polygon fill="#ffffff" stroke="transparent" points="-4,4 -4,-292 885,-292 885,4 -4,4"/>
<!-- Node2 -->
<g id="node1" class="node">
<title>Node2</title>
<polygon fill="#bfbfbf" stroke="#000000" points="336.5,-268.5 336.5,-287.5 482.5,-287.5 482.5,-268.5 336.5,-268.5"/>
<text text-anchor="middle" x="409.5" y="-275.5" font-family="Helvetica,sans-Serif" font-size="10.00" fill="#000000">libs/TypeTraits/TypeTraits.h</text>
</g>
<!-- Node3 -->
<g id="node2" class="node">
<title>Node3</title>
<g id="a_node2"><a xlink:href="_ip_storage_8h.html" target="_top" xlink:title="hw2_ip_filter/src/IpFilter\l/IpStorage.h">
<polygon fill="#ffffff" stroke="#000000" points="249.5,-201.5 249.5,-231.5 381.5,-231.5 381.5,-201.5 249.5,-201.5"/>
<text text-anchor="start" x="257.5" y="-219.5" font-family="Helvetica,sans-Serif" font-size="10.00" fill="#000000">hw2_ip_filter/src/IpFilter</text>
<text text-anchor="middle" x="315.5" y="-208.5" font-family="Helvetica,sans-Serif" font-size="10.00" fill="#000000">/IpStorage.h</text>
</a>
</g>
</g>
<!-- Node2&#45;&gt;Node3 -->
<g id="edge1" class="edge">
<title>Node2&#45;&gt;Node3</title>
<path fill="none" stroke="#191970" d="M386.3507,-262.8545C371.7766,-253.3193 353.0396,-241.0605 338.495,-231.5446"/>
<polygon fill="#191970" stroke="#191970" points="384.5281,-265.8445 394.8125,-268.3906 388.3606,-259.9868 384.5281,-265.8445"/>
</g>
<!-- Node10 -->
<g id="node9" class="node">
<title>Node10</title>
<g id="a_node9"><a xlink:href="_print_ip_8h.html" target="_top" xlink:title="hw4_print_ip/src/PrintIp\l/PrintIp.h">
<polygon fill="#ffffff" stroke="#000000" points="516,-201.5 516,-231.5 647,-231.5 647,-201.5 516,-201.5"/>
<text text-anchor="start" x="524" y="-219.5" font-family="Helvetica,sans-Serif" font-size="10.00" fill="#000000">hw4_print_ip/src/PrintIp</text>
<text text-anchor="middle" x="581.5" y="-208.5" font-family="Helvetica,sans-Serif" font-size="10.00" fill="#000000">/PrintIp.h</text>
</a>
</g>
</g>
<!-- Node2&#45;&gt;Node10 -->
<g id="edge10" class="edge">
<title>Node2&#45;&gt;Node10</title>
<path fill="none" stroke="#191970" d="M445.9571,-264.9645C473.307,-255.1853 510.802,-241.7786 539.4241,-231.5446"/>
<polygon fill="#191970" stroke="#191970" points="444.6128,-261.7281 436.375,-268.3906 446.9696,-268.3194 444.6128,-261.7281"/>
</g>
<!-- Node4 -->
<g id="node3" class="node">
<title>Node4</title>
<g id="a_node3"><a xlink:href="_ip_storage_8cpp.html" target="_top" xlink:title="hw2_ip_filter/src/IpFilter\l/IpStorage.cpp">
<polygon fill="#ffffff" stroke="#000000" points="99.5,-134.5 99.5,-164.5 231.5,-164.5 231.5,-134.5 99.5,-134.5"/>
<text text-anchor="start" x="107.5" y="-152.5" font-family="Helvetica,sans-Serif" font-size="10.00" fill="#000000">hw2_ip_filter/src/IpFilter</text>
<text text-anchor="middle" x="165.5" y="-141.5" font-family="Helvetica,sans-Serif" font-size="10.00" fill="#000000">/IpStorage.cpp</text>
</a>
</g>
</g>
<!-- Node3&#45;&gt;Node4 -->
<g id="edge2" class="edge">
<title>Node3&#45;&gt;Node4</title>
<path fill="none" stroke="#191970" d="M272.5445,-197.3132C249.2911,-186.9267 220.9763,-174.2794 199.3097,-164.6017"/>
<polygon fill="#191970" stroke="#191970" points="271.2791,-200.5812 281.8371,-201.4639 274.1339,-194.1898 271.2791,-200.5812"/>
</g>
<!-- Node5 -->
<g id="node4" class="node">
<title>Node5</title>
<g id="a_node4"><a xlink:href="_ip_storage_printer_8h.html" target="_top" xlink:title="hw2_ip_filter/src/IpFilter\l/IpStoragePrinter.h">
<polygon fill="#ffffff" stroke="#000000" points="249.5,-134.5 249.5,-164.5 381.5,-164.5 381.5,-134.5 249.5,-134.5"/>
<text text-anchor="start" x="257.5" y="-152.5" font-family="Helvetica,sans-Serif" font-size="10.00" fill="#000000">hw2_ip_filter/src/IpFilter</text>
<text text-anchor="middle" x="315.5" y="-141.5" font-family="Helvetica,sans-Serif" font-size="10.00" fill="#000000">/IpStoragePrinter.h</text>
</a>
</g>
</g>
<!-- Node3&#45;&gt;Node5 -->
<g id="edge3" class="edge">
<title>Node3&#45;&gt;Node5</title>
<path fill="none" stroke="#191970" d="M315.5,-191.0249C315.5,-182.128 315.5,-172.4287 315.5,-164.6432"/>
<polygon fill="#191970" stroke="#191970" points="312.0001,-191.2966 315.5,-201.2967 319.0001,-191.2967 312.0001,-191.2966"/>
</g>
<!-- Node7 -->
<g id="node6" class="node">
<title>Node7</title>
<g id="a_node6"><a xlink:href="hw2__ip__filter_2src_2_required_outputs_module_2main_8cpp.html" target="_top" xlink:title="hw2_ip_filter/src/Required\lOutputsModule/main.cpp">
<polygon fill="#ffffff" stroke="#000000" points="338.5,-67.5 338.5,-97.5 480.5,-97.5 480.5,-67.5 338.5,-67.5"/>
<text text-anchor="start" x="346.5" y="-85.5" font-family="Helvetica,sans-Serif" font-size="10.00" fill="#000000">hw2_ip_filter/src/Required</text>
<text text-anchor="middle" x="409.5" y="-74.5" font-family="Helvetica,sans-Serif" font-size="10.00" fill="#000000">OutputsModule/main.cpp</text>
</a>
</g>
</g>
<!-- Node3&#45;&gt;Node7 -->
<g id="edge8" class="edge">
<title>Node3&#45;&gt;Node7</title>
<path fill="none" stroke="#191970" d="M356.5008,-196.1566C369.1048,-188.0585 381.9057,-177.624 390.5,-165 404.3958,-144.5887 408.236,-115.4374 409.2341,-97.8078"/>
<polygon fill="#191970" stroke="#191970" points="354.6021,-193.2147 347.8605,-201.3879 358.2276,-199.2027 354.6021,-193.2147"/>
</g>
<!-- Node8 -->
<g id="node7" class="node">
<title>Node8</title>
<g id="a_node7"><a xlink:href="_ip_storage_tests_8h.html" target="_top" xlink:title="hw2_ip_filter/tests\l/IpFilterTests/IpStorageTests.h">
<polygon fill="#ffffff" stroke="#000000" points="0,-67.5 0,-97.5 161,-97.5 161,-67.5 0,-67.5"/>
<text text-anchor="start" x="8" y="-85.5" font-family="Helvetica,sans-Serif" font-size="10.00" fill="#000000">hw2_ip_filter/tests</text>
<text text-anchor="middle" x="80.5" y="-74.5" font-family="Helvetica,sans-Serif" font-size="10.00" fill="#000000">/IpFilterTests/IpStorageTests.h</text>
</a>
</g>
</g>
<!-- Node3&#45;&gt;Node8 -->
<g id="edge9" class="edge">
<title>Node3&#45;&gt;Node8</title>
<path fill="none" stroke="#191970" d="M239.3257,-208.4437C182.0918,-200.7359 110.2971,-186.9795 90.5,-165 73.9885,-146.6683 75.0735,-116.0165 77.6143,-97.6829"/>
<polygon fill="#191970" stroke="#191970" points="239.094,-211.9431 249.463,-209.7671 240.0002,-205.002 239.094,-211.9431"/>
</g>
<!-- Node6 -->
<g id="node5" class="node">
<title>Node6</title>
<g id="a_node5"><a xlink:href="_ip_storage_printer_8cpp.html" target="_top" xlink:title="hw2_ip_filter/src/IpFilter\l/IpStoragePrinter.cpp">
<polygon fill="#ffffff" stroke="#000000" points="188.5,-67.5 188.5,-97.5 320.5,-97.5 320.5,-67.5 188.5,-67.5"/>
<text text-anchor="start" x="196.5" y="-85.5" font-family="Helvetica,sans-Serif" font-size="10.00" fill="#000000">hw2_ip_filter/src/IpFilter</text>
<text text-anchor="middle" x="254.5" y="-74.5" font-family="Helvetica,sans-Serif" font-size="10.00" fill="#000000">/IpStoragePrinter.cpp</text>
</a>
</g>
</g>
<!-- Node5&#45;&gt;Node6 -->
<g id="edge4" class="edge">
<title>Node5&#45;&gt;Node6</title>
<path fill="none" stroke="#191970" d="M294.6858,-126.6385C285.9699,-117.0653 276.0765,-106.1987 268.2871,-97.6432"/>
<polygon fill="#191970" stroke="#191970" points="292.3379,-129.2585 301.6582,-134.2967 297.514,-124.5459 292.3379,-129.2585"/>
</g>
<!-- Node5&#45;&gt;Node7 -->
<g id="edge5" class="edge">
<title>Node5&#45;&gt;Node7</title>
<path fill="none" stroke="#191970" d="M345.1775,-128.3469C359.1643,-118.3776 375.5308,-106.7121 388.2544,-97.6432"/>
<polygon fill="#191970" stroke="#191970" points="342.9418,-125.6423 336.8301,-134.2967 347.0047,-131.3426 342.9418,-125.6423"/>
</g>
<!-- Node5&#45;&gt;Node8 -->
<g id="edge6" class="edge">
<title>Node5&#45;&gt;Node8</title>
<path fill="none" stroke="#191970" d="M253.0119,-131.6842C215.7364,-121.0568 168.9215,-107.7095 133.4686,-97.6017"/>
<polygon fill="#191970" stroke="#191970" points="252.185,-135.0879 262.7614,-134.4639 254.1043,-128.3561 252.185,-135.0879"/>
</g>
<!-- Node9 -->
<g id="node8" class="node">
<title>Node9</title>
<g id="a_node8"><a xlink:href="_ip_filter_tests_8cpp.html" target="_top" xlink:title="hw2_ip_filter/tests\l/IpFilterTests/IpFilterTests.cpp">
<polygon fill="#ffffff" stroke="#000000" points="1.5,-.5 1.5,-30.5 159.5,-30.5 159.5,-.5 1.5,-.5"/>
<text text-anchor="start" x="9.5" y="-18.5" font-family="Helvetica,sans-Serif" font-size="10.00" fill="#000000">hw2_ip_filter/tests</text>
<text text-anchor="middle" x="80.5" y="-7.5" font-family="Helvetica,sans-Serif" font-size="10.00" fill="#000000">/IpFilterTests/IpFilterTests.cpp</text>
</a>
</g>
</g>
<!-- Node8&#45;&gt;Node9 -->
<g id="edge7" class="edge">
<title>Node8&#45;&gt;Node9</title>
<path fill="none" stroke="#191970" d="M80.5,-57.0249C80.5,-48.128 80.5,-38.4287 80.5,-30.6432"/>
<polygon fill="#191970" stroke="#191970" points="77.0001,-57.2966 80.5,-67.2967 84.0001,-57.2967 77.0001,-57.2966"/>
</g>
<!-- Node11 -->
<g id="node10" class="node">
<title>Node11</title>
<g id="a_node10"><a xlink:href="_print_ip_8cpp.html" target="_top" xlink:title="hw4_print_ip/src/PrintIp\l/PrintIp.cpp">
<polygon fill="#ffffff" stroke="#000000" points="750,-134.5 750,-164.5 881,-164.5 881,-134.5 750,-134.5"/>
<text text-anchor="start" x="758" y="-152.5" font-family="Helvetica,sans-Serif" font-size="10.00" fill="#000000">hw4_print_ip/src/PrintIp</text>
<text text-anchor="middle" x="815.5" y="-141.5" font-family="Helvetica,sans-Serif" font-size="10.00" fill="#000000">/PrintIp.cpp</text>
</a>
</g>
</g>
<!-- Node10&#45;&gt;Node11 -->
<g id="edge11" class="edge">
<title>Node10&#45;&gt;Node11</title>
<path fill="none" stroke="#191970" d="M643.7222,-198.6842C680.839,-188.0568 727.4548,-174.7095 762.7568,-164.6017"/>
<polygon fill="#191970" stroke="#191970" points="642.6644,-195.3464 634.0142,-201.4639 644.5913,-202.076 642.6644,-195.3464"/>
</g>
<!-- Node12 -->
<g id="node11" class="node">
<title>Node12</title>
<g id="a_node11"><a xlink:href="example_8cpp.html" target="_top" xlink:title="hw4_print_ip/src/PrintIp\lExample/example.cpp">
<polygon fill="#ffffff" stroke="#000000" points="438,-134.5 438,-164.5 569,-164.5 569,-134.5 438,-134.5"/>
<text text-anchor="start" x="446" y="-152.5" font-family="Helvetica,sans-Serif" font-size="10.00" fill="#000000">hw4_print_ip/src/PrintIp</text>
<text text-anchor="middle" x="503.5" y="-141.5" font-family="Helvetica,sans-Serif" font-size="10.00" fill="#000000">Example/example.cpp</text>
</a>
</g>
</g>
<!-- Node10&#45;&gt;Node12 -->
<g id="edge12" class="edge">
<title>Node10&#45;&gt;Node12</title>
<path fill="none" stroke="#191970" d="M555.884,-194.4965C544.5016,-184.7193 531.3884,-173.4554 521.1294,-164.6432"/>
<polygon fill="#191970" stroke="#191970" points="553.9343,-197.4357 563.8006,-201.2967 558.4955,-192.1257 553.9343,-197.4357"/>
</g>
<!-- Node13 -->
<g id="node12" class="node">
<title>Node13</title>
<g id="a_node12"><a xlink:href="_print_ip_tests_8h.html" target="_top" xlink:title="hw4_print_ip/tests\l/PrintIpTests/PrintIpTests.h">
<polygon fill="#ffffff" stroke="#000000" points="587.5,-134.5 587.5,-164.5 731.5,-164.5 731.5,-134.5 587.5,-134.5"/>
<text text-anchor="start" x="595.5" y="-152.5" font-family="Helvetica,sans-Serif" font-size="10.00" fill="#000000">hw4_print_ip/tests</text>
<text text-anchor="middle" x="659.5" y="-141.5" font-family="Helvetica,sans-Serif" font-size="10.00" fill="#000000">/PrintIpTests/PrintIpTests.h</text>
</a>
</g>
</g>
<!-- Node10&#45;&gt;Node13 -->
<g id="edge13" class="edge">
<title>Node10&#45;&gt;Node13</title>
<path fill="none" stroke="#191970" d="M607.116,-194.4965C618.4984,-184.7193 631.6116,-173.4554 641.8706,-164.6432"/>
<polygon fill="#191970" stroke="#191970" points="604.5045,-192.1257 599.1994,-201.2967 609.0657,-197.4357 604.5045,-192.1257"/>
</g>
<!-- Node14 -->
<g id="node13" class="node">
<title>Node14</title>
<g id="a_node13"><a xlink:href="_print_ip_tests_8cpp.html" target="_top" xlink:title="hw4_print_ip/tests\l/PrintIpTests/PrintIpTests.cpp">
<polygon fill="#ffffff" stroke="#000000" points="582,-67.5 582,-97.5 737,-97.5 737,-67.5 582,-67.5"/>
<text text-anchor="start" x="590" y="-85.5" font-family="Helvetica,sans-Serif" font-size="10.00" fill="#000000">hw4_print_ip/tests</text>
<text text-anchor="middle" x="659.5" y="-74.5" font-family="Helvetica,sans-Serif" font-size="10.00" fill="#000000">/PrintIpTests/PrintIpTests.cpp</text>
</a>
</g>
</g>
<!-- Node13&#45;&gt;Node14 -->
<g id="edge14" class="edge">
<title>Node13&#45;&gt;Node14</title>
<path fill="none" stroke="#191970" d="M659.5,-124.0249C659.5,-115.128 659.5,-105.4287 659.5,-97.6432"/>
<polygon fill="#191970" stroke="#191970" points="656.0001,-124.2966 659.5,-134.2967 663.0001,-124.2967 656.0001,-124.2966"/>
</g>
</g>
</svg>
