<?xml version="1.0" encoding="UTF-8" standalone="no"?>
<!DOCTYPE svg PUBLIC "-//W3C//DTD SVG 1.1//EN"
 "http://www.w3.org/Graphics/SVG/1.1/DTD/svg11.dtd">
<!-- Generated by graphviz version 2.40.1 (20161225.0304)
 -->
<!-- Title: hw1::IpV4 Pages: 1 -->
<svg width="264pt" height="281pt"
 viewBox="0.00 0.00 264.00 281.00" xmlns="http://www.w3.org/2000/svg" xmlns:xlink="http://www.w3.org/1999/xlink">
<g id="graph0" class="graph" transform="scale(1 1) rotate(0) translate(4 277)">
<title>hw1::IpV4</title>
<polygon fill="#ffffff" stroke="transparent" points="-4,4 -4,-277 260,-277 260,4 -4,4"/>
<!-- Node1 -->
<g id="node1" class="node">
<title>Node1</title>
<g id="a_node1"><a xlink:title=" ">
<polygon fill="#bfbfbf" stroke="#000000" points="80.5,-.5 80.5,-156.5 181.5,-156.5 181.5,-.5 80.5,-.5"/>
<text text-anchor="middle" x="131" y="-144.5" font-family="Helvetica,sans-Serif" font-size="10.00" fill="#000000">hw1::IpV4</text>
<polyline fill="none" stroke="#000000" points="80.5,-137.5 181.5,-137.5 "/>
<text text-anchor="middle" x="131" y="-125.5" font-family="Helvetica,sans-Serif" font-size="10.00" fill="#000000"> </text>
<polyline fill="none" stroke="#000000" points="80.5,-118.5 181.5,-118.5 "/>
<text text-anchor="start" x="88.5" y="-106.5" font-family="Helvetica,sans-Serif" font-size="10.00" fill="#000000">+ IpV4()</text>
<text text-anchor="start" x="88.5" y="-95.5" font-family="Helvetica,sans-Serif" font-size="10.00" fill="#000000">+ IpV4()</text>
<text text-anchor="start" x="88.5" y="-84.5" font-family="Helvetica,sans-Serif" font-size="10.00" fill="#000000">+ IpV4()</text>
<text text-anchor="start" x="88.5" y="-73.5" font-family="Helvetica,sans-Serif" font-size="10.00" fill="#000000">+ byte()</text>
<text text-anchor="start" x="88.5" y="-62.5" font-family="Helvetica,sans-Serif" font-size="10.00" fill="#000000">+ byte()</text>
<text text-anchor="start" x="88.5" y="-51.5" font-family="Helvetica,sans-Serif" font-size="10.00" fill="#000000">+ contains()</text>
<text text-anchor="start" x="88.5" y="-40.5" font-family="Helvetica,sans-Serif" font-size="10.00" fill="#000000">+ operator=()</text>
<text text-anchor="start" x="88.5" y="-29.5" font-family="Helvetica,sans-Serif" font-size="10.00" fill="#000000">+ operator&lt;()</text>
<text text-anchor="start" x="88.5" y="-18.5" font-family="Helvetica,sans-Serif" font-size="10.00" fill="#000000">+ operator&gt;()</text>
<text text-anchor="start" x="88.5" y="-7.5" font-family="Helvetica,sans-Serif" font-size="10.00" fill="#000000">+ bytesNumber()</text>
</a>
</g>
</g>
<!-- Node2 -->
<g id="node2" class="node">
<title>Node2</title>
<g id="a_node2"><a xlink:title=" ">
<polygon fill="#ffffff" stroke="#bfbfbf" points="0,-210 0,-267 126,-267 126,-210 0,-210"/>
<text text-anchor="middle" x="63" y="-255" font-family="Helvetica,sans-Serif" font-size="10.00" fill="#000000">static constexpr size_t</text>
<polyline fill="none" stroke="#bfbfbf" points="0,-248 126,-248 "/>
<text text-anchor="middle" x="63" y="-236" font-family="Helvetica,sans-Serif" font-size="10.00" fill="#000000"> </text>
<polyline fill="none" stroke="#bfbfbf" points="0,-229 126,-229 "/>
<text text-anchor="middle" x="63" y="-217" font-family="Helvetica,sans-Serif" font-size="10.00" fill="#000000"> </text>
</a>
</g>
</g>
<!-- Node2&#45;&gt;Node1 -->
<g id="edge1" class="edge">
<title>Node2&#45;&gt;Node1</title>
<path fill="none" stroke="#404040" d="M75.157,-209.8952C80.2907,-197.8161 86.5764,-183.026 93.0559,-167.7802"/>
<polygon fill="none" stroke="#404040" points="93.1007,-167.6746 91.7663,-160.5881 97.7945,-156.6306 99.1289,-163.7172 93.1007,-167.6746"/>
<text text-anchor="middle" x="131.5" y="-178" font-family="Helvetica,sans-Serif" font-size="10.00" fill="#000000"> &#45;BYTES_NUMBER</text>
</g>
<!-- Node3 -->
<g id="node3" class="node">
<title>Node3</title>
<g id="a_node3"><a xlink:title=" ">
<polygon fill="#ffffff" stroke="#bfbfbf" points="144,-204.5 144,-272.5 256,-272.5 256,-204.5 144,-204.5"/>
<text text-anchor="start" x="152" y="-260.5" font-family="Helvetica,sans-Serif" font-size="10.00" fill="#000000">array&lt; Byte, BYTES</text>
<text text-anchor="middle" x="200" y="-249.5" font-family="Helvetica,sans-Serif" font-size="10.00" fill="#000000">_NUMBER &gt;</text>
<polyline fill="none" stroke="#bfbfbf" points="144,-242.5 256,-242.5 "/>
<text text-anchor="middle" x="200" y="-230.5" font-family="Helvetica,sans-Serif" font-size="10.00" fill="#000000"> </text>
<polyline fill="none" stroke="#bfbfbf" points="144,-223.5 256,-223.5 "/>
<text text-anchor="middle" x="200" y="-211.5" font-family="Helvetica,sans-Serif" font-size="10.00" fill="#000000"> </text>
</a>
</g>
</g>
<!-- Node3&#45;&gt;Node1 -->
<g id="edge2" class="edge">
<title>Node3&#45;&gt;Node1</title>
<path fill="none" stroke="#404040" d="M188.9824,-204.2741C185.6778,-194.712 181.8907,-184.3752 178,-175 176.9844,-172.5527 175.9366,-170.0796 174.8633,-167.5911"/>
<polygon fill="none" stroke="#404040" points="174.8632,-167.5907 168.7802,-163.7181 170.0152,-156.6135 176.0983,-160.4861 174.8632,-167.5907"/>
<text text-anchor="middle" x="199" y="-178" font-family="Helvetica,sans-Serif" font-size="10.00" fill="#000000"> &#45;_data</text>
</g>
</g>
</svg>
