<?xml version="1.0" encoding="UTF-8" standalone="no"?>
<!DOCTYPE svg PUBLIC "-//W3C//DTD SVG 1.1//EN"
 "http://www.w3.org/Graphics/SVG/1.1/DTD/svg11.dtd">
<!-- Generated by graphviz version 2.40.1 (20161225.0304)
 -->
<!-- Title: hw_libs::OperationResult Pages: 1 -->
<svg width="175pt" height="270pt"
 viewBox="0.00 0.00 174.50 270.00" xmlns="http://www.w3.org/2000/svg" xmlns:xlink="http://www.w3.org/1999/xlink">
<g id="graph0" class="graph" transform="scale(1 1) rotate(0) translate(4 266)">
<title>hw_libs::OperationResult</title>
<polygon fill="#ffffff" stroke="transparent" points="-4,4 -4,-266 170.5,-266 170.5,4 -4,4"/>
<!-- Node1 -->
<g id="node1" class="node">
<title>Node1</title>
<polygon fill="#bfbfbf" stroke="#000000" points="11,-.5 11,-156.5 148,-156.5 148,-.5 11,-.5"/>
<text text-anchor="middle" x="79.5" y="-144.5" font-family="Helvetica,sans-Serif" font-size="10.00" fill="#000000">hw_libs::OperationResult</text>
<polyline fill="none" stroke="#000000" points="11,-137.5 148,-137.5 "/>
<text text-anchor="middle" x="79.5" y="-125.5" font-family="Helvetica,sans-Serif" font-size="10.00" fill="#000000"> </text>
<polyline fill="none" stroke="#000000" points="11,-118.5 148,-118.5 "/>
<text text-anchor="start" x="19" y="-106.5" font-family="Helvetica,sans-Serif" font-size="10.00" fill="#000000">+ OperationResult()</text>
<text text-anchor="start" x="19" y="-95.5" font-family="Helvetica,sans-Serif" font-size="10.00" fill="#000000">+ OperationResult()</text>
<text text-anchor="start" x="19" y="-84.5" font-family="Helvetica,sans-Serif" font-size="10.00" fill="#000000">+ OperationResult()</text>
<text text-anchor="start" x="19" y="-73.5" font-family="Helvetica,sans-Serif" font-size="10.00" fill="#000000">+ operator bool()</text>
<text text-anchor="start" x="19" y="-62.5" font-family="Helvetica,sans-Serif" font-size="10.00" fill="#000000">+ operator=()</text>
<text text-anchor="start" x="19" y="-51.5" font-family="Helvetica,sans-Serif" font-size="10.00" fill="#000000">+ Success()</text>
<text text-anchor="start" x="19" y="-40.5" font-family="Helvetica,sans-Serif" font-size="10.00" fill="#000000">+ Fail()</text>
<text text-anchor="start" x="19" y="-29.5" font-family="Helvetica,sans-Serif" font-size="10.00" fill="#000000">+ Fail()</text>
<text text-anchor="start" x="19" y="-18.5" font-family="Helvetica,sans-Serif" font-size="10.00" fill="#000000">&#45; OperationResult()</text>
<text text-anchor="start" x="19" y="-7.5" font-family="Helvetica,sans-Serif" font-size="10.00" fill="#000000">&#45; OperationResult()</text>
</g>
<!-- Node2 -->
<g id="node2" class="node">
<title>Node2</title>
<polygon fill="#ffffff" stroke="#bfbfbf" points="0,-204.5 0,-261.5 79,-261.5 79,-204.5 0,-204.5"/>
<text text-anchor="middle" x="39.5" y="-249.5" font-family="Helvetica,sans-Serif" font-size="10.00" fill="#000000">stringstream</text>
<polyline fill="none" stroke="#bfbfbf" points="0,-242.5 79,-242.5 "/>
<text text-anchor="middle" x="39.5" y="-230.5" font-family="Helvetica,sans-Serif" font-size="10.00" fill="#000000"> </text>
<polyline fill="none" stroke="#bfbfbf" points="0,-223.5 79,-223.5 "/>
<text text-anchor="middle" x="39.5" y="-211.5" font-family="Helvetica,sans-Serif" font-size="10.00" fill="#000000"> </text>
</g>
<!-- Node2&#45;&gt;Node1 -->
<g id="edge1" class="edge">
<title>Node2&#45;&gt;Node1</title>
<path fill="none" stroke="#404040" d="M37.9254,-204.454C37.9506,-194.9989 38.573,-184.4741 40.5,-175 40.9401,-172.8364 41.427,-170.6595 41.9552,-168.4754"/>
<polygon fill="none" stroke="#404040" points="41.9916,-168.3417 39.7081,-161.5017 45.1437,-156.7631 47.4272,-163.6031 41.9916,-168.3417"/>
<text text-anchor="middle" x="69" y="-178" font-family="Helvetica,sans-Serif" font-size="10.00" fill="#000000"> &#45;_message</text>
</g>
<!-- Node3 -->
<g id="node3" class="node">
<title>Node3</title>
<polygon fill="#ffffff" stroke="#bfbfbf" points="100.5,-204.5 100.5,-261.5 138.5,-261.5 138.5,-204.5 100.5,-204.5"/>
<text text-anchor="middle" x="119.5" y="-249.5" font-family="Helvetica,sans-Serif" font-size="10.00" fill="#000000">bool</text>
<polyline fill="none" stroke="#bfbfbf" points="100.5,-242.5 138.5,-242.5 "/>
<text text-anchor="middle" x="119.5" y="-230.5" font-family="Helvetica,sans-Serif" font-size="10.00" fill="#000000"> </text>
<polyline fill="none" stroke="#bfbfbf" points="100.5,-223.5 138.5,-223.5 "/>
<text text-anchor="middle" x="119.5" y="-211.5" font-family="Helvetica,sans-Serif" font-size="10.00" fill="#000000"> </text>
</g>
<!-- Node3&#45;&gt;Node1 -->
<g id="edge2" class="edge">
<title>Node3&#45;&gt;Node1</title>
<path fill="none" stroke="#404040" d="M112.0701,-204.3018C109.3716,-193.879 106.1597,-181.4731 102.8208,-168.5765"/>
<polygon fill="none" stroke="#404040" points="102.7375,-168.2546 97.3613,-163.4486 99.7298,-156.6376 105.106,-161.4435 102.7375,-168.2546"/>
<text text-anchor="middle" x="136.5" y="-178" font-family="Helvetica,sans-Serif" font-size="10.00" fill="#000000"> &#45;_isSuccess</text>
</g>
</g>
</svg>
