<?xml version="1.0" encoding="UTF-8" standalone="no"?>
<!DOCTYPE svg PUBLIC "-//W3C//DTD SVG 1.1//EN"
 "http://www.w3.org/Graphics/SVG/1.1/DTD/svg11.dtd">
<!-- Generated by graphviz version 2.40.1 (20161225.0304)
 -->
<!-- Title: hw2::List&lt; T, Allocator &gt; Pages: 1 -->
<svg width="328pt" height="320pt"
 viewBox="0.00 0.00 328.00 320.00" xmlns="http://www.w3.org/2000/svg" xmlns:xlink="http://www.w3.org/1999/xlink">
<g id="graph0" class="graph" transform="scale(1 1) rotate(0) translate(4 316)">
<title>hw2::List&lt; T, Allocator &gt;</title>
<polygon fill="#ffffff" stroke="transparent" points="-4,4 -4,-316 324,-316 324,4 -4,4"/>
<!-- Node1 -->
<g id="node1" class="node">
<title>Node1</title>
<g id="a_node1"><a xlink:title=" ">
<polygon fill="#bfbfbf" stroke="#000000" points="47.5,-.5 47.5,-79.5 185.5,-79.5 185.5,-.5 47.5,-.5"/>
<text text-anchor="middle" x="116.5" y="-67.5" font-family="Helvetica,sans-Serif" font-size="10.00" fill="#000000">hw2::List&lt; T, Allocator &gt;</text>
<polyline fill="none" stroke="#000000" points="47.5,-60.5 185.5,-60.5 "/>
<text text-anchor="middle" x="116.5" y="-48.5" font-family="Helvetica,sans-Serif" font-size="10.00" fill="#000000"> </text>
<polyline fill="none" stroke="#000000" points="47.5,-41.5 185.5,-41.5 "/>
<text text-anchor="start" x="55.5" y="-29.5" font-family="Helvetica,sans-Serif" font-size="10.00" fill="#000000">+ push_front()</text>
<text text-anchor="start" x="55.5" y="-18.5" font-family="Helvetica,sans-Serif" font-size="10.00" fill="#000000">+ begin()</text>
<text text-anchor="start" x="55.5" y="-7.5" font-family="Helvetica,sans-Serif" font-size="10.00" fill="#000000">+ end()</text>
</a>
</g>
</g>
<!-- Node2 -->
<g id="node2" class="node">
<title>Node2</title>
<g id="a_node2"><a xlink:title=" ">
<polygon fill="#ffffff" stroke="#bfbfbf" points="0,-138.5 0,-206.5 123,-206.5 123,-138.5 0,-138.5"/>
<text text-anchor="start" x="8" y="-194.5" font-family="Helvetica,sans-Serif" font-size="10.00" fill="#000000">template rebind_alloc</text>
<text text-anchor="middle" x="61.5" y="-183.5" font-family="Helvetica,sans-Serif" font-size="10.00" fill="#000000">&lt; Node &gt;</text>
<polyline fill="none" stroke="#bfbfbf" points="0,-176.5 123,-176.5 "/>
<text text-anchor="middle" x="61.5" y="-164.5" font-family="Helvetica,sans-Serif" font-size="10.00" fill="#000000"> </text>
<polyline fill="none" stroke="#bfbfbf" points="0,-157.5 123,-157.5 "/>
<text text-anchor="middle" x="61.5" y="-145.5" font-family="Helvetica,sans-Serif" font-size="10.00" fill="#000000"> </text>
</a>
</g>
</g>
<!-- Node2&#45;&gt;Node1 -->
<g id="edge1" class="edge">
<title>Node2&#45;&gt;Node1</title>
<path fill="none" stroke="#404040" d="M75.6639,-138.378C81.657,-123.9398 88.7652,-106.8156 95.3577,-90.9337"/>
<polygon fill="none" stroke="#404040" points="95.443,-90.7281 94.0489,-83.653 100.0436,-79.645 101.4377,-86.7201 95.443,-90.7281"/>
<text text-anchor="middle" x="119" y="-106.5" font-family="Helvetica,sans-Serif" font-size="10.00" fill="#000000"> &#45;_allocator</text>
</g>
<!-- Node3 -->
<g id="node3" class="node">
<title>Node3</title>
<g id="a_node3"><a xlink:href="structhw2_1_1_list_1_1_node.html" target="_top" xlink:title=" ">
<polygon fill="#ffffff" stroke="#000000" points="141,-138.5 141,-206.5 268,-206.5 268,-138.5 141,-138.5"/>
<text text-anchor="start" x="149" y="-194.5" font-family="Helvetica,sans-Serif" font-size="10.00" fill="#000000">hw2::List&lt; T, Allocator</text>
<text text-anchor="middle" x="204.5" y="-183.5" font-family="Helvetica,sans-Serif" font-size="10.00" fill="#000000"> &gt;::Node</text>
<polyline fill="none" stroke="#000000" points="141,-176.5 268,-176.5 "/>
<text text-anchor="middle" x="204.5" y="-164.5" font-family="Helvetica,sans-Serif" font-size="10.00" fill="#000000"> </text>
<polyline fill="none" stroke="#000000" points="141,-157.5 268,-157.5 "/>
<text text-anchor="middle" x="204.5" y="-145.5" font-family="Helvetica,sans-Serif" font-size="10.00" fill="#000000"> </text>
</a>
</g>
</g>
<!-- Node3&#45;&gt;Node1 -->
<g id="edge2" class="edge">
<title>Node3&#45;&gt;Node1</title>
<path fill="none" stroke="#404040" d="M181.8378,-138.378C172.0625,-123.6595 160.4333,-106.1495 149.7142,-90.01"/>
<polygon fill="none" stroke="#404040" points="149.4693,-89.6412 142.8177,-86.8561 142.8302,-79.645 149.4818,-82.4301 149.4693,-89.6412"/>
<text text-anchor="middle" x="184.5" y="-112" font-family="Helvetica,sans-Serif" font-size="10.00" fill="#000000"> &#45;_tail</text>
<text text-anchor="middle" x="184.5" y="-101" font-family="Helvetica,sans-Serif" font-size="10.00" fill="#000000">&#45;_head</text>
</g>
<!-- Node3&#45;&gt;Node3 -->
<g id="edge3" class="edge">
<title>Node3&#45;&gt;Node3</title>
<path fill="none" stroke="#404040" d="M268.058,-182.6077C278.6744,-181.1935 286,-177.8242 286,-172.5 286,-169.5051 283.6821,-167.1288 279.7645,-165.3711"/>
<polygon fill="none" stroke="#404040" points="279.6875,-165.3516 272.8863,-167.7484 268.058,-162.3923 274.8592,-159.9955 279.6875,-165.3516"/>
<text text-anchor="middle" x="303" y="-175.5" font-family="Helvetica,sans-Serif" font-size="10.00" fill="#000000"> +prev</text>
<text text-anchor="middle" x="303" y="-164.5" font-family="Helvetica,sans-Serif" font-size="10.00" fill="#000000">+next</text>
</g>
<!-- Node4 -->
<g id="node4" class="node">
<title>Node4</title>
<g id="a_node4"><a xlink:title=" ">
<polygon fill="#ffffff" stroke="#bfbfbf" points="190,-254.5 190,-311.5 219,-311.5 219,-254.5 190,-254.5"/>
<text text-anchor="middle" x="204.5" y="-299.5" font-family="Helvetica,sans-Serif" font-size="10.00" fill="#000000">T</text>
<polyline fill="none" stroke="#bfbfbf" points="190,-292.5 219,-292.5 "/>
<text text-anchor="middle" x="204.5" y="-280.5" font-family="Helvetica,sans-Serif" font-size="10.00" fill="#000000"> </text>
<polyline fill="none" stroke="#bfbfbf" points="190,-273.5 219,-273.5 "/>
<text text-anchor="middle" x="204.5" y="-261.5" font-family="Helvetica,sans-Serif" font-size="10.00" fill="#000000"> </text>
</a>
</g>
</g>
<!-- Node4&#45;&gt;Node3 -->
<g id="edge4" class="edge">
<title>Node4&#45;&gt;Node3</title>
<path fill="none" stroke="#404040" d="M204.5,-254.2559C204.5,-243.4349 204.5,-230.8362 204.5,-218.8169"/>
<polygon fill="none" stroke="#404040" points="204.5001,-218.6001 200.5,-212.6001 204.5,-206.6001 208.5,-212.6 204.5001,-218.6001"/>
<text text-anchor="middle" x="224" y="-228" font-family="Helvetica,sans-Serif" font-size="10.00" fill="#000000"> +value</text>
</g>
</g>
</svg>
