<?xml version="1.0" encoding="UTF-8" standalone="no"?>
<!DOCTYPE svg PUBLIC "-//W3C//DTD SVG 1.1//EN"
 "http://www.w3.org/Graphics/SVG/1.1/DTD/svg11.dtd">
<!-- Generated by graphviz version 2.40.1 (20161225.0304)
 -->
<!-- Title: B1 Pages: 1 -->
<svg width="254pt" height="171pt"
 viewBox="0.00 0.00 253.50 171.00" xmlns="http://www.w3.org/2000/svg" xmlns:xlink="http://www.w3.org/1999/xlink">
<g id="graph0" class="graph" transform="scale(1 1) rotate(0) translate(4 167)">
<title>B1</title>
<polygon fill="#ffffff" stroke="transparent" points="-4,4 -4,-167 249.5,-167 249.5,4 -4,4"/>
<!-- Node1 -->
<g id="node1" class="node">
<title>Node1</title>
<g id="a_node1"><a xlink:title=" ">
<polygon fill="#bfbfbf" stroke="#000000" points="108.5,-105.5 108.5,-162.5 137.5,-162.5 137.5,-105.5 108.5,-105.5"/>
<text text-anchor="middle" x="123" y="-150.5" font-family="Helvetica,sans-Serif" font-size="10.00" fill="#000000">B1</text>
<polyline fill="none" stroke="#000000" points="108.5,-143.5 137.5,-143.5 "/>
<text text-anchor="middle" x="123" y="-131.5" font-family="Helvetica,sans-Serif" font-size="10.00" fill="#000000"> </text>
<polyline fill="none" stroke="#000000" points="108.5,-124.5 137.5,-124.5 "/>
<text text-anchor="middle" x="123" y="-112.5" font-family="Helvetica,sans-Serif" font-size="10.00" fill="#000000"> </text>
</a>
</g>
</g>
<!-- Node2 -->
<g id="node2" class="node">
<title>Node2</title>
<g id="a_node2"><a xlink:href="structhw__libs_1_1fake__std17_1_1conjunction_3_01_b1_01_4.html" target="_top" xlink:title=" ">
<polygon fill="#ffffff" stroke="#000000" points="0,-.5 0,-68.5 114,-68.5 114,-.5 0,-.5"/>
<text text-anchor="start" x="8" y="-56.5" font-family="Helvetica,sans-Serif" font-size="10.00" fill="#000000">hw_libs::fake_std17</text>
<text text-anchor="middle" x="57" y="-45.5" font-family="Helvetica,sans-Serif" font-size="10.00" fill="#000000">::conjunction&lt; B1 &gt;</text>
<polyline fill="none" stroke="#000000" points="0,-38.5 114,-38.5 "/>
<text text-anchor="middle" x="57" y="-26.5" font-family="Helvetica,sans-Serif" font-size="10.00" fill="#000000"> </text>
<polyline fill="none" stroke="#000000" points="0,-19.5 114,-19.5 "/>
<text text-anchor="middle" x="57" y="-7.5" font-family="Helvetica,sans-Serif" font-size="10.00" fill="#000000"> </text>
</a>
</g>
</g>
<!-- Node1&#45;&gt;Node2 -->
<g id="edge1" class="edge">
<title>Node1&#45;&gt;Node2</title>
<path fill="none" stroke="#191970" d="M102.7385,-103.4542C95.4329,-92.4406 87.1435,-79.9435 79.6471,-68.6422"/>
<polygon fill="none" stroke="#191970" points="99.9081,-105.519 108.3525,-111.9177 105.7414,-101.6496 99.9081,-105.519"/>
</g>
<!-- Node3 -->
<g id="node3" class="node">
<title>Node3</title>
<g id="a_node3"><a xlink:href="structhw__libs_1_1fake__std17_1_1disjunction_3_01_b1_01_4.html" target="_top" xlink:title=" ">
<polygon fill="#ffffff" stroke="#000000" points="132.5,-.5 132.5,-68.5 245.5,-68.5 245.5,-.5 132.5,-.5"/>
<text text-anchor="start" x="140.5" y="-56.5" font-family="Helvetica,sans-Serif" font-size="10.00" fill="#000000">hw_libs::fake_std17</text>
<text text-anchor="middle" x="189" y="-45.5" font-family="Helvetica,sans-Serif" font-size="10.00" fill="#000000">::disjunction&lt; B1 &gt;</text>
<polyline fill="none" stroke="#000000" points="132.5,-38.5 245.5,-38.5 "/>
<text text-anchor="middle" x="189" y="-26.5" font-family="Helvetica,sans-Serif" font-size="10.00" fill="#000000"> </text>
<polyline fill="none" stroke="#000000" points="132.5,-19.5 245.5,-19.5 "/>
<text text-anchor="middle" x="189" y="-7.5" font-family="Helvetica,sans-Serif" font-size="10.00" fill="#000000"> </text>
</a>
</g>
</g>
<!-- Node1&#45;&gt;Node3 -->
<g id="edge2" class="edge">
<title>Node1&#45;&gt;Node3</title>
<path fill="none" stroke="#191970" d="M143.2615,-103.4542C150.5671,-92.4406 158.8565,-79.9435 166.3529,-68.6422"/>
<polygon fill="none" stroke="#191970" points="140.2586,-101.6496 137.6475,-111.9177 146.0919,-105.519 140.2586,-101.6496"/>
</g>
</g>
</svg>
