<?xml version="1.0" encoding="UTF-8" standalone="no"?>
<!DOCTYPE svg PUBLIC "-//W3C//DTD SVG 1.1//EN"
 "http://www.w3.org/Graphics/SVG/1.1/DTD/svg11.dtd">
<!-- Generated by graphviz version 2.40.1 (20161225.0304)
 -->
<!-- Title: hw2::IpStorage Pages: 1 -->
<svg width="332pt" height="590pt"
 viewBox="0.00 0.00 331.50 590.00" xmlns="http://www.w3.org/2000/svg" xmlns:xlink="http://www.w3.org/1999/xlink">
<g id="graph0" class="graph" transform="scale(1 1) rotate(0) translate(4 586)">
<title>hw2::IpStorage</title>
<polygon fill="#ffffff" stroke="transparent" points="-4,4 -4,-586 327.5,-586 327.5,4 -4,4"/>
<!-- Node1 -->
<g id="node1" class="node">
<title>Node1</title>
<polygon fill="#bfbfbf" stroke="#000000" points="40,-.5 40,-145.5 171,-145.5 171,-.5 40,-.5"/>
<text text-anchor="middle" x="105.5" y="-133.5" font-family="Helvetica,sans-Serif" font-size="10.00" fill="#000000">hw2::IpStorage</text>
<polyline fill="none" stroke="#000000" points="40,-126.5 171,-126.5 "/>
<text text-anchor="middle" x="105.5" y="-114.5" font-family="Helvetica,sans-Serif" font-size="10.00" fill="#000000"> </text>
<polyline fill="none" stroke="#000000" points="40,-107.5 171,-107.5 "/>
<text text-anchor="start" x="48" y="-95.5" font-family="Helvetica,sans-Serif" font-size="10.00" fill="#000000">+ IpStorage()</text>
<text text-anchor="start" x="48" y="-84.5" font-family="Helvetica,sans-Serif" font-size="10.00" fill="#000000">+ add()</text>
<text text-anchor="start" x="48" y="-73.5" font-family="Helvetica,sans-Serif" font-size="10.00" fill="#000000">+ add()</text>
<text text-anchor="start" x="48" y="-62.5" font-family="Helvetica,sans-Serif" font-size="10.00" fill="#000000">+ getAllIps()</text>
<text text-anchor="start" x="48" y="-51.5" font-family="Helvetica,sans-Serif" font-size="10.00" fill="#000000">+ getIpsContainsByte()</text>
<text text-anchor="start" x="48" y="-40.5" font-family="Helvetica,sans-Serif" font-size="10.00" fill="#000000">+ clear()</text>
<text text-anchor="start" x="48" y="-29.5" font-family="Helvetica,sans-Serif" font-size="10.00" fill="#000000">+ empty()</text>
<text text-anchor="start" x="48" y="-18.5" font-family="Helvetica,sans-Serif" font-size="10.00" fill="#000000">+ filteredByFirstBytes()</text>
<text text-anchor="start" x="48" y="-7.5" font-family="Helvetica,sans-Serif" font-size="10.00" fill="#000000">&#45; validateIp()</text>
</g>
<!-- Node2 -->
<g id="node2" class="node">
<title>Node2</title>
<polygon fill="#ffffff" stroke="#bfbfbf" points="0,-193.5 0,-250.5 101,-250.5 101,-193.5 0,-193.5"/>
<text text-anchor="middle" x="50.5" y="-238.5" font-family="Helvetica,sans-Serif" font-size="10.00" fill="#000000">multiset&lt; IpV4 &gt;</text>
<polyline fill="none" stroke="#bfbfbf" points="0,-231.5 101,-231.5 "/>
<text text-anchor="middle" x="50.5" y="-219.5" font-family="Helvetica,sans-Serif" font-size="10.00" fill="#000000"> </text>
<polyline fill="none" stroke="#bfbfbf" points="0,-212.5 101,-212.5 "/>
<text text-anchor="middle" x="50.5" y="-200.5" font-family="Helvetica,sans-Serif" font-size="10.00" fill="#000000"> </text>
</g>
<!-- Node2&#45;&gt;Node1 -->
<g id="edge1" class="edge">
<title>Node2&#45;&gt;Node1</title>
<path fill="none" stroke="#404040" d="M61.1046,-193.2713C65.0158,-182.6755 69.6714,-170.0629 74.4729,-157.0551"/>
<polygon fill="none" stroke="#404040" points="74.5594,-156.8207 72.8847,-149.8067 78.715,-145.5631 80.3897,-152.5771 74.5594,-156.8207"/>
<text text-anchor="middle" x="95" y="-167" font-family="Helvetica,sans-Serif" font-size="10.00" fill="#000000"> &#45;_storage</text>
</g>
<!-- Node3 -->
<g id="node3" class="node">
<title>Node3</title>
<g id="a_node3"><a xlink:href="structhw2_1_1_ip_storage_1_1_ip_boundaries.html" target="_top" xlink:title="{hw2::IpStorage::IpBoundaries\n||}">
<polygon fill="#ffffff" stroke="#000000" points="119,-193.5 119,-250.5 278,-250.5 278,-193.5 119,-193.5"/>
<text text-anchor="middle" x="198.5" y="-238.5" font-family="Helvetica,sans-Serif" font-size="10.00" fill="#000000">hw2::IpStorage::IpBoundaries</text>
<polyline fill="none" stroke="#000000" points="119,-231.5 278,-231.5 "/>
<text text-anchor="middle" x="198.5" y="-219.5" font-family="Helvetica,sans-Serif" font-size="10.00" fill="#000000"> </text>
<polyline fill="none" stroke="#000000" points="119,-212.5 278,-212.5 "/>
<text text-anchor="middle" x="198.5" y="-200.5" font-family="Helvetica,sans-Serif" font-size="10.00" fill="#000000"> </text>
</a>
</g>
</g>
<!-- Node3&#45;&gt;Node1 -->
<g id="edge2" class="edge">
<title>Node3&#45;&gt;Node1</title>
<path fill="none" stroke="#404040" d="M180.5687,-193.2713C173.7548,-182.3544 165.6046,-169.2966 157.2252,-155.8716"/>
<polygon fill="none" stroke="#404040" points="157.145,-155.743 150.5747,-152.771 150.7911,-145.5631 157.3613,-148.5351 157.145,-155.743"/>
<text text-anchor="middle" x="207" y="-167" font-family="Helvetica,sans-Serif" font-size="10.00" fill="#000000"> &#45;_ipRestrictions</text>
</g>
<!-- Node4 -->
<g id="node4" class="node">
<title>Node4</title>
<g id="a_node4"><a xlink:href="classhw2_1_1_ip_v4.html" target="_top" xlink:title="{hw2::IpV4\n||+ IpV4()\l+ IpV4()\l+ IpV4()\l+ byte()\l+ byte()\l+ contains()\l+ operator=()\l+ operator\&lt;()\l+ operator\&gt;()\l+ bytesNumber()\l}">
<polygon fill="#ffffff" stroke="#000000" points="148,-309.5 148,-465.5 249,-465.5 249,-309.5 148,-309.5"/>
<text text-anchor="middle" x="198.5" y="-453.5" font-family="Helvetica,sans-Serif" font-size="10.00" fill="#000000">hw2::IpV4</text>
<polyline fill="none" stroke="#000000" points="148,-446.5 249,-446.5 "/>
<text text-anchor="middle" x="198.5" y="-434.5" font-family="Helvetica,sans-Serif" font-size="10.00" fill="#000000"> </text>
<polyline fill="none" stroke="#000000" points="148,-427.5 249,-427.5 "/>
<text text-anchor="start" x="156" y="-415.5" font-family="Helvetica,sans-Serif" font-size="10.00" fill="#000000">+ IpV4()</text>
<text text-anchor="start" x="156" y="-404.5" font-family="Helvetica,sans-Serif" font-size="10.00" fill="#000000">+ IpV4()</text>
<text text-anchor="start" x="156" y="-393.5" font-family="Helvetica,sans-Serif" font-size="10.00" fill="#000000">+ IpV4()</text>
<text text-anchor="start" x="156" y="-382.5" font-family="Helvetica,sans-Serif" font-size="10.00" fill="#000000">+ byte()</text>
<text text-anchor="start" x="156" y="-371.5" font-family="Helvetica,sans-Serif" font-size="10.00" fill="#000000">+ byte()</text>
<text text-anchor="start" x="156" y="-360.5" font-family="Helvetica,sans-Serif" font-size="10.00" fill="#000000">+ contains()</text>
<text text-anchor="start" x="156" y="-349.5" font-family="Helvetica,sans-Serif" font-size="10.00" fill="#000000">+ operator=()</text>
<text text-anchor="start" x="156" y="-338.5" font-family="Helvetica,sans-Serif" font-size="10.00" fill="#000000">+ operator&lt;()</text>
<text text-anchor="start" x="156" y="-327.5" font-family="Helvetica,sans-Serif" font-size="10.00" fill="#000000">+ operator&gt;()</text>
<text text-anchor="start" x="156" y="-316.5" font-family="Helvetica,sans-Serif" font-size="10.00" fill="#000000">+ bytesNumber()</text>
</a>
</g>
</g>
<!-- Node4&#45;&gt;Node3 -->
<g id="edge3" class="edge">
<title>Node4&#45;&gt;Node3</title>
<path fill="none" stroke="#404040" d="M198.5,-309.112C198.5,-293.1203 198.5,-276.9109 198.5,-262.8814"/>
<polygon fill="none" stroke="#404040" points="198.5001,-262.6788 194.5,-256.6788 198.5,-250.6788 202.5,-256.6787 198.5001,-262.6788"/>
<text text-anchor="middle" x="214" y="-283" font-family="Helvetica,sans-Serif" font-size="10.00" fill="#000000"> +min</text>
<text text-anchor="middle" x="214" y="-272" font-family="Helvetica,sans-Serif" font-size="10.00" fill="#000000">+max</text>
</g>
<!-- Node5 -->
<g id="node5" class="node">
<title>Node5</title>
<polygon fill="#ffffff" stroke="#bfbfbf" points="67.5,-519 67.5,-576 193.5,-576 193.5,-519 67.5,-519"/>
<text text-anchor="middle" x="130.5" y="-564" font-family="Helvetica,sans-Serif" font-size="10.00" fill="#000000">static constexpr size_t</text>
<polyline fill="none" stroke="#bfbfbf" points="67.5,-557 193.5,-557 "/>
<text text-anchor="middle" x="130.5" y="-545" font-family="Helvetica,sans-Serif" font-size="10.00" fill="#000000"> </text>
<polyline fill="none" stroke="#bfbfbf" points="67.5,-538 193.5,-538 "/>
<text text-anchor="middle" x="130.5" y="-526" font-family="Helvetica,sans-Serif" font-size="10.00" fill="#000000"> </text>
</g>
<!-- Node5&#45;&gt;Node4 -->
<g id="edge4" class="edge">
<title>Node5&#45;&gt;Node4</title>
<path fill="none" stroke="#404040" d="M142.657,-518.8952C147.7907,-506.8161 154.0764,-492.026 160.5559,-476.7802"/>
<polygon fill="none" stroke="#404040" points="160.6007,-476.6746 159.2663,-469.5881 165.2945,-465.6306 166.6289,-472.7172 160.6007,-476.6746"/>
<text text-anchor="middle" x="198" y="-487" font-family="Helvetica,sans-Serif" font-size="10.00" fill="#000000"> &#45;BYTES_NUMBER</text>
</g>
<!-- Node6 -->
<g id="node6" class="node">
<title>Node6</title>
<polygon fill="#ffffff" stroke="#bfbfbf" points="211.5,-513.5 211.5,-581.5 323.5,-581.5 323.5,-513.5 211.5,-513.5"/>
<text text-anchor="start" x="219.5" y="-569.5" font-family="Helvetica,sans-Serif" font-size="10.00" fill="#000000">array&lt; Byte, BYTES</text>
<text text-anchor="middle" x="267.5" y="-558.5" font-family="Helvetica,sans-Serif" font-size="10.00" fill="#000000">_NUMBER &gt;</text>
<polyline fill="none" stroke="#bfbfbf" points="211.5,-551.5 323.5,-551.5 "/>
<text text-anchor="middle" x="267.5" y="-539.5" font-family="Helvetica,sans-Serif" font-size="10.00" fill="#000000"> </text>
<polyline fill="none" stroke="#bfbfbf" points="211.5,-532.5 323.5,-532.5 "/>
<text text-anchor="middle" x="267.5" y="-520.5" font-family="Helvetica,sans-Serif" font-size="10.00" fill="#000000"> </text>
</g>
<!-- Node6&#45;&gt;Node4 -->
<g id="edge5" class="edge">
<title>Node6&#45;&gt;Node4</title>
<path fill="none" stroke="#404040" d="M255.81,-513.3207C252.3536,-503.7591 248.4363,-493.4108 244.5,-484 243.5208,-481.6591 242.5151,-479.293 241.4883,-476.911"/>
<polygon fill="none" stroke="#404040" points="241.3817,-476.6685 235.3049,-472.7861 236.5514,-465.6836 242.6282,-469.5659 241.3817,-476.6685"/>
<text text-anchor="middle" x="265.5" y="-487" font-family="Helvetica,sans-Serif" font-size="10.00" fill="#000000"> &#45;_data</text>
</g>
</g>
</svg>
