<?xml version="1.0" encoding="UTF-8" standalone="no"?>
<!DOCTYPE svg PUBLIC "-//W3C//DTD SVG 1.1//EN"
 "http://www.w3.org/Graphics/SVG/1.1/DTD/svg11.dtd">
<!-- Generated by graphviz version 2.40.1 (20161225.0304)
 -->
<!-- Title: hw1::GenericIp&lt; _bytesNumber &gt; Pages: 1 -->
<svg width="191pt" height="314pt"
 viewBox="0.00 0.00 191.00 314.00" xmlns="http://www.w3.org/2000/svg" xmlns:xlink="http://www.w3.org/1999/xlink">
<g id="graph0" class="graph" transform="scale(1 1) rotate(0) translate(4 310)">
<title>hw1::GenericIp&lt; _bytesNumber &gt;</title>
<polygon fill="#ffffff" stroke="transparent" points="-4,4 -4,-310 187,-310 187,4 -4,4"/>
<!-- Node1 -->
<g id="node1" class="node">
<title>Node1</title>
<g id="a_node1"><a xlink:title=" ">
<polygon fill="#bfbfbf" stroke="#000000" points="0,-.5 0,-200.5 183,-200.5 183,-.5 0,-.5"/>
<text text-anchor="middle" x="91.5" y="-188.5" font-family="Helvetica,sans-Serif" font-size="10.00" fill="#000000">hw1::GenericIp&lt; _bytesNumber &gt;</text>
<polyline fill="none" stroke="#000000" points="0,-181.5 183,-181.5 "/>
<text text-anchor="middle" x="91.5" y="-169.5" font-family="Helvetica,sans-Serif" font-size="10.00" fill="#000000"> </text>
<polyline fill="none" stroke="#000000" points="0,-162.5 183,-162.5 "/>
<text text-anchor="start" x="8" y="-150.5" font-family="Helvetica,sans-Serif" font-size="10.00" fill="#000000">+ GenericIp()</text>
<text text-anchor="start" x="8" y="-139.5" font-family="Helvetica,sans-Serif" font-size="10.00" fill="#000000">+ GenericIp()</text>
<text text-anchor="start" x="8" y="-128.5" font-family="Helvetica,sans-Serif" font-size="10.00" fill="#000000">+ GenericIp()</text>
<text text-anchor="start" x="8" y="-117.5" font-family="Helvetica,sans-Serif" font-size="10.00" fill="#000000">+ GenericIp()</text>
<text text-anchor="start" x="8" y="-106.5" font-family="Helvetica,sans-Serif" font-size="10.00" fill="#000000">+ GenericIp()</text>
<text text-anchor="start" x="8" y="-95.5" font-family="Helvetica,sans-Serif" font-size="10.00" fill="#000000">+ GenericIp()</text>
<text text-anchor="start" x="8" y="-84.5" font-family="Helvetica,sans-Serif" font-size="10.00" fill="#000000">+ byte()</text>
<text text-anchor="start" x="8" y="-73.5" font-family="Helvetica,sans-Serif" font-size="10.00" fill="#000000">+ byte()</text>
<text text-anchor="start" x="8" y="-62.5" font-family="Helvetica,sans-Serif" font-size="10.00" fill="#000000">+ contains()</text>
<text text-anchor="start" x="8" y="-51.5" font-family="Helvetica,sans-Serif" font-size="10.00" fill="#000000">+ operator=()</text>
<text text-anchor="start" x="8" y="-40.5" font-family="Helvetica,sans-Serif" font-size="10.00" fill="#000000">+ operator&lt;()</text>
<text text-anchor="start" x="8" y="-29.5" font-family="Helvetica,sans-Serif" font-size="10.00" fill="#000000">+ operator&gt;()</text>
<text text-anchor="start" x="8" y="-18.5" font-family="Helvetica,sans-Serif" font-size="10.00" fill="#000000">+ operator==()</text>
<text text-anchor="start" x="8" y="-7.5" font-family="Helvetica,sans-Serif" font-size="10.00" fill="#000000">+ bytesNumber()</text>
</a>
</g>
</g>
<!-- Node2 -->
<g id="node2" class="node">
<title>Node2</title>
<g id="a_node2"><a xlink:title=" ">
<polygon fill="#ffffff" stroke="#bfbfbf" points="9.5,-248.5 9.5,-305.5 173.5,-305.5 173.5,-248.5 9.5,-248.5"/>
<text text-anchor="middle" x="91.5" y="-293.5" font-family="Helvetica,sans-Serif" font-size="10.00" fill="#000000">array&lt; Byte, _bytesNumber &gt;</text>
<polyline fill="none" stroke="#bfbfbf" points="9.5,-286.5 173.5,-286.5 "/>
<text text-anchor="middle" x="91.5" y="-274.5" font-family="Helvetica,sans-Serif" font-size="10.00" fill="#000000"> </text>
<polyline fill="none" stroke="#bfbfbf" points="9.5,-267.5 173.5,-267.5 "/>
<text text-anchor="middle" x="91.5" y="-255.5" font-family="Helvetica,sans-Serif" font-size="10.00" fill="#000000"> </text>
</a>
</g>
</g>
<!-- Node2&#45;&gt;Node1 -->
<g id="edge1" class="edge">
<title>Node2&#45;&gt;Node1</title>
<path fill="none" stroke="#404040" d="M91.5,-248.2494C91.5,-238.0034 91.5,-225.7546 91.5,-212.7535"/>
<polygon fill="none" stroke="#404040" points="91.5001,-212.6381 87.5,-206.6381 91.5,-200.6381 95.5,-206.6381 91.5001,-212.6381"/>
<text text-anchor="middle" x="108.5" y="-222" font-family="Helvetica,sans-Serif" font-size="10.00" fill="#000000"> &#45;_data</text>
</g>
</g>
</svg>
