<?xml version="1.0" encoding="UTF-8" standalone="no"?>
<!DOCTYPE svg PUBLIC "-//W3C//DTD SVG 1.1//EN"
 "http://www.w3.org/Graphics/SVG/1.1/DTD/svg11.dtd">
<!-- Generated by graphviz version 2.40.1 (20161225.0304)
 -->
<!-- Title: hw1::IpStorage Pages: 1 -->
<svg width="289pt" height="623pt"
 viewBox="0.00 0.00 288.50 623.00" xmlns="http://www.w3.org/2000/svg" xmlns:xlink="http://www.w3.org/1999/xlink">
<g id="graph0" class="graph" transform="scale(1 1) rotate(0) translate(4 619)">
<title>hw1::IpStorage</title>
<polygon fill="#ffffff" stroke="transparent" points="-4,4 -4,-619 284.5,-619 284.5,4 -4,4"/>
<!-- Node1 -->
<g id="node1" class="node">
<title>Node1</title>
<g id="a_node1"><a xlink:title=" ">
<polygon fill="#bfbfbf" stroke="#000000" points="40,-.5 40,-145.5 171,-145.5 171,-.5 40,-.5"/>
<text text-anchor="middle" x="105.5" y="-133.5" font-family="Helvetica,sans-Serif" font-size="10.00" fill="#000000">hw1::IpStorage</text>
<polyline fill="none" stroke="#000000" points="40,-126.5 171,-126.5 "/>
<text text-anchor="middle" x="105.5" y="-114.5" font-family="Helvetica,sans-Serif" font-size="10.00" fill="#000000"> </text>
<polyline fill="none" stroke="#000000" points="40,-107.5 171,-107.5 "/>
<text text-anchor="start" x="48" y="-95.5" font-family="Helvetica,sans-Serif" font-size="10.00" fill="#000000">+ IpStorage()</text>
<text text-anchor="start" x="48" y="-84.5" font-family="Helvetica,sans-Serif" font-size="10.00" fill="#000000">+ add()</text>
<text text-anchor="start" x="48" y="-73.5" font-family="Helvetica,sans-Serif" font-size="10.00" fill="#000000">+ add()</text>
<text text-anchor="start" x="48" y="-62.5" font-family="Helvetica,sans-Serif" font-size="10.00" fill="#000000">+ getAllIps()</text>
<text text-anchor="start" x="48" y="-51.5" font-family="Helvetica,sans-Serif" font-size="10.00" fill="#000000">+ getIpsContainsByte()</text>
<text text-anchor="start" x="48" y="-40.5" font-family="Helvetica,sans-Serif" font-size="10.00" fill="#000000">+ clear()</text>
<text text-anchor="start" x="48" y="-29.5" font-family="Helvetica,sans-Serif" font-size="10.00" fill="#000000">+ empty()</text>
<text text-anchor="start" x="48" y="-18.5" font-family="Helvetica,sans-Serif" font-size="10.00" fill="#000000">+ filteredByFirstBytes()</text>
<text text-anchor="start" x="48" y="-7.5" font-family="Helvetica,sans-Serif" font-size="10.00" fill="#000000">&#45; validateIp()</text>
</a>
</g>
</g>
<!-- Node2 -->
<g id="node2" class="node">
<title>Node2</title>
<g id="a_node2"><a xlink:title=" ">
<polygon fill="#ffffff" stroke="#bfbfbf" points="0,-193.5 0,-250.5 101,-250.5 101,-193.5 0,-193.5"/>
<text text-anchor="middle" x="50.5" y="-238.5" font-family="Helvetica,sans-Serif" font-size="10.00" fill="#000000">multiset&lt; IpV4 &gt;</text>
<polyline fill="none" stroke="#bfbfbf" points="0,-231.5 101,-231.5 "/>
<text text-anchor="middle" x="50.5" y="-219.5" font-family="Helvetica,sans-Serif" font-size="10.00" fill="#000000"> </text>
<polyline fill="none" stroke="#bfbfbf" points="0,-212.5 101,-212.5 "/>
<text text-anchor="middle" x="50.5" y="-200.5" font-family="Helvetica,sans-Serif" font-size="10.00" fill="#000000"> </text>
</a>
</g>
</g>
<!-- Node2&#45;&gt;Node1 -->
<g id="edge1" class="edge">
<title>Node2&#45;&gt;Node1</title>
<path fill="none" stroke="#404040" d="M61.1046,-193.2713C65.0158,-182.6755 69.6714,-170.0629 74.4729,-157.0551"/>
<polygon fill="none" stroke="#404040" points="74.5594,-156.8207 72.8847,-149.8067 78.715,-145.5631 80.3897,-152.5771 74.5594,-156.8207"/>
<text text-anchor="middle" x="95" y="-167" font-family="Helvetica,sans-Serif" font-size="10.00" fill="#000000"> &#45;_storage</text>
</g>
<!-- Node3 -->
<g id="node3" class="node">
<title>Node3</title>
<g id="a_node3"><a xlink:href="structhw1_1_1_ip_storage_1_1_ip_boundaries.html" target="_top" xlink:title=" ">
<polygon fill="#ffffff" stroke="#000000" points="119,-193.5 119,-250.5 278,-250.5 278,-193.5 119,-193.5"/>
<text text-anchor="middle" x="198.5" y="-238.5" font-family="Helvetica,sans-Serif" font-size="10.00" fill="#000000">hw1::IpStorage::IpBoundaries</text>
<polyline fill="none" stroke="#000000" points="119,-231.5 278,-231.5 "/>
<text text-anchor="middle" x="198.5" y="-219.5" font-family="Helvetica,sans-Serif" font-size="10.00" fill="#000000"> </text>
<polyline fill="none" stroke="#000000" points="119,-212.5 278,-212.5 "/>
<text text-anchor="middle" x="198.5" y="-200.5" font-family="Helvetica,sans-Serif" font-size="10.00" fill="#000000"> </text>
</a>
</g>
</g>
<!-- Node3&#45;&gt;Node1 -->
<g id="edge2" class="edge">
<title>Node3&#45;&gt;Node1</title>
<path fill="none" stroke="#404040" d="M180.5687,-193.2713C173.7548,-182.3544 165.6046,-169.2966 157.2252,-155.8716"/>
<polygon fill="none" stroke="#404040" points="157.145,-155.743 150.5747,-152.771 150.7911,-145.5631 157.3613,-148.5351 157.145,-155.743"/>
<text text-anchor="middle" x="207" y="-167" font-family="Helvetica,sans-Serif" font-size="10.00" fill="#000000"> &#45;_ipRestrictions</text>
</g>
<!-- Node4 -->
<g id="node4" class="node">
<title>Node4</title>
<g id="a_node4"><a xlink:href="classhw1_1_1_generic_ip.html" target="_top" xlink:title=" ">
<polygon fill="#ffffff" stroke="#000000" points="136.5,-309.5 136.5,-509.5 260.5,-509.5 260.5,-309.5 136.5,-309.5"/>
<text text-anchor="middle" x="198.5" y="-497.5" font-family="Helvetica,sans-Serif" font-size="10.00" fill="#000000">hw1::GenericIp&lt; 4u &gt;</text>
<polyline fill="none" stroke="#000000" points="136.5,-490.5 260.5,-490.5 "/>
<text text-anchor="middle" x="198.5" y="-478.5" font-family="Helvetica,sans-Serif" font-size="10.00" fill="#000000"> </text>
<polyline fill="none" stroke="#000000" points="136.5,-471.5 260.5,-471.5 "/>
<text text-anchor="start" x="144.5" y="-459.5" font-family="Helvetica,sans-Serif" font-size="10.00" fill="#000000">+ GenericIp()</text>
<text text-anchor="start" x="144.5" y="-448.5" font-family="Helvetica,sans-Serif" font-size="10.00" fill="#000000">+ GenericIp()</text>
<text text-anchor="start" x="144.5" y="-437.5" font-family="Helvetica,sans-Serif" font-size="10.00" fill="#000000">+ GenericIp()</text>
<text text-anchor="start" x="144.5" y="-426.5" font-family="Helvetica,sans-Serif" font-size="10.00" fill="#000000">+ GenericIp()</text>
<text text-anchor="start" x="144.5" y="-415.5" font-family="Helvetica,sans-Serif" font-size="10.00" fill="#000000">+ GenericIp()</text>
<text text-anchor="start" x="144.5" y="-404.5" font-family="Helvetica,sans-Serif" font-size="10.00" fill="#000000">+ GenericIp()</text>
<text text-anchor="start" x="144.5" y="-393.5" font-family="Helvetica,sans-Serif" font-size="10.00" fill="#000000">+ byte()</text>
<text text-anchor="start" x="144.5" y="-382.5" font-family="Helvetica,sans-Serif" font-size="10.00" fill="#000000">+ byte()</text>
<text text-anchor="start" x="144.5" y="-371.5" font-family="Helvetica,sans-Serif" font-size="10.00" fill="#000000">+ contains()</text>
<text text-anchor="start" x="144.5" y="-360.5" font-family="Helvetica,sans-Serif" font-size="10.00" fill="#000000">+ operator=()</text>
<text text-anchor="start" x="144.5" y="-349.5" font-family="Helvetica,sans-Serif" font-size="10.00" fill="#000000">+ operator&lt;()</text>
<text text-anchor="start" x="144.5" y="-338.5" font-family="Helvetica,sans-Serif" font-size="10.00" fill="#000000">+ operator&gt;()</text>
<text text-anchor="start" x="144.5" y="-327.5" font-family="Helvetica,sans-Serif" font-size="10.00" fill="#000000">+ operator==()</text>
<text text-anchor="start" x="144.5" y="-316.5" font-family="Helvetica,sans-Serif" font-size="10.00" fill="#000000">+ bytesNumber()</text>
</a>
</g>
</g>
<!-- Node4&#45;&gt;Node3 -->
<g id="edge3" class="edge">
<title>Node4&#45;&gt;Node3</title>
<path fill="none" stroke="#404040" d="M198.5,-309.4371C198.5,-292.8679 198.5,-276.5629 198.5,-262.6049"/>
<polygon fill="none" stroke="#404040" points="198.5001,-262.5059 194.5,-256.5059 198.5,-250.5059 202.5,-256.5059 198.5001,-262.5059"/>
<text text-anchor="middle" x="214" y="-283" font-family="Helvetica,sans-Serif" font-size="10.00" fill="#000000"> +min</text>
<text text-anchor="middle" x="214" y="-272" font-family="Helvetica,sans-Serif" font-size="10.00" fill="#000000">+max</text>
</g>
<!-- Node5 -->
<g id="node5" class="node">
<title>Node5</title>
<g id="a_node5"><a xlink:title=" ">
<polygon fill="#ffffff" stroke="#bfbfbf" points="116.5,-557.5 116.5,-614.5 280.5,-614.5 280.5,-557.5 116.5,-557.5"/>
<text text-anchor="middle" x="198.5" y="-602.5" font-family="Helvetica,sans-Serif" font-size="10.00" fill="#000000">array&lt; Byte, _bytesNumber &gt;</text>
<polyline fill="none" stroke="#bfbfbf" points="116.5,-595.5 280.5,-595.5 "/>
<text text-anchor="middle" x="198.5" y="-583.5" font-family="Helvetica,sans-Serif" font-size="10.00" fill="#000000"> </text>
<polyline fill="none" stroke="#bfbfbf" points="116.5,-576.5 280.5,-576.5 "/>
<text text-anchor="middle" x="198.5" y="-564.5" font-family="Helvetica,sans-Serif" font-size="10.00" fill="#000000"> </text>
</a>
</g>
</g>
<!-- Node5&#45;&gt;Node4 -->
<g id="edge4" class="edge">
<title>Node5&#45;&gt;Node4</title>
<path fill="none" stroke="#404040" d="M198.5,-557.2494C198.5,-547.0034 198.5,-534.7546 198.5,-521.7535"/>
<polygon fill="none" stroke="#404040" points="198.5001,-521.6381 194.5,-515.6381 198.5,-509.6381 202.5,-515.6381 198.5001,-521.6381"/>
<text text-anchor="middle" x="215.5" y="-531" font-family="Helvetica,sans-Serif" font-size="10.00" fill="#000000"> &#45;_data</text>
</g>
</g>
</svg>
