<?xml version="1.0" encoding="UTF-8" standalone="no"?>
<!DOCTYPE svg PUBLIC "-//W3C//DTD SVG 1.1//EN"
 "http://www.w3.org/Graphics/SVG/1.1/DTD/svg11.dtd">
<!-- Generated by graphviz version 2.40.1 (20161225.0304)
 -->
<!-- Title: hw1::IpV4 Pages: 1 -->
<svg width="316pt" height="270pt"
 viewBox="0.00 0.00 316.00 270.00" xmlns="http://www.w3.org/2000/svg" xmlns:xlink="http://www.w3.org/1999/xlink">
<g id="graph0" class="graph" transform="scale(1 1) rotate(0) translate(4 266)">
<title>hw1::IpV4</title>
<polygon fill="#ffffff" stroke="transparent" points="-4,4 -4,-266 312,-266 312,4 -4,4"/>
<!-- Node1 -->
<g id="node1" class="node">
<title>Node1</title>
<g id="a_node1"><a xlink:title=" ">
<polygon fill="#bfbfbf" stroke="#000000" points="93.5,-.5 93.5,-156.5 194.5,-156.5 194.5,-.5 93.5,-.5"/>
<text text-anchor="middle" x="144" y="-144.5" font-family="Helvetica,sans-Serif" font-size="10.00" fill="#000000">hw1::IpV4</text>
<polyline fill="none" stroke="#000000" points="93.5,-137.5 194.5,-137.5 "/>
<text text-anchor="middle" x="144" y="-125.5" font-family="Helvetica,sans-Serif" font-size="10.00" fill="#000000"> </text>
<polyline fill="none" stroke="#000000" points="93.5,-118.5 194.5,-118.5 "/>
<text text-anchor="start" x="101.5" y="-106.5" font-family="Helvetica,sans-Serif" font-size="10.00" fill="#000000">+ IpV4()</text>
<text text-anchor="start" x="101.5" y="-95.5" font-family="Helvetica,sans-Serif" font-size="10.00" fill="#000000">+ IpV4()</text>
<text text-anchor="start" x="101.5" y="-84.5" font-family="Helvetica,sans-Serif" font-size="10.00" fill="#000000">+ IpV4()</text>
<text text-anchor="start" x="101.5" y="-73.5" font-family="Helvetica,sans-Serif" font-size="10.00" fill="#000000">+ byte()</text>
<text text-anchor="start" x="101.5" y="-62.5" font-family="Helvetica,sans-Serif" font-size="10.00" fill="#000000">+ byte()</text>
<text text-anchor="start" x="101.5" y="-51.5" font-family="Helvetica,sans-Serif" font-size="10.00" fill="#000000">+ contains()</text>
<text text-anchor="start" x="101.5" y="-40.5" font-family="Helvetica,sans-Serif" font-size="10.00" fill="#000000">+ operator=()</text>
<text text-anchor="start" x="101.5" y="-29.5" font-family="Helvetica,sans-Serif" font-size="10.00" fill="#000000">+ operator&lt;()</text>
<text text-anchor="start" x="101.5" y="-18.5" font-family="Helvetica,sans-Serif" font-size="10.00" fill="#000000">+ operator&gt;()</text>
<text text-anchor="start" x="101.5" y="-7.5" font-family="Helvetica,sans-Serif" font-size="10.00" fill="#000000">+ bytesNumber()</text>
</a>
</g>
</g>
<!-- Node2 -->
<g id="node2" class="node">
<title>Node2</title>
<g id="a_node2"><a xlink:title=" ">
<polygon fill="#ffffff" stroke="#bfbfbf" points="0,-204.5 0,-261.5 126,-261.5 126,-204.5 0,-204.5"/>
<text text-anchor="middle" x="63" y="-249.5" font-family="Helvetica,sans-Serif" font-size="10.00" fill="#000000">static constexpr size_t</text>
<polyline fill="none" stroke="#bfbfbf" points="0,-242.5 126,-242.5 "/>
<text text-anchor="middle" x="63" y="-230.5" font-family="Helvetica,sans-Serif" font-size="10.00" fill="#000000"> </text>
<polyline fill="none" stroke="#bfbfbf" points="0,-223.5 126,-223.5 "/>
<text text-anchor="middle" x="63" y="-211.5" font-family="Helvetica,sans-Serif" font-size="10.00" fill="#000000"> </text>
</a>
</g>
</g>
<!-- Node2&#45;&gt;Node1 -->
<g id="edge1" class="edge">
<title>Node2&#45;&gt;Node1</title>
<path fill="none" stroke="#404040" d="M78.0456,-204.3018C83.6773,-193.5599 90.4133,-180.7117 97.3971,-167.3908"/>
<polygon fill="none" stroke="#404040" points="97.4627,-167.2655 96.706,-160.0942 103.0347,-156.6376 103.7913,-163.8089 97.4627,-167.2655"/>
<text text-anchor="middle" x="131.5" y="-178" font-family="Helvetica,sans-Serif" font-size="10.00" fill="#000000"> &#45;_bytesNumber</text>
</g>
<!-- Node3 -->
<g id="node3" class="node">
<title>Node3</title>
<g id="a_node3"><a xlink:title=" ">
<polygon fill="#ffffff" stroke="#bfbfbf" points="144,-204.5 144,-261.5 308,-261.5 308,-204.5 144,-204.5"/>
<text text-anchor="middle" x="226" y="-249.5" font-family="Helvetica,sans-Serif" font-size="10.00" fill="#000000">array&lt; Byte, _bytesNumber &gt;</text>
<polyline fill="none" stroke="#bfbfbf" points="144,-242.5 308,-242.5 "/>
<text text-anchor="middle" x="226" y="-230.5" font-family="Helvetica,sans-Serif" font-size="10.00" fill="#000000"> </text>
<polyline fill="none" stroke="#bfbfbf" points="144,-223.5 308,-223.5 "/>
<text text-anchor="middle" x="226" y="-211.5" font-family="Helvetica,sans-Serif" font-size="10.00" fill="#000000"> </text>
</a>
</g>
</g>
<!-- Node3&#45;&gt;Node1 -->
<g id="edge2" class="edge">
<title>Node3&#45;&gt;Node1</title>
<path fill="none" stroke="#404040" d="M210.7686,-204.3018C205.0674,-193.5599 198.2483,-180.7117 191.1783,-167.3908"/>
<polygon fill="none" stroke="#404040" points="191.0968,-167.2372 184.7507,-163.8126 185.4711,-156.6376 191.8171,-160.0621 191.0968,-167.2372"/>
<text text-anchor="middle" x="216" y="-178" font-family="Helvetica,sans-Serif" font-size="10.00" fill="#000000"> &#45;_data</text>
</g>
</g>
</svg>
