<?xml version="1.0" encoding="UTF-8" standalone="no"?>
<!DOCTYPE svg PUBLIC "-//W3C//DTD SVG 1.1//EN"
 "http://www.w3.org/Graphics/SVG/1.1/DTD/svg11.dtd">
<!-- Generated by graphviz version 2.40.1 (20161225.0304)
 -->
<!-- Title: hw1_ip_filter/src Pages: 1 -->
<svg width="220pt" height="231pt"
 viewBox="0.00 0.00 220.00 231.00" xmlns="http://www.w3.org/2000/svg" xmlns:xlink="http://www.w3.org/1999/xlink">
<g id="graph0" class="graph" transform="scale(1 1) rotate(0) translate(4 227)">
<title>hw1_ip_filter/src</title>
<polygon fill="#ffffff" stroke="transparent" points="-4,4 -4,-227 216,-227 216,4 -4,4"/>
<g id="clust1" class="cluster">
<title>clusterdir_178d47071a10f3df41fff370ab293f5d</title>
<g id="a_clust1"><a xlink:href="dir_178d47071a10f3df41fff370ab293f5d.html" target="_top" xlink:title="hw1_ip_filter">
<polygon fill="#ddddee" stroke="#000000" points="8,-56 8,-215 204,-215 204,-56 8,-56"/>
<text text-anchor="middle" x="106" y="-203" font-family="Helvetica,sans-Serif" font-size="10.00" fill="#000000">hw1_ip_filter</text>
</a>
</g>
</g>
<g id="clust2" class="cluster">
<title>clusterdir_8baa6d4c66897a606bd154524eb9720b</title>
<g id="a_clust2"><a xlink:href="dir_8baa6d4c66897a606bd154524eb9720b.html" target="_top">
<polygon fill="#eeeeff" stroke="#000000" points="16,-64 16,-188 196,-188 196,-64 16,-64"/>
</a>
</g>
</g>
<!-- dir_8baa6d4c66897a606bd154524eb9720b -->
<g id="node1" class="node">
<title>dir_8baa6d4c66897a606bd154524eb9720b</title>
<text text-anchor="middle" x="161" y="-159.5" font-family="Helvetica,sans-Serif" font-size="10.00" fill="#000000">src</text>
</g>
<!-- dir_645978e59c6890b6d7eb9ce2fded83cf -->
<g id="node2" class="node">
<title>dir_645978e59c6890b6d7eb9ce2fded83cf</title>
<g id="a_node2"><a xlink:href="dir_645978e59c6890b6d7eb9ce2fded83cf.html" target="_top" xlink:title="IpFilter">
<polygon fill="#ffffff" stroke="#000000" points="87,-108 33,-108 33,-72 87,-72 87,-108"/>
<text text-anchor="middle" x="60" y="-87.5" font-family="Helvetica,sans-Serif" font-size="10.00" fill="#000000">IpFilter</text>
</a>
</g>
</g>
<!-- dir_6719ab1f1f7655efc2fa43f7eb574fd1 -->
<g id="node4" class="node">
<title>dir_6719ab1f1f7655efc2fa43f7eb574fd1</title>
<g id="a_node4"><a xlink:href="dir_6719ab1f1f7655efc2fa43f7eb574fd1.html" target="_top" xlink:title="libs">
<polygon fill="#ffffff" stroke="#ff0000" points="114,-36 60,-36 60,0 114,0 114,-36"/>
<text text-anchor="middle" x="87" y="-15.5" font-family="Helvetica,sans-Serif" font-size="10.00" fill="#000000">libs</text>
</a>
</g>
</g>
<!-- dir_645978e59c6890b6d7eb9ce2fded83cf&#45;&gt;dir_6719ab1f1f7655efc2fa43f7eb574fd1 -->
<g id="edge1" class="edge">
<title>dir_645978e59c6890b6d7eb9ce2fded83cf&#45;&gt;dir_6719ab1f1f7655efc2fa43f7eb574fd1</title>
<path fill="none" stroke="#000000" d="M66.8132,-71.8314C69.7644,-63.9617 73.2858,-54.5712 76.555,-45.8533"/>
<polygon fill="#000000" stroke="#000000" points="79.8609,-47.0055 80.095,-36.4133 73.3066,-44.5476 79.8609,-47.0055"/>
<g id="a_edge1&#45;headlabel"><a xlink:href="dir_000010_000016.html" target="_top" xlink:title="5">
<text text-anchor="middle" x="81.2573" y="-48.8682" font-family="Helvetica,sans-Serif" font-size="10.00" fill="#000000">5</text>
</a>
</g>
</g>
<!-- dir_93c69613993fa2b9d100af8478fad2d8 -->
<g id="node3" class="node">
<title>dir_93c69613993fa2b9d100af8478fad2d8</title>
<g id="a_node3"><a xlink:href="dir_93c69613993fa2b9d100af8478fad2d8.html" target="_top" xlink:title="IpFilterExample">
<polygon fill="#ffffff" stroke="#000000" points="116,-180 24,-180 24,-144 116,-144 116,-180"/>
<text text-anchor="middle" x="70" y="-159.5" font-family="Helvetica,sans-Serif" font-size="10.00" fill="#000000">IpFilterExample</text>
</a>
</g>
</g>
<!-- dir_93c69613993fa2b9d100af8478fad2d8&#45;&gt;dir_645978e59c6890b6d7eb9ce2fded83cf -->
<g id="edge2" class="edge">
<title>dir_93c69613993fa2b9d100af8478fad2d8&#45;&gt;dir_645978e59c6890b6d7eb9ce2fded83cf</title>
<path fill="none" stroke="#000000" d="M67.4766,-143.8314C66.4071,-136.131 65.1353,-126.9743 63.9468,-118.4166"/>
<polygon fill="#000000" stroke="#000000" points="67.3999,-117.8367 62.5574,-108.4133 60.4664,-118.7997 67.3999,-117.8367"/>
<g id="a_edge2&#45;headlabel"><a xlink:href="dir_000006_000010.html" target="_top" xlink:title="3">
<text text-anchor="middle" x="70.7066" y="-118.5065" font-family="Helvetica,sans-Serif" font-size="10.00" fill="#000000">3</text>
</a>
</g>
</g>
<!-- dir_93c69613993fa2b9d100af8478fad2d8&#45;&gt;dir_6719ab1f1f7655efc2fa43f7eb574fd1 -->
<g id="edge3" class="edge">
<title>dir_93c69613993fa2b9d100af8478fad2d8&#45;&gt;dir_6719ab1f1f7655efc2fa43f7eb574fd1</title>
<path fill="none" stroke="#000000" d="M81.3196,-143.7678C86.9396,-133.6415 93.1294,-120.5789 96,-108 100.6728,-87.5237 98.0062,-63.8767 94.3938,-45.9614"/>
<polygon fill="#000000" stroke="#000000" points="97.7971,-45.1421 92.2059,-36.1427 90.9647,-46.6646 97.7971,-45.1421"/>
<g id="a_edge3&#45;headlabel"><a xlink:href="dir_000006_000016.html" target="_top" xlink:title="1">
<text text-anchor="middle" x="101.3502" y="-45.5332" font-family="Helvetica,sans-Serif" font-size="10.00" fill="#000000">1</text>
</a>
</g>
</g>
</g>
</svg>
