<?xml version="1.0" encoding="UTF-8" standalone="no"?>
<!DOCTYPE svg PUBLIC "-//W3C//DTD SVG 1.1//EN"
 "http://www.w3.org/Graphics/SVG/1.1/DTD/svg11.dtd">
<!-- Generated by graphviz version 2.40.1 (20161225.0304)
 -->
<!-- Title: hw1_ip_filter/src/IpFilterExample Pages: 1 -->
<svg width="132pt" height="223pt"
 viewBox="0.00 0.00 132.00 223.00" xmlns="http://www.w3.org/2000/svg" xmlns:xlink="http://www.w3.org/1999/xlink">
<g id="graph0" class="graph" transform="scale(1 1) rotate(0) translate(4 219)">
<title>hw1_ip_filter/src/IpFilterExample</title>
<polygon fill="#ffffff" stroke="transparent" points="-4,4 -4,-219 128,-219 128,4 -4,4"/>
<g id="clust1" class="cluster">
<title>clusterdir_8baa6d4c66897a606bd154524eb9720b</title>
<g id="a_clust1"><a xlink:href="dir_8baa6d4c66897a606bd154524eb9720b.html" target="_top" xlink:title="src">
<polygon fill="#ddddee" stroke="#000000" points="8,-136 8,-207 116,-207 116,-136 8,-136"/>
<text text-anchor="middle" x="62" y="-195" font-family="Helvetica,sans-Serif" font-size="10.00" fill="#000000">src</text>
</a>
</g>
</g>
<!-- dir_93c69613993fa2b9d100af8478fad2d8 -->
<g id="node1" class="node">
<title>dir_93c69613993fa2b9d100af8478fad2d8</title>
<g id="a_node1"><a xlink:href="dir_93c69613993fa2b9d100af8478fad2d8.html" target="_top" xlink:title="IpFilterExample">
<polygon fill="#eeeeff" stroke="#000000" points="108,-180 16,-180 16,-144 108,-144 108,-180"/>
<text text-anchor="middle" x="62" y="-159.5" font-family="Helvetica,sans-Serif" font-size="10.00" fill="#000000">IpFilterExample</text>
</a>
</g>
</g>
<!-- dir_645978e59c6890b6d7eb9ce2fded83cf -->
<g id="node2" class="node">
<title>dir_645978e59c6890b6d7eb9ce2fded83cf</title>
<g id="a_node2"><a xlink:href="dir_645978e59c6890b6d7eb9ce2fded83cf.html" target="_top" xlink:title="IpFilter">
<polygon fill="none" stroke="#000000" points="61,-108 7,-108 7,-72 61,-72 61,-108"/>
<text text-anchor="middle" x="34" y="-87.5" font-family="Helvetica,sans-Serif" font-size="10.00" fill="#000000">IpFilter</text>
</a>
</g>
</g>
<!-- dir_93c69613993fa2b9d100af8478fad2d8&#45;&gt;dir_645978e59c6890b6d7eb9ce2fded83cf -->
<g id="edge2" class="edge">
<title>dir_93c69613993fa2b9d100af8478fad2d8&#45;&gt;dir_645978e59c6890b6d7eb9ce2fded83cf</title>
<path fill="none" stroke="#000000" d="M54.9344,-143.8314C51.874,-135.9617 48.2221,-126.5712 44.8318,-117.8533"/>
<polygon fill="#000000" stroke="#000000" points="48.0473,-116.4647 41.1607,-108.4133 41.5232,-119.0019 48.0473,-116.4647"/>
<g id="a_edge2&#45;headlabel"><a xlink:href="dir_000006_000010.html" target="_top" xlink:title="3">
<text text-anchor="middle" x="51.9963" y="-116.2859" font-family="Helvetica,sans-Serif" font-size="10.00" fill="#000000">3</text>
</a>
</g>
</g>
<!-- dir_6719ab1f1f7655efc2fa43f7eb574fd1 -->
<g id="node3" class="node">
<title>dir_6719ab1f1f7655efc2fa43f7eb574fd1</title>
<g id="a_node3"><a xlink:href="dir_6719ab1f1f7655efc2fa43f7eb574fd1.html" target="_top" xlink:title="libs">
<polygon fill="#ffffff" stroke="#ff0000" points="88,-36 34,-36 34,0 88,0 88,-36"/>
<text text-anchor="middle" x="61" y="-15.5" font-family="Helvetica,sans-Serif" font-size="10.00" fill="#000000">libs</text>
</a>
</g>
</g>
<!-- dir_93c69613993fa2b9d100af8478fad2d8&#45;&gt;dir_6719ab1f1f7655efc2fa43f7eb574fd1 -->
<g id="edge3" class="edge">
<title>dir_93c69613993fa2b9d100af8478fad2d8&#45;&gt;dir_6719ab1f1f7655efc2fa43f7eb574fd1</title>
<path fill="none" stroke="#000000" d="M65.415,-143.5804C67.1709,-133.1767 69.1226,-119.9092 70,-108 71.1756,-92.0432 71.3197,-87.9455 70,-72 69.3055,-63.6085 68.0138,-54.5578 66.6214,-46.3092"/>
<polygon fill="#000000" stroke="#000000" points="70.0544,-45.6235 64.8413,-36.3999 63.1647,-46.8612 70.0544,-45.6235"/>
<g id="a_edge3&#45;headlabel"><a xlink:href="dir_000006_000016.html" target="_top" xlink:title="1">
<text text-anchor="middle" x="73.4844" y="-46.1595" font-family="Helvetica,sans-Serif" font-size="10.00" fill="#000000">1</text>
</a>
</g>
</g>
<!-- dir_645978e59c6890b6d7eb9ce2fded83cf&#45;&gt;dir_6719ab1f1f7655efc2fa43f7eb574fd1 -->
<g id="edge1" class="edge">
<title>dir_645978e59c6890b6d7eb9ce2fded83cf&#45;&gt;dir_6719ab1f1f7655efc2fa43f7eb574fd1</title>
<path fill="none" stroke="#000000" d="M40.8132,-71.8314C43.7644,-63.9617 47.2858,-54.5712 50.555,-45.8533"/>
<polygon fill="#000000" stroke="#000000" points="53.8609,-47.0055 54.095,-36.4133 47.3066,-44.5476 53.8609,-47.0055"/>
<g id="a_edge1&#45;headlabel"><a xlink:href="dir_000010_000016.html" target="_top" xlink:title="5">
<text text-anchor="middle" x="55.2573" y="-48.8682" font-family="Helvetica,sans-Serif" font-size="10.00" fill="#000000">5</text>
</a>
</g>
</g>
</g>
</svg>
