<?xml version="1.0" encoding="UTF-8" standalone="no"?>
<!DOCTYPE svg PUBLIC "-//W3C//DTD SVG 1.1//EN"
 "http://www.w3.org/Graphics/SVG/1.1/DTD/svg11.dtd">
<!-- Generated by graphviz version 2.40.1 (20161225.0304)
 -->
<!-- Title: hw2_ip_filter/tests Pages: 1 -->
<svg width="202pt" height="231pt"
 viewBox="0.00 0.00 202.00 231.00" xmlns="http://www.w3.org/2000/svg" xmlns:xlink="http://www.w3.org/1999/xlink">
<g id="graph0" class="graph" transform="scale(1 1) rotate(0) translate(4 227)">
<title>hw2_ip_filter/tests</title>
<polygon fill="#ffffff" stroke="transparent" points="-4,4 -4,-227 198,-227 198,4 -4,4"/>
<g id="clust1" class="cluster">
<title>clusterdir_23889216102e8bdb0c3b007ac6675d57</title>
<g id="a_clust1"><a xlink:href="dir_23889216102e8bdb0c3b007ac6675d57.html" target="_top" xlink:title="hw2_ip_filter">
<polygon fill="#ddddee" stroke="#000000" points="8,-128 8,-215 186,-215 186,-128 8,-128"/>
<text text-anchor="middle" x="97" y="-203" font-family="Helvetica,sans-Serif" font-size="10.00" fill="#000000">hw2_ip_filter</text>
</a>
</g>
</g>
<g id="clust2" class="cluster">
<title>clusterdir_eadbcd6a500d535fb23b4e475d81697b</title>
<g id="a_clust2"><a xlink:href="dir_eadbcd6a500d535fb23b4e475d81697b.html" target="_top">
<polygon fill="#eeeeff" stroke="#000000" points="16,-136 16,-188 178,-188 178,-136 16,-136"/>
</a>
</g>
</g>
<!-- dir_eadbcd6a500d535fb23b4e475d81697b -->
<g id="node1" class="node">
<title>dir_eadbcd6a500d535fb23b4e475d81697b</title>
<text text-anchor="middle" x="143" y="-159.5" font-family="Helvetica,sans-Serif" font-size="10.00" fill="#000000">tests</text>
</g>
<!-- dir_8ffd8c641738fc7d093cc811deffdffe -->
<g id="node2" class="node">
<title>dir_8ffd8c641738fc7d093cc811deffdffe</title>
<g id="a_node2"><a xlink:href="dir_8ffd8c641738fc7d093cc811deffdffe.html" target="_top" xlink:title="IpFilterTests">
<polygon fill="#ffffff" stroke="#000000" points="98,-180 24,-180 24,-144 98,-144 98,-180"/>
<text text-anchor="middle" x="61" y="-159.5" font-family="Helvetica,sans-Serif" font-size="10.00" fill="#000000">IpFilterTests</text>
</a>
</g>
</g>
<!-- dir_6719ab1f1f7655efc2fa43f7eb574fd1 -->
<g id="node3" class="node">
<title>dir_6719ab1f1f7655efc2fa43f7eb574fd1</title>
<g id="a_node3"><a xlink:href="dir_6719ab1f1f7655efc2fa43f7eb574fd1.html" target="_top" xlink:title="libs">
<polygon fill="#ffffff" stroke="#ff0000" points="87,-36 33,-36 33,0 87,0 87,-36"/>
<text text-anchor="middle" x="60" y="-15.5" font-family="Helvetica,sans-Serif" font-size="10.00" fill="#000000">libs</text>
</a>
</g>
</g>
<!-- dir_8ffd8c641738fc7d093cc811deffdffe&#45;&gt;dir_6719ab1f1f7655efc2fa43f7eb574fd1 -->
<g id="edge1" class="edge">
<title>dir_8ffd8c641738fc7d093cc811deffdffe&#45;&gt;dir_6719ab1f1f7655efc2fa43f7eb574fd1</title>
<path fill="none" stroke="#000000" d="M57.1587,-143.6001C55.1834,-133.2025 52.9877,-119.9346 52,-108 50.6803,-92.0545 50.8244,-87.9568 52,-72 52.6169,-63.6264 53.7649,-54.5812 55.0026,-46.3322"/>
<polygon fill="#000000" stroke="#000000" points="58.4648,-46.8463 56.585,-36.4196 51.5523,-45.7428 58.4648,-46.8463"/>
<g id="a_edge1&#45;headlabel"><a xlink:href="dir_000012_000018.html" target="_top" xlink:title="1">
<text text-anchor="middle" x="60.702" y="-48.3436" font-family="Helvetica,sans-Serif" font-size="10.00" fill="#000000">1</text>
</a>
</g>
</g>
<!-- dir_c6ade7757b3f9f32d06f3c22a64259fd -->
<g id="node4" class="node">
<title>dir_c6ade7757b3f9f32d06f3c22a64259fd</title>
<g id="a_node4"><a xlink:href="dir_c6ade7757b3f9f32d06f3c22a64259fd.html" target="_top" xlink:title="src">
<polygon fill="#ffffff" stroke="#ff0000" points="115,-108 61,-108 61,-72 115,-72 115,-108"/>
<text text-anchor="middle" x="88" y="-87.5" font-family="Helvetica,sans-Serif" font-size="10.00" fill="#000000">src</text>
</a>
</g>
</g>
<!-- dir_8ffd8c641738fc7d093cc811deffdffe&#45;&gt;dir_c6ade7757b3f9f32d06f3c22a64259fd -->
<g id="edge2" class="edge">
<title>dir_8ffd8c641738fc7d093cc811deffdffe&#45;&gt;dir_c6ade7757b3f9f32d06f3c22a64259fd</title>
<path fill="none" stroke="#000000" d="M67.8132,-143.8314C70.7644,-135.9617 74.2858,-126.5712 77.555,-117.8533"/>
<polygon fill="#000000" stroke="#000000" points="80.8609,-119.0055 81.095,-108.4133 74.3066,-116.5476 80.8609,-119.0055"/>
<g id="a_edge2&#45;headlabel"><a xlink:href="dir_000012_000005.html" target="_top" xlink:title="4">
<text text-anchor="middle" x="82.2573" y="-120.8682" font-family="Helvetica,sans-Serif" font-size="10.00" fill="#000000">4</text>
</a>
</g>
</g>
<!-- dir_c6ade7757b3f9f32d06f3c22a64259fd&#45;&gt;dir_6719ab1f1f7655efc2fa43f7eb574fd1 -->
<g id="edge3" class="edge">
<title>dir_c6ade7757b3f9f32d06f3c22a64259fd&#45;&gt;dir_6719ab1f1f7655efc2fa43f7eb574fd1</title>
<path fill="none" stroke="#000000" d="M80.9344,-71.8314C77.874,-63.9617 74.2221,-54.5712 70.8318,-45.8533"/>
<polygon fill="#000000" stroke="#000000" points="74.0473,-44.4647 67.1607,-36.4133 67.5232,-47.0019 74.0473,-44.4647"/>
<g id="a_edge3&#45;headlabel"><a xlink:href="dir_000005_000018.html" target="_top" xlink:title="4">
<text text-anchor="middle" x="77.9963" y="-44.2859" font-family="Helvetica,sans-Serif" font-size="10.00" fill="#000000">4</text>
</a>
</g>
</g>
</g>
</svg>
