<?xml version="1.0" encoding="UTF-8" standalone="no"?>
<!DOCTYPE svg PUBLIC "-//W3C//DTD SVG 1.1//EN"
 "http://www.w3.org/Graphics/SVG/1.1/DTD/svg11.dtd">
<!-- Generated by graphviz version 2.40.1 (20161225.0304)
 -->
<!-- Title: hw1_cicd/tests Pages: 1 -->
<svg width="292pt" height="159pt"
 viewBox="0.00 0.00 292.00 159.00" xmlns="http://www.w3.org/2000/svg" xmlns:xlink="http://www.w3.org/1999/xlink">
<g id="graph0" class="graph" transform="scale(1 1) rotate(0) translate(4 155)">
<title>hw1_cicd/tests</title>
<polygon fill="#ffffff" stroke="transparent" points="-4,4 -4,-155 288,-155 288,4 -4,4"/>
<g id="clust1" class="cluster">
<title>clusterdir_7057357b5b8b6be0b4f92f2303e2a839</title>
<g id="a_clust1"><a xlink:href="dir_7057357b5b8b6be0b4f92f2303e2a839.html" target="_top" xlink:title="hw1_cicd">
<polygon fill="#ddddee" stroke="#000000" points="8,-56 8,-143 276,-143 276,-56 8,-56"/>
<text text-anchor="middle" x="142" y="-131" font-family="Helvetica,sans-Serif" font-size="10.00" fill="#000000">hw1_cicd</text>
</a>
</g>
</g>
<g id="clust2" class="cluster">
<title>clusterdir_3a9fe4f552aa1ca4fb49e1bb36c95bd2</title>
<g id="a_clust2"><a xlink:href="dir_3a9fe4f552aa1ca4fb49e1bb36c95bd2.html" target="_top">
<polygon fill="#eeeeff" stroke="#000000" points="16,-64 16,-116 268,-116 268,-64 16,-64"/>
</a>
</g>
</g>
<!-- dir_3a9fe4f552aa1ca4fb49e1bb36c95bd2 -->
<g id="node1" class="node">
<title>dir_3a9fe4f552aa1ca4fb49e1bb36c95bd2</title>
<text text-anchor="middle" x="233" y="-87.5" font-family="Helvetica,sans-Serif" font-size="10.00" fill="#000000">tests</text>
</g>
<!-- dir_5bb529d7abbd3cee18cc9a8e650eb84f -->
<g id="node2" class="node">
<title>dir_5bb529d7abbd3cee18cc9a8e650eb84f</title>
<g id="a_node2"><a xlink:href="dir_5bb529d7abbd3cee18cc9a8e650eb84f.html" target="_top" xlink:title="BoostTests">
<polygon fill="#ffffff" stroke="#000000" points="187.5,-108 118.5,-108 118.5,-72 187.5,-72 187.5,-108"/>
<text text-anchor="middle" x="153" y="-87.5" font-family="Helvetica,sans-Serif" font-size="10.00" fill="#000000">BoostTests</text>
</a>
</g>
</g>
<!-- dir_526bea64bc7da40ce97067456d3137ec -->
<g id="node4" class="node">
<title>dir_526bea64bc7da40ce97067456d3137ec</title>
<g id="a_node4"><a xlink:href="dir_526bea64bc7da40ce97067456d3137ec.html" target="_top" xlink:title="lib">
<polygon fill="none" stroke="#000000" points="134,-36 80,-36 80,0 134,0 134,-36"/>
<text text-anchor="middle" x="107" y="-15.5" font-family="Helvetica,sans-Serif" font-size="10.00" fill="#000000">lib</text>
</a>
</g>
</g>
<!-- dir_5bb529d7abbd3cee18cc9a8e650eb84f&#45;&gt;dir_526bea64bc7da40ce97067456d3137ec -->
<g id="edge1" class="edge">
<title>dir_5bb529d7abbd3cee18cc9a8e650eb84f&#45;&gt;dir_526bea64bc7da40ce97067456d3137ec</title>
<path fill="none" stroke="#000000" d="M141.3923,-71.8314C136.2022,-63.7079 129.9768,-53.9637 124.2575,-45.0118"/>
<polygon fill="#000000" stroke="#000000" points="127.0974,-42.9559 118.764,-36.4133 121.1985,-46.7246 127.0974,-42.9559"/>
<g id="a_edge1&#45;headlabel"><a xlink:href="dir_000008_000001.html" target="_top" xlink:title="1">
<text text-anchor="middle" x="131.4253" y="-41.9564" font-family="Helvetica,sans-Serif" font-size="10.00" fill="#000000">1</text>
</a>
</g>
</g>
<!-- dir_dde9f18f5ed3c89df1eac8d899157d26 -->
<g id="node3" class="node">
<title>dir_dde9f18f5ed3c89df1eac8d899157d26</title>
<g id="a_node3"><a xlink:href="dir_dde9f18f5ed3c89df1eac8d899157d26.html" target="_top" xlink:title="GoogleTests">
<polygon fill="#ffffff" stroke="#000000" points="100,-108 24,-108 24,-72 100,-72 100,-108"/>
<text text-anchor="middle" x="62" y="-87.5" font-family="Helvetica,sans-Serif" font-size="10.00" fill="#000000">GoogleTests</text>
</a>
</g>
</g>
<!-- dir_dde9f18f5ed3c89df1eac8d899157d26&#45;&gt;dir_526bea64bc7da40ce97067456d3137ec -->
<g id="edge2" class="edge">
<title>dir_dde9f18f5ed3c89df1eac8d899157d26&#45;&gt;dir_526bea64bc7da40ce97067456d3137ec</title>
<path fill="none" stroke="#000000" d="M73.3554,-71.8314C78.4326,-63.7079 84.5227,-53.9637 90.1176,-45.0118"/>
<polygon fill="#000000" stroke="#000000" points="93.1597,-46.7483 95.4917,-36.4133 87.2237,-43.0383 93.1597,-46.7483"/>
<g id="a_edge2&#45;headlabel"><a xlink:href="dir_000009_000001.html" target="_top" xlink:title="1">
<text text-anchor="middle" x="93.6623" y="-48.8013" font-family="Helvetica,sans-Serif" font-size="10.00" fill="#000000">1</text>
</a>
</g>
</g>
</g>
</svg>
