<?xml version="1.0" encoding="UTF-8" standalone="no"?>
<!DOCTYPE svg PUBLIC "-//W3C//DTD SVG 1.1//EN"
 "http://www.w3.org/Graphics/SVG/1.1/DTD/svg11.dtd">
<!-- Generated by graphviz version 2.40.1 (20161225.0304)
 -->
<!-- Title: hw0_cicd/tests Pages: 1 -->
<svg width="292pt" height="159pt"
 viewBox="0.00 0.00 292.00 159.00" xmlns="http://www.w3.org/2000/svg" xmlns:xlink="http://www.w3.org/1999/xlink">
<g id="graph0" class="graph" transform="scale(1 1) rotate(0) translate(4 155)">
<title>hw0_cicd/tests</title>
<polygon fill="#ffffff" stroke="transparent" points="-4,4 -4,-155 288,-155 288,4 -4,4"/>
<g id="clust1" class="cluster">
<title>clusterdir_9b7cbf98fb2f78ee23e65d99a83ca78a</title>
<g id="a_clust1"><a xlink:href="dir_9b7cbf98fb2f78ee23e65d99a83ca78a.html" target="_top" xlink:title="hw0_cicd">
<polygon fill="#ddddee" stroke="#000000" points="8,-56 8,-143 276,-143 276,-56 8,-56"/>
<text text-anchor="middle" x="142" y="-131" font-family="Helvetica,sans-Serif" font-size="10.00" fill="#000000">hw0_cicd</text>
</a>
</g>
</g>
<g id="clust2" class="cluster">
<title>clusterdir_9eba83e43d6e40ac9c316f1b64f78fc0</title>
<g id="a_clust2"><a xlink:href="dir_9eba83e43d6e40ac9c316f1b64f78fc0.html" target="_top">
<polygon fill="#eeeeff" stroke="#000000" points="16,-64 16,-116 268,-116 268,-64 16,-64"/>
</a>
</g>
</g>
<!-- dir_9eba83e43d6e40ac9c316f1b64f78fc0 -->
<g id="node1" class="node">
<title>dir_9eba83e43d6e40ac9c316f1b64f78fc0</title>
<text text-anchor="middle" x="233" y="-87.5" font-family="Helvetica,sans-Serif" font-size="10.00" fill="#000000">tests</text>
</g>
<!-- dir_a1aea4cbd73edc1ac9fbf6a216d1b12d -->
<g id="node2" class="node">
<title>dir_a1aea4cbd73edc1ac9fbf6a216d1b12d</title>
<g id="a_node2"><a xlink:href="dir_a1aea4cbd73edc1ac9fbf6a216d1b12d.html" target="_top" xlink:title="BoostTests">
<polygon fill="#ffffff" stroke="#000000" points="187.5,-108 118.5,-108 118.5,-72 187.5,-72 187.5,-108"/>
<text text-anchor="middle" x="153" y="-87.5" font-family="Helvetica,sans-Serif" font-size="10.00" fill="#000000">BoostTests</text>
</a>
</g>
</g>
<!-- dir_a2454336ec66606f82b563e82409b198 -->
<g id="node4" class="node">
<title>dir_a2454336ec66606f82b563e82409b198</title>
<g id="a_node4"><a xlink:href="dir_a2454336ec66606f82b563e82409b198.html" target="_top" xlink:title="lib">
<polygon fill="none" stroke="#000000" points="134,-36 80,-36 80,0 134,0 134,-36"/>
<text text-anchor="middle" x="107" y="-15.5" font-family="Helvetica,sans-Serif" font-size="10.00" fill="#000000">lib</text>
</a>
</g>
</g>
<!-- dir_a1aea4cbd73edc1ac9fbf6a216d1b12d&#45;&gt;dir_a2454336ec66606f82b563e82409b198 -->
<g id="edge1" class="edge">
<title>dir_a1aea4cbd73edc1ac9fbf6a216d1b12d&#45;&gt;dir_a2454336ec66606f82b563e82409b198</title>
<path fill="none" stroke="#000000" d="M141.3923,-71.8314C136.2022,-63.7079 129.9768,-53.9637 124.2575,-45.0118"/>
<polygon fill="#000000" stroke="#000000" points="127.0974,-42.9559 118.764,-36.4133 121.1985,-46.7246 127.0974,-42.9559"/>
<g id="a_edge1&#45;headlabel"><a xlink:href="dir_000010_000001.html" target="_top" xlink:title="1">
<text text-anchor="middle" x="131.4253" y="-41.9564" font-family="Helvetica,sans-Serif" font-size="10.00" fill="#000000">1</text>
</a>
</g>
</g>
<!-- dir_9f6dce1ded69308ad398ff38681db12a -->
<g id="node3" class="node">
<title>dir_9f6dce1ded69308ad398ff38681db12a</title>
<g id="a_node3"><a xlink:href="dir_9f6dce1ded69308ad398ff38681db12a.html" target="_top" xlink:title="GoogleTests">
<polygon fill="#ffffff" stroke="#000000" points="100,-108 24,-108 24,-72 100,-72 100,-108"/>
<text text-anchor="middle" x="62" y="-87.5" font-family="Helvetica,sans-Serif" font-size="10.00" fill="#000000">GoogleTests</text>
</a>
</g>
</g>
<!-- dir_9f6dce1ded69308ad398ff38681db12a&#45;&gt;dir_a2454336ec66606f82b563e82409b198 -->
<g id="edge2" class="edge">
<title>dir_9f6dce1ded69308ad398ff38681db12a&#45;&gt;dir_a2454336ec66606f82b563e82409b198</title>
<path fill="none" stroke="#000000" d="M73.3554,-71.8314C78.4326,-63.7079 84.5227,-53.9637 90.1176,-45.0118"/>
<polygon fill="#000000" stroke="#000000" points="93.1597,-46.7483 95.4917,-36.4133 87.2237,-43.0383 93.1597,-46.7483"/>
<g id="a_edge2&#45;headlabel"><a xlink:href="dir_000011_000001.html" target="_top" xlink:title="1">
<text text-anchor="middle" x="93.6623" y="-48.8013" font-family="Helvetica,sans-Serif" font-size="10.00" fill="#000000">1</text>
</a>
</g>
</g>
</g>
</svg>
