<?xml version="1.0" encoding="UTF-8" standalone="no"?>
<!DOCTYPE svg PUBLIC "-//W3C//DTD SVG 1.1//EN"
 "http://www.w3.org/Graphics/SVG/1.1/DTD/svg11.dtd">
<!-- Generated by graphviz version 2.40.1 (20161225.0304)
 -->
<!-- Title: hw2_allocator/ReserveAllocatorTests Pages: 1 -->
<svg width="164pt" height="151pt"
 viewBox="0.00 0.00 164.00 151.00" xmlns="http://www.w3.org/2000/svg" xmlns:xlink="http://www.w3.org/1999/xlink">
<g id="graph0" class="graph" transform="scale(1 1) rotate(0) translate(4 147)">
<title>hw2_allocator/ReserveAllocatorTests</title>
<polygon fill="#ffffff" stroke="transparent" points="-4,4 -4,-147 160,-147 160,4 -4,4"/>
<g id="clust1" class="cluster">
<title>clusterdir_b054f5e87d150411253767c6c9b872c0</title>
<g id="a_clust1"><a xlink:href="dir_b054f5e87d150411253767c6c9b872c0.html" target="_top" xlink:title="hw2_allocator">
<polygon fill="#ddddee" stroke="#000000" points="8,-64 8,-135 148,-135 148,-64 8,-64"/>
<text text-anchor="middle" x="78" y="-123" font-family="Helvetica,sans-Serif" font-size="10.00" fill="#000000">hw2_allocator</text>
</a>
</g>
</g>
<!-- dir_dc8087822cd0a600d5e49441b0d01cd5 -->
<g id="node1" class="node">
<title>dir_dc8087822cd0a600d5e49441b0d01cd5</title>
<g id="a_node1"><a xlink:href="dir_dc8087822cd0a600d5e49441b0d01cd5.html" target="_top" xlink:title="ReserveAllocatorTests">
<polygon fill="#eeeeff" stroke="#000000" points="140,-108 16,-108 16,-72 140,-72 140,-108"/>
<text text-anchor="middle" x="78" y="-87.5" font-family="Helvetica,sans-Serif" font-size="10.00" fill="#000000">ReserveAllocatorTests</text>
</a>
</g>
</g>
<!-- dir_31dd421cdb1ea48896e28f2d467748fb -->
<g id="node2" class="node">
<title>dir_31dd421cdb1ea48896e28f2d467748fb</title>
<g id="a_node2"><a xlink:href="dir_31dd421cdb1ea48896e28f2d467748fb.html" target="_top" xlink:title="ReserveAllocator">
<polygon fill="none" stroke="#000000" points="127.5,-36 28.5,-36 28.5,0 127.5,0 127.5,-36"/>
<text text-anchor="middle" x="78" y="-15.5" font-family="Helvetica,sans-Serif" font-size="10.00" fill="#000000">ReserveAllocator</text>
</a>
</g>
</g>
<!-- dir_dc8087822cd0a600d5e49441b0d01cd5&#45;&gt;dir_31dd421cdb1ea48896e28f2d467748fb -->
<g id="edge1" class="edge">
<title>dir_dc8087822cd0a600d5e49441b0d01cd5&#45;&gt;dir_31dd421cdb1ea48896e28f2d467748fb</title>
<path fill="none" stroke="#000000" d="M78,-71.8314C78,-64.131 78,-54.9743 78,-46.4166"/>
<polygon fill="#000000" stroke="#000000" points="81.5001,-46.4132 78,-36.4133 74.5001,-46.4133 81.5001,-46.4132"/>
<g id="a_edge1&#45;headlabel"><a xlink:href="dir_000016_000015.html" target="_top" xlink:title="3">
<text text-anchor="middle" x="84.3393" y="-47.5079" font-family="Helvetica,sans-Serif" font-size="10.00" fill="#000000">3</text>
</a>
</g>
</g>
</g>
</svg>
