<?xml version="1.0" encoding="UTF-8" standalone="no"?>
<!DOCTYPE svg PUBLIC "-//W3C//DTD SVG 1.1//EN"
 "http://www.w3.org/Graphics/SVG/1.1/DTD/svg11.dtd">
<!-- Generated by graphviz version 2.40.1 (20161225.0304)
 -->
<!-- Title: hw3_print_ip/tests Pages: 1 -->
<svg width="202pt" height="159pt"
 viewBox="0.00 0.00 202.00 159.00" xmlns="http://www.w3.org/2000/svg" xmlns:xlink="http://www.w3.org/1999/xlink">
<g id="graph0" class="graph" transform="scale(1 1) rotate(0) translate(4 155)">
<title>hw3_print_ip/tests</title>
<polygon fill="#ffffff" stroke="transparent" points="-4,4 -4,-155 198,-155 198,4 -4,4"/>
<g id="clust1" class="cluster">
<title>clusterdir_d9aa6542464adc47b61d316a07c77d06</title>
<g id="a_clust1"><a xlink:href="dir_d9aa6542464adc47b61d316a07c77d06.html" target="_top" xlink:title="hw3_print_ip">
<polygon fill="#ddddee" stroke="#000000" points="8,-56 8,-143 186,-143 186,-56 8,-56"/>
<text text-anchor="middle" x="97" y="-131" font-family="Helvetica,sans-Serif" font-size="10.00" fill="#000000">hw3_print_ip</text>
</a>
</g>
</g>
<g id="clust2" class="cluster">
<title>clusterdir_7dd16b4afaf87e8033a965a652551c2c</title>
<g id="a_clust2"><a xlink:href="dir_7dd16b4afaf87e8033a965a652551c2c.html" target="_top">
<polygon fill="#eeeeff" stroke="#000000" points="16,-64 16,-116 178,-116 178,-64 16,-64"/>
</a>
</g>
</g>
<!-- dir_7dd16b4afaf87e8033a965a652551c2c -->
<g id="node1" class="node">
<title>dir_7dd16b4afaf87e8033a965a652551c2c</title>
<text text-anchor="middle" x="143" y="-87.5" font-family="Helvetica,sans-Serif" font-size="10.00" fill="#000000">tests</text>
</g>
<!-- dir_4e53a22bd1b48efdb11ee4c83bacf16f -->
<g id="node2" class="node">
<title>dir_4e53a22bd1b48efdb11ee4c83bacf16f</title>
<g id="a_node2"><a xlink:href="dir_4e53a22bd1b48efdb11ee4c83bacf16f.html" target="_top" xlink:title="PrintIpTests">
<polygon fill="#ffffff" stroke="#000000" points="97.5,-108 24.5,-108 24.5,-72 97.5,-72 97.5,-108"/>
<text text-anchor="middle" x="61" y="-87.5" font-family="Helvetica,sans-Serif" font-size="10.00" fill="#000000">PrintIpTests</text>
</a>
</g>
</g>
<!-- dir_37bbd2bd6271289faedd3e82c471da1e -->
<g id="node3" class="node">
<title>dir_37bbd2bd6271289faedd3e82c471da1e</title>
<g id="a_node3"><a xlink:href="dir_37bbd2bd6271289faedd3e82c471da1e.html" target="_top" xlink:title="src">
<polygon fill="#ffffff" stroke="#ff0000" points="88,-36 34,-36 34,0 88,0 88,-36"/>
<text text-anchor="middle" x="61" y="-15.5" font-family="Helvetica,sans-Serif" font-size="10.00" fill="#000000">src</text>
</a>
</g>
</g>
<!-- dir_4e53a22bd1b48efdb11ee4c83bacf16f&#45;&gt;dir_37bbd2bd6271289faedd3e82c471da1e -->
<g id="edge1" class="edge">
<title>dir_4e53a22bd1b48efdb11ee4c83bacf16f&#45;&gt;dir_37bbd2bd6271289faedd3e82c471da1e</title>
<path fill="none" stroke="#000000" d="M61,-71.8314C61,-64.131 61,-54.9743 61,-46.4166"/>
<polygon fill="#000000" stroke="#000000" points="64.5001,-46.4132 61,-36.4133 57.5001,-46.4133 64.5001,-46.4132"/>
<g id="a_edge1&#45;headlabel"><a xlink:href="dir_000017_000013.html" target="_top" xlink:title="1">
<text text-anchor="middle" x="67.3393" y="-47.5079" font-family="Helvetica,sans-Serif" font-size="10.00" fill="#000000">1</text>
</a>
</g>
</g>
</g>
</svg>
