<?xml version="1.0" encoding="UTF-8" standalone="no"?>
<!DOCTYPE svg PUBLIC "-//W3C//DTD SVG 1.1//EN"
 "http://www.w3.org/Graphics/SVG/1.1/DTD/svg11.dtd">
<!-- Generated by graphviz version 2.40.1 (20161225.0304)
 -->
<!-- Title: hw0_cicd Pages: 1 -->
<svg width="246pt" height="204pt"
 viewBox="0.00 0.00 246.00 204.00" xmlns="http://www.w3.org/2000/svg" xmlns:xlink="http://www.w3.org/1999/xlink">
<g id="graph0" class="graph" transform="scale(1 1) rotate(0) translate(4 200)">
<title>hw0_cicd</title>
<polygon fill="#ffffff" stroke="transparent" points="-4,4 -4,-200 242,-200 242,4 -4,4"/>
<g id="clust1" class="cluster">
<title>clusterdir_9b7cbf98fb2f78ee23e65d99a83ca78a</title>
<g id="a_clust1"><a xlink:href="dir_9b7cbf98fb2f78ee23e65d99a83ca78a.html" target="_top">
<polygon fill="#eeeeff" stroke="#000000" points="8,-64 8,-188 230,-188 230,-64 8,-64"/>
</a>
</g>
</g>
<!-- dir_9b7cbf98fb2f78ee23e65d99a83ca78a -->
<g id="node1" class="node">
<title>dir_9b7cbf98fb2f78ee23e65d99a83ca78a</title>
<text text-anchor="middle" x="191" y="-159.5" font-family="Helvetica,sans-Serif" font-size="10.00" fill="#000000">hw0_cicd</text>
</g>
<!-- dir_a2454336ec66606f82b563e82409b198 -->
<g id="node2" class="node">
<title>dir_a2454336ec66606f82b563e82409b198</title>
<g id="a_node2"><a xlink:href="dir_a2454336ec66606f82b563e82409b198.html" target="_top" xlink:title="lib">
<polygon fill="#ffffff" stroke="#000000" points="106,-108 52,-108 52,-72 106,-72 106,-108"/>
<text text-anchor="middle" x="79" y="-87.5" font-family="Helvetica,sans-Serif" font-size="10.00" fill="#000000">lib</text>
</a>
</g>
</g>
<!-- dir_7057357b5b8b6be0b4f92f2303e2a839 -->
<g id="node5" class="node">
<title>dir_7057357b5b8b6be0b4f92f2303e2a839</title>
<g id="a_node5"><a xlink:href="dir_7057357b5b8b6be0b4f92f2303e2a839.html" target="_top" xlink:title="hw1_cicd">
<polygon fill="none" stroke="#000000" points="110,-36 48,-36 48,0 110,0 110,-36"/>
<text text-anchor="middle" x="79" y="-15.5" font-family="Helvetica,sans-Serif" font-size="10.00" fill="#000000">hw1_cicd</text>
</a>
</g>
</g>
<!-- dir_a2454336ec66606f82b563e82409b198&#45;&gt;dir_7057357b5b8b6be0b4f92f2303e2a839 -->
<g id="edge3" class="edge">
<title>dir_a2454336ec66606f82b563e82409b198&#45;&gt;dir_7057357b5b8b6be0b4f92f2303e2a839</title>
<path fill="none" stroke="#000000" d="M79,-71.8314C79,-64.131 79,-54.9743 79,-46.4166"/>
<polygon fill="#000000" stroke="#000000" points="82.5001,-46.4132 79,-36.4133 75.5001,-46.4133 82.5001,-46.4132"/>
<g id="a_edge3&#45;headlabel"><a xlink:href="dir_000001_000010.html" target="_top" xlink:title="1">
<text text-anchor="middle" x="85.3393" y="-47.5079" font-family="Helvetica,sans-Serif" font-size="10.00" fill="#000000">1</text>
</a>
</g>
</g>
<!-- dir_c4b3b6432801df35c009f1080a360046 -->
<g id="node3" class="node">
<title>dir_c4b3b6432801df35c009f1080a360046</title>
<g id="a_node3"><a xlink:href="dir_c4b3b6432801df35c009f1080a360046.html" target="_top" xlink:title="src">
<polygon fill="#ffffff" stroke="#000000" points="142,-180 88,-180 88,-144 142,-144 142,-180"/>
<text text-anchor="middle" x="115" y="-159.5" font-family="Helvetica,sans-Serif" font-size="10.00" fill="#000000">src</text>
</a>
</g>
</g>
<!-- dir_c4b3b6432801df35c009f1080a360046&#45;&gt;dir_a2454336ec66606f82b563e82409b198 -->
<g id="edge1" class="edge">
<title>dir_c4b3b6432801df35c009f1080a360046&#45;&gt;dir_a2454336ec66606f82b563e82409b198</title>
<path fill="none" stroke="#000000" d="M105.9157,-143.8314C101.9385,-135.8771 97.1845,-126.369 92.7861,-117.5723"/>
<polygon fill="#000000" stroke="#000000" points="95.8093,-115.7923 88.2066,-108.4133 89.5483,-118.9228 95.8093,-115.7923"/>
<g id="a_edge1&#45;headlabel"><a xlink:href="dir_000004_000001.html" target="_top" xlink:title="1">
<text text-anchor="middle" x="99.9563" y="-115.2377" font-family="Helvetica,sans-Serif" font-size="10.00" fill="#000000">1</text>
</a>
</g>
</g>
<!-- dir_9eba83e43d6e40ac9c316f1b64f78fc0 -->
<g id="node4" class="node">
<title>dir_9eba83e43d6e40ac9c316f1b64f78fc0</title>
<g id="a_node4"><a xlink:href="dir_9eba83e43d6e40ac9c316f1b64f78fc0.html" target="_top" xlink:title="tests">
<polygon fill="#ffffff" stroke="#ff0000" points="70,-180 16,-180 16,-144 70,-144 70,-180"/>
<text text-anchor="middle" x="43" y="-159.5" font-family="Helvetica,sans-Serif" font-size="10.00" fill="#000000">tests</text>
</a>
</g>
</g>
<!-- dir_9eba83e43d6e40ac9c316f1b64f78fc0&#45;&gt;dir_a2454336ec66606f82b563e82409b198 -->
<g id="edge2" class="edge">
<title>dir_9eba83e43d6e40ac9c316f1b64f78fc0&#45;&gt;dir_a2454336ec66606f82b563e82409b198</title>
<path fill="none" stroke="#000000" d="M52.0843,-143.8314C56.0615,-135.8771 60.8155,-126.369 65.2139,-117.5723"/>
<polygon fill="#000000" stroke="#000000" points="68.4517,-118.9228 69.7934,-108.4133 62.1907,-115.7923 68.4517,-118.9228"/>
<g id="a_edge2&#45;headlabel"><a xlink:href="dir_000007_000001.html" target="_top" xlink:title="2">
<text text-anchor="middle" x="69.3837" y="-120.9077" font-family="Helvetica,sans-Serif" font-size="10.00" fill="#000000">2</text>
</a>
</g>
</g>
</g>
</svg>
