<?xml version="1.0" encoding="UTF-8" standalone="no"?>
<!DOCTYPE svg PUBLIC "-//W3C//DTD SVG 1.1//EN"
 "http://www.w3.org/Graphics/SVG/1.1/DTD/svg11.dtd">
<!-- Generated by graphviz version 2.40.1 (20161225.0304)
 -->
<!-- Title: hw1_ip_filter/src Pages: 1 -->
<svg width="262pt" height="231pt"
 viewBox="0.00 0.00 262.00 231.00" xmlns="http://www.w3.org/2000/svg" xmlns:xlink="http://www.w3.org/1999/xlink">
<g id="graph0" class="graph" transform="scale(1 1) rotate(0) translate(4 227)">
<title>hw1_ip_filter/src</title>
<polygon fill="#ffffff" stroke="transparent" points="-4,4 -4,-227 258,-227 258,4 -4,4"/>
<g id="clust1" class="cluster">
<title>clusterdir_178d47071a10f3df41fff370ab293f5d</title>
<g id="a_clust1"><a xlink:href="dir_178d47071a10f3df41fff370ab293f5d.html" target="_top" xlink:title="hw1_ip_filter">
<polygon fill="#ddddee" stroke="#000000" points="8,-56 8,-215 246,-215 246,-56 8,-56"/>
<text text-anchor="middle" x="127" y="-203" font-family="Helvetica,sans-Serif" font-size="10.00" fill="#000000">hw1_ip_filter</text>
</a>
</g>
</g>
<g id="clust2" class="cluster">
<title>clusterdir_8baa6d4c66897a606bd154524eb9720b</title>
<g id="a_clust2"><a xlink:href="dir_8baa6d4c66897a606bd154524eb9720b.html" target="_top">
<polygon fill="#eeeeff" stroke="#000000" points="16,-64 16,-188 238,-188 238,-64 16,-64"/>
</a>
</g>
</g>
<!-- dir_8baa6d4c66897a606bd154524eb9720b -->
<g id="node1" class="node">
<title>dir_8baa6d4c66897a606bd154524eb9720b</title>
<text text-anchor="middle" x="203" y="-159.5" font-family="Helvetica,sans-Serif" font-size="10.00" fill="#000000">src</text>
</g>
<!-- dir_645978e59c6890b6d7eb9ce2fded83cf -->
<g id="node2" class="node">
<title>dir_645978e59c6890b6d7eb9ce2fded83cf</title>
<g id="a_node2"><a xlink:href="dir_645978e59c6890b6d7eb9ce2fded83cf.html" target="_top" xlink:title="IpFilter">
<polygon fill="#ffffff" stroke="#000000" points="98,-108 44,-108 44,-72 98,-72 98,-108"/>
<text text-anchor="middle" x="71" y="-87.5" font-family="Helvetica,sans-Serif" font-size="10.00" fill="#000000">IpFilter</text>
</a>
</g>
</g>
<!-- dir_6719ab1f1f7655efc2fa43f7eb574fd1 -->
<g id="node4" class="node">
<title>dir_6719ab1f1f7655efc2fa43f7eb574fd1</title>
<g id="a_node4"><a xlink:href="dir_6719ab1f1f7655efc2fa43f7eb574fd1.html" target="_top" xlink:title="libs">
<polygon fill="#ffffff" stroke="#ff0000" points="125,-36 71,-36 71,0 125,0 125,-36"/>
<text text-anchor="middle" x="98" y="-15.5" font-family="Helvetica,sans-Serif" font-size="10.00" fill="#000000">libs</text>
</a>
</g>
</g>
<!-- dir_645978e59c6890b6d7eb9ce2fded83cf&#45;&gt;dir_6719ab1f1f7655efc2fa43f7eb574fd1 -->
<g id="edge1" class="edge">
<title>dir_645978e59c6890b6d7eb9ce2fded83cf&#45;&gt;dir_6719ab1f1f7655efc2fa43f7eb574fd1</title>
<path fill="none" stroke="#000000" d="M77.8132,-71.8314C80.7644,-63.9617 84.2858,-54.5712 87.555,-45.8533"/>
<polygon fill="#000000" stroke="#000000" points="90.8609,-47.0055 91.095,-36.4133 84.3066,-44.5476 90.8609,-47.0055"/>
<g id="a_edge1&#45;headlabel"><a xlink:href="dir_000011_000019.html" target="_top" xlink:title="4">
<text text-anchor="middle" x="92.2573" y="-48.8682" font-family="Helvetica,sans-Serif" font-size="10.00" fill="#000000">4</text>
</a>
</g>
</g>
<!-- dir_c2b6093c60a2fb3a138db873526a37cf -->
<g id="node3" class="node">
<title>dir_c2b6093c60a2fb3a138db873526a37cf</title>
<g id="a_node3"><a xlink:href="dir_c2b6093c60a2fb3a138db873526a37cf.html" target="_top" xlink:title="RequiredOutputsModule">
<polygon fill="#ffffff" stroke="#000000" points="157.5,-180 24.5,-180 24.5,-144 157.5,-144 157.5,-180"/>
<text text-anchor="middle" x="91" y="-159.5" font-family="Helvetica,sans-Serif" font-size="10.00" fill="#000000">RequiredOutputsModule</text>
</a>
</g>
</g>
<!-- dir_c2b6093c60a2fb3a138db873526a37cf&#45;&gt;dir_645978e59c6890b6d7eb9ce2fded83cf -->
<g id="edge2" class="edge">
<title>dir_c2b6093c60a2fb3a138db873526a37cf&#45;&gt;dir_645978e59c6890b6d7eb9ce2fded83cf</title>
<path fill="none" stroke="#000000" d="M85.9532,-143.8314C83.7906,-136.0463 81.2147,-126.7729 78.8152,-118.1347"/>
<polygon fill="#000000" stroke="#000000" points="82.1636,-117.1117 76.1148,-108.4133 75.419,-118.9852 82.1636,-117.1117"/>
<g id="a_edge2&#45;headlabel"><a xlink:href="dir_000006_000011.html" target="_top" xlink:title="3">
<text text-anchor="middle" x="85.8613" y="-117.3153" font-family="Helvetica,sans-Serif" font-size="10.00" fill="#000000">3</text>
</a>
</g>
</g>
<!-- dir_c2b6093c60a2fb3a138db873526a37cf&#45;&gt;dir_6719ab1f1f7655efc2fa43f7eb574fd1 -->
<g id="edge3" class="edge">
<title>dir_c2b6093c60a2fb3a138db873526a37cf&#45;&gt;dir_6719ab1f1f7655efc2fa43f7eb574fd1</title>
<path fill="none" stroke="#000000" d="M97.8195,-143.7996C101.3281,-133.4645 105.2317,-120.1925 107,-108 110.3171,-85.1282 109.6813,-78.955 107,-56 106.6146,-52.7004 106.047,-49.2717 105.3811,-45.8843"/>
<polygon fill="#000000" stroke="#000000" points="108.7721,-45.01 103.1722,-36.016 101.9411,-46.5391 108.7721,-45.01"/>
<g id="a_edge3&#45;headlabel"><a xlink:href="dir_000006_000019.html" target="_top" xlink:title="1">
<text text-anchor="middle" x="112.3279" y="-45.3976" font-family="Helvetica,sans-Serif" font-size="10.00" fill="#000000">1</text>
</a>
</g>
</g>
</g>
</svg>
