<?xml version="1.0" encoding="UTF-8" standalone="no"?>
<!DOCTYPE svg PUBLIC "-//W3C//DTD SVG 1.1//EN"
 "http://www.w3.org/Graphics/SVG/1.1/DTD/svg11.dtd">
<!-- Generated by graphviz version 2.40.1 (20161225.0304)
 -->
<!-- Title: hw2_ip_filter/src/RequiredOutputsModule Pages: 1 -->
<svg width="174pt" height="223pt"
 viewBox="0.00 0.00 174.00 223.00" xmlns="http://www.w3.org/2000/svg" xmlns:xlink="http://www.w3.org/1999/xlink">
<g id="graph0" class="graph" transform="scale(1 1) rotate(0) translate(4 219)">
<title>hw2_ip_filter/src/RequiredOutputsModule</title>
<polygon fill="#ffffff" stroke="transparent" points="-4,4 -4,-219 170,-219 170,4 -4,4"/>
<g id="clust1" class="cluster">
<title>clusterdir_c6ade7757b3f9f32d06f3c22a64259fd</title>
<g id="a_clust1"><a xlink:href="dir_c6ade7757b3f9f32d06f3c22a64259fd.html" target="_top" xlink:title="src">
<polygon fill="#ddddee" stroke="#000000" points="8,-136 8,-207 158,-207 158,-136 8,-136"/>
<text text-anchor="middle" x="83" y="-195" font-family="Helvetica,sans-Serif" font-size="10.00" fill="#000000">src</text>
</a>
</g>
</g>
<!-- dir_38f1822f7dd3dc4c7b9a5eabbcf475ff -->
<g id="node1" class="node">
<title>dir_38f1822f7dd3dc4c7b9a5eabbcf475ff</title>
<g id="a_node1"><a xlink:href="dir_38f1822f7dd3dc4c7b9a5eabbcf475ff.html" target="_top" xlink:title="RequiredOutputsModule">
<polygon fill="#eeeeff" stroke="#000000" points="149.5,-180 16.5,-180 16.5,-144 149.5,-144 149.5,-180"/>
<text text-anchor="middle" x="83" y="-159.5" font-family="Helvetica,sans-Serif" font-size="10.00" fill="#000000">RequiredOutputsModule</text>
</a>
</g>
</g>
<!-- dir_6719ab1f1f7655efc2fa43f7eb574fd1 -->
<g id="node2" class="node">
<title>dir_6719ab1f1f7655efc2fa43f7eb574fd1</title>
<g id="a_node2"><a xlink:href="dir_6719ab1f1f7655efc2fa43f7eb574fd1.html" target="_top" xlink:title="libs">
<polygon fill="#ffffff" stroke="#ff0000" points="109,-36 55,-36 55,0 109,0 109,-36"/>
<text text-anchor="middle" x="82" y="-15.5" font-family="Helvetica,sans-Serif" font-size="10.00" fill="#000000">libs</text>
</a>
</g>
</g>
<!-- dir_38f1822f7dd3dc4c7b9a5eabbcf475ff&#45;&gt;dir_6719ab1f1f7655efc2fa43f7eb574fd1 -->
<g id="edge1" class="edge">
<title>dir_38f1822f7dd3dc4c7b9a5eabbcf475ff&#45;&gt;dir_6719ab1f1f7655efc2fa43f7eb574fd1</title>
<path fill="none" stroke="#000000" d="M79.1587,-143.6001C77.1834,-133.2025 74.9877,-119.9346 74,-108 72.6803,-92.0545 72.8244,-87.9568 74,-72 74.6169,-63.6264 75.7649,-54.5812 77.0026,-46.3322"/>
<polygon fill="#000000" stroke="#000000" points="80.4648,-46.8463 78.585,-36.4196 73.5523,-45.7428 80.4648,-46.8463"/>
<g id="a_edge1&#45;headlabel"><a xlink:href="dir_000010_000022.html" target="_top" xlink:title="1">
<text text-anchor="middle" x="82.702" y="-48.3436" font-family="Helvetica,sans-Serif" font-size="10.00" fill="#000000">1</text>
</a>
</g>
</g>
<!-- dir_71a34aeee79cb3872634700e2164c9b6 -->
<g id="node3" class="node">
<title>dir_71a34aeee79cb3872634700e2164c9b6</title>
<g id="a_node3"><a xlink:href="dir_71a34aeee79cb3872634700e2164c9b6.html" target="_top" xlink:title="IpFilter">
<polygon fill="none" stroke="#000000" points="137,-108 83,-108 83,-72 137,-72 137,-108"/>
<text text-anchor="middle" x="110" y="-87.5" font-family="Helvetica,sans-Serif" font-size="10.00" fill="#000000">IpFilter</text>
</a>
</g>
</g>
<!-- dir_38f1822f7dd3dc4c7b9a5eabbcf475ff&#45;&gt;dir_71a34aeee79cb3872634700e2164c9b6 -->
<g id="edge2" class="edge">
<title>dir_38f1822f7dd3dc4c7b9a5eabbcf475ff&#45;&gt;dir_71a34aeee79cb3872634700e2164c9b6</title>
<path fill="none" stroke="#000000" d="M89.8132,-143.8314C92.7644,-135.9617 96.2858,-126.5712 99.555,-117.8533"/>
<polygon fill="#000000" stroke="#000000" points="102.8609,-119.0055 103.095,-108.4133 96.3066,-116.5476 102.8609,-119.0055"/>
<g id="a_edge2&#45;headlabel"><a xlink:href="dir_000010_000014.html" target="_top" xlink:title="3">
<text text-anchor="middle" x="104.2573" y="-120.8682" font-family="Helvetica,sans-Serif" font-size="10.00" fill="#000000">3</text>
</a>
</g>
</g>
<!-- dir_71a34aeee79cb3872634700e2164c9b6&#45;&gt;dir_6719ab1f1f7655efc2fa43f7eb574fd1 -->
<g id="edge3" class="edge">
<title>dir_71a34aeee79cb3872634700e2164c9b6&#45;&gt;dir_6719ab1f1f7655efc2fa43f7eb574fd1</title>
<path fill="none" stroke="#000000" d="M102.9344,-71.8314C99.874,-63.9617 96.2221,-54.5712 92.8318,-45.8533"/>
<polygon fill="#000000" stroke="#000000" points="96.0473,-44.4647 89.1607,-36.4133 89.5232,-47.0019 96.0473,-44.4647"/>
<g id="a_edge3&#45;headlabel"><a xlink:href="dir_000014_000022.html" target="_top" xlink:title="3">
<text text-anchor="middle" x="99.9963" y="-44.2859" font-family="Helvetica,sans-Serif" font-size="10.00" fill="#000000">3</text>
</a>
</g>
</g>
</g>
</svg>
