<?xml version="1.0" encoding="UTF-8" standalone="no"?>
<!DOCTYPE svg PUBLIC "-//W3C//DTD SVG 1.1//EN"
 "http://www.w3.org/Graphics/SVG/1.1/DTD/svg11.dtd">
<!-- Generated by graphviz version 2.40.1 (20161225.0304)
 -->
<!-- Title: hw3_print_ip/PrintIp Pages: 1 -->
<svg width="103pt" height="151pt"
 viewBox="0.00 0.00 103.00 151.00" xmlns="http://www.w3.org/2000/svg" xmlns:xlink="http://www.w3.org/1999/xlink">
<g id="graph0" class="graph" transform="scale(1 1) rotate(0) translate(4 147)">
<title>hw3_print_ip/PrintIp</title>
<polygon fill="#ffffff" stroke="transparent" points="-4,4 -4,-147 99,-147 99,4 -4,4"/>
<g id="clust1" class="cluster">
<title>clusterdir_d9aa6542464adc47b61d316a07c77d06</title>
<g id="a_clust1"><a xlink:href="dir_d9aa6542464adc47b61d316a07c77d06.html" target="_top" xlink:title="hw3_print_ip">
<polygon fill="#ddddee" stroke="#000000" points="8,-64 8,-135 87,-135 87,-64 8,-64"/>
<text text-anchor="middle" x="47.5" y="-123" font-family="Helvetica,sans-Serif" font-size="10.00" fill="#000000">hw3_print_ip</text>
</a>
</g>
</g>
<!-- dir_6eaf97ea0aa2dac808099a126946341b -->
<g id="node1" class="node">
<title>dir_6eaf97ea0aa2dac808099a126946341b</title>
<g id="a_node1"><a xlink:href="dir_6eaf97ea0aa2dac808099a126946341b.html" target="_top" xlink:title="PrintIp">
<polygon fill="#eeeeff" stroke="#000000" points="74,-108 20,-108 20,-72 74,-72 74,-108"/>
<text text-anchor="middle" x="47" y="-87.5" font-family="Helvetica,sans-Serif" font-size="10.00" fill="#000000">PrintIp</text>
</a>
</g>
</g>
<!-- dir_6719ab1f1f7655efc2fa43f7eb574fd1 -->
<g id="node2" class="node">
<title>dir_6719ab1f1f7655efc2fa43f7eb574fd1</title>
<g id="a_node2"><a xlink:href="dir_6719ab1f1f7655efc2fa43f7eb574fd1.html" target="_top" xlink:title="libs">
<polygon fill="#ffffff" stroke="#ff0000" points="74,-36 20,-36 20,0 74,0 74,-36"/>
<text text-anchor="middle" x="47" y="-15.5" font-family="Helvetica,sans-Serif" font-size="10.00" fill="#000000">libs</text>
</a>
</g>
</g>
<!-- dir_6eaf97ea0aa2dac808099a126946341b&#45;&gt;dir_6719ab1f1f7655efc2fa43f7eb574fd1 -->
<g id="edge1" class="edge">
<title>dir_6eaf97ea0aa2dac808099a126946341b&#45;&gt;dir_6719ab1f1f7655efc2fa43f7eb574fd1</title>
<path fill="none" stroke="#000000" d="M47,-71.8314C47,-64.131 47,-54.9743 47,-46.4166"/>
<polygon fill="#000000" stroke="#000000" points="50.5001,-46.4132 47,-36.4133 43.5001,-46.4133 50.5001,-46.4132"/>
<g id="a_edge1&#45;headlabel"><a xlink:href="dir_000013_000016.html" target="_top" xlink:title="1">
<text text-anchor="middle" x="53.3393" y="-47.5079" font-family="Helvetica,sans-Serif" font-size="10.00" fill="#000000">1</text>
</a>
</g>
</g>
</g>
</svg>
