<?xml version="1.0" encoding="UTF-8" standalone="no"?>
<!DOCTYPE svg PUBLIC "-//W3C//DTD SVG 1.1//EN"
 "http://www.w3.org/Graphics/SVG/1.1/DTD/svg11.dtd">
<!-- Generated by graphviz version 2.40.1 (20161225.0304)
 -->
<!-- Title: hw1_cicd/tests/GoogleTests Pages: 1 -->
<svg width="116pt" height="151pt"
 viewBox="0.00 0.00 116.00 151.00" xmlns="http://www.w3.org/2000/svg" xmlns:xlink="http://www.w3.org/1999/xlink">
<g id="graph0" class="graph" transform="scale(1 1) rotate(0) translate(4 147)">
<title>hw1_cicd/tests/GoogleTests</title>
<polygon fill="#ffffff" stroke="transparent" points="-4,4 -4,-147 112,-147 112,4 -4,4"/>
<g id="clust1" class="cluster">
<title>clusterdir_3a9fe4f552aa1ca4fb49e1bb36c95bd2</title>
<g id="a_clust1"><a xlink:href="dir_3a9fe4f552aa1ca4fb49e1bb36c95bd2.html" target="_top" xlink:title="tests">
<polygon fill="#ddddee" stroke="#000000" points="8,-64 8,-135 100,-135 100,-64 8,-64"/>
<text text-anchor="middle" x="54" y="-123" font-family="Helvetica,sans-Serif" font-size="10.00" fill="#000000">tests</text>
</a>
</g>
</g>
<!-- dir_dde9f18f5ed3c89df1eac8d899157d26 -->
<g id="node1" class="node">
<title>dir_dde9f18f5ed3c89df1eac8d899157d26</title>
<g id="a_node1"><a xlink:href="dir_dde9f18f5ed3c89df1eac8d899157d26.html" target="_top" xlink:title="GoogleTests">
<polygon fill="#eeeeff" stroke="#000000" points="92,-108 16,-108 16,-72 92,-72 92,-108"/>
<text text-anchor="middle" x="54" y="-87.5" font-family="Helvetica,sans-Serif" font-size="10.00" fill="#000000">GoogleTests</text>
</a>
</g>
</g>
<!-- dir_526bea64bc7da40ce97067456d3137ec -->
<g id="node2" class="node">
<title>dir_526bea64bc7da40ce97067456d3137ec</title>
<g id="a_node2"><a xlink:href="dir_526bea64bc7da40ce97067456d3137ec.html" target="_top" xlink:title="lib">
<polygon fill="none" stroke="#000000" points="81,-36 27,-36 27,0 81,0 81,-36"/>
<text text-anchor="middle" x="54" y="-15.5" font-family="Helvetica,sans-Serif" font-size="10.00" fill="#000000">lib</text>
</a>
</g>
</g>
<!-- dir_dde9f18f5ed3c89df1eac8d899157d26&#45;&gt;dir_526bea64bc7da40ce97067456d3137ec -->
<g id="edge1" class="edge">
<title>dir_dde9f18f5ed3c89df1eac8d899157d26&#45;&gt;dir_526bea64bc7da40ce97067456d3137ec</title>
<path fill="none" stroke="#000000" d="M54,-71.8314C54,-64.131 54,-54.9743 54,-46.4166"/>
<polygon fill="#000000" stroke="#000000" points="57.5001,-46.4132 54,-36.4133 50.5001,-46.4133 57.5001,-46.4132"/>
<g id="a_edge1&#45;headlabel"><a xlink:href="dir_000009_000001.html" target="_top" xlink:title="1">
<text text-anchor="middle" x="60.3393" y="-47.5079" font-family="Helvetica,sans-Serif" font-size="10.00" fill="#000000">1</text>
</a>
</g>
</g>
</g>
</svg>
