<?xml version="1.0" encoding="UTF-8" standalone="no"?>
<!DOCTYPE svg PUBLIC "-//W3C//DTD SVG 1.1//EN"
 "http://www.w3.org/Graphics/SVG/1.1/DTD/svg11.dtd">
<!-- Generated by graphviz version 2.40.1 (20161225.0304)
 -->
<!-- Title: hw1_ip_filter/src/RequiredOutputsModule Pages: 1 -->
<svg width="174pt" height="223pt"
 viewBox="0.00 0.00 174.00 223.00" xmlns="http://www.w3.org/2000/svg" xmlns:xlink="http://www.w3.org/1999/xlink">
<g id="graph0" class="graph" transform="scale(1 1) rotate(0) translate(4 219)">
<title>hw1_ip_filter/src/RequiredOutputsModule</title>
<polygon fill="#ffffff" stroke="transparent" points="-4,4 -4,-219 170,-219 170,4 -4,4"/>
<g id="clust1" class="cluster">
<title>clusterdir_8baa6d4c66897a606bd154524eb9720b</title>
<g id="a_clust1"><a xlink:href="dir_8baa6d4c66897a606bd154524eb9720b.html" target="_top" xlink:title="src">
<polygon fill="#ddddee" stroke="#000000" points="8,-136 8,-207 158,-207 158,-136 8,-136"/>
<text text-anchor="middle" x="83" y="-195" font-family="Helvetica,sans-Serif" font-size="10.00" fill="#000000">src</text>
</a>
</g>
</g>
<!-- dir_c2b6093c60a2fb3a138db873526a37cf -->
<g id="node1" class="node">
<title>dir_c2b6093c60a2fb3a138db873526a37cf</title>
<g id="a_node1"><a xlink:href="dir_c2b6093c60a2fb3a138db873526a37cf.html" target="_top" xlink:title="RequiredOutputsModule">
<polygon fill="#eeeeff" stroke="#000000" points="149.5,-180 16.5,-180 16.5,-144 149.5,-144 149.5,-180"/>
<text text-anchor="middle" x="83" y="-159.5" font-family="Helvetica,sans-Serif" font-size="10.00" fill="#000000">RequiredOutputsModule</text>
</a>
</g>
</g>
<!-- dir_645978e59c6890b6d7eb9ce2fded83cf -->
<g id="node2" class="node">
<title>dir_645978e59c6890b6d7eb9ce2fded83cf</title>
<g id="a_node2"><a xlink:href="dir_645978e59c6890b6d7eb9ce2fded83cf.html" target="_top" xlink:title="IpFilter">
<polygon fill="none" stroke="#000000" points="82,-108 28,-108 28,-72 82,-72 82,-108"/>
<text text-anchor="middle" x="55" y="-87.5" font-family="Helvetica,sans-Serif" font-size="10.00" fill="#000000">IpFilter</text>
</a>
</g>
</g>
<!-- dir_c2b6093c60a2fb3a138db873526a37cf&#45;&gt;dir_645978e59c6890b6d7eb9ce2fded83cf -->
<g id="edge2" class="edge">
<title>dir_c2b6093c60a2fb3a138db873526a37cf&#45;&gt;dir_645978e59c6890b6d7eb9ce2fded83cf</title>
<path fill="none" stroke="#000000" d="M75.9344,-143.8314C72.874,-135.9617 69.2221,-126.5712 65.8318,-117.8533"/>
<polygon fill="#000000" stroke="#000000" points="69.0473,-116.4647 62.1607,-108.4133 62.5232,-119.0019 69.0473,-116.4647"/>
<g id="a_edge2&#45;headlabel"><a xlink:href="dir_000006_000011.html" target="_top" xlink:title="3">
<text text-anchor="middle" x="72.9963" y="-116.2859" font-family="Helvetica,sans-Serif" font-size="10.00" fill="#000000">3</text>
</a>
</g>
</g>
<!-- dir_6719ab1f1f7655efc2fa43f7eb574fd1 -->
<g id="node3" class="node">
<title>dir_6719ab1f1f7655efc2fa43f7eb574fd1</title>
<g id="a_node3"><a xlink:href="dir_6719ab1f1f7655efc2fa43f7eb574fd1.html" target="_top" xlink:title="libs">
<polygon fill="#ffffff" stroke="#ff0000" points="109,-36 55,-36 55,0 109,0 109,-36"/>
<text text-anchor="middle" x="82" y="-15.5" font-family="Helvetica,sans-Serif" font-size="10.00" fill="#000000">libs</text>
</a>
</g>
</g>
<!-- dir_c2b6093c60a2fb3a138db873526a37cf&#45;&gt;dir_6719ab1f1f7655efc2fa43f7eb574fd1 -->
<g id="edge3" class="edge">
<title>dir_c2b6093c60a2fb3a138db873526a37cf&#45;&gt;dir_6719ab1f1f7655efc2fa43f7eb574fd1</title>
<path fill="none" stroke="#000000" d="M86.415,-143.5804C88.1709,-133.1767 90.1226,-119.9092 91,-108 92.1756,-92.0432 92.3197,-87.9455 91,-72 90.3055,-63.6085 89.0138,-54.5578 87.6214,-46.3092"/>
<polygon fill="#000000" stroke="#000000" points="91.0544,-45.6235 85.8413,-36.3999 84.1647,-46.8612 91.0544,-45.6235"/>
<g id="a_edge3&#45;headlabel"><a xlink:href="dir_000006_000019.html" target="_top" xlink:title="1">
<text text-anchor="middle" x="94.4844" y="-46.1595" font-family="Helvetica,sans-Serif" font-size="10.00" fill="#000000">1</text>
</a>
</g>
</g>
<!-- dir_645978e59c6890b6d7eb9ce2fded83cf&#45;&gt;dir_6719ab1f1f7655efc2fa43f7eb574fd1 -->
<g id="edge1" class="edge">
<title>dir_645978e59c6890b6d7eb9ce2fded83cf&#45;&gt;dir_6719ab1f1f7655efc2fa43f7eb574fd1</title>
<path fill="none" stroke="#000000" d="M61.8132,-71.8314C64.7644,-63.9617 68.2858,-54.5712 71.555,-45.8533"/>
<polygon fill="#000000" stroke="#000000" points="74.8609,-47.0055 75.095,-36.4133 68.3066,-44.5476 74.8609,-47.0055"/>
<g id="a_edge1&#45;headlabel"><a xlink:href="dir_000011_000019.html" target="_top" xlink:title="3">
<text text-anchor="middle" x="76.2573" y="-48.8682" font-family="Helvetica,sans-Serif" font-size="10.00" fill="#000000">3</text>
</a>
</g>
</g>
</g>
</svg>
