<?xml version="1.0" encoding="UTF-8" standalone="no"?>
<!DOCTYPE svg PUBLIC "-//W3C//DTD SVG 1.1//EN"
 "http://www.w3.org/Graphics/SVG/1.1/DTD/svg11.dtd">
<!-- Generated by graphviz version 2.40.1 (20161225.0304)
 -->
<!-- Title: hw3_print_ip Pages: 1 -->
<svg width="191pt" height="204pt"
 viewBox="0.00 0.00 191.00 204.00" xmlns="http://www.w3.org/2000/svg" xmlns:xlink="http://www.w3.org/1999/xlink">
<g id="graph0" class="graph" transform="scale(1 1) rotate(0) translate(4 200)">
<title>hw3_print_ip</title>
<polygon fill="#ffffff" stroke="transparent" points="-4,4 -4,-200 187,-200 187,4 -4,4"/>
<g id="clust1" class="cluster">
<title>clusterdir_d9aa6542464adc47b61d316a07c77d06</title>
<g id="a_clust1"><a xlink:href="dir_d9aa6542464adc47b61d316a07c77d06.html" target="_top">
<polygon fill="#eeeeff" stroke="#000000" points="8,-64 8,-188 175,-188 175,-64 8,-64"/>
</a>
</g>
</g>
<!-- dir_d9aa6542464adc47b61d316a07c77d06 -->
<g id="node1" class="node">
<title>dir_d9aa6542464adc47b61d316a07c77d06</title>
<text text-anchor="middle" x="128" y="-159.5" font-family="Helvetica,sans-Serif" font-size="10.00" fill="#000000">hw3_print_ip</text>
</g>
<!-- dir_37bbd2bd6271289faedd3e82c471da1e -->
<g id="node2" class="node">
<title>dir_37bbd2bd6271289faedd3e82c471da1e</title>
<g id="a_node2"><a xlink:href="dir_37bbd2bd6271289faedd3e82c471da1e.html" target="_top" xlink:title="src">
<polygon fill="#ffffff" stroke="#ff0000" points="70,-108 16,-108 16,-72 70,-72 70,-108"/>
<text text-anchor="middle" x="43" y="-87.5" font-family="Helvetica,sans-Serif" font-size="10.00" fill="#000000">src</text>
</a>
</g>
</g>
<!-- dir_6719ab1f1f7655efc2fa43f7eb574fd1 -->
<g id="node4" class="node">
<title>dir_6719ab1f1f7655efc2fa43f7eb574fd1</title>
<g id="a_node4"><a xlink:href="dir_6719ab1f1f7655efc2fa43f7eb574fd1.html" target="_top" xlink:title="libs">
<polygon fill="#ffffff" stroke="#ff0000" points="70,-36 16,-36 16,0 70,0 70,-36"/>
<text text-anchor="middle" x="43" y="-15.5" font-family="Helvetica,sans-Serif" font-size="10.00" fill="#000000">libs</text>
</a>
</g>
</g>
<!-- dir_37bbd2bd6271289faedd3e82c471da1e&#45;&gt;dir_6719ab1f1f7655efc2fa43f7eb574fd1 -->
<g id="edge1" class="edge">
<title>dir_37bbd2bd6271289faedd3e82c471da1e&#45;&gt;dir_6719ab1f1f7655efc2fa43f7eb574fd1</title>
<path fill="none" stroke="#000000" d="M43,-71.8314C43,-64.131 43,-54.9743 43,-46.4166"/>
<polygon fill="#000000" stroke="#000000" points="46.5001,-46.4132 43,-36.4133 39.5001,-46.4133 46.5001,-46.4132"/>
<g id="a_edge1&#45;headlabel"><a xlink:href="dir_000013_000018.html" target="_top" xlink:title="1">
<text text-anchor="middle" x="49.3393" y="-47.5079" font-family="Helvetica,sans-Serif" font-size="10.00" fill="#000000">1</text>
</a>
</g>
</g>
<!-- dir_7dd16b4afaf87e8033a965a652551c2c -->
<g id="node3" class="node">
<title>dir_7dd16b4afaf87e8033a965a652551c2c</title>
<g id="a_node3"><a xlink:href="dir_7dd16b4afaf87e8033a965a652551c2c.html" target="_top" xlink:title="tests">
<polygon fill="#ffffff" stroke="#ff0000" points="70,-180 16,-180 16,-144 70,-144 70,-180"/>
<text text-anchor="middle" x="43" y="-159.5" font-family="Helvetica,sans-Serif" font-size="10.00" fill="#000000">tests</text>
</a>
</g>
</g>
<!-- dir_7dd16b4afaf87e8033a965a652551c2c&#45;&gt;dir_37bbd2bd6271289faedd3e82c471da1e -->
<g id="edge2" class="edge">
<title>dir_7dd16b4afaf87e8033a965a652551c2c&#45;&gt;dir_37bbd2bd6271289faedd3e82c471da1e</title>
<path fill="none" stroke="#000000" d="M43,-143.8314C43,-136.131 43,-126.9743 43,-118.4166"/>
<polygon fill="#000000" stroke="#000000" points="46.5001,-118.4132 43,-108.4133 39.5001,-118.4133 46.5001,-118.4132"/>
<g id="a_edge2&#45;headlabel"><a xlink:href="dir_000016_000013.html" target="_top" xlink:title="1">
<text text-anchor="middle" x="49.3393" y="-119.5079" font-family="Helvetica,sans-Serif" font-size="10.00" fill="#000000">1</text>
</a>
</g>
</g>
</g>
</svg>
