<?xml version="1.0" encoding="UTF-8" standalone="no"?>
<!DOCTYPE svg PUBLIC "-//W3C//DTD SVG 1.1//EN"
 "http://www.w3.org/Graphics/SVG/1.1/DTD/svg11.dtd">
<!-- Generated by graphviz version 2.40.1 (20161225.0304)
 -->
<!-- Title: hw3_print_ip Pages: 1 -->
<svg width="319pt" height="204pt"
 viewBox="0.00 0.00 319.00 204.00" xmlns="http://www.w3.org/2000/svg" xmlns:xlink="http://www.w3.org/1999/xlink">
<g id="graph0" class="graph" transform="scale(1 1) rotate(0) translate(4 200)">
<title>hw3_print_ip</title>
<polygon fill="#ffffff" stroke="transparent" points="-4,4 -4,-200 315,-200 315,4 -4,4"/>
<g id="clust1" class="cluster">
<title>clusterdir_d9aa6542464adc47b61d316a07c77d06</title>
<g id="a_clust1"><a xlink:href="dir_d9aa6542464adc47b61d316a07c77d06.html" target="_top">
<polygon fill="#eeeeff" stroke="#000000" points="8,-64 8,-188 303,-188 303,-64 8,-64"/>
</a>
</g>
</g>
<!-- dir_d9aa6542464adc47b61d316a07c77d06 -->
<g id="node1" class="node">
<title>dir_d9aa6542464adc47b61d316a07c77d06</title>
<text text-anchor="middle" x="256" y="-159.5" font-family="Helvetica,sans-Serif" font-size="10.00" fill="#000000">hw3_print_ip</text>
</g>
<!-- dir_6eaf97ea0aa2dac808099a126946341b -->
<g id="node2" class="node">
<title>dir_6eaf97ea0aa2dac808099a126946341b</title>
<g id="a_node2"><a xlink:href="dir_6eaf97ea0aa2dac808099a126946341b.html" target="_top" xlink:title="PrintIp">
<polygon fill="#ffffff" stroke="#000000" points="130,-108 76,-108 76,-72 130,-72 130,-108"/>
<text text-anchor="middle" x="103" y="-87.5" font-family="Helvetica,sans-Serif" font-size="10.00" fill="#000000">PrintIp</text>
</a>
</g>
</g>
<!-- dir_6719ab1f1f7655efc2fa43f7eb574fd1 -->
<g id="node5" class="node">
<title>dir_6719ab1f1f7655efc2fa43f7eb574fd1</title>
<g id="a_node5"><a xlink:href="dir_6719ab1f1f7655efc2fa43f7eb574fd1.html" target="_top" xlink:title="libs">
<polygon fill="#ffffff" stroke="#ff0000" points="130,-36 76,-36 76,0 130,0 130,-36"/>
<text text-anchor="middle" x="103" y="-15.5" font-family="Helvetica,sans-Serif" font-size="10.00" fill="#000000">libs</text>
</a>
</g>
</g>
<!-- dir_6eaf97ea0aa2dac808099a126946341b&#45;&gt;dir_6719ab1f1f7655efc2fa43f7eb574fd1 -->
<g id="edge1" class="edge">
<title>dir_6eaf97ea0aa2dac808099a126946341b&#45;&gt;dir_6719ab1f1f7655efc2fa43f7eb574fd1</title>
<path fill="none" stroke="#000000" d="M103,-71.8314C103,-64.131 103,-54.9743 103,-46.4166"/>
<polygon fill="#000000" stroke="#000000" points="106.5001,-46.4132 103,-36.4133 99.5001,-46.4133 106.5001,-46.4132"/>
<g id="a_edge1&#45;headlabel"><a xlink:href="dir_000013_000016.html" target="_top" xlink:title="1">
<text text-anchor="middle" x="109.3393" y="-47.5079" font-family="Helvetica,sans-Serif" font-size="10.00" fill="#000000">1</text>
</a>
</g>
</g>
<!-- dir_2ad9965eae92423e2597b0e484663b4a -->
<g id="node3" class="node">
<title>dir_2ad9965eae92423e2597b0e484663b4a</title>
<g id="a_node3"><a xlink:href="dir_2ad9965eae92423e2597b0e484663b4a.html" target="_top" xlink:title="PrintIpExample">
<polygon fill="#ffffff" stroke="#000000" points="198.5,-180 107.5,-180 107.5,-144 198.5,-144 198.5,-180"/>
<text text-anchor="middle" x="153" y="-159.5" font-family="Helvetica,sans-Serif" font-size="10.00" fill="#000000">PrintIpExample</text>
</a>
</g>
</g>
<!-- dir_2ad9965eae92423e2597b0e484663b4a&#45;&gt;dir_6eaf97ea0aa2dac808099a126946341b -->
<g id="edge3" class="edge">
<title>dir_2ad9965eae92423e2597b0e484663b4a&#45;&gt;dir_6eaf97ea0aa2dac808099a126946341b</title>
<path fill="none" stroke="#000000" d="M140.3829,-143.8314C134.6828,-135.6232 127.8337,-125.7606 121.5641,-116.7323"/>
<polygon fill="#000000" stroke="#000000" points="124.3658,-114.6306 115.787,-108.4133 118.6162,-118.6234 124.3658,-114.6306"/>
<g id="a_edge3&#45;headlabel"><a xlink:href="dir_000014_000013.html" target="_top" xlink:title="1">
<text text-anchor="middle" x="128.7482" y="-113.4636" font-family="Helvetica,sans-Serif" font-size="10.00" fill="#000000">1</text>
</a>
</g>
</g>
<!-- dir_ed04b6a9a47cc045c0bc75586674c78e -->
<g id="node4" class="node">
<title>dir_ed04b6a9a47cc045c0bc75586674c78e</title>
<g id="a_node4"><a xlink:href="dir_ed04b6a9a47cc045c0bc75586674c78e.html" target="_top" xlink:title="PrintIpTests">
<polygon fill="#ffffff" stroke="#000000" points="89.5,-180 16.5,-180 16.5,-144 89.5,-144 89.5,-180"/>
<text text-anchor="middle" x="53" y="-159.5" font-family="Helvetica,sans-Serif" font-size="10.00" fill="#000000">PrintIpTests</text>
</a>
</g>
</g>
<!-- dir_ed04b6a9a47cc045c0bc75586674c78e&#45;&gt;dir_6eaf97ea0aa2dac808099a126946341b -->
<g id="edge2" class="edge">
<title>dir_ed04b6a9a47cc045c0bc75586674c78e&#45;&gt;dir_6eaf97ea0aa2dac808099a126946341b</title>
<path fill="none" stroke="#000000" d="M65.6171,-143.8314C71.3172,-135.6232 78.1663,-125.7606 84.4359,-116.7323"/>
<polygon fill="#000000" stroke="#000000" points="87.3838,-118.6234 90.213,-108.4133 81.6342,-114.6306 87.3838,-118.6234"/>
<g id="a_edge2&#45;headlabel"><a xlink:href="dir_000015_000013.html" target="_top" xlink:title="1">
<text text-anchor="middle" x="87.6656" y="-120.6954" font-family="Helvetica,sans-Serif" font-size="10.00" fill="#000000">1</text>
</a>
</g>
</g>
</g>
</svg>
