<?xml version="1.0" encoding="UTF-8" standalone="no"?>
<!DOCTYPE svg PUBLIC "-//W3C//DTD SVG 1.1//EN"
 "http://www.w3.org/Graphics/SVG/1.1/DTD/svg11.dtd">
<!-- Generated by graphviz version 2.40.1 (20161225.0304)
 -->
<!-- Title: hw0_cicd Pages: 1 -->
<svg width="246pt" height="148pt"
 viewBox="0.00 0.00 246.00 148.00" xmlns="http://www.w3.org/2000/svg" xmlns:xlink="http://www.w3.org/1999/xlink">
<g id="graph0" class="graph" transform="scale(1 1) rotate(0) translate(4 144)">
<title>hw0_cicd</title>
<polygon fill="#ffffff" stroke="transparent" points="-4,4 -4,-144 242,-144 242,4 -4,4"/>
<g id="clust1" class="cluster">
<title>clusterdir_9b7cbf98fb2f78ee23e65d99a83ca78a</title>
<g id="a_clust1"><a xlink:href="dir_9b7cbf98fb2f78ee23e65d99a83ca78a.html" target="_top">
<polygon fill="#eeeeff" stroke="#000000" points="8,-8 8,-132 230,-132 230,-8 8,-8"/>
</a>
</g>
</g>
<!-- dir_9b7cbf98fb2f78ee23e65d99a83ca78a -->
<g id="node1" class="node">
<title>dir_9b7cbf98fb2f78ee23e65d99a83ca78a</title>
<text text-anchor="middle" x="191" y="-103.5" font-family="Helvetica,sans-Serif" font-size="10.00" fill="#000000">hw0_cicd</text>
</g>
<!-- dir_a2454336ec66606f82b563e82409b198 -->
<g id="node2" class="node">
<title>dir_a2454336ec66606f82b563e82409b198</title>
<g id="a_node2"><a xlink:href="dir_a2454336ec66606f82b563e82409b198.html" target="_top" xlink:title="lib">
<polygon fill="#ffffff" stroke="#000000" points="106,-52 52,-52 52,-16 106,-16 106,-52"/>
<text text-anchor="middle" x="79" y="-31.5" font-family="Helvetica,sans-Serif" font-size="10.00" fill="#000000">lib</text>
</a>
</g>
</g>
<!-- dir_c4b3b6432801df35c009f1080a360046 -->
<g id="node3" class="node">
<title>dir_c4b3b6432801df35c009f1080a360046</title>
<g id="a_node3"><a xlink:href="dir_c4b3b6432801df35c009f1080a360046.html" target="_top" xlink:title="src">
<polygon fill="#ffffff" stroke="#000000" points="142,-124 88,-124 88,-88 142,-88 142,-124"/>
<text text-anchor="middle" x="115" y="-103.5" font-family="Helvetica,sans-Serif" font-size="10.00" fill="#000000">src</text>
</a>
</g>
</g>
<!-- dir_c4b3b6432801df35c009f1080a360046&#45;&gt;dir_a2454336ec66606f82b563e82409b198 -->
<g id="edge1" class="edge">
<title>dir_c4b3b6432801df35c009f1080a360046&#45;&gt;dir_a2454336ec66606f82b563e82409b198</title>
<path fill="none" stroke="#000000" d="M105.9157,-87.8314C101.9385,-79.8771 97.1845,-70.369 92.7861,-61.5723"/>
<polygon fill="#000000" stroke="#000000" points="95.8093,-59.7923 88.2066,-52.4133 89.5483,-62.9228 95.8093,-59.7923"/>
<g id="a_edge1&#45;headlabel"><a xlink:href="dir_000004_000001.html" target="_top" xlink:title="1">
<text text-anchor="middle" x="99.9563" y="-59.2377" font-family="Helvetica,sans-Serif" font-size="10.00" fill="#000000">1</text>
</a>
</g>
</g>
<!-- dir_9eba83e43d6e40ac9c316f1b64f78fc0 -->
<g id="node4" class="node">
<title>dir_9eba83e43d6e40ac9c316f1b64f78fc0</title>
<g id="a_node4"><a xlink:href="dir_9eba83e43d6e40ac9c316f1b64f78fc0.html" target="_top" xlink:title="tests">
<polygon fill="#ffffff" stroke="#ff0000" points="70,-124 16,-124 16,-88 70,-88 70,-124"/>
<text text-anchor="middle" x="43" y="-103.5" font-family="Helvetica,sans-Serif" font-size="10.00" fill="#000000">tests</text>
</a>
</g>
</g>
<!-- dir_9eba83e43d6e40ac9c316f1b64f78fc0&#45;&gt;dir_a2454336ec66606f82b563e82409b198 -->
<g id="edge2" class="edge">
<title>dir_9eba83e43d6e40ac9c316f1b64f78fc0&#45;&gt;dir_a2454336ec66606f82b563e82409b198</title>
<path fill="none" stroke="#000000" d="M52.0843,-87.8314C56.0615,-79.8771 60.8155,-70.369 65.2139,-61.5723"/>
<polygon fill="#000000" stroke="#000000" points="68.4517,-62.9228 69.7934,-52.4133 62.1907,-59.7923 68.4517,-62.9228"/>
<g id="a_edge2&#45;headlabel"><a xlink:href="dir_000009_000001.html" target="_top" xlink:title="2">
<text text-anchor="middle" x="69.3837" y="-64.9077" font-family="Helvetica,sans-Serif" font-size="10.00" fill="#000000">2</text>
</a>
</g>
</g>
</g>
</svg>
