<?xml version="1.0" encoding="UTF-8" standalone="no"?>
<!DOCTYPE svg PUBLIC "-//W3C//DTD SVG 1.1//EN"
 "http://www.w3.org/Graphics/SVG/1.1/DTD/svg11.dtd">
<!-- Generated by graphviz version 2.40.1 (20161225.0304)
 -->
<!-- Title: hw1_cicd Pages: 1 -->
<svg width="246pt" height="148pt"
 viewBox="0.00 0.00 246.00 148.00" xmlns="http://www.w3.org/2000/svg" xmlns:xlink="http://www.w3.org/1999/xlink">
<g id="graph0" class="graph" transform="scale(1 1) rotate(0) translate(4 144)">
<title>hw1_cicd</title>
<polygon fill="#ffffff" stroke="transparent" points="-4,4 -4,-144 242,-144 242,4 -4,4"/>
<g id="clust1" class="cluster">
<title>clusterdir_7057357b5b8b6be0b4f92f2303e2a839</title>
<g id="a_clust1"><a xlink:href="dir_7057357b5b8b6be0b4f92f2303e2a839.html" target="_top">
<polygon fill="#eeeeff" stroke="#000000" points="8,-8 8,-132 230,-132 230,-8 8,-8"/>
</a>
</g>
</g>
<!-- dir_7057357b5b8b6be0b4f92f2303e2a839 -->
<g id="node1" class="node">
<title>dir_7057357b5b8b6be0b4f92f2303e2a839</title>
<text text-anchor="middle" x="191" y="-103.5" font-family="Helvetica,sans-Serif" font-size="10.00" fill="#000000">hw1_cicd</text>
</g>
<!-- dir_526bea64bc7da40ce97067456d3137ec -->
<g id="node2" class="node">
<title>dir_526bea64bc7da40ce97067456d3137ec</title>
<g id="a_node2"><a xlink:href="dir_526bea64bc7da40ce97067456d3137ec.html" target="_top" xlink:title="lib">
<polygon fill="#ffffff" stroke="#000000" points="106,-52 52,-52 52,-16 106,-16 106,-52"/>
<text text-anchor="middle" x="79" y="-31.5" font-family="Helvetica,sans-Serif" font-size="10.00" fill="#000000">lib</text>
</a>
</g>
</g>
<!-- dir_1194e9c2583559352c86203637d0946f -->
<g id="node3" class="node">
<title>dir_1194e9c2583559352c86203637d0946f</title>
<g id="a_node3"><a xlink:href="dir_1194e9c2583559352c86203637d0946f.html" target="_top" xlink:title="src">
<polygon fill="#ffffff" stroke="#000000" points="142,-124 88,-124 88,-88 142,-88 142,-124"/>
<text text-anchor="middle" x="115" y="-103.5" font-family="Helvetica,sans-Serif" font-size="10.00" fill="#000000">src</text>
</a>
</g>
</g>
<!-- dir_1194e9c2583559352c86203637d0946f&#45;&gt;dir_526bea64bc7da40ce97067456d3137ec -->
<g id="edge1" class="edge">
<title>dir_1194e9c2583559352c86203637d0946f&#45;&gt;dir_526bea64bc7da40ce97067456d3137ec</title>
<path fill="none" stroke="#000000" d="M105.9157,-87.8314C101.9385,-79.8771 97.1845,-70.369 92.7861,-61.5723"/>
<polygon fill="#000000" stroke="#000000" points="95.8093,-59.7923 88.2066,-52.4133 89.5483,-62.9228 95.8093,-59.7923"/>
<g id="a_edge1&#45;headlabel"><a xlink:href="dir_000008_000005.html" target="_top" xlink:title="1">
<text text-anchor="middle" x="99.9563" y="-59.2377" font-family="Helvetica,sans-Serif" font-size="10.00" fill="#000000">1</text>
</a>
</g>
</g>
<!-- dir_3a9fe4f552aa1ca4fb49e1bb36c95bd2 -->
<g id="node4" class="node">
<title>dir_3a9fe4f552aa1ca4fb49e1bb36c95bd2</title>
<g id="a_node4"><a xlink:href="dir_3a9fe4f552aa1ca4fb49e1bb36c95bd2.html" target="_top" xlink:title="tests">
<polygon fill="#ffffff" stroke="#ff0000" points="70,-124 16,-124 16,-88 70,-88 70,-124"/>
<text text-anchor="middle" x="43" y="-103.5" font-family="Helvetica,sans-Serif" font-size="10.00" fill="#000000">tests</text>
</a>
</g>
</g>
<!-- dir_3a9fe4f552aa1ca4fb49e1bb36c95bd2&#45;&gt;dir_526bea64bc7da40ce97067456d3137ec -->
<g id="edge2" class="edge">
<title>dir_3a9fe4f552aa1ca4fb49e1bb36c95bd2&#45;&gt;dir_526bea64bc7da40ce97067456d3137ec</title>
<path fill="none" stroke="#000000" d="M52.0843,-87.8314C56.0615,-79.8771 60.8155,-70.369 65.2139,-61.5723"/>
<polygon fill="#000000" stroke="#000000" points="68.4517,-62.9228 69.7934,-52.4133 62.1907,-59.7923 68.4517,-62.9228"/>
<g id="a_edge2&#45;headlabel"><a xlink:href="dir_000011_000005.html" target="_top" xlink:title="2">
<text text-anchor="middle" x="69.3837" y="-64.9077" font-family="Helvetica,sans-Serif" font-size="10.00" fill="#000000">2</text>
</a>
</g>
</g>
</g>
</svg>
