<?xml version="1.0" encoding="UTF-8" standalone="no"?>
<!DOCTYPE svg PUBLIC "-//W3C//DTD SVG 1.1//EN"
 "http://www.w3.org/Graphics/SVG/1.1/DTD/svg11.dtd">
<!-- Generated by graphviz version 2.40.1 (20161225.0304)
 -->
<!-- Title: hw4_print_ip/src/PrintIpExample Pages: 1 -->
<svg width="132pt" height="151pt"
 viewBox="0.00 0.00 132.00 151.00" xmlns="http://www.w3.org/2000/svg" xmlns:xlink="http://www.w3.org/1999/xlink">
<g id="graph0" class="graph" transform="scale(1 1) rotate(0) translate(4 147)">
<title>hw4_print_ip/src/PrintIpExample</title>
<polygon fill="#ffffff" stroke="transparent" points="-4,4 -4,-147 128,-147 128,4 -4,4"/>
<g id="clust1" class="cluster">
<title>clusterdir_f087eab37f02b5b221725eacc8af5d0e</title>
<g id="a_clust1"><a xlink:href="dir_f087eab37f02b5b221725eacc8af5d0e.html" target="_top" xlink:title="src">
<polygon fill="#ddddee" stroke="#000000" points="8,-64 8,-135 116,-135 116,-64 8,-64"/>
<text text-anchor="middle" x="62" y="-123" font-family="Helvetica,sans-Serif" font-size="10.00" fill="#000000">src</text>
</a>
</g>
</g>
<!-- dir_d3b788604be0f37134650dbc02507bc0 -->
<g id="node1" class="node">
<title>dir_d3b788604be0f37134650dbc02507bc0</title>
<g id="a_node1"><a xlink:href="dir_d3b788604be0f37134650dbc02507bc0.html" target="_top" xlink:title="PrintIpExample">
<polygon fill="#eeeeff" stroke="#000000" points="107.5,-108 16.5,-108 16.5,-72 107.5,-72 107.5,-108"/>
<text text-anchor="middle" x="62" y="-87.5" font-family="Helvetica,sans-Serif" font-size="10.00" fill="#000000">PrintIpExample</text>
</a>
</g>
</g>
<!-- dir_ac11c07ff1a6384bb8ac93875f48ffaa -->
<g id="node2" class="node">
<title>dir_ac11c07ff1a6384bb8ac93875f48ffaa</title>
<g id="a_node2"><a xlink:href="dir_ac11c07ff1a6384bb8ac93875f48ffaa.html" target="_top" xlink:title="PrintIp">
<polygon fill="none" stroke="#000000" points="89,-36 35,-36 35,0 89,0 89,-36"/>
<text text-anchor="middle" x="62" y="-15.5" font-family="Helvetica,sans-Serif" font-size="10.00" fill="#000000">PrintIp</text>
</a>
</g>
</g>
<!-- dir_d3b788604be0f37134650dbc02507bc0&#45;&gt;dir_ac11c07ff1a6384bb8ac93875f48ffaa -->
<g id="edge1" class="edge">
<title>dir_d3b788604be0f37134650dbc02507bc0&#45;&gt;dir_ac11c07ff1a6384bb8ac93875f48ffaa</title>
<path fill="none" stroke="#000000" d="M62,-71.8314C62,-64.131 62,-54.9743 62,-46.4166"/>
<polygon fill="#000000" stroke="#000000" points="65.5001,-46.4132 62,-36.4133 58.5001,-46.4133 65.5001,-46.4132"/>
<g id="a_edge1&#45;headlabel"><a xlink:href="dir_000024_000023.html" target="_top" xlink:title="1">
<text text-anchor="middle" x="68.3393" y="-47.5079" font-family="Helvetica,sans-Serif" font-size="10.00" fill="#000000">1</text>
</a>
</g>
</g>
</g>
</svg>
