<?xml version="1.0" encoding="UTF-8" standalone="no"?>
<!DOCTYPE svg PUBLIC "-//W3C//DTD SVG 1.1//EN"
 "http://www.w3.org/Graphics/SVG/1.1/DTD/svg11.dtd">
<!-- Generated by graphviz version 2.40.1 (20161225.0304)
 -->
<!-- Title: hw3_print_ip/src Pages: 1 -->
<svg width="220pt" height="231pt"
 viewBox="0.00 0.00 220.00 231.00" xmlns="http://www.w3.org/2000/svg" xmlns:xlink="http://www.w3.org/1999/xlink">
<g id="graph0" class="graph" transform="scale(1 1) rotate(0) translate(4 227)">
<title>hw3_print_ip/src</title>
<polygon fill="#ffffff" stroke="transparent" points="-4,4 -4,-227 216,-227 216,4 -4,4"/>
<g id="clust1" class="cluster">
<title>clusterdir_d9aa6542464adc47b61d316a07c77d06</title>
<g id="a_clust1"><a xlink:href="dir_d9aa6542464adc47b61d316a07c77d06.html" target="_top" xlink:title="hw3_print_ip">
<polygon fill="#ddddee" stroke="#000000" points="8,-56 8,-215 204,-215 204,-56 8,-56"/>
<text text-anchor="middle" x="106" y="-203" font-family="Helvetica,sans-Serif" font-size="10.00" fill="#000000">hw3_print_ip</text>
</a>
</g>
</g>
<g id="clust2" class="cluster">
<title>clusterdir_37bbd2bd6271289faedd3e82c471da1e</title>
<g id="a_clust2"><a xlink:href="dir_37bbd2bd6271289faedd3e82c471da1e.html" target="_top">
<polygon fill="#eeeeff" stroke="#000000" points="16,-64 16,-188 196,-188 196,-64 16,-64"/>
</a>
</g>
</g>
<!-- dir_37bbd2bd6271289faedd3e82c471da1e -->
<g id="node1" class="node">
<title>dir_37bbd2bd6271289faedd3e82c471da1e</title>
<text text-anchor="middle" x="161" y="-159.5" font-family="Helvetica,sans-Serif" font-size="10.00" fill="#000000">src</text>
</g>
<!-- dir_88996383a6690cf7a84942af43372355 -->
<g id="node2" class="node">
<title>dir_88996383a6690cf7a84942af43372355</title>
<g id="a_node2"><a xlink:href="dir_88996383a6690cf7a84942af43372355.html" target="_top" xlink:title="PrintIp">
<polygon fill="#ffffff" stroke="#000000" points="97,-108 43,-108 43,-72 97,-72 97,-108"/>
<text text-anchor="middle" x="70" y="-87.5" font-family="Helvetica,sans-Serif" font-size="10.00" fill="#000000">PrintIp</text>
</a>
</g>
</g>
<!-- dir_6719ab1f1f7655efc2fa43f7eb574fd1 -->
<g id="node4" class="node">
<title>dir_6719ab1f1f7655efc2fa43f7eb574fd1</title>
<g id="a_node4"><a xlink:href="dir_6719ab1f1f7655efc2fa43f7eb574fd1.html" target="_top" xlink:title="libs">
<polygon fill="#ffffff" stroke="#ff0000" points="97,-36 43,-36 43,0 97,0 97,-36"/>
<text text-anchor="middle" x="70" y="-15.5" font-family="Helvetica,sans-Serif" font-size="10.00" fill="#000000">libs</text>
</a>
</g>
</g>
<!-- dir_88996383a6690cf7a84942af43372355&#45;&gt;dir_6719ab1f1f7655efc2fa43f7eb574fd1 -->
<g id="edge1" class="edge">
<title>dir_88996383a6690cf7a84942af43372355&#45;&gt;dir_6719ab1f1f7655efc2fa43f7eb574fd1</title>
<path fill="none" stroke="#000000" d="M70,-71.8314C70,-64.131 70,-54.9743 70,-46.4166"/>
<polygon fill="#000000" stroke="#000000" points="73.5001,-46.4132 70,-36.4133 66.5001,-46.4133 73.5001,-46.4132"/>
<g id="a_edge1&#45;headlabel"><a xlink:href="dir_000014_000018.html" target="_top" xlink:title="1">
<text text-anchor="middle" x="76.3393" y="-47.5079" font-family="Helvetica,sans-Serif" font-size="10.00" fill="#000000">1</text>
</a>
</g>
</g>
<!-- dir_55784ef586545215dc328bde76a70a07 -->
<g id="node3" class="node">
<title>dir_55784ef586545215dc328bde76a70a07</title>
<g id="a_node3"><a xlink:href="dir_55784ef586545215dc328bde76a70a07.html" target="_top" xlink:title="PrintIpExample">
<polygon fill="#ffffff" stroke="#000000" points="115.5,-180 24.5,-180 24.5,-144 115.5,-144 115.5,-180"/>
<text text-anchor="middle" x="70" y="-159.5" font-family="Helvetica,sans-Serif" font-size="10.00" fill="#000000">PrintIpExample</text>
</a>
</g>
</g>
<!-- dir_55784ef586545215dc328bde76a70a07&#45;&gt;dir_88996383a6690cf7a84942af43372355 -->
<g id="edge2" class="edge">
<title>dir_55784ef586545215dc328bde76a70a07&#45;&gt;dir_88996383a6690cf7a84942af43372355</title>
<path fill="none" stroke="#000000" d="M70,-143.8314C70,-136.131 70,-126.9743 70,-118.4166"/>
<polygon fill="#000000" stroke="#000000" points="73.5001,-118.4132 70,-108.4133 66.5001,-118.4133 73.5001,-118.4132"/>
<g id="a_edge2&#45;headlabel"><a xlink:href="dir_000015_000014.html" target="_top" xlink:title="1">
<text text-anchor="middle" x="76.3393" y="-119.5079" font-family="Helvetica,sans-Serif" font-size="10.00" fill="#000000">1</text>
</a>
</g>
</g>
</g>
</svg>
