<?xml version="1.0" encoding="UTF-8" standalone="no"?>
<!DOCTYPE svg PUBLIC "-//W3C//DTD SVG 1.1//EN"
 "http://www.w3.org/Graphics/SVG/1.1/DTD/svg11.dtd">
<!-- Generated by graphviz version 2.40.1 (20161225.0304)
 -->
<!-- Title: hw0_cicd/lib Pages: 1 -->
<svg width="94pt" height="151pt"
 viewBox="0.00 0.00 94.00 151.00" xmlns="http://www.w3.org/2000/svg" xmlns:xlink="http://www.w3.org/1999/xlink">
<g id="graph0" class="graph" transform="scale(1 1) rotate(0) translate(4 147)">
<title>hw0_cicd/lib</title>
<polygon fill="#ffffff" stroke="transparent" points="-4,4 -4,-147 90,-147 90,4 -4,4"/>
<g id="clust1" class="cluster">
<title>clusterdir_9b7cbf98fb2f78ee23e65d99a83ca78a</title>
<g id="a_clust1"><a xlink:href="dir_9b7cbf98fb2f78ee23e65d99a83ca78a.html" target="_top" xlink:title="hw0_cicd">
<polygon fill="#ddddee" stroke="#000000" points="8,-64 8,-135 78,-135 78,-64 8,-64"/>
<text text-anchor="middle" x="43" y="-123" font-family="Helvetica,sans-Serif" font-size="10.00" fill="#000000">hw0_cicd</text>
</a>
</g>
</g>
<!-- dir_a2454336ec66606f82b563e82409b198 -->
<g id="node1" class="node">
<title>dir_a2454336ec66606f82b563e82409b198</title>
<g id="a_node1"><a xlink:href="dir_a2454336ec66606f82b563e82409b198.html" target="_top" xlink:title="lib">
<polygon fill="#eeeeff" stroke="#000000" points="70,-108 16,-108 16,-72 70,-72 70,-108"/>
<text text-anchor="middle" x="43" y="-87.5" font-family="Helvetica,sans-Serif" font-size="10.00" fill="#000000">lib</text>
</a>
</g>
</g>
<!-- dir_7057357b5b8b6be0b4f92f2303e2a839 -->
<g id="node2" class="node">
<title>dir_7057357b5b8b6be0b4f92f2303e2a839</title>
<g id="a_node2"><a xlink:href="dir_7057357b5b8b6be0b4f92f2303e2a839.html" target="_top" xlink:title="hw1_cicd">
<polygon fill="none" stroke="#000000" points="74,-36 12,-36 12,0 74,0 74,-36"/>
<text text-anchor="middle" x="43" y="-15.5" font-family="Helvetica,sans-Serif" font-size="10.00" fill="#000000">hw1_cicd</text>
</a>
</g>
</g>
<!-- dir_a2454336ec66606f82b563e82409b198&#45;&gt;dir_7057357b5b8b6be0b4f92f2303e2a839 -->
<g id="edge1" class="edge">
<title>dir_a2454336ec66606f82b563e82409b198&#45;&gt;dir_7057357b5b8b6be0b4f92f2303e2a839</title>
<path fill="none" stroke="#000000" d="M43,-71.8314C43,-64.131 43,-54.9743 43,-46.4166"/>
<polygon fill="#000000" stroke="#000000" points="46.5001,-46.4132 43,-36.4133 39.5001,-46.4133 46.5001,-46.4132"/>
<g id="a_edge1&#45;headlabel"><a xlink:href="dir_000001_000010.html" target="_top" xlink:title="1">
<text text-anchor="middle" x="49.3393" y="-47.5079" font-family="Helvetica,sans-Serif" font-size="10.00" fill="#000000">1</text>
</a>
</g>
</g>
</g>
</svg>
