<?xml version="1.0" encoding="UTF-8" standalone="no"?>
<!DOCTYPE svg PUBLIC "-//W3C//DTD SVG 1.1//EN"
 "http://www.w3.org/Graphics/SVG/1.1/DTD/svg11.dtd">
<!-- Generated by graphviz version 2.40.1 (20161225.0304)
 -->
<!-- Title: hw1_ip_filter/tests/IpFilterTests Pages: 1 -->
<svg width="115pt" height="223pt"
 viewBox="0.00 0.00 115.00 223.00" xmlns="http://www.w3.org/2000/svg" xmlns:xlink="http://www.w3.org/1999/xlink">
<g id="graph0" class="graph" transform="scale(1 1) rotate(0) translate(4 219)">
<title>hw1_ip_filter/tests/IpFilterTests</title>
<polygon fill="#ffffff" stroke="transparent" points="-4,4 -4,-219 111,-219 111,4 -4,4"/>
<g id="clust1" class="cluster">
<title>clusterdir_a64d43cfedc6488890973a3e7bf23bce</title>
<g id="a_clust1"><a xlink:href="dir_a64d43cfedc6488890973a3e7bf23bce.html" target="_top" xlink:title="tests">
<polygon fill="#ddddee" stroke="#000000" points="8,-136 8,-207 98,-207 98,-136 8,-136"/>
<text text-anchor="middle" x="53" y="-195" font-family="Helvetica,sans-Serif" font-size="10.00" fill="#000000">tests</text>
</a>
</g>
</g>
<!-- dir_72db324c017c33b7583a6bb6aa8a7a6b -->
<g id="node1" class="node">
<title>dir_72db324c017c33b7583a6bb6aa8a7a6b</title>
<g id="a_node1"><a xlink:href="dir_72db324c017c33b7583a6bb6aa8a7a6b.html" target="_top" xlink:title="IpFilterTests">
<polygon fill="#eeeeff" stroke="#000000" points="90,-180 16,-180 16,-144 90,-144 90,-180"/>
<text text-anchor="middle" x="53" y="-159.5" font-family="Helvetica,sans-Serif" font-size="10.00" fill="#000000">IpFilterTests</text>
</a>
</g>
</g>
<!-- dir_6719ab1f1f7655efc2fa43f7eb574fd1 -->
<g id="node2" class="node">
<title>dir_6719ab1f1f7655efc2fa43f7eb574fd1</title>
<g id="a_node2"><a xlink:href="dir_6719ab1f1f7655efc2fa43f7eb574fd1.html" target="_top" xlink:title="libs">
<polygon fill="#ffffff" stroke="#ff0000" points="79,-36 25,-36 25,0 79,0 79,-36"/>
<text text-anchor="middle" x="52" y="-15.5" font-family="Helvetica,sans-Serif" font-size="10.00" fill="#000000">libs</text>
</a>
</g>
</g>
<!-- dir_72db324c017c33b7583a6bb6aa8a7a6b&#45;&gt;dir_6719ab1f1f7655efc2fa43f7eb574fd1 -->
<g id="edge2" class="edge">
<title>dir_72db324c017c33b7583a6bb6aa8a7a6b&#45;&gt;dir_6719ab1f1f7655efc2fa43f7eb574fd1</title>
<path fill="none" stroke="#000000" d="M49.1587,-143.6001C47.1834,-133.2025 44.9877,-119.9346 44,-108 42.6803,-92.0545 42.8244,-87.9568 44,-72 44.6169,-63.6264 45.7649,-54.5812 47.0026,-46.3322"/>
<polygon fill="#000000" stroke="#000000" points="50.4648,-46.8463 48.585,-36.4196 43.5523,-45.7428 50.4648,-46.8463"/>
<g id="a_edge2&#45;headlabel"><a xlink:href="dir_000013_000019.html" target="_top" xlink:title="1">
<text text-anchor="middle" x="52.702" y="-48.3436" font-family="Helvetica,sans-Serif" font-size="10.00" fill="#000000">1</text>
</a>
</g>
</g>
<!-- dir_8baa6d4c66897a606bd154524eb9720b -->
<g id="node3" class="node">
<title>dir_8baa6d4c66897a606bd154524eb9720b</title>
<g id="a_node3"><a xlink:href="dir_8baa6d4c66897a606bd154524eb9720b.html" target="_top" xlink:title="src">
<polygon fill="#ffffff" stroke="#ff0000" points="107,-108 53,-108 53,-72 107,-72 107,-108"/>
<text text-anchor="middle" x="80" y="-87.5" font-family="Helvetica,sans-Serif" font-size="10.00" fill="#000000">src</text>
</a>
</g>
</g>
<!-- dir_72db324c017c33b7583a6bb6aa8a7a6b&#45;&gt;dir_8baa6d4c66897a606bd154524eb9720b -->
<g id="edge3" class="edge">
<title>dir_72db324c017c33b7583a6bb6aa8a7a6b&#45;&gt;dir_8baa6d4c66897a606bd154524eb9720b</title>
<path fill="none" stroke="#000000" d="M59.8132,-143.8314C62.7644,-135.9617 66.2858,-126.5712 69.555,-117.8533"/>
<polygon fill="#000000" stroke="#000000" points="72.8609,-119.0055 73.095,-108.4133 66.3066,-116.5476 72.8609,-119.0055"/>
<g id="a_edge3&#45;headlabel"><a xlink:href="dir_000013_000005.html" target="_top" xlink:title="4">
<text text-anchor="middle" x="74.2573" y="-120.8682" font-family="Helvetica,sans-Serif" font-size="10.00" fill="#000000">4</text>
</a>
</g>
</g>
<!-- dir_8baa6d4c66897a606bd154524eb9720b&#45;&gt;dir_6719ab1f1f7655efc2fa43f7eb574fd1 -->
<g id="edge1" class="edge">
<title>dir_8baa6d4c66897a606bd154524eb9720b&#45;&gt;dir_6719ab1f1f7655efc2fa43f7eb574fd1</title>
<path fill="none" stroke="#000000" d="M72.9344,-71.8314C69.874,-63.9617 66.2221,-54.5712 62.8318,-45.8533"/>
<polygon fill="#000000" stroke="#000000" points="66.0473,-44.4647 59.1607,-36.4133 59.5232,-47.0019 66.0473,-44.4647"/>
<g id="a_edge1&#45;headlabel"><a xlink:href="dir_000005_000019.html" target="_top" xlink:title="4">
<text text-anchor="middle" x="69.9963" y="-44.2859" font-family="Helvetica,sans-Serif" font-size="10.00" fill="#000000">4</text>
</a>
</g>
</g>
</g>
</svg>
