<?xml version="1.0" encoding="UTF-8" standalone="no"?>
<!DOCTYPE svg PUBLIC "-//W3C//DTD SVG 1.1//EN"
 "http://www.w3.org/Graphics/SVG/1.1/DTD/svg11.dtd">
<!-- Generated by graphviz version 2.40.1 (20161225.0304)
 -->
<!-- Title: hw2_allocator/ReserveAllocatorExample Pages: 1 -->
<svg width="182pt" height="151pt"
 viewBox="0.00 0.00 182.00 151.00" xmlns="http://www.w3.org/2000/svg" xmlns:xlink="http://www.w3.org/1999/xlink">
<g id="graph0" class="graph" transform="scale(1 1) rotate(0) translate(4 147)">
<title>hw2_allocator/ReserveAllocatorExample</title>
<polygon fill="#ffffff" stroke="transparent" points="-4,4 -4,-147 178,-147 178,4 -4,4"/>
<g id="clust1" class="cluster">
<title>clusterdir_b054f5e87d150411253767c6c9b872c0</title>
<g id="a_clust1"><a xlink:href="dir_b054f5e87d150411253767c6c9b872c0.html" target="_top" xlink:title="hw2_allocator">
<polygon fill="#ddddee" stroke="#000000" points="8,-64 8,-135 166,-135 166,-64 8,-64"/>
<text text-anchor="middle" x="87" y="-123" font-family="Helvetica,sans-Serif" font-size="10.00" fill="#000000">hw2_allocator</text>
</a>
</g>
</g>
<!-- dir_07b439c1b4ed90d98953cbd32c548056 -->
<g id="node1" class="node">
<title>dir_07b439c1b4ed90d98953cbd32c548056</title>
<g id="a_node1"><a xlink:href="dir_07b439c1b4ed90d98953cbd32c548056.html" target="_top" xlink:title="ReserveAllocatorExample">
<polygon fill="#eeeeff" stroke="#000000" points="158,-108 16,-108 16,-72 158,-72 158,-108"/>
<text text-anchor="middle" x="87" y="-87.5" font-family="Helvetica,sans-Serif" font-size="10.00" fill="#000000">ReserveAllocatorExample</text>
</a>
</g>
</g>
<!-- dir_31dd421cdb1ea48896e28f2d467748fb -->
<g id="node2" class="node">
<title>dir_31dd421cdb1ea48896e28f2d467748fb</title>
<g id="a_node2"><a xlink:href="dir_31dd421cdb1ea48896e28f2d467748fb.html" target="_top" xlink:title="ReserveAllocator">
<polygon fill="none" stroke="#000000" points="136.5,-36 37.5,-36 37.5,0 136.5,0 136.5,-36"/>
<text text-anchor="middle" x="87" y="-15.5" font-family="Helvetica,sans-Serif" font-size="10.00" fill="#000000">ReserveAllocator</text>
</a>
</g>
</g>
<!-- dir_07b439c1b4ed90d98953cbd32c548056&#45;&gt;dir_31dd421cdb1ea48896e28f2d467748fb -->
<g id="edge1" class="edge">
<title>dir_07b439c1b4ed90d98953cbd32c548056&#45;&gt;dir_31dd421cdb1ea48896e28f2d467748fb</title>
<path fill="none" stroke="#000000" d="M87,-71.8314C87,-64.131 87,-54.9743 87,-46.4166"/>
<polygon fill="#000000" stroke="#000000" points="90.5001,-46.4132 87,-36.4133 83.5001,-46.4133 90.5001,-46.4132"/>
<g id="a_edge1&#45;headlabel"><a xlink:href="dir_000008_000015.html" target="_top" xlink:title="1">
<text text-anchor="middle" x="93.3393" y="-47.5079" font-family="Helvetica,sans-Serif" font-size="10.00" fill="#000000">1</text>
</a>
</g>
</g>
</g>
</svg>
