<?xml version="1.0" encoding="UTF-8" standalone="no"?>
<!DOCTYPE svg PUBLIC "-//W3C//DTD SVG 1.1//EN"
 "http://www.w3.org/Graphics/SVG/1.1/DTD/svg11.dtd">
<!-- Generated by graphviz version 2.40.1 (20161225.0304)
 -->
<!-- Title: hw1_ip_filter Pages: 1 -->
<svg width="191pt" height="204pt"
 viewBox="0.00 0.00 191.00 204.00" xmlns="http://www.w3.org/2000/svg" xmlns:xlink="http://www.w3.org/1999/xlink">
<g id="graph0" class="graph" transform="scale(1 1) rotate(0) translate(4 200)">
<title>hw1_ip_filter</title>
<polygon fill="#ffffff" stroke="transparent" points="-4,4 -4,-200 187,-200 187,4 -4,4"/>
<g id="clust1" class="cluster">
<title>clusterdir_178d47071a10f3df41fff370ab293f5d</title>
<g id="a_clust1"><a xlink:href="dir_178d47071a10f3df41fff370ab293f5d.html" target="_top">
<polygon fill="#eeeeff" stroke="#000000" points="8,-64 8,-188 175,-188 175,-64 8,-64"/>
</a>
</g>
</g>
<!-- dir_178d47071a10f3df41fff370ab293f5d -->
<g id="node1" class="node">
<title>dir_178d47071a10f3df41fff370ab293f5d</title>
<text text-anchor="middle" x="128" y="-159.5" font-family="Helvetica,sans-Serif" font-size="10.00" fill="#000000">hw1_ip_filter</text>
</g>
<!-- dir_8baa6d4c66897a606bd154524eb9720b -->
<g id="node2" class="node">
<title>dir_8baa6d4c66897a606bd154524eb9720b</title>
<g id="a_node2"><a xlink:href="dir_8baa6d4c66897a606bd154524eb9720b.html" target="_top" xlink:title="src">
<polygon fill="#ffffff" stroke="#ff0000" points="70,-108 16,-108 16,-72 70,-72 70,-108"/>
<text text-anchor="middle" x="43" y="-87.5" font-family="Helvetica,sans-Serif" font-size="10.00" fill="#000000">src</text>
</a>
</g>
</g>
<!-- dir_6719ab1f1f7655efc2fa43f7eb574fd1 -->
<g id="node4" class="node">
<title>dir_6719ab1f1f7655efc2fa43f7eb574fd1</title>
<g id="a_node4"><a xlink:href="dir_6719ab1f1f7655efc2fa43f7eb574fd1.html" target="_top" xlink:title="libs">
<polygon fill="#ffffff" stroke="#ff0000" points="97,-36 43,-36 43,0 97,0 97,-36"/>
<text text-anchor="middle" x="70" y="-15.5" font-family="Helvetica,sans-Serif" font-size="10.00" fill="#000000">libs</text>
</a>
</g>
</g>
<!-- dir_8baa6d4c66897a606bd154524eb9720b&#45;&gt;dir_6719ab1f1f7655efc2fa43f7eb574fd1 -->
<g id="edge1" class="edge">
<title>dir_8baa6d4c66897a606bd154524eb9720b&#45;&gt;dir_6719ab1f1f7655efc2fa43f7eb574fd1</title>
<path fill="none" stroke="#000000" d="M49.8132,-71.8314C52.7644,-63.9617 56.2858,-54.5712 59.555,-45.8533"/>
<polygon fill="#000000" stroke="#000000" points="62.8609,-47.0055 63.095,-36.4133 56.3066,-44.5476 62.8609,-47.0055"/>
<g id="a_edge1&#45;headlabel"><a xlink:href="dir_000005_000019.html" target="_top" xlink:title="4">
<text text-anchor="middle" x="64.2573" y="-48.8682" font-family="Helvetica,sans-Serif" font-size="10.00" fill="#000000">4</text>
</a>
</g>
</g>
<!-- dir_a64d43cfedc6488890973a3e7bf23bce -->
<g id="node3" class="node">
<title>dir_a64d43cfedc6488890973a3e7bf23bce</title>
<g id="a_node3"><a xlink:href="dir_a64d43cfedc6488890973a3e7bf23bce.html" target="_top" xlink:title="tests">
<polygon fill="#ffffff" stroke="#ff0000" points="70,-180 16,-180 16,-144 70,-144 70,-180"/>
<text text-anchor="middle" x="43" y="-159.5" font-family="Helvetica,sans-Serif" font-size="10.00" fill="#000000">tests</text>
</a>
</g>
</g>
<!-- dir_a64d43cfedc6488890973a3e7bf23bce&#45;&gt;dir_8baa6d4c66897a606bd154524eb9720b -->
<g id="edge3" class="edge">
<title>dir_a64d43cfedc6488890973a3e7bf23bce&#45;&gt;dir_8baa6d4c66897a606bd154524eb9720b</title>
<path fill="none" stroke="#000000" d="M43,-143.8314C43,-136.131 43,-126.9743 43,-118.4166"/>
<polygon fill="#000000" stroke="#000000" points="46.5001,-118.4132 43,-108.4133 39.5001,-118.4133 46.5001,-118.4132"/>
<g id="a_edge3&#45;headlabel"><a xlink:href="dir_000012_000005.html" target="_top" xlink:title="4">
<text text-anchor="middle" x="49.3393" y="-119.5079" font-family="Helvetica,sans-Serif" font-size="10.00" fill="#000000">4</text>
</a>
</g>
</g>
<!-- dir_a64d43cfedc6488890973a3e7bf23bce&#45;&gt;dir_6719ab1f1f7655efc2fa43f7eb574fd1 -->
<g id="edge2" class="edge">
<title>dir_a64d43cfedc6488890973a3e7bf23bce&#45;&gt;dir_6719ab1f1f7655efc2fa43f7eb574fd1</title>
<path fill="none" stroke="#000000" d="M58.9905,-143.9169C66.6538,-134.0371 75.0166,-121.1563 79,-108 85.0862,-87.8985 82.3561,-64.2346 78.3608,-46.2178"/>
<polygon fill="#000000" stroke="#000000" points="81.7149,-45.201 75.9192,-36.3319 74.9191,-46.8794 81.7149,-45.201"/>
<g id="a_edge2&#45;headlabel"><a xlink:href="dir_000012_000019.html" target="_top" xlink:title="1">
<text text-anchor="middle" x="85.3331" y="-45.51" font-family="Helvetica,sans-Serif" font-size="10.00" fill="#000000">1</text>
</a>
</g>
</g>
</g>
</svg>
