<?xml version="1.0" encoding="UTF-8" standalone="no"?>
<!DOCTYPE svg PUBLIC "-//W3C//DTD SVG 1.1//EN"
 "http://www.w3.org/Graphics/SVG/1.1/DTD/svg11.dtd">
<!-- Generated by graphviz version 2.40.1 (20161225.0304)
 -->
<!-- Title: hw4_print_ip/tests Pages: 1 -->
<svg width="202pt" height="159pt"
 viewBox="0.00 0.00 202.00 159.00" xmlns="http://www.w3.org/2000/svg" xmlns:xlink="http://www.w3.org/1999/xlink">
<g id="graph0" class="graph" transform="scale(1 1) rotate(0) translate(4 155)">
<title>hw4_print_ip/tests</title>
<polygon fill="#ffffff" stroke="transparent" points="-4,4 -4,-155 198,-155 198,4 -4,4"/>
<g id="clust1" class="cluster">
<title>clusterdir_524606cac79b197fb9b2f0e3351e2f9a</title>
<g id="a_clust1"><a xlink:href="dir_524606cac79b197fb9b2f0e3351e2f9a.html" target="_top" xlink:title="hw4_print_ip">
<polygon fill="#ddddee" stroke="#000000" points="8,-56 8,-143 186,-143 186,-56 8,-56"/>
<text text-anchor="middle" x="97" y="-131" font-family="Helvetica,sans-Serif" font-size="10.00" fill="#000000">hw4_print_ip</text>
</a>
</g>
</g>
<g id="clust2" class="cluster">
<title>clusterdir_e608c7500177b50e496932f8c3eeddcf</title>
<g id="a_clust2"><a xlink:href="dir_e608c7500177b50e496932f8c3eeddcf.html" target="_top">
<polygon fill="#eeeeff" stroke="#000000" points="16,-64 16,-116 178,-116 178,-64 16,-64"/>
</a>
</g>
</g>
<!-- dir_e608c7500177b50e496932f8c3eeddcf -->
<g id="node1" class="node">
<title>dir_e608c7500177b50e496932f8c3eeddcf</title>
<text text-anchor="middle" x="143" y="-87.5" font-family="Helvetica,sans-Serif" font-size="10.00" fill="#000000">tests</text>
</g>
<!-- dir_1674619b3f71120fbbe438c0d669a219 -->
<g id="node2" class="node">
<title>dir_1674619b3f71120fbbe438c0d669a219</title>
<g id="a_node2"><a xlink:href="dir_1674619b3f71120fbbe438c0d669a219.html" target="_top" xlink:title="PrintIpTests">
<polygon fill="#ffffff" stroke="#000000" points="97.5,-108 24.5,-108 24.5,-72 97.5,-72 97.5,-108"/>
<text text-anchor="middle" x="61" y="-87.5" font-family="Helvetica,sans-Serif" font-size="10.00" fill="#000000">PrintIpTests</text>
</a>
</g>
</g>
<!-- dir_f087eab37f02b5b221725eacc8af5d0e -->
<g id="node3" class="node">
<title>dir_f087eab37f02b5b221725eacc8af5d0e</title>
<g id="a_node3"><a xlink:href="dir_f087eab37f02b5b221725eacc8af5d0e.html" target="_top" xlink:title="src">
<polygon fill="#ffffff" stroke="#ff0000" points="88,-36 34,-36 34,0 88,0 88,-36"/>
<text text-anchor="middle" x="61" y="-15.5" font-family="Helvetica,sans-Serif" font-size="10.00" fill="#000000">src</text>
</a>
</g>
</g>
<!-- dir_1674619b3f71120fbbe438c0d669a219&#45;&gt;dir_f087eab37f02b5b221725eacc8af5d0e -->
<g id="edge1" class="edge">
<title>dir_1674619b3f71120fbbe438c0d669a219&#45;&gt;dir_f087eab37f02b5b221725eacc8af5d0e</title>
<path fill="none" stroke="#000000" d="M61,-71.8314C61,-64.131 61,-54.9743 61,-46.4166"/>
<polygon fill="#000000" stroke="#000000" points="64.5001,-46.4132 61,-36.4133 57.5001,-46.4133 64.5001,-46.4132"/>
<g id="a_edge1&#45;headlabel"><a xlink:href="dir_000026_000022.html" target="_top" xlink:title="1">
<text text-anchor="middle" x="67.3393" y="-47.5079" font-family="Helvetica,sans-Serif" font-size="10.00" fill="#000000">1</text>
</a>
</g>
</g>
</g>
</svg>
