<?xml version="1.0" encoding="UTF-8" standalone="no"?>
<!DOCTYPE svg PUBLIC "-//W3C//DTD SVG 1.1//EN"
 "http://www.w3.org/Graphics/SVG/1.1/DTD/svg11.dtd">
<!-- Generated by graphviz version 2.40.1 (20161225.0304)
 -->
<!-- Title: hw3_print_ip/PrintIpExample/example.cpp Pages: 1 -->
<!--zoomable 207 -->
<svg id="main" version="1.1" xmlns="http://www.w3.org/2000/svg" xmlns:xlink="http://www.w3.org/1999/xlink" xml:space="preserve" onload="init(evt)">
<style type="text/css"><![CDATA[
.edge:hover path { stroke: red; }
.edge:hover polygon { stroke: red; fill: red; }
]]></style>
<script type="text/javascript"><![CDATA[
var edges = document.getElementsByTagName('g');
if (edges && edges.length) {
  for (var i=0;i<edges.length;i++) {
    if (edges[i].id.substr(0,4)=='edge') {
      edges[i].setAttribute('class','edge');
    }
  }
}
]]></script>
        <defs>
                <circle id="rim" cx="0" cy="0" r="7"/>
                <circle id="rim2" cx="0" cy="0" r="3.5"/>
                <g id="zoomPlus">
                        <use xlink:href="#rim" fill="#404040">
                                <set attributeName="fill" to="#808080" begin="zoomplus.mouseover" end="zoomplus.mouseout"/>
                        </use>
                        <path d="M-4,0h8M0,-4v8" fill="none" stroke="white" stroke-width="1.5" pointer-events="none"/>
                </g>
                <g id="zoomMin">
                        <use xlink:href="#rim" fill="#404040">
                                <set attributeName="fill" to="#808080" begin="zoomminus.mouseover" end="zoomminus.mouseout"/>
                        </use>
                        <path d="M-4,0h8" fill="none" stroke="white" stroke-width="1.5" pointer-events="none"/>
                </g>
                <g id="dirArrow">
                        <path fill="none" stroke="white" stroke-width="1.5" d="M0,-3.0v7 M-2.5,-0.5L0,-3.0L2.5,-0.5"/>
                </g>
               <g id="resetDef">
                       <use xlink:href="#rim2" fill="#404040">
                               <set attributeName="fill" to="#808080" begin="reset.mouseover" end="reset.mouseout"/>
                       </use>
               </g>
        </defs>

<script type="text/javascript">
var viewWidth = 602;
var viewHeight = 207;
var sectionId = 'dynsection-0';
</script>
<script xlink:href="svgpan.js"/>
<svg id="graph" class="graph">
<g id="viewport">
<title>hw3_print_ip/PrintIpExample/example.cpp</title>
<polygon fill="#ffffff" stroke="transparent" points="-4,4 -4,-203 597.5,-203 597.5,4 -4,4"/>
<!-- Node1 -->
<g id="node1" class="node">
<title>Node1</title>
<g id="a_node1"><a xlink:title=" ">
<polygon fill="#bfbfbf" stroke="#000000" points="368.5,-168.5 368.5,-198.5 524.5,-198.5 524.5,-168.5 368.5,-168.5"/>
<text text-anchor="start" x="376.5" y="-186.5" font-family="Helvetica,sans-Serif" font-size="10.00" fill="#000000">hw3_print_ip/PrintIpExample</text>
<text text-anchor="middle" x="446.5" y="-175.5" font-family="Helvetica,sans-Serif" font-size="10.00" fill="#000000">/example.cpp</text>
</a>
</g>
</g>
<!-- Node2 -->
<g id="node2" class="node">
<title>Node2</title>
<g id="a_node2"><a xlink:href="_print_ip_8h.html" target="_top" xlink:title=" ">
<polygon fill="#ffffff" stroke="#000000" points="256,-112.5 256,-131.5 357,-131.5 357,-112.5 256,-112.5"/>
<text text-anchor="middle" x="306.5" y="-119.5" font-family="Helvetica,sans-Serif" font-size="10.00" fill="#000000">../PrintIp/PrintIp.h</text>
</a>
</g>
</g>
<!-- Node1&#45;&gt;Node2 -->
<g id="edge1" class="edge">
<title>Node1&#45;&gt;Node2</title>
<path fill="none" stroke="#191970" d="M412.2521,-168.4554C389.4051,-158.419 359.6121,-145.3314 337.4733,-135.6061"/>
<polygon fill="#191970" stroke="#191970" points="338.7583,-132.3478 328.195,-131.5303 335.9429,-138.7567 338.7583,-132.3478"/>
</g>
<!-- Node7 -->
<g id="node7" class="node">
<title>Node7</title>
<g id="a_node7"><a xlink:title=" ">
<polygon fill="#ffffff" stroke="#bfbfbf" points="0,-56.5 0,-75.5 47,-75.5 47,-56.5 0,-56.5"/>
<text text-anchor="middle" x="23.5" y="-63.5" font-family="Helvetica,sans-Serif" font-size="10.00" fill="#000000">vector</text>
</a>
</g>
</g>
<!-- Node1&#45;&gt;Node7 -->
<g id="edge14" class="edge">
<title>Node1&#45;&gt;Node7</title>
<path fill="none" stroke="#191970" d="M385.9665,-168.4921C346.2258,-158.4967 293.1592,-144.8793 246.5,-132 164.6211,-109.399 142.39,-101.7479 56.8906,-76.1076"/>
<polygon fill="#191970" stroke="#191970" points="57.8703,-72.7475 47.2865,-73.2316 55.8621,-79.4533 57.8703,-72.7475"/>
</g>
<!-- Node8 -->
<g id="node8" class="node">
<title>Node8</title>
<g id="a_node8"><a xlink:title=" ">
<polygon fill="#ffffff" stroke="#bfbfbf" points="450,-56.5 450,-75.5 491,-75.5 491,-56.5 450,-56.5"/>
<text text-anchor="middle" x="470.5" y="-63.5" font-family="Helvetica,sans-Serif" font-size="10.00" fill="#000000">tuple</text>
</a>
</g>
</g>
<!-- Node1&#45;&gt;Node8 -->
<g id="edge16" class="edge">
<title>Node1&#45;&gt;Node8</title>
<path fill="none" stroke="#191970" d="M446.1602,-168.2242C446.1635,-153.6017 447.0317,-131.0185 451.5,-112 453.6677,-102.7736 457.4659,-93.0088 461.0994,-84.8607"/>
<polygon fill="#191970" stroke="#191970" points="464.3823,-86.1047 465.4787,-75.5668 458.0501,-83.1209 464.3823,-86.1047"/>
</g>
<!-- Node9 -->
<g id="node9" class="node">
<title>Node9</title>
<g id="a_node9"><a xlink:title=" ">
<polygon fill="#ffffff" stroke="#bfbfbf" points="509.5,-56.5 509.5,-75.5 553.5,-75.5 553.5,-56.5 509.5,-56.5"/>
<text text-anchor="middle" x="531.5" y="-63.5" font-family="Helvetica,sans-Serif" font-size="10.00" fill="#000000">string</text>
</a>
</g>
</g>
<!-- Node1&#45;&gt;Node9 -->
<g id="edge13" class="edge">
<title>Node1&#45;&gt;Node9</title>
<path fill="none" stroke="#191970" d="M452.8391,-168.4746C459.5508,-153.4367 471.026,-130.0093 484.5,-112 492.541,-101.2524 503.1086,-90.675 512.1864,-82.3781"/>
<polygon fill="#191970" stroke="#191970" points="514.5241,-84.983 519.6794,-75.727 509.8772,-79.7479 514.5241,-84.983"/>
</g>
<!-- Node12 -->
<g id="node12" class="node">
<title>Node12</title>
<g id="a_node12"><a xlink:title=" ">
<polygon fill="#ffffff" stroke="#bfbfbf" points="493.5,-112.5 493.5,-131.5 543.5,-131.5 543.5,-112.5 493.5,-112.5"/>
<text text-anchor="middle" x="518.5" y="-119.5" font-family="Helvetica,sans-Serif" font-size="10.00" fill="#000000">cstdint</text>
</a>
</g>
</g>
<!-- Node1&#45;&gt;Node12 -->
<g id="edge12" class="edge">
<title>Node1&#45;&gt;Node12</title>
<path fill="none" stroke="#191970" d="M464.2978,-168.2977C474.9167,-159.2274 488.4031,-147.7077 499.2667,-138.4285"/>
<polygon fill="#191970" stroke="#191970" points="501.6413,-141.0031 506.9719,-131.8469 497.0949,-135.6805 501.6413,-141.0031"/>
</g>
<!-- Node13 -->
<g id="node13" class="node">
<title>Node13</title>
<g id="a_node13"><a xlink:title=" ">
<polygon fill="#ffffff" stroke="#bfbfbf" points="561.5,-112.5 561.5,-131.5 593.5,-131.5 593.5,-112.5 561.5,-112.5"/>
<text text-anchor="middle" x="577.5" y="-119.5" font-family="Helvetica,sans-Serif" font-size="10.00" fill="#000000">list</text>
</a>
</g>
</g>
<!-- Node1&#45;&gt;Node13 -->
<g id="edge15" class="edge">
<title>Node1&#45;&gt;Node13</title>
<path fill="none" stroke="#191970" d="M478.5462,-168.4554C501.1714,-157.8336 531.0763,-143.7944 552.0667,-133.9401"/>
<polygon fill="#191970" stroke="#191970" points="553.7397,-137.0212 561.3044,-129.6033 550.7649,-130.6847 553.7397,-137.0212"/>
</g>
<!-- Node3 -->
<g id="node3" class="node">
<title>Node3</title>
<g id="a_node3"><a xlink:href="_bits_8h.html" target="_top" xlink:title=" ">
<polygon fill="#ffffff" stroke="#000000" points="143.5,-56.5 143.5,-75.5 187.5,-75.5 187.5,-56.5 143.5,-56.5"/>
<text text-anchor="middle" x="165.5" y="-63.5" font-family="Helvetica,sans-Serif" font-size="10.00" fill="#000000">Bits.h</text>
</a>
</g>
</g>
<!-- Node2&#45;&gt;Node3 -->
<g id="edge2" class="edge">
<title>Node2&#45;&gt;Node3</title>
<path fill="none" stroke="#191970" d="M282.2612,-112.3733C258.6625,-103.0007 222.6823,-88.7107 196.9026,-78.472"/>
<polygon fill="#191970" stroke="#191970" points="198.1545,-75.2033 187.5688,-74.7649 195.5707,-81.709 198.1545,-75.2033"/>
</g>
<!-- Node5 -->
<g id="node5" class="node">
<title>Node5</title>
<g id="a_node5"><a xlink:href="_type_traits_8h.html" target="_top" xlink:title=" ">
<polygon fill="#ffffff" stroke="#000000" points="243.5,-56.5 243.5,-75.5 369.5,-75.5 369.5,-56.5 243.5,-56.5"/>
<text text-anchor="middle" x="306.5" y="-63.5" font-family="Helvetica,sans-Serif" font-size="10.00" fill="#000000">TypeTraits/TypeTraits.h</text>
</a>
</g>
</g>
<!-- Node2&#45;&gt;Node5 -->
<g id="edge4" class="edge">
<title>Node2&#45;&gt;Node5</title>
<path fill="none" stroke="#191970" d="M306.5,-112.2455C306.5,-104.9382 306.5,-94.6944 306.5,-85.7046"/>
<polygon fill="#191970" stroke="#191970" points="310.0001,-85.6426 306.5,-75.6427 303.0001,-85.6427 310.0001,-85.6426"/>
</g>
<!-- Node6 -->
<g id="node6" class="node">
<title>Node6</title>
<g id="a_node6"><a xlink:title=" ">
<polygon fill="#ffffff" stroke="#bfbfbf" points="241,-.5 241,-19.5 310,-19.5 310,-.5 241,-.5"/>
<text text-anchor="middle" x="275.5" y="-7.5" font-family="Helvetica,sans-Serif" font-size="10.00" fill="#000000">type_traits</text>
</a>
</g>
</g>
<!-- Node2&#45;&gt;Node6 -->
<g id="edge9" class="edge">
<title>Node2&#45;&gt;Node6</title>
<path fill="none" stroke="#191970" d="M279.5356,-112.4934C263.3286,-105.2188 244.0492,-93.4326 234.5,-76 224.9858,-58.6312 239.8684,-39.4774 254.2946,-26.2984"/>
<polygon fill="#191970" stroke="#191970" points="256.7649,-28.7917 262.1042,-19.6406 252.2236,-23.4647 256.7649,-28.7917"/>
</g>
<!-- Node2&#45;&gt;Node7 -->
<g id="edge6" class="edge">
<title>Node2&#45;&gt;Node7</title>
<path fill="none" stroke="#191970" d="M255.8703,-114.3959C207.2977,-106.7176 131.7426,-93.7747 57.2327,-75.9601"/>
<polygon fill="#191970" stroke="#191970" points="57.7484,-72.4839 47.2055,-73.5311 56.1004,-79.2871 57.7484,-72.4839"/>
</g>
<!-- Node2&#45;&gt;Node8 -->
<g id="edge7" class="edge">
<title>Node2&#45;&gt;Node8</title>
<path fill="none" stroke="#191970" d="M334.6926,-112.3733C364.1491,-102.3149 410.1913,-86.5932 440.3561,-76.293"/>
<polygon fill="#191970" stroke="#191970" points="441.5978,-79.5675 449.9303,-73.0238 439.3358,-72.9431 441.5978,-79.5675"/>
</g>
<!-- Node2&#45;&gt;Node9 -->
<g id="edge8" class="edge">
<title>Node2&#45;&gt;Node9</title>
<path fill="none" stroke="#191970" d="M351.0601,-112.4878C388.3882,-104.2831 443.2531,-91.6767 499.4496,-76.1468"/>
<polygon fill="#191970" stroke="#191970" points="500.5216,-79.4815 509.2129,-73.4225 498.6401,-72.7391 500.5216,-79.4815"/>
</g>
<!-- Node10 -->
<g id="node10" class="node">
<title>Node10</title>
<g id="a_node10"><a xlink:title=" ">
<polygon fill="#ffffff" stroke="#bfbfbf" points="387.5,-56.5 387.5,-75.5 431.5,-75.5 431.5,-56.5 387.5,-56.5"/>
<text text-anchor="middle" x="409.5" y="-63.5" font-family="Helvetica,sans-Serif" font-size="10.00" fill="#000000">limits</text>
</a>
</g>
</g>
<!-- Node2&#45;&gt;Node10 -->
<g id="edge10" class="edge">
<title>Node2&#45;&gt;Node10</title>
<path fill="none" stroke="#191970" d="M324.4412,-112.2455C340.54,-103.4928 364.3879,-90.527 382.7391,-80.5496"/>
<polygon fill="#191970" stroke="#191970" points="384.6507,-83.4942 391.7644,-75.6427 381.3071,-77.3444 384.6507,-83.4942"/>
</g>
<!-- Node11 -->
<g id="node11" class="node">
<title>Node11</title>
<g id="a_node11"><a xlink:title=" ">
<polygon fill="#ffffff" stroke="#bfbfbf" points="65.5,-56.5 65.5,-75.5 125.5,-75.5 125.5,-56.5 65.5,-56.5"/>
<text text-anchor="middle" x="95.5" y="-63.5" font-family="Helvetica,sans-Serif" font-size="10.00" fill="#000000">iostream</text>
</a>
</g>
</g>
<!-- Node2&#45;&gt;Node11 -->
<g id="edge11" class="edge">
<title>Node2&#45;&gt;Node11</title>
<path fill="none" stroke="#191970" d="M270.2278,-112.3733C232.6954,-102.412 174.2341,-86.8963 135.4125,-76.5929"/>
<polygon fill="#191970" stroke="#191970" points="136.0677,-73.1457 125.5045,-73.9633 134.272,-79.9114 136.0677,-73.1457"/>
</g>
<!-- Node4 -->
<g id="node4" class="node">
<title>Node4</title>
<g id="a_node4"><a xlink:title=" ">
<polygon fill="#ffffff" stroke="#bfbfbf" points="139,-.5 139,-19.5 192,-19.5 192,-.5 139,-.5"/>
<text text-anchor="middle" x="165.5" y="-7.5" font-family="Helvetica,sans-Serif" font-size="10.00" fill="#000000">stdint.h</text>
</a>
</g>
</g>
<!-- Node3&#45;&gt;Node4 -->
<g id="edge3" class="edge">
<title>Node3&#45;&gt;Node4</title>
<path fill="none" stroke="#191970" d="M165.5,-56.2455C165.5,-48.9382 165.5,-38.6944 165.5,-29.7046"/>
<polygon fill="#191970" stroke="#191970" points="169.0001,-29.6426 165.5,-19.6427 162.0001,-29.6427 169.0001,-29.6426"/>
</g>
<!-- Node5&#45;&gt;Node6 -->
<g id="edge5" class="edge">
<title>Node5&#45;&gt;Node6</title>
<path fill="none" stroke="#191970" d="M301.1002,-56.2455C296.8773,-48.617 290.8827,-37.7881 285.7559,-28.5267"/>
<polygon fill="#191970" stroke="#191970" points="288.7432,-26.6965 280.8379,-19.6427 282.619,-30.0867 288.7432,-26.6965"/>
</g>
</g>
</svg>
        <g id="navigator" transform="translate(0 0)" fill="#404254">
                <rect fill="#f2f5e9" fill-opacity="0.5" stroke="#606060" stroke-width=".5" x="0" y="0" width="60" height="60"/>
                <use id="zoomplus" xlink:href="#zoomPlus" x="17" y="9" onmousedown="handleZoom(evt,'in')"/>
                <use id="zoomminus" xlink:href="#zoomMin" x="42" y="9" onmousedown="handleZoom(evt,'out')"/>
                <use id="reset" xlink:href="#resetDef" x="30" y="36" onmousedown="handleReset()"/>
                <g id="arrowUp" xlink:href="#dirArrow" transform="translate(30 24)" onmousedown="handlePan(0,-1)">
                  <use xlink:href="#rim" fill="#404040">
                        <set attributeName="fill" to="#808080" begin="arrowUp.mouseover" end="arrowUp.mouseout"/>
                  </use>
                  <path fill="none" stroke="white" stroke-width="1.5" d="M0,-3.0v7 M-2.5,-0.5L0,-3.0L2.5,-0.5"/>
                </g>
                <g id="arrowRight" xlink:href="#dirArrow" transform="rotate(90) translate(36 -43)" onmousedown="handlePan(1,0)">
                  <use xlink:href="#rim" fill="#404040">
                        <set attributeName="fill" to="#808080" begin="arrowRight.mouseover" end="arrowRight.mouseout"/>
                  </use>
                  <path fill="none" stroke="white" stroke-width="1.5" d="M0,-3.0v7 M-2.5,-0.5L0,-3.0L2.5,-0.5"/>
                </g>
                <g id="arrowDown" xlink:href="#dirArrow" transform="rotate(180) translate(-30 -48)" onmousedown="handlePan(0,1)">
                  <use xlink:href="#rim" fill="#404040">
                        <set attributeName="fill" to="#808080" begin="arrowDown.mouseover" end="arrowDown.mouseout"/>
                  </use>
                  <path fill="none" stroke="white" stroke-width="1.5" d="M0,-3.0v7 M-2.5,-0.5L0,-3.0L2.5,-0.5"/>
                </g>
                <g id="arrowLeft" xlink:href="#dirArrow" transform="rotate(270) translate(-36 17)" onmousedown="handlePan(-1,0)">
                  <use xlink:href="#rim" fill="#404040">
                        <set attributeName="fill" to="#808080" begin="arrowLeft.mouseover" end="arrowLeft.mouseout"/>
                  </use>
                  <path fill="none" stroke="white" stroke-width="1.5" d="M0,-3.0v7 M-2.5,-0.5L0,-3.0L2.5,-0.5"/>
                </g>
        </g>
        <svg viewBox="0 0 15 15" width="100%" height="30px" preserveAspectRatio="xMaxYMin meet">
         <g id="arrow_out" transform="scale(0.3 0.3)">
          <a xlink:href="example_8cpp__incl_org.svg" target="_base">
           <rect id="button" ry="5" rx="5" y="6" x="6" height="38" width="38"
                fill="#f2f5e9" fill-opacity="0.5" stroke="#606060" stroke-width="1.0"/>
           <path id="arrow"
             d="M 11.500037,31.436501 C 11.940474,20.09759 22.043105,11.32322 32.158766,21.979434 L 37.068811,17.246167 C 37.068811,17.246167 37.088388,32 37.088388,32 L 22.160133,31.978069 C 22.160133,31.978069 26.997745,27.140456 26.997745,27.140456 C 18.528582,18.264221 13.291696,25.230495 11.500037,31.436501 z"
             style="fill:#404040;"/>
          </a>
         </g>
        </svg>
</svg>
