<?xml version="1.0" encoding="UTF-8" standalone="no"?>
<!DOCTYPE svg PUBLIC "-//W3C//DTD SVG 1.1//EN"
 "http://www.w3.org/Graphics/SVG/1.1/DTD/svg11.dtd">
<!-- Generated by graphviz version 2.40.1 (20161225.0304)
 -->
<!-- Title: hw0_cicd/src/main.cpp Pages: 1 -->
<svg width="148pt" height="84pt"
 viewBox="0.00 0.00 148.00 84.00" xmlns="http://www.w3.org/2000/svg" xmlns:xlink="http://www.w3.org/1999/xlink">
<g id="graph0" class="graph" transform="scale(1 1) rotate(0) translate(4 80)">
<title>hw0_cicd/src/main.cpp</title>
<polygon fill="#ffffff" stroke="transparent" points="-4,4 -4,-80 144,-80 144,4 -4,4"/>
<!-- Node1 -->
<g id="node1" class="node">
<title>Node1</title>
<g id="a_node1"><a xlink:title=" ">
<polygon fill="#bfbfbf" stroke="#000000" points="6.5,-56.5 6.5,-75.5 133.5,-75.5 133.5,-56.5 6.5,-56.5"/>
<text text-anchor="middle" x="70" y="-63.5" font-family="Helvetica,sans-Serif" font-size="10.00" fill="#000000">hw0_cicd/src/main.cpp</text>
</a>
</g>
</g>
<!-- Node2 -->
<g id="node2" class="node">
<title>Node2</title>
<g id="a_node2"><a xlink:href="version_8h.html" target="_top" xlink:title=" ">
<polygon fill="#ffffff" stroke="#000000" points="0,-.5 0,-19.5 62,-19.5 62,-.5 0,-.5"/>
<text text-anchor="middle" x="31" y="-7.5" font-family="Helvetica,sans-Serif" font-size="10.00" fill="#000000">version.h</text>
</a>
</g>
</g>
<!-- Node1&#45;&gt;Node2 -->
<g id="edge1" class="edge">
<title>Node1&#45;&gt;Node2</title>
<path fill="none" stroke="#191970" d="M63.2067,-56.2455C57.7822,-48.4564 50.0339,-37.3308 43.4967,-27.9439"/>
<polygon fill="#191970" stroke="#191970" points="46.3025,-25.8485 37.7154,-19.6427 40.5583,-29.849 46.3025,-25.8485"/>
</g>
<!-- Node3 -->
<g id="node3" class="node">
<title>Node3</title>
<g id="a_node3"><a xlink:title=" ">
<polygon fill="#ffffff" stroke="#bfbfbf" points="80,-.5 80,-19.5 140,-19.5 140,-.5 80,-.5"/>
<text text-anchor="middle" x="110" y="-7.5" font-family="Helvetica,sans-Serif" font-size="10.00" fill="#000000">iostream</text>
</a>
</g>
</g>
<!-- Node1&#45;&gt;Node3 -->
<g id="edge2" class="edge">
<title>Node1&#45;&gt;Node3</title>
<path fill="none" stroke="#191970" d="M76.9675,-56.2455C82.5311,-48.4564 90.478,-37.3308 97.1829,-27.9439"/>
<polygon fill="#191970" stroke="#191970" points="100.148,-29.8144 103.1124,-19.6427 94.4519,-25.7457 100.148,-29.8144"/>
</g>
</g>
</svg>
