<?xml version="1.0" encoding="UTF-8" standalone="no"?>
<!DOCTYPE svg PUBLIC "-//W3C//DTD SVG 1.1//EN"
 "http://www.w3.org/Graphics/SVG/1.1/DTD/svg11.dtd">
<!-- Generated by graphviz version 2.40.1 (20161225.0304)
 -->
<!-- Title: hw1_ip_filter/src/RequiredOutputsModule/main.cpp Pages: 1 -->
<svg width="873pt" height="386pt"
 viewBox="0.00 0.00 873.20 386.00" xmlns="http://www.w3.org/2000/svg" xmlns:xlink="http://www.w3.org/1999/xlink">
<g id="graph0" class="graph" transform="scale(1 1) rotate(0) translate(4 382)">
<title>hw1_ip_filter/src/RequiredOutputsModule/main.cpp</title>
<polygon fill="#ffffff" stroke="transparent" points="-4,4 -4,-382 869.1968,-382 869.1968,4 -4,4"/>
<!-- Node1 -->
<g id="node1" class="node">
<title>Node1</title>
<g id="a_node1"><a xlink:title=" ">
<polygon fill="#bfbfbf" stroke="#000000" points="177.6968,-347.5 177.6968,-377.5 319.6968,-377.5 319.6968,-347.5 177.6968,-347.5"/>
<text text-anchor="start" x="185.6968" y="-365.5" font-family="Helvetica,sans-Serif" font-size="10.00" fill="#000000">hw1_ip_filter/src/Required</text>
<text text-anchor="middle" x="248.6968" y="-354.5" font-family="Helvetica,sans-Serif" font-size="10.00" fill="#000000">OutputsModule/main.cpp</text>
</a>
</g>
</g>
<!-- Node2 -->
<g id="node2" class="node">
<title>Node2</title>
<g id="a_node2"><a xlink:href="_string_functions_8h.html" target="_top" xlink:title=" ">
<polygon fill="#ffffff" stroke="#000000" points="14.1968,-291.5 14.1968,-310.5 183.1968,-310.5 183.1968,-291.5 14.1968,-291.5"/>
<text text-anchor="middle" x="98.6968" y="-298.5" font-family="Helvetica,sans-Serif" font-size="10.00" fill="#000000">StringAddOns/StringFunctions.h</text>
</a>
</g>
</g>
<!-- Node1&#45;&gt;Node2 -->
<g id="edge1" class="edge">
<title>Node1&#45;&gt;Node2</title>
<path fill="none" stroke="#191970" d="M212.0026,-347.4554C187.3041,-337.329 155.0294,-324.0964 131.2462,-314.3453"/>
<polygon fill="#191970" stroke="#191970" points="132.5217,-311.0855 121.9414,-310.5303 129.8662,-317.5623 132.5217,-311.0855"/>
</g>
<!-- Node3 -->
<g id="node3" class="node">
<title>Node3</title>
<g id="a_node3"><a xlink:title=" ">
<polygon fill="#ffffff" stroke="#bfbfbf" points="19.1968,-235.5 19.1968,-254.5 66.1968,-254.5 66.1968,-235.5 19.1968,-235.5"/>
<text text-anchor="middle" x="42.6968" y="-242.5" font-family="Helvetica,sans-Serif" font-size="10.00" fill="#000000">vector</text>
</a>
</g>
</g>
<!-- Node1&#45;&gt;Node3 -->
<g id="edge29" class="edge">
<title>Node1&#45;&gt;Node3</title>
<path fill="none" stroke="#191970" d="M177.6637,-357.2553C113.5798,-350.8714 26.1719,-337.481 4.6968,-311 -7.9268,-295.4339 7.7207,-275.1626 22.5862,-261.2153"/>
<polygon fill="#191970" stroke="#191970" points="24.9508,-263.7966 30.1348,-254.5567 20.3202,-258.5471 24.9508,-263.7966"/>
</g>
<!-- Node4 -->
<g id="node4" class="node">
<title>Node4</title>
<g id="a_node4"><a xlink:title=" ">
<polygon fill="#ffffff" stroke="#bfbfbf" points="176.6968,-112.5 176.6968,-131.5 220.6968,-131.5 220.6968,-112.5 176.6968,-112.5"/>
<text text-anchor="middle" x="198.6968" y="-119.5" font-family="Helvetica,sans-Serif" font-size="10.00" fill="#000000">string</text>
</a>
</g>
</g>
<!-- Node1&#45;&gt;Node4 -->
<g id="edge30" class="edge">
<title>Node1&#45;&gt;Node4</title>
<path fill="none" stroke="#191970" d="M244.2201,-347.2545C241.3046,-337.0455 237.5305,-323.2782 234.6968,-311 220.5917,-249.8857 207.8102,-176.7414 201.9993,-142.0949"/>
<polygon fill="#191970" stroke="#191970" points="205.3961,-141.1849 200.304,-131.894 198.4908,-142.3325 205.3961,-141.1849"/>
</g>
<!-- Node5 -->
<g id="node5" class="node">
<title>Node5</title>
<g id="a_node5"><a xlink:href="_ip_storage_printer_8h.html" target="_top" xlink:title=" ">
<polygon fill="#ffffff" stroke="#000000" points="601.6968,-291.5 601.6968,-310.5 741.6968,-310.5 741.6968,-291.5 601.6968,-291.5"/>
<text text-anchor="middle" x="671.6968" y="-298.5" font-family="Helvetica,sans-Serif" font-size="10.00" fill="#000000">IpFilter/IpStoragePrinter.h</text>
</a>
</g>
</g>
<!-- Node1&#45;&gt;Node5 -->
<g id="edge4" class="edge">
<title>Node1&#45;&gt;Node5</title>
<path fill="none" stroke="#191970" d="M319.9746,-352.1369C396.476,-341.0144 517.5246,-323.4151 595.7738,-312.0384"/>
<polygon fill="#191970" stroke="#191970" points="596.6544,-315.4473 606.0468,-310.5449 595.6472,-308.5201 596.6544,-315.4473"/>
</g>
<!-- Node6 -->
<g id="node6" class="node">
<title>Node6</title>
<g id="a_node6"><a xlink:href="_ip_storage_8h.html" target="_top" xlink:title=" ">
<polygon fill="#ffffff" stroke="#000000" points="570.6968,-235.5 570.6968,-254.5 642.6968,-254.5 642.6968,-235.5 570.6968,-235.5"/>
<text text-anchor="middle" x="606.6968" y="-242.5" font-family="Helvetica,sans-Serif" font-size="10.00" fill="#000000">IpStorage.h</text>
</a>
</g>
</g>
<!-- Node1&#45;&gt;Node6 -->
<g id="edge27" class="edge">
<title>Node1&#45;&gt;Node6</title>
<path fill="none" stroke="#191970" d="M294.4013,-347.4992C365.4028,-324.1957 500.9551,-279.7057 567.6548,-257.814"/>
<polygon fill="#191970" stroke="#191970" points="568.9546,-261.0712 577.3645,-254.6272 566.7717,-254.4203 568.9546,-261.0712"/>
</g>
<!-- Node7 -->
<g id="node7" class="node">
<title>Node7</title>
<g id="a_node7"><a xlink:href="_ip_v4_8h.html" target="_top" xlink:title=" ">
<polygon fill="#ffffff" stroke="#000000" points="277.1968,-174 277.1968,-193 324.1968,-193 324.1968,-174 277.1968,-174"/>
<text text-anchor="middle" x="300.6968" y="-181" font-family="Helvetica,sans-Serif" font-size="10.00" fill="#000000">IpV4.h</text>
</a>
</g>
</g>
<!-- Node1&#45;&gt;Node7 -->
<g id="edge28" class="edge">
<title>Node1&#45;&gt;Node7</title>
<path fill="none" stroke="#191970" d="M253.1303,-347.2386C262.5677,-314.752 284.6308,-238.8041 295.0532,-202.9268"/>
<polygon fill="#191970" stroke="#191970" points="298.4585,-203.7508 297.8872,-193.1714 291.7364,-201.798 298.4585,-203.7508"/>
</g>
<!-- Node12 -->
<g id="node12" class="node">
<title>Node12</title>
<g id="a_node12"><a xlink:title=" ">
<polygon fill="#ffffff" stroke="#bfbfbf" points="251.6968,-56.5 251.6968,-75.5 311.6968,-75.5 311.6968,-56.5 251.6968,-56.5"/>
<text text-anchor="middle" x="281.6968" y="-63.5" font-family="Helvetica,sans-Serif" font-size="10.00" fill="#000000">iostream</text>
</a>
</g>
</g>
<!-- Node1&#45;&gt;Node12 -->
<g id="edge31" class="edge">
<title>Node1&#45;&gt;Node12</title>
<path fill="none" stroke="#191970" d="M248.6968,-347.2899C248.6968,-324.892 248.6968,-281.7188 248.6968,-245 248.6968,-245 248.6968,-245 248.6968,-183.5 248.6968,-147.6698 263.0957,-107.9063 272.871,-85.0396"/>
<polygon fill="#191970" stroke="#191970" points="276.1152,-86.3575 276.9687,-75.7971 269.7159,-83.5203 276.1152,-86.3575"/>
</g>
<!-- Node2&#45;&gt;Node3 -->
<g id="edge2" class="edge">
<title>Node2&#45;&gt;Node3</title>
<path fill="none" stroke="#191970" d="M88.9423,-291.2455C80.832,-283.1352 69.1043,-271.4075 59.4887,-261.7919"/>
<polygon fill="#191970" stroke="#191970" points="61.8854,-259.2389 52.3394,-254.6427 56.9356,-264.1887 61.8854,-259.2389"/>
</g>
<!-- Node2&#45;&gt;Node4 -->
<g id="edge3" class="edge">
<title>Node2&#45;&gt;Node4</title>
<path fill="none" stroke="#191970" d="M104.0732,-291.3762C120.0121,-262.8455 167.208,-178.3648 188.3043,-140.6024"/>
<polygon fill="#191970" stroke="#191970" points="191.4721,-142.1085 193.2937,-131.6714 185.3611,-138.6944 191.4721,-142.1085"/>
</g>
<!-- Node5&#45;&gt;Node6 -->
<g id="edge5" class="edge">
<title>Node5&#45;&gt;Node6</title>
<path fill="none" stroke="#191970" d="M660.3746,-291.2455C650.7744,-282.9746 636.8076,-270.9416 625.5273,-261.2232"/>
<polygon fill="#191970" stroke="#191970" points="627.7498,-258.5182 617.8891,-254.6427 623.1808,-263.8214 627.7498,-258.5182"/>
</g>
<!-- Node18 -->
<g id="node18" class="node">
<title>Node18</title>
<g id="a_node18"><a xlink:title=" ">
<polygon fill="#ffffff" stroke="#bfbfbf" points="749.1968,-174 749.1968,-193 806.1968,-193 806.1968,-174 749.1968,-174"/>
<text text-anchor="middle" x="777.6968" y="-181" font-family="Helvetica,sans-Serif" font-size="10.00" fill="#000000">ostream</text>
</a>
</g>
</g>
<!-- Node5&#45;&gt;Node18 -->
<g id="edge25" class="edge">
<title>Node5&#45;&gt;Node18</title>
<path fill="none" stroke="#191970" d="M680.3712,-291.3845C698.2294,-271.5889 739.3228,-226.0372 761.9841,-200.9173"/>
<polygon fill="#191970" stroke="#191970" points="764.8029,-203.0179 768.9025,-193.2484 759.6053,-198.329 764.8029,-203.0179"/>
</g>
<!-- Node20 -->
<g id="node20" class="node">
<title>Node20</title>
<g id="a_node20"><a xlink:title=" ">
<polygon fill="#ffffff" stroke="#bfbfbf" points="824.1968,-174 824.1968,-193 865.1968,-193 865.1968,-174 824.1968,-174"/>
<text text-anchor="middle" x="844.6968" y="-181" font-family="Helvetica,sans-Serif" font-size="10.00" fill="#000000">tuple</text>
</a>
</g>
</g>
<!-- Node5&#45;&gt;Node20 -->
<g id="edge26" class="edge">
<title>Node5&#45;&gt;Node20</title>
<path fill="none" stroke="#191970" d="M685.8541,-291.3845C715.7603,-271.0724 785.5925,-223.6431 821.8844,-198.9939"/>
<polygon fill="#191970" stroke="#191970" points="824.0379,-201.7623 830.3438,-193.2484 820.1049,-195.9716 824.0379,-201.7623"/>
</g>
<!-- Node6&#45;&gt;Node7 -->
<g id="edge6" class="edge">
<title>Node6&#45;&gt;Node7</title>
<path fill="none" stroke="#191970" d="M570.6332,-242.0706C517.6918,-237.0703 416.2702,-224.8166 333.6968,-199 331.8391,-198.4192 329.9515,-197.7543 328.0681,-197.0338"/>
<polygon fill="#191970" stroke="#191970" points="329.4143,-193.803 318.8427,-193.1013 326.6693,-200.2424 329.4143,-193.803"/>
</g>
<!-- Node9 -->
<g id="node9" class="node">
<title>Node9</title>
<g id="a_node9"><a xlink:href="_type_traits_8h.html" target="_top" xlink:title=" ">
<polygon fill="#ffffff" stroke="#000000" points="592.6968,-56.5 592.6968,-75.5 718.6968,-75.5 718.6968,-56.5 592.6968,-56.5"/>
<text text-anchor="middle" x="655.6968" y="-63.5" font-family="Helvetica,sans-Serif" font-size="10.00" fill="#000000">TypeTraits/TypeTraits.h</text>
</a>
</g>
</g>
<!-- Node6&#45;&gt;Node9 -->
<g id="edge19" class="edge">
<title>Node6&#45;&gt;Node9</title>
<path fill="none" stroke="#191970" d="M642.9283,-237.5033C663.9934,-231.0845 688.8495,-219.4949 701.6968,-199 725.2474,-161.4303 692.2885,-110.2866 671.106,-83.6962"/>
<polygon fill="#191970" stroke="#191970" points="673.5427,-81.1506 664.4725,-75.6749 668.1484,-85.6117 673.5427,-81.1506"/>
</g>
<!-- Node15 -->
<g id="node15" class="node">
<title>Node15</title>
<g id="a_node15"><a xlink:href="_operation_result_8h.html" target="_top" xlink:title=" ">
<polygon fill="#ffffff" stroke="#000000" points="342.6968,-168.5 342.6968,-198.5 488.6968,-198.5 488.6968,-168.5 342.6968,-168.5"/>
<text text-anchor="start" x="350.6968" y="-186.5" font-family="Helvetica,sans-Serif" font-size="10.00" fill="#000000">OperationResult/Operation</text>
<text text-anchor="middle" x="415.6968" y="-175.5" font-family="Helvetica,sans-Serif" font-size="10.00" fill="#000000">Result.h</text>
</a>
</g>
</g>
<!-- Node6&#45;&gt;Node15 -->
<g id="edge14" class="edge">
<title>Node6&#45;&gt;Node15</title>
<path fill="none" stroke="#191970" d="M576.853,-235.3906C548.969,-226.4123 506.6112,-212.7735 472.3185,-201.7316"/>
<polygon fill="#191970" stroke="#191970" points="473.0121,-198.278 462.4206,-198.5446 470.8666,-204.9411 473.0121,-198.278"/>
</g>
<!-- Node17 -->
<g id="node17" class="node">
<title>Node17</title>
<g id="a_node17"><a xlink:title=" ">
<polygon fill="#ffffff" stroke="#bfbfbf" points="506.6968,-174 506.6968,-193 538.6968,-193 538.6968,-174 506.6968,-174"/>
<text text-anchor="middle" x="522.6968" y="-181" font-family="Helvetica,sans-Serif" font-size="10.00" fill="#000000">set</text>
</a>
</g>
</g>
<!-- Node6&#45;&gt;Node17 -->
<g id="edge20" class="edge">
<title>Node6&#45;&gt;Node17</title>
<path fill="none" stroke="#191970" d="M593.5718,-235.3906C580.2567,-225.6421 559.4374,-210.3994 543.802,-198.9521"/>
<polygon fill="#191970" stroke="#191970" points="545.8658,-196.1253 535.7296,-193.0419 541.7306,-201.7734 545.8658,-196.1253"/>
</g>
<!-- Node6&#45;&gt;Node18 -->
<g id="edge21" class="edge">
<title>Node6&#45;&gt;Node18</title>
<path fill="none" stroke="#191970" d="M633.1753,-235.4927C659.0617,-226.196 699.5917,-211.635 734.6968,-199 736.9647,-198.1837 739.2999,-197.3429 741.6543,-196.4949"/>
<polygon fill="#191970" stroke="#191970" points="743.0976,-199.6952 751.3192,-193.0127 740.7248,-193.1096 743.0976,-199.6952"/>
</g>
<!-- Node19 -->
<g id="node19" class="node">
<title>Node19</title>
<g id="a_node19"><a xlink:title=" ">
<polygon fill="#ffffff" stroke="#bfbfbf" points="557.1968,-174 557.1968,-193 610.1968,-193 610.1968,-174 557.1968,-174"/>
<text text-anchor="middle" x="583.6968" y="-181" font-family="Helvetica,sans-Serif" font-size="10.00" fill="#000000">iterator</text>
</a>
</g>
</g>
<!-- Node6&#45;&gt;Node19 -->
<g id="edge22" class="edge">
<title>Node6&#45;&gt;Node19</title>
<path fill="none" stroke="#191970" d="M603.103,-235.3906C599.8477,-226.6862 594.9542,-213.6015 590.8957,-202.7494"/>
<polygon fill="#191970" stroke="#191970" points="594.1224,-201.3852 587.3412,-193.2449 587.5659,-203.8373 594.1224,-201.3852"/>
</g>
<!-- Node6&#45;&gt;Node20 -->
<g id="edge23" class="edge">
<title>Node6&#45;&gt;Node20</title>
<path fill="none" stroke="#191970" d="M643.0505,-240.0952C685.4331,-233.6759 757.1442,-220.6223 815.6968,-199 816.9318,-198.5439 818.1797,-198.0442 819.4281,-197.5125"/>
<polygon fill="#191970" stroke="#191970" points="821.3101,-200.491 828.8029,-193.0004 818.2743,-194.1835 821.3101,-200.491"/>
</g>
<!-- Node21 -->
<g id="node21" class="node">
<title>Node21</title>
<g id="a_node21"><a xlink:title=" ">
<polygon fill="#ffffff" stroke="#bfbfbf" points="628.6968,-174 628.6968,-193 692.6968,-193 692.6968,-174 628.6968,-174"/>
<text text-anchor="middle" x="660.6968" y="-181" font-family="Helvetica,sans-Serif" font-size="10.00" fill="#000000">algorithm</text>
</a>
</g>
</g>
<!-- Node6&#45;&gt;Node21 -->
<g id="edge24" class="edge">
<title>Node6&#45;&gt;Node21</title>
<path fill="none" stroke="#191970" d="M615.1343,-235.3906C623.2499,-226.1478 635.7022,-211.966 645.5391,-200.7628"/>
<polygon fill="#191970" stroke="#191970" points="648.1723,-203.0686 652.1403,-193.2449 642.9122,-198.45 648.1723,-203.0686"/>
</g>
<!-- Node8 -->
<g id="node8" class="node">
<title>Node8</title>
<g id="a_node8"><a xlink:href="_generic_ip_8h.html" target="_top" xlink:title=" ">
<polygon fill="#ffffff" stroke="#000000" points="314.6968,-112.5 314.6968,-131.5 386.6968,-131.5 386.6968,-112.5 314.6968,-112.5"/>
<text text-anchor="middle" x="350.6968" y="-119.5" font-family="Helvetica,sans-Serif" font-size="10.00" fill="#000000">GenericIp.h</text>
</a>
</g>
</g>
<!-- Node7&#45;&gt;Node8 -->
<g id="edge7" class="edge">
<title>Node7&#45;&gt;Node8</title>
<path fill="none" stroke="#191970" d="M308.5093,-173.8906C315.9508,-164.7376 327.3302,-150.7409 336.396,-139.59"/>
<polygon fill="#191970" stroke="#191970" points="339.1815,-141.712 342.7741,-131.7449 333.75,-137.2962 339.1815,-141.712"/>
</g>
<!-- Node8&#45;&gt;Node9 -->
<g id="edge8" class="edge">
<title>Node8&#45;&gt;Node9</title>
<path fill="none" stroke="#191970" d="M387.0174,-113.7863C389.9506,-113.1664 392.8713,-112.5636 395.6968,-112 460.7347,-99.0266 535.3012,-86.0252 587.8542,-77.1708"/>
<polygon fill="#191970" stroke="#191970" points="588.4504,-80.6198 597.7325,-75.5117 587.2908,-73.7165 588.4504,-80.6198"/>
</g>
<!-- Node11 -->
<g id="node11" class="node">
<title>Node11</title>
<g id="a_node11"><a xlink:title=" ">
<polygon fill="#ffffff" stroke="#bfbfbf" points="329.6968,-56.5 329.6968,-75.5 371.6968,-75.5 371.6968,-56.5 329.6968,-56.5"/>
<text text-anchor="middle" x="350.6968" y="-63.5" font-family="Helvetica,sans-Serif" font-size="10.00" fill="#000000">array</text>
</a>
</g>
</g>
<!-- Node8&#45;&gt;Node11 -->
<g id="edge10" class="edge">
<title>Node8&#45;&gt;Node11</title>
<path fill="none" stroke="#191970" d="M350.6968,-112.2455C350.6968,-104.9382 350.6968,-94.6944 350.6968,-85.7046"/>
<polygon fill="#191970" stroke="#191970" points="354.1969,-85.6426 350.6968,-75.6427 347.1969,-85.6427 354.1969,-85.6426"/>
</g>
<!-- Node8&#45;&gt;Node12 -->
<g id="edge11" class="edge">
<title>Node8&#45;&gt;Node12</title>
<path fill="none" stroke="#191970" d="M338.6779,-112.2455C328.4869,-103.9746 313.6606,-91.9416 301.6861,-82.2232"/>
<polygon fill="#191970" stroke="#191970" points="303.5481,-79.2268 293.5779,-75.6427 299.1369,-84.662 303.5481,-79.2268"/>
</g>
<!-- Node13 -->
<g id="node13" class="node">
<title>Node13</title>
<g id="a_node13"><a xlink:title=" ">
<polygon fill="#ffffff" stroke="#bfbfbf" points="463.1968,-56.5 463.1968,-75.5 508.1968,-75.5 508.1968,-56.5 463.1968,-56.5"/>
<text text-anchor="middle" x="485.6968" y="-63.5" font-family="Helvetica,sans-Serif" font-size="10.00" fill="#000000">utility</text>
</a>
</g>
</g>
<!-- Node8&#45;&gt;Node13 -->
<g id="edge12" class="edge">
<title>Node8&#45;&gt;Node13</title>
<path fill="none" stroke="#191970" d="M373.9041,-112.3733C395.8666,-103.2629 429.0299,-89.5062 453.5369,-79.3404"/>
<polygon fill="#191970" stroke="#191970" points="454.8965,-82.5657 462.7923,-75.5011 452.2144,-76.0999 454.8965,-82.5657"/>
</g>
<!-- Node14 -->
<g id="node14" class="node">
<title>Node14</title>
<g id="a_node14"><a xlink:title=" ">
<polygon fill="#ffffff" stroke="#bfbfbf" points="389.6968,-56.5 389.6968,-75.5 441.6968,-75.5 441.6968,-56.5 389.6968,-56.5"/>
<text text-anchor="middle" x="415.6968" y="-63.5" font-family="Helvetica,sans-Serif" font-size="10.00" fill="#000000">cassert</text>
</a>
</g>
</g>
<!-- Node8&#45;&gt;Node14 -->
<g id="edge13" class="edge">
<title>Node8&#45;&gt;Node14</title>
<path fill="none" stroke="#191970" d="M362.0189,-112.2455C371.6191,-103.9746 385.5859,-91.9416 396.8662,-82.2232"/>
<polygon fill="#191970" stroke="#191970" points="399.2128,-84.8214 404.5044,-75.6427 394.6438,-79.5182 399.2128,-84.8214"/>
</g>
<!-- Node10 -->
<g id="node10" class="node">
<title>Node10</title>
<g id="a_node10"><a xlink:title=" ">
<polygon fill="#ffffff" stroke="#bfbfbf" points="621.1968,-.5 621.1968,-19.5 690.1968,-19.5 690.1968,-.5 621.1968,-.5"/>
<text text-anchor="middle" x="655.6968" y="-7.5" font-family="Helvetica,sans-Serif" font-size="10.00" fill="#000000">type_traits</text>
</a>
</g>
</g>
<!-- Node9&#45;&gt;Node10 -->
<g id="edge9" class="edge">
<title>Node9&#45;&gt;Node10</title>
<path fill="none" stroke="#191970" d="M655.6968,-56.2455C655.6968,-48.9382 655.6968,-38.6944 655.6968,-29.7046"/>
<polygon fill="#191970" stroke="#191970" points="659.1969,-29.6426 655.6968,-19.6427 652.1969,-29.6427 659.1969,-29.6426"/>
</g>
<!-- Node15&#45;&gt;Node4 -->
<g id="edge15" class="edge">
<title>Node15&#45;&gt;Node4</title>
<path fill="none" stroke="#191970" d="M362.6126,-168.4554C321.4494,-156.7893 265.7398,-141.0007 231.0248,-131.1621"/>
<polygon fill="#191970" stroke="#191970" points="231.54,-127.6703 220.9646,-128.3109 229.6313,-134.4051 231.54,-127.6703"/>
</g>
<!-- Node15&#45;&gt;Node12 -->
<g id="edge16" class="edge">
<title>Node15&#45;&gt;Node12</title>
<path fill="none" stroke="#191970" d="M362.7588,-168.3899C342.6397,-160.3773 320.9246,-148.6489 305.6968,-132 293.8935,-119.0953 287.7825,-99.9317 284.6905,-85.5742"/>
<polygon fill="#191970" stroke="#191970" points="288.1277,-84.9134 282.8702,-75.7151 281.2441,-86.1844 288.1277,-84.9134"/>
</g>
<!-- Node15&#45;&gt;Node13 -->
<g id="edge18" class="edge">
<title>Node15&#45;&gt;Node13</title>
<path fill="none" stroke="#191970" d="M436.748,-168.3032C448.1181,-159.0356 461.4723,-146.2497 469.6968,-132 477.8927,-117.7997 481.9057,-99.5517 483.8617,-85.8437"/>
<polygon fill="#191970" stroke="#191970" points="487.3761,-85.9256 485.0676,-75.5854 480.4239,-85.1083 487.3761,-85.9256"/>
</g>
<!-- Node16 -->
<g id="node16" class="node">
<title>Node16</title>
<g id="a_node16"><a xlink:title=" ">
<polygon fill="#ffffff" stroke="#bfbfbf" points="404.6968,-112.5 404.6968,-131.5 460.6968,-131.5 460.6968,-112.5 404.6968,-112.5"/>
<text text-anchor="middle" x="432.6968" y="-119.5" font-family="Helvetica,sans-Serif" font-size="10.00" fill="#000000">sstream</text>
</a>
</g>
</g>
<!-- Node15&#45;&gt;Node16 -->
<g id="edge17" class="edge">
<title>Node15&#45;&gt;Node16</title>
<path fill="none" stroke="#191970" d="M419.899,-168.2977C422.1359,-160.2055 424.9116,-150.1639 427.3057,-141.5029"/>
<polygon fill="#191970" stroke="#191970" points="430.6839,-142.418 429.9748,-131.8469 423.937,-140.5529 430.6839,-142.418"/>
</g>
</g>
</svg>
