<?xml version="1.0" encoding="UTF-8" standalone="no"?>
<!DOCTYPE svg PUBLIC "-//W3C//DTD SVG 1.1//EN"
 "http://www.w3.org/Graphics/SVG/1.1/DTD/svg11.dtd">
<!-- Generated by graphviz version 2.40.1 (20161225.0304)
 -->
<!-- Title: hw1_ip_filter/src/IpFilterExample/main.cpp Pages: 1 -->
<svg width="869pt" height="498pt"
 viewBox="0.00 0.00 869.00 498.00" xmlns="http://www.w3.org/2000/svg" xmlns:xlink="http://www.w3.org/1999/xlink">
<g id="graph0" class="graph" transform="scale(1 1) rotate(0) translate(4 494)">
<title>hw1_ip_filter/src/IpFilterExample/main.cpp</title>
<polygon fill="#ffffff" stroke="transparent" points="-4,4 -4,-494 865,-494 865,4 -4,4"/>
<!-- Node1 -->
<g id="node1" class="node">
<title>Node1</title>
<g id="a_node1"><a xlink:title=" ">
<polygon fill="#bfbfbf" stroke="#000000" points="196,-459.5 196,-489.5 328,-489.5 328,-459.5 196,-459.5"/>
<text text-anchor="start" x="204" y="-477.5" font-family="Helvetica,sans-Serif" font-size="10.00" fill="#000000">hw1_ip_filter/src/IpFilter</text>
<text text-anchor="middle" x="262" y="-466.5" font-family="Helvetica,sans-Serif" font-size="10.00" fill="#000000">Example/main.cpp</text>
</a>
</g>
</g>
<!-- Node2 -->
<g id="node2" class="node">
<title>Node2</title>
<g id="a_node2"><a xlink:href="_string_functions_8h.html" target="_top" xlink:title=" ">
<polygon fill="#ffffff" stroke="#000000" points="65.5,-230 65.5,-249 234.5,-249 234.5,-230 65.5,-230"/>
<text text-anchor="middle" x="150" y="-237" font-family="Helvetica,sans-Serif" font-size="10.00" fill="#000000">StringAddOns/StringFunctions.h</text>
</a>
</g>
</g>
<!-- Node1&#45;&gt;Node2 -->
<g id="edge1" class="edge">
<title>Node1&#45;&gt;Node2</title>
<path fill="none" stroke="#191970" d="M254.8235,-459.4422C235.2049,-418.2781 180.7009,-303.9171 159.0423,-258.4726"/>
<polygon fill="#191970" stroke="#191970" points="162.0728,-256.696 154.6109,-249.1746 155.7537,-259.7076 162.0728,-256.696"/>
</g>
<!-- Node3 -->
<g id="node3" class="node">
<title>Node3</title>
<g id="a_node3"><a xlink:title=" ">
<polygon fill="#ffffff" stroke="#bfbfbf" points="77.5,-168.5 77.5,-187.5 124.5,-187.5 124.5,-168.5 77.5,-168.5"/>
<text text-anchor="middle" x="101" y="-175.5" font-family="Helvetica,sans-Serif" font-size="10.00" fill="#000000">vector</text>
</a>
</g>
</g>
<!-- Node1&#45;&gt;Node3 -->
<g id="edge36" class="edge">
<title>Node1&#45;&gt;Node3</title>
<path fill="none" stroke="#191970" d="M195.7018,-467.7362C129.6496,-456.9008 38,-428.9099 38,-357 38,-357 38,-357 38,-301 38,-265.8551 39.0882,-254.8083 56,-224 62.174,-212.7528 71.8648,-202.3393 80.6746,-194.275"/>
<polygon fill="#191970" stroke="#191970" points="83.1364,-196.7727 88.3913,-187.5729 78.5462,-191.4877 83.1364,-196.7727"/>
</g>
<!-- Node4 -->
<g id="node4" class="node">
<title>Node4</title>
<g id="a_node4"><a xlink:title=" ">
<polygon fill="#ffffff" stroke="#bfbfbf" points="237,-168.5 237,-187.5 281,-187.5 281,-168.5 237,-168.5"/>
<text text-anchor="middle" x="259" y="-175.5" font-family="Helvetica,sans-Serif" font-size="10.00" fill="#000000">string</text>
</a>
</g>
</g>
<!-- Node1&#45;&gt;Node4 -->
<g id="edge37" class="edge">
<title>Node1&#45;&gt;Node4</title>
<path fill="none" stroke="#191970" d="M262,-459.2899C262,-436.892 262,-393.7188 262,-357 262,-357 262,-357 262,-301 262,-264.4885 260.6626,-221.8988 259.7737,-197.6249"/>
<polygon fill="#191970" stroke="#191970" points="263.2688,-197.4273 259.3922,-187.5672 256.2738,-197.6927 263.2688,-197.4273"/>
</g>
<!-- Node5 -->
<g id="node5" class="node">
<title>Node5</title>
<g id="a_node5"><a xlink:href="_ip_v4_8h.html" target="_top" xlink:title=" ">
<polygon fill="#ffffff" stroke="#000000" points="588.5,-168.5 588.5,-187.5 671.5,-187.5 671.5,-168.5 588.5,-168.5"/>
<text text-anchor="middle" x="630" y="-175.5" font-family="Helvetica,sans-Serif" font-size="10.00" fill="#000000">IpFilter/IpV4.h</text>
</a>
</g>
</g>
<!-- Node1&#45;&gt;Node5 -->
<g id="edge4" class="edge">
<title>Node1&#45;&gt;Node5</title>
<path fill="none" stroke="#191970" d="M328.2796,-471.3703C444.3567,-465.266 679.4701,-449.9529 757,-423 808.7087,-405.0237 861,-411.7443 861,-357 861,-357 861,-357 861,-301 861,-220.2931 749.783,-192.3673 681.6898,-182.833"/>
<polygon fill="#191970" stroke="#191970" points="681.9351,-179.3353 671.565,-181.5054 681.025,-186.2759 681.9351,-179.3353"/>
</g>
<!-- Node10 -->
<g id="node10" class="node">
<title>Node10</title>
<g id="a_node10"><a xlink:title=" ">
<polygon fill="#ffffff" stroke="#bfbfbf" points="279,-56.5 279,-75.5 339,-75.5 339,-56.5 279,-56.5"/>
<text text-anchor="middle" x="309" y="-63.5" font-family="Helvetica,sans-Serif" font-size="10.00" fill="#000000">iostream</text>
</a>
</g>
</g>
<!-- Node1&#45;&gt;Node10 -->
<g id="edge38" class="edge">
<title>Node1&#45;&gt;Node10</title>
<path fill="none" stroke="#191970" d="M195.8051,-463.4325C142.9153,-453.6808 73.8346,-438.6288 50,-423 19.2256,-402.8206 0,-393.8004 0,-357 0,-357 0,-357 0,-178 0,-121.4434 185.2788,-85.3192 268.8976,-71.8958"/>
<polygon fill="#191970" stroke="#191970" points="269.4755,-75.348 278.8092,-70.3348 268.3864,-68.4332 269.4755,-75.348"/>
</g>
<!-- Node13 -->
<g id="node13" class="node">
<title>Node13</title>
<g id="a_node13"><a xlink:href="_ip_storage_8h.html" target="_top" xlink:title=" ">
<polygon fill="#ffffff" stroke="#000000" points="526,-347.5 526,-366.5 634,-366.5 634,-347.5 526,-347.5"/>
<text text-anchor="middle" x="580" y="-354.5" font-family="Helvetica,sans-Serif" font-size="10.00" fill="#000000">IpFilter/IpStorage.h</text>
</a>
</g>
</g>
<!-- Node1&#45;&gt;Node13 -->
<g id="edge12" class="edge">
<title>Node1&#45;&gt;Node13</title>
<path fill="none" stroke="#191970" d="M302.5979,-459.4992C365.2777,-436.3392 484.5918,-392.253 544.2185,-370.2212"/>
<polygon fill="#191970" stroke="#191970" points="545.778,-373.3763 553.9451,-366.6272 543.3518,-366.8102 545.778,-373.3763"/>
</g>
<!-- Node23 -->
<g id="node23" class="node">
<title>Node23</title>
<g id="a_node23"><a xlink:href="_ip_storage_printer_8h.html" target="_top" xlink:title=" ">
<polygon fill="#ffffff" stroke="#000000" points="608,-403.5 608,-422.5 748,-422.5 748,-403.5 608,-403.5"/>
<text text-anchor="middle" x="678" y="-410.5" font-family="Helvetica,sans-Serif" font-size="10.00" fill="#000000">IpFilter/IpStoragePrinter.h</text>
</a>
</g>
</g>
<!-- Node1&#45;&gt;Node23 -->
<g id="edge31" class="edge">
<title>Node1&#45;&gt;Node23</title>
<path fill="none" stroke="#191970" d="M328.3764,-464.6871C403.3474,-453.6037 525.066,-435.6092 603.303,-424.0429"/>
<polygon fill="#191970" stroke="#191970" points="604.1893,-427.45 613.5699,-422.5251 603.1655,-420.5253 604.1893,-427.45"/>
</g>
<!-- Node2&#45;&gt;Node3 -->
<g id="edge2" class="edge">
<title>Node2&#45;&gt;Node3</title>
<path fill="none" stroke="#191970" d="M142.3438,-229.8906C135.0511,-220.7376 123.8993,-206.7409 115.0148,-195.59"/>
<polygon fill="#191970" stroke="#191970" points="117.733,-193.3849 108.7642,-187.7449 112.2583,-197.747 117.733,-193.3849"/>
</g>
<!-- Node2&#45;&gt;Node4 -->
<g id="edge3" class="edge">
<title>Node2&#45;&gt;Node4</title>
<path fill="none" stroke="#191970" d="M167.0313,-229.8906C184.789,-219.8713 212.833,-204.0483 233.2882,-192.5071"/>
<polygon fill="#191970" stroke="#191970" points="235.0989,-195.5042 242.0883,-187.5419 231.6591,-189.4077 235.0989,-195.5042"/>
</g>
<!-- Node6 -->
<g id="node6" class="node">
<title>Node6</title>
<g id="a_node6"><a xlink:href="_generic_ip_8h.html" target="_top" xlink:title=" ">
<polygon fill="#ffffff" stroke="#000000" points="452,-112.5 452,-131.5 524,-131.5 524,-112.5 452,-112.5"/>
<text text-anchor="middle" x="488" y="-119.5" font-family="Helvetica,sans-Serif" font-size="10.00" fill="#000000">GenericIp.h</text>
</a>
</g>
</g>
<!-- Node5&#45;&gt;Node6 -->
<g id="edge5" class="edge">
<title>Node5&#45;&gt;Node6</title>
<path fill="none" stroke="#191970" d="M605.5893,-168.3733C582.3858,-159.2226 547.2962,-145.3844 521.4858,-135.2057"/>
<polygon fill="#191970" stroke="#191970" points="522.6789,-131.9139 512.0921,-131.5011 520.1108,-138.4258 522.6789,-131.9139"/>
</g>
<!-- Node7 -->
<g id="node7" class="node">
<title>Node7</title>
<g id="a_node7"><a xlink:href="_type_traits_8h.html" target="_top" xlink:title=" ">
<polygon fill="#ffffff" stroke="#000000" points="615,-56.5 615,-75.5 741,-75.5 741,-56.5 615,-56.5"/>
<text text-anchor="middle" x="678" y="-63.5" font-family="Helvetica,sans-Serif" font-size="10.00" fill="#000000">TypeTraits/TypeTraits.h</text>
</a>
</g>
</g>
<!-- Node6&#45;&gt;Node7 -->
<g id="edge6" class="edge">
<title>Node6&#45;&gt;Node7</title>
<path fill="none" stroke="#191970" d="M520.6622,-112.3733C552.5298,-102.9807 601.1531,-88.6496 635.907,-78.4064"/>
<polygon fill="#191970" stroke="#191970" points="637.1615,-81.6855 645.764,-75.5011 635.1825,-74.9711 637.1615,-81.6855"/>
</g>
<!-- Node9 -->
<g id="node9" class="node">
<title>Node9</title>
<g id="a_node9"><a xlink:title=" ">
<polygon fill="#ffffff" stroke="#bfbfbf" points="532,-56.5 532,-75.5 574,-75.5 574,-56.5 532,-56.5"/>
<text text-anchor="middle" x="553" y="-63.5" font-family="Helvetica,sans-Serif" font-size="10.00" fill="#000000">array</text>
</a>
</g>
</g>
<!-- Node6&#45;&gt;Node9 -->
<g id="edge8" class="edge">
<title>Node6&#45;&gt;Node9</title>
<path fill="none" stroke="#191970" d="M499.3221,-112.2455C508.9223,-103.9746 522.8892,-91.9416 534.1695,-82.2232"/>
<polygon fill="#191970" stroke="#191970" points="536.516,-84.8214 541.8076,-75.6427 531.947,-79.5182 536.516,-84.8214"/>
</g>
<!-- Node6&#45;&gt;Node10 -->
<g id="edge9" class="edge">
<title>Node6&#45;&gt;Node10</title>
<path fill="none" stroke="#191970" d="M457.2288,-112.3733C427.2444,-102.9927 381.5146,-88.6861 348.7813,-78.4455"/>
<polygon fill="#191970" stroke="#191970" points="349.6606,-75.0534 339.0717,-75.4079 347.5705,-81.7341 349.6606,-75.0534"/>
</g>
<!-- Node11 -->
<g id="node11" class="node">
<title>Node11</title>
<g id="a_node11"><a xlink:title=" ">
<polygon fill="#ffffff" stroke="#bfbfbf" points="398.5,-56.5 398.5,-75.5 443.5,-75.5 443.5,-56.5 398.5,-56.5"/>
<text text-anchor="middle" x="421" y="-63.5" font-family="Helvetica,sans-Serif" font-size="10.00" fill="#000000">utility</text>
</a>
</g>
</g>
<!-- Node6&#45;&gt;Node11 -->
<g id="edge10" class="edge">
<title>Node6&#45;&gt;Node11</title>
<path fill="none" stroke="#191970" d="M476.3295,-112.2455C466.4339,-103.9746 452.0373,-91.9416 440.4099,-82.2232"/>
<polygon fill="#191970" stroke="#191970" points="442.4542,-79.3703 432.5368,-75.6427 437.965,-84.7413 442.4542,-79.3703"/>
</g>
<!-- Node12 -->
<g id="node12" class="node">
<title>Node12</title>
<g id="a_node12"><a xlink:title=" ">
<polygon fill="#ffffff" stroke="#bfbfbf" points="462,-56.5 462,-75.5 514,-75.5 514,-56.5 462,-56.5"/>
<text text-anchor="middle" x="488" y="-63.5" font-family="Helvetica,sans-Serif" font-size="10.00" fill="#000000">cassert</text>
</a>
</g>
</g>
<!-- Node6&#45;&gt;Node12 -->
<g id="edge11" class="edge">
<title>Node6&#45;&gt;Node12</title>
<path fill="none" stroke="#191970" d="M488,-112.2455C488,-104.9382 488,-94.6944 488,-85.7046"/>
<polygon fill="#191970" stroke="#191970" points="491.5001,-85.6426 488,-75.6427 484.5001,-85.6427 491.5001,-85.6426"/>
</g>
<!-- Node8 -->
<g id="node8" class="node">
<title>Node8</title>
<g id="a_node8"><a xlink:title=" ">
<polygon fill="#ffffff" stroke="#bfbfbf" points="643.5,-.5 643.5,-19.5 712.5,-19.5 712.5,-.5 643.5,-.5"/>
<text text-anchor="middle" x="678" y="-7.5" font-family="Helvetica,sans-Serif" font-size="10.00" fill="#000000">type_traits</text>
</a>
</g>
</g>
<!-- Node7&#45;&gt;Node8 -->
<g id="edge7" class="edge">
<title>Node7&#45;&gt;Node8</title>
<path fill="none" stroke="#191970" d="M678,-56.2455C678,-48.9382 678,-38.6944 678,-29.7046"/>
<polygon fill="#191970" stroke="#191970" points="681.5001,-29.6426 678,-19.6427 674.5001,-29.6427 681.5001,-29.6426"/>
</g>
<!-- Node13&#45;&gt;Node7 -->
<g id="edge26" class="edge">
<title>Node13&#45;&gt;Node7</title>
<path fill="none" stroke="#191970" d="M610.8421,-347.3759C628.6266,-340.2042 649.8131,-328.5706 662,-311 710.8217,-240.6104 692.8505,-129.749 682.868,-85.3389"/>
<polygon fill="#191970" stroke="#191970" points="686.2588,-84.4688 680.5477,-75.545 679.4473,-86.0826 686.2588,-84.4688"/>
</g>
<!-- Node14 -->
<g id="node14" class="node">
<title>Node14</title>
<g id="a_node14"><a xlink:href="_ip_functions_8h.html" target="_top" xlink:title=" ">
<polygon fill="#ffffff" stroke="#000000" points="413,-291.5 413,-310.5 493,-310.5 493,-291.5 413,-291.5"/>
<text text-anchor="middle" x="453" y="-298.5" font-family="Helvetica,sans-Serif" font-size="10.00" fill="#000000">IpFunctions.h</text>
</a>
</g>
</g>
<!-- Node13&#45;&gt;Node14 -->
<g id="edge13" class="edge">
<title>Node13&#45;&gt;Node14</title>
<path fill="none" stroke="#191970" d="M558.1679,-347.3733C537.6897,-338.3435 506.8601,-324.7494 483.8681,-314.6111"/>
<polygon fill="#191970" stroke="#191970" points="485.1093,-311.3333 474.5472,-310.5011 482.285,-317.7383 485.1093,-311.3333"/>
</g>
<!-- Node15 -->
<g id="node15" class="node">
<title>Node15</title>
<g id="a_node15"><a xlink:href="_restrictions_8h.html" target="_top" xlink:title=" ">
<polygon fill="#ffffff" stroke="#000000" points="492.5,-230 492.5,-249 575.5,-249 575.5,-230 492.5,-230"/>
<text text-anchor="middle" x="534" y="-237" font-family="Helvetica,sans-Serif" font-size="10.00" fill="#000000">Restrictions.h</text>
</a>
</g>
</g>
<!-- Node13&#45;&gt;Node15 -->
<g id="edge24" class="edge">
<title>Node13&#45;&gt;Node15</title>
<path fill="none" stroke="#191970" d="M568.2831,-347.3927C558.8491,-338.9027 546.178,-325.6233 540,-311 533.0464,-294.5408 532.0014,-274.0793 532.4268,-259.2676"/>
<polygon fill="#191970" stroke="#191970" points="535.926,-259.3749 532.9652,-249.2021 528.936,-259.0009 535.926,-259.3749"/>
</g>
<!-- Node17 -->
<g id="node17" class="node">
<title>Node17</title>
<g id="a_node17"><a xlink:href="_operation_result_8h.html" target="_top" xlink:title=" ">
<polygon fill="#ffffff" stroke="#000000" points="290,-224.5 290,-254.5 436,-254.5 436,-224.5 290,-224.5"/>
<text text-anchor="start" x="298" y="-242.5" font-family="Helvetica,sans-Serif" font-size="10.00" fill="#000000">OperationResult/Operation</text>
<text text-anchor="middle" x="363" y="-231.5" font-family="Helvetica,sans-Serif" font-size="10.00" fill="#000000">Result.h</text>
</a>
</g>
</g>
<!-- Node13&#45;&gt;Node17 -->
<g id="edge25" class="edge">
<title>Node13&#45;&gt;Node17</title>
<path fill="none" stroke="#191970" d="M525.8997,-347.6123C481.5378,-339.064 423.0657,-325.5811 404,-311 388.6156,-299.2343 378.038,-279.9228 371.4849,-264.3337"/>
<polygon fill="#191970" stroke="#191970" points="374.6404,-262.7916 367.7496,-254.7437 368.1177,-265.3322 374.6404,-262.7916"/>
</g>
<!-- Node19 -->
<g id="node19" class="node">
<title>Node19</title>
<g id="a_node19"><a xlink:title=" ">
<polygon fill="#ffffff" stroke="#bfbfbf" points="549,-291.5 549,-310.5 581,-310.5 581,-291.5 549,-291.5"/>
<text text-anchor="middle" x="565" y="-298.5" font-family="Helvetica,sans-Serif" font-size="10.00" fill="#000000">set</text>
</a>
</g>
</g>
<!-- Node13&#45;&gt;Node19 -->
<g id="edge27" class="edge">
<title>Node13&#45;&gt;Node19</title>
<path fill="none" stroke="#191970" d="M577.3872,-347.2455C575.4084,-339.8579 572.6256,-329.4689 570.1988,-320.4087"/>
<polygon fill="#191970" stroke="#191970" points="573.5511,-319.3966 567.5829,-310.6427 566.7895,-321.2078 573.5511,-319.3966"/>
</g>
<!-- Node20 -->
<g id="node20" class="node">
<title>Node20</title>
<g id="a_node20"><a xlink:title=" ">
<polygon fill="#ffffff" stroke="#bfbfbf" points="599.5,-291.5 599.5,-310.5 652.5,-310.5 652.5,-291.5 599.5,-291.5"/>
<text text-anchor="middle" x="626" y="-298.5" font-family="Helvetica,sans-Serif" font-size="10.00" fill="#000000">iterator</text>
</a>
</g>
</g>
<!-- Node13&#45;&gt;Node20 -->
<g id="edge28" class="edge">
<title>Node13&#45;&gt;Node20</title>
<path fill="none" stroke="#191970" d="M588.0126,-347.2455C594.4768,-339.3761 603.7385,-328.101 611.4983,-318.6542"/>
<polygon fill="#191970" stroke="#191970" points="614.4364,-320.5916 618.0792,-310.6427 609.0273,-316.1484 614.4364,-320.5916"/>
</g>
<!-- Node21 -->
<g id="node21" class="node">
<title>Node21</title>
<g id="a_node21"><a xlink:title=" ">
<polygon fill="#ffffff" stroke="#bfbfbf" points="709.5,-291.5 709.5,-310.5 750.5,-310.5 750.5,-291.5 709.5,-291.5"/>
<text text-anchor="middle" x="730" y="-298.5" font-family="Helvetica,sans-Serif" font-size="10.00" fill="#000000">tuple</text>
</a>
</g>
</g>
<!-- Node13&#45;&gt;Node21 -->
<g id="edge29" class="edge">
<title>Node13&#45;&gt;Node21</title>
<path fill="none" stroke="#191970" d="M605.7859,-347.3733C631.8968,-337.6252 672.256,-322.5578 699.8355,-312.2614"/>
<polygon fill="#191970" stroke="#191970" points="701.2239,-315.4791 709.3682,-308.7026 698.7756,-308.9212 701.2239,-315.4791"/>
</g>
<!-- Node22 -->
<g id="node22" class="node">
<title>Node22</title>
<g id="a_node22"><a xlink:title=" ">
<polygon fill="#ffffff" stroke="#bfbfbf" points="769,-291.5 769,-310.5 833,-310.5 833,-291.5 769,-291.5"/>
<text text-anchor="middle" x="801" y="-298.5" font-family="Helvetica,sans-Serif" font-size="10.00" fill="#000000">algorithm</text>
</a>
</g>
</g>
<!-- Node13&#45;&gt;Node22 -->
<g id="edge30" class="edge">
<title>Node13&#45;&gt;Node22</title>
<path fill="none" stroke="#191970" d="M617.7401,-347.4369C656.9495,-337.5015 718.161,-321.9909 758.9101,-311.6653"/>
<polygon fill="#191970" stroke="#191970" points="759.9694,-315.0076 768.8033,-309.1584 758.2499,-308.2221 759.9694,-315.0076"/>
</g>
<!-- Node14&#45;&gt;Node2 -->
<g id="edge18" class="edge">
<title>Node14&#45;&gt;Node2</title>
<path fill="none" stroke="#191970" d="M412.7639,-292.8333C359.9586,-282.1154 266.9611,-263.2396 206.9458,-251.0583"/>
<polygon fill="#191970" stroke="#191970" points="207.3716,-247.5734 196.8752,-249.0143 205.9791,-254.4336 207.3716,-247.5734"/>
</g>
<!-- Node14&#45;&gt;Node6 -->
<g id="edge17" class="edge">
<title>Node14&#45;&gt;Node6</title>
<path fill="none" stroke="#191970" d="M454.8818,-291.3762C460.4129,-263.0883 476.6986,-179.7987 484.1722,-141.5767"/>
<polygon fill="#191970" stroke="#191970" points="487.6248,-142.1572 486.1089,-131.6714 480.7549,-140.8139 487.6248,-142.1572"/>
</g>
<!-- Node14&#45;&gt;Node15 -->
<g id="edge14" class="edge">
<title>Node14&#45;&gt;Node15</title>
<path fill="none" stroke="#191970" d="M465.6563,-291.3906C478.3768,-281.7324 498.2004,-266.6812 513.2284,-255.271"/>
<polygon fill="#191970" stroke="#191970" points="515.5846,-257.8766 521.4326,-249.0419 511.3516,-252.3015 515.5846,-257.8766"/>
</g>
<!-- Node14&#45;&gt;Node17 -->
<g id="edge19" class="edge">
<title>Node14&#45;&gt;Node17</title>
<path fill="none" stroke="#191970" d="M438.9375,-291.3906C426.7571,-283.0673 408.7155,-270.7389 393.2739,-260.1872"/>
<polygon fill="#191970" stroke="#191970" points="395.2476,-257.2968 385.0165,-254.5446 391.2983,-263.0763 395.2476,-257.2968"/>
</g>
<!-- Node15&#45;&gt;Node5 -->
<g id="edge16" class="edge">
<title>Node15&#45;&gt;Node5</title>
<path fill="none" stroke="#191970" d="M549,-229.8906C564.3581,-220.0519 588.4521,-204.6167 606.3745,-193.1351"/>
<polygon fill="#191970" stroke="#191970" points="608.573,-195.8833 615.1053,-187.5419 604.797,-189.9891 608.573,-195.8833"/>
</g>
<!-- Node16 -->
<g id="node16" class="node">
<title>Node16</title>
<g id="a_node16"><a xlink:href="_boundaries_8h.html" target="_top" xlink:title=" ">
<polygon fill="#ffffff" stroke="#000000" points="490,-168.5 490,-187.5 570,-187.5 570,-168.5 490,-168.5"/>
<text text-anchor="middle" x="530" y="-175.5" font-family="Helvetica,sans-Serif" font-size="10.00" fill="#000000">Boundaries.h</text>
</a>
</g>
</g>
<!-- Node15&#45;&gt;Node16 -->
<g id="edge15" class="edge">
<title>Node15&#45;&gt;Node16</title>
<path fill="none" stroke="#191970" d="M533.375,-229.8906C532.8205,-221.3657 531.9928,-208.6392 531.2958,-197.9235"/>
<polygon fill="#191970" stroke="#191970" points="534.7756,-197.4966 530.6338,-187.7449 527.7903,-197.951 534.7756,-197.4966"/>
</g>
<!-- Node17&#45;&gt;Node4 -->
<g id="edge20" class="edge">
<title>Node17&#45;&gt;Node4</title>
<path fill="none" stroke="#191970" d="M337.5587,-224.4554C321.2716,-214.8241 300.2327,-202.3828 284.027,-192.7996"/>
<polygon fill="#191970" stroke="#191970" points="285.5055,-189.6078 275.1163,-187.5303 281.9424,-195.6331 285.5055,-189.6078"/>
</g>
<!-- Node17&#45;&gt;Node10 -->
<g id="edge21" class="edge">
<title>Node17&#45;&gt;Node10</title>
<path fill="none" stroke="#191970" d="M350.0054,-224.2999C342.3777,-214.5518 333.2359,-201.2743 328,-188 314.4878,-153.7433 310.5545,-110.5233 309.4289,-85.7969"/>
<polygon fill="#191970" stroke="#191970" points="312.9183,-85.4241 309.0785,-75.5496 305.9224,-85.6634 312.9183,-85.4241"/>
</g>
<!-- Node17&#45;&gt;Node11 -->
<g id="edge23" class="edge">
<title>Node17&#45;&gt;Node11</title>
<path fill="none" stroke="#191970" d="M377.9039,-224.1075C386.3365,-214.4924 396.3045,-201.4216 402,-188 416.3852,-154.1006 420.0199,-110.7584 420.8545,-85.9129"/>
<polygon fill="#191970" stroke="#191970" points="424.36,-85.6828 421.0719,-75.6111 417.3616,-85.535 424.36,-85.6828"/>
</g>
<!-- Node18 -->
<g id="node18" class="node">
<title>Node18</title>
<g id="a_node18"><a xlink:title=" ">
<polygon fill="#ffffff" stroke="#bfbfbf" points="337,-168.5 337,-187.5 393,-187.5 393,-168.5 337,-168.5"/>
<text text-anchor="middle" x="365" y="-175.5" font-family="Helvetica,sans-Serif" font-size="10.00" fill="#000000">sstream</text>
</a>
</g>
</g>
<!-- Node17&#45;&gt;Node18 -->
<g id="edge22" class="edge">
<title>Node17&#45;&gt;Node18</title>
<path fill="none" stroke="#191970" d="M363.4944,-224.2977C363.7518,-216.3834 364.0698,-206.6043 364.3471,-198.0759"/>
<polygon fill="#191970" stroke="#191970" points="367.8528,-197.9554 364.6798,-187.8469 360.8565,-197.7279 367.8528,-197.9554"/>
</g>
<!-- Node23&#45;&gt;Node13 -->
<g id="edge32" class="edge">
<title>Node23&#45;&gt;Node13</title>
<path fill="none" stroke="#191970" d="M660.9297,-403.2455C645.753,-394.5731 623.3379,-381.7645 605.9437,-371.825"/>
<polygon fill="#191970" stroke="#191970" points="607.2936,-368.5653 596.8747,-366.6427 603.8206,-374.643 607.2936,-368.5653"/>
</g>
<!-- Node23&#45;&gt;Node21 -->
<g id="edge34" class="edge">
<title>Node23&#45;&gt;Node21</title>
<path fill="none" stroke="#191970" d="M680.8445,-403.3593C684.8495,-390.2847 692.7092,-366.343 702,-347 706.588,-337.4479 712.6021,-327.337 717.8801,-319.0345"/>
<polygon fill="#191970" stroke="#191970" points="720.8791,-320.8432 723.4111,-310.5553 715.0162,-317.0187 720.8791,-320.8432"/>
</g>
<!-- Node23&#45;&gt;Node22 -->
<g id="edge35" class="edge">
<title>Node23&#45;&gt;Node22</title>
<path fill="none" stroke="#191970" d="M685.2515,-403.4114C695.6612,-389.9774 715.8185,-365.1646 736,-347 748.5683,-335.6878 763.9647,-324.6845 776.6178,-316.2771"/>
<polygon fill="#191970" stroke="#191970" points="778.7955,-319.0358 785.2667,-310.6468 774.9765,-313.1693 778.7955,-319.0358"/>
</g>
<!-- Node24 -->
<g id="node24" class="node">
<title>Node24</title>
<g id="a_node24"><a xlink:title=" ">
<polygon fill="#ffffff" stroke="#bfbfbf" points="744.5,-347.5 744.5,-366.5 801.5,-366.5 801.5,-347.5 744.5,-347.5"/>
<text text-anchor="middle" x="773" y="-354.5" font-family="Helvetica,sans-Serif" font-size="10.00" fill="#000000">ostream</text>
</a>
</g>
</g>
<!-- Node23&#45;&gt;Node24 -->
<g id="edge33" class="edge">
<title>Node23&#45;&gt;Node24</title>
<path fill="none" stroke="#191970" d="M694.5477,-403.2455C709.2599,-394.5731 730.9888,-381.7645 747.8505,-371.825"/>
<polygon fill="#191970" stroke="#191970" points="749.8046,-374.736 756.6419,-366.6427 746.2498,-368.7057 749.8046,-374.736"/>
</g>
</g>
</svg>
