<?xml version="1.0" encoding="UTF-8" standalone="no"?>
<!DOCTYPE svg PUBLIC "-//W3C//DTD SVG 1.1//EN"
 "http://www.w3.org/Graphics/SVG/1.1/DTD/svg11.dtd">
<!-- Generated by graphviz version 2.40.1 (20161225.0304)
 -->
<!-- Title: hw2_allocator/ReserveAllocatorExample/main.cpp Pages: 1 -->
<svg width="363pt" height="162pt"
 viewBox="0.00 0.00 363.00 162.00" xmlns="http://www.w3.org/2000/svg" xmlns:xlink="http://www.w3.org/1999/xlink">
<g id="graph0" class="graph" transform="scale(1 1) rotate(0) translate(4 158)">
<title>hw2_allocator/ReserveAllocatorExample/main.cpp</title>
<polygon fill="#ffffff" stroke="transparent" points="-4,4 -4,-158 359,-158 359,4 -4,4"/>
<!-- Node1 -->
<g id="node1" class="node">
<title>Node1</title>
<g id="a_node1"><a xlink:title=" ">
<polygon fill="#bfbfbf" stroke="#000000" points="120.5,-123.5 120.5,-153.5 290.5,-153.5 290.5,-123.5 120.5,-123.5"/>
<text text-anchor="start" x="128.5" y="-141.5" font-family="Helvetica,sans-Serif" font-size="10.00" fill="#000000">hw2_allocator/ReserveAllocator</text>
<text text-anchor="middle" x="205.5" y="-130.5" font-family="Helvetica,sans-Serif" font-size="10.00" fill="#000000">Example/main.cpp</text>
</a>
</g>
</g>
<!-- Node2 -->
<g id="node2" class="node">
<title>Node2</title>
<g id="a_node2"><a xlink:href="_reserve_allocator_8h.html" target="_top" xlink:title=" ">
<polygon fill="#ffffff" stroke="#000000" points="36,-56.5 36,-86.5 177,-86.5 177,-56.5 36,-56.5"/>
<text text-anchor="start" x="44" y="-74.5" font-family="Helvetica,sans-Serif" font-size="10.00" fill="#000000">ReserveAllocator/Reserve</text>
<text text-anchor="middle" x="106.5" y="-63.5" font-family="Helvetica,sans-Serif" font-size="10.00" fill="#000000">Allocator.h</text>
</a>
</g>
</g>
<!-- Node1&#45;&gt;Node2 -->
<g id="edge1" class="edge">
<title>Node1&#45;&gt;Node2</title>
<path fill="none" stroke="#191970" d="M183.0354,-123.2967C169.4915,-114.1306 152.0525,-102.3285 137.2425,-92.3055"/>
<polygon fill="#191970" stroke="#191970" points="139.1191,-89.3494 128.8757,-86.6432 135.1958,-95.1466 139.1191,-89.3494"/>
</g>
<!-- Node4 -->
<g id="node4" class="node">
<title>Node4</title>
<g id="a_node4"><a xlink:title=" ">
<polygon fill="#ffffff" stroke="#bfbfbf" points="0,-.5 0,-19.5 47,-19.5 47,-.5 0,-.5"/>
<text text-anchor="middle" x="23.5" y="-7.5" font-family="Helvetica,sans-Serif" font-size="10.00" fill="#000000">vector</text>
</a>
</g>
</g>
<!-- Node1&#45;&gt;Node4 -->
<g id="edge5" class="edge">
<title>Node1&#45;&gt;Node4</title>
<path fill="none" stroke="#191970" d="M120.2034,-123.809C80.2305,-115.0506 38.7186,-102.5885 26.5,-87 13.9077,-70.9347 15.26,-46.6671 18.4077,-29.6813"/>
<polygon fill="#191970" stroke="#191970" points="21.8665,-30.2498 20.607,-19.7301 15.0314,-28.7392 21.8665,-30.2498"/>
</g>
<!-- Node5 -->
<g id="node5" class="node">
<title>Node5</title>
<g id="a_node5"><a xlink:title=" ">
<polygon fill="#ffffff" stroke="#bfbfbf" points="163.5,-.5 163.5,-19.5 223.5,-19.5 223.5,-.5 163.5,-.5"/>
<text text-anchor="middle" x="193.5" y="-7.5" font-family="Helvetica,sans-Serif" font-size="10.00" fill="#000000">iostream</text>
</a>
</g>
</g>
<!-- Node1&#45;&gt;Node5 -->
<g id="edge8" class="edge">
<title>Node1&#45;&gt;Node5</title>
<path fill="none" stroke="#191970" d="M204.0763,-123.2548C201.9023,-99.9744 197.7547,-55.5607 195.3501,-29.8117"/>
<polygon fill="#191970" stroke="#191970" points="198.8239,-29.367 194.4092,-19.7358 191.8542,-30.0179 198.8239,-29.367"/>
</g>
<!-- Node6 -->
<g id="node6" class="node">
<title>Node6</title>
<g id="a_node6"><a xlink:title=" ">
<polygon fill="#ffffff" stroke="#bfbfbf" points="233.5,-62 233.5,-81 271.5,-81 271.5,-62 233.5,-62"/>
<text text-anchor="middle" x="252.5" y="-69" font-family="Helvetica,sans-Serif" font-size="10.00" fill="#000000">map</text>
</a>
</g>
</g>
<!-- Node1&#45;&gt;Node6 -->
<g id="edge6" class="edge">
<title>Node1&#45;&gt;Node6</title>
<path fill="none" stroke="#191970" d="M216.165,-123.2967C223.2035,-113.2631 232.4577,-100.0709 239.8652,-89.5113"/>
<polygon fill="#191970" stroke="#191970" points="242.9197,-91.2516 245.7973,-81.055 237.1891,-87.2316 242.9197,-91.2516"/>
</g>
<!-- Node7 -->
<g id="node7" class="node">
<title>Node7</title>
<g id="a_node7"><a xlink:title=" ">
<polygon fill="#ffffff" stroke="#bfbfbf" points="290,-62 290,-81 355,-81 355,-62 290,-62"/>
<text text-anchor="middle" x="322.5" y="-69" font-family="Helvetica,sans-Serif" font-size="10.00" fill="#000000">exception</text>
</a>
</g>
</g>
<!-- Node1&#45;&gt;Node7 -->
<g id="edge7" class="edge">
<title>Node1&#45;&gt;Node7</title>
<path fill="none" stroke="#191970" d="M231.7571,-123.4639C251.2113,-112.3234 277.5839,-97.2212 296.8839,-86.1691"/>
<polygon fill="#191970" stroke="#191970" points="298.7904,-89.1106 305.729,-81.1039 295.3118,-83.0361 298.7904,-89.1106"/>
</g>
<!-- Node3 -->
<g id="node3" class="node">
<title>Node3</title>
<g id="a_node3"><a xlink:title=" ">
<polygon fill="#ffffff" stroke="#bfbfbf" points="80,-.5 80,-19.5 133,-19.5 133,-.5 80,-.5"/>
<text text-anchor="middle" x="106.5" y="-7.5" font-family="Helvetica,sans-Serif" font-size="10.00" fill="#000000">cstddef</text>
</a>
</g>
</g>
<!-- Node2&#45;&gt;Node3 -->
<g id="edge2" class="edge">
<title>Node2&#45;&gt;Node3</title>
<path fill="none" stroke="#191970" d="M106.5,-56.2977C106.5,-48.3834 106.5,-38.6043 106.5,-30.0759"/>
<polygon fill="#191970" stroke="#191970" points="110.0001,-29.8469 106.5,-19.8469 103.0001,-29.847 110.0001,-29.8469"/>
</g>
<!-- Node2&#45;&gt;Node4 -->
<g id="edge3" class="edge">
<title>Node2&#45;&gt;Node4</title>
<path fill="none" stroke="#191970" d="M85.9831,-56.2977C73.5018,-47.0495 57.5841,-35.2551 44.9386,-25.8853"/>
<polygon fill="#191970" stroke="#191970" points="46.9078,-22.9882 36.7894,-19.8469 42.7404,-28.6126 46.9078,-22.9882"/>
</g>
<!-- Node2&#45;&gt;Node5 -->
<g id="edge4" class="edge">
<title>Node2&#45;&gt;Node5</title>
<path fill="none" stroke="#191970" d="M128.0056,-56.2977C141.2968,-46.9022 158.3057,-34.8787 171.6588,-25.4395"/>
<polygon fill="#191970" stroke="#191970" points="173.6846,-28.2937 179.83,-19.6633 169.6439,-22.5776 173.6846,-28.2937"/>
</g>
</g>
</svg>
