<?xml version="1.0" encoding="UTF-8" standalone="no"?>
<!DOCTYPE svg PUBLIC "-//W3C//DTD SVG 1.1//EN"
 "http://www.w3.org/Graphics/SVG/1.1/DTD/svg11.dtd">
<!-- Generated by graphviz version 2.40.1 (20161225.0304)
 -->
<!-- Title: hw2_ip_filter/src/RequiredOutputsModule/main.cpp Pages: 1 -->
<!--zoomable 274 -->
<svg id="main" version="1.1" xmlns="http://www.w3.org/2000/svg" xmlns:xlink="http://www.w3.org/1999/xlink" xml:space="preserve" onload="init(evt)">
<style type="text/css"><![CDATA[
.edge:hover path { stroke: red; }
.edge:hover polygon { stroke: red; fill: red; }
]]></style>
<script type="text/javascript"><![CDATA[
var edges = document.getElementsByTagName('g');
if (edges && edges.length) {
  for (var i=0;i<edges.length;i++) {
    if (edges[i].id.substr(0,4)=='edge') {
      edges[i].setAttribute('class','edge');
    }
  }
}
]]></script>
        <defs>
                <circle id="rim" cx="0" cy="0" r="7"/>
                <circle id="rim2" cx="0" cy="0" r="3.5"/>
                <g id="zoomPlus">
                        <use xlink:href="#rim" fill="#404040">
                                <set attributeName="fill" to="#808080" begin="zoomplus.mouseover" end="zoomplus.mouseout"/>
                        </use>
                        <path d="M-4,0h8M0,-4v8" fill="none" stroke="white" stroke-width="1.5" pointer-events="none"/>
                </g>
                <g id="zoomMin">
                        <use xlink:href="#rim" fill="#404040">
                                <set attributeName="fill" to="#808080" begin="zoomminus.mouseover" end="zoomminus.mouseout"/>
                        </use>
                        <path d="M-4,0h8" fill="none" stroke="white" stroke-width="1.5" pointer-events="none"/>
                </g>
                <g id="dirArrow">
                        <path fill="none" stroke="white" stroke-width="1.5" d="M0,-3.0v7 M-2.5,-0.5L0,-3.0L2.5,-0.5"/>
                </g>
               <g id="resetDef">
                       <use xlink:href="#rim2" fill="#404040">
                               <set attributeName="fill" to="#808080" begin="reset.mouseover" end="reset.mouseout"/>
                       </use>
               </g>
        </defs>

<script type="text/javascript">
var viewWidth = 989;
var viewHeight = 274;
var sectionId = 'dynsection-0';
</script>
<script xlink:href="svgpan.js"/>
<svg id="graph" class="graph">
<g id="viewport">
<title>hw2_ip_filter/src/RequiredOutputsModule/main.cpp</title>
<polygon fill="#ffffff" stroke="transparent" points="-4,4 -4,-270 984.7258,-270 984.7258,4 -4,4"/>
<!-- Node0 -->
<g id="node1" class="node">
<title>Node0</title>
<polygon fill="#bfbfbf" stroke="#000000" points="184.7258,-235.5 184.7258,-265.5 326.7258,-265.5 326.7258,-235.5 184.7258,-235.5"/>
<text text-anchor="start" x="192.7258" y="-253.5" font-family="Helvetica,sans-Serif" font-size="10.00" fill="#000000">hw2_ip_filter/src/Required</text>
<text text-anchor="middle" x="255.7258" y="-242.5" font-family="Helvetica,sans-Serif" font-size="10.00" fill="#000000">OutputsModule/main.cpp</text>
</g>
<!-- Node1 -->
<g id="node2" class="node">
<title>Node1</title>
<g id="a_node2"><a xlink:href="_string_functions_8h.html" target="_top" xlink:title="StringAddOns/StringFunctions.h">
<polygon fill="#ffffff" stroke="#000000" points="14.2258,-179.5 14.2258,-198.5 183.2258,-198.5 183.2258,-179.5 14.2258,-179.5"/>
<text text-anchor="middle" x="98.7258" y="-186.5" font-family="Helvetica,sans-Serif" font-size="10.00" fill="#000000">StringAddOns/StringFunctions.h</text>
</a>
</g>
</g>
<!-- Node0&#45;&gt;Node1 -->
<g id="edge1" class="edge">
<title>Node0&#45;&gt;Node1</title>
<path fill="none" stroke="#191970" d="M217.3193,-235.4554C191.3532,-225.284 157.3869,-211.9787 132.4629,-202.2155"/>
<polygon fill="#191970" stroke="#191970" points="133.643,-198.9188 123.0553,-198.5303 131.0898,-205.4366 133.643,-198.9188"/>
</g>
<!-- Node2 -->
<g id="node3" class="node">
<title>Node2</title>
<polygon fill="#ffffff" stroke="#bfbfbf" points="19.2258,-123.5 19.2258,-142.5 66.2258,-142.5 66.2258,-123.5 19.2258,-123.5"/>
<text text-anchor="middle" x="42.7258" y="-130.5" font-family="Helvetica,sans-Serif" font-size="10.00" fill="#000000">vector</text>
</g>
<!-- Node0&#45;&gt;Node2 -->
<g id="edge27" class="edge">
<title>Node0&#45;&gt;Node2</title>
<path fill="none" stroke="#191970" d="M184.5538,-245.7251C118.4902,-239.6343 27.0787,-226.4049 4.7258,-199 -7.9416,-183.4696 7.714,-163.1917 22.5934,-149.2331"/>
<polygon fill="#191970" stroke="#191970" points="24.9652,-151.8081 30.1495,-142.5683 20.3347,-146.5584 24.9652,-151.8081"/>
</g>
<!-- Node3 -->
<g id="node4" class="node">
<title>Node3</title>
<polygon fill="#ffffff" stroke="#bfbfbf" points="166.7258,-.5 166.7258,-19.5 210.7258,-19.5 210.7258,-.5 166.7258,-.5"/>
<text text-anchor="middle" x="188.7258" y="-7.5" font-family="Helvetica,sans-Serif" font-size="10.00" fill="#000000">string</text>
</g>
<!-- Node0&#45;&gt;Node3 -->
<g id="edge28" class="edge">
<title>Node0&#45;&gt;Node3</title>
<path fill="none" stroke="#191970" d="M251.5347,-235.4556C239.8915,-193.6618 207.1572,-76.1602 194.1517,-29.4763"/>
<polygon fill="#191970" stroke="#191970" points="197.4805,-28.3833 191.4252,-19.6895 190.7373,-30.2619 197.4805,-28.3833"/>
</g>
<!-- Node4 -->
<g id="node5" class="node">
<title>Node4</title>
<g id="a_node5"><a xlink:href="_ip_storage_printer_8h.html" target="_top" xlink:title="IpFilter/IpStoragePrinter.h">
<polygon fill="#ffffff" stroke="#000000" points="284.7258,-179.5 284.7258,-198.5 424.7258,-198.5 424.7258,-179.5 284.7258,-179.5"/>
<text text-anchor="middle" x="354.7258" y="-186.5" font-family="Helvetica,sans-Serif" font-size="10.00" fill="#000000">IpFilter/IpStoragePrinter.h</text>
</a>
</g>
</g>
<!-- Node0&#45;&gt;Node4 -->
<g id="edge4" class="edge">
<title>Node0&#45;&gt;Node4</title>
<path fill="none" stroke="#191970" d="M279.944,-235.4554C295.3032,-225.9141 315.1015,-213.6151 330.4683,-204.0691"/>
<polygon fill="#191970" stroke="#191970" points="332.7368,-206.7802 339.3843,-198.5303 329.043,-200.8341 332.7368,-206.7802"/>
</g>
<!-- Node5 -->
<g id="node6" class="node">
<title>Node5</title>
<g id="a_node6"><a xlink:href="_ip_storage_8h.html" target="_top" xlink:title="IpStorage.h">
<polygon fill="#ffffff" stroke="#000000" points="440.7258,-123.5 440.7258,-142.5 512.7258,-142.5 512.7258,-123.5 440.7258,-123.5"/>
<text text-anchor="middle" x="476.7258" y="-130.5" font-family="Helvetica,sans-Serif" font-size="10.00" fill="#000000">IpStorage.h</text>
</a>
</g>
</g>
<!-- Node0&#45;&gt;Node5 -->
<g id="edge25" class="edge">
<title>Node0&#45;&gt;Node5</title>
<path fill="none" stroke="#191970" d="M326.7931,-241.793C361.6537,-234.7286 402.7039,-221.9767 433.7258,-199 449.9767,-186.9636 461.8009,-166.8107 468.8902,-151.9342"/>
<polygon fill="#191970" stroke="#191970" points="472.1576,-153.2009 473.0378,-142.6426 465.7655,-150.3475 472.1576,-153.2009"/>
</g>
<!-- Node6 -->
<g id="node7" class="node">
<title>Node6</title>
<g id="a_node7"><a xlink:href="_ip_v4_8h.html" target="_top" xlink:title="IpV4.h">
<polygon fill="#ffffff" stroke="#000000" points="232.2258,-62 232.2258,-81 279.2258,-81 279.2258,-62 232.2258,-62"/>
<text text-anchor="middle" x="255.7258" y="-69" font-family="Helvetica,sans-Serif" font-size="10.00" fill="#000000">IpV4.h</text>
</a>
</g>
</g>
<!-- Node0&#45;&gt;Node6 -->
<g id="edge26" class="edge">
<title>Node0&#45;&gt;Node6</title>
<path fill="none" stroke="#191970" d="M255.7258,-235.2386C255.7258,-202.892 255.7258,-127.458 255.7258,-91.393"/>
<polygon fill="#191970" stroke="#191970" points="259.2259,-91.1714 255.7258,-81.1714 252.2259,-91.1714 259.2259,-91.1714"/>
</g>
<!-- Node11 -->
<g id="node12" class="node">
<title>Node11</title>
<polygon fill="#ffffff" stroke="#bfbfbf" points="920.7258,-.5 920.7258,-19.5 980.7258,-19.5 980.7258,-.5 920.7258,-.5"/>
<text text-anchor="middle" x="950.7258" y="-7.5" font-family="Helvetica,sans-Serif" font-size="10.00" fill="#000000">iostream</text>
</g>
<!-- Node0&#45;&gt;Node11 -->
<g id="edge29" class="edge">
<title>Node0&#45;&gt;Node11</title>
<path fill="none" stroke="#191970" d="M326.7595,-243.0759C483.4915,-225.2272 851.7068,-174.7615 935.7258,-87 950.1733,-71.909 952.6924,-47.2561 952.3909,-29.9191"/>
<polygon fill="#191970" stroke="#191970" points="955.8779,-29.5693 951.8826,-19.7567 948.8867,-29.9191 955.8779,-29.5693"/>
</g>
<!-- Node1&#45;&gt;Node2 -->
<g id="edge2" class="edge">
<title>Node1&#45;&gt;Node2</title>
<path fill="none" stroke="#191970" d="M88.9714,-179.2455C80.8611,-171.1352 69.1333,-159.4075 59.5177,-149.7919"/>
<polygon fill="#191970" stroke="#191970" points="61.9145,-147.2389 52.3685,-142.6427 56.9647,-152.1887 61.9145,-147.2389"/>
</g>
<!-- Node1&#45;&gt;Node3 -->
<g id="edge3" class="edge">
<title>Node1&#45;&gt;Node3</title>
<path fill="none" stroke="#191970" d="M103.5646,-179.3762C117.8486,-150.9669 160.025,-67.0828 179.129,-29.0871"/>
<polygon fill="#191970" stroke="#191970" points="182.498,-30.1779 183.8631,-19.6714 176.244,-27.0334 182.498,-30.1779"/>
</g>
<!-- Node4&#45;&gt;Node5 -->
<g id="edge5" class="edge">
<title>Node4&#45;&gt;Node5</title>
<path fill="none" stroke="#191970" d="M375.6984,-179.3733C395.2826,-170.3838 424.7219,-156.8706 446.7768,-146.7471"/>
<polygon fill="#191970" stroke="#191970" points="448.3988,-149.8538 456.027,-142.5011 445.4785,-143.4919 448.3988,-149.8538"/>
</g>
<!-- Node9 -->
<g id="node10" class="node">
<title>Node9</title>
<polygon fill="#ffffff" stroke="#bfbfbf" points="361.2258,-.5 361.2258,-19.5 418.2258,-19.5 418.2258,-.5 361.2258,-.5"/>
<text text-anchor="middle" x="389.7258" y="-7.5" font-family="Helvetica,sans-Serif" font-size="10.00" fill="#000000">ostream</text>
</g>
<!-- Node4&#45;&gt;Node9 -->
<g id="edge23" class="edge">
<title>Node4&#45;&gt;Node9</title>
<path fill="none" stroke="#191970" d="M348.7727,-179.4181C335.5106,-156.744 306.331,-98.5139 327.7258,-56 334.3995,-42.7387 346.9051,-32.3415 358.9466,-24.8125"/>
<polygon fill="#191970" stroke="#191970" points="361.046,-27.6422 367.96,-19.6143 357.5488,-21.5783 361.046,-27.6422"/>
</g>
<!-- Node18 -->
<g id="node19" class="node">
<title>Node18</title>
<polygon fill="#ffffff" stroke="#bfbfbf" points="336.2258,-62 336.2258,-81 377.2258,-81 377.2258,-62 336.2258,-62"/>
<text text-anchor="middle" x="356.7258" y="-69" font-family="Helvetica,sans-Serif" font-size="10.00" fill="#000000">tuple</text>
</g>
<!-- Node4&#45;&gt;Node18 -->
<g id="edge24" class="edge">
<title>Node4&#45;&gt;Node18</title>
<path fill="none" stroke="#191970" d="M354.8895,-179.3845C355.2162,-160.1913 355.955,-116.786 356.3894,-91.2663"/>
<polygon fill="#191970" stroke="#191970" points="359.8891,-91.3065 356.5599,-81.2484 352.8901,-91.1873 359.8891,-91.3065"/>
</g>
<!-- Node5&#45;&gt;Node6 -->
<g id="edge6" class="edge">
<title>Node5&#45;&gt;Node6</title>
<path fill="none" stroke="#191970" d="M442.1946,-123.3906C400.4504,-111.774 330.6709,-92.3557 289.3417,-80.8546"/>
<polygon fill="#191970" stroke="#191970" points="290.0539,-77.4199 279.4816,-78.1108 288.1772,-84.1637 290.0539,-77.4199"/>
</g>
<!-- Node5&#45;&gt;Node9 -->
<g id="edge19" class="edge">
<title>Node5&#45;&gt;Node9</title>
<path fill="none" stroke="#191970" d="M498.8324,-123.4742C513.3589,-115.902 531.1995,-103.7828 539.7258,-87 545.9663,-74.7165 547.9164,-67.0789 539.7258,-56 526.3938,-37.9667 468.1517,-24.1003 428.2903,-16.5014"/>
<polygon fill="#191970" stroke="#191970" points="428.81,-13.0383 418.3402,-14.6609 427.5367,-19.9215 428.81,-13.0383"/>
</g>
<!-- Node10 -->
<g id="node11" class="node">
<title>Node10</title>
<g id="a_node11"><a xlink:href="_operation_result_8h.html" target="_top" xlink:title="OperationResult/Operation\lResult.h">
<polygon fill="#ffffff" stroke="#000000" points="586.7258,-56.5 586.7258,-86.5 732.7258,-86.5 732.7258,-56.5 586.7258,-56.5"/>
<text text-anchor="start" x="594.7258" y="-74.5" font-family="Helvetica,sans-Serif" font-size="10.00" fill="#000000">OperationResult/Operation</text>
<text text-anchor="middle" x="659.7258" y="-63.5" font-family="Helvetica,sans-Serif" font-size="10.00" fill="#000000">Result.h</text>
</a>
</g>
</g>
<!-- Node5&#45;&gt;Node10 -->
<g id="edge11" class="edge">
<title>Node5&#45;&gt;Node10</title>
<path fill="none" stroke="#191970" d="M505.3196,-123.3906C532.0356,-114.4123 572.6193,-100.7735 605.4757,-89.7316"/>
<polygon fill="#191970" stroke="#191970" points="606.5949,-93.0479 614.959,-86.5446 604.365,-86.4126 606.5949,-93.0479"/>
</g>
<!-- Node14 -->
<g id="node15" class="node">
<title>Node14</title>
<g id="a_node15"><a xlink:href="_type_traits_8h.html" target="_top" xlink:title="TypeTraits/TypeTraits.h">
<polygon fill="#ffffff" stroke="#000000" points="800.7258,-62 800.7258,-81 926.7258,-81 926.7258,-62 800.7258,-62"/>
<text text-anchor="middle" x="863.7258" y="-69" font-family="Helvetica,sans-Serif" font-size="10.00" fill="#000000">TypeTraits/TypeTraits.h</text>
</a>
</g>
</g>
<!-- Node5&#45;&gt;Node14 -->
<g id="edge16" class="edge">
<title>Node5&#45;&gt;Node14</title>
<path fill="none" stroke="#191970" d="M512.756,-128.5375C571.4101,-121.0938 691.1059,-105.1564 791.7258,-87 798.0843,-85.8527 804.7378,-84.5543 811.3222,-83.2094"/>
<polygon fill="#191970" stroke="#191970" points="812.486,-86.5419 821.5599,-81.0724 811.0557,-79.6896 812.486,-86.5419"/>
</g>
<!-- Node16 -->
<g id="node17" class="node">
<title>Node16</title>
<polygon fill="#ffffff" stroke="#bfbfbf" points="750.7258,-62 750.7258,-81 782.7258,-81 782.7258,-62 750.7258,-62"/>
<text text-anchor="middle" x="766.7258" y="-69" font-family="Helvetica,sans-Serif" font-size="10.00" fill="#000000">set</text>
</g>
<!-- Node5&#45;&gt;Node16 -->
<g id="edge18" class="edge">
<title>Node5&#45;&gt;Node16</title>
<path fill="none" stroke="#191970" d="M513.0233,-131.083C565.1688,-127.3639 663.6015,-116.7129 741.7258,-87 742.6029,-86.6664 743.4829,-86.3009 744.3608,-85.9097"/>
<polygon fill="#191970" stroke="#191970" points="746.3084,-88.8367 753.4643,-81.0236 742.9979,-82.6689 746.3084,-88.8367"/>
</g>
<!-- Node17 -->
<g id="node18" class="node">
<title>Node17</title>
<polygon fill="#ffffff" stroke="#bfbfbf" points="395.2258,-62 395.2258,-81 448.2258,-81 448.2258,-62 395.2258,-62"/>
<text text-anchor="middle" x="421.7258" y="-69" font-family="Helvetica,sans-Serif" font-size="10.00" fill="#000000">iterator</text>
</g>
<!-- Node5&#45;&gt;Node17 -->
<g id="edge20" class="edge">
<title>Node5&#45;&gt;Node17</title>
<path fill="none" stroke="#191970" d="M468.1321,-123.3906C459.8662,-114.1478 447.1832,-99.966 437.1641,-88.7628"/>
<polygon fill="#191970" stroke="#191970" points="439.7159,-86.3657 430.4407,-81.2449 434.498,-91.0321 439.7159,-86.3657"/>
</g>
<!-- Node5&#45;&gt;Node18 -->
<g id="edge21" class="edge">
<title>Node5&#45;&gt;Node18</title>
<path fill="none" stroke="#191970" d="M457.7508,-123.3322C439.5281,-114.0404 411.2295,-99.5921 386.7258,-87 385.9046,-86.578 385.0708,-86.1492 384.2292,-85.7161"/>
<polygon fill="#191970" stroke="#191970" points="385.6153,-82.493 375.1232,-81.0215 382.4076,-88.7148 385.6153,-82.493"/>
</g>
<!-- Node19 -->
<g id="node20" class="node">
<title>Node19</title>
<polygon fill="#ffffff" stroke="#bfbfbf" points="466.7258,-62 466.7258,-81 530.7258,-81 530.7258,-62 466.7258,-62"/>
<text text-anchor="middle" x="498.7258" y="-69" font-family="Helvetica,sans-Serif" font-size="10.00" fill="#000000">algorithm</text>
</g>
<!-- Node5&#45;&gt;Node19 -->
<g id="edge22" class="edge">
<title>Node5&#45;&gt;Node19</title>
<path fill="none" stroke="#191970" d="M480.1633,-123.3906C483.2771,-114.6862 487.9578,-101.6015 491.8399,-90.7494"/>
<polygon fill="#191970" stroke="#191970" points="495.1671,-91.8394 495.2399,-81.2449 488.5761,-89.4817 495.1671,-91.8394"/>
</g>
<!-- Node6&#45;&gt;Node3 -->
<g id="edge9" class="edge">
<title>Node6&#45;&gt;Node3</title>
<path fill="none" stroke="#191970" d="M245.2571,-61.8906C234.9922,-52.4683 219.1355,-37.9134 206.8253,-26.6137"/>
<polygon fill="#191970" stroke="#191970" points="209.076,-23.9287 199.3422,-19.7449 204.3424,-29.0856 209.076,-23.9287"/>
</g>
<!-- Node7 -->
<g id="node8" class="node">
<title>Node7</title>
<polygon fill="#ffffff" stroke="#bfbfbf" points="229.2258,-.5 229.2258,-19.5 282.2258,-19.5 282.2258,-.5 229.2258,-.5"/>
<text text-anchor="middle" x="255.7258" y="-7.5" font-family="Helvetica,sans-Serif" font-size="10.00" fill="#000000">cstddef</text>
</g>
<!-- Node6&#45;&gt;Node7 -->
<g id="edge7" class="edge">
<title>Node6&#45;&gt;Node7</title>
<path fill="none" stroke="#191970" d="M255.7258,-61.8906C255.7258,-53.3657 255.7258,-40.6392 255.7258,-29.9235"/>
<polygon fill="#191970" stroke="#191970" points="259.2259,-29.7448 255.7258,-19.7449 252.2259,-29.7449 259.2259,-29.7448"/>
</g>
<!-- Node8 -->
<g id="node9" class="node">
<title>Node8</title>
<polygon fill="#ffffff" stroke="#bfbfbf" points="300.7258,-.5 300.7258,-19.5 342.7258,-19.5 342.7258,-.5 300.7258,-.5"/>
<text text-anchor="middle" x="321.7258" y="-7.5" font-family="Helvetica,sans-Serif" font-size="10.00" fill="#000000">array</text>
</g>
<!-- Node6&#45;&gt;Node8 -->
<g id="edge8" class="edge">
<title>Node6&#45;&gt;Node8</title>
<path fill="none" stroke="#191970" d="M266.0383,-61.8906C276.15,-52.4683 291.77,-37.9134 303.8965,-26.6137"/>
<polygon fill="#191970" stroke="#191970" points="306.3379,-29.1228 311.2679,-19.7449 301.5658,-24.0015 306.3379,-29.1228"/>
</g>
<!-- Node6&#45;&gt;Node9 -->
<g id="edge10" class="edge">
<title>Node6&#45;&gt;Node9</title>
<path fill="none" stroke="#191970" d="M276.6633,-61.8906C298.9857,-51.6457 334.5295,-35.3326 359.8015,-23.7339"/>
<polygon fill="#191970" stroke="#191970" points="361.3068,-26.8942 368.9354,-19.5419 358.3869,-20.5322 361.3068,-26.8942"/>
</g>
<!-- Node10&#45;&gt;Node3 -->
<g id="edge12" class="edge">
<title>Node10&#45;&gt;Node3</title>
<path fill="none" stroke="#191970" d="M586.4533,-61.8412C571.0258,-59.8621 554.8455,-57.8268 539.7258,-56 400.8312,-39.218 361.3995,-49.6268 220.787,-19.8667"/>
<polygon fill="#191970" stroke="#191970" points="221.4437,-16.428 210.9318,-17.7509 219.9743,-23.2721 221.4437,-16.428"/>
</g>
<!-- Node10&#45;&gt;Node11 -->
<g id="edge13" class="edge">
<title>Node10&#45;&gt;Node11</title>
<path fill="none" stroke="#191970" d="M732.8001,-56.8C782.2451,-46.7368 848.9967,-32.9249 907.7258,-20 908.7738,-19.7694 909.8357,-19.5341 910.907,-19.2953"/>
<polygon fill="#191970" stroke="#191970" points="911.6933,-22.7059 920.6739,-17.0846 910.1479,-15.8786 911.6933,-22.7059"/>
</g>
<!-- Node12 -->
<g id="node13" class="node">
<title>Node12</title>
<polygon fill="#ffffff" stroke="#bfbfbf" points="665.7258,-.5 665.7258,-19.5 721.7258,-19.5 721.7258,-.5 665.7258,-.5"/>
<text text-anchor="middle" x="693.7258" y="-7.5" font-family="Helvetica,sans-Serif" font-size="10.00" fill="#000000">sstream</text>
</g>
<!-- Node10&#45;&gt;Node12 -->
<g id="edge14" class="edge">
<title>Node10&#45;&gt;Node12</title>
<path fill="none" stroke="#191970" d="M668.1303,-56.2977C672.7516,-47.9388 678.5228,-37.4997 683.4148,-28.6509"/>
<polygon fill="#191970" stroke="#191970" points="686.5067,-30.292 688.282,-19.8469 680.3806,-26.9051 686.5067,-30.292"/>
</g>
<!-- Node13 -->
<g id="node14" class="node">
<title>Node13</title>
<polygon fill="#ffffff" stroke="#bfbfbf" points="602.2258,-.5 602.2258,-19.5 647.2258,-19.5 647.2258,-.5 602.2258,-.5"/>
<text text-anchor="middle" x="624.7258" y="-7.5" font-family="Helvetica,sans-Serif" font-size="10.00" fill="#000000">utility</text>
</g>
<!-- Node10&#45;&gt;Node13 -->
<g id="edge15" class="edge">
<title>Node10&#45;&gt;Node13</title>
<path fill="none" stroke="#191970" d="M651.0741,-56.2977C646.317,-47.9388 640.3761,-37.4997 635.3402,-28.6509"/>
<polygon fill="#191970" stroke="#191970" points="638.3179,-26.8069 630.3298,-19.8469 632.2341,-30.2692 638.3179,-26.8069"/>
</g>
<!-- Node15 -->
<g id="node16" class="node">
<title>Node15</title>
<polygon fill="#ffffff" stroke="#bfbfbf" points="829.2258,-.5 829.2258,-19.5 898.2258,-19.5 898.2258,-.5 829.2258,-.5"/>
<text text-anchor="middle" x="863.7258" y="-7.5" font-family="Helvetica,sans-Serif" font-size="10.00" fill="#000000">type_traits</text>
</g>
<!-- Node14&#45;&gt;Node15 -->
<g id="edge17" class="edge">
<title>Node14&#45;&gt;Node15</title>
<path fill="none" stroke="#191970" d="M863.7258,-61.8906C863.7258,-53.3657 863.7258,-40.6392 863.7258,-29.9235"/>
<polygon fill="#191970" stroke="#191970" points="867.2259,-29.7448 863.7258,-19.7449 860.2259,-29.7449 867.2259,-29.7448"/>
</g>
</g>
</svg>
        <g id="navigator" transform="translate(0 0)" fill="#404254">
                <rect fill="#f2f5e9" fill-opacity="0.5" stroke="#606060" stroke-width=".5" x="0" y="0" width="60" height="60"/>
                <use id="zoomplus" xlink:href="#zoomPlus" x="17" y="9" onmousedown="handleZoom(evt,'in')"/>
                <use id="zoomminus" xlink:href="#zoomMin" x="42" y="9" onmousedown="handleZoom(evt,'out')"/>
                <use id="reset" xlink:href="#resetDef" x="30" y="36" onmousedown="handleReset()"/>
                <g id="arrowUp" xlink:href="#dirArrow" transform="translate(30 24)" onmousedown="handlePan(0,-1)">
                  <use xlink:href="#rim" fill="#404040">
                        <set attributeName="fill" to="#808080" begin="arrowUp.mouseover" end="arrowUp.mouseout"/>
                  </use>
                  <path fill="none" stroke="white" stroke-width="1.5" d="M0,-3.0v7 M-2.5,-0.5L0,-3.0L2.5,-0.5"/>
                </g>
                <g id="arrowRight" xlink:href="#dirArrow" transform="rotate(90) translate(36 -43)" onmousedown="handlePan(1,0)">
                  <use xlink:href="#rim" fill="#404040">
                        <set attributeName="fill" to="#808080" begin="arrowRight.mouseover" end="arrowRight.mouseout"/>
                  </use>
                  <path fill="none" stroke="white" stroke-width="1.5" d="M0,-3.0v7 M-2.5,-0.5L0,-3.0L2.5,-0.5"/>
                </g>
                <g id="arrowDown" xlink:href="#dirArrow" transform="rotate(180) translate(-30 -48)" onmousedown="handlePan(0,1)">
                  <use xlink:href="#rim" fill="#404040">
                        <set attributeName="fill" to="#808080" begin="arrowDown.mouseover" end="arrowDown.mouseout"/>
                  </use>
                  <path fill="none" stroke="white" stroke-width="1.5" d="M0,-3.0v7 M-2.5,-0.5L0,-3.0L2.5,-0.5"/>
                </g>
                <g id="arrowLeft" xlink:href="#dirArrow" transform="rotate(270) translate(-36 17)" onmousedown="handlePan(-1,0)">
                  <use xlink:href="#rim" fill="#404040">
                        <set attributeName="fill" to="#808080" begin="arrowLeft.mouseover" end="arrowLeft.mouseout"/>
                  </use>
                  <path fill="none" stroke="white" stroke-width="1.5" d="M0,-3.0v7 M-2.5,-0.5L0,-3.0L2.5,-0.5"/>
                </g>
        </g>
        <svg viewBox="0 0 15 15" width="100%" height="30px" preserveAspectRatio="xMaxYMin meet">
         <g id="arrow_out" transform="scale(0.3 0.3)">
          <a xlink:href="hw2__ip__filter_2src_2_required_outputs_module_2main_8cpp__incl_org.svg" target="_base">
           <rect id="button" ry="5" rx="5" y="6" x="6" height="38" width="38"
                fill="#f2f5e9" fill-opacity="0.5" stroke="#606060" stroke-width="1.0"/>
           <path id="arrow"
             d="M 11.500037,31.436501 C 11.940474,20.09759 22.043105,11.32322 32.158766,21.979434 L 37.068811,17.246167 C 37.068811,17.246167 37.088388,32 37.088388,32 L 22.160133,31.978069 C 22.160133,31.978069 26.997745,27.140456 26.997745,27.140456 C 18.528582,18.264221 13.291696,25.230495 11.500037,31.436501 z"
             style="fill:#404040;"/>
          </a>
         </g>
        </svg>
</svg>
