<?xml version="1.0" encoding="UTF-8" standalone="no"?>
<!DOCTYPE svg PUBLIC "-//W3C//DTD SVG 1.1//EN"
 "http://www.w3.org/Graphics/SVG/1.1/DTD/svg11.dtd">
<!-- Generated by graphviz version 2.40.1 (20161225.0304)
 -->
<!-- Title: Graphical Class Hierarchy Pages: 1 -->
<svg width="229pt" height="142pt"
 viewBox="0.00 0.00 229.00 142.00" xmlns="http://www.w3.org/2000/svg" xmlns:xlink="http://www.w3.org/1999/xlink">
<g id="graph0" class="graph" transform="scale(1 1) rotate(0) translate(4 138)">
<title>Graphical Class Hierarchy</title>
<polygon fill="#ffffff" stroke="transparent" points="-4,4 -4,-138 225,-138 225,4 -4,4"/>
<!-- Node4 -->
<g id="node1" class="node">
<title>Node4</title>
<g id="a_node1"><a xlink:title=" ">
<polygon fill="#ffffff" stroke="#bfbfbf" points="0,-57.5 0,-76.5 36,-76.5 36,-57.5 0,-57.5"/>
<text text-anchor="middle" x="18" y="-64.5" font-family="Helvetica,sans-Serif" font-size="10.00" fill="#000000">Test</text>
</a>
</g>
</g>
<!-- Node0 -->
<g id="node2" class="node">
<title>Node0</title>
<g id="a_node2"><a xlink:href="classtest_1_1_ip_storage_tests.html" target="_top" xlink:title=" ">
<polygon fill="#ffffff" stroke="#000000" points="90,-114.5 90,-133.5 203,-133.5 203,-114.5 90,-114.5"/>
<text text-anchor="middle" x="146.5" y="-121.5" font-family="Helvetica,sans-Serif" font-size="10.00" fill="#000000">test::IpStorageTests</text>
</a>
</g>
</g>
<!-- Node4&#45;&gt;Node0 -->
<g id="edge1" class="edge">
<title>Node4&#45;&gt;Node0</title>
<path fill="none" stroke="#191970" d="M37.1693,-83.0782C47.0459,-90.6671 59.5971,-99.2899 72,-105 80.2448,-108.7958 89.3661,-111.9157 98.3164,-114.4509"/>
<polygon fill="#191970" stroke="#191970" points="39.2531,-80.2635 29.2493,-76.7744 34.8939,-85.7405 39.2531,-80.2635"/>
</g>
<!-- Node6 -->
<g id="node3" class="node">
<title>Node6</title>
<g id="a_node3"><a xlink:href="classtest_1_1_list_tests.html" target="_top" xlink:title=" ">
<polygon fill="#ffffff" stroke="#000000" points="105,-76.5 105,-95.5 188,-95.5 188,-76.5 105,-76.5"/>
<text text-anchor="middle" x="146.5" y="-83.5" font-family="Helvetica,sans-Serif" font-size="10.00" fill="#000000">test::ListTests</text>
</a>
</g>
</g>
<!-- Node4&#45;&gt;Node6 -->
<g id="edge2" class="edge">
<title>Node4&#45;&gt;Node6</title>
<path fill="none" stroke="#191970" d="M46.115,-71.1571C63.3192,-73.7009 85.6457,-77.0021 104.8733,-79.8451"/>
<polygon fill="#191970" stroke="#191970" points="46.5428,-67.6824 36.1384,-69.6819 45.5188,-74.6071 46.5428,-67.6824"/>
</g>
<!-- Node7 -->
<g id="node4" class="node">
<title>Node7</title>
<g id="a_node4"><a xlink:href="classtest_1_1_print_ip_tests.html" target="_top" xlink:title="Tests for homework 3.">
<polygon fill="#ffffff" stroke="#000000" points="97.5,-38.5 97.5,-57.5 195.5,-57.5 195.5,-38.5 97.5,-38.5"/>
<text text-anchor="middle" x="146.5" y="-45.5" font-family="Helvetica,sans-Serif" font-size="10.00" fill="#000000">test::PrintIpTests</text>
</a>
</g>
</g>
<!-- Node4&#45;&gt;Node7 -->
<g id="edge3" class="edge">
<title>Node4&#45;&gt;Node7</title>
<path fill="none" stroke="#191970" d="M46.2971,-62.816C61.2894,-60.5992 80.1334,-57.813 97.4227,-55.2566"/>
<polygon fill="#191970" stroke="#191970" points="45.5188,-59.3929 36.1384,-64.3181 46.5428,-66.3176 45.5188,-59.3929"/>
</g>
<!-- Node8 -->
<g id="node5" class="node">
<title>Node8</title>
<g id="a_node5"><a xlink:href="classtest_1_1_reserve_allocator_tests.html" target="_top" xlink:title=" ">
<polygon fill="#ffffff" stroke="#000000" points="72,-.5 72,-19.5 221,-19.5 221,-.5 72,-.5"/>
<text text-anchor="middle" x="146.5" y="-7.5" font-family="Helvetica,sans-Serif" font-size="10.00" fill="#000000">test::ReserveAllocatorTests</text>
</a>
</g>
</g>
<!-- Node4&#45;&gt;Node8 -->
<g id="edge4" class="edge">
<title>Node4&#45;&gt;Node8</title>
<path fill="none" stroke="#191970" d="M37.1693,-50.9218C47.0459,-43.3329 59.5971,-34.7101 72,-29 80.2448,-25.2042 89.3661,-22.0843 98.3164,-19.5491"/>
<polygon fill="#191970" stroke="#191970" points="34.8939,-48.2595 29.2493,-57.2256 39.2531,-53.7365 34.8939,-48.2595"/>
</g>
</g>
</svg>
