<?xml version="1.0" encoding="UTF-8" standalone="no"?>
<!DOCTYPE svg PUBLIC "-//W3C//DTD SVG 1.1//EN"
 "http://www.w3.org/Graphics/SVG/1.1/DTD/svg11.dtd">
<!-- Generated by graphviz version 2.40.1 (20161225.0304)
 -->
<!-- Title: Graphical Class Hierarchy Pages: 1 -->
<svg width="264pt" height="88pt"
 viewBox="0.00 0.00 264.00 88.00" xmlns="http://www.w3.org/2000/svg" xmlns:xlink="http://www.w3.org/1999/xlink">
<g id="graph0" class="graph" transform="scale(1 1) rotate(0) translate(4 84)">
<title>Graphical Class Hierarchy</title>
<polygon fill="#ffffff" stroke="transparent" points="-4,4 -4,-84 260,-84 260,4 -4,4"/>
<!-- Node11 -->
<g id="node1" class="node">
<title>Node11</title>
<polygon fill="#ffffff" stroke="#bfbfbf" points="0,-30 0,-49 68,-49 68,-30 0,-30"/>
<text text-anchor="middle" x="34" y="-37" font-family="Helvetica,sans-Serif" font-size="10.00" fill="#000000">false_type</text>
</g>
<!-- Node0 -->
<g id="node2" class="node">
<title>Node0</title>
<g id="a_node2"><a xlink:href="structhw__libs_1_1fake__std17_1_1disjunction.html" target="_top" xlink:title="hw_libs::fake_std17\l::disjunction\&lt;... \&gt;">
<polygon fill="#ffffff" stroke="#000000" points="123.5,-49.5 123.5,-79.5 236.5,-79.5 236.5,-49.5 123.5,-49.5"/>
<text text-anchor="start" x="131.5" y="-67.5" font-family="Helvetica,sans-Serif" font-size="10.00" fill="#000000">hw_libs::fake_std17</text>
<text text-anchor="middle" x="180" y="-56.5" font-family="Helvetica,sans-Serif" font-size="10.00" fill="#000000">::disjunction&lt;... &gt;</text>
</a>
</g>
</g>
<!-- Node11&#45;&gt;Node0 -->
<g id="edge1" class="edge">
<title>Node11&#45;&gt;Node0</title>
<path fill="none" stroke="#191970" d="M78.2445,-47.0761C92.4713,-49.5122 108.4323,-52.2453 123.4195,-54.8116"/>
<polygon fill="#191970" stroke="#191970" points="78.6778,-43.5994 68.2305,-45.3614 77.4963,-50.499 78.6778,-43.5994"/>
</g>
<!-- Node13 -->
<g id="node3" class="node">
<title>Node13</title>
<g id="a_node3"><a xlink:href="structhw__libs_1_1sfinae_1_1is__container.html" target="_top" xlink:title="hw_libs::sfinae::is\l_container\&lt; T, typename \&gt;">
<polygon fill="#ffffff" stroke="#000000" points="104,-.5 104,-30.5 256,-30.5 256,-.5 104,-.5"/>
<text text-anchor="start" x="112" y="-18.5" font-family="Helvetica,sans-Serif" font-size="10.00" fill="#000000">hw_libs::sfinae::is</text>
<text text-anchor="middle" x="180" y="-7.5" font-family="Helvetica,sans-Serif" font-size="10.00" fill="#000000">_container&lt; T, typename &gt;</text>
</a>
</g>
</g>
<!-- Node11&#45;&gt;Node13 -->
<g id="edge2" class="edge">
<title>Node11&#45;&gt;Node13</title>
<path fill="none" stroke="#191970" d="M78.2212,-32.2308C86.38,-30.8896 95.1099,-29.4545 103.8998,-28.0096"/>
<polygon fill="#191970" stroke="#191970" points="77.5303,-28.7973 68.2305,-33.8731 78.6658,-35.7046 77.5303,-28.7973"/>
</g>
</g>
</svg>
