<?xml version="1.0" encoding="UTF-8" standalone="no"?>
<!DOCTYPE svg PUBLIC "-//W3C//DTD SVG 1.1//EN"
 "http://www.w3.org/Graphics/SVG/1.1/DTD/svg11.dtd">
<!-- Generated by graphviz version 2.40.1 (20161225.0304)
 -->
<!-- Title: Graphical Class Hierarchy Pages: 1 -->
<svg width="266pt" height="88pt"
 viewBox="0.00 0.00 266.00 88.00" xmlns="http://www.w3.org/2000/svg" xmlns:xlink="http://www.w3.org/1999/xlink">
<g id="graph0" class="graph" transform="scale(1 1) rotate(0) translate(4 84)">
<title>Graphical Class Hierarchy</title>
<polygon fill="#ffffff" stroke="transparent" points="-4,4 -4,-84 262,-84 262,4 -4,4"/>
<!-- Node16 -->
<g id="node1" class="node">
<title>Node16</title>
<g id="a_node1"><a xlink:title=" ">
<polygon fill="#ffffff" stroke="#bfbfbf" points="0,-30 0,-49 80,-49 80,-30 0,-30"/>
<text text-anchor="middle" x="40" y="-37" font-family="Helvetica,sans-Serif" font-size="10.00" fill="#000000">conditional_t</text>
</a>
</g>
</g>
<!-- Node0 -->
<g id="node2" class="node">
<title>Node0</title>
<g id="a_node2"><a xlink:href="structhw__libs_1_1fake__std17_1_1conjunction_3_01_b1_00_01_bn_8_8_8_01_4.html" target="_top" xlink:title=" ">
<polygon fill="#ffffff" stroke="#000000" points="116,-49.5 116,-79.5 258,-79.5 258,-49.5 116,-49.5"/>
<text text-anchor="start" x="124" y="-67.5" font-family="Helvetica,sans-Serif" font-size="10.00" fill="#000000">hw_libs::fake_std17</text>
<text text-anchor="middle" x="187" y="-56.5" font-family="Helvetica,sans-Serif" font-size="10.00" fill="#000000">::conjunction&lt; B1, Bn... &gt;</text>
</a>
</g>
</g>
<!-- Node16&#45;&gt;Node0 -->
<g id="edge1" class="edge">
<title>Node16&#45;&gt;Node0</title>
<path fill="none" stroke="#191970" d="M90.0386,-48.01C98.3385,-49.4215 107.0845,-50.9089 115.7876,-52.389"/>
<polygon fill="#191970" stroke="#191970" points="90.6137,-44.5576 80.1684,-46.3314 89.44,-51.4585 90.6137,-44.5576"/>
</g>
<!-- Node18 -->
<g id="node3" class="node">
<title>Node18</title>
<g id="a_node3"><a xlink:href="structhw__libs_1_1fake__std17_1_1disjunction_3_01_b1_00_01_bn_8_8_8_01_4.html" target="_top" xlink:title=" ">
<polygon fill="#ffffff" stroke="#000000" points="117.5,-.5 117.5,-30.5 256.5,-30.5 256.5,-.5 117.5,-.5"/>
<text text-anchor="start" x="125.5" y="-18.5" font-family="Helvetica,sans-Serif" font-size="10.00" fill="#000000">hw_libs::fake_std17</text>
<text text-anchor="middle" x="187" y="-7.5" font-family="Helvetica,sans-Serif" font-size="10.00" fill="#000000">::disjunction&lt; B1, Bn... &gt;</text>
</a>
</g>
</g>
<!-- Node16&#45;&gt;Node18 -->
<g id="edge2" class="edge">
<title>Node16&#45;&gt;Node18</title>
<path fill="none" stroke="#191970" d="M90.2196,-31.3009C99.005,-29.8665 108.2851,-28.3514 117.4819,-26.8499"/>
<polygon fill="#191970" stroke="#191970" points="89.4737,-27.8762 80.1684,-32.9419 90.6017,-34.7848 89.4737,-27.8762"/>
</g>
</g>
</svg>
