<?xml version="1.0" encoding="UTF-8" standalone="no"?>
<!DOCTYPE svg PUBLIC "-//W3C//DTD SVG 1.1//EN"
 "http://www.w3.org/Graphics/SVG/1.1/DTD/svg11.dtd">
<!-- Generated by graphviz version 2.40.1 (20161225.0304)
 -->
<!-- Title: Graphical Class Hierarchy Pages: 1 -->
<svg width="277pt" height="110pt"
 viewBox="0.00 0.00 277.00 110.00" xmlns="http://www.w3.org/2000/svg" xmlns:xlink="http://www.w3.org/1999/xlink">
<g id="graph0" class="graph" transform="scale(1 1) rotate(0) translate(4 106)">
<title>Graphical Class Hierarchy</title>
<polygon fill="#ffffff" stroke="transparent" points="-4,4 -4,-106 273,-106 273,4 -4,4"/>
<!-- Node1 -->
<g id="node1" class="node">
<title>Node1</title>
<g id="a_node1"><a xlink:title=" ">
<polygon fill="#ffffff" stroke="#bfbfbf" points="0,-47 0,-66 63,-66 63,-47 0,-47"/>
<text text-anchor="middle" x="31.5" y="-54" font-family="Helvetica,sans-Serif" font-size="10.00" fill="#000000">true_type</text>
</a>
</g>
</g>
<!-- Node0 -->
<g id="node2" class="node">
<title>Node0</title>
<g id="a_node2"><a xlink:href="structhw__libs_1_1fake__std17_1_1conjunction.html" target="_top" xlink:title=" ">
<polygon fill="#ffffff" stroke="#000000" points="127.5,-71.5 127.5,-101.5 240.5,-101.5 240.5,-71.5 127.5,-71.5"/>
<text text-anchor="start" x="135.5" y="-89.5" font-family="Helvetica,sans-Serif" font-size="10.00" fill="#000000">hw_libs::fake_std17</text>
<text text-anchor="middle" x="184" y="-78.5" font-family="Helvetica,sans-Serif" font-size="10.00" fill="#000000">::conjunction&lt;... &gt;</text>
</a>
</g>
</g>
<!-- Node1&#45;&gt;Node0 -->
<g id="edge1" class="edge">
<title>Node1&#45;&gt;Node0</title>
<path fill="none" stroke="#191970" d="M73.1245,-64.6884C89.8786,-67.9843 109.4642,-71.8372 127.4737,-75.3801"/>
<polygon fill="#191970" stroke="#191970" points="73.5856,-61.2121 63.0981,-62.716 72.2344,-68.0805 73.5856,-61.2121"/>
</g>
<!-- Node3 -->
<g id="node3" class="node">
<title>Node3</title>
<g id="a_node3"><a xlink:href="structhw__libs_1_1sfinae_1_1is__container_3_01_t_00_01void__t_3_01typename_01std_1_1remove__refe056f23b3351f1e8fe02e8093a775fb6a.html" target="_top" xlink:title=" ">
<polygon fill="#ffffff" stroke="#000000" points="99,-.5 99,-52.5 269,-52.5 269,-.5 99,-.5"/>
<text text-anchor="start" x="107" y="-40.5" font-family="Helvetica,sans-Serif" font-size="10.00" fill="#000000">hw_libs::sfinae::is</text>
<text text-anchor="start" x="107" y="-29.5" font-family="Helvetica,sans-Serif" font-size="10.00" fill="#000000">_container&lt; T, void</text>
<text text-anchor="start" x="107" y="-18.5" font-family="Helvetica,sans-Serif" font-size="10.00" fill="#000000">_t&lt; typename std::remove</text>
<text text-anchor="middle" x="184" y="-7.5" font-family="Helvetica,sans-Serif" font-size="10.00" fill="#000000">_reference_t&lt; T &gt;::iterator &gt; &gt;</text>
</a>
</g>
</g>
<!-- Node1&#45;&gt;Node3 -->
<g id="edge2" class="edge">
<title>Node1&#45;&gt;Node3</title>
<path fill="none" stroke="#191970" d="M73.0133,-48.3335C81.1549,-46.7318 89.9685,-44.998 98.9471,-43.2317"/>
<polygon fill="#191970" stroke="#191970" points="72.2344,-44.9195 63.0981,-50.284 73.5856,-51.7879 72.2344,-44.9195"/>
</g>
</g>
</svg>
