<?xml version="1.0" encoding="UTF-8" standalone="no"?>
<!DOCTYPE svg PUBLIC "-//W3C//DTD SVG 1.1//EN"
 "http://www.w3.org/Graphics/SVG/1.1/DTD/svg11.dtd">
<!-- Generated by graphviz version 2.40.1 (20161225.0304)
 -->
<!-- Title: Graphical Class Hierarchy Pages: 1 -->
<svg width="327pt" height="68pt"
 viewBox="0.00 0.00 327.00 68.00" xmlns="http://www.w3.org/2000/svg" xmlns:xlink="http://www.w3.org/1999/xlink">
<g id="graph0" class="graph" transform="scale(1 1) rotate(0) translate(4 64)">
<title>Graphical Class Hierarchy</title>
<polygon fill="#ffffff" stroke="transparent" points="-4,4 -4,-64 323,-64 323,4 -4,4"/>
<!-- Node0 -->
<g id="node1" class="node">
<title>Node0</title>
<g id="a_node1"><a xlink:href="structhw__libs_1_1fake__std17_1_1conjunction.html" target="_top" xlink:title="hw_libs::fake_std17\l::conjunction\&lt;... \&gt;">
<polygon fill="#ffffff" stroke="#000000" points="0,-11.5 0,-41.5 113,-41.5 113,-11.5 0,-11.5"/>
<text text-anchor="start" x="8" y="-29.5" font-family="Helvetica,sans-Serif" font-size="10.00" fill="#000000">hw_libs::fake_std17</text>
<text text-anchor="middle" x="56.5" y="-18.5" font-family="Helvetica,sans-Serif" font-size="10.00" fill="#000000">::conjunction&lt;... &gt;</text>
</a>
</g>
</g>
<!-- Node0&#45;&gt;Node0 -->
<g id="edge1" class="edge">
<title>Node0&#45;&gt;Node0</title>
<path fill="none" stroke="#191970" d="M25.2269,-51.9579C29.1084,-56.679 39.5327,-60 56.5,-60 84.3438,-60 94.5676,-51.0566 87.1716,-41.659"/>
<polygon fill="#191970" stroke="#191970" points="28.7393,-51.8461 25.8284,-41.659 21.7512,-51.4379 28.7393,-51.8461"/>
</g>
<!-- Node2 -->
<g id="node2" class="node">
<title>Node2</title>
<g id="a_node2"><a xlink:href="structhw__libs_1_1sfinae_1_1is__container_3_01_t_00_01void__t_3_01typename_01std_1_1remove__refe056f23b3351f1e8fe02e8093a775fb6a.html" target="_top" xlink:title="hw_libs::sfinae::is\l_container\&lt; T, void\l_t\&lt; typename std::remove\l_reference_t\&lt; T \&gt;::iterator \&gt; \&gt;">
<polygon fill="#ffffff" stroke="#000000" points="149,-.5 149,-52.5 319,-52.5 319,-.5 149,-.5"/>
<text text-anchor="start" x="157" y="-40.5" font-family="Helvetica,sans-Serif" font-size="10.00" fill="#000000">hw_libs::sfinae::is</text>
<text text-anchor="start" x="157" y="-29.5" font-family="Helvetica,sans-Serif" font-size="10.00" fill="#000000">_container&lt; T, void</text>
<text text-anchor="start" x="157" y="-18.5" font-family="Helvetica,sans-Serif" font-size="10.00" fill="#000000">_t&lt; typename std::remove</text>
<text text-anchor="middle" x="234" y="-7.5" font-family="Helvetica,sans-Serif" font-size="10.00" fill="#000000">_reference_t&lt; T &gt;::iterator &gt; &gt;</text>
</a>
</g>
</g>
<!-- Node0&#45;&gt;Node2 -->
<g id="edge2" class="edge">
<title>Node0&#45;&gt;Node2</title>
<path fill="none" stroke="#191970" d="M123.1859,-26.5C131.5447,-26.5 140.1822,-26.5 148.7756,-26.5"/>
<polygon fill="#191970" stroke="#191970" points="123.1502,-23.0001 113.1501,-26.5 123.1501,-30.0001 123.1502,-23.0001"/>
</g>
</g>
</svg>
