<?xml version="1.0" encoding="UTF-8" standalone="no"?>
<!DOCTYPE svg PUBLIC "-//W3C//DTD SVG 1.1//EN"
 "http://www.w3.org/Graphics/SVG/1.1/DTD/svg11.dtd">
<!-- Generated by graphviz version 2.40.1 (20161225.0304)
 -->
<!-- Title: Graphical Class Hierarchy Pages: 1 -->
<svg width="187pt" height="88pt"
 viewBox="0.00 0.00 187.00 88.00" xmlns="http://www.w3.org/2000/svg" xmlns:xlink="http://www.w3.org/1999/xlink">
<g id="graph0" class="graph" transform="scale(1 1) rotate(0) translate(4 84)">
<title>Graphical Class Hierarchy</title>
<polygon fill="#ffffff" stroke="transparent" points="-4,4 -4,-84 183,-84 183,4 -4,4"/>
<!-- Node0 -->
<g id="node1" class="node">
<title>Node0</title>
<g id="a_node1"><a xlink:href="class_b1.html" target="_top" xlink:title="B1">
<polygon fill="#ffffff" stroke="#000000" points="0,-30 0,-49 29,-49 29,-30 0,-30"/>
<text text-anchor="middle" x="14.5" y="-37" font-family="Helvetica,sans-Serif" font-size="10.00" fill="#000000">B1</text>
</a>
</g>
</g>
<!-- Node1 -->
<g id="node2" class="node">
<title>Node1</title>
<g id="a_node2"><a xlink:href="structhw__libs_1_1fake__std17_1_1conjunction_3_01_b1_01_4.html" target="_top" xlink:title="hw_libs::fake_std17\l::conjunction\&lt; B1 \&gt;">
<polygon fill="#ffffff" stroke="#000000" points="65,-49.5 65,-79.5 179,-79.5 179,-49.5 65,-49.5"/>
<text text-anchor="start" x="73" y="-67.5" font-family="Helvetica,sans-Serif" font-size="10.00" fill="#000000">hw_libs::fake_std17</text>
<text text-anchor="middle" x="122" y="-56.5" font-family="Helvetica,sans-Serif" font-size="10.00" fill="#000000">::conjunction&lt; B1 &gt;</text>
</a>
</g>
</g>
<!-- Node0&#45;&gt;Node1 -->
<g id="edge1" class="edge">
<title>Node0&#45;&gt;Node1</title>
<path fill="none" stroke="#191970" d="M39.227,-45.2505C46.9946,-47.0569 55.9173,-49.1319 64.9646,-51.236"/>
<polygon fill="#191970" stroke="#191970" points="39.9803,-41.8323 29.4474,-42.9761 38.3947,-48.6504 39.9803,-41.8323"/>
</g>
<!-- Node2 -->
<g id="node3" class="node">
<title>Node2</title>
<g id="a_node3"><a xlink:href="structhw__libs_1_1fake__std17_1_1disjunction_3_01_b1_01_4.html" target="_top" xlink:title="hw_libs::fake_std17\l::disjunction\&lt; B1 \&gt;">
<polygon fill="#ffffff" stroke="#000000" points="65.5,-.5 65.5,-30.5 178.5,-30.5 178.5,-.5 65.5,-.5"/>
<text text-anchor="start" x="73.5" y="-18.5" font-family="Helvetica,sans-Serif" font-size="10.00" fill="#000000">hw_libs::fake_std17</text>
<text text-anchor="middle" x="122" y="-7.5" font-family="Helvetica,sans-Serif" font-size="10.00" fill="#000000">::disjunction&lt; B1 &gt;</text>
</a>
</g>
</g>
<!-- Node0&#45;&gt;Node2 -->
<g id="edge2" class="edge">
<title>Node0&#45;&gt;Node2</title>
<path fill="none" stroke="#191970" d="M39.3562,-33.9507C47.2316,-32.1925 56.2844,-30.1714 65.4462,-28.126"/>
<polygon fill="#191970" stroke="#191970" points="38.4445,-30.568 29.4474,-36.1629 39.9698,-37.3998 38.4445,-30.568"/>
</g>
</g>
</svg>
