<?xml version="1.0" encoding="UTF-8" standalone="no"?>
<!DOCTYPE svg PUBLIC "-//W3C//DTD SVG 1.1//EN"
 "http://www.w3.org/Graphics/SVG/1.1/DTD/svg11.dtd">
<!-- Generated by graphviz version 2.40.1 (20161225.0304)
 -->
<!-- Title: Graphical Class Hierarchy Pages: 1 -->
<svg width="193pt" height="66pt"
 viewBox="0.00 0.00 193.00 66.00" xmlns="http://www.w3.org/2000/svg" xmlns:xlink="http://www.w3.org/1999/xlink">
<g id="graph0" class="graph" transform="scale(1 1) rotate(0) translate(4 62)">
<title>Graphical Class Hierarchy</title>
<polygon fill="#ffffff" stroke="transparent" points="-4,4 -4,-62 189,-62 189,4 -4,4"/>
<!-- Node4 -->
<g id="node1" class="node">
<title>Node4</title>
<g id="a_node1"><a xlink:title=" ">
<polygon fill="#ffffff" stroke="#bfbfbf" points="0,-19.5 0,-38.5 36,-38.5 36,-19.5 0,-19.5"/>
<text text-anchor="middle" x="18" y="-26.5" font-family="Helvetica,sans-Serif" font-size="10.00" fill="#000000">Test</text>
</a>
</g>
</g>
<!-- Node0 -->
<g id="node2" class="node">
<title>Node0</title>
<g id="a_node2"><a xlink:href="classtest_1_1_ip_storage_tests.html" target="_top" xlink:title=" ">
<polygon fill="#ffffff" stroke="#000000" points="72,-38.5 72,-57.5 185,-57.5 185,-38.5 72,-38.5"/>
<text text-anchor="middle" x="128.5" y="-45.5" font-family="Helvetica,sans-Serif" font-size="10.00" fill="#000000">test::IpStorageTests</text>
</a>
</g>
</g>
<!-- Node4&#45;&gt;Node0 -->
<g id="edge1" class="edge">
<title>Node4&#45;&gt;Node0</title>
<path fill="none" stroke="#191970" d="M46.324,-33.8702C54.5137,-35.2784 63.748,-36.8662 72.992,-38.4556"/>
<polygon fill="#191970" stroke="#191970" points="46.6953,-30.3828 36.2468,-32.1375 45.5091,-37.2815 46.6953,-30.3828"/>
</g>
<!-- Node6 -->
<g id="node3" class="node">
<title>Node6</title>
<g id="a_node3"><a xlink:href="classtest_1_1_print_ip_tests.html" target="_top" xlink:title="Tests for homework 3.">
<polygon fill="#ffffff" stroke="#000000" points="79.5,-.5 79.5,-19.5 177.5,-19.5 177.5,-.5 79.5,-.5"/>
<text text-anchor="middle" x="128.5" y="-7.5" font-family="Helvetica,sans-Serif" font-size="10.00" fill="#000000">test::PrintIpTests</text>
</a>
</g>
</g>
<!-- Node4&#45;&gt;Node6 -->
<g id="edge2" class="edge">
<title>Node4&#45;&gt;Node6</title>
<path fill="none" stroke="#191970" d="M46.4139,-24.1144C56.4277,-22.3925 67.9949,-20.4036 79.2286,-18.472"/>
<polygon fill="#191970" stroke="#191970" points="45.5091,-20.7185 36.2468,-25.8625 46.6953,-27.6172 45.5091,-20.7185"/>
</g>
</g>
</svg>
