<?xml version="1.0" encoding="UTF-8" standalone="no"?>
<!DOCTYPE svg PUBLIC "-//W3C//DTD SVG 1.1//EN"
 "http://www.w3.org/Graphics/SVG/1.1/DTD/svg11.dtd">
<!-- Generated by graphviz version 2.40.1 (20161225.0304)
 -->
<!-- Title: hw1::Boundaries&lt; T &gt; Pages: 1 -->
<svg width="134pt" height="182pt"
 viewBox="0.00 0.00 134.00 182.00" xmlns="http://www.w3.org/2000/svg" xmlns:xlink="http://www.w3.org/1999/xlink">
<g id="graph0" class="graph" transform="scale(1 1) rotate(0) translate(4 178)">
<title>hw1::Boundaries&lt; T &gt;</title>
<polygon fill="#ffffff" stroke="transparent" points="-4,4 -4,-178 130,-178 130,4 -4,4"/>
<!-- Node1 -->
<g id="node1" class="node">
<title>Node1</title>
<g id="a_node1"><a xlink:title=" ">
<polygon fill="#bfbfbf" stroke="#000000" points="0,-.5 0,-57.5 126,-57.5 126,-.5 0,-.5"/>
<text text-anchor="middle" x="63" y="-45.5" font-family="Helvetica,sans-Serif" font-size="10.00" fill="#000000">hw1::Boundaries&lt; T &gt;</text>
<polyline fill="none" stroke="#000000" points="0,-38.5 126,-38.5 "/>
<text text-anchor="middle" x="63" y="-26.5" font-family="Helvetica,sans-Serif" font-size="10.00" fill="#000000"> </text>
<polyline fill="none" stroke="#000000" points="0,-19.5 126,-19.5 "/>
<text text-anchor="middle" x="63" y="-7.5" font-family="Helvetica,sans-Serif" font-size="10.00" fill="#000000"> </text>
</a>
</g>
</g>
<!-- Node2 -->
<g id="node2" class="node">
<title>Node2</title>
<g id="a_node2"><a xlink:title=" ">
<polygon fill="#ffffff" stroke="#bfbfbf" points="48.5,-116.5 48.5,-173.5 77.5,-173.5 77.5,-116.5 48.5,-116.5"/>
<text text-anchor="middle" x="63" y="-161.5" font-family="Helvetica,sans-Serif" font-size="10.00" fill="#000000">T</text>
<polyline fill="none" stroke="#bfbfbf" points="48.5,-154.5 77.5,-154.5 "/>
<text text-anchor="middle" x="63" y="-142.5" font-family="Helvetica,sans-Serif" font-size="10.00" fill="#000000"> </text>
<polyline fill="none" stroke="#bfbfbf" points="48.5,-135.5 77.5,-135.5 "/>
<text text-anchor="middle" x="63" y="-123.5" font-family="Helvetica,sans-Serif" font-size="10.00" fill="#000000"> </text>
</a>
</g>
</g>
<!-- Node2&#45;&gt;Node1 -->
<g id="edge1" class="edge">
<title>Node2&#45;&gt;Node1</title>
<path fill="none" stroke="#404040" d="M63,-116.3258C63,-102.3834 63,-85.3727 63,-70.0815"/>
<polygon fill="none" stroke="#404040" points="63.0001,-69.7463 59,-63.7464 63,-57.7463 67,-63.7463 63.0001,-69.7463"/>
<text text-anchor="middle" x="78.5" y="-90" font-family="Helvetica,sans-Serif" font-size="10.00" fill="#000000"> +min</text>
<text text-anchor="middle" x="78.5" y="-79" font-family="Helvetica,sans-Serif" font-size="10.00" fill="#000000">+max</text>
</g>
</g>
</svg>
