<?xml version="1.0" encoding="UTF-8" standalone="no"?>
<!DOCTYPE svg PUBLIC "-//W3C//DTD SVG 1.1//EN"
 "http://www.w3.org/Graphics/SVG/1.1/DTD/svg11.dtd">
<!-- Generated by graphviz version 2.40.1 (20161225.0304)
 -->
<!-- Title: hw2::IpStorage::IpBoundaries Pages: 1 -->
<svg width="264pt" height="397pt"
 viewBox="0.00 0.00 264.00 397.00" xmlns="http://www.w3.org/2000/svg" xmlns:xlink="http://www.w3.org/1999/xlink">
<g id="graph0" class="graph" transform="scale(1 1) rotate(0) translate(4 393)">
<title>hw2::IpStorage::IpBoundaries</title>
<polygon fill="#ffffff" stroke="transparent" points="-4,4 -4,-393 260,-393 260,4 -4,4"/>
<!-- Node1 -->
<g id="node1" class="node">
<title>Node1</title>
<polygon fill="#bfbfbf" stroke="#000000" points="51.5,-.5 51.5,-57.5 210.5,-57.5 210.5,-.5 51.5,-.5"/>
<text text-anchor="middle" x="131" y="-45.5" font-family="Helvetica,sans-Serif" font-size="10.00" fill="#000000">hw2::IpStorage::IpBoundaries</text>
<polyline fill="none" stroke="#000000" points="51.5,-38.5 210.5,-38.5 "/>
<text text-anchor="middle" x="131" y="-26.5" font-family="Helvetica,sans-Serif" font-size="10.00" fill="#000000"> </text>
<polyline fill="none" stroke="#000000" points="51.5,-19.5 210.5,-19.5 "/>
<text text-anchor="middle" x="131" y="-7.5" font-family="Helvetica,sans-Serif" font-size="10.00" fill="#000000"> </text>
</g>
<!-- Node2 -->
<g id="node2" class="node">
<title>Node2</title>
<g id="a_node2"><a xlink:href="classhw2_1_1_ip_v4.html" target="_top" xlink:title="{hw2::IpV4\n||+ IpV4()\l+ IpV4()\l+ IpV4()\l+ byte()\l+ byte()\l+ contains()\l+ operator=()\l+ operator\&lt;()\l+ operator\&gt;()\l+ bytesNumber()\l}">
<polygon fill="#ffffff" stroke="#000000" points="80.5,-116.5 80.5,-272.5 181.5,-272.5 181.5,-116.5 80.5,-116.5"/>
<text text-anchor="middle" x="131" y="-260.5" font-family="Helvetica,sans-Serif" font-size="10.00" fill="#000000">hw2::IpV4</text>
<polyline fill="none" stroke="#000000" points="80.5,-253.5 181.5,-253.5 "/>
<text text-anchor="middle" x="131" y="-241.5" font-family="Helvetica,sans-Serif" font-size="10.00" fill="#000000"> </text>
<polyline fill="none" stroke="#000000" points="80.5,-234.5 181.5,-234.5 "/>
<text text-anchor="start" x="88.5" y="-222.5" font-family="Helvetica,sans-Serif" font-size="10.00" fill="#000000">+ IpV4()</text>
<text text-anchor="start" x="88.5" y="-211.5" font-family="Helvetica,sans-Serif" font-size="10.00" fill="#000000">+ IpV4()</text>
<text text-anchor="start" x="88.5" y="-200.5" font-family="Helvetica,sans-Serif" font-size="10.00" fill="#000000">+ IpV4()</text>
<text text-anchor="start" x="88.5" y="-189.5" font-family="Helvetica,sans-Serif" font-size="10.00" fill="#000000">+ byte()</text>
<text text-anchor="start" x="88.5" y="-178.5" font-family="Helvetica,sans-Serif" font-size="10.00" fill="#000000">+ byte()</text>
<text text-anchor="start" x="88.5" y="-167.5" font-family="Helvetica,sans-Serif" font-size="10.00" fill="#000000">+ contains()</text>
<text text-anchor="start" x="88.5" y="-156.5" font-family="Helvetica,sans-Serif" font-size="10.00" fill="#000000">+ operator=()</text>
<text text-anchor="start" x="88.5" y="-145.5" font-family="Helvetica,sans-Serif" font-size="10.00" fill="#000000">+ operator&lt;()</text>
<text text-anchor="start" x="88.5" y="-134.5" font-family="Helvetica,sans-Serif" font-size="10.00" fill="#000000">+ operator&gt;()</text>
<text text-anchor="start" x="88.5" y="-123.5" font-family="Helvetica,sans-Serif" font-size="10.00" fill="#000000">+ bytesNumber()</text>
</a>
</g>
</g>
<!-- Node2&#45;&gt;Node1 -->
<g id="edge1" class="edge">
<title>Node2&#45;&gt;Node1</title>
<path fill="none" stroke="#404040" d="M131,-116.112C131,-100.1203 131,-83.9109 131,-69.8814"/>
<polygon fill="none" stroke="#404040" points="131.0001,-69.6788 127,-63.6788 131,-57.6788 135,-63.6787 131.0001,-69.6788"/>
<text text-anchor="middle" x="146.5" y="-90" font-family="Helvetica,sans-Serif" font-size="10.00" fill="#000000"> +min</text>
<text text-anchor="middle" x="146.5" y="-79" font-family="Helvetica,sans-Serif" font-size="10.00" fill="#000000">+max</text>
</g>
<!-- Node3 -->
<g id="node3" class="node">
<title>Node3</title>
<polygon fill="#ffffff" stroke="#bfbfbf" points="0,-326 0,-383 126,-383 126,-326 0,-326"/>
<text text-anchor="middle" x="63" y="-371" font-family="Helvetica,sans-Serif" font-size="10.00" fill="#000000">static constexpr size_t</text>
<polyline fill="none" stroke="#bfbfbf" points="0,-364 126,-364 "/>
<text text-anchor="middle" x="63" y="-352" font-family="Helvetica,sans-Serif" font-size="10.00" fill="#000000"> </text>
<polyline fill="none" stroke="#bfbfbf" points="0,-345 126,-345 "/>
<text text-anchor="middle" x="63" y="-333" font-family="Helvetica,sans-Serif" font-size="10.00" fill="#000000"> </text>
</g>
<!-- Node3&#45;&gt;Node2 -->
<g id="edge2" class="edge">
<title>Node3&#45;&gt;Node2</title>
<path fill="none" stroke="#404040" d="M75.157,-325.8952C80.2907,-313.8161 86.5764,-299.026 93.0559,-283.7802"/>
<polygon fill="none" stroke="#404040" points="93.1007,-283.6746 91.7663,-276.5881 97.7945,-272.6306 99.1289,-279.7172 93.1007,-283.6746"/>
<text text-anchor="middle" x="131.5" y="-294" font-family="Helvetica,sans-Serif" font-size="10.00" fill="#000000"> &#45;BYTES_NUMBER</text>
</g>
<!-- Node4 -->
<g id="node4" class="node">
<title>Node4</title>
<polygon fill="#ffffff" stroke="#bfbfbf" points="144,-320.5 144,-388.5 256,-388.5 256,-320.5 144,-320.5"/>
<text text-anchor="start" x="152" y="-376.5" font-family="Helvetica,sans-Serif" font-size="10.00" fill="#000000">array&lt; Byte, BYTES</text>
<text text-anchor="middle" x="200" y="-365.5" font-family="Helvetica,sans-Serif" font-size="10.00" fill="#000000">_NUMBER &gt;</text>
<polyline fill="none" stroke="#bfbfbf" points="144,-358.5 256,-358.5 "/>
<text text-anchor="middle" x="200" y="-346.5" font-family="Helvetica,sans-Serif" font-size="10.00" fill="#000000"> </text>
<polyline fill="none" stroke="#bfbfbf" points="144,-339.5 256,-339.5 "/>
<text text-anchor="middle" x="200" y="-327.5" font-family="Helvetica,sans-Serif" font-size="10.00" fill="#000000"> </text>
</g>
<!-- Node4&#45;&gt;Node2 -->
<g id="edge3" class="edge">
<title>Node4&#45;&gt;Node2</title>
<path fill="none" stroke="#404040" d="M188.9824,-320.2741C185.6778,-310.712 181.8907,-300.3752 178,-291 176.9844,-288.5527 175.9366,-286.0796 174.8633,-283.5911"/>
<polygon fill="none" stroke="#404040" points="174.8632,-283.5907 168.7802,-279.7181 170.0152,-272.6135 176.0983,-276.4861 174.8632,-283.5907"/>
<text text-anchor="middle" x="199" y="-294" font-family="Helvetica,sans-Serif" font-size="10.00" fill="#000000"> &#45;_data</text>
</g>
</g>
</svg>
