<?xml version="1.0" encoding="UTF-8" standalone="no"?>
<!DOCTYPE svg PUBLIC "-//W3C//DTD SVG 1.1//EN"
 "http://www.w3.org/Graphics/SVG/1.1/DTD/svg11.dtd">
<!-- Generated by graphviz version 2.40.1 (20161225.0304)
 -->
<!-- Title: hw1::Restrictions&lt; IpV4 &gt; Pages: 1 -->
<svg width="191pt" height="535pt"
 viewBox="0.00 0.00 191.00 535.00" xmlns="http://www.w3.org/2000/svg" xmlns:xlink="http://www.w3.org/1999/xlink">
<g id="graph0" class="graph" transform="scale(1 1) rotate(0) translate(4 531)">
<title>hw1::Restrictions&lt; IpV4 &gt;</title>
<polygon fill="#ffffff" stroke="transparent" points="-4,4 -4,-531 187,-531 187,4 -4,4"/>
<!-- Node1 -->
<g id="node1" class="node">
<title>Node1</title>
<g id="a_node1"><a xlink:title=" ">
<polygon fill="#bfbfbf" stroke="#000000" points="37.5,-.5 37.5,-68.5 145.5,-68.5 145.5,-.5 37.5,-.5"/>
<text text-anchor="start" x="45.5" y="-56.5" font-family="Helvetica,sans-Serif" font-size="10.00" fill="#000000">hw1::Restrictions&lt;</text>
<text text-anchor="middle" x="91.5" y="-45.5" font-family="Helvetica,sans-Serif" font-size="10.00" fill="#000000"> IpV4 &gt;</text>
<polyline fill="none" stroke="#000000" points="37.5,-38.5 145.5,-38.5 "/>
<text text-anchor="middle" x="91.5" y="-26.5" font-family="Helvetica,sans-Serif" font-size="10.00" fill="#000000"> </text>
<polyline fill="none" stroke="#000000" points="37.5,-19.5 145.5,-19.5 "/>
<text text-anchor="middle" x="91.5" y="-7.5" font-family="Helvetica,sans-Serif" font-size="10.00" fill="#000000"> </text>
</a>
</g>
</g>
<!-- Node2 -->
<g id="node2" class="node">
<title>Node2</title>
<g id="a_node2"><a xlink:href="structhw1_1_1_boundaries.html" target="_top" xlink:title=" ">
<polygon fill="#ffffff" stroke="#000000" points="27,-116.5 27,-184.5 156,-184.5 156,-116.5 27,-116.5"/>
<text text-anchor="start" x="35" y="-172.5" font-family="Helvetica,sans-Serif" font-size="10.00" fill="#000000">hw1::Boundaries&lt; hw1</text>
<text text-anchor="middle" x="91.5" y="-161.5" font-family="Helvetica,sans-Serif" font-size="10.00" fill="#000000">::GenericIp &gt;</text>
<polyline fill="none" stroke="#000000" points="27,-154.5 156,-154.5 "/>
<text text-anchor="middle" x="91.5" y="-142.5" font-family="Helvetica,sans-Serif" font-size="10.00" fill="#000000"> </text>
<polyline fill="none" stroke="#000000" points="27,-135.5 156,-135.5 "/>
<text text-anchor="middle" x="91.5" y="-123.5" font-family="Helvetica,sans-Serif" font-size="10.00" fill="#000000"> </text>
</a>
</g>
</g>
<!-- Node2&#45;&gt;Node1 -->
<g id="edge1" class="edge">
<title>Node2&#45;&gt;Node1</title>
<path fill="none" stroke="#404040" d="M91.5,-116.3236C91.5,-105.213 91.5,-92.6908 91.5,-80.8451"/>
<polygon fill="none" stroke="#404040" points="91.5001,-80.833 87.5,-74.833 91.5,-68.833 95.5,-74.833 91.5001,-80.833"/>
<text text-anchor="middle" x="124.5" y="-90" font-family="Helvetica,sans-Serif" font-size="10.00" fill="#000000"> +boundaries</text>
</g>
<!-- Node3 -->
<g id="node3" class="node">
<title>Node3</title>
<g id="a_node3"><a xlink:href="classhw1_1_1_generic_ip.html" target="_top" xlink:title=" ">
<polygon fill="#ffffff" stroke="#000000" points="0,-243.5 0,-421.5 183,-421.5 183,-243.5 0,-243.5"/>
<text text-anchor="middle" x="91.5" y="-409.5" font-family="Helvetica,sans-Serif" font-size="10.00" fill="#000000">hw1::GenericIp&lt; _bytesNumber &gt;</text>
<polyline fill="none" stroke="#000000" points="0,-402.5 183,-402.5 "/>
<text text-anchor="middle" x="91.5" y="-390.5" font-family="Helvetica,sans-Serif" font-size="10.00" fill="#000000"> </text>
<polyline fill="none" stroke="#000000" points="0,-383.5 183,-383.5 "/>
<text text-anchor="start" x="8" y="-371.5" font-family="Helvetica,sans-Serif" font-size="10.00" fill="#000000">+ GenericIp()</text>
<text text-anchor="start" x="8" y="-360.5" font-family="Helvetica,sans-Serif" font-size="10.00" fill="#000000">+ GenericIp()</text>
<text text-anchor="start" x="8" y="-349.5" font-family="Helvetica,sans-Serif" font-size="10.00" fill="#000000">+ GenericIp()</text>
<text text-anchor="start" x="8" y="-338.5" font-family="Helvetica,sans-Serif" font-size="10.00" fill="#000000">+ GenericIp()</text>
<text text-anchor="start" x="8" y="-327.5" font-family="Helvetica,sans-Serif" font-size="10.00" fill="#000000">+ byte()</text>
<text text-anchor="start" x="8" y="-316.5" font-family="Helvetica,sans-Serif" font-size="10.00" fill="#000000">+ byte()</text>
<text text-anchor="start" x="8" y="-305.5" font-family="Helvetica,sans-Serif" font-size="10.00" fill="#000000">+ contains()</text>
<text text-anchor="start" x="8" y="-294.5" font-family="Helvetica,sans-Serif" font-size="10.00" fill="#000000">+ operator=()</text>
<text text-anchor="start" x="8" y="-283.5" font-family="Helvetica,sans-Serif" font-size="10.00" fill="#000000">+ operator&lt;()</text>
<text text-anchor="start" x="8" y="-272.5" font-family="Helvetica,sans-Serif" font-size="10.00" fill="#000000">+ operator&gt;()</text>
<text text-anchor="start" x="8" y="-261.5" font-family="Helvetica,sans-Serif" font-size="10.00" fill="#000000">+ operator==()</text>
<text text-anchor="start" x="8" y="-250.5" font-family="Helvetica,sans-Serif" font-size="10.00" fill="#000000">+ bytesNumber()</text>
</a>
</g>
</g>
<!-- Node3&#45;&gt;Node2 -->
<g id="edge2" class="edge">
<title>Node3&#45;&gt;Node2</title>
<path fill="none" stroke="#404040" d="M91.5,-243.3661C91.5,-227.3682 91.5,-211.2935 91.5,-197.1206"/>
<polygon fill="none" stroke="#404040" points="91.5001,-196.6961 87.5,-190.6961 91.5,-184.6961 95.5,-190.696 91.5001,-196.6961"/>
<text text-anchor="middle" x="107" y="-217" font-family="Helvetica,sans-Serif" font-size="10.00" fill="#000000"> +min</text>
<text text-anchor="middle" x="107" y="-206" font-family="Helvetica,sans-Serif" font-size="10.00" fill="#000000">+max</text>
</g>
<!-- Node4 -->
<g id="node4" class="node">
<title>Node4</title>
<g id="a_node4"><a xlink:title=" ">
<polygon fill="#ffffff" stroke="#bfbfbf" points="9.5,-469.5 9.5,-526.5 173.5,-526.5 173.5,-469.5 9.5,-469.5"/>
<text text-anchor="middle" x="91.5" y="-514.5" font-family="Helvetica,sans-Serif" font-size="10.00" fill="#000000">array&lt; Byte, _bytesNumber &gt;</text>
<polyline fill="none" stroke="#bfbfbf" points="9.5,-507.5 173.5,-507.5 "/>
<text text-anchor="middle" x="91.5" y="-495.5" font-family="Helvetica,sans-Serif" font-size="10.00" fill="#000000"> </text>
<polyline fill="none" stroke="#bfbfbf" points="9.5,-488.5 173.5,-488.5 "/>
<text text-anchor="middle" x="91.5" y="-476.5" font-family="Helvetica,sans-Serif" font-size="10.00" fill="#000000"> </text>
</a>
</g>
</g>
<!-- Node4&#45;&gt;Node3 -->
<g id="edge3" class="edge">
<title>Node4&#45;&gt;Node3</title>
<path fill="none" stroke="#404040" d="M91.5,-469.1721C91.5,-458.9957 91.5,-446.8923 91.5,-434.1577"/>
<polygon fill="none" stroke="#404040" points="91.5001,-433.7971 87.5,-427.7972 91.5,-421.7971 95.5,-427.7971 91.5001,-433.7971"/>
<text text-anchor="middle" x="108.5" y="-443" font-family="Helvetica,sans-Serif" font-size="10.00" fill="#000000"> &#45;_data</text>
</g>
</g>
</svg>
