<?xml version="1.0" encoding="UTF-8" standalone="no"?>
<!DOCTYPE svg PUBLIC "-//W3C//DTD SVG 1.1//EN"
 "http://www.w3.org/Graphics/SVG/1.1/DTD/svg11.dtd">
<!-- Generated by graphviz version 2.40.1 (20161225.0304)
 -->
<!-- Title: hw_libs::fake_std17::conjunction&lt; B1, Bn... &gt; Pages: 1 -->
<svg width="172pt" height="193pt"
 viewBox="0.00 0.00 172.00 193.00" xmlns="http://www.w3.org/2000/svg" xmlns:xlink="http://www.w3.org/1999/xlink">
<g id="graph0" class="graph" transform="scale(1 1) rotate(0) translate(4 189)">
<title>hw_libs::fake_std17::conjunction&lt; B1, Bn... &gt;</title>
<polygon fill="#ffffff" stroke="transparent" points="-4,4 -4,-189 168,-189 168,4 -4,4"/>
<!-- Node0 -->
<g id="node1" class="node">
<title>Node0</title>
<polygon fill="#bfbfbf" stroke="#000000" points="11,-.5 11,-68.5 153,-68.5 153,-.5 11,-.5"/>
<text text-anchor="start" x="19" y="-56.5" font-family="Helvetica,sans-Serif" font-size="10.00" fill="#000000">hw_libs::fake_std17</text>
<text text-anchor="middle" x="82" y="-45.5" font-family="Helvetica,sans-Serif" font-size="10.00" fill="#000000">::conjunction&lt; B1, Bn... &gt;</text>
<polyline fill="none" stroke="#000000" points="11,-38.5 153,-38.5 "/>
<text text-anchor="middle" x="82" y="-26.5" font-family="Helvetica,sans-Serif" font-size="10.00" fill="#000000"> </text>
<polyline fill="none" stroke="#000000" points="11,-19.5 153,-19.5 "/>
<text text-anchor="middle" x="82" y="-7.5" font-family="Helvetica,sans-Serif" font-size="10.00" fill="#000000"> </text>
</g>
<!-- Node1 -->
<g id="node2" class="node">
<title>Node1</title>
<polygon fill="#ffffff" stroke="#bfbfbf" points="0,-105.5 0,-184.5 164,-184.5 164,-105.5 0,-105.5"/>
<text text-anchor="start" x="8" y="-172.5" font-family="Helvetica,sans-Serif" font-size="10.00" fill="#000000">std::conditional_t</text>
<text text-anchor="start" x="8" y="-161.5" font-family="Helvetica,sans-Serif" font-size="10.00" fill="#000000">&lt; bool(B1::value), conjunction</text>
<text text-anchor="middle" x="82" y="-150.5" font-family="Helvetica,sans-Serif" font-size="10.00" fill="#000000">&lt; Bn... &gt;, B1 &gt;</text>
<polyline fill="none" stroke="#bfbfbf" points="0,-143.5 164,-143.5 "/>
<text text-anchor="middle" x="82" y="-131.5" font-family="Helvetica,sans-Serif" font-size="10.00" fill="#000000"> </text>
<polyline fill="none" stroke="#bfbfbf" points="0,-124.5 164,-124.5 "/>
<text text-anchor="middle" x="82" y="-112.5" font-family="Helvetica,sans-Serif" font-size="10.00" fill="#000000"> </text>
</g>
<!-- Node1&#45;&gt;Node0 -->
<g id="edge1" class="edge">
<title>Node1&#45;&gt;Node0</title>
<path fill="none" stroke="#191970" d="M82,-95.3742C82,-86.3552 82,-77.1343 82,-68.6861"/>
<polygon fill="none" stroke="#191970" points="78.5001,-95.419 82,-105.4191 85.5001,-95.4191 78.5001,-95.419"/>
</g>
</g>
</svg>
