<?xml version="1.0" encoding="UTF-8" standalone="no"?>
<!DOCTYPE svg PUBLIC "-//W3C//DTD SVG 1.1//EN"
 "http://www.w3.org/Graphics/SVG/1.1/DTD/svg11.dtd">
<!-- Generated by graphviz version 2.40.1 (20161225.0304)
 -->
<!-- Title: hw1::IpStorage::IpBoundaries Pages: 1 -->
<svg width="172pt" height="430pt"
 viewBox="0.00 0.00 172.00 430.00" xmlns="http://www.w3.org/2000/svg" xmlns:xlink="http://www.w3.org/1999/xlink">
<g id="graph0" class="graph" transform="scale(1 1) rotate(0) translate(4 426)">
<title>hw1::IpStorage::IpBoundaries</title>
<polygon fill="#ffffff" stroke="transparent" points="-4,4 -4,-426 168,-426 168,4 -4,4"/>
<!-- Node1 -->
<g id="node1" class="node">
<title>Node1</title>
<g id="a_node1"><a xlink:title=" ">
<polygon fill="#bfbfbf" stroke="#000000" points="2.5,-.5 2.5,-57.5 161.5,-57.5 161.5,-.5 2.5,-.5"/>
<text text-anchor="middle" x="82" y="-45.5" font-family="Helvetica,sans-Serif" font-size="10.00" fill="#000000">hw1::IpStorage::IpBoundaries</text>
<polyline fill="none" stroke="#000000" points="2.5,-38.5 161.5,-38.5 "/>
<text text-anchor="middle" x="82" y="-26.5" font-family="Helvetica,sans-Serif" font-size="10.00" fill="#000000"> </text>
<polyline fill="none" stroke="#000000" points="2.5,-19.5 161.5,-19.5 "/>
<text text-anchor="middle" x="82" y="-7.5" font-family="Helvetica,sans-Serif" font-size="10.00" fill="#000000"> </text>
</a>
</g>
</g>
<!-- Node2 -->
<g id="node2" class="node">
<title>Node2</title>
<g id="a_node2"><a xlink:href="classhw1_1_1_generic_ip.html" target="_top" xlink:title=" ">
<polygon fill="#ffffff" stroke="#000000" points="20,-116.5 20,-316.5 144,-316.5 144,-116.5 20,-116.5"/>
<text text-anchor="middle" x="82" y="-304.5" font-family="Helvetica,sans-Serif" font-size="10.00" fill="#000000">hw1::GenericIp&lt; 4u &gt;</text>
<polyline fill="none" stroke="#000000" points="20,-297.5 144,-297.5 "/>
<text text-anchor="middle" x="82" y="-285.5" font-family="Helvetica,sans-Serif" font-size="10.00" fill="#000000"> </text>
<polyline fill="none" stroke="#000000" points="20,-278.5 144,-278.5 "/>
<text text-anchor="start" x="28" y="-266.5" font-family="Helvetica,sans-Serif" font-size="10.00" fill="#000000">+ GenericIp()</text>
<text text-anchor="start" x="28" y="-255.5" font-family="Helvetica,sans-Serif" font-size="10.00" fill="#000000">+ GenericIp()</text>
<text text-anchor="start" x="28" y="-244.5" font-family="Helvetica,sans-Serif" font-size="10.00" fill="#000000">+ GenericIp()</text>
<text text-anchor="start" x="28" y="-233.5" font-family="Helvetica,sans-Serif" font-size="10.00" fill="#000000">+ GenericIp()</text>
<text text-anchor="start" x="28" y="-222.5" font-family="Helvetica,sans-Serif" font-size="10.00" fill="#000000">+ GenericIp()</text>
<text text-anchor="start" x="28" y="-211.5" font-family="Helvetica,sans-Serif" font-size="10.00" fill="#000000">+ GenericIp()</text>
<text text-anchor="start" x="28" y="-200.5" font-family="Helvetica,sans-Serif" font-size="10.00" fill="#000000">+ byte()</text>
<text text-anchor="start" x="28" y="-189.5" font-family="Helvetica,sans-Serif" font-size="10.00" fill="#000000">+ byte()</text>
<text text-anchor="start" x="28" y="-178.5" font-family="Helvetica,sans-Serif" font-size="10.00" fill="#000000">+ contains()</text>
<text text-anchor="start" x="28" y="-167.5" font-family="Helvetica,sans-Serif" font-size="10.00" fill="#000000">+ operator=()</text>
<text text-anchor="start" x="28" y="-156.5" font-family="Helvetica,sans-Serif" font-size="10.00" fill="#000000">+ operator&lt;()</text>
<text text-anchor="start" x="28" y="-145.5" font-family="Helvetica,sans-Serif" font-size="10.00" fill="#000000">+ operator&gt;()</text>
<text text-anchor="start" x="28" y="-134.5" font-family="Helvetica,sans-Serif" font-size="10.00" fill="#000000">+ operator==()</text>
<text text-anchor="start" x="28" y="-123.5" font-family="Helvetica,sans-Serif" font-size="10.00" fill="#000000">+ bytesNumber()</text>
</a>
</g>
</g>
<!-- Node2&#45;&gt;Node1 -->
<g id="edge1" class="edge">
<title>Node2&#45;&gt;Node1</title>
<path fill="none" stroke="#404040" d="M82,-116.4371C82,-99.8679 82,-83.5629 82,-69.6049"/>
<polygon fill="none" stroke="#404040" points="82.0001,-69.5059 78,-63.5059 82,-57.5059 86,-63.5059 82.0001,-69.5059"/>
<text text-anchor="middle" x="97.5" y="-90" font-family="Helvetica,sans-Serif" font-size="10.00" fill="#000000"> +min</text>
<text text-anchor="middle" x="97.5" y="-79" font-family="Helvetica,sans-Serif" font-size="10.00" fill="#000000">+max</text>
</g>
<!-- Node3 -->
<g id="node3" class="node">
<title>Node3</title>
<g id="a_node3"><a xlink:title=" ">
<polygon fill="#ffffff" stroke="#bfbfbf" points="0,-364.5 0,-421.5 164,-421.5 164,-364.5 0,-364.5"/>
<text text-anchor="middle" x="82" y="-409.5" font-family="Helvetica,sans-Serif" font-size="10.00" fill="#000000">array&lt; Byte, _bytesNumber &gt;</text>
<polyline fill="none" stroke="#bfbfbf" points="0,-402.5 164,-402.5 "/>
<text text-anchor="middle" x="82" y="-390.5" font-family="Helvetica,sans-Serif" font-size="10.00" fill="#000000"> </text>
<polyline fill="none" stroke="#bfbfbf" points="0,-383.5 164,-383.5 "/>
<text text-anchor="middle" x="82" y="-371.5" font-family="Helvetica,sans-Serif" font-size="10.00" fill="#000000"> </text>
</a>
</g>
</g>
<!-- Node3&#45;&gt;Node2 -->
<g id="edge2" class="edge">
<title>Node3&#45;&gt;Node2</title>
<path fill="none" stroke="#404040" d="M82,-364.2494C82,-354.0034 82,-341.7546 82,-328.7535"/>
<polygon fill="none" stroke="#404040" points="82.0001,-328.6381 78,-322.6381 82,-316.6381 86,-322.6381 82.0001,-328.6381"/>
<text text-anchor="middle" x="99" y="-338" font-family="Helvetica,sans-Serif" font-size="10.00" fill="#000000"> &#45;_data</text>
</g>
</g>
</svg>
