<?xml version="1.0" encoding="UTF-8" standalone="no"?>
<!DOCTYPE svg PUBLIC "-//W3C//DTD SVG 1.1//EN"
 "http://www.w3.org/Graphics/SVG/1.1/DTD/svg11.dtd">
<!-- Generated by graphviz version 2.40.1 (20161225.0304)
 -->
<!-- Title: hw_libs::fake_std17::disjunction&lt; B1, Bn... &gt; Pages: 1 -->
<svg width="147pt" height="193pt"
 viewBox="0.00 0.00 147.00 193.00" xmlns="http://www.w3.org/2000/svg" xmlns:xlink="http://www.w3.org/1999/xlink">
<g id="graph0" class="graph" transform="scale(1 1) rotate(0) translate(4 189)">
<title>hw_libs::fake_std17::disjunction&lt; B1, Bn... &gt;</title>
<polygon fill="#ffffff" stroke="transparent" points="-4,4 -4,-189 143,-189 143,4 -4,4"/>
<!-- Node2 -->
<g id="node1" class="node">
<title>Node2</title>
<polygon fill="#bfbfbf" stroke="#000000" points="0,-.5 0,-68.5 139,-68.5 139,-.5 0,-.5"/>
<text text-anchor="start" x="8" y="-56.5" font-family="Helvetica,sans-Serif" font-size="10.00" fill="#000000">hw_libs::fake_std17</text>
<text text-anchor="middle" x="69.5" y="-45.5" font-family="Helvetica,sans-Serif" font-size="10.00" fill="#000000">::disjunction&lt; B1, Bn... &gt;</text>
<polyline fill="none" stroke="#000000" points="0,-38.5 139,-38.5 "/>
<text text-anchor="middle" x="69.5" y="-26.5" font-family="Helvetica,sans-Serif" font-size="10.00" fill="#000000"> </text>
<polyline fill="none" stroke="#000000" points="0,-19.5 139,-19.5 "/>
<text text-anchor="middle" x="69.5" y="-7.5" font-family="Helvetica,sans-Serif" font-size="10.00" fill="#000000"> </text>
</g>
<!-- Node3 -->
<g id="node2" class="node">
<title>Node3</title>
<polygon fill="#ffffff" stroke="#bfbfbf" points="5.5,-105.5 5.5,-184.5 133.5,-184.5 133.5,-105.5 5.5,-105.5"/>
<text text-anchor="start" x="13.5" y="-172.5" font-family="Helvetica,sans-Serif" font-size="10.00" fill="#000000">std::conditional_t</text>
<text text-anchor="start" x="13.5" y="-161.5" font-family="Helvetica,sans-Serif" font-size="10.00" fill="#000000">&lt; bool(B1::value), B1,</text>
<text text-anchor="middle" x="69.5" y="-150.5" font-family="Helvetica,sans-Serif" font-size="10.00" fill="#000000"> disjunction&lt; Bn... &gt; &gt;</text>
<polyline fill="none" stroke="#bfbfbf" points="5.5,-143.5 133.5,-143.5 "/>
<text text-anchor="middle" x="69.5" y="-131.5" font-family="Helvetica,sans-Serif" font-size="10.00" fill="#000000"> </text>
<polyline fill="none" stroke="#bfbfbf" points="5.5,-124.5 133.5,-124.5 "/>
<text text-anchor="middle" x="69.5" y="-112.5" font-family="Helvetica,sans-Serif" font-size="10.00" fill="#000000"> </text>
</g>
<!-- Node3&#45;&gt;Node2 -->
<g id="edge1" class="edge">
<title>Node3&#45;&gt;Node2</title>
<path fill="none" stroke="#191970" d="M69.5,-95.3742C69.5,-86.3552 69.5,-77.1343 69.5,-68.6861"/>
<polygon fill="none" stroke="#191970" points="66.0001,-95.419 69.5,-105.4191 73.0001,-95.4191 66.0001,-95.419"/>
</g>
</g>
</svg>
