<?xml version="1.0" encoding="UTF-8" standalone="no"?>
<!DOCTYPE svg PUBLIC "-//W3C//DTD SVG 1.1//EN"
 "http://www.w3.org/Graphics/SVG/1.1/DTD/svg11.dtd">
<!-- Generated by graphviz version 2.40.1 (20161225.0304)
 -->
<!-- Title: hw3::Bits&lt; T &gt; Pages: 1 -->
<svg width="116pt" height="171pt"
 viewBox="0.00 0.00 116.00 171.00" xmlns="http://www.w3.org/2000/svg" xmlns:xlink="http://www.w3.org/1999/xlink">
<g id="graph0" class="graph" transform="scale(1 1) rotate(0) translate(4 167)">
<title>hw3::Bits&lt; T &gt;</title>
<polygon fill="#ffffff" stroke="transparent" points="-4,4 -4,-167 112,-167 112,4 -4,4"/>
<!-- Node1 -->
<g id="node1" class="node">
<title>Node1</title>
<g id="a_node1"><a xlink:title=" ">
<polygon fill="#bfbfbf" stroke="#000000" points="9,-.5 9,-57.5 99,-57.5 99,-.5 9,-.5"/>
<text text-anchor="middle" x="54" y="-45.5" font-family="Helvetica,sans-Serif" font-size="10.00" fill="#000000">hw3::Bits&lt; T &gt;</text>
<polyline fill="none" stroke="#000000" points="9,-38.5 99,-38.5 "/>
<text text-anchor="middle" x="54" y="-26.5" font-family="Helvetica,sans-Serif" font-size="10.00" fill="#000000"> </text>
<polyline fill="none" stroke="#000000" points="9,-19.5 99,-19.5 "/>
<text text-anchor="middle" x="54" y="-7.5" font-family="Helvetica,sans-Serif" font-size="10.00" fill="#000000"> </text>
</a>
</g>
</g>
<!-- Node2 -->
<g id="node2" class="node">
<title>Node2</title>
<g id="a_node2"><a xlink:title=" ">
<polygon fill="#ffffff" stroke="#bfbfbf" points="0,-105.5 0,-162.5 50,-162.5 50,-105.5 0,-105.5"/>
<text text-anchor="middle" x="25" y="-150.5" font-family="Helvetica,sans-Serif" font-size="10.00" fill="#000000">uint8_t</text>
<polyline fill="none" stroke="#bfbfbf" points="0,-143.5 50,-143.5 "/>
<text text-anchor="middle" x="25" y="-131.5" font-family="Helvetica,sans-Serif" font-size="10.00" fill="#000000"> </text>
<polyline fill="none" stroke="#bfbfbf" points="0,-124.5 50,-124.5 "/>
<text text-anchor="middle" x="25" y="-112.5" font-family="Helvetica,sans-Serif" font-size="10.00" fill="#000000"> </text>
</a>
</g>
</g>
<!-- Node2&#45;&gt;Node1 -->
<g id="edge1" class="edge">
<title>Node2&#45;&gt;Node1</title>
<path fill="none" stroke="#404040" d="M25.9642,-105.2995C26.8097,-95.834 28.3228,-85.3422 31,-76 31.6843,-73.6121 32.4848,-71.1981 33.3689,-68.7908"/>
<polygon fill="none" stroke="#404040" points="33.3756,-68.7746 31.9922,-61.6975 37.9929,-57.6985 39.3763,-64.7756 33.3756,-68.7746"/>
<text text-anchor="middle" x="46" y="-79" font-family="Helvetica,sans-Serif" font-size="10.00" fill="#000000"> +bits</text>
</g>
<!-- Node3 -->
<g id="node3" class="node">
<title>Node3</title>
<g id="a_node3"><a xlink:title=" ">
<polygon fill="#ffffff" stroke="#bfbfbf" points="68.5,-105.5 68.5,-162.5 97.5,-162.5 97.5,-105.5 68.5,-105.5"/>
<text text-anchor="middle" x="83" y="-150.5" font-family="Helvetica,sans-Serif" font-size="10.00" fill="#000000">T</text>
<polyline fill="none" stroke="#bfbfbf" points="68.5,-143.5 97.5,-143.5 "/>
<text text-anchor="middle" x="83" y="-131.5" font-family="Helvetica,sans-Serif" font-size="10.00" fill="#000000"> </text>
<polyline fill="none" stroke="#bfbfbf" points="68.5,-124.5 97.5,-124.5 "/>
<text text-anchor="middle" x="83" y="-112.5" font-family="Helvetica,sans-Serif" font-size="10.00" fill="#000000"> </text>
</a>
</g>
</g>
<!-- Node3&#45;&gt;Node1 -->
<g id="edge2" class="edge">
<title>Node3&#45;&gt;Node1</title>
<path fill="none" stroke="#404040" d="M75.0756,-105.3083C72.0067,-94.1966 68.4391,-81.2796 65.1214,-69.2673"/>
<polygon fill="none" stroke="#404040" points="65.1095,-69.224 59.6565,-64.5054 61.9148,-57.657 67.3678,-62.3756 65.1095,-69.224"/>
<text text-anchor="middle" x="88.5" y="-79" font-family="Helvetica,sans-Serif" font-size="10.00" fill="#000000"> +value</text>
</g>
</g>
</svg>
