<?xml version="1.0" encoding="UTF-8" standalone="no"?>
<!DOCTYPE svg PUBLIC "-//W3C//DTD SVG 1.1//EN"
 "http://www.w3.org/Graphics/SVG/1.1/DTD/svg11.dtd">
<!-- Generated by graphviz version 2.40.1 (20161225.0304)
 -->
<!-- Title: hw1_cicd/lib/version.h Pages: 1 -->
<svg width="339pt" height="140pt"
 viewBox="0.00 0.00 339.00 140.00" xmlns="http://www.w3.org/2000/svg" xmlns:xlink="http://www.w3.org/1999/xlink">
<g id="graph0" class="graph" transform="scale(1 1) rotate(0) translate(4 136)">
<title>hw1_cicd/lib/version.h</title>
<polygon fill="#ffffff" stroke="transparent" points="-4,4 -4,-136 335,-136 335,4 -4,4"/>
<!-- Node1 -->
<g id="node1" class="node">
<title>Node1</title>
<g id="a_node1"><a xlink:title=" ">
<polygon fill="#bfbfbf" stroke="#000000" points="88.5,-112.5 88.5,-131.5 213.5,-131.5 213.5,-112.5 88.5,-112.5"/>
<text text-anchor="middle" x="151" y="-119.5" font-family="Helvetica,sans-Serif" font-size="10.00" fill="#000000">hw1_cicd/lib/version.h</text>
</a>
</g>
</g>
<!-- Node2 -->
<g id="node2" class="node">
<title>Node2</title>
<g id="a_node2"><a xlink:href="version_8cpp.html" target="_top" xlink:title=" ">
<polygon fill="#ffffff" stroke="#000000" points="0,-56.5 0,-75.5 62,-75.5 62,-56.5 0,-56.5"/>
<text text-anchor="middle" x="31" y="-63.5" font-family="Helvetica,sans-Serif" font-size="10.00" fill="#000000">version.h</text>
</a>
</g>
</g>
<!-- Node1&#45;&gt;Node2 -->
<g id="edge1" class="edge">
<title>Node1&#45;&gt;Node2</title>
<path fill="none" stroke="#191970" d="M121.2376,-108.1109C99.4768,-97.9559 70.5318,-84.4482 51.3595,-75.5011"/>
<polygon fill="#191970" stroke="#191970" points="119.8293,-111.316 130.3713,-112.3733 122.7895,-104.9727 119.8293,-111.316"/>
</g>
<!-- Node3 -->
<g id="node3" class="node">
<title>Node3</title>
<g id="a_node3"><a xlink:href="hw1__cicd_2src_2main_8cpp.html" target="_top" xlink:title=" ">
<polygon fill="#ffffff" stroke="#000000" points="80,-56.5 80,-75.5 142,-75.5 142,-56.5 80,-56.5"/>
<text text-anchor="middle" x="111" y="-63.5" font-family="Helvetica,sans-Serif" font-size="10.00" fill="#000000">version.h</text>
</a>
</g>
</g>
<!-- Node1&#45;&gt;Node3 -->
<g id="edge2" class="edge">
<title>Node1&#45;&gt;Node3</title>
<path fill="none" stroke="#191970" d="M138.0864,-103.9209C131.3697,-94.5176 123.4283,-83.3997 117.8876,-75.6427"/>
<polygon fill="#191970" stroke="#191970" points="135.372,-106.1425 144.0325,-112.2455 141.0682,-102.0738 135.372,-106.1425"/>
</g>
<!-- Node4 -->
<g id="node4" class="node">
<title>Node4</title>
<g id="a_node4"><a xlink:href="_project_version_tests_8cpp.html" target="_top" xlink:title=" ">
<polygon fill="#ffffff" stroke="#000000" points="160,-56.5 160,-75.5 222,-75.5 222,-56.5 160,-56.5"/>
<text text-anchor="middle" x="191" y="-63.5" font-family="Helvetica,sans-Serif" font-size="10.00" fill="#000000">version.h</text>
</a>
</g>
</g>
<!-- Node1&#45;&gt;Node4 -->
<g id="edge3" class="edge">
<title>Node1&#45;&gt;Node4</title>
<path fill="none" stroke="#191970" d="M163.9136,-103.9209C170.6303,-94.5176 178.5717,-83.3997 184.1124,-75.6427"/>
<polygon fill="#191970" stroke="#191970" points="160.9318,-102.0738 157.9675,-112.2455 166.628,-106.1425 160.9318,-102.0738"/>
</g>
<!-- Node5 -->
<g id="node5" class="node">
<title>Node5</title>
<g id="a_node5"><a xlink:href="_project_version_tests_8h.html" target="_top" xlink:title=" ">
<polygon fill="#ffffff" stroke="#000000" points="240,-56.5 240,-75.5 302,-75.5 302,-56.5 240,-56.5"/>
<text text-anchor="middle" x="271" y="-63.5" font-family="Helvetica,sans-Serif" font-size="10.00" fill="#000000">version.h</text>
</a>
</g>
</g>
<!-- Node1&#45;&gt;Node5 -->
<g id="edge4" class="edge">
<title>Node1&#45;&gt;Node5</title>
<path fill="none" stroke="#191970" d="M180.7624,-108.1109C202.5232,-97.9559 231.4682,-84.4482 250.6405,-75.5011"/>
<polygon fill="#191970" stroke="#191970" points="179.2105,-104.9727 171.6287,-112.3733 182.1707,-111.316 179.2105,-104.9727"/>
</g>
<!-- Node6 -->
<g id="node6" class="node">
<title>Node6</title>
<g id="a_node6"><a xlink:href="_google_test_8cpp.html" target="_top" xlink:title=" ">
<polygon fill="#ffffff" stroke="#000000" points="211,-.5 211,-19.5 331,-19.5 331,-.5 211,-.5"/>
<text text-anchor="middle" x="271" y="-7.5" font-family="Helvetica,sans-Serif" font-size="10.00" fill="#000000">ProjectVersionTests.h</text>
</a>
</g>
</g>
<!-- Node5&#45;&gt;Node6 -->
<g id="edge5" class="edge">
<title>Node5&#45;&gt;Node6</title>
<path fill="none" stroke="#191970" d="M271,-46.1575C271,-37.155 271,-26.9199 271,-19.6427"/>
<polygon fill="#191970" stroke="#191970" points="267.5001,-46.2455 271,-56.2455 274.5001,-46.2456 267.5001,-46.2455"/>
</g>
</g>
</svg>
