<?xml version="1.0" encoding="UTF-8" standalone="no"?>
<!DOCTYPE svg PUBLIC "-//W3C//DTD SVG 1.1//EN"
 "http://www.w3.org/Graphics/SVG/1.1/DTD/svg11.dtd">
<!-- Generated by graphviz version 2.40.1 (20161225.0304)
 -->
<!-- Title: hw1_cicd/lib/version.h Pages: 1 -->
<svg width="622pt" height="162pt"
 viewBox="0.00 0.00 621.50 162.00" xmlns="http://www.w3.org/2000/svg" xmlns:xlink="http://www.w3.org/1999/xlink">
<g id="graph0" class="graph" transform="scale(1 1) rotate(0) translate(4 158)">
<title>hw1_cicd/lib/version.h</title>
<polygon fill="#ffffff" stroke="transparent" points="-4,4 -4,-158 617.5,-158 617.5,4 -4,4"/>
<!-- Node1 -->
<g id="node1" class="node">
<title>Node1</title>
<polygon fill="#bfbfbf" stroke="#000000" points="232.5,-134.5 232.5,-153.5 357.5,-153.5 357.5,-134.5 232.5,-134.5"/>
<text text-anchor="middle" x="295" y="-141.5" font-family="Helvetica,sans-Serif" font-size="10.00" fill="#000000">hw1_cicd/lib/version.h</text>
</g>
<!-- Node2 -->
<g id="node2" class="node">
<title>Node2</title>
<g id="a_node2"><a xlink:href="version_8cpp.html" target="_top" xlink:title="hw1_cicd/lib/version.cpp">
<polygon fill="#ffffff" stroke="#000000" points="0,-73 0,-92 136,-92 136,-73 0,-73"/>
<text text-anchor="middle" x="68" y="-80" font-family="Helvetica,sans-Serif" font-size="10.00" fill="#000000">hw1_cicd/lib/version.cpp</text>
</a>
</g>
</g>
<!-- Node1&#45;&gt;Node2 -->
<g id="edge1" class="edge">
<title>Node1&#45;&gt;Node2</title>
<path fill="none" stroke="#191970" d="M249.8611,-131.7707C206.7542,-120.092 142.6803,-102.7328 103.2197,-92.0419"/>
<polygon fill="#191970" stroke="#191970" points="248.9639,-135.1538 259.5313,-134.3906 250.7945,-128.3974 248.9639,-135.1538"/>
</g>
<!-- Node3 -->
<g id="node3" class="node">
<title>Node3</title>
<g id="a_node3"><a xlink:href="hw1__cicd_2src_2main_8cpp.html" target="_top" xlink:title="hw1_cicd/src/main.cpp">
<polygon fill="#ffffff" stroke="#000000" points="154.5,-73 154.5,-92 281.5,-92 281.5,-73 154.5,-73"/>
<text text-anchor="middle" x="218" y="-80" font-family="Helvetica,sans-Serif" font-size="10.00" fill="#000000">hw1_cicd/src/main.cpp</text>
</a>
</g>
</g>
<!-- Node1&#45;&gt;Node3 -->
<g id="edge2" class="edge">
<title>Node1&#45;&gt;Node3</title>
<path fill="none" stroke="#191970" d="M275.1542,-128.1491C260.847,-116.722 242.0076,-101.6749 229.9468,-92.0419"/>
<polygon fill="#191970" stroke="#191970" points="272.9708,-130.8846 282.9688,-134.3906 277.3394,-125.415 272.9708,-130.8846"/>
</g>
<!-- Node4 -->
<g id="node4" class="node">
<title>Node4</title>
<g id="a_node4"><a xlink:href="_project_version_tests_8cpp.html" target="_top" xlink:title="hw1_cicd/tests/BoostTests\l/ProjectVersionTests.cpp">
<polygon fill="#ffffff" stroke="#000000" points="300,-67.5 300,-97.5 444,-97.5 444,-67.5 300,-67.5"/>
<text text-anchor="start" x="308" y="-85.5" font-family="Helvetica,sans-Serif" font-size="10.00" fill="#000000">hw1_cicd/tests/BoostTests</text>
<text text-anchor="middle" x="372" y="-74.5" font-family="Helvetica,sans-Serif" font-size="10.00" fill="#000000">/ProjectVersionTests.cpp</text>
</a>
</g>
</g>
<!-- Node1&#45;&gt;Node4 -->
<g id="edge3" class="edge">
<title>Node1&#45;&gt;Node4</title>
<path fill="none" stroke="#191970" d="M314.9844,-128.0385C326.7671,-118.6276 341.5867,-106.7911 353.1637,-97.5446"/>
<polygon fill="#191970" stroke="#191970" points="312.6606,-125.415 307.0313,-134.3906 317.0292,-130.8846 312.6606,-125.415"/>
</g>
<!-- Node5 -->
<g id="node5" class="node">
<title>Node5</title>
<g id="a_node5"><a xlink:href="_project_version_tests_8h.html" target="_top" xlink:title="hw1_cicd/tests/GoogleTests\l/ProjectVersionTests.h">
<polygon fill="#ffffff" stroke="#000000" points="462.5,-67.5 462.5,-97.5 613.5,-97.5 613.5,-67.5 462.5,-67.5"/>
<text text-anchor="start" x="470.5" y="-85.5" font-family="Helvetica,sans-Serif" font-size="10.00" fill="#000000">hw1_cicd/tests/GoogleTests</text>
<text text-anchor="middle" x="538" y="-74.5" font-family="Helvetica,sans-Serif" font-size="10.00" fill="#000000">/ProjectVersionTests.h</text>
</a>
</g>
</g>
<!-- Node1&#45;&gt;Node5 -->
<g id="edge4" class="edge">
<title>Node1&#45;&gt;Node5</title>
<path fill="none" stroke="#191970" d="M342.7122,-131.9247C381.5791,-122.088 436.6606,-108.1476 478.4218,-97.5784"/>
<polygon fill="#191970" stroke="#191970" points="341.5377,-128.6115 332.7021,-134.4581 343.2552,-135.3975 341.5377,-128.6115"/>
</g>
<!-- Node6 -->
<g id="node6" class="node">
<title>Node6</title>
<g id="a_node6"><a xlink:href="_google_test_8cpp.html" target="_top" xlink:title="hw1_cicd/tests/GoogleTests\l/GoogleTest.cpp">
<polygon fill="#ffffff" stroke="#000000" points="462.5,-.5 462.5,-30.5 613.5,-30.5 613.5,-.5 462.5,-.5"/>
<text text-anchor="start" x="470.5" y="-18.5" font-family="Helvetica,sans-Serif" font-size="10.00" fill="#000000">hw1_cicd/tests/GoogleTests</text>
<text text-anchor="middle" x="538" y="-7.5" font-family="Helvetica,sans-Serif" font-size="10.00" fill="#000000">/GoogleTest.cpp</text>
</a>
</g>
</g>
<!-- Node5&#45;&gt;Node6 -->
<g id="edge5" class="edge">
<title>Node5&#45;&gt;Node6</title>
<path fill="none" stroke="#191970" d="M538,-57.0249C538,-48.128 538,-38.4287 538,-30.6432"/>
<polygon fill="#191970" stroke="#191970" points="534.5001,-57.2966 538,-67.2967 541.5001,-57.2967 534.5001,-57.2966"/>
</g>
</g>
</svg>
