<?xml version="1.0" encoding="UTF-8" standalone="no"?>
<!DOCTYPE svg PUBLIC "-//W3C//DTD SVG 1.1//EN"
 "http://www.w3.org/Graphics/SVG/1.1/DTD/svg11.dtd">
<!-- Generated by graphviz version 2.40.1 (20161225.0304)
 -->
<!-- Title: hw0_cicd/lib/version.cpp Pages: 1 -->
<svg width="145pt" height="84pt"
 viewBox="0.00 0.00 145.00 84.00" xmlns="http://www.w3.org/2000/svg" xmlns:xlink="http://www.w3.org/1999/xlink">
<g id="graph0" class="graph" transform="scale(1 1) rotate(0) translate(4 80)">
<title>hw0_cicd/lib/version.cpp</title>
<polygon fill="#ffffff" stroke="transparent" points="-4,4 -4,-80 141,-80 141,4 -4,4"/>
<!-- Node1 -->
<g id="node1" class="node">
<title>Node1</title>
<g id="a_node1"><a xlink:title=" ">
<polygon fill="#bfbfbf" stroke="#000000" points="1,-56.5 1,-75.5 137,-75.5 137,-56.5 1,-56.5"/>
<text text-anchor="middle" x="69" y="-63.5" font-family="Helvetica,sans-Serif" font-size="10.00" fill="#000000">hw0_cicd/lib/version.cpp</text>
</a>
</g>
</g>
<!-- Node2 -->
<g id="node2" class="node">
<title>Node2</title>
<g id="a_node2"><a xlink:href="version_8h.html" target="_top" xlink:title=" ">
<polygon fill="#ffffff" stroke="#000000" points="0,-.5 0,-19.5 62,-19.5 62,-.5 0,-.5"/>
<text text-anchor="middle" x="31" y="-7.5" font-family="Helvetica,sans-Serif" font-size="10.00" fill="#000000">version.h</text>
</a>
</g>
</g>
<!-- Node1&#45;&gt;Node2 -->
<g id="edge1" class="edge">
<title>Node1&#45;&gt;Node2</title>
<path fill="none" stroke="#191970" d="M62.3809,-56.2455C57.0954,-48.4564 49.5459,-37.3308 43.1762,-27.9439"/>
<polygon fill="#191970" stroke="#191970" points="46.0545,-25.9522 37.5432,-19.6427 40.2621,-29.8827 46.0545,-25.9522"/>
</g>
<!-- Node3 -->
<g id="node3" class="node">
<title>Node3</title>
<g id="a_node3"><a xlink:href="config_8h.html" target="_top" xlink:title=" ">
<polygon fill="#ffffff" stroke="#000000" points="80.5,-.5 80.5,-19.5 135.5,-19.5 135.5,-.5 80.5,-.5"/>
<text text-anchor="middle" x="108" y="-7.5" font-family="Helvetica,sans-Serif" font-size="10.00" fill="#000000">config.h</text>
</a>
</g>
</g>
<!-- Node1&#45;&gt;Node3 -->
<g id="edge2" class="edge">
<title>Node1&#45;&gt;Node3</title>
<path fill="none" stroke="#191970" d="M75.7933,-56.2455C81.2178,-48.4564 88.9661,-37.3308 95.5033,-27.9439"/>
<polygon fill="#191970" stroke="#191970" points="98.4417,-29.849 101.2846,-19.6427 92.6975,-25.8485 98.4417,-29.849"/>
</g>
</g>
</svg>
